ISO-10303-21;
HEADER;
/* Generated by software containing ST-Developer
 * from STEP Tools, Inc. (www.steptools.com) 
 */

FILE_DESCRIPTION(
/* description */ (''),
/* implementation_level */ '2;1');

FILE_NAME(
/* name */ 'CNC.step',
/* time_stamp */ '2026-01-31T23:57:39+08:00',
/* author */ (''),
/* organization */ (''),
/* preprocessor_version */ 'ST-DEVELOPER v20.1',
/* originating_system */ 'Autodesk Translation Framework v14.24.0.0',
/* authorisation */ '');

FILE_SCHEMA (('AUTOMOTIVE_DESIGN { 1 0 10303 214 3 1 1 }'));
ENDSEC;

DATA;
#10=MECHANICAL_DESIGN_GEOMETRIC_PRESENTATION_REPRESENTATION('',(#13),#1555);
#11=SHAPE_REPRESENTATION_RELATIONSHIP('SRR','None',#1562,#12);
#12=ADVANCED_BREP_SHAPE_REPRESENTATION('',(#14),#1554);
#13=STYLED_ITEM('',(#1571),#14);
#14=MANIFOLD_SOLID_BREP('\X2\5B9E4F53\X0\1',#903);
#15=FACE_BOUND('',#122,.T.);
#16=FACE_BOUND('',#123,.T.);
#17=FACE_BOUND('',#124,.T.);
#18=FACE_BOUND('',#125,.T.);
#19=FACE_BOUND('',#126,.T.);
#20=FACE_BOUND('',#127,.T.);
#21=FACE_BOUND('',#128,.T.);
#22=FACE_BOUND('',#129,.T.);
#23=FACE_BOUND('',#130,.T.);
#24=FACE_BOUND('',#131,.T.);
#25=FACE_BOUND('',#132,.T.);
#26=FACE_BOUND('',#133,.T.);
#27=FACE_BOUND('',#136,.T.);
#28=FACE_BOUND('',#143,.T.);
#29=FACE_BOUND('',#146,.T.);
#30=FACE_BOUND('',#149,.T.);
#31=FACE_BOUND('',#159,.T.);
#32=FACE_BOUND('',#162,.T.);
#33=FACE_BOUND('',#169,.T.);
#34=FACE_BOUND('',#170,.T.);
#35=FACE_BOUND('',#171,.T.);
#36=FACE_BOUND('',#172,.T.);
#37=FACE_BOUND('',#173,.T.);
#38=FACE_BOUND('',#174,.T.);
#39=FACE_BOUND('',#175,.T.);
#40=FACE_BOUND('',#176,.T.);
#41=FACE_BOUND('',#177,.T.);
#42=FACE_BOUND('',#178,.T.);
#43=FACE_BOUND('',#185,.T.);
#44=PLANE('',#920);
#45=PLANE('',#938);
#46=PLANE('',#943);
#47=PLANE('',#947);
#48=PLANE('',#950);
#49=PLANE('',#954);
#50=PLANE('',#958);
#51=PLANE('',#966);
#52=PLANE('',#969);
#53=PLANE('',#975);
#54=PLANE('',#980);
#55=PLANE('',#984);
#56=PLANE('',#985);
#57=PLANE('',#986);
#58=PLANE('',#988);
#59=PLANE('',#1001);
#60=PLANE('',#1004);
#61=PLANE('',#1005);
#62=PLANE('',#1008);
#63=PLANE('',#1011);
#64=PLANE('',#1013);
#65=PLANE('',#1018);
#66=PLANE('',#1019);
#67=PLANE('',#1020);
#68=PLANE('',#1021);
#69=FACE_OUTER_BOUND('',#120,.T.);
#70=FACE_OUTER_BOUND('',#121,.T.);
#71=FACE_OUTER_BOUND('',#134,.T.);
#72=FACE_OUTER_BOUND('',#135,.T.);
#73=FACE_OUTER_BOUND('',#137,.T.);
#74=FACE_OUTER_BOUND('',#138,.T.);
#75=FACE_OUTER_BOUND('',#139,.T.);
#76=FACE_OUTER_BOUND('',#140,.T.);
#77=FACE_OUTER_BOUND('',#141,.T.);
#78=FACE_OUTER_BOUND('',#142,.T.);
#79=FACE_OUTER_BOUND('',#144,.T.);
#80=FACE_OUTER_BOUND('',#145,.T.);
#81=FACE_OUTER_BOUND('',#147,.T.);
#82=FACE_OUTER_BOUND('',#148,.T.);
#83=FACE_OUTER_BOUND('',#150,.T.);
#84=FACE_OUTER_BOUND('',#151,.T.);
#85=FACE_OUTER_BOUND('',#152,.T.);
#86=FACE_OUTER_BOUND('',#153,.T.);
#87=FACE_OUTER_BOUND('',#154,.T.);
#88=FACE_OUTER_BOUND('',#155,.T.);
#89=FACE_OUTER_BOUND('',#156,.T.);
#90=FACE_OUTER_BOUND('',#157,.T.);
#91=FACE_OUTER_BOUND('',#158,.T.);
#92=FACE_OUTER_BOUND('',#160,.T.);
#93=FACE_OUTER_BOUND('',#161,.T.);
#94=FACE_OUTER_BOUND('',#163,.T.);
#95=FACE_OUTER_BOUND('',#164,.T.);
#96=FACE_OUTER_BOUND('',#165,.T.);
#97=FACE_OUTER_BOUND('',#166,.T.);
#98=FACE_OUTER_BOUND('',#167,.T.);
#99=FACE_OUTER_BOUND('',#168,.T.);
#100=FACE_OUTER_BOUND('',#179,.T.);
#101=FACE_OUTER_BOUND('',#180,.T.);
#102=FACE_OUTER_BOUND('',#181,.T.);
#103=FACE_OUTER_BOUND('',#182,.T.);
#104=FACE_OUTER_BOUND('',#183,.T.);
#105=FACE_OUTER_BOUND('',#184,.T.);
#106=FACE_OUTER_BOUND('',#186,.T.);
#107=FACE_OUTER_BOUND('',#187,.T.);
#108=FACE_OUTER_BOUND('',#188,.T.);
#109=FACE_OUTER_BOUND('',#189,.T.);
#110=FACE_OUTER_BOUND('',#190,.T.);
#111=FACE_OUTER_BOUND('',#191,.T.);
#112=FACE_OUTER_BOUND('',#192,.T.);
#113=FACE_OUTER_BOUND('',#193,.T.);
#114=FACE_OUTER_BOUND('',#194,.T.);
#115=FACE_OUTER_BOUND('',#195,.T.);
#116=FACE_OUTER_BOUND('',#196,.T.);
#117=FACE_OUTER_BOUND('',#197,.T.);
#118=FACE_OUTER_BOUND('',#198,.T.);
#119=FACE_OUTER_BOUND('',#199,.T.);
#120=EDGE_LOOP('',(#586,#587,#588,#589));
#121=EDGE_LOOP('',(#590,#591,#592,#593));
#122=EDGE_LOOP('',(#594,#595,#596,#597,#598,#599,#600,#601));
#123=EDGE_LOOP('',(#602));
#124=EDGE_LOOP('',(#603));
#125=EDGE_LOOP('',(#604));
#126=EDGE_LOOP('',(#605));
#127=EDGE_LOOP('',(#606));
#128=EDGE_LOOP('',(#607));
#129=EDGE_LOOP('',(#608));
#130=EDGE_LOOP('',(#609));
#131=EDGE_LOOP('',(#610));
#132=EDGE_LOOP('',(#611));
#133=EDGE_LOOP('',(#612,#613));
#134=EDGE_LOOP('',(#614,#615,#616,#617));
#135=EDGE_LOOP('',(#618,#619));
#136=EDGE_LOOP('',(#620));
#137=EDGE_LOOP('',(#621,#622,#623,#624));
#138=EDGE_LOOP('',(#625));
#139=EDGE_LOOP('',(#626,#627,#628,#629));
#140=EDGE_LOOP('',(#630));
#141=EDGE_LOOP('',(#631,#632,#633,#634));
#142=EDGE_LOOP('',(#635));
#143=EDGE_LOOP('',(#636));
#144=EDGE_LOOP('',(#637,#638,#639,#640));
#145=EDGE_LOOP('',(#641));
#146=EDGE_LOOP('',(#642));
#147=EDGE_LOOP('',(#643,#644,#645,#646));
#148=EDGE_LOOP('',(#647));
#149=EDGE_LOOP('',(#648));
#150=EDGE_LOOP('',(#649,#650,#651,#652));
#151=EDGE_LOOP('',(#653,#654,#655,#656));
#152=EDGE_LOOP('',(#657,#658,#659,#660));
#153=EDGE_LOOP('',(#661));
#154=EDGE_LOOP('',(#662,#663,#664,#665));
#155=EDGE_LOOP('',(#666));
#156=EDGE_LOOP('',(#667,#668,#669,#670));
#157=EDGE_LOOP('',(#671,#672,#673,#674));
#158=EDGE_LOOP('',(#675));
#159=EDGE_LOOP('',(#676));
#160=EDGE_LOOP('',(#677,#678,#679,#680));
#161=EDGE_LOOP('',(#681));
#162=EDGE_LOOP('',(#682));
#163=EDGE_LOOP('',(#683,#684,#685,#686));
#164=EDGE_LOOP('',(#687,#688,#689,#690));
#165=EDGE_LOOP('',(#691,#692,#693,#694));
#166=EDGE_LOOP('',(#695,#696,#697,#698));
#167=EDGE_LOOP('',(#699,#700,#701,#702));
#168=EDGE_LOOP('',(#703,#704,#705,#706));
#169=EDGE_LOOP('',(#707));
#170=EDGE_LOOP('',(#708));
#171=EDGE_LOOP('',(#709));
#172=EDGE_LOOP('',(#710));
#173=EDGE_LOOP('',(#711));
#174=EDGE_LOOP('',(#712));
#175=EDGE_LOOP('',(#713));
#176=EDGE_LOOP('',(#714));
#177=EDGE_LOOP('',(#715,#716,#717,#718,#719,#720,#721,#722,#723,#724,#725,
#726,#727));
#178=EDGE_LOOP('',(#728));
#179=EDGE_LOOP('',(#729,#730,#731,#732,#733,#734,#735,#736));
#180=EDGE_LOOP('',(#737,#738,#739,#740));
#181=EDGE_LOOP('',(#741,#742,#743,#744));
#182=EDGE_LOOP('',(#745,#746,#747,#748));
#183=EDGE_LOOP('',(#749,#750,#751,#752,#753,#754));
#184=EDGE_LOOP('',(#755,#756,#757,#758,#759,#760,#761,#762));
#185=EDGE_LOOP('',(#763));
#186=EDGE_LOOP('',(#764,#765,#766,#767));
#187=EDGE_LOOP('',(#768,#769,#770,#771));
#188=EDGE_LOOP('',(#772,#773,#774,#775));
#189=EDGE_LOOP('',(#776,#777,#778,#779));
#190=EDGE_LOOP('',(#780,#781,#782,#783));
#191=EDGE_LOOP('',(#784,#785,#786,#787,#788,#789,#790,#791,#792,#793));
#192=EDGE_LOOP('',(#794,#795,#796,#797));
#193=EDGE_LOOP('',(#798,#799,#800,#801));
#194=EDGE_LOOP('',(#802,#803,#804,#805));
#195=EDGE_LOOP('',(#806,#807,#808,#809));
#196=EDGE_LOOP('',(#810,#811,#812,#813));
#197=EDGE_LOOP('',(#814,#815,#816,#817));
#198=EDGE_LOOP('',(#818,#819,#820,#821));
#199=EDGE_LOOP('',(#822,#823,#824,#825));
#200=LINE('',#1306,#266);
#201=LINE('',#1309,#267);
#202=LINE('',#1313,#268);
#203=LINE('',#1315,#269);
#204=LINE('',#1317,#270);
#205=LINE('',#1318,#271);
#206=LINE('',#1323,#272);
#207=LINE('',#1327,#273);
#208=LINE('',#1331,#274);
#209=LINE('',#1334,#275);
#210=LINE('',#1365,#276);
#211=LINE('',#1372,#277);
#212=LINE('',#1378,#278);
#213=LINE('',#1385,#279);
#214=LINE('',#1392,#280);
#215=LINE('',#1398,#281);
#216=LINE('',#1402,#282);
#217=LINE('',#1406,#283);
#218=LINE('',#1411,#284);
#219=LINE('',#1417,#285);
#220=LINE('',#1422,#286);
#221=LINE('',#1431,#287);
#222=LINE('',#1437,#288);
#223=LINE('',#1439,#289);
#224=LINE('',#1443,#290);
#225=LINE('',#1445,#291);
#226=LINE('',#1447,#292);
#227=LINE('',#1448,#293);
#228=LINE('',#1452,#294);
#229=LINE('',#1454,#295);
#230=LINE('',#1456,#296);
#231=LINE('',#1457,#297);
#232=LINE('',#1459,#298);
#233=LINE('',#1464,#299);
#234=LINE('',#1466,#300);
#235=LINE('',#1468,#301);
#236=LINE('',#1469,#302);
#237=LINE('',#1478,#303);
#238=LINE('',#1482,#304);
#239=LINE('',#1486,#305);
#240=LINE('',#1490,#306);
#241=LINE('',#1493,#307);
#242=LINE('',#1497,#308);
#243=LINE('',#1500,#309);
#244=LINE('',#1503,#310);
#245=LINE('',#1506,#311);
#246=LINE('',#1507,#312);
#247=LINE('',#1511,#313);
#248=LINE('',#1514,#314);
#249=LINE('',#1515,#315);
#250=LINE('',#1516,#316);
#251=LINE('',#1519,#317);
#252=LINE('',#1523,#318);
#253=LINE('',#1526,#319);
#254=LINE('',#1527,#320);
#255=LINE('',#1530,#321);
#256=LINE('',#1532,#322);
#257=LINE('',#1534,#323);
#258=LINE('',#1536,#324);
#259=LINE('',#1539,#325);
#260=LINE('',#1541,#326);
#261=LINE('',#1543,#327);
#262=LINE('',#1545,#328);
#263=LINE('',#1546,#329);
#264=LINE('',#1548,#330);
#265=LINE('',#1550,#331);
#266=VECTOR('',#1028,10.);
#267=VECTOR('',#1031,10.);
#268=VECTOR('',#1034,10.);
#269=VECTOR('',#1035,10.);
#270=VECTOR('',#1036,10.);
#271=VECTOR('',#1037,10.);
#272=VECTOR('',#1040,10.);
#273=VECTOR('',#1043,10.);
#274=VECTOR('',#1046,10.);
#275=VECTOR('',#1049,10.);
#276=VECTOR('',#1084,0.800000000000001);
#277=VECTOR('',#1093,0.800000000000001);
#278=VECTOR('',#1102,4.35);
#279=VECTOR('',#1111,4.35);
#280=VECTOR('',#1120,4.35);
#281=VECTOR('',#1127,1.25);
#282=VECTOR('',#1132,1.25);
#283=VECTOR('',#1137,0.800000000000001);
#284=VECTOR('',#1144,0.800000000000001);
#285=VECTOR('',#1153,0.800000000000001);
#286=VECTOR('',#1158,3.);
#287=VECTOR('',#1169,3.);
#288=VECTOR('',#1178,2.);
#289=VECTOR('',#1181,2.);
#290=VECTOR('',#1184,10.);
#291=VECTOR('',#1185,10.);
#292=VECTOR('',#1186,10.);
#293=VECTOR('',#1187,10.);
#294=VECTOR('',#1190,10.);
#295=VECTOR('',#1191,10.);
#296=VECTOR('',#1192,10.);
#297=VECTOR('',#1193,10.);
#298=VECTOR('',#1196,10.);
#299=VECTOR('',#1201,10.);
#300=VECTOR('',#1202,10.);
#301=VECTOR('',#1203,10.);
#302=VECTOR('',#1204,10.);
#303=VECTOR('',#1213,10.);
#304=VECTOR('',#1216,10.);
#305=VECTOR('',#1219,10.);
#306=VECTOR('',#1222,10.);
#307=VECTOR('',#1225,10.);
#308=VECTOR('',#1230,8.5);
#309=VECTOR('',#1233,10.);
#310=VECTOR('',#1236,10.);
#311=VECTOR('',#1239,10.);
#312=VECTOR('',#1240,10.);
#313=VECTOR('',#1245,10.);
#314=VECTOR('',#1248,10.);
#315=VECTOR('',#1249,10.);
#316=VECTOR('',#1250,10.);
#317=VECTOR('',#1253,10.);
#318=VECTOR('',#1256,10.);
#319=VECTOR('',#1261,10.);
#320=VECTOR('',#1262,10.);
#321=VECTOR('',#1267,10.);
#322=VECTOR('',#1270,10.);
#323=VECTOR('',#1273,10.);
#324=VECTOR('',#1276,10.);
#325=VECTOR('',#1281,5.);
#326=VECTOR('',#1284,5.);
#327=VECTOR('',#1287,5.);
#328=VECTOR('',#1290,10.);
#329=VECTOR('',#1291,10.);
#330=VECTOR('',#1294,10.);
#331=VECTOR('',#1297,10.);
#332=CIRCLE('',#918,0.750000000000003);
#333=CIRCLE('',#919,0.750000000000003);
#334=CIRCLE('',#921,1.00000000000001);
#335=CIRCLE('',#922,0.999999999999996);
#336=CIRCLE('',#923,0.999999999999996);
#337=CIRCLE('',#924,1.00000000000001);
#338=CIRCLE('',#925,2.);
#339=CIRCLE('',#926,2.);
#340=CIRCLE('',#927,0.800000000000001);
#341=CIRCLE('',#928,0.800000000000001);
#342=CIRCLE('',#929,0.800000000000001);
#343=CIRCLE('',#930,1.25);
#344=CIRCLE('',#931,1.25);
#345=CIRCLE('',#932,4.35);
#346=CIRCLE('',#933,4.35);
#347=CIRCLE('',#934,4.35);
#348=CIRCLE('',#935,9.05);
#349=CIRCLE('',#937,9.05);
#350=CIRCLE('',#939,8.5);
#351=CIRCLE('',#941,0.800000000000001);
#352=CIRCLE('',#942,0.800000000000001);
#353=CIRCLE('',#945,0.800000000000001);
#354=CIRCLE('',#946,0.800000000000001);
#355=CIRCLE('',#949,4.35);
#356=CIRCLE('',#951,5.);
#357=CIRCLE('',#953,4.35);
#358=CIRCLE('',#955,5.);
#359=CIRCLE('',#957,4.35);
#360=CIRCLE('',#959,5.);
#361=CIRCLE('',#961,1.25);
#362=CIRCLE('',#963,1.25);
#363=CIRCLE('',#965,0.800000000000001);
#364=CIRCLE('',#968,0.800000000000001);
#365=CIRCLE('',#971,0.800000000000001);
#366=CIRCLE('',#973,3.);
#367=CIRCLE('',#974,3.);
#368=CIRCLE('',#976,2.);
#369=CIRCLE('',#978,3.);
#370=CIRCLE('',#979,3.);
#371=CIRCLE('',#981,2.);
#372=CIRCLE('',#987,8.5);
#373=CIRCLE('',#989,5.);
#374=CIRCLE('',#990,5.);
#375=CIRCLE('',#991,8.5);
#376=CIRCLE('',#992,8.5);
#377=CIRCLE('',#993,1.00000000000001);
#378=CIRCLE('',#994,0.999999999999996);
#379=CIRCLE('',#995,0.999999999999996);
#380=CIRCLE('',#996,0.999999999999988);
#381=CIRCLE('',#997,5.);
#382=CIRCLE('',#1000,1.00000000000001);
#383=CIRCLE('',#1003,0.999999999999996);
#384=CIRCLE('',#1006,0.999999999999988);
#385=CIRCLE('',#1007,0.999999999999996);
#386=VERTEX_POINT('',#1302);
#387=VERTEX_POINT('',#1303);
#388=VERTEX_POINT('',#1305);
#389=VERTEX_POINT('',#1307);
#390=VERTEX_POINT('',#1311);
#391=VERTEX_POINT('',#1312);
#392=VERTEX_POINT('',#1314);
#393=VERTEX_POINT('',#1316);
#394=VERTEX_POINT('',#1319);
#395=VERTEX_POINT('',#1320);
#396=VERTEX_POINT('',#1322);
#397=VERTEX_POINT('',#1324);
#398=VERTEX_POINT('',#1326);
#399=VERTEX_POINT('',#1328);
#400=VERTEX_POINT('',#1330);
#401=VERTEX_POINT('',#1332);
#402=VERTEX_POINT('',#1335);
#403=VERTEX_POINT('',#1337);
#404=VERTEX_POINT('',#1339);
#405=VERTEX_POINT('',#1341);
#406=VERTEX_POINT('',#1343);
#407=VERTEX_POINT('',#1345);
#408=VERTEX_POINT('',#1347);
#409=VERTEX_POINT('',#1349);
#410=VERTEX_POINT('',#1351);
#411=VERTEX_POINT('',#1353);
#412=VERTEX_POINT('',#1359);
#413=VERTEX_POINT('',#1362);
#414=VERTEX_POINT('',#1364);
#415=VERTEX_POINT('',#1369);
#416=VERTEX_POINT('',#1371);
#417=VERTEX_POINT('',#1376);
#418=VERTEX_POINT('',#1380);
#419=VERTEX_POINT('',#1383);
#420=VERTEX_POINT('',#1387);
#421=VERTEX_POINT('',#1390);
#422=VERTEX_POINT('',#1394);
#423=VERTEX_POINT('',#1397);
#424=VERTEX_POINT('',#1401);
#425=VERTEX_POINT('',#1405);
#426=VERTEX_POINT('',#1410);
#427=VERTEX_POINT('',#1415);
#428=VERTEX_POINT('',#1419);
#429=VERTEX_POINT('',#1421);
#430=VERTEX_POINT('',#1425);
#431=VERTEX_POINT('',#1428);
#432=VERTEX_POINT('',#1430);
#433=VERTEX_POINT('',#1434);
#434=VERTEX_POINT('',#1441);
#435=VERTEX_POINT('',#1442);
#436=VERTEX_POINT('',#1444);
#437=VERTEX_POINT('',#1446);
#438=VERTEX_POINT('',#1450);
#439=VERTEX_POINT('',#1451);
#440=VERTEX_POINT('',#1453);
#441=VERTEX_POINT('',#1455);
#442=VERTEX_POINT('',#1462);
#443=VERTEX_POINT('',#1463);
#444=VERTEX_POINT('',#1465);
#445=VERTEX_POINT('',#1467);
#446=VERTEX_POINT('',#1470);
#447=VERTEX_POINT('',#1472);
#448=VERTEX_POINT('',#1474);
#449=VERTEX_POINT('',#1477);
#450=VERTEX_POINT('',#1479);
#451=VERTEX_POINT('',#1481);
#452=VERTEX_POINT('',#1483);
#453=VERTEX_POINT('',#1485);
#454=VERTEX_POINT('',#1487);
#455=VERTEX_POINT('',#1489);
#456=VERTEX_POINT('',#1491);
#457=VERTEX_POINT('',#1494);
#458=VERTEX_POINT('',#1499);
#459=VERTEX_POINT('',#1501);
#460=VERTEX_POINT('',#1505);
#461=VERTEX_POINT('',#1509);
#462=VERTEX_POINT('',#1513);
#463=VERTEX_POINT('',#1518);
#464=VERTEX_POINT('',#1520);
#465=VERTEX_POINT('',#1522);
#466=EDGE_CURVE('',#386,#387,#332,.T.);
#467=EDGE_CURVE('',#388,#386,#200,.T.);
#468=EDGE_CURVE('',#388,#389,#333,.T.);
#469=EDGE_CURVE('',#387,#389,#201,.T.);
#470=EDGE_CURVE('',#390,#391,#202,.T.);
#471=EDGE_CURVE('',#391,#392,#203,.T.);
#472=EDGE_CURVE('',#392,#393,#204,.T.);
#473=EDGE_CURVE('',#393,#390,#205,.T.);
#474=EDGE_CURVE('',#394,#395,#334,.T.);
#475=EDGE_CURVE('',#395,#396,#206,.T.);
#476=EDGE_CURVE('',#396,#397,#335,.T.);
#477=EDGE_CURVE('',#397,#398,#207,.T.);
#478=EDGE_CURVE('',#398,#399,#336,.T.);
#479=EDGE_CURVE('',#399,#400,#208,.T.);
#480=EDGE_CURVE('',#400,#401,#337,.T.);
#481=EDGE_CURVE('',#401,#394,#209,.T.);
#482=EDGE_CURVE('',#402,#402,#338,.T.);
#483=EDGE_CURVE('',#403,#403,#339,.T.);
#484=EDGE_CURVE('',#404,#404,#340,.T.);
#485=EDGE_CURVE('',#405,#405,#341,.T.);
#486=EDGE_CURVE('',#406,#406,#342,.T.);
#487=EDGE_CURVE('',#407,#407,#343,.T.);
#488=EDGE_CURVE('',#408,#408,#344,.T.);
#489=EDGE_CURVE('',#409,#409,#345,.T.);
#490=EDGE_CURVE('',#410,#410,#346,.T.);
#491=EDGE_CURVE('',#411,#411,#347,.T.);
#492=EDGE_CURVE('',#387,#386,#348,.T.);
#493=EDGE_CURVE('',#389,#388,#349,.T.);
#494=EDGE_CURVE('',#412,#412,#350,.T.);
#495=EDGE_CURVE('',#413,#413,#351,.T.);
#496=EDGE_CURVE('',#413,#414,#210,.T.);
#497=EDGE_CURVE('',#414,#414,#352,.T.);
#498=EDGE_CURVE('',#415,#415,#353,.T.);
#499=EDGE_CURVE('',#415,#416,#211,.T.);
#500=EDGE_CURVE('',#416,#416,#354,.T.);
#501=EDGE_CURVE('',#417,#417,#355,.T.);
#502=EDGE_CURVE('',#417,#411,#212,.T.);
#503=EDGE_CURVE('',#418,#418,#356,.T.);
#504=EDGE_CURVE('',#419,#419,#357,.T.);
#505=EDGE_CURVE('',#419,#410,#213,.T.);
#506=EDGE_CURVE('',#420,#420,#358,.T.);
#507=EDGE_CURVE('',#421,#421,#359,.T.);
#508=EDGE_CURVE('',#421,#409,#214,.T.);
#509=EDGE_CURVE('',#422,#422,#360,.T.);
#510=EDGE_CURVE('',#408,#423,#215,.T.);
#511=EDGE_CURVE('',#423,#423,#361,.T.);
#512=EDGE_CURVE('',#407,#424,#216,.T.);
#513=EDGE_CURVE('',#424,#424,#362,.T.);
#514=EDGE_CURVE('',#406,#425,#217,.T.);
#515=EDGE_CURVE('',#425,#425,#363,.T.);
#516=EDGE_CURVE('',#405,#426,#218,.T.);
#517=EDGE_CURVE('',#426,#426,#364,.T.);
#518=EDGE_CURVE('',#427,#427,#365,.T.);
#519=EDGE_CURVE('',#427,#404,#219,.T.);
#520=EDGE_CURVE('',#428,#428,#366,.T.);
#521=EDGE_CURVE('',#428,#429,#220,.T.);
#522=EDGE_CURVE('',#429,#429,#367,.T.);
#523=EDGE_CURVE('',#430,#430,#368,.T.);
#524=EDGE_CURVE('',#431,#431,#369,.T.);
#525=EDGE_CURVE('',#431,#432,#221,.T.);
#526=EDGE_CURVE('',#432,#432,#370,.T.);
#527=EDGE_CURVE('',#433,#433,#371,.T.);
#528=EDGE_CURVE('',#430,#403,#222,.T.);
#529=EDGE_CURVE('',#433,#402,#223,.T.);
#530=EDGE_CURVE('',#434,#435,#224,.T.);
#531=EDGE_CURVE('',#436,#434,#225,.T.);
#532=EDGE_CURVE('',#436,#437,#226,.T.);
#533=EDGE_CURVE('',#435,#437,#227,.T.);
#534=EDGE_CURVE('',#438,#439,#228,.T.);
#535=EDGE_CURVE('',#440,#438,#229,.T.);
#536=EDGE_CURVE('',#440,#441,#230,.T.);
#537=EDGE_CURVE('',#439,#441,#231,.T.);
#538=EDGE_CURVE('',#437,#440,#232,.T.);
#539=EDGE_CURVE('',#441,#436,#372,.T.);
#540=EDGE_CURVE('',#442,#443,#233,.T.);
#541=EDGE_CURVE('',#443,#444,#234,.T.);
#542=EDGE_CURVE('',#444,#445,#235,.T.);
#543=EDGE_CURVE('',#445,#442,#236,.T.);
#544=EDGE_CURVE('',#446,#446,#373,.T.);
#545=EDGE_CURVE('',#447,#447,#374,.T.);
#546=EDGE_CURVE('',#439,#448,#375,.T.);
#547=EDGE_CURVE('',#448,#434,#376,.T.);
#548=EDGE_CURVE('',#435,#449,#237,.T.);
#549=EDGE_CURVE('',#449,#450,#377,.T.);
#550=EDGE_CURVE('',#450,#451,#238,.T.);
#551=EDGE_CURVE('',#451,#452,#378,.T.);
#552=EDGE_CURVE('',#452,#453,#239,.T.);
#553=EDGE_CURVE('',#453,#454,#379,.T.);
#554=EDGE_CURVE('',#454,#455,#240,.T.);
#555=EDGE_CURVE('',#455,#456,#380,.T.);
#556=EDGE_CURVE('',#456,#438,#241,.T.);
#557=EDGE_CURVE('',#457,#457,#381,.T.);
#558=EDGE_CURVE('',#448,#412,#242,.T.);
#559=EDGE_CURVE('',#458,#394,#243,.T.);
#560=EDGE_CURVE('',#459,#458,#382,.T.);
#561=EDGE_CURVE('',#459,#395,#244,.T.);
#562=EDGE_CURVE('',#460,#459,#245,.T.);
#563=EDGE_CURVE('',#460,#396,#246,.T.);
#564=EDGE_CURVE('',#461,#460,#383,.T.);
#565=EDGE_CURVE('',#461,#397,#247,.T.);
#566=EDGE_CURVE('',#461,#462,#248,.T.);
#567=EDGE_CURVE('',#453,#462,#249,.T.);
#568=EDGE_CURVE('',#452,#398,#250,.T.);
#569=EDGE_CURVE('',#463,#458,#251,.T.);
#570=EDGE_CURVE('',#464,#463,#384,.T.);
#571=EDGE_CURVE('',#465,#464,#252,.T.);
#572=EDGE_CURVE('',#462,#465,#385,.T.);
#573=EDGE_CURVE('',#454,#465,#253,.T.);
#574=EDGE_CURVE('',#455,#464,#254,.T.);
#575=EDGE_CURVE('',#451,#399,#255,.T.);
#576=EDGE_CURVE('',#450,#400,#256,.T.);
#577=EDGE_CURVE('',#449,#401,#257,.T.);
#578=EDGE_CURVE('',#456,#463,#258,.T.);
#579=EDGE_CURVE('',#446,#418,#259,.T.);
#580=EDGE_CURVE('',#447,#422,#260,.T.);
#581=EDGE_CURVE('',#457,#420,#261,.T.);
#582=EDGE_CURVE('',#391,#442,#262,.T.);
#583=EDGE_CURVE('',#392,#445,#263,.T.);
#584=EDGE_CURVE('',#393,#444,#264,.T.);
#585=EDGE_CURVE('',#390,#443,#265,.T.);
#586=ORIENTED_EDGE('',*,*,#466,.F.);
#587=ORIENTED_EDGE('',*,*,#467,.F.);
#588=ORIENTED_EDGE('',*,*,#468,.T.);
#589=ORIENTED_EDGE('',*,*,#469,.F.);
#590=ORIENTED_EDGE('',*,*,#470,.T.);
#591=ORIENTED_EDGE('',*,*,#471,.T.);
#592=ORIENTED_EDGE('',*,*,#472,.T.);
#593=ORIENTED_EDGE('',*,*,#473,.T.);
#594=ORIENTED_EDGE('',*,*,#474,.T.);
#595=ORIENTED_EDGE('',*,*,#475,.T.);
#596=ORIENTED_EDGE('',*,*,#476,.T.);
#597=ORIENTED_EDGE('',*,*,#477,.T.);
#598=ORIENTED_EDGE('',*,*,#478,.T.);
#599=ORIENTED_EDGE('',*,*,#479,.T.);
#600=ORIENTED_EDGE('',*,*,#480,.T.);
#601=ORIENTED_EDGE('',*,*,#481,.T.);
#602=ORIENTED_EDGE('',*,*,#482,.T.);
#603=ORIENTED_EDGE('',*,*,#483,.T.);
#604=ORIENTED_EDGE('',*,*,#484,.T.);
#605=ORIENTED_EDGE('',*,*,#485,.T.);
#606=ORIENTED_EDGE('',*,*,#486,.T.);
#607=ORIENTED_EDGE('',*,*,#487,.T.);
#608=ORIENTED_EDGE('',*,*,#488,.T.);
#609=ORIENTED_EDGE('',*,*,#489,.F.);
#610=ORIENTED_EDGE('',*,*,#490,.F.);
#611=ORIENTED_EDGE('',*,*,#491,.F.);
#612=ORIENTED_EDGE('',*,*,#466,.T.);
#613=ORIENTED_EDGE('',*,*,#492,.T.);
#614=ORIENTED_EDGE('',*,*,#469,.T.);
#615=ORIENTED_EDGE('',*,*,#493,.T.);
#616=ORIENTED_EDGE('',*,*,#467,.T.);
#617=ORIENTED_EDGE('',*,*,#492,.F.);
#618=ORIENTED_EDGE('',*,*,#493,.F.);
#619=ORIENTED_EDGE('',*,*,#468,.F.);
#620=ORIENTED_EDGE('',*,*,#494,.F.);
#621=ORIENTED_EDGE('',*,*,#495,.F.);
#622=ORIENTED_EDGE('',*,*,#496,.T.);
#623=ORIENTED_EDGE('',*,*,#497,.T.);
#624=ORIENTED_EDGE('',*,*,#496,.F.);
#625=ORIENTED_EDGE('',*,*,#497,.F.);
#626=ORIENTED_EDGE('',*,*,#498,.F.);
#627=ORIENTED_EDGE('',*,*,#499,.T.);
#628=ORIENTED_EDGE('',*,*,#500,.T.);
#629=ORIENTED_EDGE('',*,*,#499,.F.);
#630=ORIENTED_EDGE('',*,*,#500,.F.);
#631=ORIENTED_EDGE('',*,*,#501,.F.);
#632=ORIENTED_EDGE('',*,*,#502,.T.);
#633=ORIENTED_EDGE('',*,*,#491,.T.);
#634=ORIENTED_EDGE('',*,*,#502,.F.);
#635=ORIENTED_EDGE('',*,*,#503,.F.);
#636=ORIENTED_EDGE('',*,*,#501,.T.);
#637=ORIENTED_EDGE('',*,*,#504,.F.);
#638=ORIENTED_EDGE('',*,*,#505,.T.);
#639=ORIENTED_EDGE('',*,*,#490,.T.);
#640=ORIENTED_EDGE('',*,*,#505,.F.);
#641=ORIENTED_EDGE('',*,*,#506,.F.);
#642=ORIENTED_EDGE('',*,*,#504,.T.);
#643=ORIENTED_EDGE('',*,*,#507,.F.);
#644=ORIENTED_EDGE('',*,*,#508,.T.);
#645=ORIENTED_EDGE('',*,*,#489,.T.);
#646=ORIENTED_EDGE('',*,*,#508,.F.);
#647=ORIENTED_EDGE('',*,*,#509,.F.);
#648=ORIENTED_EDGE('',*,*,#507,.T.);
#649=ORIENTED_EDGE('',*,*,#488,.F.);
#650=ORIENTED_EDGE('',*,*,#510,.T.);
#651=ORIENTED_EDGE('',*,*,#511,.F.);
#652=ORIENTED_EDGE('',*,*,#510,.F.);
#653=ORIENTED_EDGE('',*,*,#487,.F.);
#654=ORIENTED_EDGE('',*,*,#512,.T.);
#655=ORIENTED_EDGE('',*,*,#513,.F.);
#656=ORIENTED_EDGE('',*,*,#512,.F.);
#657=ORIENTED_EDGE('',*,*,#486,.F.);
#658=ORIENTED_EDGE('',*,*,#514,.T.);
#659=ORIENTED_EDGE('',*,*,#515,.T.);
#660=ORIENTED_EDGE('',*,*,#514,.F.);
#661=ORIENTED_EDGE('',*,*,#515,.F.);
#662=ORIENTED_EDGE('',*,*,#485,.F.);
#663=ORIENTED_EDGE('',*,*,#516,.T.);
#664=ORIENTED_EDGE('',*,*,#517,.T.);
#665=ORIENTED_EDGE('',*,*,#516,.F.);
#666=ORIENTED_EDGE('',*,*,#517,.F.);
#667=ORIENTED_EDGE('',*,*,#518,.F.);
#668=ORIENTED_EDGE('',*,*,#519,.T.);
#669=ORIENTED_EDGE('',*,*,#484,.F.);
#670=ORIENTED_EDGE('',*,*,#519,.F.);
#671=ORIENTED_EDGE('',*,*,#520,.F.);
#672=ORIENTED_EDGE('',*,*,#521,.T.);
#673=ORIENTED_EDGE('',*,*,#522,.T.);
#674=ORIENTED_EDGE('',*,*,#521,.F.);
#675=ORIENTED_EDGE('',*,*,#522,.F.);
#676=ORIENTED_EDGE('',*,*,#523,.F.);
#677=ORIENTED_EDGE('',*,*,#524,.F.);
#678=ORIENTED_EDGE('',*,*,#525,.T.);
#679=ORIENTED_EDGE('',*,*,#526,.T.);
#680=ORIENTED_EDGE('',*,*,#525,.F.);
#681=ORIENTED_EDGE('',*,*,#526,.F.);
#682=ORIENTED_EDGE('',*,*,#527,.F.);
#683=ORIENTED_EDGE('',*,*,#523,.T.);
#684=ORIENTED_EDGE('',*,*,#528,.T.);
#685=ORIENTED_EDGE('',*,*,#483,.F.);
#686=ORIENTED_EDGE('',*,*,#528,.F.);
#687=ORIENTED_EDGE('',*,*,#527,.T.);
#688=ORIENTED_EDGE('',*,*,#529,.T.);
#689=ORIENTED_EDGE('',*,*,#482,.F.);
#690=ORIENTED_EDGE('',*,*,#529,.F.);
#691=ORIENTED_EDGE('',*,*,#530,.F.);
#692=ORIENTED_EDGE('',*,*,#531,.F.);
#693=ORIENTED_EDGE('',*,*,#532,.T.);
#694=ORIENTED_EDGE('',*,*,#533,.F.);
#695=ORIENTED_EDGE('',*,*,#534,.F.);
#696=ORIENTED_EDGE('',*,*,#535,.F.);
#697=ORIENTED_EDGE('',*,*,#536,.T.);
#698=ORIENTED_EDGE('',*,*,#537,.F.);
#699=ORIENTED_EDGE('',*,*,#536,.F.);
#700=ORIENTED_EDGE('',*,*,#538,.F.);
#701=ORIENTED_EDGE('',*,*,#532,.F.);
#702=ORIENTED_EDGE('',*,*,#539,.F.);
#703=ORIENTED_EDGE('',*,*,#540,.T.);
#704=ORIENTED_EDGE('',*,*,#541,.T.);
#705=ORIENTED_EDGE('',*,*,#542,.T.);
#706=ORIENTED_EDGE('',*,*,#543,.T.);
#707=ORIENTED_EDGE('',*,*,#495,.T.);
#708=ORIENTED_EDGE('',*,*,#498,.T.);
#709=ORIENTED_EDGE('',*,*,#511,.T.);
#710=ORIENTED_EDGE('',*,*,#513,.T.);
#711=ORIENTED_EDGE('',*,*,#520,.T.);
#712=ORIENTED_EDGE('',*,*,#524,.T.);
#713=ORIENTED_EDGE('',*,*,#544,.T.);
#714=ORIENTED_EDGE('',*,*,#545,.T.);
#715=ORIENTED_EDGE('',*,*,#534,.T.);
#716=ORIENTED_EDGE('',*,*,#546,.T.);
#717=ORIENTED_EDGE('',*,*,#547,.T.);
#718=ORIENTED_EDGE('',*,*,#530,.T.);
#719=ORIENTED_EDGE('',*,*,#548,.T.);
#720=ORIENTED_EDGE('',*,*,#549,.T.);
#721=ORIENTED_EDGE('',*,*,#550,.T.);
#722=ORIENTED_EDGE('',*,*,#551,.T.);
#723=ORIENTED_EDGE('',*,*,#552,.T.);
#724=ORIENTED_EDGE('',*,*,#553,.T.);
#725=ORIENTED_EDGE('',*,*,#554,.T.);
#726=ORIENTED_EDGE('',*,*,#555,.T.);
#727=ORIENTED_EDGE('',*,*,#556,.T.);
#728=ORIENTED_EDGE('',*,*,#557,.T.);
#729=ORIENTED_EDGE('',*,*,#537,.T.);
#730=ORIENTED_EDGE('',*,*,#539,.T.);
#731=ORIENTED_EDGE('',*,*,#531,.T.);
#732=ORIENTED_EDGE('',*,*,#547,.F.);
#733=ORIENTED_EDGE('',*,*,#558,.T.);
#734=ORIENTED_EDGE('',*,*,#494,.T.);
#735=ORIENTED_EDGE('',*,*,#558,.F.);
#736=ORIENTED_EDGE('',*,*,#546,.F.);
#737=ORIENTED_EDGE('',*,*,#474,.F.);
#738=ORIENTED_EDGE('',*,*,#559,.F.);
#739=ORIENTED_EDGE('',*,*,#560,.F.);
#740=ORIENTED_EDGE('',*,*,#561,.T.);
#741=ORIENTED_EDGE('',*,*,#475,.F.);
#742=ORIENTED_EDGE('',*,*,#561,.F.);
#743=ORIENTED_EDGE('',*,*,#562,.F.);
#744=ORIENTED_EDGE('',*,*,#563,.T.);
#745=ORIENTED_EDGE('',*,*,#476,.F.);
#746=ORIENTED_EDGE('',*,*,#563,.F.);
#747=ORIENTED_EDGE('',*,*,#564,.F.);
#748=ORIENTED_EDGE('',*,*,#565,.T.);
#749=ORIENTED_EDGE('',*,*,#566,.T.);
#750=ORIENTED_EDGE('',*,*,#567,.F.);
#751=ORIENTED_EDGE('',*,*,#552,.F.);
#752=ORIENTED_EDGE('',*,*,#568,.T.);
#753=ORIENTED_EDGE('',*,*,#477,.F.);
#754=ORIENTED_EDGE('',*,*,#565,.F.);
#755=ORIENTED_EDGE('',*,*,#564,.T.);
#756=ORIENTED_EDGE('',*,*,#562,.T.);
#757=ORIENTED_EDGE('',*,*,#560,.T.);
#758=ORIENTED_EDGE('',*,*,#569,.F.);
#759=ORIENTED_EDGE('',*,*,#570,.F.);
#760=ORIENTED_EDGE('',*,*,#571,.F.);
#761=ORIENTED_EDGE('',*,*,#572,.F.);
#762=ORIENTED_EDGE('',*,*,#566,.F.);
#763=ORIENTED_EDGE('',*,*,#518,.T.);
#764=ORIENTED_EDGE('',*,*,#554,.F.);
#765=ORIENTED_EDGE('',*,*,#573,.T.);
#766=ORIENTED_EDGE('',*,*,#571,.T.);
#767=ORIENTED_EDGE('',*,*,#574,.F.);
#768=ORIENTED_EDGE('',*,*,#553,.F.);
#769=ORIENTED_EDGE('',*,*,#567,.T.);
#770=ORIENTED_EDGE('',*,*,#572,.T.);
#771=ORIENTED_EDGE('',*,*,#573,.F.);
#772=ORIENTED_EDGE('',*,*,#551,.F.);
#773=ORIENTED_EDGE('',*,*,#575,.T.);
#774=ORIENTED_EDGE('',*,*,#478,.F.);
#775=ORIENTED_EDGE('',*,*,#568,.F.);
#776=ORIENTED_EDGE('',*,*,#550,.F.);
#777=ORIENTED_EDGE('',*,*,#576,.T.);
#778=ORIENTED_EDGE('',*,*,#479,.F.);
#779=ORIENTED_EDGE('',*,*,#575,.F.);
#780=ORIENTED_EDGE('',*,*,#549,.F.);
#781=ORIENTED_EDGE('',*,*,#577,.T.);
#782=ORIENTED_EDGE('',*,*,#480,.F.);
#783=ORIENTED_EDGE('',*,*,#576,.F.);
#784=ORIENTED_EDGE('',*,*,#535,.T.);
#785=ORIENTED_EDGE('',*,*,#556,.F.);
#786=ORIENTED_EDGE('',*,*,#578,.T.);
#787=ORIENTED_EDGE('',*,*,#569,.T.);
#788=ORIENTED_EDGE('',*,*,#559,.T.);
#789=ORIENTED_EDGE('',*,*,#481,.F.);
#790=ORIENTED_EDGE('',*,*,#577,.F.);
#791=ORIENTED_EDGE('',*,*,#548,.F.);
#792=ORIENTED_EDGE('',*,*,#533,.T.);
#793=ORIENTED_EDGE('',*,*,#538,.T.);
#794=ORIENTED_EDGE('',*,*,#555,.F.);
#795=ORIENTED_EDGE('',*,*,#574,.T.);
#796=ORIENTED_EDGE('',*,*,#570,.T.);
#797=ORIENTED_EDGE('',*,*,#578,.F.);
#798=ORIENTED_EDGE('',*,*,#544,.F.);
#799=ORIENTED_EDGE('',*,*,#579,.T.);
#800=ORIENTED_EDGE('',*,*,#503,.T.);
#801=ORIENTED_EDGE('',*,*,#579,.F.);
#802=ORIENTED_EDGE('',*,*,#545,.F.);
#803=ORIENTED_EDGE('',*,*,#580,.T.);
#804=ORIENTED_EDGE('',*,*,#509,.T.);
#805=ORIENTED_EDGE('',*,*,#580,.F.);
#806=ORIENTED_EDGE('',*,*,#557,.F.);
#807=ORIENTED_EDGE('',*,*,#581,.T.);
#808=ORIENTED_EDGE('',*,*,#506,.T.);
#809=ORIENTED_EDGE('',*,*,#581,.F.);
#810=ORIENTED_EDGE('',*,*,#471,.F.);
#811=ORIENTED_EDGE('',*,*,#582,.T.);
#812=ORIENTED_EDGE('',*,*,#543,.F.);
#813=ORIENTED_EDGE('',*,*,#583,.F.);
#814=ORIENTED_EDGE('',*,*,#472,.F.);
#815=ORIENTED_EDGE('',*,*,#583,.T.);
#816=ORIENTED_EDGE('',*,*,#542,.F.);
#817=ORIENTED_EDGE('',*,*,#584,.F.);
#818=ORIENTED_EDGE('',*,*,#473,.F.);
#819=ORIENTED_EDGE('',*,*,#584,.T.);
#820=ORIENTED_EDGE('',*,*,#541,.F.);
#821=ORIENTED_EDGE('',*,*,#585,.F.);
#822=ORIENTED_EDGE('',*,*,#470,.F.);
#823=ORIENTED_EDGE('',*,*,#585,.T.);
#824=ORIENTED_EDGE('',*,*,#540,.F.);
#825=ORIENTED_EDGE('',*,*,#582,.F.);
#826=CYLINDRICAL_SURFACE('',#917,0.750000000000003);
#827=CYLINDRICAL_SURFACE('',#936,9.05);
#828=CYLINDRICAL_SURFACE('',#940,0.800000000000001);
#829=CYLINDRICAL_SURFACE('',#944,0.800000000000001);
#830=CYLINDRICAL_SURFACE('',#948,4.35);
#831=CYLINDRICAL_SURFACE('',#952,4.35);
#832=CYLINDRICAL_SURFACE('',#956,4.35);
#833=CYLINDRICAL_SURFACE('',#960,1.25);
#834=CYLINDRICAL_SURFACE('',#962,1.25);
#835=CYLINDRICAL_SURFACE('',#964,0.800000000000001);
#836=CYLINDRICAL_SURFACE('',#967,0.800000000000001);
#837=CYLINDRICAL_SURFACE('',#970,0.800000000000001);
#838=CYLINDRICAL_SURFACE('',#972,3.);
#839=CYLINDRICAL_SURFACE('',#977,3.);
#840=CYLINDRICAL_SURFACE('',#982,2.);
#841=CYLINDRICAL_SURFACE('',#983,2.);
#842=CYLINDRICAL_SURFACE('',#998,8.5);
#843=CYLINDRICAL_SURFACE('',#999,1.00000000000001);
#844=CYLINDRICAL_SURFACE('',#1002,0.999999999999996);
#845=CYLINDRICAL_SURFACE('',#1009,0.999999999999996);
#846=CYLINDRICAL_SURFACE('',#1010,0.999999999999996);
#847=CYLINDRICAL_SURFACE('',#1012,1.00000000000001);
#848=CYLINDRICAL_SURFACE('',#1014,0.999999999999988);
#849=CYLINDRICAL_SURFACE('',#1015,5.);
#850=CYLINDRICAL_SURFACE('',#1016,5.);
#851=CYLINDRICAL_SURFACE('',#1017,5.);
#852=ADVANCED_FACE('',(#69),#826,.F.);
#853=ADVANCED_FACE('',(#70,#15,#16,#17,#18,#19,#20,#21,#22,#23,#24,#25,
#26),#44,.F.);
#854=ADVANCED_FACE('',(#71),#827,.F.);
#855=ADVANCED_FACE('',(#72,#27),#45,.F.);
#856=ADVANCED_FACE('',(#73),#828,.F.);
#857=ADVANCED_FACE('',(#74),#46,.T.);
#858=ADVANCED_FACE('',(#75),#829,.F.);
#859=ADVANCED_FACE('',(#76),#47,.T.);
#860=ADVANCED_FACE('',(#77),#830,.F.);
#861=ADVANCED_FACE('',(#78,#28),#48,.T.);
#862=ADVANCED_FACE('',(#79),#831,.F.);
#863=ADVANCED_FACE('',(#80,#29),#49,.T.);
#864=ADVANCED_FACE('',(#81),#832,.F.);
#865=ADVANCED_FACE('',(#82,#30),#50,.T.);
#866=ADVANCED_FACE('',(#83),#833,.F.);
#867=ADVANCED_FACE('',(#84),#834,.F.);
#868=ADVANCED_FACE('',(#85),#835,.F.);
#869=ADVANCED_FACE('',(#86),#51,.F.);
#870=ADVANCED_FACE('',(#87),#836,.F.);
#871=ADVANCED_FACE('',(#88),#52,.F.);
#872=ADVANCED_FACE('',(#89),#837,.F.);
#873=ADVANCED_FACE('',(#90),#838,.F.);
#874=ADVANCED_FACE('',(#91,#31),#53,.T.);
#875=ADVANCED_FACE('',(#92),#839,.F.);
#876=ADVANCED_FACE('',(#93,#32),#54,.T.);
#877=ADVANCED_FACE('',(#94),#840,.F.);
#878=ADVANCED_FACE('',(#95),#841,.F.);
#879=ADVANCED_FACE('',(#96),#55,.F.);
#880=ADVANCED_FACE('',(#97),#56,.F.);
#881=ADVANCED_FACE('',(#98),#57,.T.);
#882=ADVANCED_FACE('',(#99,#33,#34,#35,#36,#37,#38,#39,#40,#41,#42),#58,
 .T.);
#883=ADVANCED_FACE('',(#100),#842,.F.);
#884=ADVANCED_FACE('',(#101),#843,.F.);
#885=ADVANCED_FACE('',(#102),#59,.F.);
#886=ADVANCED_FACE('',(#103),#844,.F.);
#887=ADVANCED_FACE('',(#104),#60,.F.);
#888=ADVANCED_FACE('',(#105,#43),#61,.T.);
#889=ADVANCED_FACE('',(#106),#62,.F.);
#890=ADVANCED_FACE('',(#107),#845,.F.);
#891=ADVANCED_FACE('',(#108),#846,.F.);
#892=ADVANCED_FACE('',(#109),#63,.F.);
#893=ADVANCED_FACE('',(#110),#847,.F.);
#894=ADVANCED_FACE('',(#111),#64,.F.);
#895=ADVANCED_FACE('',(#112),#848,.F.);
#896=ADVANCED_FACE('',(#113),#849,.F.);
#897=ADVANCED_FACE('',(#114),#850,.F.);
#898=ADVANCED_FACE('',(#115),#851,.F.);
#899=ADVANCED_FACE('',(#116),#65,.T.);
#900=ADVANCED_FACE('',(#117),#66,.T.);
#901=ADVANCED_FACE('',(#118),#67,.T.);
#902=ADVANCED_FACE('',(#119),#68,.T.);
#903=CLOSED_SHELL('',(#852,#853,#854,#855,#856,#857,#858,#859,#860,#861,
#862,#863,#864,#865,#866,#867,#868,#869,#870,#871,#872,#873,#874,#875,#876,
#877,#878,#879,#880,#881,#882,#883,#884,#885,#886,#887,#888,#889,#890,#891,
#892,#893,#894,#895,#896,#897,#898,#899,#900,#901,#902));
#904=DERIVED_UNIT_ELEMENT(#906,1.);
#905=DERIVED_UNIT_ELEMENT(#1557,-3.);
#906=(
MASS_UNIT()
NAMED_UNIT(*)
SI_UNIT(.KILO.,.GRAM.)
);
#907=DERIVED_UNIT((#904,#905));
#908=MEASURE_REPRESENTATION_ITEM('density measure',
POSITIVE_RATIO_MEASURE(7850.),#907);
#909=PROPERTY_DEFINITION_REPRESENTATION(#914,#911);
#910=PROPERTY_DEFINITION_REPRESENTATION(#915,#912);
#911=REPRESENTATION('material name',(#913),#1554);
#912=REPRESENTATION('density',(#908),#1554);
#913=DESCRIPTIVE_REPRESENTATION_ITEM('\X2\94A2\X0\','\X2\94A2\X0\');
#914=PROPERTY_DEFINITION('material property','material name',#1564);
#915=PROPERTY_DEFINITION('material property','density of part',#1564);
#916=AXIS2_PLACEMENT_3D('',#1300,#1022,#1023);
#917=AXIS2_PLACEMENT_3D('',#1301,#1024,#1025);
#918=AXIS2_PLACEMENT_3D('',#1304,#1026,#1027);
#919=AXIS2_PLACEMENT_3D('',#1308,#1029,#1030);
#920=AXIS2_PLACEMENT_3D('',#1310,#1032,#1033);
#921=AXIS2_PLACEMENT_3D('',#1321,#1038,#1039);
#922=AXIS2_PLACEMENT_3D('',#1325,#1041,#1042);
#923=AXIS2_PLACEMENT_3D('',#1329,#1044,#1045);
#924=AXIS2_PLACEMENT_3D('',#1333,#1047,#1048);
#925=AXIS2_PLACEMENT_3D('',#1336,#1050,#1051);
#926=AXIS2_PLACEMENT_3D('',#1338,#1052,#1053);
#927=AXIS2_PLACEMENT_3D('',#1340,#1054,#1055);
#928=AXIS2_PLACEMENT_3D('',#1342,#1056,#1057);
#929=AXIS2_PLACEMENT_3D('',#1344,#1058,#1059);
#930=AXIS2_PLACEMENT_3D('',#1346,#1060,#1061);
#931=AXIS2_PLACEMENT_3D('',#1348,#1062,#1063);
#932=AXIS2_PLACEMENT_3D('',#1350,#1064,#1065);
#933=AXIS2_PLACEMENT_3D('',#1352,#1066,#1067);
#934=AXIS2_PLACEMENT_3D('',#1354,#1068,#1069);
#935=AXIS2_PLACEMENT_3D('',#1355,#1070,#1071);
#936=AXIS2_PLACEMENT_3D('',#1356,#1072,#1073);
#937=AXIS2_PLACEMENT_3D('',#1357,#1074,#1075);
#938=AXIS2_PLACEMENT_3D('',#1358,#1076,#1077);
#939=AXIS2_PLACEMENT_3D('',#1360,#1078,#1079);
#940=AXIS2_PLACEMENT_3D('',#1361,#1080,#1081);
#941=AXIS2_PLACEMENT_3D('',#1363,#1082,#1083);
#942=AXIS2_PLACEMENT_3D('',#1366,#1085,#1086);
#943=AXIS2_PLACEMENT_3D('',#1367,#1087,#1088);
#944=AXIS2_PLACEMENT_3D('',#1368,#1089,#1090);
#945=AXIS2_PLACEMENT_3D('',#1370,#1091,#1092);
#946=AXIS2_PLACEMENT_3D('',#1373,#1094,#1095);
#947=AXIS2_PLACEMENT_3D('',#1374,#1096,#1097);
#948=AXIS2_PLACEMENT_3D('',#1375,#1098,#1099);
#949=AXIS2_PLACEMENT_3D('',#1377,#1100,#1101);
#950=AXIS2_PLACEMENT_3D('',#1379,#1103,#1104);
#951=AXIS2_PLACEMENT_3D('',#1381,#1105,#1106);
#952=AXIS2_PLACEMENT_3D('',#1382,#1107,#1108);
#953=AXIS2_PLACEMENT_3D('',#1384,#1109,#1110);
#954=AXIS2_PLACEMENT_3D('',#1386,#1112,#1113);
#955=AXIS2_PLACEMENT_3D('',#1388,#1114,#1115);
#956=AXIS2_PLACEMENT_3D('',#1389,#1116,#1117);
#957=AXIS2_PLACEMENT_3D('',#1391,#1118,#1119);
#958=AXIS2_PLACEMENT_3D('',#1393,#1121,#1122);
#959=AXIS2_PLACEMENT_3D('',#1395,#1123,#1124);
#960=AXIS2_PLACEMENT_3D('',#1396,#1125,#1126);
#961=AXIS2_PLACEMENT_3D('',#1399,#1128,#1129);
#962=AXIS2_PLACEMENT_3D('',#1400,#1130,#1131);
#963=AXIS2_PLACEMENT_3D('',#1403,#1133,#1134);
#964=AXIS2_PLACEMENT_3D('',#1404,#1135,#1136);
#965=AXIS2_PLACEMENT_3D('',#1407,#1138,#1139);
#966=AXIS2_PLACEMENT_3D('',#1408,#1140,#1141);
#967=AXIS2_PLACEMENT_3D('',#1409,#1142,#1143);
#968=AXIS2_PLACEMENT_3D('',#1412,#1145,#1146);
#969=AXIS2_PLACEMENT_3D('',#1413,#1147,#1148);
#970=AXIS2_PLACEMENT_3D('',#1414,#1149,#1150);
#971=AXIS2_PLACEMENT_3D('',#1416,#1151,#1152);
#972=AXIS2_PLACEMENT_3D('',#1418,#1154,#1155);
#973=AXIS2_PLACEMENT_3D('',#1420,#1156,#1157);
#974=AXIS2_PLACEMENT_3D('',#1423,#1159,#1160);
#975=AXIS2_PLACEMENT_3D('',#1424,#1161,#1162);
#976=AXIS2_PLACEMENT_3D('',#1426,#1163,#1164);
#977=AXIS2_PLACEMENT_3D('',#1427,#1165,#1166);
#978=AXIS2_PLACEMENT_3D('',#1429,#1167,#1168);
#979=AXIS2_PLACEMENT_3D('',#1432,#1170,#1171);
#980=AXIS2_PLACEMENT_3D('',#1433,#1172,#1173);
#981=AXIS2_PLACEMENT_3D('',#1435,#1174,#1175);
#982=AXIS2_PLACEMENT_3D('',#1436,#1176,#1177);
#983=AXIS2_PLACEMENT_3D('',#1438,#1179,#1180);
#984=AXIS2_PLACEMENT_3D('',#1440,#1182,#1183);
#985=AXIS2_PLACEMENT_3D('',#1449,#1188,#1189);
#986=AXIS2_PLACEMENT_3D('',#1458,#1194,#1195);
#987=AXIS2_PLACEMENT_3D('',#1460,#1197,#1198);
#988=AXIS2_PLACEMENT_3D('',#1461,#1199,#1200);
#989=AXIS2_PLACEMENT_3D('',#1471,#1205,#1206);
#990=AXIS2_PLACEMENT_3D('',#1473,#1207,#1208);
#991=AXIS2_PLACEMENT_3D('',#1475,#1209,#1210);
#992=AXIS2_PLACEMENT_3D('',#1476,#1211,#1212);
#993=AXIS2_PLACEMENT_3D('',#1480,#1214,#1215);
#994=AXIS2_PLACEMENT_3D('',#1484,#1217,#1218);
#995=AXIS2_PLACEMENT_3D('',#1488,#1220,#1221);
#996=AXIS2_PLACEMENT_3D('',#1492,#1223,#1224);
#997=AXIS2_PLACEMENT_3D('',#1495,#1226,#1227);
#998=AXIS2_PLACEMENT_3D('',#1496,#1228,#1229);
#999=AXIS2_PLACEMENT_3D('',#1498,#1231,#1232);
#1000=AXIS2_PLACEMENT_3D('',#1502,#1234,#1235);
#1001=AXIS2_PLACEMENT_3D('',#1504,#1237,#1238);
#1002=AXIS2_PLACEMENT_3D('',#1508,#1241,#1242);
#1003=AXIS2_PLACEMENT_3D('',#1510,#1243,#1244);
#1004=AXIS2_PLACEMENT_3D('',#1512,#1246,#1247);
#1005=AXIS2_PLACEMENT_3D('',#1517,#1251,#1252);
#1006=AXIS2_PLACEMENT_3D('',#1521,#1254,#1255);
#1007=AXIS2_PLACEMENT_3D('',#1524,#1257,#1258);
#1008=AXIS2_PLACEMENT_3D('',#1525,#1259,#1260);
#1009=AXIS2_PLACEMENT_3D('',#1528,#1263,#1264);
#1010=AXIS2_PLACEMENT_3D('',#1529,#1265,#1266);
#1011=AXIS2_PLACEMENT_3D('',#1531,#1268,#1269);
#1012=AXIS2_PLACEMENT_3D('',#1533,#1271,#1272);
#1013=AXIS2_PLACEMENT_3D('',#1535,#1274,#1275);
#1014=AXIS2_PLACEMENT_3D('',#1537,#1277,#1278);
#1015=AXIS2_PLACEMENT_3D('',#1538,#1279,#1280);
#1016=AXIS2_PLACEMENT_3D('',#1540,#1282,#1283);
#1017=AXIS2_PLACEMENT_3D('',#1542,#1285,#1286);
#1018=AXIS2_PLACEMENT_3D('',#1544,#1288,#1289);
#1019=AXIS2_PLACEMENT_3D('',#1547,#1292,#1293);
#1020=AXIS2_PLACEMENT_3D('',#1549,#1295,#1296);
#1021=AXIS2_PLACEMENT_3D('',#1551,#1298,#1299);
#1022=DIRECTION('axis',(0.,0.,1.));
#1023=DIRECTION('refdir',(1.,0.,0.));
#1024=DIRECTION('center_axis',(0.,1.,0.));
#1025=DIRECTION('ref_axis',(1.85037170770859E-16,0.,-1.));
#1026=DIRECTION('center_axis',(0.,1.,0.));
#1027=DIRECTION('ref_axis',(0.99777530323928,0.,0.0666666651765562));
#1028=DIRECTION('',(0.,-1.,0.));
#1029=DIRECTION('center_axis',(0.,1.,0.));
#1030=DIRECTION('ref_axis',(0.99777530323928,0.,0.0666666651765562));
#1031=DIRECTION('',(0.,1.,0.));
#1032=DIRECTION('center_axis',(0.,1.,0.));
#1033=DIRECTION('ref_axis',(1.,0.,0.));
#1034=DIRECTION('',(1.,0.,0.));
#1035=DIRECTION('',(0.,0.,1.));
#1036=DIRECTION('',(-1.,0.,1.61486985400023E-16));
#1037=DIRECTION('',(0.,0.,-1.));
#1038=DIRECTION('center_axis',(0.,1.,0.));
#1039=DIRECTION('ref_axis',(-1.,0.,0.));
#1040=DIRECTION('',(1.,0.,0.));
#1041=DIRECTION('center_axis',(0.,1.,0.));
#1042=DIRECTION('ref_axis',(0.,0.,1.));
#1043=DIRECTION('',(0.,0.,-1.));
#1044=DIRECTION('center_axis',(0.,1.,0.));
#1045=DIRECTION('ref_axis',(1.,0.,2.22044604925032E-15));
#1046=DIRECTION('',(-1.,0.,0.));
#1047=DIRECTION('center_axis',(0.,1.,0.));
#1048=DIRECTION('ref_axis',(-8.8817841970012E-15,0.,-1.));
#1049=DIRECTION('',(2.29886919202636E-16,0.,1.));
#1050=DIRECTION('center_axis',(0.,1.,0.));
#1051=DIRECTION('ref_axis',(-1.,0.,0.));
#1052=DIRECTION('center_axis',(0.,1.,0.));
#1053=DIRECTION('ref_axis',(-1.,0.,0.));
#1054=DIRECTION('center_axis',(0.,1.,0.));
#1055=DIRECTION('ref_axis',(-1.,0.,0.));
#1056=DIRECTION('center_axis',(0.,1.,0.));
#1057=DIRECTION('ref_axis',(1.,0.,0.));
#1058=DIRECTION('center_axis',(0.,1.,0.));
#1059=DIRECTION('ref_axis',(1.,0.,0.));
#1060=DIRECTION('center_axis',(0.,1.,0.));
#1061=DIRECTION('ref_axis',(1.,0.,0.));
#1062=DIRECTION('center_axis',(0.,1.,0.));
#1063=DIRECTION('ref_axis',(1.,0.,0.));
#1064=DIRECTION('center_axis',(0.,-1.,0.));
#1065=DIRECTION('ref_axis',(1.,0.,0.));
#1066=DIRECTION('center_axis',(0.,-1.,0.));
#1067=DIRECTION('ref_axis',(1.,0.,0.));
#1068=DIRECTION('center_axis',(0.,-1.,0.));
#1069=DIRECTION('ref_axis',(1.,0.,0.));
#1070=DIRECTION('center_axis',(0.,1.,0.));
#1071=DIRECTION('ref_axis',(1.,0.,0.));
#1072=DIRECTION('center_axis',(0.,1.,0.));
#1073=DIRECTION('ref_axis',(-1.83697019872103E-16,0.,1.));
#1074=DIRECTION('center_axis',(0.,1.,0.));
#1075=DIRECTION('ref_axis',(1.,0.,0.));
#1076=DIRECTION('center_axis',(0.,1.,0.));
#1077=DIRECTION('ref_axis',(1.,0.,0.));
#1078=DIRECTION('center_axis',(0.,-1.,0.));
#1079=DIRECTION('ref_axis',(1.,0.,0.));
#1080=DIRECTION('center_axis',(0.,-1.,0.));
#1081=DIRECTION('ref_axis',(-1.,0.,0.));
#1082=DIRECTION('center_axis',(0.,-1.,0.));
#1083=DIRECTION('ref_axis',(-1.,0.,0.));
#1084=DIRECTION('',(0.,-1.,0.));
#1085=DIRECTION('center_axis',(0.,-1.,0.));
#1086=DIRECTION('ref_axis',(-1.,0.,0.));
#1087=DIRECTION('center_axis',(0.,1.,0.));
#1088=DIRECTION('ref_axis',(-1.,0.,0.));
#1089=DIRECTION('center_axis',(0.,-1.,0.));
#1090=DIRECTION('ref_axis',(-1.,0.,0.));
#1091=DIRECTION('center_axis',(0.,-1.,0.));
#1092=DIRECTION('ref_axis',(-1.,0.,0.));
#1093=DIRECTION('',(0.,-1.,0.));
#1094=DIRECTION('center_axis',(0.,-1.,0.));
#1095=DIRECTION('ref_axis',(-1.,0.,0.));
#1096=DIRECTION('center_axis',(0.,1.,0.));
#1097=DIRECTION('ref_axis',(-1.,0.,0.));
#1098=DIRECTION('center_axis',(0.,1.,0.));
#1099=DIRECTION('ref_axis',(1.,0.,0.));
#1100=DIRECTION('center_axis',(0.,-1.,0.));
#1101=DIRECTION('ref_axis',(1.,0.,0.));
#1102=DIRECTION('',(0.,-1.,0.));
#1103=DIRECTION('center_axis',(0.,1.,0.));
#1104=DIRECTION('ref_axis',(1.,0.,0.));
#1105=DIRECTION('center_axis',(0.,-1.,0.));
#1106=DIRECTION('ref_axis',(1.,0.,0.));
#1107=DIRECTION('center_axis',(0.,1.,0.));
#1108=DIRECTION('ref_axis',(1.,0.,0.));
#1109=DIRECTION('center_axis',(0.,-1.,0.));
#1110=DIRECTION('ref_axis',(1.,0.,0.));
#1111=DIRECTION('',(0.,-1.,0.));
#1112=DIRECTION('center_axis',(0.,1.,0.));
#1113=DIRECTION('ref_axis',(1.,0.,0.));
#1114=DIRECTION('center_axis',(0.,-1.,0.));
#1115=DIRECTION('ref_axis',(1.,0.,0.));
#1116=DIRECTION('center_axis',(0.,1.,0.));
#1117=DIRECTION('ref_axis',(1.,0.,0.));
#1118=DIRECTION('center_axis',(0.,-1.,0.));
#1119=DIRECTION('ref_axis',(1.,0.,0.));
#1120=DIRECTION('',(0.,-1.,0.));
#1121=DIRECTION('center_axis',(0.,1.,0.));
#1122=DIRECTION('ref_axis',(1.,0.,0.));
#1123=DIRECTION('center_axis',(0.,-1.,0.));
#1124=DIRECTION('ref_axis',(1.,0.,0.));
#1125=DIRECTION('center_axis',(0.,1.,0.));
#1126=DIRECTION('ref_axis',(1.,0.,0.));
#1127=DIRECTION('',(0.,1.,0.));
#1128=DIRECTION('center_axis',(0.,-1.,0.));
#1129=DIRECTION('ref_axis',(1.,0.,0.));
#1130=DIRECTION('center_axis',(0.,1.,0.));
#1131=DIRECTION('ref_axis',(1.,0.,0.));
#1132=DIRECTION('',(0.,1.,0.));
#1133=DIRECTION('center_axis',(0.,-1.,0.));
#1134=DIRECTION('ref_axis',(1.,0.,0.));
#1135=DIRECTION('center_axis',(0.,1.,0.));
#1136=DIRECTION('ref_axis',(1.,0.,0.));
#1137=DIRECTION('',(0.,1.,0.));
#1138=DIRECTION('center_axis',(0.,1.,0.));
#1139=DIRECTION('ref_axis',(1.,0.,0.));
#1140=DIRECTION('center_axis',(0.,1.,0.));
#1141=DIRECTION('ref_axis',(1.,0.,0.));
#1142=DIRECTION('center_axis',(0.,1.,0.));
#1143=DIRECTION('ref_axis',(1.,0.,0.));
#1144=DIRECTION('',(0.,1.,0.));
#1145=DIRECTION('center_axis',(0.,1.,0.));
#1146=DIRECTION('ref_axis',(1.,0.,0.));
#1147=DIRECTION('center_axis',(0.,1.,0.));
#1148=DIRECTION('ref_axis',(1.,0.,0.));
#1149=DIRECTION('center_axis',(0.,-1.,0.));
#1150=DIRECTION('ref_axis',(-1.,0.,0.));
#1151=DIRECTION('center_axis',(0.,-1.,0.));
#1152=DIRECTION('ref_axis',(-1.,0.,0.));
#1153=DIRECTION('',(0.,-1.,0.));
#1154=DIRECTION('center_axis',(0.,-1.,0.));
#1155=DIRECTION('ref_axis',(-1.,0.,0.));
#1156=DIRECTION('center_axis',(0.,-1.,0.));
#1157=DIRECTION('ref_axis',(-1.,0.,0.));
#1158=DIRECTION('',(0.,-1.,0.));
#1159=DIRECTION('center_axis',(0.,-1.,0.));
#1160=DIRECTION('ref_axis',(-1.,0.,0.));
#1161=DIRECTION('center_axis',(0.,1.,0.));
#1162=DIRECTION('ref_axis',(-1.,0.,0.));
#1163=DIRECTION('center_axis',(0.,1.,0.));
#1164=DIRECTION('ref_axis',(-1.,0.,0.));
#1165=DIRECTION('center_axis',(0.,-1.,0.));
#1166=DIRECTION('ref_axis',(-1.,0.,0.));
#1167=DIRECTION('center_axis',(0.,-1.,0.));
#1168=DIRECTION('ref_axis',(-1.,0.,0.));
#1169=DIRECTION('',(0.,-1.,0.));
#1170=DIRECTION('center_axis',(0.,-1.,0.));
#1171=DIRECTION('ref_axis',(-1.,0.,0.));
#1172=DIRECTION('center_axis',(0.,1.,0.));
#1173=DIRECTION('ref_axis',(-1.,0.,0.));
#1174=DIRECTION('center_axis',(0.,1.,0.));
#1175=DIRECTION('ref_axis',(-1.,0.,0.));
#1176=DIRECTION('center_axis',(0.,-1.,0.));
#1177=DIRECTION('ref_axis',(-1.,0.,0.));
#1178=DIRECTION('',(0.,-1.,0.));
#1179=DIRECTION('center_axis',(0.,-1.,0.));
#1180=DIRECTION('ref_axis',(-1.,0.,0.));
#1181=DIRECTION('',(0.,-1.,0.));
#1182=DIRECTION('center_axis',(0.,0.,-1.));
#1183=DIRECTION('ref_axis',(1.,0.,0.));
#1184=DIRECTION('',(1.,0.,0.));
#1185=DIRECTION('',(0.,1.,0.));
#1186=DIRECTION('',(1.,0.,0.));
#1187=DIRECTION('',(0.,-1.,0.));
#1188=DIRECTION('center_axis',(0.,0.,1.));
#1189=DIRECTION('ref_axis',(-1.,0.,0.));
#1190=DIRECTION('',(-1.,0.,0.));
#1191=DIRECTION('',(0.,1.,0.));
#1192=DIRECTION('',(-1.,0.,0.));
#1193=DIRECTION('',(0.,-1.,0.));
#1194=DIRECTION('center_axis',(0.,1.,0.));
#1195=DIRECTION('ref_axis',(-1.,0.,0.));
#1196=DIRECTION('',(0.,0.,1.));
#1197=DIRECTION('center_axis',(0.,1.,0.));
#1198=DIRECTION('ref_axis',(1.,0.,0.));
#1199=DIRECTION('center_axis',(0.,1.,0.));
#1200=DIRECTION('ref_axis',(1.,0.,0.));
#1201=DIRECTION('',(-1.,0.,0.));
#1202=DIRECTION('',(0.,0.,1.));
#1203=DIRECTION('',(1.,0.,-1.61486985400023E-16));
#1204=DIRECTION('',(0.,0.,-1.));
#1205=DIRECTION('center_axis',(0.,-1.,0.));
#1206=DIRECTION('ref_axis',(1.,0.,0.));
#1207=DIRECTION('center_axis',(0.,-1.,0.));
#1208=DIRECTION('ref_axis',(1.,0.,0.));
#1209=DIRECTION('center_axis',(0.,-1.,0.));
#1210=DIRECTION('ref_axis',(1.,0.,0.));
#1211=DIRECTION('center_axis',(0.,-1.,0.));
#1212=DIRECTION('ref_axis',(1.,0.,0.));
#1213=DIRECTION('',(0.,0.,-1.));
#1214=DIRECTION('center_axis',(0.,-1.,0.));
#1215=DIRECTION('ref_axis',(-8.8817841970012E-15,0.,-1.));
#1216=DIRECTION('',(1.,0.,0.));
#1217=DIRECTION('center_axis',(0.,-1.,0.));
#1218=DIRECTION('ref_axis',(1.,0.,2.22044604925032E-15));
#1219=DIRECTION('',(0.,0.,1.));
#1220=DIRECTION('center_axis',(0.,-1.,0.));
#1221=DIRECTION('ref_axis',(0.,0.,1.));
#1222=DIRECTION('',(-1.,0.,0.));
#1223=DIRECTION('center_axis',(0.,-1.,0.));
#1224=DIRECTION('ref_axis',(-1.,0.,-8.88178419700136E-15));
#1225=DIRECTION('',(0.,0.,-1.));
#1226=DIRECTION('center_axis',(0.,-1.,0.));
#1227=DIRECTION('ref_axis',(1.,0.,0.));
#1228=DIRECTION('center_axis',(0.,1.,0.));
#1229=DIRECTION('ref_axis',(1.,0.,0.));
#1230=DIRECTION('',(0.,-1.,0.));
#1231=DIRECTION('center_axis',(0.,-1.,0.));
#1232=DIRECTION('ref_axis',(-1.,0.,0.));
#1233=DIRECTION('',(0.,-1.,0.));
#1234=DIRECTION('center_axis',(0.,-1.,0.));
#1235=DIRECTION('ref_axis',(-1.,0.,0.));
#1236=DIRECTION('',(0.,-1.,0.));
#1237=DIRECTION('center_axis',(0.,0.,1.));
#1238=DIRECTION('ref_axis',(-1.,0.,0.));
#1239=DIRECTION('',(-1.,0.,0.));
#1240=DIRECTION('',(0.,-1.,0.));
#1241=DIRECTION('center_axis',(0.,-1.,0.));
#1242=DIRECTION('ref_axis',(0.,0.,1.));
#1243=DIRECTION('center_axis',(0.,-1.,0.));
#1244=DIRECTION('ref_axis',(0.,0.,1.));
#1245=DIRECTION('',(0.,-1.,0.));
#1246=DIRECTION('center_axis',(1.,0.,0.));
#1247=DIRECTION('ref_axis',(0.,0.,1.));
#1248=DIRECTION('',(0.,0.,1.));
#1249=DIRECTION('',(0.,-1.,0.));
#1250=DIRECTION('',(0.,-1.,0.));
#1251=DIRECTION('center_axis',(0.,1.,0.));
#1252=DIRECTION('ref_axis',(-1.,0.,0.));
#1253=DIRECTION('',(0.,0.,-1.));
#1254=DIRECTION('center_axis',(0.,-1.,0.));
#1255=DIRECTION('ref_axis',(-1.,0.,-8.88178419700136E-15));
#1256=DIRECTION('',(-1.,0.,0.));
#1257=DIRECTION('center_axis',(0.,-1.,0.));
#1258=DIRECTION('ref_axis',(0.,0.,1.));
#1259=DIRECTION('center_axis',(0.,0.,1.));
#1260=DIRECTION('ref_axis',(-1.,0.,0.));
#1261=DIRECTION('',(0.,-1.,0.));
#1262=DIRECTION('',(0.,-1.,0.));
#1263=DIRECTION('center_axis',(0.,-1.,0.));
#1264=DIRECTION('ref_axis',(0.,0.,1.));
#1265=DIRECTION('center_axis',(0.,-1.,0.));
#1266=DIRECTION('ref_axis',(1.,0.,2.22044604925032E-15));
#1267=DIRECTION('',(0.,-1.,0.));
#1268=DIRECTION('center_axis',(0.,0.,-1.));
#1269=DIRECTION('ref_axis',(1.,0.,0.));
#1270=DIRECTION('',(0.,-1.,0.));
#1271=DIRECTION('center_axis',(0.,-1.,0.));
#1272=DIRECTION('ref_axis',(-8.8817841970012E-15,0.,-1.));
#1273=DIRECTION('',(0.,-1.,0.));
#1274=DIRECTION('center_axis',(-1.,0.,0.));
#1275=DIRECTION('ref_axis',(0.,0.,-1.));
#1276=DIRECTION('',(0.,-1.,0.));
#1277=DIRECTION('center_axis',(0.,-1.,0.));
#1278=DIRECTION('ref_axis',(-1.,0.,-8.88178419700136E-15));
#1279=DIRECTION('center_axis',(0.,1.,0.));
#1280=DIRECTION('ref_axis',(1.,0.,0.));
#1281=DIRECTION('',(0.,-1.,0.));
#1282=DIRECTION('center_axis',(0.,1.,0.));
#1283=DIRECTION('ref_axis',(1.,0.,0.));
#1284=DIRECTION('',(0.,-1.,0.));
#1285=DIRECTION('center_axis',(0.,1.,0.));
#1286=DIRECTION('ref_axis',(1.,0.,0.));
#1287=DIRECTION('',(0.,-1.,0.));
#1288=DIRECTION('center_axis',(1.,0.,0.));
#1289=DIRECTION('ref_axis',(0.,0.,-1.));
#1290=DIRECTION('',(0.,1.,0.));
#1291=DIRECTION('',(0.,1.,0.));
#1292=DIRECTION('center_axis',(1.61486985400023E-16,0.,1.));
#1293=DIRECTION('ref_axis',(1.,0.,-1.61486985400023E-16));
#1294=DIRECTION('',(0.,1.,0.));
#1295=DIRECTION('center_axis',(-1.,0.,0.));
#1296=DIRECTION('ref_axis',(0.,0.,1.));
#1297=DIRECTION('',(0.,1.,0.));
#1298=DIRECTION('center_axis',(0.,0.,-1.));
#1299=DIRECTION('ref_axis',(-1.,0.,0.));
#1300=CARTESIAN_POINT('',(0.,0.,0.));
#1301=CARTESIAN_POINT('Origin',(25.3012192794247,0.,30.8046382015478));
#1302=CARTESIAN_POINT('',(26.0505751351477,0.,30.8357155485004));
#1303=CARTESIAN_POINT('',(24.5518634237017,0.,30.8357155485004));
#1304=CARTESIAN_POINT('Origin',(25.3012192794247,0.,30.8046382015478));
#1305=CARTESIAN_POINT('',(26.0505751351477,1.5,30.8357155485004));
#1306=CARTESIAN_POINT('',(26.0505751351477,0.,30.8357155485004));
#1307=CARTESIAN_POINT('',(24.5518634237017,1.5,30.8357155485004));
#1308=CARTESIAN_POINT('Origin',(25.3012192794247,1.5,30.8046382015478));
#1309=CARTESIAN_POINT('',(24.5518634237017,0.,30.8357155485004));
#1310=CARTESIAN_POINT('Origin',(37.8012192794247,0.,39.8546382004302));
#1311=CARTESIAN_POINT('',(10.3012192794247,0.,14.8546382004302));
#1312=CARTESIAN_POINT('',(65.3012192794247,0.,14.8546382004302));
#1313=CARTESIAN_POINT('',(10.3012192794247,0.,14.8546382004302));
#1314=CARTESIAN_POINT('',(65.3012192794247,0.,64.8546382004302));
#1315=CARTESIAN_POINT('',(65.3012192794247,0.,14.8546382004302));
#1316=CARTESIAN_POINT('',(10.3012192794247,0.,64.8546382004302));
#1317=CARTESIAN_POINT('',(65.3012192794247,0.,64.8546382004302));
#1318=CARTESIAN_POINT('',(10.3012192794247,0.,64.8546382004302));
#1319=CARTESIAN_POINT('',(36.4756794513589,0.,21.5316586233169));
#1320=CARTESIAN_POINT('',(37.4756794513589,0.,22.5316586233169));
#1321=CARTESIAN_POINT('Origin',(37.4756794513589,0.,21.5316586233169));
#1322=CARTESIAN_POINT('',(46.9503022606049,0.,22.5316586233169));
#1323=CARTESIAN_POINT('',(42.3757607700148,0.,22.5316586233169));
#1324=CARTESIAN_POINT('',(47.9503022606049,0.,21.5316586233169));
#1325=CARTESIAN_POINT('Origin',(46.9503022606049,0.,21.5316586233169));
#1326=CARTESIAN_POINT('',(47.9503022606049,0.,18.6316586233169));
#1327=CARTESIAN_POINT('',(47.9503022606049,0.,29.2431484118736));
#1328=CARTESIAN_POINT('',(46.9503022606049,0.,17.6316586233169));
#1329=CARTESIAN_POINT('Origin',(46.9503022606049,0.,18.6316586233169));
#1330=CARTESIAN_POINT('',(37.4756794513589,0.,17.6316586233169));
#1331=CARTESIAN_POINT('',(37.6384493653918,0.,17.6316586233169));
#1332=CARTESIAN_POINT('',(36.4756794513589,0.,18.6316586233169));
#1333=CARTESIAN_POINT('Origin',(37.4756794513589,0.,18.6316586233169));
#1334=CARTESIAN_POINT('',(36.4756794513589,0.,30.6931484118736));
#1335=CARTESIAN_POINT('',(57.3012192794247,0.,24.8546382004302));
#1336=CARTESIAN_POINT('Origin',(55.3012192794247,0.,24.8546382004302));
#1337=CARTESIAN_POINT('',(57.3012192794247,0.,54.8546382004302));
#1338=CARTESIAN_POINT('Origin',(55.3012192794247,0.,54.8546382004302));
#1339=CARTESIAN_POINT('',(39.6719837439669,0.,28.902971805944));
#1340=CARTESIAN_POINT('Origin',(38.8719837439669,0.,28.902971805944));
#1341=CARTESIAN_POINT('',(15.5012192794247,0.,30.8546382004302));
#1342=CARTESIAN_POINT('Origin',(16.3012192794247,0.,30.8546382004302));
#1343=CARTESIAN_POINT('',(33.5012192794247,0.,48.8546382004302));
#1344=CARTESIAN_POINT('Origin',(34.3012192794247,0.,48.8546382004302));
#1345=CARTESIAN_POINT('',(59.5512192794247,0.,18.8546382004302));
#1346=CARTESIAN_POINT('Origin',(60.8012192794247,0.,18.8546382004302));
#1347=CARTESIAN_POINT('',(13.5512192794247,0.,18.8546382004302));
#1348=CARTESIAN_POINT('Origin',(14.8012192794247,0.,18.8546382004302));
#1349=CARTESIAN_POINT('',(19.9512192794247,0.,57.3546382004302));
#1350=CARTESIAN_POINT('Origin',(24.3012192794247,0.,57.3546382004302));
#1351=CARTESIAN_POINT('',(19.9512192794247,0.,22.3546382004302));
#1352=CARTESIAN_POINT('Origin',(24.3012192794247,0.,22.3546382004302));
#1353=CARTESIAN_POINT('',(50.9512192794247,0.,39.8546382004302));
#1354=CARTESIAN_POINT('Origin',(55.3012192794247,0.,39.8546382004302));
#1355=CARTESIAN_POINT('Origin',(25.3012192794247,0.,39.8546382004302));
#1356=CARTESIAN_POINT('Origin',(25.3012192794247,0.,39.8546382004302));
#1357=CARTESIAN_POINT('Origin',(25.3012192794247,1.5,39.8546382004302));
#1358=CARTESIAN_POINT('Origin',(25.3012192794247,1.5,39.8546382004302));
#1359=CARTESIAN_POINT('',(16.8012192794247,1.5,39.8546382004302));
#1360=CARTESIAN_POINT('Origin',(25.3012192794247,1.5,39.8546382004302));
#1361=CARTESIAN_POINT('Origin',(38.8266794513589,8.,44.668299212598));
#1362=CARTESIAN_POINT('',(39.6266794513589,8.,44.668299212598));
#1363=CARTESIAN_POINT('Origin',(38.8266794513589,8.,44.668299212598));
#1364=CARTESIAN_POINT('',(39.6266794513589,2.,44.668299212598));
#1365=CARTESIAN_POINT('',(39.6266794513589,8.,44.668299212598));
#1366=CARTESIAN_POINT('Origin',(38.8266794513589,2.,44.668299212598));
#1367=CARTESIAN_POINT('Origin',(38.8266794513589,2.,44.668299212598));
#1368=CARTESIAN_POINT('Origin',(53.3416794513589,8.,19.128299212598));
#1369=CARTESIAN_POINT('',(54.1416794513589,8.,19.128299212598));
#1370=CARTESIAN_POINT('Origin',(53.3416794513589,8.,19.128299212598));
#1371=CARTESIAN_POINT('',(54.1416794513589,2.,19.128299212598));
#1372=CARTESIAN_POINT('',(54.1416794513589,8.,19.128299212598));
#1373=CARTESIAN_POINT('Origin',(53.3416794513589,2.,19.128299212598));
#1374=CARTESIAN_POINT('Origin',(53.3416794513589,2.,19.128299212598));
#1375=CARTESIAN_POINT('Origin',(55.3012192794247,0.,39.8546382004302));
#1376=CARTESIAN_POINT('',(50.9512192794247,7.2,39.8546382004302));
#1377=CARTESIAN_POINT('Origin',(55.3012192794247,7.2,39.8546382004302));
#1378=CARTESIAN_POINT('',(50.9512192794247,0.,39.8546382004302));
#1379=CARTESIAN_POINT('Origin',(55.3012192794247,7.2,39.8546382004302));
#1380=CARTESIAN_POINT('',(50.3012192794247,7.2,39.8546382004302));
#1381=CARTESIAN_POINT('Origin',(55.3012192794247,7.2,39.8546382004302));
#1382=CARTESIAN_POINT('Origin',(24.3012192794247,0.,22.3546382004302));
#1383=CARTESIAN_POINT('',(19.9512192794247,7.2,22.3546382004302));
#1384=CARTESIAN_POINT('Origin',(24.3012192794247,7.2,22.3546382004302));
#1385=CARTESIAN_POINT('',(19.9512192794247,0.,22.3546382004302));
#1386=CARTESIAN_POINT('Origin',(24.3012192794247,7.2,22.3546382004302));
#1387=CARTESIAN_POINT('',(19.3012192794247,7.2,22.3546382004302));
#1388=CARTESIAN_POINT('Origin',(24.3012192794247,7.2,22.3546382004302));
#1389=CARTESIAN_POINT('Origin',(24.3012192794247,0.,57.3546382004302));
#1390=CARTESIAN_POINT('',(19.9512192794247,7.2,57.3546382004302));
#1391=CARTESIAN_POINT('Origin',(24.3012192794247,7.2,57.3546382004302));
#1392=CARTESIAN_POINT('',(19.9512192794247,0.,57.3546382004302));
#1393=CARTESIAN_POINT('Origin',(24.3012192794247,7.2,57.3546382004302));
#1394=CARTESIAN_POINT('',(19.3012192794247,7.2,57.3546382004302));
#1395=CARTESIAN_POINT('Origin',(24.3012192794247,7.2,57.3546382004302));
#1396=CARTESIAN_POINT('Origin',(14.8012192794247,0.,18.8546382004302));
#1397=CARTESIAN_POINT('',(13.5512192794247,8.,18.8546382004302));
#1398=CARTESIAN_POINT('',(13.5512192794247,0.,18.8546382004302));
#1399=CARTESIAN_POINT('Origin',(14.8012192794247,8.,18.8546382004302));
#1400=CARTESIAN_POINT('Origin',(60.8012192794247,0.,18.8546382004302));
#1401=CARTESIAN_POINT('',(59.5512192794247,8.,18.8546382004302));
#1402=CARTESIAN_POINT('',(59.5512192794247,0.,18.8546382004302));
#1403=CARTESIAN_POINT('Origin',(60.8012192794247,8.,18.8546382004302));
#1404=CARTESIAN_POINT('Origin',(34.3012192794247,0.,48.8546382004302));
#1405=CARTESIAN_POINT('',(33.5012192794247,6.,48.8546382004302));
#1406=CARTESIAN_POINT('',(33.5012192794247,0.,48.8546382004302));
#1407=CARTESIAN_POINT('Origin',(34.3012192794247,6.,48.8546382004302));
#1408=CARTESIAN_POINT('Origin',(34.3012192794247,6.,48.8546382004302));
#1409=CARTESIAN_POINT('Origin',(16.3012192794247,0.,30.8546382004302));
#1410=CARTESIAN_POINT('',(15.5012192794247,6.,30.8546382004302));
#1411=CARTESIAN_POINT('',(15.5012192794247,0.,30.8546382004302));
#1412=CARTESIAN_POINT('Origin',(16.3012192794247,6.,30.8546382004302));
#1413=CARTESIAN_POINT('Origin',(16.3012192794247,6.,30.8546382004302));
#1414=CARTESIAN_POINT('Origin',(38.8719837439669,8.,28.902971805944));
#1415=CARTESIAN_POINT('',(39.6719837439669,4.,28.902971805944));
#1416=CARTESIAN_POINT('Origin',(38.8719837439669,4.,28.902971805944));
#1417=CARTESIAN_POINT('',(39.6719837439669,8.,28.902971805944));
#1418=CARTESIAN_POINT('Origin',(55.3012192794247,8.,54.8546382004302));
#1419=CARTESIAN_POINT('',(58.3012192794247,8.,54.8546382004302));
#1420=CARTESIAN_POINT('Origin',(55.3012192794247,8.,54.8546382004302));
#1421=CARTESIAN_POINT('',(58.3012192794247,5.,54.8546382004302));
#1422=CARTESIAN_POINT('',(58.3012192794247,8.,54.8546382004302));
#1423=CARTESIAN_POINT('Origin',(55.3012192794247,5.,54.8546382004302));
#1424=CARTESIAN_POINT('Origin',(55.3012192794247,5.,54.8546382004302));
#1425=CARTESIAN_POINT('',(57.3012192794247,5.,54.8546382004302));
#1426=CARTESIAN_POINT('Origin',(55.3012192794247,5.,54.8546382004302));
#1427=CARTESIAN_POINT('Origin',(55.3012192794247,8.,24.8546382004302));
#1428=CARTESIAN_POINT('',(58.3012192794247,8.,24.8546382004302));
#1429=CARTESIAN_POINT('Origin',(55.3012192794247,8.,24.8546382004302));
#1430=CARTESIAN_POINT('',(58.3012192794247,5.,24.8546382004302));
#1431=CARTESIAN_POINT('',(58.3012192794247,8.,24.8546382004302));
#1432=CARTESIAN_POINT('Origin',(55.3012192794247,5.,24.8546382004302));
#1433=CARTESIAN_POINT('Origin',(55.3012192794247,5.,24.8546382004302));
#1434=CARTESIAN_POINT('',(57.3012192794247,5.,24.8546382004302));
#1435=CARTESIAN_POINT('Origin',(55.3012192794247,5.,24.8546382004302));
#1436=CARTESIAN_POINT('Origin',(55.3012192794247,8.,54.8546382004302));
#1437=CARTESIAN_POINT('',(57.3012192794247,8.,54.8546382004302));
#1438=CARTESIAN_POINT('Origin',(55.3012192794247,8.,24.8546382004302));
#1439=CARTESIAN_POINT('',(57.3012192794247,8.,24.8546382004302));
#1440=CARTESIAN_POINT('Origin',(33.7630508494698,8.,39.0500224659411));
#1441=CARTESIAN_POINT('',(33.7630508494698,8.,39.0500224659411));
#1442=CARTESIAN_POINT('',(36.4756794513589,8.,39.0500224659411));
#1443=CARTESIAN_POINT('',(35.7821350644473,8.,39.0500224659411));
#1444=CARTESIAN_POINT('',(33.7630508494698,7.,39.0500224659411));
#1445=CARTESIAN_POINT('',(33.7630508494698,0.,39.0500224659411));
#1446=CARTESIAN_POINT('',(36.4756794513589,7.,39.0500224659411));
#1447=CARTESIAN_POINT('',(36.4756794513589,7.,39.0500224659411));
#1448=CARTESIAN_POINT('',(36.4756794513589,8.,39.0500224659411));
#1449=CARTESIAN_POINT('Origin',(36.4756794513589,8.,40.6592539349193));
#1450=CARTESIAN_POINT('',(36.4756794513589,8.,40.6592539349193));
#1451=CARTESIAN_POINT('',(33.7630508494698,8.,40.6592539349193));
#1452=CARTESIAN_POINT('',(37.1384493653918,8.,40.6592539349193));
#1453=CARTESIAN_POINT('',(36.4756794513589,7.,40.6592539349193));
#1454=CARTESIAN_POINT('',(36.4756794513589,8.,40.6592539349193));
#1455=CARTESIAN_POINT('',(33.7630508494698,7.,40.6592539349193));
#1456=CARTESIAN_POINT('',(36.4756794513589,7.,40.6592539349193));
#1457=CARTESIAN_POINT('',(33.7630508494698,0.,40.6592539349193));
#1458=CARTESIAN_POINT('Origin',(35.1193651504144,7.,39.8546382004302));
#1459=CARTESIAN_POINT('',(36.4756794513589,7.,40.8554687065141));
#1460=CARTESIAN_POINT('Origin',(25.3012192794247,7.,39.8546382004302));
#1461=CARTESIAN_POINT('Origin',(37.8012192794247,8.,39.8546382004302));
#1462=CARTESIAN_POINT('',(65.3012192794247,8.,14.8546382004302));
#1463=CARTESIAN_POINT('',(10.3012192794247,8.,14.8546382004302));
#1464=CARTESIAN_POINT('',(10.3012192794247,8.,14.8546382004302));
#1465=CARTESIAN_POINT('',(10.3012192794247,8.,64.8546382004302));
#1466=CARTESIAN_POINT('',(10.3012192794247,8.,64.8546382004302));
#1467=CARTESIAN_POINT('',(65.3012192794247,8.,64.8546382004302));
#1468=CARTESIAN_POINT('',(65.3012192794247,8.,64.8546382004302));
#1469=CARTESIAN_POINT('',(65.3012192794247,8.,14.8546382004302));
#1470=CARTESIAN_POINT('',(50.3012192794247,8.,39.8546382004302));
#1471=CARTESIAN_POINT('Origin',(55.3012192794247,8.,39.8546382004302));
#1472=CARTESIAN_POINT('',(19.3012192794247,8.,57.3546382004302));
#1473=CARTESIAN_POINT('Origin',(24.3012192794247,8.,57.3546382004302));
#1474=CARTESIAN_POINT('',(16.8012192794247,8.,39.8546382004302));
#1475=CARTESIAN_POINT('Origin',(25.3012192794247,8.,39.8546382004302));
#1476=CARTESIAN_POINT('Origin',(25.3012192794247,8.,39.8546382004302));
#1477=CARTESIAN_POINT('',(36.4756794513589,8.,18.6316586233169));
#1478=CARTESIAN_POINT('',(36.4756794513589,8.,40.8554687065141));
#1479=CARTESIAN_POINT('',(37.4756794513589,8.,17.6316586233169));
#1480=CARTESIAN_POINT('Origin',(37.4756794513589,8.,18.6316586233169));
#1481=CARTESIAN_POINT('',(46.9503022606049,8.,17.6316586233169));
#1482=CARTESIAN_POINT('',(37.6384493653918,8.,17.6316586233169));
#1483=CARTESIAN_POINT('',(47.9503022606049,8.,18.6316586233169));
#1484=CARTESIAN_POINT('Origin',(46.9503022606049,8.,18.6316586233169));
#1485=CARTESIAN_POINT('',(47.9503022606049,8.,41.856299212598));
#1486=CARTESIAN_POINT('',(47.9503022606049,8.,29.2431484118736));
#1487=CARTESIAN_POINT('',(46.9503022606049,8.,42.856299212598));
#1488=CARTESIAN_POINT('Origin',(46.9503022606049,8.,41.856299212598));
#1489=CARTESIAN_POINT('',(37.4756794513589,8.,42.856299212598));
#1490=CARTESIAN_POINT('',(42.3757607700148,8.,42.856299212598));
#1491=CARTESIAN_POINT('',(36.4756794513589,8.,41.856299212598));
#1492=CARTESIAN_POINT('Origin',(37.4756794513589,8.,41.856299212598));
#1493=CARTESIAN_POINT('',(36.4756794513589,8.,40.8554687065141));
#1494=CARTESIAN_POINT('',(19.3012192794247,8.,22.3546382004302));
#1495=CARTESIAN_POINT('Origin',(24.3012192794247,8.,22.3546382004302));
#1496=CARTESIAN_POINT('Origin',(25.3012192794247,0.,39.8546382004302));
#1497=CARTESIAN_POINT('',(16.8012192794247,0.,39.8546382004302));
#1498=CARTESIAN_POINT('Origin',(37.4756794513589,8.,21.5316586233169));
#1499=CARTESIAN_POINT('',(36.4756794513589,4.,21.5316586233169));
#1500=CARTESIAN_POINT('',(36.4756794513589,8.,21.5316586233169));
#1501=CARTESIAN_POINT('',(37.4756794513589,4.,22.5316586233169));
#1502=CARTESIAN_POINT('Origin',(37.4756794513589,4.,21.5316586233169));
#1503=CARTESIAN_POINT('',(37.4756794513589,8.,22.5316586233169));
#1504=CARTESIAN_POINT('Origin',(46.9503022606049,8.,22.5316586233169));
#1505=CARTESIAN_POINT('',(46.9503022606049,4.,22.5316586233169));
#1506=CARTESIAN_POINT('',(44.5816465582934,4.,22.5316586233169));
#1507=CARTESIAN_POINT('',(46.9503022606049,8.,22.5316586233169));
#1508=CARTESIAN_POINT('Origin',(46.9503022606049,8.,21.5316586233169));
#1509=CARTESIAN_POINT('',(47.9503022606049,4.,21.5316586233169));
#1510=CARTESIAN_POINT('Origin',(46.9503022606049,4.,21.5316586233169));
#1511=CARTESIAN_POINT('',(47.9503022606049,8.,21.5316586233169));
#1512=CARTESIAN_POINT('Origin',(47.9503022606049,8.,18.6316586233169));
#1513=CARTESIAN_POINT('',(47.9503022606049,4.,41.856299212598));
#1514=CARTESIAN_POINT('',(47.9503022606049,4.,41.856299212598));
#1515=CARTESIAN_POINT('',(47.9503022606049,8.,41.856299212598));
#1516=CARTESIAN_POINT('',(47.9503022606049,8.,18.6316586233169));
#1517=CARTESIAN_POINT('Origin',(42.2129908559819,4.,30.2439789179574));
#1518=CARTESIAN_POINT('',(36.4756794513589,4.,41.856299212598));
#1519=CARTESIAN_POINT('',(36.4756794513589,4.,21.5316586233169));
#1520=CARTESIAN_POINT('',(37.4756794513589,4.,42.856299212598));
#1521=CARTESIAN_POINT('Origin',(37.4756794513589,4.,41.856299212598));
#1522=CARTESIAN_POINT('',(46.9503022606049,4.,42.856299212598));
#1523=CARTESIAN_POINT('',(46.9503022606049,4.,42.856299212598));
#1524=CARTESIAN_POINT('Origin',(46.9503022606049,4.,41.856299212598));
#1525=CARTESIAN_POINT('Origin',(46.9503022606049,8.,42.856299212598));
#1526=CARTESIAN_POINT('',(46.9503022606049,8.,42.856299212598));
#1527=CARTESIAN_POINT('',(37.4756794513589,8.,42.856299212598));
#1528=CARTESIAN_POINT('Origin',(46.9503022606049,8.,41.856299212598));
#1529=CARTESIAN_POINT('Origin',(46.9503022606049,8.,18.6316586233169));
#1530=CARTESIAN_POINT('',(46.9503022606049,8.,17.6316586233169));
#1531=CARTESIAN_POINT('Origin',(37.4756794513589,8.,17.6316586233169));
#1532=CARTESIAN_POINT('',(37.4756794513589,8.,17.6316586233169));
#1533=CARTESIAN_POINT('Origin',(37.4756794513589,8.,18.6316586233169));
#1534=CARTESIAN_POINT('',(36.4756794513589,8.,18.6316586233169));
#1535=CARTESIAN_POINT('Origin',(36.4756794513589,8.,41.856299212598));
#1536=CARTESIAN_POINT('',(36.4756794513589,8.,41.856299212598));
#1537=CARTESIAN_POINT('Origin',(37.4756794513589,8.,41.856299212598));
#1538=CARTESIAN_POINT('Origin',(55.3012192794247,0.,39.8546382004302));
#1539=CARTESIAN_POINT('',(50.3012192794247,0.,39.8546382004302));
#1540=CARTESIAN_POINT('Origin',(24.3012192794247,0.,57.3546382004302));
#1541=CARTESIAN_POINT('',(19.3012192794247,0.,57.3546382004302));
#1542=CARTESIAN_POINT('Origin',(24.3012192794247,0.,22.3546382004302));
#1543=CARTESIAN_POINT('',(19.3012192794247,0.,22.3546382004302));
#1544=CARTESIAN_POINT('Origin',(65.3012192794247,0.,64.8546382004302));
#1545=CARTESIAN_POINT('',(65.3012192794247,0.,14.8546382004302));
#1546=CARTESIAN_POINT('',(65.3012192794247,0.,64.8546382004302));
#1547=CARTESIAN_POINT('Origin',(10.3012192794247,0.,64.8546382004302));
#1548=CARTESIAN_POINT('',(10.3012192794247,0.,64.8546382004302));
#1549=CARTESIAN_POINT('Origin',(10.3012192794247,0.,14.8546382004302));
#1550=CARTESIAN_POINT('',(10.3012192794247,0.,14.8546382004302));
#1551=CARTESIAN_POINT('Origin',(65.3012192794247,0.,14.8546382004302));
#1552=UNCERTAINTY_MEASURE_WITH_UNIT(LENGTH_MEASURE(0.01),#1556,
'DISTANCE_ACCURACY_VALUE',
'Maximum model space distance between geometric entities at asserted c
onnectivities');
#1553=UNCERTAINTY_MEASURE_WITH_UNIT(LENGTH_MEASURE(0.01),#1556,
'DISTANCE_ACCURACY_VALUE',
'Maximum model space distance between geometric entities at asserted c
onnectivities');
#1554=(
GEOMETRIC_REPRESENTATION_CONTEXT(3)
GLOBAL_UNCERTAINTY_ASSIGNED_CONTEXT((#1552))
GLOBAL_UNIT_ASSIGNED_CONTEXT((#1556,#1558,#1559))
REPRESENTATION_CONTEXT('','3D')
);
#1555=(
GEOMETRIC_REPRESENTATION_CONTEXT(3)
GLOBAL_UNCERTAINTY_ASSIGNED_CONTEXT((#1553))
GLOBAL_UNIT_ASSIGNED_CONTEXT((#1556,#1558,#1559))
REPRESENTATION_CONTEXT('','3D')
);
#1556=(
LENGTH_UNIT()
NAMED_UNIT(*)
SI_UNIT(.MILLI.,.METRE.)
);
#1557=(
LENGTH_UNIT()
NAMED_UNIT(*)
SI_UNIT($,.METRE.)
);
#1558=(
NAMED_UNIT(*)
PLANE_ANGLE_UNIT()
SI_UNIT($,.RADIAN.)
);
#1559=(
NAMED_UNIT(*)
SI_UNIT($,.STERADIAN.)
SOLID_ANGLE_UNIT()
);
#1560=SHAPE_DEFINITION_REPRESENTATION(#1561,#1562);
#1561=PRODUCT_DEFINITION_SHAPE('',$,#1564);
#1562=SHAPE_REPRESENTATION('',(#916),#1554);
#1563=PRODUCT_DEFINITION_CONTEXT('part definition',#1568,'design');
#1564=PRODUCT_DEFINITION('Fusion \X2\96F690E84EF6\X0\',
'Fusion \X2\96F690E84EF6\X0\',#1565,#1563);
#1565=PRODUCT_DEFINITION_FORMATION('',$,#1570);
#1566=PRODUCT_RELATED_PRODUCT_CATEGORY('Fusion \X2\96F690E84EF6\X0\',
'Fusion \X2\96F690E84EF6\X0\',(#1570));
#1567=APPLICATION_PROTOCOL_DEFINITION('international standard',
'automotive_design',2009,#1568);
#1568=APPLICATION_CONTEXT(
'Core Data for Automotive Mechanical Design Process');
#1569=PRODUCT_CONTEXT('part definition',#1568,'mechanical');
#1570=PRODUCT('Fusion \X2\96F690E84EF6\X0\','Fusion \X2\96F690E84EF6\X0\',
$,(#1569));
#1571=PRESENTATION_STYLE_ASSIGNMENT((#1572));
#1572=SURFACE_STYLE_USAGE(.BOTH.,#1573);
#1573=SURFACE_SIDE_STYLE('',(#1574));
#1574=SURFACE_STYLE_FILL_AREA(#1575);
#1575=FILL_AREA_STYLE('\X2\94A2\X0\ - \X2\7F0E5149\X0\',(#1576));
#1576=FILL_AREA_STYLE_COLOUR('\X2\94A2\X0\ - \X2\7F0E5149\X0\',#1577);
#1577=COLOUR_RGB('\X2\94A2\X0\ - \X2\7F0E5149\X0\',0.627450980392157,0.627450980392157,
0.627450980392157);
ENDSEC;
END-ISO-10303-21;
