ISO-10303-21;
HEADER;
/* Generated by software containing ST-Developer
 * from STEP Tools, Inc. (www.steptools.com) 
 */

FILE_DESCRIPTION(
/* description */ (''),
/* implementation_level */ '2;1');

FILE_NAME(
/* name */ 'CNC2.5.1.step',
/* time_stamp */ '2026-02-05T00:00:46+08:00',
/* author */ (''),
/* organization */ (''),
/* preprocessor_version */ 'ST-DEVELOPER v20.1',
/* originating_system */ 'Autodesk Translation Framework v14.24.0.0',
/* authorisation */ '');

FILE_SCHEMA (('AUTOMOTIVE_DESIGN { 1 0 10303 214 3 1 1 }'));
ENDSEC;

DATA;
#10=MECHANICAL_DESIGN_GEOMETRIC_PRESENTATION_REPRESENTATION('',(#13),#1508);
#11=SHAPE_REPRESENTATION_RELATIONSHIP('SRR','None',#1515,#12);
#12=ADVANCED_BREP_SHAPE_REPRESENTATION('',(#14),#1507);
#13=STYLED_ITEM('',(#1524),#14);
#14=MANIFOLD_SOLID_BREP('\X2\5B9E4F53\X0\1',#880);
#15=FACE_BOUND('',#119,.T.);
#16=FACE_BOUND('',#122,.T.);
#17=FACE_BOUND('',#125,.T.);
#18=FACE_BOUND('',#128,.T.);
#19=FACE_BOUND('',#140,.T.);
#20=FACE_BOUND('',#143,.T.);
#21=FACE_BOUND('',#150,.T.);
#22=FACE_BOUND('',#151,.T.);
#23=FACE_BOUND('',#152,.T.);
#24=FACE_BOUND('',#153,.T.);
#25=FACE_BOUND('',#154,.T.);
#26=FACE_BOUND('',#155,.T.);
#27=FACE_BOUND('',#156,.T.);
#28=FACE_BOUND('',#157,.T.);
#29=FACE_BOUND('',#158,.T.);
#30=FACE_BOUND('',#159,.T.);
#31=FACE_BOUND('',#166,.T.);
#32=FACE_BOUND('',#182,.T.);
#33=FACE_BOUND('',#183,.T.);
#34=FACE_BOUND('',#184,.T.);
#35=FACE_BOUND('',#185,.T.);
#36=FACE_BOUND('',#186,.T.);
#37=FACE_BOUND('',#187,.T.);
#38=FACE_BOUND('',#188,.T.);
#39=FACE_BOUND('',#189,.T.);
#40=FACE_BOUND('',#190,.T.);
#41=FACE_BOUND('',#191,.T.);
#42=FACE_BOUND('',#192,.T.);
#43=FACE_BOUND('',#193,.T.);
#44=FACE_BOUND('',#194,.T.);
#45=FACE_BOUND('',#195,.T.);
#46=PLANE('',#897);
#47=PLANE('',#902);
#48=PLANE('',#907);
#49=PLANE('',#912);
#50=PLANE('',#929);
#51=PLANE('',#933);
#52=PLANE('',#940);
#53=PLANE('',#945);
#54=PLANE('',#951);
#55=PLANE('',#952);
#56=PLANE('',#953);
#57=PLANE('',#955);
#58=PLANE('',#969);
#59=PLANE('',#973);
#60=PLANE('',#974);
#61=PLANE('',#977);
#62=PLANE('',#981);
#63=PLANE('',#984);
#64=PLANE('',#989);
#65=PLANE('',#990);
#66=PLANE('',#991);
#67=PLANE('',#992);
#68=PLANE('',#993);
#69=FACE_OUTER_BOUND('',#117,.T.);
#70=FACE_OUTER_BOUND('',#118,.T.);
#71=FACE_OUTER_BOUND('',#120,.T.);
#72=FACE_OUTER_BOUND('',#121,.T.);
#73=FACE_OUTER_BOUND('',#123,.T.);
#74=FACE_OUTER_BOUND('',#124,.T.);
#75=FACE_OUTER_BOUND('',#126,.T.);
#76=FACE_OUTER_BOUND('',#127,.T.);
#77=FACE_OUTER_BOUND('',#129,.T.);
#78=FACE_OUTER_BOUND('',#130,.T.);
#79=FACE_OUTER_BOUND('',#131,.T.);
#80=FACE_OUTER_BOUND('',#132,.T.);
#81=FACE_OUTER_BOUND('',#133,.T.);
#82=FACE_OUTER_BOUND('',#134,.T.);
#83=FACE_OUTER_BOUND('',#135,.T.);
#84=FACE_OUTER_BOUND('',#136,.T.);
#85=FACE_OUTER_BOUND('',#137,.T.);
#86=FACE_OUTER_BOUND('',#138,.T.);
#87=FACE_OUTER_BOUND('',#139,.T.);
#88=FACE_OUTER_BOUND('',#141,.T.);
#89=FACE_OUTER_BOUND('',#142,.T.);
#90=FACE_OUTER_BOUND('',#144,.T.);
#91=FACE_OUTER_BOUND('',#145,.T.);
#92=FACE_OUTER_BOUND('',#146,.T.);
#93=FACE_OUTER_BOUND('',#147,.T.);
#94=FACE_OUTER_BOUND('',#148,.T.);
#95=FACE_OUTER_BOUND('',#149,.T.);
#96=FACE_OUTER_BOUND('',#160,.T.);
#97=FACE_OUTER_BOUND('',#161,.T.);
#98=FACE_OUTER_BOUND('',#162,.T.);
#99=FACE_OUTER_BOUND('',#163,.T.);
#100=FACE_OUTER_BOUND('',#164,.T.);
#101=FACE_OUTER_BOUND('',#165,.T.);
#102=FACE_OUTER_BOUND('',#167,.T.);
#103=FACE_OUTER_BOUND('',#168,.T.);
#104=FACE_OUTER_BOUND('',#169,.T.);
#105=FACE_OUTER_BOUND('',#170,.T.);
#106=FACE_OUTER_BOUND('',#171,.T.);
#107=FACE_OUTER_BOUND('',#172,.T.);
#108=FACE_OUTER_BOUND('',#173,.T.);
#109=FACE_OUTER_BOUND('',#174,.T.);
#110=FACE_OUTER_BOUND('',#175,.T.);
#111=FACE_OUTER_BOUND('',#176,.T.);
#112=FACE_OUTER_BOUND('',#177,.T.);
#113=FACE_OUTER_BOUND('',#178,.T.);
#114=FACE_OUTER_BOUND('',#179,.T.);
#115=FACE_OUTER_BOUND('',#180,.T.);
#116=FACE_OUTER_BOUND('',#181,.T.);
#117=EDGE_LOOP('',(#573,#574,#575,#576));
#118=EDGE_LOOP('',(#577));
#119=EDGE_LOOP('',(#578));
#120=EDGE_LOOP('',(#579,#580,#581,#582));
#121=EDGE_LOOP('',(#583));
#122=EDGE_LOOP('',(#584));
#123=EDGE_LOOP('',(#585,#586,#587,#588));
#124=EDGE_LOOP('',(#589));
#125=EDGE_LOOP('',(#590));
#126=EDGE_LOOP('',(#591,#592,#593,#594));
#127=EDGE_LOOP('',(#595));
#128=EDGE_LOOP('',(#596));
#129=EDGE_LOOP('',(#597,#598,#599,#600));
#130=EDGE_LOOP('',(#601,#602,#603,#604));
#131=EDGE_LOOP('',(#605,#606,#607,#608));
#132=EDGE_LOOP('',(#609,#610,#611,#612));
#133=EDGE_LOOP('',(#613,#614,#615,#616));
#134=EDGE_LOOP('',(#617));
#135=EDGE_LOOP('',(#618,#619,#620,#621));
#136=EDGE_LOOP('',(#622));
#137=EDGE_LOOP('',(#623,#624,#625,#626));
#138=EDGE_LOOP('',(#627,#628,#629,#630));
#139=EDGE_LOOP('',(#631));
#140=EDGE_LOOP('',(#632));
#141=EDGE_LOOP('',(#633,#634,#635,#636));
#142=EDGE_LOOP('',(#637));
#143=EDGE_LOOP('',(#638));
#144=EDGE_LOOP('',(#639,#640,#641,#642));
#145=EDGE_LOOP('',(#643,#644,#645,#646));
#146=EDGE_LOOP('',(#647,#648,#649,#650));
#147=EDGE_LOOP('',(#651,#652,#653,#654));
#148=EDGE_LOOP('',(#655,#656,#657,#658));
#149=EDGE_LOOP('',(#659,#660,#661,#662));
#150=EDGE_LOOP('',(#663));
#151=EDGE_LOOP('',(#664));
#152=EDGE_LOOP('',(#665));
#153=EDGE_LOOP('',(#666));
#154=EDGE_LOOP('',(#667));
#155=EDGE_LOOP('',(#668));
#156=EDGE_LOOP('',(#669));
#157=EDGE_LOOP('',(#670,#671,#672,#673,#674,#675,#676,#677,#678,#679,#680,
#681,#682));
#158=EDGE_LOOP('',(#683));
#159=EDGE_LOOP('',(#684));
#160=EDGE_LOOP('',(#685,#686,#687,#688,#689,#690,#691,#692));
#161=EDGE_LOOP('',(#693,#694,#695,#696));
#162=EDGE_LOOP('',(#697,#698,#699,#700));
#163=EDGE_LOOP('',(#701,#702,#703,#704));
#164=EDGE_LOOP('',(#705,#706,#707,#708,#709,#710));
#165=EDGE_LOOP('',(#711,#712,#713,#714,#715,#716,#717,#718));
#166=EDGE_LOOP('',(#719));
#167=EDGE_LOOP('',(#720,#721,#722,#723));
#168=EDGE_LOOP('',(#724,#725,#726,#727));
#169=EDGE_LOOP('',(#728,#729,#730,#731));
#170=EDGE_LOOP('',(#732,#733,#734,#735));
#171=EDGE_LOOP('',(#736,#737,#738,#739));
#172=EDGE_LOOP('',(#740,#741,#742,#743,#744,#745,#746,#747,#748,#749));
#173=EDGE_LOOP('',(#750,#751,#752,#753));
#174=EDGE_LOOP('',(#754,#755,#756,#757));
#175=EDGE_LOOP('',(#758,#759,#760,#761));
#176=EDGE_LOOP('',(#762,#763,#764,#765));
#177=EDGE_LOOP('',(#766,#767,#768,#769));
#178=EDGE_LOOP('',(#770,#771,#772,#773));
#179=EDGE_LOOP('',(#774,#775,#776,#777));
#180=EDGE_LOOP('',(#778,#779,#780,#781));
#181=EDGE_LOOP('',(#782,#783,#784,#785));
#182=EDGE_LOOP('',(#786));
#183=EDGE_LOOP('',(#787));
#184=EDGE_LOOP('',(#788));
#185=EDGE_LOOP('',(#789));
#186=EDGE_LOOP('',(#790));
#187=EDGE_LOOP('',(#791));
#188=EDGE_LOOP('',(#792));
#189=EDGE_LOOP('',(#793));
#190=EDGE_LOOP('',(#794));
#191=EDGE_LOOP('',(#795));
#192=EDGE_LOOP('',(#796));
#193=EDGE_LOOP('',(#797));
#194=EDGE_LOOP('',(#798));
#195=EDGE_LOOP('',(#799,#800,#801,#802,#803,#804,#805,#806));
#196=LINE('',#1266,#261);
#197=LINE('',#1275,#262);
#198=LINE('',#1284,#263);
#199=LINE('',#1293,#264);
#200=LINE('',#1302,#265);
#201=LINE('',#1308,#266);
#202=LINE('',#1314,#267);
#203=LINE('',#1320,#268);
#204=LINE('',#1326,#269);
#205=LINE('',#1333,#270);
#206=LINE('',#1340,#271);
#207=LINE('',#1346,#272);
#208=LINE('',#1355,#273);
#209=LINE('',#1362,#274);
#210=LINE('',#1366,#275);
#211=LINE('',#1371,#276);
#212=LINE('',#1373,#277);
#213=LINE('',#1375,#278);
#214=LINE('',#1376,#279);
#215=LINE('',#1380,#280);
#216=LINE('',#1382,#281);
#217=LINE('',#1384,#282);
#218=LINE('',#1385,#283);
#219=LINE('',#1387,#284);
#220=LINE('',#1392,#285);
#221=LINE('',#1394,#286);
#222=LINE('',#1396,#287);
#223=LINE('',#1397,#288);
#224=LINE('',#1404,#289);
#225=LINE('',#1408,#290);
#226=LINE('',#1412,#291);
#227=LINE('',#1416,#292);
#228=LINE('',#1419,#293);
#229=LINE('',#1425,#294);
#230=LINE('',#1431,#295);
#231=LINE('',#1434,#296);
#232=LINE('',#1437,#297);
#233=LINE('',#1439,#298);
#234=LINE('',#1440,#299);
#235=LINE('',#1446,#300);
#236=LINE('',#1449,#301);
#237=LINE('',#1450,#302);
#238=LINE('',#1452,#303);
#239=LINE('',#1453,#304);
#240=LINE('',#1456,#305);
#241=LINE('',#1460,#306);
#242=LINE('',#1463,#307);
#243=LINE('',#1464,#308);
#244=LINE('',#1468,#309);
#245=LINE('',#1472,#310);
#246=LINE('',#1473,#311);
#247=LINE('',#1476,#312);
#248=LINE('',#1479,#313);
#249=LINE('',#1480,#314);
#250=LINE('',#1483,#315);
#251=LINE('',#1485,#316);
#252=LINE('',#1487,#317);
#253=LINE('',#1491,#318);
#254=LINE('',#1492,#319);
#255=LINE('',#1493,#320);
#256=LINE('',#1496,#321);
#257=LINE('',#1497,#322);
#258=LINE('',#1500,#323);
#259=LINE('',#1501,#324);
#260=LINE('',#1503,#325);
#261=VECTOR('',#1000,9.05);
#262=VECTOR('',#1011,4.35);
#263=VECTOR('',#1022,4.35);
#264=VECTOR('',#1033,4.35);
#265=VECTOR('',#1044,1.25);
#266=VECTOR('',#1051,1.25);
#267=VECTOR('',#1058,1.25);
#268=VECTOR('',#1065,1.25);
#269=VECTOR('',#1072,0.800000000000001);
#270=VECTOR('',#1081,0.800000000000001);
#271=VECTOR('',#1090,0.800000000000001);
#272=VECTOR('',#1097,3.);
#273=VECTOR('',#1108,3.);
#274=VECTOR('',#1117,2.);
#275=VECTOR('',#1122,2.);
#276=VECTOR('',#1127,10.);
#277=VECTOR('',#1128,10.);
#278=VECTOR('',#1129,10.);
#279=VECTOR('',#1130,10.);
#280=VECTOR('',#1133,10.);
#281=VECTOR('',#1134,10.);
#282=VECTOR('',#1135,10.);
#283=VECTOR('',#1136,10.);
#284=VECTOR('',#1139,10.);
#285=VECTOR('',#1144,10.);
#286=VECTOR('',#1145,10.);
#287=VECTOR('',#1146,10.);
#288=VECTOR('',#1147,10.);
#289=VECTOR('',#1154,10.);
#290=VECTOR('',#1157,10.);
#291=VECTOR('',#1160,10.);
#292=VECTOR('',#1163,10.);
#293=VECTOR('',#1166,10.);
#294=VECTOR('',#1173,8.5);
#295=VECTOR('',#1178,10.);
#296=VECTOR('',#1181,10.);
#297=VECTOR('',#1184,10.);
#298=VECTOR('',#1185,10.);
#299=VECTOR('',#1186,10.);
#300=VECTOR('',#1193,10.);
#301=VECTOR('',#1196,10.);
#302=VECTOR('',#1197,10.);
#303=VECTOR('',#1198,10.);
#304=VECTOR('',#1199,10.);
#305=VECTOR('',#1202,10.);
#306=VECTOR('',#1205,10.);
#307=VECTOR('',#1210,10.);
#308=VECTOR('',#1211,10.);
#309=VECTOR('',#1216,10.);
#310=VECTOR('',#1221,10.);
#311=VECTOR('',#1222,10.);
#312=VECTOR('',#1225,10.);
#313=VECTOR('',#1230,10.);
#314=VECTOR('',#1231,10.);
#315=VECTOR('',#1236,5.);
#316=VECTOR('',#1239,5.);
#317=VECTOR('',#1242,5.);
#318=VECTOR('',#1245,10.);
#319=VECTOR('',#1246,10.);
#320=VECTOR('',#1247,10.);
#321=VECTOR('',#1250,10.);
#322=VECTOR('',#1251,10.);
#323=VECTOR('',#1254,10.);
#324=VECTOR('',#1255,10.);
#325=VECTOR('',#1258,10.);
#326=CIRCLE('',#895,9.05);
#327=CIRCLE('',#896,9.05);
#328=CIRCLE('',#898,8.5);
#329=CIRCLE('',#900,4.35);
#330=CIRCLE('',#901,4.35);
#331=CIRCLE('',#903,5.);
#332=CIRCLE('',#905,4.35);
#333=CIRCLE('',#906,4.35);
#334=CIRCLE('',#908,5.);
#335=CIRCLE('',#910,4.35);
#336=CIRCLE('',#911,4.35);
#337=CIRCLE('',#913,5.);
#338=CIRCLE('',#915,1.25);
#339=CIRCLE('',#916,1.25);
#340=CIRCLE('',#918,1.25);
#341=CIRCLE('',#919,1.25);
#342=CIRCLE('',#921,1.25);
#343=CIRCLE('',#922,1.25);
#344=CIRCLE('',#924,1.25);
#345=CIRCLE('',#925,1.25);
#346=CIRCLE('',#927,0.800000000000001);
#347=CIRCLE('',#928,0.800000000000001);
#348=CIRCLE('',#931,0.800000000000001);
#349=CIRCLE('',#932,0.800000000000001);
#350=CIRCLE('',#935,0.800000000000001);
#351=CIRCLE('',#936,0.800000000000001);
#352=CIRCLE('',#938,3.);
#353=CIRCLE('',#939,3.);
#354=CIRCLE('',#941,2.);
#355=CIRCLE('',#943,3.);
#356=CIRCLE('',#944,3.);
#357=CIRCLE('',#946,2.);
#358=CIRCLE('',#948,2.);
#359=CIRCLE('',#950,2.);
#360=CIRCLE('',#954,8.5);
#361=CIRCLE('',#956,5.);
#362=CIRCLE('',#957,8.5);
#363=CIRCLE('',#958,8.5);
#364=CIRCLE('',#959,1.00000000000001);
#365=CIRCLE('',#960,0.999999999999996);
#366=CIRCLE('',#961,0.999999999999996);
#367=CIRCLE('',#962,0.999999999999988);
#368=CIRCLE('',#963,5.);
#369=CIRCLE('',#964,5.);
#370=CIRCLE('',#967,1.00000000000001);
#371=CIRCLE('',#968,1.00000000000001);
#372=CIRCLE('',#971,0.999999999999996);
#373=CIRCLE('',#972,0.999999999999996);
#374=CIRCLE('',#975,0.999999999999988);
#375=CIRCLE('',#976,0.999999999999996);
#376=CIRCLE('',#980,0.999999999999996);
#377=CIRCLE('',#983,1.00000000000001);
#378=VERTEX_POINT('',#1263);
#379=VERTEX_POINT('',#1265);
#380=VERTEX_POINT('',#1269);
#381=VERTEX_POINT('',#1272);
#382=VERTEX_POINT('',#1274);
#383=VERTEX_POINT('',#1278);
#384=VERTEX_POINT('',#1281);
#385=VERTEX_POINT('',#1283);
#386=VERTEX_POINT('',#1287);
#387=VERTEX_POINT('',#1290);
#388=VERTEX_POINT('',#1292);
#389=VERTEX_POINT('',#1296);
#390=VERTEX_POINT('',#1299);
#391=VERTEX_POINT('',#1301);
#392=VERTEX_POINT('',#1305);
#393=VERTEX_POINT('',#1307);
#394=VERTEX_POINT('',#1311);
#395=VERTEX_POINT('',#1313);
#396=VERTEX_POINT('',#1317);
#397=VERTEX_POINT('',#1319);
#398=VERTEX_POINT('',#1323);
#399=VERTEX_POINT('',#1325);
#400=VERTEX_POINT('',#1330);
#401=VERTEX_POINT('',#1332);
#402=VERTEX_POINT('',#1337);
#403=VERTEX_POINT('',#1339);
#404=VERTEX_POINT('',#1343);
#405=VERTEX_POINT('',#1345);
#406=VERTEX_POINT('',#1349);
#407=VERTEX_POINT('',#1352);
#408=VERTEX_POINT('',#1354);
#409=VERTEX_POINT('',#1358);
#410=VERTEX_POINT('',#1361);
#411=VERTEX_POINT('',#1365);
#412=VERTEX_POINT('',#1369);
#413=VERTEX_POINT('',#1370);
#414=VERTEX_POINT('',#1372);
#415=VERTEX_POINT('',#1374);
#416=VERTEX_POINT('',#1378);
#417=VERTEX_POINT('',#1379);
#418=VERTEX_POINT('',#1381);
#419=VERTEX_POINT('',#1383);
#420=VERTEX_POINT('',#1390);
#421=VERTEX_POINT('',#1391);
#422=VERTEX_POINT('',#1393);
#423=VERTEX_POINT('',#1395);
#424=VERTEX_POINT('',#1398);
#425=VERTEX_POINT('',#1400);
#426=VERTEX_POINT('',#1403);
#427=VERTEX_POINT('',#1405);
#428=VERTEX_POINT('',#1407);
#429=VERTEX_POINT('',#1409);
#430=VERTEX_POINT('',#1411);
#431=VERTEX_POINT('',#1413);
#432=VERTEX_POINT('',#1415);
#433=VERTEX_POINT('',#1417);
#434=VERTEX_POINT('',#1420);
#435=VERTEX_POINT('',#1422);
#436=VERTEX_POINT('',#1427);
#437=VERTEX_POINT('',#1428);
#438=VERTEX_POINT('',#1430);
#439=VERTEX_POINT('',#1432);
#440=VERTEX_POINT('',#1436);
#441=VERTEX_POINT('',#1438);
#442=VERTEX_POINT('',#1442);
#443=VERTEX_POINT('',#1444);
#444=VERTEX_POINT('',#1448);
#445=VERTEX_POINT('',#1451);
#446=VERTEX_POINT('',#1455);
#447=VERTEX_POINT('',#1457);
#448=VERTEX_POINT('',#1459);
#449=VERTEX_POINT('',#1467);
#450=VERTEX_POINT('',#1471);
#451=VERTEX_POINT('',#1475);
#452=VERTEX_POINT('',#1489);
#453=VERTEX_POINT('',#1490);
#454=VERTEX_POINT('',#1495);
#455=VERTEX_POINT('',#1499);
#456=EDGE_CURVE('',#378,#378,#326,.T.);
#457=EDGE_CURVE('',#378,#379,#196,.T.);
#458=EDGE_CURVE('',#379,#379,#327,.T.);
#459=EDGE_CURVE('',#380,#380,#328,.T.);
#460=EDGE_CURVE('',#381,#381,#329,.T.);
#461=EDGE_CURVE('',#381,#382,#197,.T.);
#462=EDGE_CURVE('',#382,#382,#330,.T.);
#463=EDGE_CURVE('',#383,#383,#331,.T.);
#464=EDGE_CURVE('',#384,#384,#332,.T.);
#465=EDGE_CURVE('',#384,#385,#198,.T.);
#466=EDGE_CURVE('',#385,#385,#333,.T.);
#467=EDGE_CURVE('',#386,#386,#334,.T.);
#468=EDGE_CURVE('',#387,#387,#335,.T.);
#469=EDGE_CURVE('',#387,#388,#199,.T.);
#470=EDGE_CURVE('',#388,#388,#336,.T.);
#471=EDGE_CURVE('',#389,#389,#337,.T.);
#472=EDGE_CURVE('',#390,#390,#338,.T.);
#473=EDGE_CURVE('',#390,#391,#200,.T.);
#474=EDGE_CURVE('',#391,#391,#339,.T.);
#475=EDGE_CURVE('',#392,#392,#340,.T.);
#476=EDGE_CURVE('',#392,#393,#201,.T.);
#477=EDGE_CURVE('',#393,#393,#341,.T.);
#478=EDGE_CURVE('',#394,#394,#342,.T.);
#479=EDGE_CURVE('',#394,#395,#202,.T.);
#480=EDGE_CURVE('',#395,#395,#343,.T.);
#481=EDGE_CURVE('',#396,#396,#344,.T.);
#482=EDGE_CURVE('',#396,#397,#203,.T.);
#483=EDGE_CURVE('',#397,#397,#345,.T.);
#484=EDGE_CURVE('',#398,#398,#346,.T.);
#485=EDGE_CURVE('',#398,#399,#204,.T.);
#486=EDGE_CURVE('',#399,#399,#347,.T.);
#487=EDGE_CURVE('',#400,#400,#348,.T.);
#488=EDGE_CURVE('',#400,#401,#205,.T.);
#489=EDGE_CURVE('',#401,#401,#349,.T.);
#490=EDGE_CURVE('',#402,#402,#350,.T.);
#491=EDGE_CURVE('',#402,#403,#206,.T.);
#492=EDGE_CURVE('',#403,#403,#351,.T.);
#493=EDGE_CURVE('',#404,#404,#352,.T.);
#494=EDGE_CURVE('',#404,#405,#207,.T.);
#495=EDGE_CURVE('',#405,#405,#353,.T.);
#496=EDGE_CURVE('',#406,#406,#354,.T.);
#497=EDGE_CURVE('',#407,#407,#355,.T.);
#498=EDGE_CURVE('',#407,#408,#208,.T.);
#499=EDGE_CURVE('',#408,#408,#356,.T.);
#500=EDGE_CURVE('',#409,#409,#357,.T.);
#501=EDGE_CURVE('',#406,#410,#209,.T.);
#502=EDGE_CURVE('',#410,#410,#358,.T.);
#503=EDGE_CURVE('',#409,#411,#210,.T.);
#504=EDGE_CURVE('',#411,#411,#359,.T.);
#505=EDGE_CURVE('',#412,#413,#211,.T.);
#506=EDGE_CURVE('',#414,#412,#212,.T.);
#507=EDGE_CURVE('',#414,#415,#213,.T.);
#508=EDGE_CURVE('',#413,#415,#214,.T.);
#509=EDGE_CURVE('',#416,#417,#215,.T.);
#510=EDGE_CURVE('',#418,#416,#216,.T.);
#511=EDGE_CURVE('',#418,#419,#217,.T.);
#512=EDGE_CURVE('',#417,#419,#218,.T.);
#513=EDGE_CURVE('',#415,#418,#219,.T.);
#514=EDGE_CURVE('',#419,#414,#360,.T.);
#515=EDGE_CURVE('',#420,#421,#220,.T.);
#516=EDGE_CURVE('',#421,#422,#221,.T.);
#517=EDGE_CURVE('',#422,#423,#222,.T.);
#518=EDGE_CURVE('',#423,#420,#223,.T.);
#519=EDGE_CURVE('',#424,#424,#361,.T.);
#520=EDGE_CURVE('',#417,#425,#362,.T.);
#521=EDGE_CURVE('',#425,#412,#363,.T.);
#522=EDGE_CURVE('',#413,#426,#224,.T.);
#523=EDGE_CURVE('',#426,#427,#364,.T.);
#524=EDGE_CURVE('',#427,#428,#225,.T.);
#525=EDGE_CURVE('',#428,#429,#365,.T.);
#526=EDGE_CURVE('',#429,#430,#226,.T.);
#527=EDGE_CURVE('',#430,#431,#366,.T.);
#528=EDGE_CURVE('',#431,#432,#227,.T.);
#529=EDGE_CURVE('',#432,#433,#367,.T.);
#530=EDGE_CURVE('',#433,#416,#228,.T.);
#531=EDGE_CURVE('',#434,#434,#368,.T.);
#532=EDGE_CURVE('',#435,#435,#369,.T.);
#533=EDGE_CURVE('',#425,#380,#229,.T.);
#534=EDGE_CURVE('',#436,#437,#370,.T.);
#535=EDGE_CURVE('',#438,#436,#230,.T.);
#536=EDGE_CURVE('',#439,#438,#371,.T.);
#537=EDGE_CURVE('',#439,#437,#231,.T.);
#538=EDGE_CURVE('',#437,#440,#232,.T.);
#539=EDGE_CURVE('',#441,#439,#233,.T.);
#540=EDGE_CURVE('',#441,#440,#234,.T.);
#541=EDGE_CURVE('',#440,#442,#372,.T.);
#542=EDGE_CURVE('',#443,#441,#373,.T.);
#543=EDGE_CURVE('',#443,#442,#235,.T.);
#544=EDGE_CURVE('',#443,#444,#236,.T.);
#545=EDGE_CURVE('',#430,#444,#237,.T.);
#546=EDGE_CURVE('',#429,#445,#238,.T.);
#547=EDGE_CURVE('',#442,#445,#239,.T.);
#548=EDGE_CURVE('',#446,#438,#240,.T.);
#549=EDGE_CURVE('',#447,#446,#374,.T.);
#550=EDGE_CURVE('',#448,#447,#241,.T.);
#551=EDGE_CURVE('',#444,#448,#375,.T.);
#552=EDGE_CURVE('',#431,#448,#242,.T.);
#553=EDGE_CURVE('',#432,#447,#243,.T.);
#554=EDGE_CURVE('',#428,#449,#244,.T.);
#555=EDGE_CURVE('',#445,#449,#376,.T.);
#556=EDGE_CURVE('',#427,#450,#245,.T.);
#557=EDGE_CURVE('',#449,#450,#246,.T.);
#558=EDGE_CURVE('',#426,#451,#247,.T.);
#559=EDGE_CURVE('',#450,#451,#377,.T.);
#560=EDGE_CURVE('',#433,#446,#248,.T.);
#561=EDGE_CURVE('',#451,#436,#249,.T.);
#562=EDGE_CURVE('',#424,#389,#250,.T.);
#563=EDGE_CURVE('',#434,#386,#251,.T.);
#564=EDGE_CURVE('',#435,#383,#252,.T.);
#565=EDGE_CURVE('',#452,#453,#253,.T.);
#566=EDGE_CURVE('',#452,#420,#254,.T.);
#567=EDGE_CURVE('',#453,#423,#255,.T.);
#568=EDGE_CURVE('',#453,#454,#256,.T.);
#569=EDGE_CURVE('',#454,#422,#257,.T.);
#570=EDGE_CURVE('',#454,#455,#258,.T.);
#571=EDGE_CURVE('',#455,#421,#259,.T.);
#572=EDGE_CURVE('',#455,#452,#260,.T.);
#573=ORIENTED_EDGE('',*,*,#456,.F.);
#574=ORIENTED_EDGE('',*,*,#457,.T.);
#575=ORIENTED_EDGE('',*,*,#458,.T.);
#576=ORIENTED_EDGE('',*,*,#457,.F.);
#577=ORIENTED_EDGE('',*,*,#458,.F.);
#578=ORIENTED_EDGE('',*,*,#459,.F.);
#579=ORIENTED_EDGE('',*,*,#460,.F.);
#580=ORIENTED_EDGE('',*,*,#461,.T.);
#581=ORIENTED_EDGE('',*,*,#462,.T.);
#582=ORIENTED_EDGE('',*,*,#461,.F.);
#583=ORIENTED_EDGE('',*,*,#463,.F.);
#584=ORIENTED_EDGE('',*,*,#460,.T.);
#585=ORIENTED_EDGE('',*,*,#464,.F.);
#586=ORIENTED_EDGE('',*,*,#465,.T.);
#587=ORIENTED_EDGE('',*,*,#466,.T.);
#588=ORIENTED_EDGE('',*,*,#465,.F.);
#589=ORIENTED_EDGE('',*,*,#467,.F.);
#590=ORIENTED_EDGE('',*,*,#464,.T.);
#591=ORIENTED_EDGE('',*,*,#468,.F.);
#592=ORIENTED_EDGE('',*,*,#469,.T.);
#593=ORIENTED_EDGE('',*,*,#470,.T.);
#594=ORIENTED_EDGE('',*,*,#469,.F.);
#595=ORIENTED_EDGE('',*,*,#471,.F.);
#596=ORIENTED_EDGE('',*,*,#468,.T.);
#597=ORIENTED_EDGE('',*,*,#472,.F.);
#598=ORIENTED_EDGE('',*,*,#473,.T.);
#599=ORIENTED_EDGE('',*,*,#474,.F.);
#600=ORIENTED_EDGE('',*,*,#473,.F.);
#601=ORIENTED_EDGE('',*,*,#475,.F.);
#602=ORIENTED_EDGE('',*,*,#476,.T.);
#603=ORIENTED_EDGE('',*,*,#477,.F.);
#604=ORIENTED_EDGE('',*,*,#476,.F.);
#605=ORIENTED_EDGE('',*,*,#478,.F.);
#606=ORIENTED_EDGE('',*,*,#479,.T.);
#607=ORIENTED_EDGE('',*,*,#480,.F.);
#608=ORIENTED_EDGE('',*,*,#479,.F.);
#609=ORIENTED_EDGE('',*,*,#481,.F.);
#610=ORIENTED_EDGE('',*,*,#482,.T.);
#611=ORIENTED_EDGE('',*,*,#483,.F.);
#612=ORIENTED_EDGE('',*,*,#482,.F.);
#613=ORIENTED_EDGE('',*,*,#484,.F.);
#614=ORIENTED_EDGE('',*,*,#485,.T.);
#615=ORIENTED_EDGE('',*,*,#486,.T.);
#616=ORIENTED_EDGE('',*,*,#485,.F.);
#617=ORIENTED_EDGE('',*,*,#486,.F.);
#618=ORIENTED_EDGE('',*,*,#487,.F.);
#619=ORIENTED_EDGE('',*,*,#488,.T.);
#620=ORIENTED_EDGE('',*,*,#489,.T.);
#621=ORIENTED_EDGE('',*,*,#488,.F.);
#622=ORIENTED_EDGE('',*,*,#489,.F.);
#623=ORIENTED_EDGE('',*,*,#490,.F.);
#624=ORIENTED_EDGE('',*,*,#491,.T.);
#625=ORIENTED_EDGE('',*,*,#492,.F.);
#626=ORIENTED_EDGE('',*,*,#491,.F.);
#627=ORIENTED_EDGE('',*,*,#493,.F.);
#628=ORIENTED_EDGE('',*,*,#494,.T.);
#629=ORIENTED_EDGE('',*,*,#495,.T.);
#630=ORIENTED_EDGE('',*,*,#494,.F.);
#631=ORIENTED_EDGE('',*,*,#495,.F.);
#632=ORIENTED_EDGE('',*,*,#496,.F.);
#633=ORIENTED_EDGE('',*,*,#497,.F.);
#634=ORIENTED_EDGE('',*,*,#498,.T.);
#635=ORIENTED_EDGE('',*,*,#499,.T.);
#636=ORIENTED_EDGE('',*,*,#498,.F.);
#637=ORIENTED_EDGE('',*,*,#499,.F.);
#638=ORIENTED_EDGE('',*,*,#500,.F.);
#639=ORIENTED_EDGE('',*,*,#496,.T.);
#640=ORIENTED_EDGE('',*,*,#501,.T.);
#641=ORIENTED_EDGE('',*,*,#502,.F.);
#642=ORIENTED_EDGE('',*,*,#501,.F.);
#643=ORIENTED_EDGE('',*,*,#500,.T.);
#644=ORIENTED_EDGE('',*,*,#503,.T.);
#645=ORIENTED_EDGE('',*,*,#504,.F.);
#646=ORIENTED_EDGE('',*,*,#503,.F.);
#647=ORIENTED_EDGE('',*,*,#505,.F.);
#648=ORIENTED_EDGE('',*,*,#506,.F.);
#649=ORIENTED_EDGE('',*,*,#507,.T.);
#650=ORIENTED_EDGE('',*,*,#508,.F.);
#651=ORIENTED_EDGE('',*,*,#509,.F.);
#652=ORIENTED_EDGE('',*,*,#510,.F.);
#653=ORIENTED_EDGE('',*,*,#511,.T.);
#654=ORIENTED_EDGE('',*,*,#512,.F.);
#655=ORIENTED_EDGE('',*,*,#511,.F.);
#656=ORIENTED_EDGE('',*,*,#513,.F.);
#657=ORIENTED_EDGE('',*,*,#507,.F.);
#658=ORIENTED_EDGE('',*,*,#514,.F.);
#659=ORIENTED_EDGE('',*,*,#515,.T.);
#660=ORIENTED_EDGE('',*,*,#516,.T.);
#661=ORIENTED_EDGE('',*,*,#517,.T.);
#662=ORIENTED_EDGE('',*,*,#518,.T.);
#663=ORIENTED_EDGE('',*,*,#474,.T.);
#664=ORIENTED_EDGE('',*,*,#477,.T.);
#665=ORIENTED_EDGE('',*,*,#480,.T.);
#666=ORIENTED_EDGE('',*,*,#483,.T.);
#667=ORIENTED_EDGE('',*,*,#493,.T.);
#668=ORIENTED_EDGE('',*,*,#497,.T.);
#669=ORIENTED_EDGE('',*,*,#519,.T.);
#670=ORIENTED_EDGE('',*,*,#509,.T.);
#671=ORIENTED_EDGE('',*,*,#520,.T.);
#672=ORIENTED_EDGE('',*,*,#521,.T.);
#673=ORIENTED_EDGE('',*,*,#505,.T.);
#674=ORIENTED_EDGE('',*,*,#522,.T.);
#675=ORIENTED_EDGE('',*,*,#523,.T.);
#676=ORIENTED_EDGE('',*,*,#524,.T.);
#677=ORIENTED_EDGE('',*,*,#525,.T.);
#678=ORIENTED_EDGE('',*,*,#526,.T.);
#679=ORIENTED_EDGE('',*,*,#527,.T.);
#680=ORIENTED_EDGE('',*,*,#528,.T.);
#681=ORIENTED_EDGE('',*,*,#529,.T.);
#682=ORIENTED_EDGE('',*,*,#530,.T.);
#683=ORIENTED_EDGE('',*,*,#531,.T.);
#684=ORIENTED_EDGE('',*,*,#532,.T.);
#685=ORIENTED_EDGE('',*,*,#512,.T.);
#686=ORIENTED_EDGE('',*,*,#514,.T.);
#687=ORIENTED_EDGE('',*,*,#506,.T.);
#688=ORIENTED_EDGE('',*,*,#521,.F.);
#689=ORIENTED_EDGE('',*,*,#533,.T.);
#690=ORIENTED_EDGE('',*,*,#459,.T.);
#691=ORIENTED_EDGE('',*,*,#533,.F.);
#692=ORIENTED_EDGE('',*,*,#520,.F.);
#693=ORIENTED_EDGE('',*,*,#534,.F.);
#694=ORIENTED_EDGE('',*,*,#535,.F.);
#695=ORIENTED_EDGE('',*,*,#536,.F.);
#696=ORIENTED_EDGE('',*,*,#537,.T.);
#697=ORIENTED_EDGE('',*,*,#538,.F.);
#698=ORIENTED_EDGE('',*,*,#537,.F.);
#699=ORIENTED_EDGE('',*,*,#539,.F.);
#700=ORIENTED_EDGE('',*,*,#540,.T.);
#701=ORIENTED_EDGE('',*,*,#541,.F.);
#702=ORIENTED_EDGE('',*,*,#540,.F.);
#703=ORIENTED_EDGE('',*,*,#542,.F.);
#704=ORIENTED_EDGE('',*,*,#543,.T.);
#705=ORIENTED_EDGE('',*,*,#544,.T.);
#706=ORIENTED_EDGE('',*,*,#545,.F.);
#707=ORIENTED_EDGE('',*,*,#526,.F.);
#708=ORIENTED_EDGE('',*,*,#546,.T.);
#709=ORIENTED_EDGE('',*,*,#547,.F.);
#710=ORIENTED_EDGE('',*,*,#543,.F.);
#711=ORIENTED_EDGE('',*,*,#542,.T.);
#712=ORIENTED_EDGE('',*,*,#539,.T.);
#713=ORIENTED_EDGE('',*,*,#536,.T.);
#714=ORIENTED_EDGE('',*,*,#548,.F.);
#715=ORIENTED_EDGE('',*,*,#549,.F.);
#716=ORIENTED_EDGE('',*,*,#550,.F.);
#717=ORIENTED_EDGE('',*,*,#551,.F.);
#718=ORIENTED_EDGE('',*,*,#544,.F.);
#719=ORIENTED_EDGE('',*,*,#490,.T.);
#720=ORIENTED_EDGE('',*,*,#528,.F.);
#721=ORIENTED_EDGE('',*,*,#552,.T.);
#722=ORIENTED_EDGE('',*,*,#550,.T.);
#723=ORIENTED_EDGE('',*,*,#553,.F.);
#724=ORIENTED_EDGE('',*,*,#527,.F.);
#725=ORIENTED_EDGE('',*,*,#545,.T.);
#726=ORIENTED_EDGE('',*,*,#551,.T.);
#727=ORIENTED_EDGE('',*,*,#552,.F.);
#728=ORIENTED_EDGE('',*,*,#525,.F.);
#729=ORIENTED_EDGE('',*,*,#554,.T.);
#730=ORIENTED_EDGE('',*,*,#555,.F.);
#731=ORIENTED_EDGE('',*,*,#546,.F.);
#732=ORIENTED_EDGE('',*,*,#524,.F.);
#733=ORIENTED_EDGE('',*,*,#556,.T.);
#734=ORIENTED_EDGE('',*,*,#557,.F.);
#735=ORIENTED_EDGE('',*,*,#554,.F.);
#736=ORIENTED_EDGE('',*,*,#523,.F.);
#737=ORIENTED_EDGE('',*,*,#558,.T.);
#738=ORIENTED_EDGE('',*,*,#559,.F.);
#739=ORIENTED_EDGE('',*,*,#556,.F.);
#740=ORIENTED_EDGE('',*,*,#510,.T.);
#741=ORIENTED_EDGE('',*,*,#530,.F.);
#742=ORIENTED_EDGE('',*,*,#560,.T.);
#743=ORIENTED_EDGE('',*,*,#548,.T.);
#744=ORIENTED_EDGE('',*,*,#535,.T.);
#745=ORIENTED_EDGE('',*,*,#561,.F.);
#746=ORIENTED_EDGE('',*,*,#558,.F.);
#747=ORIENTED_EDGE('',*,*,#522,.F.);
#748=ORIENTED_EDGE('',*,*,#508,.T.);
#749=ORIENTED_EDGE('',*,*,#513,.T.);
#750=ORIENTED_EDGE('',*,*,#529,.F.);
#751=ORIENTED_EDGE('',*,*,#553,.T.);
#752=ORIENTED_EDGE('',*,*,#549,.T.);
#753=ORIENTED_EDGE('',*,*,#560,.F.);
#754=ORIENTED_EDGE('',*,*,#519,.F.);
#755=ORIENTED_EDGE('',*,*,#562,.T.);
#756=ORIENTED_EDGE('',*,*,#471,.T.);
#757=ORIENTED_EDGE('',*,*,#562,.F.);
#758=ORIENTED_EDGE('',*,*,#531,.F.);
#759=ORIENTED_EDGE('',*,*,#563,.T.);
#760=ORIENTED_EDGE('',*,*,#467,.T.);
#761=ORIENTED_EDGE('',*,*,#563,.F.);
#762=ORIENTED_EDGE('',*,*,#532,.F.);
#763=ORIENTED_EDGE('',*,*,#564,.T.);
#764=ORIENTED_EDGE('',*,*,#463,.T.);
#765=ORIENTED_EDGE('',*,*,#564,.F.);
#766=ORIENTED_EDGE('',*,*,#565,.F.);
#767=ORIENTED_EDGE('',*,*,#566,.T.);
#768=ORIENTED_EDGE('',*,*,#518,.F.);
#769=ORIENTED_EDGE('',*,*,#567,.F.);
#770=ORIENTED_EDGE('',*,*,#568,.F.);
#771=ORIENTED_EDGE('',*,*,#567,.T.);
#772=ORIENTED_EDGE('',*,*,#517,.F.);
#773=ORIENTED_EDGE('',*,*,#569,.F.);
#774=ORIENTED_EDGE('',*,*,#570,.F.);
#775=ORIENTED_EDGE('',*,*,#569,.T.);
#776=ORIENTED_EDGE('',*,*,#516,.F.);
#777=ORIENTED_EDGE('',*,*,#571,.F.);
#778=ORIENTED_EDGE('',*,*,#572,.F.);
#779=ORIENTED_EDGE('',*,*,#571,.T.);
#780=ORIENTED_EDGE('',*,*,#515,.F.);
#781=ORIENTED_EDGE('',*,*,#566,.F.);
#782=ORIENTED_EDGE('',*,*,#572,.T.);
#783=ORIENTED_EDGE('',*,*,#565,.T.);
#784=ORIENTED_EDGE('',*,*,#568,.T.);
#785=ORIENTED_EDGE('',*,*,#570,.T.);
#786=ORIENTED_EDGE('',*,*,#456,.T.);
#787=ORIENTED_EDGE('',*,*,#462,.F.);
#788=ORIENTED_EDGE('',*,*,#466,.F.);
#789=ORIENTED_EDGE('',*,*,#470,.F.);
#790=ORIENTED_EDGE('',*,*,#472,.T.);
#791=ORIENTED_EDGE('',*,*,#475,.T.);
#792=ORIENTED_EDGE('',*,*,#478,.T.);
#793=ORIENTED_EDGE('',*,*,#481,.T.);
#794=ORIENTED_EDGE('',*,*,#484,.T.);
#795=ORIENTED_EDGE('',*,*,#487,.T.);
#796=ORIENTED_EDGE('',*,*,#492,.T.);
#797=ORIENTED_EDGE('',*,*,#502,.T.);
#798=ORIENTED_EDGE('',*,*,#504,.T.);
#799=ORIENTED_EDGE('',*,*,#534,.T.);
#800=ORIENTED_EDGE('',*,*,#538,.T.);
#801=ORIENTED_EDGE('',*,*,#541,.T.);
#802=ORIENTED_EDGE('',*,*,#547,.T.);
#803=ORIENTED_EDGE('',*,*,#555,.T.);
#804=ORIENTED_EDGE('',*,*,#557,.T.);
#805=ORIENTED_EDGE('',*,*,#559,.T.);
#806=ORIENTED_EDGE('',*,*,#561,.T.);
#807=CYLINDRICAL_SURFACE('',#894,9.05);
#808=CYLINDRICAL_SURFACE('',#899,4.35);
#809=CYLINDRICAL_SURFACE('',#904,4.35);
#810=CYLINDRICAL_SURFACE('',#909,4.35);
#811=CYLINDRICAL_SURFACE('',#914,1.25);
#812=CYLINDRICAL_SURFACE('',#917,1.25);
#813=CYLINDRICAL_SURFACE('',#920,1.25);
#814=CYLINDRICAL_SURFACE('',#923,1.25);
#815=CYLINDRICAL_SURFACE('',#926,0.800000000000001);
#816=CYLINDRICAL_SURFACE('',#930,0.800000000000001);
#817=CYLINDRICAL_SURFACE('',#934,0.800000000000001);
#818=CYLINDRICAL_SURFACE('',#937,3.);
#819=CYLINDRICAL_SURFACE('',#942,3.);
#820=CYLINDRICAL_SURFACE('',#947,2.);
#821=CYLINDRICAL_SURFACE('',#949,2.);
#822=CYLINDRICAL_SURFACE('',#965,8.5);
#823=CYLINDRICAL_SURFACE('',#966,1.00000000000001);
#824=CYLINDRICAL_SURFACE('',#970,0.999999999999996);
#825=CYLINDRICAL_SURFACE('',#978,0.999999999999996);
#826=CYLINDRICAL_SURFACE('',#979,0.999999999999996);
#827=CYLINDRICAL_SURFACE('',#982,1.00000000000001);
#828=CYLINDRICAL_SURFACE('',#985,0.999999999999988);
#829=CYLINDRICAL_SURFACE('',#986,5.);
#830=CYLINDRICAL_SURFACE('',#987,5.);
#831=CYLINDRICAL_SURFACE('',#988,5.);
#832=ADVANCED_FACE('',(#69),#807,.F.);
#833=ADVANCED_FACE('',(#70,#15),#46,.F.);
#834=ADVANCED_FACE('',(#71),#808,.F.);
#835=ADVANCED_FACE('',(#72,#16),#47,.T.);
#836=ADVANCED_FACE('',(#73),#809,.F.);
#837=ADVANCED_FACE('',(#74,#17),#48,.T.);
#838=ADVANCED_FACE('',(#75),#810,.F.);
#839=ADVANCED_FACE('',(#76,#18),#49,.T.);
#840=ADVANCED_FACE('',(#77),#811,.F.);
#841=ADVANCED_FACE('',(#78),#812,.F.);
#842=ADVANCED_FACE('',(#79),#813,.F.);
#843=ADVANCED_FACE('',(#80),#814,.F.);
#844=ADVANCED_FACE('',(#81),#815,.F.);
#845=ADVANCED_FACE('',(#82),#50,.F.);
#846=ADVANCED_FACE('',(#83),#816,.F.);
#847=ADVANCED_FACE('',(#84),#51,.F.);
#848=ADVANCED_FACE('',(#85),#817,.F.);
#849=ADVANCED_FACE('',(#86),#818,.F.);
#850=ADVANCED_FACE('',(#87,#19),#52,.T.);
#851=ADVANCED_FACE('',(#88),#819,.F.);
#852=ADVANCED_FACE('',(#89,#20),#53,.T.);
#853=ADVANCED_FACE('',(#90),#820,.F.);
#854=ADVANCED_FACE('',(#91),#821,.F.);
#855=ADVANCED_FACE('',(#92),#54,.F.);
#856=ADVANCED_FACE('',(#93),#55,.F.);
#857=ADVANCED_FACE('',(#94),#56,.T.);
#858=ADVANCED_FACE('',(#95,#21,#22,#23,#24,#25,#26,#27,#28,#29,#30),#57,
 .T.);
#859=ADVANCED_FACE('',(#96),#822,.F.);
#860=ADVANCED_FACE('',(#97),#823,.F.);
#861=ADVANCED_FACE('',(#98),#58,.F.);
#862=ADVANCED_FACE('',(#99),#824,.F.);
#863=ADVANCED_FACE('',(#100),#59,.F.);
#864=ADVANCED_FACE('',(#101,#31),#60,.T.);
#865=ADVANCED_FACE('',(#102),#61,.F.);
#866=ADVANCED_FACE('',(#103),#825,.F.);
#867=ADVANCED_FACE('',(#104),#826,.F.);
#868=ADVANCED_FACE('',(#105),#62,.F.);
#869=ADVANCED_FACE('',(#106),#827,.F.);
#870=ADVANCED_FACE('',(#107),#63,.F.);
#871=ADVANCED_FACE('',(#108),#828,.F.);
#872=ADVANCED_FACE('',(#109),#829,.F.);
#873=ADVANCED_FACE('',(#110),#830,.F.);
#874=ADVANCED_FACE('',(#111),#831,.F.);
#875=ADVANCED_FACE('',(#112),#64,.T.);
#876=ADVANCED_FACE('',(#113),#65,.T.);
#877=ADVANCED_FACE('',(#114),#66,.T.);
#878=ADVANCED_FACE('',(#115),#67,.T.);
#879=ADVANCED_FACE('',(#116,#32,#33,#34,#35,#36,#37,#38,#39,#40,#41,#42,
#43,#44,#45),#68,.F.);
#880=CLOSED_SHELL('',(#832,#833,#834,#835,#836,#837,#838,#839,#840,#841,
#842,#843,#844,#845,#846,#847,#848,#849,#850,#851,#852,#853,#854,#855,#856,
#857,#858,#859,#860,#861,#862,#863,#864,#865,#866,#867,#868,#869,#870,#871,
#872,#873,#874,#875,#876,#877,#878,#879));
#881=DERIVED_UNIT_ELEMENT(#883,1.);
#882=DERIVED_UNIT_ELEMENT(#1510,-3.);
#883=(
MASS_UNIT()
NAMED_UNIT(*)
SI_UNIT(.KILO.,.GRAM.)
);
#884=DERIVED_UNIT((#881,#882));
#885=MEASURE_REPRESENTATION_ITEM('density measure',
POSITIVE_RATIO_MEASURE(7850.),#884);
#886=PROPERTY_DEFINITION_REPRESENTATION(#891,#888);
#887=PROPERTY_DEFINITION_REPRESENTATION(#892,#889);
#888=REPRESENTATION('material name',(#890),#1507);
#889=REPRESENTATION('density',(#885),#1507);
#890=DESCRIPTIVE_REPRESENTATION_ITEM('\X2\94A2\X0\','\X2\94A2\X0\');
#891=PROPERTY_DEFINITION('material property','material name',#1517);
#892=PROPERTY_DEFINITION('material property','density of part',#1517);
#893=AXIS2_PLACEMENT_3D('',#1261,#994,#995);
#894=AXIS2_PLACEMENT_3D('',#1262,#996,#997);
#895=AXIS2_PLACEMENT_3D('',#1264,#998,#999);
#896=AXIS2_PLACEMENT_3D('',#1267,#1001,#1002);
#897=AXIS2_PLACEMENT_3D('',#1268,#1003,#1004);
#898=AXIS2_PLACEMENT_3D('',#1270,#1005,#1006);
#899=AXIS2_PLACEMENT_3D('',#1271,#1007,#1008);
#900=AXIS2_PLACEMENT_3D('',#1273,#1009,#1010);
#901=AXIS2_PLACEMENT_3D('',#1276,#1012,#1013);
#902=AXIS2_PLACEMENT_3D('',#1277,#1014,#1015);
#903=AXIS2_PLACEMENT_3D('',#1279,#1016,#1017);
#904=AXIS2_PLACEMENT_3D('',#1280,#1018,#1019);
#905=AXIS2_PLACEMENT_3D('',#1282,#1020,#1021);
#906=AXIS2_PLACEMENT_3D('',#1285,#1023,#1024);
#907=AXIS2_PLACEMENT_3D('',#1286,#1025,#1026);
#908=AXIS2_PLACEMENT_3D('',#1288,#1027,#1028);
#909=AXIS2_PLACEMENT_3D('',#1289,#1029,#1030);
#910=AXIS2_PLACEMENT_3D('',#1291,#1031,#1032);
#911=AXIS2_PLACEMENT_3D('',#1294,#1034,#1035);
#912=AXIS2_PLACEMENT_3D('',#1295,#1036,#1037);
#913=AXIS2_PLACEMENT_3D('',#1297,#1038,#1039);
#914=AXIS2_PLACEMENT_3D('',#1298,#1040,#1041);
#915=AXIS2_PLACEMENT_3D('',#1300,#1042,#1043);
#916=AXIS2_PLACEMENT_3D('',#1303,#1045,#1046);
#917=AXIS2_PLACEMENT_3D('',#1304,#1047,#1048);
#918=AXIS2_PLACEMENT_3D('',#1306,#1049,#1050);
#919=AXIS2_PLACEMENT_3D('',#1309,#1052,#1053);
#920=AXIS2_PLACEMENT_3D('',#1310,#1054,#1055);
#921=AXIS2_PLACEMENT_3D('',#1312,#1056,#1057);
#922=AXIS2_PLACEMENT_3D('',#1315,#1059,#1060);
#923=AXIS2_PLACEMENT_3D('',#1316,#1061,#1062);
#924=AXIS2_PLACEMENT_3D('',#1318,#1063,#1064);
#925=AXIS2_PLACEMENT_3D('',#1321,#1066,#1067);
#926=AXIS2_PLACEMENT_3D('',#1322,#1068,#1069);
#927=AXIS2_PLACEMENT_3D('',#1324,#1070,#1071);
#928=AXIS2_PLACEMENT_3D('',#1327,#1073,#1074);
#929=AXIS2_PLACEMENT_3D('',#1328,#1075,#1076);
#930=AXIS2_PLACEMENT_3D('',#1329,#1077,#1078);
#931=AXIS2_PLACEMENT_3D('',#1331,#1079,#1080);
#932=AXIS2_PLACEMENT_3D('',#1334,#1082,#1083);
#933=AXIS2_PLACEMENT_3D('',#1335,#1084,#1085);
#934=AXIS2_PLACEMENT_3D('',#1336,#1086,#1087);
#935=AXIS2_PLACEMENT_3D('',#1338,#1088,#1089);
#936=AXIS2_PLACEMENT_3D('',#1341,#1091,#1092);
#937=AXIS2_PLACEMENT_3D('',#1342,#1093,#1094);
#938=AXIS2_PLACEMENT_3D('',#1344,#1095,#1096);
#939=AXIS2_PLACEMENT_3D('',#1347,#1098,#1099);
#940=AXIS2_PLACEMENT_3D('',#1348,#1100,#1101);
#941=AXIS2_PLACEMENT_3D('',#1350,#1102,#1103);
#942=AXIS2_PLACEMENT_3D('',#1351,#1104,#1105);
#943=AXIS2_PLACEMENT_3D('',#1353,#1106,#1107);
#944=AXIS2_PLACEMENT_3D('',#1356,#1109,#1110);
#945=AXIS2_PLACEMENT_3D('',#1357,#1111,#1112);
#946=AXIS2_PLACEMENT_3D('',#1359,#1113,#1114);
#947=AXIS2_PLACEMENT_3D('',#1360,#1115,#1116);
#948=AXIS2_PLACEMENT_3D('',#1363,#1118,#1119);
#949=AXIS2_PLACEMENT_3D('',#1364,#1120,#1121);
#950=AXIS2_PLACEMENT_3D('',#1367,#1123,#1124);
#951=AXIS2_PLACEMENT_3D('',#1368,#1125,#1126);
#952=AXIS2_PLACEMENT_3D('',#1377,#1131,#1132);
#953=AXIS2_PLACEMENT_3D('',#1386,#1137,#1138);
#954=AXIS2_PLACEMENT_3D('',#1388,#1140,#1141);
#955=AXIS2_PLACEMENT_3D('',#1389,#1142,#1143);
#956=AXIS2_PLACEMENT_3D('',#1399,#1148,#1149);
#957=AXIS2_PLACEMENT_3D('',#1401,#1150,#1151);
#958=AXIS2_PLACEMENT_3D('',#1402,#1152,#1153);
#959=AXIS2_PLACEMENT_3D('',#1406,#1155,#1156);
#960=AXIS2_PLACEMENT_3D('',#1410,#1158,#1159);
#961=AXIS2_PLACEMENT_3D('',#1414,#1161,#1162);
#962=AXIS2_PLACEMENT_3D('',#1418,#1164,#1165);
#963=AXIS2_PLACEMENT_3D('',#1421,#1167,#1168);
#964=AXIS2_PLACEMENT_3D('',#1423,#1169,#1170);
#965=AXIS2_PLACEMENT_3D('',#1424,#1171,#1172);
#966=AXIS2_PLACEMENT_3D('',#1426,#1174,#1175);
#967=AXIS2_PLACEMENT_3D('',#1429,#1176,#1177);
#968=AXIS2_PLACEMENT_3D('',#1433,#1179,#1180);
#969=AXIS2_PLACEMENT_3D('',#1435,#1182,#1183);
#970=AXIS2_PLACEMENT_3D('',#1441,#1187,#1188);
#971=AXIS2_PLACEMENT_3D('',#1443,#1189,#1190);
#972=AXIS2_PLACEMENT_3D('',#1445,#1191,#1192);
#973=AXIS2_PLACEMENT_3D('',#1447,#1194,#1195);
#974=AXIS2_PLACEMENT_3D('',#1454,#1200,#1201);
#975=AXIS2_PLACEMENT_3D('',#1458,#1203,#1204);
#976=AXIS2_PLACEMENT_3D('',#1461,#1206,#1207);
#977=AXIS2_PLACEMENT_3D('',#1462,#1208,#1209);
#978=AXIS2_PLACEMENT_3D('',#1465,#1212,#1213);
#979=AXIS2_PLACEMENT_3D('',#1466,#1214,#1215);
#980=AXIS2_PLACEMENT_3D('',#1469,#1217,#1218);
#981=AXIS2_PLACEMENT_3D('',#1470,#1219,#1220);
#982=AXIS2_PLACEMENT_3D('',#1474,#1223,#1224);
#983=AXIS2_PLACEMENT_3D('',#1477,#1226,#1227);
#984=AXIS2_PLACEMENT_3D('',#1478,#1228,#1229);
#985=AXIS2_PLACEMENT_3D('',#1481,#1232,#1233);
#986=AXIS2_PLACEMENT_3D('',#1482,#1234,#1235);
#987=AXIS2_PLACEMENT_3D('',#1484,#1237,#1238);
#988=AXIS2_PLACEMENT_3D('',#1486,#1240,#1241);
#989=AXIS2_PLACEMENT_3D('',#1488,#1243,#1244);
#990=AXIS2_PLACEMENT_3D('',#1494,#1248,#1249);
#991=AXIS2_PLACEMENT_3D('',#1498,#1252,#1253);
#992=AXIS2_PLACEMENT_3D('',#1502,#1256,#1257);
#993=AXIS2_PLACEMENT_3D('',#1504,#1259,#1260);
#994=DIRECTION('axis',(0.,0.,1.));
#995=DIRECTION('refdir',(1.,0.,0.));
#996=DIRECTION('center_axis',(0.,1.,0.));
#997=DIRECTION('ref_axis',(1.,0.,0.));
#998=DIRECTION('center_axis',(0.,1.,0.));
#999=DIRECTION('ref_axis',(1.,0.,0.));
#1000=DIRECTION('',(0.,1.,0.));
#1001=DIRECTION('center_axis',(0.,1.,0.));
#1002=DIRECTION('ref_axis',(1.,0.,0.));
#1003=DIRECTION('center_axis',(0.,1.,0.));
#1004=DIRECTION('ref_axis',(1.,0.,0.));
#1005=DIRECTION('center_axis',(0.,-1.,0.));
#1006=DIRECTION('ref_axis',(1.,0.,0.));
#1007=DIRECTION('center_axis',(0.,1.,0.));
#1008=DIRECTION('ref_axis',(1.,0.,0.));
#1009=DIRECTION('center_axis',(0.,-1.,0.));
#1010=DIRECTION('ref_axis',(1.,0.,0.));
#1011=DIRECTION('',(0.,-1.,0.));
#1012=DIRECTION('center_axis',(0.,-1.,0.));
#1013=DIRECTION('ref_axis',(1.,0.,0.));
#1014=DIRECTION('center_axis',(0.,1.,0.));
#1015=DIRECTION('ref_axis',(1.,0.,0.));
#1016=DIRECTION('center_axis',(0.,-1.,0.));
#1017=DIRECTION('ref_axis',(1.,0.,0.));
#1018=DIRECTION('center_axis',(0.,1.,0.));
#1019=DIRECTION('ref_axis',(1.,0.,0.));
#1020=DIRECTION('center_axis',(0.,-1.,0.));
#1021=DIRECTION('ref_axis',(1.,0.,0.));
#1022=DIRECTION('',(0.,-1.,0.));
#1023=DIRECTION('center_axis',(0.,-1.,0.));
#1024=DIRECTION('ref_axis',(1.,0.,0.));
#1025=DIRECTION('center_axis',(0.,1.,0.));
#1026=DIRECTION('ref_axis',(1.,0.,0.));
#1027=DIRECTION('center_axis',(0.,-1.,0.));
#1028=DIRECTION('ref_axis',(1.,0.,0.));
#1029=DIRECTION('center_axis',(0.,1.,0.));
#1030=DIRECTION('ref_axis',(1.,0.,0.));
#1031=DIRECTION('center_axis',(0.,-1.,0.));
#1032=DIRECTION('ref_axis',(1.,0.,0.));
#1033=DIRECTION('',(0.,-1.,0.));
#1034=DIRECTION('center_axis',(0.,-1.,0.));
#1035=DIRECTION('ref_axis',(1.,0.,0.));
#1036=DIRECTION('center_axis',(0.,1.,0.));
#1037=DIRECTION('ref_axis',(1.,0.,0.));
#1038=DIRECTION('center_axis',(0.,-1.,0.));
#1039=DIRECTION('ref_axis',(1.,0.,0.));
#1040=DIRECTION('center_axis',(0.,1.,0.));
#1041=DIRECTION('ref_axis',(1.,0.,0.));
#1042=DIRECTION('center_axis',(0.,1.,0.));
#1043=DIRECTION('ref_axis',(1.,0.,0.));
#1044=DIRECTION('',(0.,1.,0.));
#1045=DIRECTION('center_axis',(0.,-1.,0.));
#1046=DIRECTION('ref_axis',(1.,0.,0.));
#1047=DIRECTION('center_axis',(0.,1.,0.));
#1048=DIRECTION('ref_axis',(1.,0.,0.));
#1049=DIRECTION('center_axis',(0.,1.,0.));
#1050=DIRECTION('ref_axis',(1.,0.,0.));
#1051=DIRECTION('',(0.,1.,0.));
#1052=DIRECTION('center_axis',(0.,-1.,0.));
#1053=DIRECTION('ref_axis',(1.,0.,0.));
#1054=DIRECTION('center_axis',(0.,1.,0.));
#1055=DIRECTION('ref_axis',(1.,0.,0.));
#1056=DIRECTION('center_axis',(0.,1.,0.));
#1057=DIRECTION('ref_axis',(1.,0.,0.));
#1058=DIRECTION('',(0.,1.,0.));
#1059=DIRECTION('center_axis',(0.,-1.,0.));
#1060=DIRECTION('ref_axis',(1.,0.,0.));
#1061=DIRECTION('center_axis',(0.,1.,0.));
#1062=DIRECTION('ref_axis',(1.,0.,0.));
#1063=DIRECTION('center_axis',(0.,1.,0.));
#1064=DIRECTION('ref_axis',(1.,0.,0.));
#1065=DIRECTION('',(0.,1.,0.));
#1066=DIRECTION('center_axis',(0.,-1.,0.));
#1067=DIRECTION('ref_axis',(1.,0.,0.));
#1068=DIRECTION('center_axis',(0.,1.,0.));
#1069=DIRECTION('ref_axis',(1.,0.,0.));
#1070=DIRECTION('center_axis',(0.,1.,0.));
#1071=DIRECTION('ref_axis',(1.,0.,0.));
#1072=DIRECTION('',(0.,1.,0.));
#1073=DIRECTION('center_axis',(0.,1.,0.));
#1074=DIRECTION('ref_axis',(1.,0.,0.));
#1075=DIRECTION('center_axis',(0.,1.,0.));
#1076=DIRECTION('ref_axis',(1.,0.,0.));
#1077=DIRECTION('center_axis',(0.,1.,0.));
#1078=DIRECTION('ref_axis',(1.,0.,0.));
#1079=DIRECTION('center_axis',(0.,1.,0.));
#1080=DIRECTION('ref_axis',(1.,0.,0.));
#1081=DIRECTION('',(0.,1.,0.));
#1082=DIRECTION('center_axis',(0.,1.,0.));
#1083=DIRECTION('ref_axis',(1.,0.,0.));
#1084=DIRECTION('center_axis',(0.,1.,0.));
#1085=DIRECTION('ref_axis',(1.,0.,0.));
#1086=DIRECTION('center_axis',(0.,-1.,0.));
#1087=DIRECTION('ref_axis',(-1.,0.,0.));
#1088=DIRECTION('center_axis',(0.,-1.,0.));
#1089=DIRECTION('ref_axis',(-1.,0.,0.));
#1090=DIRECTION('',(0.,-1.,0.));
#1091=DIRECTION('center_axis',(0.,1.,0.));
#1092=DIRECTION('ref_axis',(-1.,0.,0.));
#1093=DIRECTION('center_axis',(0.,-1.,0.));
#1094=DIRECTION('ref_axis',(-1.,0.,0.));
#1095=DIRECTION('center_axis',(0.,-1.,0.));
#1096=DIRECTION('ref_axis',(-1.,0.,0.));
#1097=DIRECTION('',(0.,-1.,0.));
#1098=DIRECTION('center_axis',(0.,-1.,0.));
#1099=DIRECTION('ref_axis',(-1.,0.,0.));
#1100=DIRECTION('center_axis',(0.,1.,0.));
#1101=DIRECTION('ref_axis',(-1.,0.,0.));
#1102=DIRECTION('center_axis',(0.,1.,0.));
#1103=DIRECTION('ref_axis',(-1.,0.,0.));
#1104=DIRECTION('center_axis',(0.,-1.,0.));
#1105=DIRECTION('ref_axis',(-1.,0.,0.));
#1106=DIRECTION('center_axis',(0.,-1.,0.));
#1107=DIRECTION('ref_axis',(-1.,0.,0.));
#1108=DIRECTION('',(0.,-1.,0.));
#1109=DIRECTION('center_axis',(0.,-1.,0.));
#1110=DIRECTION('ref_axis',(-1.,0.,0.));
#1111=DIRECTION('center_axis',(0.,1.,0.));
#1112=DIRECTION('ref_axis',(-1.,0.,0.));
#1113=DIRECTION('center_axis',(0.,1.,0.));
#1114=DIRECTION('ref_axis',(-1.,0.,0.));
#1115=DIRECTION('center_axis',(0.,-1.,0.));
#1116=DIRECTION('ref_axis',(-1.,0.,0.));
#1117=DIRECTION('',(0.,-1.,0.));
#1118=DIRECTION('center_axis',(0.,1.,0.));
#1119=DIRECTION('ref_axis',(-1.,0.,0.));
#1120=DIRECTION('center_axis',(0.,-1.,0.));
#1121=DIRECTION('ref_axis',(-1.,0.,0.));
#1122=DIRECTION('',(0.,-1.,0.));
#1123=DIRECTION('center_axis',(0.,1.,0.));
#1124=DIRECTION('ref_axis',(-1.,0.,0.));
#1125=DIRECTION('center_axis',(0.,0.,-1.));
#1126=DIRECTION('ref_axis',(1.,0.,0.));
#1127=DIRECTION('',(1.,0.,0.));
#1128=DIRECTION('',(0.,1.,0.));
#1129=DIRECTION('',(1.,0.,0.));
#1130=DIRECTION('',(0.,-1.,0.));
#1131=DIRECTION('center_axis',(0.,0.,1.));
#1132=DIRECTION('ref_axis',(-1.,0.,0.));
#1133=DIRECTION('',(-1.,0.,0.));
#1134=DIRECTION('',(0.,1.,0.));
#1135=DIRECTION('',(-1.,0.,0.));
#1136=DIRECTION('',(0.,-1.,0.));
#1137=DIRECTION('center_axis',(0.,1.,0.));
#1138=DIRECTION('ref_axis',(-1.,0.,0.));
#1139=DIRECTION('',(0.,0.,1.));
#1140=DIRECTION('center_axis',(0.,1.,0.));
#1141=DIRECTION('ref_axis',(1.,0.,0.));
#1142=DIRECTION('center_axis',(0.,1.,0.));
#1143=DIRECTION('ref_axis',(1.,0.,0.));
#1144=DIRECTION('',(-1.,0.,0.));
#1145=DIRECTION('',(0.,0.,1.));
#1146=DIRECTION('',(1.,0.,-1.61486985400023E-16));
#1147=DIRECTION('',(0.,0.,-1.));
#1148=DIRECTION('center_axis',(0.,-1.,0.));
#1149=DIRECTION('ref_axis',(1.,0.,0.));
#1150=DIRECTION('center_axis',(0.,-1.,0.));
#1151=DIRECTION('ref_axis',(1.,0.,0.));
#1152=DIRECTION('center_axis',(0.,-1.,0.));
#1153=DIRECTION('ref_axis',(1.,0.,0.));
#1154=DIRECTION('',(0.,0.,-1.));
#1155=DIRECTION('center_axis',(0.,-1.,0.));
#1156=DIRECTION('ref_axis',(-8.8817841970012E-15,0.,-1.));
#1157=DIRECTION('',(1.,0.,0.));
#1158=DIRECTION('center_axis',(0.,-1.,0.));
#1159=DIRECTION('ref_axis',(1.,0.,2.22044604925032E-15));
#1160=DIRECTION('',(0.,0.,1.));
#1161=DIRECTION('center_axis',(0.,-1.,0.));
#1162=DIRECTION('ref_axis',(0.,0.,1.));
#1163=DIRECTION('',(-1.,0.,0.));
#1164=DIRECTION('center_axis',(0.,-1.,0.));
#1165=DIRECTION('ref_axis',(-1.,0.,-8.88178419700136E-15));
#1166=DIRECTION('',(0.,0.,-1.));
#1167=DIRECTION('center_axis',(0.,-1.,0.));
#1168=DIRECTION('ref_axis',(1.,0.,0.));
#1169=DIRECTION('center_axis',(0.,-1.,0.));
#1170=DIRECTION('ref_axis',(1.,0.,0.));
#1171=DIRECTION('center_axis',(0.,1.,0.));
#1172=DIRECTION('ref_axis',(1.,0.,0.));
#1173=DIRECTION('',(0.,-1.,0.));
#1174=DIRECTION('center_axis',(0.,-1.,0.));
#1175=DIRECTION('ref_axis',(-1.,0.,0.));
#1176=DIRECTION('center_axis',(0.,1.,0.));
#1177=DIRECTION('ref_axis',(-1.,0.,0.));
#1178=DIRECTION('',(0.,-1.,0.));
#1179=DIRECTION('center_axis',(0.,-1.,0.));
#1180=DIRECTION('ref_axis',(-1.,0.,0.));
#1181=DIRECTION('',(0.,-1.,0.));
#1182=DIRECTION('center_axis',(0.,0.,1.));
#1183=DIRECTION('ref_axis',(-1.,0.,0.));
#1184=DIRECTION('',(1.,0.,0.));
#1185=DIRECTION('',(-1.,0.,0.));
#1186=DIRECTION('',(0.,-1.,0.));
#1187=DIRECTION('center_axis',(0.,-1.,0.));
#1188=DIRECTION('ref_axis',(0.,0.,1.));
#1189=DIRECTION('center_axis',(0.,1.,0.));
#1190=DIRECTION('ref_axis',(0.,0.,1.));
#1191=DIRECTION('center_axis',(0.,-1.,0.));
#1192=DIRECTION('ref_axis',(0.,0.,1.));
#1193=DIRECTION('',(0.,-1.,0.));
#1194=DIRECTION('center_axis',(1.,0.,0.));
#1195=DIRECTION('ref_axis',(0.,0.,1.));
#1196=DIRECTION('',(0.,0.,1.));
#1197=DIRECTION('',(0.,-1.,0.));
#1198=DIRECTION('',(0.,-1.,0.));
#1199=DIRECTION('',(0.,0.,-1.));
#1200=DIRECTION('center_axis',(0.,1.,0.));
#1201=DIRECTION('ref_axis',(-1.,0.,0.));
#1202=DIRECTION('',(0.,0.,-1.));
#1203=DIRECTION('center_axis',(0.,-1.,0.));
#1204=DIRECTION('ref_axis',(-1.,0.,-8.88178419700136E-15));
#1205=DIRECTION('',(-1.,0.,0.));
#1206=DIRECTION('center_axis',(0.,-1.,0.));
#1207=DIRECTION('ref_axis',(0.,0.,1.));
#1208=DIRECTION('center_axis',(0.,0.,1.));
#1209=DIRECTION('ref_axis',(-1.,0.,0.));
#1210=DIRECTION('',(0.,-1.,0.));
#1211=DIRECTION('',(0.,-1.,0.));
#1212=DIRECTION('center_axis',(0.,-1.,0.));
#1213=DIRECTION('ref_axis',(0.,0.,1.));
#1214=DIRECTION('center_axis',(0.,-1.,0.));
#1215=DIRECTION('ref_axis',(1.,0.,2.22044604925032E-15));
#1216=DIRECTION('',(0.,-1.,0.));
#1217=DIRECTION('center_axis',(0.,1.,0.));
#1218=DIRECTION('ref_axis',(1.,0.,2.22044604925032E-15));
#1219=DIRECTION('center_axis',(0.,0.,-1.));
#1220=DIRECTION('ref_axis',(1.,0.,0.));
#1221=DIRECTION('',(0.,-1.,0.));
#1222=DIRECTION('',(-1.,0.,0.));
#1223=DIRECTION('center_axis',(0.,-1.,0.));
#1224=DIRECTION('ref_axis',(-8.8817841970012E-15,0.,-1.));
#1225=DIRECTION('',(0.,-1.,0.));
#1226=DIRECTION('center_axis',(0.,1.,0.));
#1227=DIRECTION('ref_axis',(-8.8817841970012E-15,0.,-1.));
#1228=DIRECTION('center_axis',(-1.,0.,0.));
#1229=DIRECTION('ref_axis',(0.,0.,-1.));
#1230=DIRECTION('',(0.,-1.,0.));
#1231=DIRECTION('',(2.29886919202636E-16,0.,1.));
#1232=DIRECTION('center_axis',(0.,-1.,0.));
#1233=DIRECTION('ref_axis',(-1.,0.,-8.88178419700136E-15));
#1234=DIRECTION('center_axis',(0.,1.,0.));
#1235=DIRECTION('ref_axis',(1.,0.,0.));
#1236=DIRECTION('',(0.,-1.,0.));
#1237=DIRECTION('center_axis',(0.,1.,0.));
#1238=DIRECTION('ref_axis',(1.,0.,0.));
#1239=DIRECTION('',(0.,-1.,0.));
#1240=DIRECTION('center_axis',(0.,1.,0.));
#1241=DIRECTION('ref_axis',(1.,0.,0.));
#1242=DIRECTION('',(0.,-1.,0.));
#1243=DIRECTION('center_axis',(1.,0.,0.));
#1244=DIRECTION('ref_axis',(0.,0.,-1.));
#1245=DIRECTION('',(0.,0.,1.));
#1246=DIRECTION('',(0.,1.,0.));
#1247=DIRECTION('',(0.,1.,0.));
#1248=DIRECTION('center_axis',(1.61486985400023E-16,0.,1.));
#1249=DIRECTION('ref_axis',(1.,0.,-1.61486985400023E-16));
#1250=DIRECTION('',(-1.,0.,1.61486985400023E-16));
#1251=DIRECTION('',(0.,1.,0.));
#1252=DIRECTION('center_axis',(-1.,0.,0.));
#1253=DIRECTION('ref_axis',(0.,0.,1.));
#1254=DIRECTION('',(0.,0.,-1.));
#1255=DIRECTION('',(0.,1.,0.));
#1256=DIRECTION('center_axis',(0.,0.,-1.));
#1257=DIRECTION('ref_axis',(-1.,0.,0.));
#1258=DIRECTION('',(1.,0.,0.));
#1259=DIRECTION('center_axis',(0.,1.,0.));
#1260=DIRECTION('ref_axis',(1.,0.,0.));
#1261=CARTESIAN_POINT('',(0.,0.,0.));
#1262=CARTESIAN_POINT('Origin',(25.3012192794247,0.,39.8546382004302));
#1263=CARTESIAN_POINT('',(16.2512192794247,0.,39.8546382004302));
#1264=CARTESIAN_POINT('Origin',(25.3012192794247,0.,39.8546382004302));
#1265=CARTESIAN_POINT('',(16.2512192794247,1.5,39.8546382004302));
#1266=CARTESIAN_POINT('',(16.2512192794247,0.,39.8546382004302));
#1267=CARTESIAN_POINT('Origin',(25.3012192794247,1.5,39.8546382004302));
#1268=CARTESIAN_POINT('Origin',(25.3012192794247,1.5,39.8546382004302));
#1269=CARTESIAN_POINT('',(16.8012192794247,1.5,39.8546382004302));
#1270=CARTESIAN_POINT('Origin',(25.3012192794247,1.5,39.8546382004302));
#1271=CARTESIAN_POINT('Origin',(55.3012192794247,0.,39.8546382004302));
#1272=CARTESIAN_POINT('',(50.9512192794247,7.2,39.8546382004302));
#1273=CARTESIAN_POINT('Origin',(55.3012192794247,7.2,39.8546382004302));
#1274=CARTESIAN_POINT('',(50.9512192794247,0.,39.8546382004302));
#1275=CARTESIAN_POINT('',(50.9512192794247,0.,39.8546382004302));
#1276=CARTESIAN_POINT('Origin',(55.3012192794247,0.,39.8546382004302));
#1277=CARTESIAN_POINT('Origin',(55.3012192794247,7.2,39.8546382004302));
#1278=CARTESIAN_POINT('',(50.3012192794247,7.2,39.8546382004302));
#1279=CARTESIAN_POINT('Origin',(55.3012192794247,7.2,39.8546382004302));
#1280=CARTESIAN_POINT('Origin',(24.3012192794247,0.,22.3546382004302));
#1281=CARTESIAN_POINT('',(19.9512192794247,7.2,22.3546382004302));
#1282=CARTESIAN_POINT('Origin',(24.3012192794247,7.2,22.3546382004302));
#1283=CARTESIAN_POINT('',(19.9512192794247,0.,22.3546382004302));
#1284=CARTESIAN_POINT('',(19.9512192794247,0.,22.3546382004302));
#1285=CARTESIAN_POINT('Origin',(24.3012192794247,0.,22.3546382004302));
#1286=CARTESIAN_POINT('Origin',(24.3012192794247,7.2,22.3546382004302));
#1287=CARTESIAN_POINT('',(19.3012192794247,7.2,22.3546382004302));
#1288=CARTESIAN_POINT('Origin',(24.3012192794247,7.2,22.3546382004302));
#1289=CARTESIAN_POINT('Origin',(24.3012192794247,0.,57.3546382004302));
#1290=CARTESIAN_POINT('',(19.9512192794247,7.2,57.3546382004302));
#1291=CARTESIAN_POINT('Origin',(24.3012192794247,7.2,57.3546382004302));
#1292=CARTESIAN_POINT('',(19.9512192794247,0.,57.3546382004302));
#1293=CARTESIAN_POINT('',(19.9512192794247,0.,57.3546382004302));
#1294=CARTESIAN_POINT('Origin',(24.3012192794247,0.,57.3546382004302));
#1295=CARTESIAN_POINT('Origin',(24.3012192794247,7.2,57.3546382004302));
#1296=CARTESIAN_POINT('',(19.3012192794247,7.2,57.3546382004302));
#1297=CARTESIAN_POINT('Origin',(24.3012192794247,7.2,57.3546382004302));
#1298=CARTESIAN_POINT('Origin',(60.8012192794247,0.,18.8546382004302));
#1299=CARTESIAN_POINT('',(59.5512192794247,0.,18.8546382004302));
#1300=CARTESIAN_POINT('Origin',(60.8012192794247,0.,18.8546382004302));
#1301=CARTESIAN_POINT('',(59.5512192794247,8.,18.8546382004302));
#1302=CARTESIAN_POINT('',(59.5512192794247,0.,18.8546382004302));
#1303=CARTESIAN_POINT('Origin',(60.8012192794247,8.,18.8546382004302));
#1304=CARTESIAN_POINT('Origin',(14.8012192794247,0.,60.8546382004302));
#1305=CARTESIAN_POINT('',(13.5512192794247,0.,60.8546382004302));
#1306=CARTESIAN_POINT('Origin',(14.8012192794247,0.,60.8546382004302));
#1307=CARTESIAN_POINT('',(13.5512192794247,8.,60.8546382004302));
#1308=CARTESIAN_POINT('',(13.5512192794247,0.,60.8546382004302));
#1309=CARTESIAN_POINT('Origin',(14.8012192794247,8.,60.8546382004302));
#1310=CARTESIAN_POINT('Origin',(14.8012192794247,0.,18.8546382004302));
#1311=CARTESIAN_POINT('',(13.5512192794247,0.,18.8546382004302));
#1312=CARTESIAN_POINT('Origin',(14.8012192794247,0.,18.8546382004302));
#1313=CARTESIAN_POINT('',(13.5512192794247,8.,18.8546382004302));
#1314=CARTESIAN_POINT('',(13.5512192794247,0.,18.8546382004302));
#1315=CARTESIAN_POINT('Origin',(14.8012192794247,8.,18.8546382004302));
#1316=CARTESIAN_POINT('Origin',(60.8012192794247,0.,60.8546382004302));
#1317=CARTESIAN_POINT('',(59.5512192794247,0.,60.8546382004302));
#1318=CARTESIAN_POINT('Origin',(60.8012192794247,0.,60.8546382004302));
#1319=CARTESIAN_POINT('',(59.5512192794247,8.,60.8546382004302));
#1320=CARTESIAN_POINT('',(59.5512192794247,0.,60.8546382004302));
#1321=CARTESIAN_POINT('Origin',(60.8012192794247,8.,60.8546382004302));
#1322=CARTESIAN_POINT('Origin',(34.3012192794247,0.,48.8546382004302));
#1323=CARTESIAN_POINT('',(33.5012192794247,0.,48.8546382004302));
#1324=CARTESIAN_POINT('Origin',(34.3012192794247,0.,48.8546382004302));
#1325=CARTESIAN_POINT('',(33.5012192794247,6.,48.8546382004302));
#1326=CARTESIAN_POINT('',(33.5012192794247,0.,48.8546382004302));
#1327=CARTESIAN_POINT('Origin',(34.3012192794247,6.,48.8546382004302));
#1328=CARTESIAN_POINT('Origin',(34.3012192794247,6.,48.8546382004302));
#1329=CARTESIAN_POINT('Origin',(16.3012192794247,0.,30.8546382004302));
#1330=CARTESIAN_POINT('',(15.5012192794247,0.,30.8546382004302));
#1331=CARTESIAN_POINT('Origin',(16.3012192794247,0.,30.8546382004302));
#1332=CARTESIAN_POINT('',(15.5012192794247,6.,30.8546382004302));
#1333=CARTESIAN_POINT('',(15.5012192794247,0.,30.8546382004302));
#1334=CARTESIAN_POINT('Origin',(16.3012192794247,6.,30.8546382004302));
#1335=CARTESIAN_POINT('Origin',(16.3012192794247,6.,30.8546382004302));
#1336=CARTESIAN_POINT('Origin',(38.8719837439669,8.,28.902971805944));
#1337=CARTESIAN_POINT('',(39.6719837439669,4.,28.902971805944));
#1338=CARTESIAN_POINT('Origin',(38.8719837439669,4.,28.902971805944));
#1339=CARTESIAN_POINT('',(39.6719837439669,0.,28.902971805944));
#1340=CARTESIAN_POINT('',(39.6719837439669,8.,28.902971805944));
#1341=CARTESIAN_POINT('Origin',(38.8719837439669,0.,28.902971805944));
#1342=CARTESIAN_POINT('Origin',(55.3012192794247,8.,54.8546382004302));
#1343=CARTESIAN_POINT('',(58.3012192794247,8.,54.8546382004302));
#1344=CARTESIAN_POINT('Origin',(55.3012192794247,8.,54.8546382004302));
#1345=CARTESIAN_POINT('',(58.3012192794247,5.,54.8546382004302));
#1346=CARTESIAN_POINT('',(58.3012192794247,8.,54.8546382004302));
#1347=CARTESIAN_POINT('Origin',(55.3012192794247,5.,54.8546382004302));
#1348=CARTESIAN_POINT('Origin',(55.3012192794247,5.,54.8546382004302));
#1349=CARTESIAN_POINT('',(57.3012192794247,5.,54.8546382004302));
#1350=CARTESIAN_POINT('Origin',(55.3012192794247,5.,54.8546382004302));
#1351=CARTESIAN_POINT('Origin',(55.3012192794247,8.,24.8546382004302));
#1352=CARTESIAN_POINT('',(58.3012192794247,8.,24.8546382004302));
#1353=CARTESIAN_POINT('Origin',(55.3012192794247,8.,24.8546382004302));
#1354=CARTESIAN_POINT('',(58.3012192794247,5.,24.8546382004302));
#1355=CARTESIAN_POINT('',(58.3012192794247,8.,24.8546382004302));
#1356=CARTESIAN_POINT('Origin',(55.3012192794247,5.,24.8546382004302));
#1357=CARTESIAN_POINT('Origin',(55.3012192794247,5.,24.8546382004302));
#1358=CARTESIAN_POINT('',(57.3012192794247,5.,24.8546382004302));
#1359=CARTESIAN_POINT('Origin',(55.3012192794247,5.,24.8546382004302));
#1360=CARTESIAN_POINT('Origin',(55.3012192794247,8.,54.8546382004302));
#1361=CARTESIAN_POINT('',(57.3012192794247,0.,54.8546382004302));
#1362=CARTESIAN_POINT('',(57.3012192794247,8.,54.8546382004302));
#1363=CARTESIAN_POINT('Origin',(55.3012192794247,0.,54.8546382004302));
#1364=CARTESIAN_POINT('Origin',(55.3012192794247,8.,24.8546382004302));
#1365=CARTESIAN_POINT('',(57.3012192794247,0.,24.8546382004302));
#1366=CARTESIAN_POINT('',(57.3012192794247,8.,24.8546382004302));
#1367=CARTESIAN_POINT('Origin',(55.3012192794247,0.,24.8546382004302));
#1368=CARTESIAN_POINT('Origin',(33.7630508494698,8.,39.0500224659411));
#1369=CARTESIAN_POINT('',(33.7630508494698,8.,39.0500224659411));
#1370=CARTESIAN_POINT('',(36.4756794513589,8.,39.0500224659411));
#1371=CARTESIAN_POINT('',(35.7821350644473,8.,39.0500224659411));
#1372=CARTESIAN_POINT('',(33.7630508494698,7.,39.0500224659411));
#1373=CARTESIAN_POINT('',(33.7630508494698,0.,39.0500224659411));
#1374=CARTESIAN_POINT('',(36.4756794513589,7.,39.0500224659411));
#1375=CARTESIAN_POINT('',(36.4756794513589,7.,39.0500224659411));
#1376=CARTESIAN_POINT('',(36.4756794513589,8.,39.0500224659411));
#1377=CARTESIAN_POINT('Origin',(36.4756794513589,8.,40.6592539349193));
#1378=CARTESIAN_POINT('',(36.4756794513589,8.,40.6592539349193));
#1379=CARTESIAN_POINT('',(33.7630508494698,8.,40.6592539349193));
#1380=CARTESIAN_POINT('',(37.1384493653918,8.,40.6592539349193));
#1381=CARTESIAN_POINT('',(36.4756794513589,7.,40.6592539349193));
#1382=CARTESIAN_POINT('',(36.4756794513589,8.,40.6592539349193));
#1383=CARTESIAN_POINT('',(33.7630508494698,7.,40.6592539349193));
#1384=CARTESIAN_POINT('',(36.4756794513589,7.,40.6592539349193));
#1385=CARTESIAN_POINT('',(33.7630508494698,0.,40.6592539349193));
#1386=CARTESIAN_POINT('Origin',(35.1193651504144,7.,39.8546382004302));
#1387=CARTESIAN_POINT('',(36.4756794513589,7.,40.8554687065141));
#1388=CARTESIAN_POINT('Origin',(25.3012192794247,7.,39.8546382004302));
#1389=CARTESIAN_POINT('Origin',(37.8012192794247,8.,39.8546382004302));
#1390=CARTESIAN_POINT('',(65.3012192794247,8.,14.8546382004302));
#1391=CARTESIAN_POINT('',(10.3012192794247,8.,14.8546382004302));
#1392=CARTESIAN_POINT('',(10.3012192794247,8.,14.8546382004302));
#1393=CARTESIAN_POINT('',(10.3012192794247,8.,64.8546382004302));
#1394=CARTESIAN_POINT('',(10.3012192794247,8.,64.8546382004302));
#1395=CARTESIAN_POINT('',(65.3012192794247,8.,64.8546382004302));
#1396=CARTESIAN_POINT('',(65.3012192794247,8.,64.8546382004302));
#1397=CARTESIAN_POINT('',(65.3012192794247,8.,14.8546382004302));
#1398=CARTESIAN_POINT('',(19.3012192794247,8.,57.3546382004302));
#1399=CARTESIAN_POINT('Origin',(24.3012192794247,8.,57.3546382004302));
#1400=CARTESIAN_POINT('',(16.8012192794247,8.,39.8546382004302));
#1401=CARTESIAN_POINT('Origin',(25.3012192794247,8.,39.8546382004302));
#1402=CARTESIAN_POINT('Origin',(25.3012192794247,8.,39.8546382004302));
#1403=CARTESIAN_POINT('',(36.4756794513589,8.,18.6316586233169));
#1404=CARTESIAN_POINT('',(36.4756794513589,8.,40.8554687065141));
#1405=CARTESIAN_POINT('',(37.4756794513589,8.,17.6316586233169));
#1406=CARTESIAN_POINT('Origin',(37.4756794513589,8.,18.6316586233169));
#1407=CARTESIAN_POINT('',(46.9503022606049,8.,17.6316586233169));
#1408=CARTESIAN_POINT('',(37.6384493653918,8.,17.6316586233169));
#1409=CARTESIAN_POINT('',(47.9503022606049,8.,18.6316586233169));
#1410=CARTESIAN_POINT('Origin',(46.9503022606049,8.,18.6316586233169));
#1411=CARTESIAN_POINT('',(47.9503022606049,8.,41.856299212598));
#1412=CARTESIAN_POINT('',(47.9503022606049,8.,29.2431484118736));
#1413=CARTESIAN_POINT('',(46.9503022606049,8.,42.856299212598));
#1414=CARTESIAN_POINT('Origin',(46.9503022606049,8.,41.856299212598));
#1415=CARTESIAN_POINT('',(37.4756794513589,8.,42.856299212598));
#1416=CARTESIAN_POINT('',(42.3757607700148,8.,42.856299212598));
#1417=CARTESIAN_POINT('',(36.4756794513589,8.,41.856299212598));
#1418=CARTESIAN_POINT('Origin',(37.4756794513589,8.,41.856299212598));
#1419=CARTESIAN_POINT('',(36.4756794513589,8.,40.8554687065141));
#1420=CARTESIAN_POINT('',(19.3012192794247,8.,22.3546382004302));
#1421=CARTESIAN_POINT('Origin',(24.3012192794247,8.,22.3546382004302));
#1422=CARTESIAN_POINT('',(50.3012192794247,8.,39.8546382004302));
#1423=CARTESIAN_POINT('Origin',(55.3012192794247,8.,39.8546382004302));
#1424=CARTESIAN_POINT('Origin',(25.3012192794247,0.,39.8546382004302));
#1425=CARTESIAN_POINT('',(16.8012192794247,0.,39.8546382004302));
#1426=CARTESIAN_POINT('Origin',(37.4756794513589,8.,21.5316586233169));
#1427=CARTESIAN_POINT('',(36.4756794513589,0.,21.5316586233169));
#1428=CARTESIAN_POINT('',(37.4756794513589,0.,22.5316586233169));
#1429=CARTESIAN_POINT('Origin',(37.4756794513589,0.,21.5316586233169));
#1430=CARTESIAN_POINT('',(36.4756794513589,4.,21.5316586233169));
#1431=CARTESIAN_POINT('',(36.4756794513589,8.,21.5316586233169));
#1432=CARTESIAN_POINT('',(37.4756794513589,4.,22.5316586233169));
#1433=CARTESIAN_POINT('Origin',(37.4756794513589,4.,21.5316586233169));
#1434=CARTESIAN_POINT('',(37.4756794513589,8.,22.5316586233169));
#1435=CARTESIAN_POINT('Origin',(46.9503022606049,8.,22.5316586233169));
#1436=CARTESIAN_POINT('',(46.9503022606049,0.,22.5316586233169));
#1437=CARTESIAN_POINT('',(42.3757607700148,0.,22.5316586233169));
#1438=CARTESIAN_POINT('',(46.9503022606049,4.,22.5316586233169));
#1439=CARTESIAN_POINT('',(44.5816465582934,4.,22.5316586233169));
#1440=CARTESIAN_POINT('',(46.9503022606049,8.,22.5316586233169));
#1441=CARTESIAN_POINT('Origin',(46.9503022606049,8.,21.5316586233169));
#1442=CARTESIAN_POINT('',(47.9503022606049,0.,21.5316586233169));
#1443=CARTESIAN_POINT('Origin',(46.9503022606049,0.,21.5316586233169));
#1444=CARTESIAN_POINT('',(47.9503022606049,4.,21.5316586233169));
#1445=CARTESIAN_POINT('Origin',(46.9503022606049,4.,21.5316586233169));
#1446=CARTESIAN_POINT('',(47.9503022606049,8.,21.5316586233169));
#1447=CARTESIAN_POINT('Origin',(47.9503022606049,8.,18.6316586233169));
#1448=CARTESIAN_POINT('',(47.9503022606049,4.,41.856299212598));
#1449=CARTESIAN_POINT('',(47.9503022606049,4.,41.856299212598));
#1450=CARTESIAN_POINT('',(47.9503022606049,8.,41.856299212598));
#1451=CARTESIAN_POINT('',(47.9503022606049,0.,18.6316586233169));
#1452=CARTESIAN_POINT('',(47.9503022606049,8.,18.6316586233169));
#1453=CARTESIAN_POINT('',(47.9503022606049,0.,29.2431484118736));
#1454=CARTESIAN_POINT('Origin',(42.2129908559819,4.,30.2439789179574));
#1455=CARTESIAN_POINT('',(36.4756794513589,4.,41.856299212598));
#1456=CARTESIAN_POINT('',(36.4756794513589,4.,21.5316586233169));
#1457=CARTESIAN_POINT('',(37.4756794513589,4.,42.856299212598));
#1458=CARTESIAN_POINT('Origin',(37.4756794513589,4.,41.856299212598));
#1459=CARTESIAN_POINT('',(46.9503022606049,4.,42.856299212598));
#1460=CARTESIAN_POINT('',(46.9503022606049,4.,42.856299212598));
#1461=CARTESIAN_POINT('Origin',(46.9503022606049,4.,41.856299212598));
#1462=CARTESIAN_POINT('Origin',(46.9503022606049,8.,42.856299212598));
#1463=CARTESIAN_POINT('',(46.9503022606049,8.,42.856299212598));
#1464=CARTESIAN_POINT('',(37.4756794513589,8.,42.856299212598));
#1465=CARTESIAN_POINT('Origin',(46.9503022606049,8.,41.856299212598));
#1466=CARTESIAN_POINT('Origin',(46.9503022606049,8.,18.6316586233169));
#1467=CARTESIAN_POINT('',(46.9503022606049,0.,17.6316586233169));
#1468=CARTESIAN_POINT('',(46.9503022606049,8.,17.6316586233169));
#1469=CARTESIAN_POINT('Origin',(46.9503022606049,0.,18.6316586233169));
#1470=CARTESIAN_POINT('Origin',(37.4756794513589,8.,17.6316586233169));
#1471=CARTESIAN_POINT('',(37.4756794513589,0.,17.6316586233169));
#1472=CARTESIAN_POINT('',(37.4756794513589,8.,17.6316586233169));
#1473=CARTESIAN_POINT('',(37.6384493653918,0.,17.6316586233169));
#1474=CARTESIAN_POINT('Origin',(37.4756794513589,8.,18.6316586233169));
#1475=CARTESIAN_POINT('',(36.4756794513589,0.,18.6316586233169));
#1476=CARTESIAN_POINT('',(36.4756794513589,8.,18.6316586233169));
#1477=CARTESIAN_POINT('Origin',(37.4756794513589,0.,18.6316586233169));
#1478=CARTESIAN_POINT('Origin',(36.4756794513589,8.,41.856299212598));
#1479=CARTESIAN_POINT('',(36.4756794513589,8.,41.856299212598));
#1480=CARTESIAN_POINT('',(36.4756794513589,0.,30.6931484118736));
#1481=CARTESIAN_POINT('Origin',(37.4756794513589,8.,41.856299212598));
#1482=CARTESIAN_POINT('Origin',(24.3012192794247,0.,57.3546382004302));
#1483=CARTESIAN_POINT('',(19.3012192794247,0.,57.3546382004302));
#1484=CARTESIAN_POINT('Origin',(24.3012192794247,0.,22.3546382004302));
#1485=CARTESIAN_POINT('',(19.3012192794247,0.,22.3546382004302));
#1486=CARTESIAN_POINT('Origin',(55.3012192794247,0.,39.8546382004302));
#1487=CARTESIAN_POINT('',(50.3012192794247,0.,39.8546382004302));
#1488=CARTESIAN_POINT('Origin',(65.3012192794247,0.,64.8546382004302));
#1489=CARTESIAN_POINT('',(65.3012192794247,0.,14.8546382004302));
#1490=CARTESIAN_POINT('',(65.3012192794247,0.,64.8546382004302));
#1491=CARTESIAN_POINT('',(65.3012192794247,0.,14.8546382004302));
#1492=CARTESIAN_POINT('',(65.3012192794247,0.,14.8546382004302));
#1493=CARTESIAN_POINT('',(65.3012192794247,0.,64.8546382004302));
#1494=CARTESIAN_POINT('Origin',(10.3012192794247,0.,64.8546382004302));
#1495=CARTESIAN_POINT('',(10.3012192794247,0.,64.8546382004302));
#1496=CARTESIAN_POINT('',(65.3012192794247,0.,64.8546382004302));
#1497=CARTESIAN_POINT('',(10.3012192794247,0.,64.8546382004302));
#1498=CARTESIAN_POINT('Origin',(10.3012192794247,0.,14.8546382004302));
#1499=CARTESIAN_POINT('',(10.3012192794247,0.,14.8546382004302));
#1500=CARTESIAN_POINT('',(10.3012192794247,0.,64.8546382004302));
#1501=CARTESIAN_POINT('',(10.3012192794247,0.,14.8546382004302));
#1502=CARTESIAN_POINT('Origin',(65.3012192794247,0.,14.8546382004302));
#1503=CARTESIAN_POINT('',(10.3012192794247,0.,14.8546382004302));
#1504=CARTESIAN_POINT('Origin',(37.8012192794247,0.,39.8546382004302));
#1505=UNCERTAINTY_MEASURE_WITH_UNIT(LENGTH_MEASURE(0.01),#1509,
'DISTANCE_ACCURACY_VALUE',
'Maximum model space distance between geometric entities at asserted c
onnectivities');
#1506=UNCERTAINTY_MEASURE_WITH_UNIT(LENGTH_MEASURE(0.01),#1509,
'DISTANCE_ACCURACY_VALUE',
'Maximum model space distance between geometric entities at asserted c
onnectivities');
#1507=(
GEOMETRIC_REPRESENTATION_CONTEXT(3)
GLOBAL_UNCERTAINTY_ASSIGNED_CONTEXT((#1505))
GLOBAL_UNIT_ASSIGNED_CONTEXT((#1509,#1511,#1512))
REPRESENTATION_CONTEXT('','3D')
);
#1508=(
GEOMETRIC_REPRESENTATION_CONTEXT(3)
GLOBAL_UNCERTAINTY_ASSIGNED_CONTEXT((#1506))
GLOBAL_UNIT_ASSIGNED_CONTEXT((#1509,#1511,#1512))
REPRESENTATION_CONTEXT('','3D')
);
#1509=(
LENGTH_UNIT()
NAMED_UNIT(*)
SI_UNIT(.MILLI.,.METRE.)
);
#1510=(
LENGTH_UNIT()
NAMED_UNIT(*)
SI_UNIT($,.METRE.)
);
#1511=(
NAMED_UNIT(*)
PLANE_ANGLE_UNIT()
SI_UNIT($,.RADIAN.)
);
#1512=(
NAMED_UNIT(*)
SI_UNIT($,.STERADIAN.)
SOLID_ANGLE_UNIT()
);
#1513=SHAPE_DEFINITION_REPRESENTATION(#1514,#1515);
#1514=PRODUCT_DEFINITION_SHAPE('',$,#1517);
#1515=SHAPE_REPRESENTATION('',(#893),#1507);
#1516=PRODUCT_DEFINITION_CONTEXT('part definition',#1521,'design');
#1517=PRODUCT_DEFINITION('Fusion \X2\96F690E84EF6\X0\',
'Fusion \X2\96F690E84EF6\X0\',#1518,#1516);
#1518=PRODUCT_DEFINITION_FORMATION('',$,#1523);
#1519=PRODUCT_RELATED_PRODUCT_CATEGORY('Fusion \X2\96F690E84EF6\X0\',
'Fusion \X2\96F690E84EF6\X0\',(#1523));
#1520=APPLICATION_PROTOCOL_DEFINITION('international standard',
'automotive_design',2009,#1521);
#1521=APPLICATION_CONTEXT(
'Core Data for Automotive Mechanical Design Process');
#1522=PRODUCT_CONTEXT('part definition',#1521,'mechanical');
#1523=PRODUCT('Fusion \X2\96F690E84EF6\X0\','Fusion \X2\96F690E84EF6\X0\',
$,(#1522));
#1524=PRESENTATION_STYLE_ASSIGNMENT((#1525));
#1525=SURFACE_STYLE_USAGE(.BOTH.,#1526);
#1526=SURFACE_SIDE_STYLE('',(#1527));
#1527=SURFACE_STYLE_FILL_AREA(#1528);
#1528=FILL_AREA_STYLE('\X2\94A2\X0\ - \X2\7F0E5149\X0\',(#1529));
#1529=FILL_AREA_STYLE_COLOUR('\X2\94A2\X0\ - \X2\7F0E5149\X0\',#1530);
#1530=COLOUR_RGB('\X2\94A2\X0\ - \X2\7F0E5149\X0\',0.627450980392157,0.627450980392157,
0.627450980392157);
ENDSEC;
END-ISO-10303-21;
