ISO-10303-21;
HEADER;
/* Generated by software containing ST-Developer
 * from STEP Tools, Inc. (www.steptools.com) 
 */

FILE_DESCRIPTION(
/* description */ (''),
/* implementation_level */ '2;1');

FILE_NAME(
/* name */ '',
/* time_stamp */ '2025-10-06T21:37:09+08:00',
/* author */ (''),
/* organization */ (''),
/* preprocessor_version */ 'ST-DEVELOPER v20.1',
/* originating_system */ 'Autodesk Translation Framework v14.17.0.0',
/* authorisation */ '');

FILE_SCHEMA (('AUTOMOTIVE_DESIGN { 1 0 10303 214 3 1 1 }'));
ENDSEC;

DATA;
#10=MECHANICAL_DESIGN_GEOMETRIC_PRESENTATION_REPRESENTATION('',(#13),#1021);
#11=SHAPE_REPRESENTATION_RELATIONSHIP('SRR','None',#1028,#12);
#12=ADVANCED_BREP_SHAPE_REPRESENTATION('',(#14),#1020);
#13=STYLED_ITEM('',(#1038),#14);
#14=MANIFOLD_SOLID_BREP('\X2\5B9E4F53\X0\1',#617);
#15=FACE_BOUND('',#109,.T.);
#16=FACE_BOUND('',#110,.T.);
#17=FACE_BOUND('',#123,.T.);
#18=FACE_BOUND('',#124,.T.);
#19=FACE_BOUND('',#126,.T.);
#20=FACE_BOUND('',#127,.T.);
#21=FACE_BOUND('',#128,.T.);
#22=FACE_BOUND('',#129,.T.);
#23=FACE_BOUND('',#140,.T.);
#24=FACE_BOUND('',#141,.T.);
#25=PLANE('',#634);
#26=PLANE('',#638);
#27=PLANE('',#642);
#28=PLANE('',#646);
#29=PLANE('',#650);
#30=PLANE('',#654);
#31=PLANE('',#655);
#32=PLANE('',#656);
#33=PLANE('',#657);
#34=PLANE('',#658);
#35=PLANE('',#659);
#36=PLANE('',#660);
#37=PLANE('',#661);
#38=PLANE('',#662);
#39=PLANE('',#663);
#40=PLANE('',#664);
#41=PLANE('',#665);
#42=PLANE('',#666);
#43=PLANE('',#667);
#44=PLANE('',#668);
#45=PLANE('',#669);
#46=PLANE('',#670);
#47=PLANE('',#671);
#48=PLANE('',#672);
#49=PLANE('',#673);
#50=PLANE('',#674);
#51=PLANE('',#675);
#52=PLANE('',#676);
#53=PLANE('',#677);
#54=PLANE('',#678);
#55=PLANE('',#679);
#56=PLANE('',#680);
#57=FACE_OUTER_BOUND('',#95,.T.);
#58=FACE_OUTER_BOUND('',#96,.T.);
#59=FACE_OUTER_BOUND('',#97,.T.);
#60=FACE_OUTER_BOUND('',#98,.T.);
#61=FACE_OUTER_BOUND('',#99,.T.);
#62=FACE_OUTER_BOUND('',#100,.T.);
#63=FACE_OUTER_BOUND('',#101,.T.);
#64=FACE_OUTER_BOUND('',#102,.T.);
#65=FACE_OUTER_BOUND('',#103,.T.);
#66=FACE_OUTER_BOUND('',#104,.T.);
#67=FACE_OUTER_BOUND('',#105,.T.);
#68=FACE_OUTER_BOUND('',#106,.T.);
#69=FACE_OUTER_BOUND('',#107,.T.);
#70=FACE_OUTER_BOUND('',#108,.T.);
#71=FACE_OUTER_BOUND('',#111,.T.);
#72=FACE_OUTER_BOUND('',#112,.T.);
#73=FACE_OUTER_BOUND('',#113,.T.);
#74=FACE_OUTER_BOUND('',#114,.T.);
#75=FACE_OUTER_BOUND('',#115,.T.);
#76=FACE_OUTER_BOUND('',#116,.T.);
#77=FACE_OUTER_BOUND('',#117,.T.);
#78=FACE_OUTER_BOUND('',#118,.T.);
#79=FACE_OUTER_BOUND('',#119,.T.);
#80=FACE_OUTER_BOUND('',#120,.T.);
#81=FACE_OUTER_BOUND('',#121,.T.);
#82=FACE_OUTER_BOUND('',#122,.T.);
#83=FACE_OUTER_BOUND('',#125,.T.);
#84=FACE_OUTER_BOUND('',#130,.T.);
#85=FACE_OUTER_BOUND('',#131,.T.);
#86=FACE_OUTER_BOUND('',#132,.T.);
#87=FACE_OUTER_BOUND('',#133,.T.);
#88=FACE_OUTER_BOUND('',#134,.T.);
#89=FACE_OUTER_BOUND('',#135,.T.);
#90=FACE_OUTER_BOUND('',#136,.T.);
#91=FACE_OUTER_BOUND('',#137,.T.);
#92=FACE_OUTER_BOUND('',#138,.T.);
#93=FACE_OUTER_BOUND('',#139,.T.);
#94=FACE_OUTER_BOUND('',#142,.T.);
#95=EDGE_LOOP('',(#417,#418,#419,#420));
#96=EDGE_LOOP('',(#421));
#97=EDGE_LOOP('',(#422,#423,#424,#425));
#98=EDGE_LOOP('',(#426));
#99=EDGE_LOOP('',(#427,#428,#429,#430));
#100=EDGE_LOOP('',(#431));
#101=EDGE_LOOP('',(#432,#433,#434,#435));
#102=EDGE_LOOP('',(#436));
#103=EDGE_LOOP('',(#437,#438,#439,#440));
#104=EDGE_LOOP('',(#441));
#105=EDGE_LOOP('',(#442,#443,#444,#445));
#106=EDGE_LOOP('',(#446));
#107=EDGE_LOOP('',(#447,#448,#449));
#108=EDGE_LOOP('',(#450,#451,#452,#453));
#109=EDGE_LOOP('',(#454));
#110=EDGE_LOOP('',(#455));
#111=EDGE_LOOP('',(#456,#457,#458,#459,#460));
#112=EDGE_LOOP('',(#461,#462,#463));
#113=EDGE_LOOP('',(#464,#465,#466,#467,#468));
#114=EDGE_LOOP('',(#469,#470,#471));
#115=EDGE_LOOP('',(#472,#473,#474,#475,#476));
#116=EDGE_LOOP('',(#477,#478,#479,#480));
#117=EDGE_LOOP('',(#481,#482,#483,#484));
#118=EDGE_LOOP('',(#485,#486,#487,#488));
#119=EDGE_LOOP('',(#489,#490,#491,#492,#493));
#120=EDGE_LOOP('',(#494,#495,#496));
#121=EDGE_LOOP('',(#497,#498,#499,#500));
#122=EDGE_LOOP('',(#501,#502,#503,#504));
#123=EDGE_LOOP('',(#505));
#124=EDGE_LOOP('',(#506));
#125=EDGE_LOOP('',(#507,#508,#509,#510));
#126=EDGE_LOOP('',(#511,#512,#513,#514));
#127=EDGE_LOOP('',(#515,#516,#517,#518));
#128=EDGE_LOOP('',(#519,#520,#521,#522));
#129=EDGE_LOOP('',(#523,#524,#525,#526));
#130=EDGE_LOOP('',(#527,#528,#529,#530));
#131=EDGE_LOOP('',(#531,#532,#533,#534));
#132=EDGE_LOOP('',(#535,#536,#537,#538));
#133=EDGE_LOOP('',(#539,#540,#541,#542));
#134=EDGE_LOOP('',(#543,#544,#545,#546));
#135=EDGE_LOOP('',(#547,#548,#549,#550));
#136=EDGE_LOOP('',(#551,#552,#553,#554));
#137=EDGE_LOOP('',(#555,#556,#557,#558));
#138=EDGE_LOOP('',(#559,#560,#561,#562));
#139=EDGE_LOOP('',(#563,#564,#565,#566));
#140=EDGE_LOOP('',(#567));
#141=EDGE_LOOP('',(#568));
#142=EDGE_LOOP('',(#569,#570,#571,#572));
#143=LINE('',#854,#209);
#144=LINE('',#861,#210);
#145=LINE('',#868,#211);
#146=LINE('',#875,#212);
#147=LINE('',#882,#213);
#148=LINE('',#889,#214);
#149=LINE('',#895,#215);
#150=LINE('',#897,#216);
#151=LINE('',#898,#217);
#152=LINE('',#902,#218);
#153=LINE('',#904,#219);
#154=LINE('',#906,#220);
#155=LINE('',#907,#221);
#156=LINE('',#910,#222);
#157=LINE('',#912,#223);
#158=LINE('',#914,#224);
#159=LINE('',#915,#225);
#160=LINE('',#919,#226);
#161=LINE('',#921,#227);
#162=LINE('',#922,#228);
#163=LINE('',#925,#229);
#164=LINE('',#927,#230);
#165=LINE('',#929,#231);
#166=LINE('',#930,#232);
#167=LINE('',#933,#233);
#168=LINE('',#934,#234);
#169=LINE('',#937,#235);
#170=LINE('',#938,#236);
#171=LINE('',#940,#237);
#172=LINE('',#943,#238);
#173=LINE('',#945,#239);
#174=LINE('',#946,#240);
#175=LINE('',#949,#241);
#176=LINE('',#950,#242);
#177=LINE('',#953,#243);
#178=LINE('',#954,#244);
#179=LINE('',#956,#245);
#180=LINE('',#959,#246);
#181=LINE('',#961,#247);
#182=LINE('',#962,#248);
#183=LINE('',#966,#249);
#184=LINE('',#968,#250);
#185=LINE('',#970,#251);
#186=LINE('',#971,#252);
#187=LINE('',#973,#253);
#188=LINE('',#976,#254);
#189=LINE('',#978,#255);
#190=LINE('',#980,#256);
#191=LINE('',#981,#257);
#192=LINE('',#984,#258);
#193=LINE('',#986,#259);
#194=LINE('',#988,#260);
#195=LINE('',#989,#261);
#196=LINE('',#991,#262);
#197=LINE('',#992,#263);
#198=LINE('',#994,#264);
#199=LINE('',#995,#265);
#200=LINE('',#1000,#266);
#201=LINE('',#1002,#267);
#202=LINE('',#1003,#268);
#203=LINE('',#1006,#269);
#204=LINE('',#1007,#270);
#205=LINE('',#1010,#271);
#206=LINE('',#1011,#272);
#207=LINE('',#1013,#273);
#208=LINE('',#1016,#274);
#209=VECTOR('',#687,1.5);
#210=VECTOR('',#696,1.5);
#211=VECTOR('',#705,1.5);
#212=VECTOR('',#714,1.5);
#213=VECTOR('',#723,1.5);
#214=VECTOR('',#732,1.5);
#215=VECTOR('',#739,10.);
#216=VECTOR('',#740,10.);
#217=VECTOR('',#741,10.);
#218=VECTOR('',#744,10.);
#219=VECTOR('',#745,10.);
#220=VECTOR('',#746,10.);
#221=VECTOR('',#747,10.);
#222=VECTOR('',#750,10.);
#223=VECTOR('',#751,10.);
#224=VECTOR('',#752,10.);
#225=VECTOR('',#753,10.);
#226=VECTOR('',#756,10.);
#227=VECTOR('',#757,10.);
#228=VECTOR('',#758,10.);
#229=VECTOR('',#761,10.);
#230=VECTOR('',#762,10.);
#231=VECTOR('',#763,10.);
#232=VECTOR('',#764,10.);
#233=VECTOR('',#767,10.);
#234=VECTOR('',#768,10.);
#235=VECTOR('',#771,10.);
#236=VECTOR('',#772,10.);
#237=VECTOR('',#775,10.);
#238=VECTOR('',#778,10.);
#239=VECTOR('',#779,10.);
#240=VECTOR('',#780,10.);
#241=VECTOR('',#783,10.);
#242=VECTOR('',#784,10.);
#243=VECTOR('',#787,10.);
#244=VECTOR('',#788,10.);
#245=VECTOR('',#791,10.);
#246=VECTOR('',#794,10.);
#247=VECTOR('',#795,10.);
#248=VECTOR('',#796,10.);
#249=VECTOR('',#799,10.);
#250=VECTOR('',#800,10.);
#251=VECTOR('',#801,10.);
#252=VECTOR('',#802,10.);
#253=VECTOR('',#805,10.);
#254=VECTOR('',#806,10.);
#255=VECTOR('',#807,10.);
#256=VECTOR('',#808,10.);
#257=VECTOR('',#809,10.);
#258=VECTOR('',#810,10.);
#259=VECTOR('',#811,10.);
#260=VECTOR('',#812,10.);
#261=VECTOR('',#813,10.);
#262=VECTOR('',#816,10.);
#263=VECTOR('',#817,10.);
#264=VECTOR('',#820,10.);
#265=VECTOR('',#821,10.);
#266=VECTOR('',#828,10.);
#267=VECTOR('',#829,10.);
#268=VECTOR('',#830,10.);
#269=VECTOR('',#833,10.);
#270=VECTOR('',#834,10.);
#271=VECTOR('',#837,10.);
#272=VECTOR('',#838,10.);
#273=VECTOR('',#841,10.);
#274=VECTOR('',#846,10.);
#275=CIRCLE('',#632,1.5);
#276=CIRCLE('',#633,1.5);
#277=CIRCLE('',#636,1.5);
#278=CIRCLE('',#637,1.5);
#279=CIRCLE('',#640,1.5);
#280=CIRCLE('',#641,1.5);
#281=CIRCLE('',#644,1.5);
#282=CIRCLE('',#645,1.5);
#283=CIRCLE('',#648,1.5);
#284=CIRCLE('',#649,1.5);
#285=CIRCLE('',#652,1.5);
#286=CIRCLE('',#653,1.5);
#287=VERTEX_POINT('',#851);
#288=VERTEX_POINT('',#853);
#289=VERTEX_POINT('',#858);
#290=VERTEX_POINT('',#860);
#291=VERTEX_POINT('',#865);
#292=VERTEX_POINT('',#867);
#293=VERTEX_POINT('',#872);
#294=VERTEX_POINT('',#874);
#295=VERTEX_POINT('',#879);
#296=VERTEX_POINT('',#881);
#297=VERTEX_POINT('',#886);
#298=VERTEX_POINT('',#888);
#299=VERTEX_POINT('',#893);
#300=VERTEX_POINT('',#894);
#301=VERTEX_POINT('',#896);
#302=VERTEX_POINT('',#900);
#303=VERTEX_POINT('',#901);
#304=VERTEX_POINT('',#903);
#305=VERTEX_POINT('',#905);
#306=VERTEX_POINT('',#909);
#307=VERTEX_POINT('',#911);
#308=VERTEX_POINT('',#913);
#309=VERTEX_POINT('',#917);
#310=VERTEX_POINT('',#918);
#311=VERTEX_POINT('',#920);
#312=VERTEX_POINT('',#924);
#313=VERTEX_POINT('',#926);
#314=VERTEX_POINT('',#928);
#315=VERTEX_POINT('',#932);
#316=VERTEX_POINT('',#936);
#317=VERTEX_POINT('',#942);
#318=VERTEX_POINT('',#944);
#319=VERTEX_POINT('',#948);
#320=VERTEX_POINT('',#952);
#321=VERTEX_POINT('',#958);
#322=VERTEX_POINT('',#960);
#323=VERTEX_POINT('',#964);
#324=VERTEX_POINT('',#965);
#325=VERTEX_POINT('',#967);
#326=VERTEX_POINT('',#969);
#327=VERTEX_POINT('',#974);
#328=VERTEX_POINT('',#975);
#329=VERTEX_POINT('',#977);
#330=VERTEX_POINT('',#979);
#331=VERTEX_POINT('',#982);
#332=VERTEX_POINT('',#983);
#333=VERTEX_POINT('',#985);
#334=VERTEX_POINT('',#987);
#335=VERTEX_POINT('',#999);
#336=VERTEX_POINT('',#1001);
#337=VERTEX_POINT('',#1005);
#338=VERTEX_POINT('',#1009);
#339=EDGE_CURVE('',#287,#287,#275,.T.);
#340=EDGE_CURVE('',#287,#288,#143,.T.);
#341=EDGE_CURVE('',#288,#288,#276,.T.);
#342=EDGE_CURVE('',#289,#289,#277,.T.);
#343=EDGE_CURVE('',#289,#290,#144,.T.);
#344=EDGE_CURVE('',#290,#290,#278,.T.);
#345=EDGE_CURVE('',#291,#291,#279,.T.);
#346=EDGE_CURVE('',#291,#292,#145,.T.);
#347=EDGE_CURVE('',#292,#292,#280,.T.);
#348=EDGE_CURVE('',#293,#293,#281,.T.);
#349=EDGE_CURVE('',#293,#294,#146,.T.);
#350=EDGE_CURVE('',#294,#294,#282,.T.);
#351=EDGE_CURVE('',#295,#295,#283,.T.);
#352=EDGE_CURVE('',#295,#296,#147,.T.);
#353=EDGE_CURVE('',#296,#296,#284,.T.);
#354=EDGE_CURVE('',#297,#297,#285,.T.);
#355=EDGE_CURVE('',#297,#298,#148,.T.);
#356=EDGE_CURVE('',#298,#298,#286,.T.);
#357=EDGE_CURVE('',#299,#300,#149,.T.);
#358=EDGE_CURVE('',#301,#299,#150,.T.);
#359=EDGE_CURVE('',#300,#301,#151,.T.);
#360=EDGE_CURVE('',#302,#303,#152,.T.);
#361=EDGE_CURVE('',#303,#304,#153,.T.);
#362=EDGE_CURVE('',#305,#304,#154,.T.);
#363=EDGE_CURVE('',#302,#305,#155,.T.);
#364=EDGE_CURVE('',#301,#306,#156,.T.);
#365=EDGE_CURVE('',#307,#306,#157,.T.);
#366=EDGE_CURVE('',#307,#308,#158,.T.);
#367=EDGE_CURVE('',#300,#308,#159,.T.);
#368=EDGE_CURVE('',#309,#310,#160,.T.);
#369=EDGE_CURVE('',#311,#309,#161,.T.);
#370=EDGE_CURVE('',#310,#311,#162,.T.);
#371=EDGE_CURVE('',#312,#310,#163,.T.);
#372=EDGE_CURVE('',#312,#313,#164,.T.);
#373=EDGE_CURVE('',#314,#313,#165,.T.);
#374=EDGE_CURVE('',#314,#309,#166,.T.);
#375=EDGE_CURVE('',#315,#312,#167,.T.);
#376=EDGE_CURVE('',#315,#313,#168,.T.);
#377=EDGE_CURVE('',#311,#316,#169,.T.);
#378=EDGE_CURVE('',#315,#316,#170,.T.);
#379=EDGE_CURVE('',#316,#314,#171,.T.);
#380=EDGE_CURVE('',#303,#317,#172,.T.);
#381=EDGE_CURVE('',#317,#318,#173,.T.);
#382=EDGE_CURVE('',#304,#318,#174,.T.);
#383=EDGE_CURVE('',#319,#299,#175,.T.);
#384=EDGE_CURVE('',#319,#306,#176,.T.);
#385=EDGE_CURVE('',#308,#320,#177,.T.);
#386=EDGE_CURVE('',#319,#320,#178,.T.);
#387=EDGE_CURVE('',#320,#307,#179,.T.);
#388=EDGE_CURVE('',#321,#302,#180,.T.);
#389=EDGE_CURVE('',#322,#305,#181,.T.);
#390=EDGE_CURVE('',#321,#322,#182,.T.);
#391=EDGE_CURVE('',#323,#324,#183,.T.);
#392=EDGE_CURVE('',#325,#323,#184,.T.);
#393=EDGE_CURVE('',#326,#325,#185,.T.);
#394=EDGE_CURVE('',#324,#326,#186,.T.);
#395=EDGE_CURVE('',#317,#321,#187,.T.);
#396=EDGE_CURVE('',#327,#328,#188,.T.);
#397=EDGE_CURVE('',#328,#329,#189,.T.);
#398=EDGE_CURVE('',#329,#330,#190,.T.);
#399=EDGE_CURVE('',#330,#327,#191,.T.);
#400=EDGE_CURVE('',#331,#332,#192,.T.);
#401=EDGE_CURVE('',#332,#333,#193,.T.);
#402=EDGE_CURVE('',#333,#334,#194,.T.);
#403=EDGE_CURVE('',#334,#331,#195,.T.);
#404=EDGE_CURVE('',#329,#323,#196,.T.);
#405=EDGE_CURVE('',#330,#324,#197,.T.);
#406=EDGE_CURVE('',#328,#325,#198,.T.);
#407=EDGE_CURVE('',#327,#326,#199,.T.);
#408=EDGE_CURVE('',#331,#335,#200,.T.);
#409=EDGE_CURVE('',#335,#336,#201,.T.);
#410=EDGE_CURVE('',#332,#336,#202,.T.);
#411=EDGE_CURVE('',#334,#337,#203,.T.);
#412=EDGE_CURVE('',#337,#335,#204,.T.);
#413=EDGE_CURVE('',#333,#338,#205,.T.);
#414=EDGE_CURVE('',#338,#337,#206,.T.);
#415=EDGE_CURVE('',#336,#338,#207,.T.);
#416=EDGE_CURVE('',#318,#322,#208,.T.);
#417=ORIENTED_EDGE('',*,*,#339,.F.);
#418=ORIENTED_EDGE('',*,*,#340,.T.);
#419=ORIENTED_EDGE('',*,*,#341,.T.);
#420=ORIENTED_EDGE('',*,*,#340,.F.);
#421=ORIENTED_EDGE('',*,*,#341,.F.);
#422=ORIENTED_EDGE('',*,*,#342,.F.);
#423=ORIENTED_EDGE('',*,*,#343,.T.);
#424=ORIENTED_EDGE('',*,*,#344,.T.);
#425=ORIENTED_EDGE('',*,*,#343,.F.);
#426=ORIENTED_EDGE('',*,*,#344,.F.);
#427=ORIENTED_EDGE('',*,*,#345,.F.);
#428=ORIENTED_EDGE('',*,*,#346,.T.);
#429=ORIENTED_EDGE('',*,*,#347,.T.);
#430=ORIENTED_EDGE('',*,*,#346,.F.);
#431=ORIENTED_EDGE('',*,*,#347,.F.);
#432=ORIENTED_EDGE('',*,*,#348,.F.);
#433=ORIENTED_EDGE('',*,*,#349,.T.);
#434=ORIENTED_EDGE('',*,*,#350,.T.);
#435=ORIENTED_EDGE('',*,*,#349,.F.);
#436=ORIENTED_EDGE('',*,*,#350,.F.);
#437=ORIENTED_EDGE('',*,*,#351,.F.);
#438=ORIENTED_EDGE('',*,*,#352,.T.);
#439=ORIENTED_EDGE('',*,*,#353,.T.);
#440=ORIENTED_EDGE('',*,*,#352,.F.);
#441=ORIENTED_EDGE('',*,*,#353,.F.);
#442=ORIENTED_EDGE('',*,*,#354,.F.);
#443=ORIENTED_EDGE('',*,*,#355,.T.);
#444=ORIENTED_EDGE('',*,*,#356,.T.);
#445=ORIENTED_EDGE('',*,*,#355,.F.);
#446=ORIENTED_EDGE('',*,*,#356,.F.);
#447=ORIENTED_EDGE('',*,*,#357,.F.);
#448=ORIENTED_EDGE('',*,*,#358,.F.);
#449=ORIENTED_EDGE('',*,*,#359,.F.);
#450=ORIENTED_EDGE('',*,*,#360,.T.);
#451=ORIENTED_EDGE('',*,*,#361,.T.);
#452=ORIENTED_EDGE('',*,*,#362,.F.);
#453=ORIENTED_EDGE('',*,*,#363,.F.);
#454=ORIENTED_EDGE('',*,*,#351,.T.);
#455=ORIENTED_EDGE('',*,*,#354,.T.);
#456=ORIENTED_EDGE('',*,*,#359,.T.);
#457=ORIENTED_EDGE('',*,*,#364,.T.);
#458=ORIENTED_EDGE('',*,*,#365,.F.);
#459=ORIENTED_EDGE('',*,*,#366,.T.);
#460=ORIENTED_EDGE('',*,*,#367,.F.);
#461=ORIENTED_EDGE('',*,*,#368,.F.);
#462=ORIENTED_EDGE('',*,*,#369,.F.);
#463=ORIENTED_EDGE('',*,*,#370,.F.);
#464=ORIENTED_EDGE('',*,*,#368,.T.);
#465=ORIENTED_EDGE('',*,*,#371,.F.);
#466=ORIENTED_EDGE('',*,*,#372,.T.);
#467=ORIENTED_EDGE('',*,*,#373,.F.);
#468=ORIENTED_EDGE('',*,*,#374,.T.);
#469=ORIENTED_EDGE('',*,*,#375,.F.);
#470=ORIENTED_EDGE('',*,*,#376,.T.);
#471=ORIENTED_EDGE('',*,*,#372,.F.);
#472=ORIENTED_EDGE('',*,*,#370,.T.);
#473=ORIENTED_EDGE('',*,*,#377,.T.);
#474=ORIENTED_EDGE('',*,*,#378,.F.);
#475=ORIENTED_EDGE('',*,*,#375,.T.);
#476=ORIENTED_EDGE('',*,*,#371,.T.);
#477=ORIENTED_EDGE('',*,*,#369,.T.);
#478=ORIENTED_EDGE('',*,*,#374,.F.);
#479=ORIENTED_EDGE('',*,*,#379,.F.);
#480=ORIENTED_EDGE('',*,*,#377,.F.);
#481=ORIENTED_EDGE('',*,*,#380,.T.);
#482=ORIENTED_EDGE('',*,*,#381,.T.);
#483=ORIENTED_EDGE('',*,*,#382,.F.);
#484=ORIENTED_EDGE('',*,*,#361,.F.);
#485=ORIENTED_EDGE('',*,*,#358,.T.);
#486=ORIENTED_EDGE('',*,*,#383,.F.);
#487=ORIENTED_EDGE('',*,*,#384,.T.);
#488=ORIENTED_EDGE('',*,*,#364,.F.);
#489=ORIENTED_EDGE('',*,*,#357,.T.);
#490=ORIENTED_EDGE('',*,*,#367,.T.);
#491=ORIENTED_EDGE('',*,*,#385,.T.);
#492=ORIENTED_EDGE('',*,*,#386,.F.);
#493=ORIENTED_EDGE('',*,*,#383,.T.);
#494=ORIENTED_EDGE('',*,*,#385,.F.);
#495=ORIENTED_EDGE('',*,*,#366,.F.);
#496=ORIENTED_EDGE('',*,*,#387,.F.);
#497=ORIENTED_EDGE('',*,*,#388,.T.);
#498=ORIENTED_EDGE('',*,*,#363,.T.);
#499=ORIENTED_EDGE('',*,*,#389,.F.);
#500=ORIENTED_EDGE('',*,*,#390,.F.);
#501=ORIENTED_EDGE('',*,*,#391,.F.);
#502=ORIENTED_EDGE('',*,*,#392,.F.);
#503=ORIENTED_EDGE('',*,*,#393,.F.);
#504=ORIENTED_EDGE('',*,*,#394,.F.);
#505=ORIENTED_EDGE('',*,*,#339,.T.);
#506=ORIENTED_EDGE('',*,*,#342,.T.);
#507=ORIENTED_EDGE('',*,*,#380,.F.);
#508=ORIENTED_EDGE('',*,*,#360,.F.);
#509=ORIENTED_EDGE('',*,*,#388,.F.);
#510=ORIENTED_EDGE('',*,*,#395,.F.);
#511=ORIENTED_EDGE('',*,*,#396,.T.);
#512=ORIENTED_EDGE('',*,*,#397,.T.);
#513=ORIENTED_EDGE('',*,*,#398,.T.);
#514=ORIENTED_EDGE('',*,*,#399,.T.);
#515=ORIENTED_EDGE('',*,*,#376,.F.);
#516=ORIENTED_EDGE('',*,*,#378,.T.);
#517=ORIENTED_EDGE('',*,*,#379,.T.);
#518=ORIENTED_EDGE('',*,*,#373,.T.);
#519=ORIENTED_EDGE('',*,*,#384,.F.);
#520=ORIENTED_EDGE('',*,*,#386,.T.);
#521=ORIENTED_EDGE('',*,*,#387,.T.);
#522=ORIENTED_EDGE('',*,*,#365,.T.);
#523=ORIENTED_EDGE('',*,*,#400,.T.);
#524=ORIENTED_EDGE('',*,*,#401,.T.);
#525=ORIENTED_EDGE('',*,*,#402,.T.);
#526=ORIENTED_EDGE('',*,*,#403,.T.);
#527=ORIENTED_EDGE('',*,*,#398,.F.);
#528=ORIENTED_EDGE('',*,*,#404,.T.);
#529=ORIENTED_EDGE('',*,*,#391,.T.);
#530=ORIENTED_EDGE('',*,*,#405,.F.);
#531=ORIENTED_EDGE('',*,*,#393,.T.);
#532=ORIENTED_EDGE('',*,*,#406,.F.);
#533=ORIENTED_EDGE('',*,*,#396,.F.);
#534=ORIENTED_EDGE('',*,*,#407,.T.);
#535=ORIENTED_EDGE('',*,*,#399,.F.);
#536=ORIENTED_EDGE('',*,*,#405,.T.);
#537=ORIENTED_EDGE('',*,*,#394,.T.);
#538=ORIENTED_EDGE('',*,*,#407,.F.);
#539=ORIENTED_EDGE('',*,*,#397,.F.);
#540=ORIENTED_EDGE('',*,*,#406,.T.);
#541=ORIENTED_EDGE('',*,*,#392,.T.);
#542=ORIENTED_EDGE('',*,*,#404,.F.);
#543=ORIENTED_EDGE('',*,*,#400,.F.);
#544=ORIENTED_EDGE('',*,*,#408,.T.);
#545=ORIENTED_EDGE('',*,*,#409,.T.);
#546=ORIENTED_EDGE('',*,*,#410,.F.);
#547=ORIENTED_EDGE('',*,*,#403,.F.);
#548=ORIENTED_EDGE('',*,*,#411,.T.);
#549=ORIENTED_EDGE('',*,*,#412,.T.);
#550=ORIENTED_EDGE('',*,*,#408,.F.);
#551=ORIENTED_EDGE('',*,*,#402,.F.);
#552=ORIENTED_EDGE('',*,*,#413,.T.);
#553=ORIENTED_EDGE('',*,*,#414,.T.);
#554=ORIENTED_EDGE('',*,*,#411,.F.);
#555=ORIENTED_EDGE('',*,*,#401,.F.);
#556=ORIENTED_EDGE('',*,*,#410,.T.);
#557=ORIENTED_EDGE('',*,*,#415,.T.);
#558=ORIENTED_EDGE('',*,*,#413,.F.);
#559=ORIENTED_EDGE('',*,*,#415,.F.);
#560=ORIENTED_EDGE('',*,*,#409,.F.);
#561=ORIENTED_EDGE('',*,*,#412,.F.);
#562=ORIENTED_EDGE('',*,*,#414,.F.);
#563=ORIENTED_EDGE('',*,*,#395,.T.);
#564=ORIENTED_EDGE('',*,*,#390,.T.);
#565=ORIENTED_EDGE('',*,*,#416,.F.);
#566=ORIENTED_EDGE('',*,*,#381,.F.);
#567=ORIENTED_EDGE('',*,*,#345,.T.);
#568=ORIENTED_EDGE('',*,*,#348,.T.);
#569=ORIENTED_EDGE('',*,*,#416,.T.);
#570=ORIENTED_EDGE('',*,*,#389,.T.);
#571=ORIENTED_EDGE('',*,*,#362,.T.);
#572=ORIENTED_EDGE('',*,*,#382,.T.);
#573=CYLINDRICAL_SURFACE('',#631,1.5);
#574=CYLINDRICAL_SURFACE('',#635,1.5);
#575=CYLINDRICAL_SURFACE('',#639,1.5);
#576=CYLINDRICAL_SURFACE('',#643,1.5);
#577=CYLINDRICAL_SURFACE('',#647,1.5);
#578=CYLINDRICAL_SURFACE('',#651,1.5);
#579=ADVANCED_FACE('',(#57),#573,.F.);
#580=ADVANCED_FACE('',(#58),#25,.F.);
#581=ADVANCED_FACE('',(#59),#574,.F.);
#582=ADVANCED_FACE('',(#60),#26,.F.);
#583=ADVANCED_FACE('',(#61),#575,.F.);
#584=ADVANCED_FACE('',(#62),#27,.F.);
#585=ADVANCED_FACE('',(#63),#576,.F.);
#586=ADVANCED_FACE('',(#64),#28,.F.);
#587=ADVANCED_FACE('',(#65),#577,.F.);
#588=ADVANCED_FACE('',(#66),#29,.F.);
#589=ADVANCED_FACE('',(#67),#578,.F.);
#590=ADVANCED_FACE('',(#68),#30,.F.);
#591=ADVANCED_FACE('',(#69),#31,.T.);
#592=ADVANCED_FACE('',(#70,#15,#16),#32,.T.);
#593=ADVANCED_FACE('',(#71),#33,.F.);
#594=ADVANCED_FACE('',(#72),#34,.T.);
#595=ADVANCED_FACE('',(#73),#35,.F.);
#596=ADVANCED_FACE('',(#74),#36,.F.);
#597=ADVANCED_FACE('',(#75),#37,.F.);
#598=ADVANCED_FACE('',(#76),#38,.T.);
#599=ADVANCED_FACE('',(#77),#39,.T.);
#600=ADVANCED_FACE('',(#78),#40,.F.);
#601=ADVANCED_FACE('',(#79),#41,.F.);
#602=ADVANCED_FACE('',(#80),#42,.T.);
#603=ADVANCED_FACE('',(#81),#43,.T.);
#604=ADVANCED_FACE('',(#82,#17,#18),#44,.F.);
#605=ADVANCED_FACE('',(#83,#19,#20,#21,#22),#45,.F.);
#606=ADVANCED_FACE('',(#84),#46,.F.);
#607=ADVANCED_FACE('',(#85),#47,.F.);
#608=ADVANCED_FACE('',(#86),#48,.F.);
#609=ADVANCED_FACE('',(#87),#49,.F.);
#610=ADVANCED_FACE('',(#88),#50,.F.);
#611=ADVANCED_FACE('',(#89),#51,.F.);
#612=ADVANCED_FACE('',(#90),#52,.F.);
#613=ADVANCED_FACE('',(#91),#53,.F.);
#614=ADVANCED_FACE('',(#92),#54,.F.);
#615=ADVANCED_FACE('',(#93,#23,#24),#55,.T.);
#616=ADVANCED_FACE('',(#94),#56,.T.);
#617=CLOSED_SHELL('',(#579,#580,#581,#582,#583,#584,#585,#586,#587,#588,
#589,#590,#591,#592,#593,#594,#595,#596,#597,#598,#599,#600,#601,#602,#603,
#604,#605,#606,#607,#608,#609,#610,#611,#612,#613,#614,#615,#616));
#618=DERIVED_UNIT_ELEMENT(#620,1.);
#619=DERIVED_UNIT_ELEMENT(#1023,-3.);
#620=(
MASS_UNIT()
NAMED_UNIT(*)
SI_UNIT(.KILO.,.GRAM.)
);
#621=DERIVED_UNIT((#618,#619));
#622=MEASURE_REPRESENTATION_ITEM('density measure',
POSITIVE_RATIO_MEASURE(8490.),#621);
#623=PROPERTY_DEFINITION_REPRESENTATION(#628,#625);
#624=PROPERTY_DEFINITION_REPRESENTATION(#629,#626);
#625=REPRESENTATION('material name',(#627),#1020);
#626=REPRESENTATION('density',(#622),#1020);
#627=DESCRIPTIVE_REPRESENTATION_ITEM('\X2\9EC494DC\X0\','\X2\9EC494DC\X0\');
#628=PROPERTY_DEFINITION('material property','material name',#1030);
#629=PROPERTY_DEFINITION('material property','density of part',#1030);
#630=AXIS2_PLACEMENT_3D('',#849,#681,#682);
#631=AXIS2_PLACEMENT_3D('',#850,#683,#684);
#632=AXIS2_PLACEMENT_3D('',#852,#685,#686);
#633=AXIS2_PLACEMENT_3D('',#855,#688,#689);
#634=AXIS2_PLACEMENT_3D('',#856,#690,#691);
#635=AXIS2_PLACEMENT_3D('',#857,#692,#693);
#636=AXIS2_PLACEMENT_3D('',#859,#694,#695);
#637=AXIS2_PLACEMENT_3D('',#862,#697,#698);
#638=AXIS2_PLACEMENT_3D('',#863,#699,#700);
#639=AXIS2_PLACEMENT_3D('',#864,#701,#702);
#640=AXIS2_PLACEMENT_3D('',#866,#703,#704);
#641=AXIS2_PLACEMENT_3D('',#869,#706,#707);
#642=AXIS2_PLACEMENT_3D('',#870,#708,#709);
#643=AXIS2_PLACEMENT_3D('',#871,#710,#711);
#644=AXIS2_PLACEMENT_3D('',#873,#712,#713);
#645=AXIS2_PLACEMENT_3D('',#876,#715,#716);
#646=AXIS2_PLACEMENT_3D('',#877,#717,#718);
#647=AXIS2_PLACEMENT_3D('',#878,#719,#720);
#648=AXIS2_PLACEMENT_3D('',#880,#721,#722);
#649=AXIS2_PLACEMENT_3D('',#883,#724,#725);
#650=AXIS2_PLACEMENT_3D('',#884,#726,#727);
#651=AXIS2_PLACEMENT_3D('',#885,#728,#729);
#652=AXIS2_PLACEMENT_3D('',#887,#730,#731);
#653=AXIS2_PLACEMENT_3D('',#890,#733,#734);
#654=AXIS2_PLACEMENT_3D('',#891,#735,#736);
#655=AXIS2_PLACEMENT_3D('',#892,#737,#738);
#656=AXIS2_PLACEMENT_3D('',#899,#742,#743);
#657=AXIS2_PLACEMENT_3D('',#908,#748,#749);
#658=AXIS2_PLACEMENT_3D('',#916,#754,#755);
#659=AXIS2_PLACEMENT_3D('',#923,#759,#760);
#660=AXIS2_PLACEMENT_3D('',#931,#765,#766);
#661=AXIS2_PLACEMENT_3D('',#935,#769,#770);
#662=AXIS2_PLACEMENT_3D('',#939,#773,#774);
#663=AXIS2_PLACEMENT_3D('',#941,#776,#777);
#664=AXIS2_PLACEMENT_3D('',#947,#781,#782);
#665=AXIS2_PLACEMENT_3D('',#951,#785,#786);
#666=AXIS2_PLACEMENT_3D('',#955,#789,#790);
#667=AXIS2_PLACEMENT_3D('',#957,#792,#793);
#668=AXIS2_PLACEMENT_3D('',#963,#797,#798);
#669=AXIS2_PLACEMENT_3D('',#972,#803,#804);
#670=AXIS2_PLACEMENT_3D('',#990,#814,#815);
#671=AXIS2_PLACEMENT_3D('',#993,#818,#819);
#672=AXIS2_PLACEMENT_3D('',#996,#822,#823);
#673=AXIS2_PLACEMENT_3D('',#997,#824,#825);
#674=AXIS2_PLACEMENT_3D('',#998,#826,#827);
#675=AXIS2_PLACEMENT_3D('',#1004,#831,#832);
#676=AXIS2_PLACEMENT_3D('',#1008,#835,#836);
#677=AXIS2_PLACEMENT_3D('',#1012,#839,#840);
#678=AXIS2_PLACEMENT_3D('',#1014,#842,#843);
#679=AXIS2_PLACEMENT_3D('',#1015,#844,#845);
#680=AXIS2_PLACEMENT_3D('',#1017,#847,#848);
#681=DIRECTION('axis',(0.,0.,1.));
#682=DIRECTION('refdir',(1.,0.,0.));
#683=DIRECTION('center_axis',(0.,-1.,1.76465137522694E-23));
#684=DIRECTION('ref_axis',(0.,1.76465136700964E-23,1.));
#685=DIRECTION('center_axis',(0.,-1.,-1.22464679914735E-16));
#686=DIRECTION('ref_axis',(0.,1.76465136700964E-23,1.));
#687=DIRECTION('',(0.,-1.,1.76465137522694E-23));
#688=DIRECTION('center_axis',(0.,-1.,1.76465137522694E-23));
#689=DIRECTION('ref_axis',(0.,1.76465136700964E-23,1.));
#690=DIRECTION('center_axis',(0.,-1.,1.76465137522694E-23));
#691=DIRECTION('ref_axis',(0.,1.76465137522694E-23,1.));
#692=DIRECTION('center_axis',(0.,-1.,1.76465137522694E-23));
#693=DIRECTION('ref_axis',(0.,1.76465136700964E-23,1.));
#694=DIRECTION('center_axis',(0.,-1.,-1.22464679914735E-16));
#695=DIRECTION('ref_axis',(0.,1.76465136700964E-23,1.));
#696=DIRECTION('',(0.,-1.,1.76465137522694E-23));
#697=DIRECTION('center_axis',(0.,-1.,1.76465137522694E-23));
#698=DIRECTION('ref_axis',(0.,1.76465136700964E-23,1.));
#699=DIRECTION('center_axis',(0.,-1.,1.76465137522694E-23));
#700=DIRECTION('ref_axis',(0.,1.76465137522694E-23,1.));
#701=DIRECTION('center_axis',(1.,0.,0.));
#702=DIRECTION('ref_axis',(0.,-1.,-7.40148683083432E-16));
#703=DIRECTION('center_axis',(1.,0.,0.));
#704=DIRECTION('ref_axis',(0.,-1.,-7.40148683083432E-16));
#705=DIRECTION('',(1.,0.,0.));
#706=DIRECTION('center_axis',(1.,0.,0.));
#707=DIRECTION('ref_axis',(0.,-1.,-7.40148683083432E-16));
#708=DIRECTION('center_axis',(1.,0.,0.));
#709=DIRECTION('ref_axis',(0.,-1.,-7.40148683083432E-16));
#710=DIRECTION('center_axis',(1.,0.,0.));
#711=DIRECTION('ref_axis',(0.,-1.,-7.40148683083432E-16));
#712=DIRECTION('center_axis',(1.,0.,0.));
#713=DIRECTION('ref_axis',(0.,-1.,-7.40148683083432E-16));
#714=DIRECTION('',(1.,0.,0.));
#715=DIRECTION('center_axis',(1.,0.,0.));
#716=DIRECTION('ref_axis',(0.,-1.,-7.40148683083432E-16));
#717=DIRECTION('center_axis',(1.,0.,0.));
#718=DIRECTION('ref_axis',(0.,-1.,-7.40148683083432E-16));
#719=DIRECTION('center_axis',(-1.,0.,0.));
#720=DIRECTION('ref_axis',(0.,1.,7.40148683083432E-16));
#721=DIRECTION('center_axis',(-1.,0.,0.));
#722=DIRECTION('ref_axis',(0.,1.,7.40148683083432E-16));
#723=DIRECTION('',(-1.,0.,0.));
#724=DIRECTION('center_axis',(-1.,0.,0.));
#725=DIRECTION('ref_axis',(0.,1.,7.40148683083432E-16));
#726=DIRECTION('center_axis',(-1.,0.,0.));
#727=DIRECTION('ref_axis',(0.,1.,7.40148683083432E-16));
#728=DIRECTION('center_axis',(-1.,0.,0.));
#729=DIRECTION('ref_axis',(0.,1.,7.40148683083432E-16));
#730=DIRECTION('center_axis',(-1.,0.,0.));
#731=DIRECTION('ref_axis',(0.,1.,7.40148683083432E-16));
#732=DIRECTION('',(-1.,0.,0.));
#733=DIRECTION('center_axis',(-1.,0.,0.));
#734=DIRECTION('ref_axis',(0.,1.,7.40148683083432E-16));
#735=DIRECTION('center_axis',(-1.,0.,0.));
#736=DIRECTION('ref_axis',(0.,1.,7.40148683083432E-16));
#737=DIRECTION('center_axis',(0.,0.707106781186546,-0.70710678118655));
#738=DIRECTION('ref_axis',(0.,-0.707106781186549,-0.707106781186545));
#739=DIRECTION('',(0.577350269189628,-0.577350269189626,-0.577350269189623));
#740=DIRECTION('',(-1.,0.,0.));
#741=DIRECTION('',(0.577350269189626,0.577350269189627,0.577350269189624));
#742=DIRECTION('center_axis',(1.,0.,0.));
#743=DIRECTION('ref_axis',(0.,-1.22464679914735E-16,1.));
#744=DIRECTION('',(0.,-1.22464679914735E-16,1.));
#745=DIRECTION('',(0.,-1.,-1.22464679914735E-16));
#746=DIRECTION('',(0.,-1.22464679914735E-16,1.));
#747=DIRECTION('',(0.,-1.,-1.22464679914735E-16));
#748=DIRECTION('center_axis',(0.707106781186549,-0.707106781186546,-8.65956056235492E-17));
#749=DIRECTION('ref_axis',(-0.707106781186546,-0.707106781186549,-8.65956056235495E-17));
#750=DIRECTION('',(0.707106781186546,0.707106781186549,8.65956056235495E-17));
#751=DIRECTION('',(0.,-1.22464679914735E-16,1.));
#752=DIRECTION('',(-0.707106781186546,-0.707106781186549,-8.65956056235495E-17));
#753=DIRECTION('',(0.,1.22464679914735E-16,-1.));
#754=DIRECTION('center_axis',(0.,0.707106781186546,0.707106781186549));
#755=DIRECTION('ref_axis',(0.,0.707106781186549,-0.707106781186546));
#756=DIRECTION('',(-0.577350269189625,-0.577350269189627,0.577350269189625));
#757=DIRECTION('',(1.,0.,0.));
#758=DIRECTION('',(-0.577350269189628,0.577350269189626,-0.577350269189624));
#759=DIRECTION('center_axis',(0.707106781186549,-0.707106781186546,-8.65956056235492E-17));
#760=DIRECTION('ref_axis',(-0.707106781186546,-0.707106781186549,-8.65956056235495E-17));
#761=DIRECTION('',(0.,1.22464679914735E-16,-1.));
#762=DIRECTION('',(0.707106781186546,0.707106781186549,8.65956056235495E-17));
#763=DIRECTION('',(0.,-1.22464679914735E-16,1.));
#764=DIRECTION('',(-0.707106781186546,-0.707106781186549,-8.65956056235495E-17));
#765=DIRECTION('center_axis',(0.,-1.22464679914735E-16,1.));
#766=DIRECTION('ref_axis',(-1.,0.,0.));
#767=DIRECTION('',(0.707106781186549,-0.707106781186546,-8.65956056235492E-17));
#768=DIRECTION('',(1.,0.,0.));
#769=DIRECTION('center_axis',(-0.707106781186546,-0.707106781186549,-8.65956056235495E-17));
#770=DIRECTION('ref_axis',(-0.707106781186549,0.707106781186546,8.65956056235492E-17));
#771=DIRECTION('',(-0.707106781186549,0.707106781186546,8.65956056235492E-17));
#772=DIRECTION('',(0.,1.22464679914735E-16,-1.));
#773=DIRECTION('center_axis',(0.,-1.22464679914735E-16,1.));
#774=DIRECTION('ref_axis',(-1.,0.,0.));
#775=DIRECTION('',(1.,0.,0.));
#776=DIRECTION('center_axis',(0.,-1.22464679914735E-16,1.));
#777=DIRECTION('ref_axis',(-1.,0.,0.));
#778=DIRECTION('',(-1.,0.,0.));
#779=DIRECTION('',(0.,-1.,-1.22464679914735E-16));
#780=DIRECTION('',(-1.,0.,0.));
#781=DIRECTION('center_axis',(0.,-1.22464679914735E-16,1.));
#782=DIRECTION('ref_axis',(-1.,0.,0.));
#783=DIRECTION('',(0.707106781186549,-0.707106781186546,-8.65956056235492E-17));
#784=DIRECTION('',(1.,0.,0.));
#785=DIRECTION('center_axis',(-0.707106781186546,-0.707106781186549,-8.65956056235495E-17));
#786=DIRECTION('ref_axis',(-0.707106781186549,0.707106781186546,8.65956056235492E-17));
#787=DIRECTION('',(-0.707106781186549,0.707106781186546,8.65956056235492E-17));
#788=DIRECTION('',(0.,1.22464679914735E-16,-1.));
#789=DIRECTION('center_axis',(0.,-1.22464679914735E-16,1.));
#790=DIRECTION('ref_axis',(-1.,0.,0.));
#791=DIRECTION('',(1.,0.,0.));
#792=DIRECTION('center_axis',(0.,1.22464679914735E-16,-1.));
#793=DIRECTION('ref_axis',(1.,0.,0.));
#794=DIRECTION('',(1.,0.,0.));
#795=DIRECTION('',(1.,0.,0.));
#796=DIRECTION('',(0.,-1.,-1.22464679914735E-16));
#797=DIRECTION('center_axis',(0.,-1.,-1.22464679914735E-16));
#798=DIRECTION('ref_axis',(0.,1.22464679914735E-16,-1.));
#799=DIRECTION('',(1.,0.,0.));
#800=DIRECTION('',(0.,1.22464679914735E-16,-1.));
#801=DIRECTION('',(-1.,0.,0.));
#802=DIRECTION('',(0.,-1.22464679914735E-16,1.));
#803=DIRECTION('center_axis',(0.,-1.,-1.22464679914735E-16));
#804=DIRECTION('ref_axis',(1.,0.,0.));
#805=DIRECTION('',(0.,1.22464679914735E-16,-1.));
#806=DIRECTION('',(-1.,0.,0.));
#807=DIRECTION('',(0.,1.22464679914735E-16,-1.));
#808=DIRECTION('',(1.,0.,0.));
#809=DIRECTION('',(0.,-1.22464679914735E-16,1.));
#810=DIRECTION('',(-1.,0.,0.));
#811=DIRECTION('',(0.,1.22464679914735E-16,-1.));
#812=DIRECTION('',(1.,0.,0.));
#813=DIRECTION('',(0.,-1.22464679914735E-16,1.));
#814=DIRECTION('center_axis',(0.,1.22464679914735E-16,-1.));
#815=DIRECTION('ref_axis',(1.,0.,0.));
#816=DIRECTION('',(0.,-1.,-1.22464679914735E-16));
#817=DIRECTION('',(0.,-1.,-1.22464679914735E-16));
#818=DIRECTION('center_axis',(0.,-1.22464679914735E-16,1.));
#819=DIRECTION('ref_axis',(-1.,0.,0.));
#820=DIRECTION('',(0.,-1.,-1.22464679914735E-16));
#821=DIRECTION('',(0.,-1.,-1.22464679914735E-16));
#822=DIRECTION('center_axis',(1.,0.,0.));
#823=DIRECTION('ref_axis',(0.,-1.22464679914735E-16,1.));
#824=DIRECTION('center_axis',(-1.,0.,0.));
#825=DIRECTION('ref_axis',(0.,1.22464679914735E-16,-1.));
#826=DIRECTION('center_axis',(0.,-1.22464679914735E-16,1.));
#827=DIRECTION('ref_axis',(-1.,0.,0.));
#828=DIRECTION('',(0.,-1.,-1.22464679914735E-16));
#829=DIRECTION('',(-1.,0.,0.));
#830=DIRECTION('',(0.,-1.,-1.22464679914735E-16));
#831=DIRECTION('center_axis',(1.,0.,0.));
#832=DIRECTION('ref_axis',(0.,-1.22464679914735E-16,1.));
#833=DIRECTION('',(0.,-1.,-1.22464679914735E-16));
#834=DIRECTION('',(0.,-1.22464679914735E-16,1.));
#835=DIRECTION('center_axis',(0.,1.22464679914735E-16,-1.));
#836=DIRECTION('ref_axis',(1.,0.,0.));
#837=DIRECTION('',(0.,-1.,-1.22464679914735E-16));
#838=DIRECTION('',(1.,0.,0.));
#839=DIRECTION('center_axis',(-1.,0.,0.));
#840=DIRECTION('ref_axis',(0.,1.22464679914735E-16,-1.));
#841=DIRECTION('',(0.,1.22464679914735E-16,-1.));
#842=DIRECTION('center_axis',(0.,-1.,-1.22464679914735E-16));
#843=DIRECTION('ref_axis',(0.,1.22464679914735E-16,-1.));
#844=DIRECTION('center_axis',(-1.,0.,0.));
#845=DIRECTION('ref_axis',(0.,1.22464679914735E-16,-1.));
#846=DIRECTION('',(0.,1.22464679914735E-16,-1.));
#847=DIRECTION('center_axis',(0.,-1.,-1.22464679914735E-16));
#848=DIRECTION('ref_axis',(0.,1.22464679914735E-16,-1.));
#849=CARTESIAN_POINT('',(0.,0.,0.));
#850=CARTESIAN_POINT('Origin',(-22.7943662911157,-3.5,-113.429087524061));
#851=CARTESIAN_POINT('',(-22.7943662911157,-0.999999999999993,-114.929087524061));
#852=CARTESIAN_POINT('Origin',(-22.7943662911157,-0.999999999999993,-113.429087524061));
#853=CARTESIAN_POINT('',(-22.7943662911157,-6.,-114.929087524061));
#854=CARTESIAN_POINT('',(-22.7943662911157,-3.5,-114.929087524061));
#855=CARTESIAN_POINT('Origin',(-22.7943662911157,-6.,-113.429087524061));
#856=CARTESIAN_POINT('Origin',(-22.7943662911157,-6.,-113.429087524061));
#857=CARTESIAN_POINT('Origin',(-9.57910086058495,-3.5,-124.097108860094));
#858=CARTESIAN_POINT('',(-9.57910086058495,-0.999999999999993,-125.597108860094));
#859=CARTESIAN_POINT('Origin',(-9.57910086058495,-0.999999999999993,-124.097108860094));
#860=CARTESIAN_POINT('',(-9.57910086058495,-6.,-125.597108860094));
#861=CARTESIAN_POINT('',(-9.57910086058495,-3.5,-125.597108860094));
#862=CARTESIAN_POINT('Origin',(-9.57910086058495,-6.,-124.097108860094));
#863=CARTESIAN_POINT('Origin',(-9.57910086058495,-6.,-124.097108860094));
#864=CARTESIAN_POINT('Origin',(-53.4719939263712,-3.99999999999999,-134.963992273867));
#865=CARTESIAN_POINT('',(-55.9719939263712,-2.49999999999999,-134.963992273867));
#866=CARTESIAN_POINT('Origin',(-55.9719939263712,-3.99999999999999,-134.963992273867));
#867=CARTESIAN_POINT('',(-50.9719939263712,-2.49999999999999,-134.963992273867));
#868=CARTESIAN_POINT('',(-53.4719939263712,-2.49999999999999,-134.963992273867));
#869=CARTESIAN_POINT('Origin',(-50.9719939263712,-3.99999999999999,-134.963992273867));
#870=CARTESIAN_POINT('Origin',(-50.9719939263712,-3.99999999999999,-134.963992273867));
#871=CARTESIAN_POINT('Origin',(-53.4719939263712,-4.,-104.963992273867));
#872=CARTESIAN_POINT('',(-55.9719939263712,-2.5,-104.963992273867));
#873=CARTESIAN_POINT('Origin',(-55.9719939263712,-4.,-104.963992273867));
#874=CARTESIAN_POINT('',(-50.9719939263712,-2.5,-104.963992273867));
#875=CARTESIAN_POINT('',(-53.4719939263712,-2.5,-104.963992273867));
#876=CARTESIAN_POINT('Origin',(-50.9719939263712,-4.,-104.963992273867));
#877=CARTESIAN_POINT('Origin',(-50.9719939263712,-4.,-104.963992273867));
#878=CARTESIAN_POINT('Origin',(-3.47199392637119,-4.,-104.963992273867));
#879=CARTESIAN_POINT('',(-0.971993926371191,-5.5,-104.963992273867));
#880=CARTESIAN_POINT('Origin',(-0.971993926371191,-4.,-104.963992273867));
#881=CARTESIAN_POINT('',(-5.97199392637119,-5.5,-104.963992273867));
#882=CARTESIAN_POINT('',(-3.47199392637119,-5.5,-104.963992273867));
#883=CARTESIAN_POINT('Origin',(-5.97199392637119,-4.,-104.963992273867));
#884=CARTESIAN_POINT('Origin',(-5.97199392637119,-4.,-104.963992273867));
#885=CARTESIAN_POINT('Origin',(-3.47199392637119,-3.99999999999999,-134.963992273867));
#886=CARTESIAN_POINT('',(-0.971993926371191,-5.49999999999999,-134.963992273867));
#887=CARTESIAN_POINT('Origin',(-0.971993926371191,-3.99999999999999,-134.963992273867));
#888=CARTESIAN_POINT('',(-5.97199392637119,-5.49999999999999,-134.963992273867));
#889=CARTESIAN_POINT('',(-3.47199392637119,-5.49999999999999,-134.963992273867));
#890=CARTESIAN_POINT('Origin',(-5.97199392637119,-3.99999999999999,-134.963992273867));
#891=CARTESIAN_POINT('Origin',(-5.97199392637119,-3.99999999999999,-134.963992273867));
#892=CARTESIAN_POINT('Origin',(-0.971993926371191,9.10862471847942E-15,
-136.049778711494));
#893=CARTESIAN_POINT('',(-16.3859939263712,-0.00021356237308789,-136.049992273867));
#894=CARTESIAN_POINT('',(-14.9719939263712,-1.41421356237309,-137.463992273867));
#895=CARTESIAN_POINT('',(-19.7767317804955,3.39052429175124,-132.659254419743));
#896=CARTESIAN_POINT('',(-13.5579939263712,-0.00021356237308782,-136.049992273867));
#897=CARTESIAN_POINT('',(-7.97199392637119,-0.000213562373087265,-136.049992273867));
#898=CARTESIAN_POINT('',(-5.02918488478914,8.52859547920899,-127.521183232285));
#899=CARTESIAN_POINT('Origin',(-0.971993926371191,9.89413932930019E-15,
-142.463992273867));
#900=CARTESIAN_POINT('',(-0.971993926371191,9.89413932930019E-15,-142.463992273867));
#901=CARTESIAN_POINT('',(-0.971993926371191,4.3832287331371E-15,-97.4639922738671));
#902=CARTESIAN_POINT('',(-0.971993926371191,9.89413932930019E-15,-142.463992273867));
#903=CARTESIAN_POINT('',(-0.971993926371191,-8.,-97.4639922738671));
#904=CARTESIAN_POINT('',(-0.971993926371191,4.3832287331371E-15,-97.4639922738671));
#905=CARTESIAN_POINT('',(-0.971993926371191,-7.99999999999999,-142.463992273867));
#906=CARTESIAN_POINT('',(-0.971993926371191,-7.99999999999999,-142.463992273867));
#907=CARTESIAN_POINT('',(-0.971993926371191,9.89413932930019E-15,-142.463992273867));
#908=CARTESIAN_POINT('Origin',(-13.5577803639981,4.3832287331371E-15,-97.4639922738671));
#909=CARTESIAN_POINT('',(-13.5577803639981,9.10865087232708E-15,-136.049992273867));
#910=CARTESIAN_POINT('',(-14.088110449888,-0.530330085889904,-136.049992273867));
#911=CARTESIAN_POINT('',(-13.5577803639981,9.64920996947073E-15,-140.463992273867));
#912=CARTESIAN_POINT('',(-13.5577803639981,5.76095638217787E-15,-108.713992273867));
#913=CARTESIAN_POINT('',(-14.9719939263712,-1.41421356237309,-140.463992273867));
#914=CARTESIAN_POINT('',(-14.088110449888,-0.530330085889902,-140.463992273867));
#915=CARTESIAN_POINT('',(-14.9719939263712,-1.41421356237309,-97.4639922738671));
#916=CARTESIAN_POINT('Origin',(-0.971993926371191,-1.41421356237309,-102.463992273867));
#917=CARTESIAN_POINT('',(-13.5579939263711,-0.000213562373033959,-103.877992273867));
#918=CARTESIAN_POINT('',(-14.9719939263712,-1.41421356237309,-102.463992273867));
#919=CARTESIAN_POINT('',(-13.0005894055802,0.557190958417945,-104.435396794658));
#920=CARTESIAN_POINT('',(-16.3859939263713,-0.000213562373033959,-103.877992273867));
#921=CARTESIAN_POINT('',(-7.97199392637119,-0.000213562373032294,-103.877992273867));
#922=CARTESIAN_POINT('',(-11.8053272597045,-4.58088022903976,-99.2973256072004));
#923=CARTESIAN_POINT('Origin',(-13.5577803639981,4.3832287331371E-15,-97.4639922738671));
#924=CARTESIAN_POINT('',(-14.9719939263712,-1.41421356237309,-99.4639922738671));
#925=CARTESIAN_POINT('',(-14.9719939263712,-1.41421356237309,-97.4639922738671));
#926=CARTESIAN_POINT('',(-13.5577803639981,4.62815809296658E-15,-99.4639922738671));
#927=CARTESIAN_POINT('',(-14.088110449888,-0.530330085889908,-99.4639922738671));
#928=CARTESIAN_POINT('',(-13.5577803639981,5.16871719011022E-15,-103.877992273867));
#929=CARTESIAN_POINT('',(-13.5577803639981,5.76095638217787E-15,-108.713992273867));
#930=CARTESIAN_POINT('',(-14.088110449888,-0.530330085889907,-103.877992273867));
#931=CARTESIAN_POINT('Origin',(-14.9719939263712,-0.707106781186544,-99.4639922738671));
#932=CARTESIAN_POINT('',(-16.3862074887443,4.62815809296658E-15,-99.4639922738671));
#933=CARTESIAN_POINT('',(-15.1487706216678,-1.23743686707645,-99.4639922738671));
#934=CARTESIAN_POINT('',(-15.6791007075577,4.62815809296658E-15,-99.4639922738671));
#935=CARTESIAN_POINT('Origin',(-14.9719939263712,-1.41421356237309,-97.4639922738671));
#936=CARTESIAN_POINT('',(-16.3862074887443,5.16871719011022E-15,-103.877992273867));
#937=CARTESIAN_POINT('',(-15.1487706216678,-1.23743686707645,-103.877992273867));
#938=CARTESIAN_POINT('',(-16.3862074887443,5.2058448698653E-15,-108.713992273867));
#939=CARTESIAN_POINT('Origin',(-14.9719939263712,-0.707106781186543,-103.877992273867));
#940=CARTESIAN_POINT('',(-21.7219939263712,5.16871719011022E-15,-103.877992273867));
#941=CARTESIAN_POINT('Origin',(-0.971993926371191,4.3832287331371E-15,-97.4639922738671));
#942=CARTESIAN_POINT('',(-55.9719939263712,4.3832287331371E-15,-97.4639922738671));
#943=CARTESIAN_POINT('',(-0.971993926371191,4.3832287331371E-15,-97.4639922738671));
#944=CARTESIAN_POINT('',(-55.9719939263712,-8.,-97.4639922738671));
#945=CARTESIAN_POINT('',(-55.9719939263712,4.3832287331371E-15,-97.4639922738671));
#946=CARTESIAN_POINT('',(-0.971993926371191,-8.,-97.4639922738671));
#947=CARTESIAN_POINT('Origin',(-14.9719939263712,-0.707106781186539,-136.049992273867));
#948=CARTESIAN_POINT('',(-16.3862074887443,9.10865087232708E-15,-136.049992273867));
#949=CARTESIAN_POINT('',(-15.1487706216678,-1.23743686707645,-136.049992273867));
#950=CARTESIAN_POINT('',(-15.6791007075577,9.10865087232708E-15,-136.049992273867));
#951=CARTESIAN_POINT('Origin',(-14.9719939263712,-1.41421356237309,-97.4639922738671));
#952=CARTESIAN_POINT('',(-16.3862074887443,9.64920996947073E-15,-140.463992273867));
#953=CARTESIAN_POINT('',(-15.1487706216678,-1.23743686707645,-140.463992273867));
#954=CARTESIAN_POINT('',(-16.3862074887443,5.2058448698653E-15,-108.713992273867));
#955=CARTESIAN_POINT('Origin',(-14.9719939263712,-0.707106781186539,-140.463992273867));
#956=CARTESIAN_POINT('',(-21.7219939263712,9.64920996947073E-15,-140.463992273867));
#957=CARTESIAN_POINT('Origin',(-55.9719939263712,9.89413932930019E-15,-142.463992273867));
#958=CARTESIAN_POINT('',(-55.9719939263712,9.89413932930019E-15,-142.463992273867));
#959=CARTESIAN_POINT('',(-55.9719939263712,9.89413932930019E-15,-142.463992273867));
#960=CARTESIAN_POINT('',(-55.9719939263712,-7.99999999999999,-142.463992273867));
#961=CARTESIAN_POINT('',(-55.9719939263712,-7.99999999999999,-142.463992273867));
#962=CARTESIAN_POINT('',(-55.9719939263712,9.89413932930019E-15,-142.463992273867));
#963=CARTESIAN_POINT('Origin',(-16.2219939263712,-0.999999999999993,-120.963992273867));
#964=CARTESIAN_POINT('',(-25.4719939263712,-0.999999999999992,-131.213992273867));
#965=CARTESIAN_POINT('',(-6.97199392637119,-0.999999999999992,-131.213992273867));
#966=CARTESIAN_POINT('',(-25.4719939263712,-0.999999999999992,-131.213992273867));
#967=CARTESIAN_POINT('',(-25.4719939263712,-0.999999999999994,-110.713992273867));
#968=CARTESIAN_POINT('',(-25.4719939263712,-0.999999999999994,-110.713992273867));
#969=CARTESIAN_POINT('',(-6.97199392637119,-0.999999999999994,-110.713992273867));
#970=CARTESIAN_POINT('',(-6.97199392637119,-0.999999999999994,-110.713992273867));
#971=CARTESIAN_POINT('',(-6.97199392637119,-0.999999999999992,-131.213992273867));
#972=CARTESIAN_POINT('Origin',(-28.4719939263712,7.13868403121865E-15,-119.963992273867));
#973=CARTESIAN_POINT('',(-55.9719939263712,4.3832287331371E-15,-97.4639922738671));
#974=CARTESIAN_POINT('',(-6.97199392637119,6.00588574200735E-15,-110.713992273867));
#975=CARTESIAN_POINT('',(-25.4719939263712,6.00588574200735E-15,-110.713992273867));
#976=CARTESIAN_POINT('',(-17.7219939263712,6.00588574200735E-15,-110.713992273867));
#977=CARTESIAN_POINT('',(-25.4719939263712,8.51641168025942E-15,-131.213992273867));
#978=CARTESIAN_POINT('',(-25.4719939263712,6.572284886613E-15,-115.338992273867));
#979=CARTESIAN_POINT('',(-6.97199392637119,8.51641168025942E-15,-131.213992273867));
#980=CARTESIAN_POINT('',(-26.9719939263712,8.51641168025942E-15,-131.213992273867));
#981=CARTESIAN_POINT('',(-6.97199392637119,7.82754785573904E-15,-125.588992273867));
#982=CARTESIAN_POINT('',(-34.7219939263712,6.00588574200735E-15,-110.713992273867));
#983=CARTESIAN_POINT('',(-53.2219939263712,6.00588574200735E-15,-110.713992273867));
#984=CARTESIAN_POINT('',(-31.5969939263712,6.00588574200735E-15,-110.713992273867));
#985=CARTESIAN_POINT('',(-53.2219939263712,8.27148232042995E-15,-129.213992273867));
#986=CARTESIAN_POINT('',(-53.2219939263712,6.572284886613E-15,-115.338992273867));
#987=CARTESIAN_POINT('',(-34.7219939263712,8.27148232042995E-15,-129.213992273867));
#988=CARTESIAN_POINT('',(-40.8469939263712,8.27148232042995E-15,-129.213992273867));
#989=CARTESIAN_POINT('',(-34.7219939263712,7.7050831758243E-15,-124.588992273867));
#990=CARTESIAN_POINT('Origin',(-25.4719939263712,8.51641168025942E-15,-131.213992273867));
#991=CARTESIAN_POINT('',(-25.4719939263712,8.51641168025942E-15,-131.213992273867));
#992=CARTESIAN_POINT('',(-6.97199392637119,8.51641168025942E-15,-131.213992273867));
#993=CARTESIAN_POINT('Origin',(-6.97199392637119,6.00588574200735E-15,-110.713992273867));
#994=CARTESIAN_POINT('',(-25.4719939263712,6.00588574200735E-15,-110.713992273867));
#995=CARTESIAN_POINT('',(-6.97199392637119,6.00588574200735E-15,-110.713992273867));
#996=CARTESIAN_POINT('Origin',(-6.97199392637119,8.51641168025942E-15,-131.213992273867));
#997=CARTESIAN_POINT('Origin',(-25.4719939263712,6.00588574200735E-15,-110.713992273867));
#998=CARTESIAN_POINT('Origin',(-34.7219939263712,6.00588574200735E-15,-110.713992273867));
#999=CARTESIAN_POINT('',(-34.7219939263712,-0.499999999999994,-110.713992273867));
#1000=CARTESIAN_POINT('',(-34.7219939263712,6.00588574200735E-15,-110.713992273867));
#1001=CARTESIAN_POINT('',(-53.2219939263712,-0.499999999999994,-110.713992273867));
#1002=CARTESIAN_POINT('',(-34.7219939263712,-0.499999999999994,-110.713992273867));
#1003=CARTESIAN_POINT('',(-53.2219939263712,6.00588574200735E-15,-110.713992273867));
#1004=CARTESIAN_POINT('Origin',(-34.7219939263712,8.27148232042995E-15,
-129.213992273867));
#1005=CARTESIAN_POINT('',(-34.7219939263712,-0.499999999999992,-129.213992273867));
#1006=CARTESIAN_POINT('',(-34.7219939263712,8.27148232042995E-15,-129.213992273867));
#1007=CARTESIAN_POINT('',(-34.7219939263712,-0.499999999999992,-129.213992273867));
#1008=CARTESIAN_POINT('Origin',(-53.2219939263712,8.27148232042995E-15,
-129.213992273867));
#1009=CARTESIAN_POINT('',(-53.2219939263712,-0.499999999999992,-129.213992273867));
#1010=CARTESIAN_POINT('',(-53.2219939263712,8.27148232042995E-15,-129.213992273867));
#1011=CARTESIAN_POINT('',(-53.2219939263712,-0.499999999999992,-129.213992273867));
#1012=CARTESIAN_POINT('Origin',(-53.2219939263712,6.00588574200735E-15,
-110.713992273867));
#1013=CARTESIAN_POINT('',(-53.2219939263712,-0.499999999999994,-110.713992273867));
#1014=CARTESIAN_POINT('Origin',(-43.9719939263712,-0.499999999999993,-119.963992273867));
#1015=CARTESIAN_POINT('Origin',(-55.9719939263712,4.3832287331371E-15,-97.4639922738671));
#1016=CARTESIAN_POINT('',(-55.9719939263712,-8.,-97.4639922738671));
#1017=CARTESIAN_POINT('Origin',(-28.4719939263712,-7.99999999999999,-119.963992273867));
#1018=UNCERTAINTY_MEASURE_WITH_UNIT(LENGTH_MEASURE(0.01),#1022,
'DISTANCE_ACCURACY_VALUE',
'Maximum model space distance between geometric entities at asserted c
onnectivities');
#1019=UNCERTAINTY_MEASURE_WITH_UNIT(LENGTH_MEASURE(0.01),#1022,
'DISTANCE_ACCURACY_VALUE',
'Maximum model space distance between geometric entities at asserted c
onnectivities');
#1020=(
GEOMETRIC_REPRESENTATION_CONTEXT(3)
GLOBAL_UNCERTAINTY_ASSIGNED_CONTEXT((#1018))
GLOBAL_UNIT_ASSIGNED_CONTEXT((#1022,#1024,#1025))
REPRESENTATION_CONTEXT('','3D')
);
#1021=(
GEOMETRIC_REPRESENTATION_CONTEXT(3)
GLOBAL_UNCERTAINTY_ASSIGNED_CONTEXT((#1019))
GLOBAL_UNIT_ASSIGNED_CONTEXT((#1022,#1024,#1025))
REPRESENTATION_CONTEXT('','3D')
);
#1022=(
LENGTH_UNIT()
NAMED_UNIT(*)
SI_UNIT(.MILLI.,.METRE.)
);
#1023=(
LENGTH_UNIT()
NAMED_UNIT(*)
SI_UNIT($,.METRE.)
);
#1024=(
NAMED_UNIT(*)
PLANE_ANGLE_UNIT()
SI_UNIT($,.RADIAN.)
);
#1025=(
NAMED_UNIT(*)
SI_UNIT($,.STERADIAN.)
SOLID_ANGLE_UNIT()
);
#1026=SHAPE_DEFINITION_REPRESENTATION(#1027,#1028);
#1027=PRODUCT_DEFINITION_SHAPE('',$,#1030);
#1028=SHAPE_REPRESENTATION('',(#630),#1020);
#1029=PRODUCT_DEFINITION_CONTEXT('part definition',#1034,'design');
#1030=PRODUCT_DEFINITION('\X2\626B63CF79FB52A85E7353F0\X0\',
'\X2\626B63CF79FB52A85E7353F0\X0\',#1031,#1029);
#1031=PRODUCT_DEFINITION_FORMATION('',$,#1036);
#1032=PRODUCT_RELATED_PRODUCT_CATEGORY('\X2\626B63CF79FB52A85E7353F0\X0\',
'\X2\626B63CF79FB52A85E7353F0\X0\',(#1036));
#1033=APPLICATION_PROTOCOL_DEFINITION('international standard',
'automotive_design',2009,#1034);
#1034=APPLICATION_CONTEXT(
'Core Data for Automotive Mechanical Design Process');
#1035=PRODUCT_CONTEXT('part definition',#1034,'mechanical');
#1036=PRODUCT('\X2\626B63CF79FB52A85E7353F0\X0\','\X2\626B63CF79FB52A85E7353F0\X0\',
$,(#1035));
#1037=PRESENTATION_STYLE_ASSIGNMENT((#1039));
#1038=PRESENTATION_STYLE_ASSIGNMENT((#1040));
#1039=SURFACE_STYLE_USAGE(.BOTH.,#1041);
#1040=SURFACE_STYLE_USAGE(.BOTH.,#1042);
#1041=SURFACE_SIDE_STYLE('',(#1043));
#1042=SURFACE_SIDE_STYLE('',(#1044));
#1043=SURFACE_STYLE_FILL_AREA(#1045);
#1044=SURFACE_STYLE_FILL_AREA(#1046);
#1045=FILL_AREA_STYLE('\X2\9EC494DC\X0\ - \X2\629B5149\X0\',(#1047));
#1046=FILL_AREA_STYLE(
'EPX 150 - \X2\7A7A6C1470D87119\X0\(\X2\5E266709\X0\ Carbon M2 M3 L1 3
D \X2\62535370673A\X0\)',(#1048));
#1047=FILL_AREA_STYLE_COLOUR('\X2\9EC494DC\X0\ - \X2\629B5149\X0\',#1049);
#1048=FILL_AREA_STYLE_COLOUR(
'EPX 150 - \X2\7A7A6C1470D87119\X0\(\X2\5E266709\X0\ Carbon M2 M3 L1 3
D \X2\62535370673A\X0\)',#1050);
#1049=COLOUR_RGB('\X2\9EC494DC\X0\ - \X2\629B5149\X0\',0.952941176470588,
0.796078431372549,0.486274509803922);
#1050=COLOUR_RGB(
'EPX 150 - \X2\7A7A6C1470D87119\X0\(\X2\5E266709\X0\ Carbon M2 M3 L1 3
D \X2\62535370673A\X0\)',0.247058823529412,0.247058823529412,0.247058823529412);
ENDSEC;
END-ISO-10303-21;
