ISO-10303-21;
HEADER;
/* Generated by software containing ST-Developer
 * from STEP Tools, Inc. (www.steptools.com) 
 */

FILE_DESCRIPTION(
/* description */ (''),
/* implementation_level */ '2;1');

FILE_NAME(
/* name */ '',
/* time_stamp */ '2026-04-26T01:41:09+08:00',
/* author */ (''),
/* organization */ (''),
/* preprocessor_version */ 'ST-DEVELOPER v20.1',
/* originating_system */ 'Autodesk Translation Framework v14.24.0.0',
/* authorisation */ '');

FILE_SCHEMA (('AUTOMOTIVE_DESIGN { 1 0 10303 214 3 1 1 }'));
ENDSEC;

DATA;
#10=MECHANICAL_DESIGN_GEOMETRIC_PRESENTATION_REPRESENTATION('',(#13),#809);
#11=SHAPE_REPRESENTATION_RELATIONSHIP('SRR','None',#816,#12);
#12=ADVANCED_BREP_SHAPE_REPRESENTATION('',(#14),#808);
#13=STYLED_ITEM('',(#825),#14);
#14=MANIFOLD_SOLID_BREP('\X2\5B9E4F53\X0\1',#465);
#15=FACE_BOUND('',#81,.T.);
#16=FACE_BOUND('',#84,.T.);
#17=FACE_BOUND('',#87,.T.);
#18=FACE_BOUND('',#97,.T.);
#19=FACE_BOUND('',#98,.T.);
#20=FACE_BOUND('',#99,.T.);
#21=FACE_BOUND('',#100,.T.);
#22=FACE_BOUND('',#101,.T.);
#23=FACE_BOUND('',#102,.T.);
#24=FACE_BOUND('',#103,.T.);
#25=FACE_BOUND('',#104,.T.);
#26=FACE_BOUND('',#105,.T.);
#27=FACE_BOUND('',#107,.T.);
#28=FACE_BOUND('',#108,.T.);
#29=FACE_BOUND('',#109,.T.);
#30=FACE_BOUND('',#110,.T.);
#31=FACE_BOUND('',#111,.T.);
#32=FACE_BOUND('',#112,.T.);
#33=FACE_BOUND('',#113,.T.);
#34=FACE_BOUND('',#114,.T.);
#35=FACE_BOUND('',#115,.T.);
#36=PLANE('',#482);
#37=PLANE('',#486);
#38=PLANE('',#490);
#39=PLANE('',#494);
#40=PLANE('',#501);
#41=PLANE('',#506);
#42=PLANE('',#511);
#43=PLANE('',#534);
#44=PLANE('',#535);
#45=FACE_OUTER_BOUND('',#70,.T.);
#46=FACE_OUTER_BOUND('',#71,.T.);
#47=FACE_OUTER_BOUND('',#72,.T.);
#48=FACE_OUTER_BOUND('',#73,.T.);
#49=FACE_OUTER_BOUND('',#74,.T.);
#50=FACE_OUTER_BOUND('',#75,.T.);
#51=FACE_OUTER_BOUND('',#76,.T.);
#52=FACE_OUTER_BOUND('',#77,.T.);
#53=FACE_OUTER_BOUND('',#78,.T.);
#54=FACE_OUTER_BOUND('',#79,.T.);
#55=FACE_OUTER_BOUND('',#80,.T.);
#56=FACE_OUTER_BOUND('',#82,.T.);
#57=FACE_OUTER_BOUND('',#83,.T.);
#58=FACE_OUTER_BOUND('',#85,.T.);
#59=FACE_OUTER_BOUND('',#86,.T.);
#60=FACE_OUTER_BOUND('',#88,.T.);
#61=FACE_OUTER_BOUND('',#89,.T.);
#62=FACE_OUTER_BOUND('',#90,.T.);
#63=FACE_OUTER_BOUND('',#91,.T.);
#64=FACE_OUTER_BOUND('',#92,.T.);
#65=FACE_OUTER_BOUND('',#93,.T.);
#66=FACE_OUTER_BOUND('',#94,.T.);
#67=FACE_OUTER_BOUND('',#95,.T.);
#68=FACE_OUTER_BOUND('',#96,.T.);
#69=FACE_OUTER_BOUND('',#106,.T.);
#70=EDGE_LOOP('',(#304,#305,#306,#307));
#71=EDGE_LOOP('',(#308,#309,#310,#311));
#72=EDGE_LOOP('',(#312,#313,#314,#315));
#73=EDGE_LOOP('',(#316,#317,#318,#319));
#74=EDGE_LOOP('',(#320,#321,#322,#323));
#75=EDGE_LOOP('',(#324,#325,#326,#327));
#76=EDGE_LOOP('',(#328,#329,#330,#331));
#77=EDGE_LOOP('',(#332,#333,#334,#335));
#78=EDGE_LOOP('',(#336,#337,#338,#339));
#79=EDGE_LOOP('',(#340,#341,#342,#343));
#80=EDGE_LOOP('',(#344));
#81=EDGE_LOOP('',(#345));
#82=EDGE_LOOP('',(#346,#347,#348,#349));
#83=EDGE_LOOP('',(#350));
#84=EDGE_LOOP('',(#351));
#85=EDGE_LOOP('',(#352,#353,#354,#355));
#86=EDGE_LOOP('',(#356));
#87=EDGE_LOOP('',(#357));
#88=EDGE_LOOP('',(#358,#359,#360,#361));
#89=EDGE_LOOP('',(#362,#363,#364,#365));
#90=EDGE_LOOP('',(#366,#367,#368,#369));
#91=EDGE_LOOP('',(#370,#371,#372,#373));
#92=EDGE_LOOP('',(#374,#375,#376,#377));
#93=EDGE_LOOP('',(#378,#379,#380,#381));
#94=EDGE_LOOP('',(#382,#383,#384,#385));
#95=EDGE_LOOP('',(#386,#387,#388,#389));
#96=EDGE_LOOP('',(#390));
#97=EDGE_LOOP('',(#391));
#98=EDGE_LOOP('',(#392,#393,#394,#395,#396,#397,#398,#399));
#99=EDGE_LOOP('',(#400));
#100=EDGE_LOOP('',(#401));
#101=EDGE_LOOP('',(#402));
#102=EDGE_LOOP('',(#403));
#103=EDGE_LOOP('',(#404));
#104=EDGE_LOOP('',(#405));
#105=EDGE_LOOP('',(#406));
#106=EDGE_LOOP('',(#407));
#107=EDGE_LOOP('',(#408));
#108=EDGE_LOOP('',(#409,#410,#411,#412,#413,#414,#415,#416));
#109=EDGE_LOOP('',(#417));
#110=EDGE_LOOP('',(#418));
#111=EDGE_LOOP('',(#419));
#112=EDGE_LOOP('',(#420));
#113=EDGE_LOOP('',(#421));
#114=EDGE_LOOP('',(#422));
#115=EDGE_LOOP('',(#423));
#116=LINE('',#685,#144);
#117=LINE('',#690,#145);
#118=LINE('',#692,#146);
#119=LINE('',#694,#147);
#120=LINE('',#695,#148);
#121=LINE('',#701,#149);
#122=LINE('',#704,#150);
#123=LINE('',#706,#151);
#124=LINE('',#707,#152);
#125=LINE('',#713,#153);
#126=LINE('',#716,#154);
#127=LINE('',#718,#155);
#128=LINE('',#719,#156);
#129=LINE('',#725,#157);
#130=LINE('',#728,#158);
#131=LINE('',#730,#159);
#132=LINE('',#731,#160);
#133=LINE('',#739,#161);
#134=LINE('',#748,#162);
#135=LINE('',#757,#163);
#136=LINE('',#764,#164);
#137=LINE('',#768,#165);
#138=LINE('',#772,#166);
#139=LINE('',#778,#167);
#140=LINE('',#784,#168);
#141=LINE('',#790,#169);
#142=LINE('',#796,#170);
#143=LINE('',#802,#171);
#144=VECTOR('',#542,1.25);
#145=VECTOR('',#547,10.);
#146=VECTOR('',#548,10.);
#147=VECTOR('',#549,10.);
#148=VECTOR('',#550,10.);
#149=VECTOR('',#557,10.);
#150=VECTOR('',#560,10.);
#151=VECTOR('',#561,10.);
#152=VECTOR('',#562,10.);
#153=VECTOR('',#569,10.);
#154=VECTOR('',#572,10.);
#155=VECTOR('',#573,10.);
#156=VECTOR('',#574,10.);
#157=VECTOR('',#581,10.);
#158=VECTOR('',#584,10.);
#159=VECTOR('',#585,10.);
#160=VECTOR('',#586,10.);
#161=VECTOR('',#597,1.55);
#162=VECTOR('',#608,1.55);
#163=VECTOR('',#619,1.55);
#164=VECTOR('',#628,5.00000000000001);
#165=VECTOR('',#633,5.);
#166=VECTOR('',#638,4.99999999999999);
#167=VECTOR('',#645,1.25);
#168=VECTOR('',#652,1.25);
#169=VECTOR('',#659,1.25);
#170=VECTOR('',#666,1.25);
#171=VECTOR('',#673,100.);
#172=CIRCLE('',#480,1.25);
#173=CIRCLE('',#481,1.25);
#174=CIRCLE('',#484,4.99999999999999);
#175=CIRCLE('',#485,4.99999999999999);
#176=CIRCLE('',#488,4.99999999999999);
#177=CIRCLE('',#489,4.99999999999999);
#178=CIRCLE('',#492,5.);
#179=CIRCLE('',#493,5.);
#180=CIRCLE('',#496,5.);
#181=CIRCLE('',#497,5.);
#182=CIRCLE('',#499,1.55);
#183=CIRCLE('',#500,1.55);
#184=CIRCLE('',#502,5.00000000000001);
#185=CIRCLE('',#504,1.55);
#186=CIRCLE('',#505,1.55);
#187=CIRCLE('',#507,4.99999999999999);
#188=CIRCLE('',#509,1.55);
#189=CIRCLE('',#510,1.55);
#190=CIRCLE('',#512,5.);
#191=CIRCLE('',#514,5.00000000000001);
#192=CIRCLE('',#516,5.);
#193=CIRCLE('',#518,4.99999999999999);
#194=CIRCLE('',#520,1.25);
#195=CIRCLE('',#521,1.25);
#196=CIRCLE('',#523,1.25);
#197=CIRCLE('',#524,1.25);
#198=CIRCLE('',#526,1.25);
#199=CIRCLE('',#527,1.25);
#200=CIRCLE('',#529,1.25);
#201=CIRCLE('',#530,1.25);
#202=CIRCLE('',#532,100.);
#203=CIRCLE('',#533,100.);
#204=VERTEX_POINT('',#682);
#205=VERTEX_POINT('',#684);
#206=VERTEX_POINT('',#688);
#207=VERTEX_POINT('',#689);
#208=VERTEX_POINT('',#691);
#209=VERTEX_POINT('',#693);
#210=VERTEX_POINT('',#697);
#211=VERTEX_POINT('',#699);
#212=VERTEX_POINT('',#703);
#213=VERTEX_POINT('',#705);
#214=VERTEX_POINT('',#709);
#215=VERTEX_POINT('',#711);
#216=VERTEX_POINT('',#715);
#217=VERTEX_POINT('',#717);
#218=VERTEX_POINT('',#721);
#219=VERTEX_POINT('',#723);
#220=VERTEX_POINT('',#727);
#221=VERTEX_POINT('',#729);
#222=VERTEX_POINT('',#736);
#223=VERTEX_POINT('',#738);
#224=VERTEX_POINT('',#742);
#225=VERTEX_POINT('',#745);
#226=VERTEX_POINT('',#747);
#227=VERTEX_POINT('',#751);
#228=VERTEX_POINT('',#754);
#229=VERTEX_POINT('',#756);
#230=VERTEX_POINT('',#760);
#231=VERTEX_POINT('',#763);
#232=VERTEX_POINT('',#767);
#233=VERTEX_POINT('',#771);
#234=VERTEX_POINT('',#775);
#235=VERTEX_POINT('',#777);
#236=VERTEX_POINT('',#781);
#237=VERTEX_POINT('',#783);
#238=VERTEX_POINT('',#787);
#239=VERTEX_POINT('',#789);
#240=VERTEX_POINT('',#793);
#241=VERTEX_POINT('',#795);
#242=VERTEX_POINT('',#799);
#243=VERTEX_POINT('',#801);
#244=EDGE_CURVE('',#204,#204,#172,.T.);
#245=EDGE_CURVE('',#204,#205,#116,.T.);
#246=EDGE_CURVE('',#205,#205,#173,.T.);
#247=EDGE_CURVE('',#206,#207,#117,.T.);
#248=EDGE_CURVE('',#208,#206,#118,.T.);
#249=EDGE_CURVE('',#209,#208,#119,.T.);
#250=EDGE_CURVE('',#209,#207,#120,.T.);
#251=EDGE_CURVE('',#207,#210,#174,.T.);
#252=EDGE_CURVE('',#211,#209,#175,.T.);
#253=EDGE_CURVE('',#211,#210,#121,.T.);
#254=EDGE_CURVE('',#210,#212,#122,.T.);
#255=EDGE_CURVE('',#213,#211,#123,.T.);
#256=EDGE_CURVE('',#213,#212,#124,.T.);
#257=EDGE_CURVE('',#212,#214,#176,.T.);
#258=EDGE_CURVE('',#215,#213,#177,.T.);
#259=EDGE_CURVE('',#215,#214,#125,.T.);
#260=EDGE_CURVE('',#214,#216,#126,.T.);
#261=EDGE_CURVE('',#217,#215,#127,.T.);
#262=EDGE_CURVE('',#217,#216,#128,.T.);
#263=EDGE_CURVE('',#216,#218,#178,.T.);
#264=EDGE_CURVE('',#219,#217,#179,.T.);
#265=EDGE_CURVE('',#219,#218,#129,.T.);
#266=EDGE_CURVE('',#218,#220,#130,.T.);
#267=EDGE_CURVE('',#221,#219,#131,.T.);
#268=EDGE_CURVE('',#221,#220,#132,.T.);
#269=EDGE_CURVE('',#220,#206,#180,.T.);
#270=EDGE_CURVE('',#208,#221,#181,.T.);
#271=EDGE_CURVE('',#222,#222,#182,.T.);
#272=EDGE_CURVE('',#222,#223,#133,.T.);
#273=EDGE_CURVE('',#223,#223,#183,.T.);
#274=EDGE_CURVE('',#224,#224,#184,.T.);
#275=EDGE_CURVE('',#225,#225,#185,.T.);
#276=EDGE_CURVE('',#225,#226,#134,.T.);
#277=EDGE_CURVE('',#226,#226,#186,.T.);
#278=EDGE_CURVE('',#227,#227,#187,.T.);
#279=EDGE_CURVE('',#228,#228,#188,.T.);
#280=EDGE_CURVE('',#228,#229,#135,.T.);
#281=EDGE_CURVE('',#229,#229,#189,.T.);
#282=EDGE_CURVE('',#230,#230,#190,.T.);
#283=EDGE_CURVE('',#224,#231,#136,.T.);
#284=EDGE_CURVE('',#231,#231,#191,.T.);
#285=EDGE_CURVE('',#230,#232,#137,.T.);
#286=EDGE_CURVE('',#232,#232,#192,.T.);
#287=EDGE_CURVE('',#227,#233,#138,.T.);
#288=EDGE_CURVE('',#233,#233,#193,.T.);
#289=EDGE_CURVE('',#234,#234,#194,.T.);
#290=EDGE_CURVE('',#234,#235,#139,.T.);
#291=EDGE_CURVE('',#235,#235,#195,.T.);
#292=EDGE_CURVE('',#236,#236,#196,.T.);
#293=EDGE_CURVE('',#236,#237,#140,.T.);
#294=EDGE_CURVE('',#237,#237,#197,.T.);
#295=EDGE_CURVE('',#238,#238,#198,.T.);
#296=EDGE_CURVE('',#238,#239,#141,.T.);
#297=EDGE_CURVE('',#239,#239,#199,.T.);
#298=EDGE_CURVE('',#240,#240,#200,.T.);
#299=EDGE_CURVE('',#240,#241,#142,.T.);
#300=EDGE_CURVE('',#241,#241,#201,.T.);
#301=EDGE_CURVE('',#242,#242,#202,.T.);
#302=EDGE_CURVE('',#242,#243,#143,.T.);
#303=EDGE_CURVE('',#243,#243,#203,.T.);
#304=ORIENTED_EDGE('',*,*,#244,.F.);
#305=ORIENTED_EDGE('',*,*,#245,.T.);
#306=ORIENTED_EDGE('',*,*,#246,.F.);
#307=ORIENTED_EDGE('',*,*,#245,.F.);
#308=ORIENTED_EDGE('',*,*,#247,.F.);
#309=ORIENTED_EDGE('',*,*,#248,.F.);
#310=ORIENTED_EDGE('',*,*,#249,.F.);
#311=ORIENTED_EDGE('',*,*,#250,.T.);
#312=ORIENTED_EDGE('',*,*,#251,.F.);
#313=ORIENTED_EDGE('',*,*,#250,.F.);
#314=ORIENTED_EDGE('',*,*,#252,.F.);
#315=ORIENTED_EDGE('',*,*,#253,.T.);
#316=ORIENTED_EDGE('',*,*,#254,.F.);
#317=ORIENTED_EDGE('',*,*,#253,.F.);
#318=ORIENTED_EDGE('',*,*,#255,.F.);
#319=ORIENTED_EDGE('',*,*,#256,.T.);
#320=ORIENTED_EDGE('',*,*,#257,.F.);
#321=ORIENTED_EDGE('',*,*,#256,.F.);
#322=ORIENTED_EDGE('',*,*,#258,.F.);
#323=ORIENTED_EDGE('',*,*,#259,.T.);
#324=ORIENTED_EDGE('',*,*,#260,.F.);
#325=ORIENTED_EDGE('',*,*,#259,.F.);
#326=ORIENTED_EDGE('',*,*,#261,.F.);
#327=ORIENTED_EDGE('',*,*,#262,.T.);
#328=ORIENTED_EDGE('',*,*,#263,.F.);
#329=ORIENTED_EDGE('',*,*,#262,.F.);
#330=ORIENTED_EDGE('',*,*,#264,.F.);
#331=ORIENTED_EDGE('',*,*,#265,.T.);
#332=ORIENTED_EDGE('',*,*,#266,.F.);
#333=ORIENTED_EDGE('',*,*,#265,.F.);
#334=ORIENTED_EDGE('',*,*,#267,.F.);
#335=ORIENTED_EDGE('',*,*,#268,.T.);
#336=ORIENTED_EDGE('',*,*,#269,.F.);
#337=ORIENTED_EDGE('',*,*,#268,.F.);
#338=ORIENTED_EDGE('',*,*,#270,.F.);
#339=ORIENTED_EDGE('',*,*,#248,.T.);
#340=ORIENTED_EDGE('',*,*,#271,.F.);
#341=ORIENTED_EDGE('',*,*,#272,.T.);
#342=ORIENTED_EDGE('',*,*,#273,.F.);
#343=ORIENTED_EDGE('',*,*,#272,.F.);
#344=ORIENTED_EDGE('',*,*,#274,.F.);
#345=ORIENTED_EDGE('',*,*,#271,.T.);
#346=ORIENTED_EDGE('',*,*,#275,.F.);
#347=ORIENTED_EDGE('',*,*,#276,.T.);
#348=ORIENTED_EDGE('',*,*,#277,.F.);
#349=ORIENTED_EDGE('',*,*,#276,.F.);
#350=ORIENTED_EDGE('',*,*,#278,.F.);
#351=ORIENTED_EDGE('',*,*,#275,.T.);
#352=ORIENTED_EDGE('',*,*,#279,.F.);
#353=ORIENTED_EDGE('',*,*,#280,.T.);
#354=ORIENTED_EDGE('',*,*,#281,.F.);
#355=ORIENTED_EDGE('',*,*,#280,.F.);
#356=ORIENTED_EDGE('',*,*,#282,.F.);
#357=ORIENTED_EDGE('',*,*,#279,.T.);
#358=ORIENTED_EDGE('',*,*,#274,.T.);
#359=ORIENTED_EDGE('',*,*,#283,.T.);
#360=ORIENTED_EDGE('',*,*,#284,.F.);
#361=ORIENTED_EDGE('',*,*,#283,.F.);
#362=ORIENTED_EDGE('',*,*,#282,.T.);
#363=ORIENTED_EDGE('',*,*,#285,.T.);
#364=ORIENTED_EDGE('',*,*,#286,.F.);
#365=ORIENTED_EDGE('',*,*,#285,.F.);
#366=ORIENTED_EDGE('',*,*,#278,.T.);
#367=ORIENTED_EDGE('',*,*,#287,.T.);
#368=ORIENTED_EDGE('',*,*,#288,.F.);
#369=ORIENTED_EDGE('',*,*,#287,.F.);
#370=ORIENTED_EDGE('',*,*,#289,.F.);
#371=ORIENTED_EDGE('',*,*,#290,.T.);
#372=ORIENTED_EDGE('',*,*,#291,.F.);
#373=ORIENTED_EDGE('',*,*,#290,.F.);
#374=ORIENTED_EDGE('',*,*,#292,.F.);
#375=ORIENTED_EDGE('',*,*,#293,.T.);
#376=ORIENTED_EDGE('',*,*,#294,.F.);
#377=ORIENTED_EDGE('',*,*,#293,.F.);
#378=ORIENTED_EDGE('',*,*,#295,.F.);
#379=ORIENTED_EDGE('',*,*,#296,.T.);
#380=ORIENTED_EDGE('',*,*,#297,.F.);
#381=ORIENTED_EDGE('',*,*,#296,.F.);
#382=ORIENTED_EDGE('',*,*,#298,.F.);
#383=ORIENTED_EDGE('',*,*,#299,.T.);
#384=ORIENTED_EDGE('',*,*,#300,.F.);
#385=ORIENTED_EDGE('',*,*,#299,.F.);
#386=ORIENTED_EDGE('',*,*,#301,.F.);
#387=ORIENTED_EDGE('',*,*,#302,.T.);
#388=ORIENTED_EDGE('',*,*,#303,.T.);
#389=ORIENTED_EDGE('',*,*,#302,.F.);
#390=ORIENTED_EDGE('',*,*,#301,.T.);
#391=ORIENTED_EDGE('',*,*,#244,.T.);
#392=ORIENTED_EDGE('',*,*,#261,.T.);
#393=ORIENTED_EDGE('',*,*,#258,.T.);
#394=ORIENTED_EDGE('',*,*,#255,.T.);
#395=ORIENTED_EDGE('',*,*,#252,.T.);
#396=ORIENTED_EDGE('',*,*,#249,.T.);
#397=ORIENTED_EDGE('',*,*,#270,.T.);
#398=ORIENTED_EDGE('',*,*,#267,.T.);
#399=ORIENTED_EDGE('',*,*,#264,.T.);
#400=ORIENTED_EDGE('',*,*,#273,.T.);
#401=ORIENTED_EDGE('',*,*,#277,.T.);
#402=ORIENTED_EDGE('',*,*,#281,.T.);
#403=ORIENTED_EDGE('',*,*,#289,.T.);
#404=ORIENTED_EDGE('',*,*,#292,.T.);
#405=ORIENTED_EDGE('',*,*,#295,.T.);
#406=ORIENTED_EDGE('',*,*,#298,.T.);
#407=ORIENTED_EDGE('',*,*,#303,.F.);
#408=ORIENTED_EDGE('',*,*,#246,.T.);
#409=ORIENTED_EDGE('',*,*,#260,.T.);
#410=ORIENTED_EDGE('',*,*,#263,.T.);
#411=ORIENTED_EDGE('',*,*,#266,.T.);
#412=ORIENTED_EDGE('',*,*,#269,.T.);
#413=ORIENTED_EDGE('',*,*,#247,.T.);
#414=ORIENTED_EDGE('',*,*,#251,.T.);
#415=ORIENTED_EDGE('',*,*,#254,.T.);
#416=ORIENTED_EDGE('',*,*,#257,.T.);
#417=ORIENTED_EDGE('',*,*,#284,.T.);
#418=ORIENTED_EDGE('',*,*,#286,.T.);
#419=ORIENTED_EDGE('',*,*,#288,.T.);
#420=ORIENTED_EDGE('',*,*,#291,.T.);
#421=ORIENTED_EDGE('',*,*,#294,.T.);
#422=ORIENTED_EDGE('',*,*,#297,.T.);
#423=ORIENTED_EDGE('',*,*,#300,.T.);
#424=CYLINDRICAL_SURFACE('',#479,1.25);
#425=CYLINDRICAL_SURFACE('',#483,4.99999999999999);
#426=CYLINDRICAL_SURFACE('',#487,4.99999999999999);
#427=CYLINDRICAL_SURFACE('',#491,5.);
#428=CYLINDRICAL_SURFACE('',#495,5.);
#429=CYLINDRICAL_SURFACE('',#498,1.55);
#430=CYLINDRICAL_SURFACE('',#503,1.55);
#431=CYLINDRICAL_SURFACE('',#508,1.55);
#432=CYLINDRICAL_SURFACE('',#513,5.00000000000001);
#433=CYLINDRICAL_SURFACE('',#515,5.);
#434=CYLINDRICAL_SURFACE('',#517,4.99999999999999);
#435=CYLINDRICAL_SURFACE('',#519,1.25);
#436=CYLINDRICAL_SURFACE('',#522,1.25);
#437=CYLINDRICAL_SURFACE('',#525,1.25);
#438=CYLINDRICAL_SURFACE('',#528,1.25);
#439=CYLINDRICAL_SURFACE('',#531,100.);
#440=ADVANCED_FACE('',(#45),#424,.F.);
#441=ADVANCED_FACE('',(#46),#36,.F.);
#442=ADVANCED_FACE('',(#47),#425,.F.);
#443=ADVANCED_FACE('',(#48),#37,.F.);
#444=ADVANCED_FACE('',(#49),#426,.F.);
#445=ADVANCED_FACE('',(#50),#38,.F.);
#446=ADVANCED_FACE('',(#51),#427,.F.);
#447=ADVANCED_FACE('',(#52),#39,.F.);
#448=ADVANCED_FACE('',(#53),#428,.F.);
#449=ADVANCED_FACE('',(#54),#429,.F.);
#450=ADVANCED_FACE('',(#55,#15),#40,.F.);
#451=ADVANCED_FACE('',(#56),#430,.F.);
#452=ADVANCED_FACE('',(#57,#16),#41,.F.);
#453=ADVANCED_FACE('',(#58),#431,.F.);
#454=ADVANCED_FACE('',(#59,#17),#42,.F.);
#455=ADVANCED_FACE('',(#60),#432,.F.);
#456=ADVANCED_FACE('',(#61),#433,.F.);
#457=ADVANCED_FACE('',(#62),#434,.F.);
#458=ADVANCED_FACE('',(#63),#435,.F.);
#459=ADVANCED_FACE('',(#64),#436,.F.);
#460=ADVANCED_FACE('',(#65),#437,.F.);
#461=ADVANCED_FACE('',(#66),#438,.F.);
#462=ADVANCED_FACE('',(#67),#439,.T.);
#463=ADVANCED_FACE('',(#68,#18,#19,#20,#21,#22,#23,#24,#25,#26),#43,.T.);
#464=ADVANCED_FACE('',(#69,#27,#28,#29,#30,#31,#32,#33,#34,#35),#44,.F.);
#465=CLOSED_SHELL('',(#440,#441,#442,#443,#444,#445,#446,#447,#448,#449,
#450,#451,#452,#453,#454,#455,#456,#457,#458,#459,#460,#461,#462,#463,#464));
#466=DERIVED_UNIT_ELEMENT(#468,1.);
#467=DERIVED_UNIT_ELEMENT(#811,-3.);
#468=(
MASS_UNIT()
NAMED_UNIT(*)
SI_UNIT(.KILO.,.GRAM.)
);
#469=DERIVED_UNIT((#466,#467));
#470=MEASURE_REPRESENTATION_ITEM('density measure',
POSITIVE_RATIO_MEASURE(7850.),#469);
#471=PROPERTY_DEFINITION_REPRESENTATION(#476,#473);
#472=PROPERTY_DEFINITION_REPRESENTATION(#477,#474);
#473=REPRESENTATION('material name',(#475),#808);
#474=REPRESENTATION('density',(#470),#808);
#475=DESCRIPTIVE_REPRESENTATION_ITEM('\X2\94A2\X0\','\X2\94A2\X0\');
#476=PROPERTY_DEFINITION('material property','material name',#818);
#477=PROPERTY_DEFINITION('material property','density of part',#818);
#478=AXIS2_PLACEMENT_3D('',#680,#536,#537);
#479=AXIS2_PLACEMENT_3D('',#681,#538,#539);
#480=AXIS2_PLACEMENT_3D('',#683,#540,#541);
#481=AXIS2_PLACEMENT_3D('',#686,#543,#544);
#482=AXIS2_PLACEMENT_3D('',#687,#545,#546);
#483=AXIS2_PLACEMENT_3D('',#696,#551,#552);
#484=AXIS2_PLACEMENT_3D('',#698,#553,#554);
#485=AXIS2_PLACEMENT_3D('',#700,#555,#556);
#486=AXIS2_PLACEMENT_3D('',#702,#558,#559);
#487=AXIS2_PLACEMENT_3D('',#708,#563,#564);
#488=AXIS2_PLACEMENT_3D('',#710,#565,#566);
#489=AXIS2_PLACEMENT_3D('',#712,#567,#568);
#490=AXIS2_PLACEMENT_3D('',#714,#570,#571);
#491=AXIS2_PLACEMENT_3D('',#720,#575,#576);
#492=AXIS2_PLACEMENT_3D('',#722,#577,#578);
#493=AXIS2_PLACEMENT_3D('',#724,#579,#580);
#494=AXIS2_PLACEMENT_3D('',#726,#582,#583);
#495=AXIS2_PLACEMENT_3D('',#732,#587,#588);
#496=AXIS2_PLACEMENT_3D('',#733,#589,#590);
#497=AXIS2_PLACEMENT_3D('',#734,#591,#592);
#498=AXIS2_PLACEMENT_3D('',#735,#593,#594);
#499=AXIS2_PLACEMENT_3D('',#737,#595,#596);
#500=AXIS2_PLACEMENT_3D('',#740,#598,#599);
#501=AXIS2_PLACEMENT_3D('',#741,#600,#601);
#502=AXIS2_PLACEMENT_3D('',#743,#602,#603);
#503=AXIS2_PLACEMENT_3D('',#744,#604,#605);
#504=AXIS2_PLACEMENT_3D('',#746,#606,#607);
#505=AXIS2_PLACEMENT_3D('',#749,#609,#610);
#506=AXIS2_PLACEMENT_3D('',#750,#611,#612);
#507=AXIS2_PLACEMENT_3D('',#752,#613,#614);
#508=AXIS2_PLACEMENT_3D('',#753,#615,#616);
#509=AXIS2_PLACEMENT_3D('',#755,#617,#618);
#510=AXIS2_PLACEMENT_3D('',#758,#620,#621);
#511=AXIS2_PLACEMENT_3D('',#759,#622,#623);
#512=AXIS2_PLACEMENT_3D('',#761,#624,#625);
#513=AXIS2_PLACEMENT_3D('',#762,#626,#627);
#514=AXIS2_PLACEMENT_3D('',#765,#629,#630);
#515=AXIS2_PLACEMENT_3D('',#766,#631,#632);
#516=AXIS2_PLACEMENT_3D('',#769,#634,#635);
#517=AXIS2_PLACEMENT_3D('',#770,#636,#637);
#518=AXIS2_PLACEMENT_3D('',#773,#639,#640);
#519=AXIS2_PLACEMENT_3D('',#774,#641,#642);
#520=AXIS2_PLACEMENT_3D('',#776,#643,#644);
#521=AXIS2_PLACEMENT_3D('',#779,#646,#647);
#522=AXIS2_PLACEMENT_3D('',#780,#648,#649);
#523=AXIS2_PLACEMENT_3D('',#782,#650,#651);
#524=AXIS2_PLACEMENT_3D('',#785,#653,#654);
#525=AXIS2_PLACEMENT_3D('',#786,#655,#656);
#526=AXIS2_PLACEMENT_3D('',#788,#657,#658);
#527=AXIS2_PLACEMENT_3D('',#791,#660,#661);
#528=AXIS2_PLACEMENT_3D('',#792,#662,#663);
#529=AXIS2_PLACEMENT_3D('',#794,#664,#665);
#530=AXIS2_PLACEMENT_3D('',#797,#667,#668);
#531=AXIS2_PLACEMENT_3D('',#798,#669,#670);
#532=AXIS2_PLACEMENT_3D('',#800,#671,#672);
#533=AXIS2_PLACEMENT_3D('',#803,#674,#675);
#534=AXIS2_PLACEMENT_3D('',#804,#676,#677);
#535=AXIS2_PLACEMENT_3D('',#805,#678,#679);
#536=DIRECTION('axis',(0.,0.,1.));
#537=DIRECTION('refdir',(1.,0.,0.));
#538=DIRECTION('center_axis',(0.,0.,-1.));
#539=DIRECTION('ref_axis',(1.,0.,0.));
#540=DIRECTION('center_axis',(0.,0.,-1.));
#541=DIRECTION('ref_axis',(1.,0.,0.));
#542=DIRECTION('',(0.,0.,-1.));
#543=DIRECTION('center_axis',(0.,0.,1.));
#544=DIRECTION('ref_axis',(1.,0.,0.));
#545=DIRECTION('center_axis',(-1.,0.,0.));
#546=DIRECTION('ref_axis',(0.,1.,0.));
#547=DIRECTION('',(0.,-1.,0.));
#548=DIRECTION('',(0.,0.,-1.));
#549=DIRECTION('',(0.,1.,0.));
#550=DIRECTION('',(0.,0.,-1.));
#551=DIRECTION('center_axis',(0.,0.,-1.));
#552=DIRECTION('ref_axis',(-1.,8.88178419700127E-16,0.));
#553=DIRECTION('center_axis',(0.,0.,1.));
#554=DIRECTION('ref_axis',(-1.,8.88178419700127E-16,0.));
#555=DIRECTION('center_axis',(0.,0.,-1.));
#556=DIRECTION('ref_axis',(-1.,8.88178419700127E-16,0.));
#557=DIRECTION('',(0.,0.,-1.));
#558=DIRECTION('center_axis',(0.,-1.,0.));
#559=DIRECTION('ref_axis',(-1.,0.,0.));
#560=DIRECTION('',(1.,0.,0.));
#561=DIRECTION('',(-1.,0.,0.));
#562=DIRECTION('',(0.,0.,-1.));
#563=DIRECTION('center_axis',(0.,0.,-1.));
#564=DIRECTION('ref_axis',(0.,-1.,0.));
#565=DIRECTION('center_axis',(0.,0.,1.));
#566=DIRECTION('ref_axis',(0.,-1.,0.));
#567=DIRECTION('center_axis',(0.,0.,-1.));
#568=DIRECTION('ref_axis',(0.,-1.,0.));
#569=DIRECTION('',(0.,0.,-1.));
#570=DIRECTION('center_axis',(1.,0.,0.));
#571=DIRECTION('ref_axis',(0.,-1.,0.));
#572=DIRECTION('',(0.,1.,0.));
#573=DIRECTION('',(0.,-1.,0.));
#574=DIRECTION('',(0.,0.,-1.));
#575=DIRECTION('center_axis',(0.,0.,-1.));
#576=DIRECTION('ref_axis',(1.,3.88578058618805E-16,0.));
#577=DIRECTION('center_axis',(0.,0.,1.));
#578=DIRECTION('ref_axis',(1.,3.88578058618805E-16,0.));
#579=DIRECTION('center_axis',(0.,0.,-1.));
#580=DIRECTION('ref_axis',(1.,3.88578058618805E-16,0.));
#581=DIRECTION('',(0.,0.,-1.));
#582=DIRECTION('center_axis',(0.,1.,0.));
#583=DIRECTION('ref_axis',(1.,0.,0.));
#584=DIRECTION('',(-1.,0.,0.));
#585=DIRECTION('',(1.,0.,0.));
#586=DIRECTION('',(0.,0.,-1.));
#587=DIRECTION('center_axis',(0.,0.,-1.));
#588=DIRECTION('ref_axis',(0.,1.,0.));
#589=DIRECTION('center_axis',(0.,0.,1.));
#590=DIRECTION('ref_axis',(0.,1.,0.));
#591=DIRECTION('center_axis',(0.,0.,-1.));
#592=DIRECTION('ref_axis',(0.,1.,0.));
#593=DIRECTION('center_axis',(0.,0.,-1.));
#594=DIRECTION('ref_axis',(-1.,0.,0.));
#595=DIRECTION('center_axis',(0.,0.,1.));
#596=DIRECTION('ref_axis',(-1.,0.,0.));
#597=DIRECTION('',(0.,0.,1.));
#598=DIRECTION('center_axis',(0.,0.,-1.));
#599=DIRECTION('ref_axis',(-1.,0.,0.));
#600=DIRECTION('center_axis',(0.,0.,1.));
#601=DIRECTION('ref_axis',(-1.,0.,0.));
#602=DIRECTION('center_axis',(0.,0.,1.));
#603=DIRECTION('ref_axis',(-1.,0.,0.));
#604=DIRECTION('center_axis',(0.,0.,-1.));
#605=DIRECTION('ref_axis',(-1.,0.,0.));
#606=DIRECTION('center_axis',(0.,0.,1.));
#607=DIRECTION('ref_axis',(-1.,0.,0.));
#608=DIRECTION('',(0.,0.,1.));
#609=DIRECTION('center_axis',(0.,0.,-1.));
#610=DIRECTION('ref_axis',(-1.,0.,0.));
#611=DIRECTION('center_axis',(0.,0.,1.));
#612=DIRECTION('ref_axis',(-1.,0.,0.));
#613=DIRECTION('center_axis',(0.,0.,1.));
#614=DIRECTION('ref_axis',(-1.,0.,0.));
#615=DIRECTION('center_axis',(0.,0.,-1.));
#616=DIRECTION('ref_axis',(-1.,0.,0.));
#617=DIRECTION('center_axis',(0.,0.,1.));
#618=DIRECTION('ref_axis',(-1.,0.,0.));
#619=DIRECTION('',(0.,0.,1.));
#620=DIRECTION('center_axis',(0.,0.,-1.));
#621=DIRECTION('ref_axis',(-1.,0.,0.));
#622=DIRECTION('center_axis',(0.,0.,1.));
#623=DIRECTION('ref_axis',(-1.,0.,0.));
#624=DIRECTION('center_axis',(0.,0.,1.));
#625=DIRECTION('ref_axis',(-1.,0.,0.));
#626=DIRECTION('center_axis',(0.,0.,-1.));
#627=DIRECTION('ref_axis',(-1.,0.,0.));
#628=DIRECTION('',(0.,0.,-1.));
#629=DIRECTION('center_axis',(0.,0.,1.));
#630=DIRECTION('ref_axis',(-1.,0.,0.));
#631=DIRECTION('center_axis',(0.,0.,-1.));
#632=DIRECTION('ref_axis',(-1.,0.,0.));
#633=DIRECTION('',(0.,0.,-1.));
#634=DIRECTION('center_axis',(0.,0.,1.));
#635=DIRECTION('ref_axis',(-1.,0.,0.));
#636=DIRECTION('center_axis',(0.,0.,-1.));
#637=DIRECTION('ref_axis',(-1.,0.,0.));
#638=DIRECTION('',(0.,0.,-1.));
#639=DIRECTION('center_axis',(0.,0.,1.));
#640=DIRECTION('ref_axis',(-1.,0.,0.));
#641=DIRECTION('center_axis',(0.,0.,-1.));
#642=DIRECTION('ref_axis',(-1.,0.,0.));
#643=DIRECTION('center_axis',(0.,0.,-1.));
#644=DIRECTION('ref_axis',(-1.,0.,0.));
#645=DIRECTION('',(0.,0.,-1.));
#646=DIRECTION('center_axis',(0.,0.,1.));
#647=DIRECTION('ref_axis',(-1.,0.,0.));
#648=DIRECTION('center_axis',(0.,0.,-1.));
#649=DIRECTION('ref_axis',(-1.,0.,0.));
#650=DIRECTION('center_axis',(0.,0.,-1.));
#651=DIRECTION('ref_axis',(-1.,0.,0.));
#652=DIRECTION('',(0.,0.,-1.));
#653=DIRECTION('center_axis',(0.,0.,1.));
#654=DIRECTION('ref_axis',(-1.,0.,0.));
#655=DIRECTION('center_axis',(0.,0.,-1.));
#656=DIRECTION('ref_axis',(-1.,0.,0.));
#657=DIRECTION('center_axis',(0.,0.,-1.));
#658=DIRECTION('ref_axis',(-1.,0.,0.));
#659=DIRECTION('',(0.,0.,-1.));
#660=DIRECTION('center_axis',(0.,0.,1.));
#661=DIRECTION('ref_axis',(-1.,0.,0.));
#662=DIRECTION('center_axis',(0.,0.,-1.));
#663=DIRECTION('ref_axis',(-1.,0.,0.));
#664=DIRECTION('center_axis',(0.,0.,-1.));
#665=DIRECTION('ref_axis',(-1.,0.,0.));
#666=DIRECTION('',(0.,0.,-1.));
#667=DIRECTION('center_axis',(0.,0.,1.));
#668=DIRECTION('ref_axis',(-1.,0.,0.));
#669=DIRECTION('center_axis',(0.,0.,1.));
#670=DIRECTION('ref_axis',(1.,0.,0.));
#671=DIRECTION('center_axis',(0.,0.,1.));
#672=DIRECTION('ref_axis',(1.,0.,0.));
#673=DIRECTION('',(0.,0.,-1.));
#674=DIRECTION('center_axis',(0.,0.,1.));
#675=DIRECTION('ref_axis',(1.,0.,0.));
#676=DIRECTION('center_axis',(0.,0.,1.));
#677=DIRECTION('ref_axis',(1.,0.,0.));
#678=DIRECTION('center_axis',(0.,0.,1.));
#679=DIRECTION('ref_axis',(1.,0.,0.));
#680=CARTESIAN_POINT('',(0.,0.,0.));
#681=CARTESIAN_POINT('Origin',(57.9590956275899,16.4693899806935,4.));
#682=CARTESIAN_POINT('',(56.7090956275899,16.4693899806935,8.));
#683=CARTESIAN_POINT('Origin',(57.9590956275899,16.4693899806935,8.));
#684=CARTESIAN_POINT('',(56.7090956275899,16.4693899806935,0.));
#685=CARTESIAN_POINT('',(56.7090956275899,16.4693899806935,4.));
#686=CARTESIAN_POINT('Origin',(57.9590956275899,16.4693899806935,0.));
#687=CARTESIAN_POINT('Origin',(50.0427236221434,-28.5395881354262,8.));
#688=CARTESIAN_POINT('',(50.0427236221434,1.93457137318386,0.));
#689=CARTESIAN_POINT('',(50.0427236221434,-28.5395881354262,0.));
#690=CARTESIAN_POINT('',(50.0427236221434,-14.2697940677131,0.));
#691=CARTESIAN_POINT('',(50.0427236221434,1.93457137318386,8.));
#692=CARTESIAN_POINT('',(50.0427236221434,1.93457137318386,8.));
#693=CARTESIAN_POINT('',(50.0427236221434,-28.5395881354262,8.));
#694=CARTESIAN_POINT('',(50.0427236221434,-14.2697940677131,8.));
#695=CARTESIAN_POINT('',(50.0427236221434,-28.5395881354262,8.));
#696=CARTESIAN_POINT('Origin',(55.0427236221434,-28.5395881354262,8.));
#697=CARTESIAN_POINT('',(55.0427236221434,-33.5395881354262,0.));
#698=CARTESIAN_POINT('Origin',(55.0427236221434,-28.5395881354262,0.));
#699=CARTESIAN_POINT('',(55.0427236221434,-33.5395881354262,8.));
#700=CARTESIAN_POINT('Origin',(55.0427236221434,-28.5395881354262,8.));
#701=CARTESIAN_POINT('',(55.0427236221434,-33.5395881354262,8.));
#702=CARTESIAN_POINT('Origin',(61.9211262392219,-33.5395881354262,8.));
#703=CARTESIAN_POINT('',(61.9211262392219,-33.5395881354262,0.));
#704=CARTESIAN_POINT('',(30.960563119611,-33.5395881354262,0.));
#705=CARTESIAN_POINT('',(61.9211262392219,-33.5395881354262,8.));
#706=CARTESIAN_POINT('',(30.960563119611,-33.5395881354262,8.));
#707=CARTESIAN_POINT('',(61.9211262392219,-33.5395881354262,8.));
#708=CARTESIAN_POINT('Origin',(61.9211262392219,-28.5395881354263,8.));
#709=CARTESIAN_POINT('',(66.9211262392219,-28.5395881354262,0.));
#710=CARTESIAN_POINT('Origin',(61.9211262392219,-28.5395881354263,0.));
#711=CARTESIAN_POINT('',(66.9211262392219,-28.5395881354262,8.));
#712=CARTESIAN_POINT('Origin',(61.9211262392219,-28.5395881354263,8.));
#713=CARTESIAN_POINT('',(66.9211262392219,-28.5395881354262,8.));
#714=CARTESIAN_POINT('Origin',(66.9211262392219,1.93457137318387,8.));
#715=CARTESIAN_POINT('',(66.9211262392219,1.93457137318387,0.));
#716=CARTESIAN_POINT('',(66.9211262392219,0.967285686591933,0.));
#717=CARTESIAN_POINT('',(66.9211262392219,1.93457137318387,8.));
#718=CARTESIAN_POINT('',(66.9211262392219,0.967285686591933,8.));
#719=CARTESIAN_POINT('',(66.9211262392219,1.93457137318387,8.));
#720=CARTESIAN_POINT('Origin',(61.9211262392219,1.93457137318386,8.));
#721=CARTESIAN_POINT('',(61.9211262392219,6.93457137318386,0.));
#722=CARTESIAN_POINT('Origin',(61.9211262392219,1.93457137318386,0.));
#723=CARTESIAN_POINT('',(61.9211262392219,6.93457137318386,8.));
#724=CARTESIAN_POINT('Origin',(61.9211262392219,1.93457137318386,8.));
#725=CARTESIAN_POINT('',(61.9211262392219,6.93457137318386,8.));
#726=CARTESIAN_POINT('Origin',(55.0427236221434,6.93457137318386,8.));
#727=CARTESIAN_POINT('',(55.0427236221434,6.93457137318386,0.));
#728=CARTESIAN_POINT('',(27.5213618110717,6.93457137318386,0.));
#729=CARTESIAN_POINT('',(55.0427236221434,6.93457137318386,8.));
#730=CARTESIAN_POINT('',(27.5213618110717,6.93457137318386,8.));
#731=CARTESIAN_POINT('',(55.0427236221434,6.93457137318386,8.));
#732=CARTESIAN_POINT('Origin',(55.0427236221434,1.93457137318387,8.));
#733=CARTESIAN_POINT('Origin',(55.0427236221434,1.93457137318387,0.));
#734=CARTESIAN_POINT('Origin',(55.0427236221434,1.93457137318387,8.));
#735=CARTESIAN_POINT('Origin',(-77.9422863405995,-45.,8.));
#736=CARTESIAN_POINT('',(-76.3922863405995,-45.,7.));
#737=CARTESIAN_POINT('Origin',(-77.9422863405995,-45.,7.));
#738=CARTESIAN_POINT('',(-76.3922863405995,-45.,8.));
#739=CARTESIAN_POINT('',(-76.3922863405995,-45.,8.));
#740=CARTESIAN_POINT('Origin',(-77.9422863405995,-45.,8.));
#741=CARTESIAN_POINT('Origin',(-77.9422863405995,-45.,7.));
#742=CARTESIAN_POINT('',(-72.9422863405995,-45.,7.));
#743=CARTESIAN_POINT('Origin',(-77.9422863405995,-45.,7.));
#744=CARTESIAN_POINT('Origin',(77.9422863405995,-45.,8.));
#745=CARTESIAN_POINT('',(79.4922863405995,-45.,7.));
#746=CARTESIAN_POINT('Origin',(77.9422863405995,-45.,7.));
#747=CARTESIAN_POINT('',(79.4922863405995,-45.,8.));
#748=CARTESIAN_POINT('',(79.4922863405995,-45.,8.));
#749=CARTESIAN_POINT('Origin',(77.9422863405995,-45.,8.));
#750=CARTESIAN_POINT('Origin',(77.9422863405995,-45.,7.));
#751=CARTESIAN_POINT('',(82.9422863405995,-45.,7.));
#752=CARTESIAN_POINT('Origin',(77.9422863405995,-45.,7.));
#753=CARTESIAN_POINT('Origin',(4.16333634234434E-15,90.,8.));
#754=CARTESIAN_POINT('',(1.55,90.,7.));
#755=CARTESIAN_POINT('Origin',(4.16333634234434E-15,90.,7.));
#756=CARTESIAN_POINT('',(1.55,90.,8.));
#757=CARTESIAN_POINT('',(1.55,90.,8.));
#758=CARTESIAN_POINT('Origin',(4.16333634234434E-15,90.,8.));
#759=CARTESIAN_POINT('Origin',(4.44089209850063E-15,90.,7.));
#760=CARTESIAN_POINT('',(5.00000000000001,90.,7.));
#761=CARTESIAN_POINT('Origin',(4.16333634234434E-15,90.,7.));
#762=CARTESIAN_POINT('Origin',(-77.9422863405995,-45.,8.));
#763=CARTESIAN_POINT('',(-72.9422863405995,-45.,0.));
#764=CARTESIAN_POINT('',(-72.9422863405995,-45.,8.));
#765=CARTESIAN_POINT('Origin',(-77.9422863405995,-45.,0.));
#766=CARTESIAN_POINT('Origin',(4.16333634234434E-15,90.,8.));
#767=CARTESIAN_POINT('',(5.00000000000001,90.,0.));
#768=CARTESIAN_POINT('',(5.00000000000001,90.,8.));
#769=CARTESIAN_POINT('Origin',(4.16333634234434E-15,90.,0.));
#770=CARTESIAN_POINT('Origin',(77.9422863405995,-45.,8.));
#771=CARTESIAN_POINT('',(82.9422863405995,-45.,0.));
#772=CARTESIAN_POINT('',(82.9422863405995,-45.,8.));
#773=CARTESIAN_POINT('Origin',(77.9422863405995,-45.,0.));
#774=CARTESIAN_POINT('Origin',(40.,31.,8.));
#775=CARTESIAN_POINT('',(41.25,31.,8.));
#776=CARTESIAN_POINT('Origin',(40.,31.,8.));
#777=CARTESIAN_POINT('',(41.25,31.,0.));
#778=CARTESIAN_POINT('',(41.25,31.,8.));
#779=CARTESIAN_POINT('Origin',(40.,31.,0.));
#780=CARTESIAN_POINT('Origin',(40.,-31.,8.));
#781=CARTESIAN_POINT('',(41.25,-31.,8.));
#782=CARTESIAN_POINT('Origin',(40.,-31.,8.));
#783=CARTESIAN_POINT('',(41.25,-31.,0.));
#784=CARTESIAN_POINT('',(41.25,-31.,8.));
#785=CARTESIAN_POINT('Origin',(40.,-31.,0.));
#786=CARTESIAN_POINT('Origin',(-22.,31.,8.));
#787=CARTESIAN_POINT('',(-20.75,31.,8.));
#788=CARTESIAN_POINT('Origin',(-22.,31.,8.));
#789=CARTESIAN_POINT('',(-20.75,31.,0.));
#790=CARTESIAN_POINT('',(-20.75,31.,8.));
#791=CARTESIAN_POINT('Origin',(-22.,31.,0.));
#792=CARTESIAN_POINT('Origin',(-22.,-31.,8.));
#793=CARTESIAN_POINT('',(-20.75,-31.,8.));
#794=CARTESIAN_POINT('Origin',(-22.,-31.,8.));
#795=CARTESIAN_POINT('',(-20.75,-31.,0.));
#796=CARTESIAN_POINT('',(-20.75,-31.,8.));
#797=CARTESIAN_POINT('Origin',(-22.,-31.,0.));
#798=CARTESIAN_POINT('Origin',(0.,0.,0.));
#799=CARTESIAN_POINT('',(-100.,-1.22464679914735E-14,8.));
#800=CARTESIAN_POINT('Origin',(0.,0.,8.));
#801=CARTESIAN_POINT('',(-100.,-1.22464679914735E-14,0.));
#802=CARTESIAN_POINT('',(-100.,-1.22464679914735E-14,0.));
#803=CARTESIAN_POINT('Origin',(0.,0.,0.));
#804=CARTESIAN_POINT('Origin',(0.,0.,8.));
#805=CARTESIAN_POINT('Origin',(0.,0.,0.));
#806=UNCERTAINTY_MEASURE_WITH_UNIT(LENGTH_MEASURE(0.01),#810,
'DISTANCE_ACCURACY_VALUE',
'Maximum model space distance between geometric entities at asserted c
onnectivities');
#807=UNCERTAINTY_MEASURE_WITH_UNIT(LENGTH_MEASURE(0.01),#810,
'DISTANCE_ACCURACY_VALUE',
'Maximum model space distance between geometric entities at asserted c
onnectivities');
#808=(
GEOMETRIC_REPRESENTATION_CONTEXT(3)
GLOBAL_UNCERTAINTY_ASSIGNED_CONTEXT((#806))
GLOBAL_UNIT_ASSIGNED_CONTEXT((#810,#812,#813))
REPRESENTATION_CONTEXT('','3D')
);
#809=(
GEOMETRIC_REPRESENTATION_CONTEXT(3)
GLOBAL_UNCERTAINTY_ASSIGNED_CONTEXT((#807))
GLOBAL_UNIT_ASSIGNED_CONTEXT((#810,#812,#813))
REPRESENTATION_CONTEXT('','3D')
);
#810=(
LENGTH_UNIT()
NAMED_UNIT(*)
SI_UNIT(.MILLI.,.METRE.)
);
#811=(
LENGTH_UNIT()
NAMED_UNIT(*)
SI_UNIT($,.METRE.)
);
#812=(
NAMED_UNIT(*)
PLANE_ANGLE_UNIT()
SI_UNIT($,.RADIAN.)
);
#813=(
NAMED_UNIT(*)
SI_UNIT($,.STERADIAN.)
SOLID_ANGLE_UNIT()
);
#814=SHAPE_DEFINITION_REPRESENTATION(#815,#816);
#815=PRODUCT_DEFINITION_SHAPE('',$,#818);
#816=SHAPE_REPRESENTATION('',(#478),#808);
#817=PRODUCT_DEFINITION_CONTEXT('part definition',#822,'design');
#818=PRODUCT_DEFINITION('CNC-STM-\X2\5E955EA7\X0\','CNC-STM-\X2\5E955EA7\X0\ 
v5',#819,#817);
#819=PRODUCT_DEFINITION_FORMATION('',$,#824);
#820=PRODUCT_RELATED_PRODUCT_CATEGORY('CNC-STM-\X2\5E955EA7\X0\ v5',
'CNC-STM-\X2\5E955EA7\X0\ v5',(#824));
#821=APPLICATION_PROTOCOL_DEFINITION('international standard',
'automotive_design',2009,#822);
#822=APPLICATION_CONTEXT(
'Core Data for Automotive Mechanical Design Process');
#823=PRODUCT_CONTEXT('part definition',#822,'mechanical');
#824=PRODUCT('CNC-STM-\X2\5E955EA7\X0\','CNC-STM-\X2\5E955EA7\X0\ v5',$,
(#823));
#825=PRESENTATION_STYLE_ASSIGNMENT((#826));
#826=SURFACE_STYLE_USAGE(.BOTH.,#827);
#827=SURFACE_SIDE_STYLE('',(#828));
#828=SURFACE_STYLE_FILL_AREA(#829);
#829=FILL_AREA_STYLE('\X2\94A2\X0\ - \X2\7F0E5149\X0\',(#830));
#830=FILL_AREA_STYLE_COLOUR('\X2\94A2\X0\ - \X2\7F0E5149\X0\',#831);
#831=COLOUR_RGB('\X2\94A2\X0\ - \X2\7F0E5149\X0\',0.627450980392157,0.627450980392157,
0.627450980392157);
ENDSEC;
END-ISO-10303-21;
