ISO-10303-21;
HEADER;
/* Generated by software containing ST-Developer
 * from STEP Tools, Inc. (www.steptools.com) 
 */

FILE_DESCRIPTION(
/* description */ (''),
/* implementation_level */ '2;1');

FILE_NAME(
/* name */ '',
/* time_stamp */ '2026-03-02T20:16:45+08:00',
/* author */ (''),
/* organization */ (''),
/* preprocessor_version */ 'ST-DEVELOPER v20.1',
/* originating_system */ 'Autodesk Translation Framework v14.24.0.0',
/* authorisation */ '');

FILE_SCHEMA (('AUTOMOTIVE_DESIGN { 1 0 10303 214 3 1 1 }'));
ENDSEC;

DATA;
#10=MECHANICAL_DESIGN_GEOMETRIC_PRESENTATION_REPRESENTATION('',(#17),#509);
#11=ITEM_DEFINED_TRANSFORMATION($,$,#309,#340);
#12=(
REPRESENTATION_RELATIONSHIP($,$,#520,#519)
REPRESENTATION_RELATIONSHIP_WITH_TRANSFORMATION(#11)
SHAPE_REPRESENTATION_RELATIONSHIP()
);
#13=CONTEXT_DEPENDENT_SHAPE_REPRESENTATION(#12,#518);
#14=NEXT_ASSEMBLY_USAGE_OCCURRENCE('\X2\96F690E84EF6\X0\2:1',
'\X2\96F690E84EF6\X0\2:1','\X2\96F690E84EF6\X0\2:1',#522,#523,
'\X2\96F690E84EF6\X0\2:1');
#15=SHAPE_REPRESENTATION_RELATIONSHIP('SRR','None',#520,#16);
#16=ADVANCED_BREP_SHAPE_REPRESENTATION('',(#18),#508);
#17=STYLED_ITEM('',(#533),#18);
#18=MANIFOLD_SOLID_BREP('\X2\5B9E4F53\X0\1',#295);
#19=FACE_BOUND('',#68,.T.);
#20=FACE_BOUND('',#69,.T.);
#21=FACE_BOUND('',#70,.T.);
#22=FACE_BOUND('',#71,.T.);
#23=FACE_BOUND('',#72,.T.);
#24=FACE_BOUND('',#73,.T.);
#25=FACE_BOUND('',#74,.T.);
#26=FACE_BOUND('',#75,.T.);
#27=FACE_BOUND('',#77,.T.);
#28=FACE_BOUND('',#78,.T.);
#29=FACE_BOUND('',#79,.T.);
#30=FACE_BOUND('',#80,.T.);
#31=FACE_BOUND('',#81,.T.);
#32=FACE_BOUND('',#82,.T.);
#33=FACE_BOUND('',#83,.T.);
#34=FACE_BOUND('',#84,.T.);
#35=PLANE('',#334);
#36=PLANE('',#335);
#37=PLANE('',#336);
#38=PLANE('',#337);
#39=PLANE('',#338);
#40=PLANE('',#339);
#41=FACE_OUTER_BOUND('',#55,.T.);
#42=FACE_OUTER_BOUND('',#56,.T.);
#43=FACE_OUTER_BOUND('',#57,.T.);
#44=FACE_OUTER_BOUND('',#58,.T.);
#45=FACE_OUTER_BOUND('',#59,.T.);
#46=FACE_OUTER_BOUND('',#60,.T.);
#47=FACE_OUTER_BOUND('',#61,.T.);
#48=FACE_OUTER_BOUND('',#62,.T.);
#49=FACE_OUTER_BOUND('',#63,.T.);
#50=FACE_OUTER_BOUND('',#64,.T.);
#51=FACE_OUTER_BOUND('',#65,.T.);
#52=FACE_OUTER_BOUND('',#66,.T.);
#53=FACE_OUTER_BOUND('',#67,.T.);
#54=FACE_OUTER_BOUND('',#76,.T.);
#55=EDGE_LOOP('',(#201,#202,#203,#204));
#56=EDGE_LOOP('',(#205,#206,#207,#208));
#57=EDGE_LOOP('',(#209,#210,#211,#212));
#58=EDGE_LOOP('',(#213,#214,#215,#216));
#59=EDGE_LOOP('',(#217,#218,#219,#220));
#60=EDGE_LOOP('',(#221,#222,#223,#224));
#61=EDGE_LOOP('',(#225,#226,#227,#228));
#62=EDGE_LOOP('',(#229,#230,#231,#232));
#63=EDGE_LOOP('',(#233,#234,#235,#236));
#64=EDGE_LOOP('',(#237,#238,#239,#240));
#65=EDGE_LOOP('',(#241,#242,#243,#244));
#66=EDGE_LOOP('',(#245,#246,#247,#248));
#67=EDGE_LOOP('',(#249,#250,#251,#252));
#68=EDGE_LOOP('',(#253));
#69=EDGE_LOOP('',(#254));
#70=EDGE_LOOP('',(#255));
#71=EDGE_LOOP('',(#256));
#72=EDGE_LOOP('',(#257));
#73=EDGE_LOOP('',(#258));
#74=EDGE_LOOP('',(#259));
#75=EDGE_LOOP('',(#260));
#76=EDGE_LOOP('',(#261,#262,#263,#264));
#77=EDGE_LOOP('',(#265));
#78=EDGE_LOOP('',(#266));
#79=EDGE_LOOP('',(#267));
#80=EDGE_LOOP('',(#268));
#81=EDGE_LOOP('',(#269));
#82=EDGE_LOOP('',(#270));
#83=EDGE_LOOP('',(#271));
#84=EDGE_LOOP('',(#272));
#85=LINE('',#433,#105);
#86=LINE('',#439,#106);
#87=LINE('',#445,#107);
#88=LINE('',#451,#108);
#89=LINE('',#457,#109);
#90=LINE('',#463,#110);
#91=LINE('',#469,#111);
#92=LINE('',#475,#112);
#93=LINE('',#480,#113);
#94=LINE('',#482,#114);
#95=LINE('',#484,#115);
#96=LINE('',#485,#116);
#97=LINE('',#488,#117);
#98=LINE('',#490,#118);
#99=LINE('',#491,#119);
#100=LINE('',#494,#120);
#101=LINE('',#496,#121);
#102=LINE('',#497,#122);
#103=LINE('',#499,#123);
#104=LINE('',#500,#124);
#105=VECTOR('',#349,7.5);
#106=VECTOR('',#356,4.35);
#107=VECTOR('',#363,4.35);
#108=VECTOR('',#370,1.55);
#109=VECTOR('',#377,1.55);
#110=VECTOR('',#384,1.55);
#111=VECTOR('',#391,4.35);
#112=VECTOR('',#398,1.55);
#113=VECTOR('',#403,10.);
#114=VECTOR('',#404,10.);
#115=VECTOR('',#405,10.);
#116=VECTOR('',#406,10.);
#117=VECTOR('',#409,10.);
#118=VECTOR('',#410,10.);
#119=VECTOR('',#411,10.);
#120=VECTOR('',#414,10.);
#121=VECTOR('',#415,10.);
#122=VECTOR('',#416,10.);
#123=VECTOR('',#419,10.);
#124=VECTOR('',#420,10.);
#125=CIRCLE('',#311,7.5);
#126=CIRCLE('',#312,7.5);
#127=CIRCLE('',#314,4.35);
#128=CIRCLE('',#315,4.35);
#129=CIRCLE('',#317,4.35);
#130=CIRCLE('',#318,4.35);
#131=CIRCLE('',#320,1.55);
#132=CIRCLE('',#321,1.55);
#133=CIRCLE('',#323,1.55);
#134=CIRCLE('',#324,1.55);
#135=CIRCLE('',#326,1.55);
#136=CIRCLE('',#327,1.55);
#137=CIRCLE('',#329,4.35);
#138=CIRCLE('',#330,4.35);
#139=CIRCLE('',#332,1.55);
#140=CIRCLE('',#333,1.55);
#141=VERTEX_POINT('',#430);
#142=VERTEX_POINT('',#432);
#143=VERTEX_POINT('',#436);
#144=VERTEX_POINT('',#438);
#145=VERTEX_POINT('',#442);
#146=VERTEX_POINT('',#444);
#147=VERTEX_POINT('',#448);
#148=VERTEX_POINT('',#450);
#149=VERTEX_POINT('',#454);
#150=VERTEX_POINT('',#456);
#151=VERTEX_POINT('',#460);
#152=VERTEX_POINT('',#462);
#153=VERTEX_POINT('',#466);
#154=VERTEX_POINT('',#468);
#155=VERTEX_POINT('',#472);
#156=VERTEX_POINT('',#474);
#157=VERTEX_POINT('',#478);
#158=VERTEX_POINT('',#479);
#159=VERTEX_POINT('',#481);
#160=VERTEX_POINT('',#483);
#161=VERTEX_POINT('',#487);
#162=VERTEX_POINT('',#489);
#163=VERTEX_POINT('',#493);
#164=VERTEX_POINT('',#495);
#165=EDGE_CURVE('',#141,#141,#125,.T.);
#166=EDGE_CURVE('',#141,#142,#85,.T.);
#167=EDGE_CURVE('',#142,#142,#126,.T.);
#168=EDGE_CURVE('',#143,#143,#127,.T.);
#169=EDGE_CURVE('',#143,#144,#86,.T.);
#170=EDGE_CURVE('',#144,#144,#128,.T.);
#171=EDGE_CURVE('',#145,#145,#129,.T.);
#172=EDGE_CURVE('',#145,#146,#87,.T.);
#173=EDGE_CURVE('',#146,#146,#130,.T.);
#174=EDGE_CURVE('',#147,#147,#131,.T.);
#175=EDGE_CURVE('',#147,#148,#88,.T.);
#176=EDGE_CURVE('',#148,#148,#132,.T.);
#177=EDGE_CURVE('',#149,#149,#133,.T.);
#178=EDGE_CURVE('',#149,#150,#89,.T.);
#179=EDGE_CURVE('',#150,#150,#134,.T.);
#180=EDGE_CURVE('',#151,#151,#135,.T.);
#181=EDGE_CURVE('',#151,#152,#90,.T.);
#182=EDGE_CURVE('',#152,#152,#136,.T.);
#183=EDGE_CURVE('',#153,#153,#137,.T.);
#184=EDGE_CURVE('',#153,#154,#91,.T.);
#185=EDGE_CURVE('',#154,#154,#138,.T.);
#186=EDGE_CURVE('',#155,#155,#139,.T.);
#187=EDGE_CURVE('',#155,#156,#92,.T.);
#188=EDGE_CURVE('',#156,#156,#140,.T.);
#189=EDGE_CURVE('',#157,#158,#93,.T.);
#190=EDGE_CURVE('',#157,#159,#94,.T.);
#191=EDGE_CURVE('',#160,#159,#95,.T.);
#192=EDGE_CURVE('',#158,#160,#96,.T.);
#193=EDGE_CURVE('',#158,#161,#97,.T.);
#194=EDGE_CURVE('',#162,#160,#98,.T.);
#195=EDGE_CURVE('',#161,#162,#99,.T.);
#196=EDGE_CURVE('',#161,#163,#100,.T.);
#197=EDGE_CURVE('',#164,#162,#101,.T.);
#198=EDGE_CURVE('',#163,#164,#102,.T.);
#199=EDGE_CURVE('',#163,#157,#103,.T.);
#200=EDGE_CURVE('',#159,#164,#104,.T.);
#201=ORIENTED_EDGE('',*,*,#165,.F.);
#202=ORIENTED_EDGE('',*,*,#166,.T.);
#203=ORIENTED_EDGE('',*,*,#167,.T.);
#204=ORIENTED_EDGE('',*,*,#166,.F.);
#205=ORIENTED_EDGE('',*,*,#168,.F.);
#206=ORIENTED_EDGE('',*,*,#169,.T.);
#207=ORIENTED_EDGE('',*,*,#170,.T.);
#208=ORIENTED_EDGE('',*,*,#169,.F.);
#209=ORIENTED_EDGE('',*,*,#171,.F.);
#210=ORIENTED_EDGE('',*,*,#172,.T.);
#211=ORIENTED_EDGE('',*,*,#173,.T.);
#212=ORIENTED_EDGE('',*,*,#172,.F.);
#213=ORIENTED_EDGE('',*,*,#174,.F.);
#214=ORIENTED_EDGE('',*,*,#175,.T.);
#215=ORIENTED_EDGE('',*,*,#176,.T.);
#216=ORIENTED_EDGE('',*,*,#175,.F.);
#217=ORIENTED_EDGE('',*,*,#177,.F.);
#218=ORIENTED_EDGE('',*,*,#178,.T.);
#219=ORIENTED_EDGE('',*,*,#179,.T.);
#220=ORIENTED_EDGE('',*,*,#178,.F.);
#221=ORIENTED_EDGE('',*,*,#180,.F.);
#222=ORIENTED_EDGE('',*,*,#181,.T.);
#223=ORIENTED_EDGE('',*,*,#182,.T.);
#224=ORIENTED_EDGE('',*,*,#181,.F.);
#225=ORIENTED_EDGE('',*,*,#183,.F.);
#226=ORIENTED_EDGE('',*,*,#184,.T.);
#227=ORIENTED_EDGE('',*,*,#185,.T.);
#228=ORIENTED_EDGE('',*,*,#184,.F.);
#229=ORIENTED_EDGE('',*,*,#186,.F.);
#230=ORIENTED_EDGE('',*,*,#187,.T.);
#231=ORIENTED_EDGE('',*,*,#188,.T.);
#232=ORIENTED_EDGE('',*,*,#187,.F.);
#233=ORIENTED_EDGE('',*,*,#189,.F.);
#234=ORIENTED_EDGE('',*,*,#190,.T.);
#235=ORIENTED_EDGE('',*,*,#191,.F.);
#236=ORIENTED_EDGE('',*,*,#192,.F.);
#237=ORIENTED_EDGE('',*,*,#193,.F.);
#238=ORIENTED_EDGE('',*,*,#192,.T.);
#239=ORIENTED_EDGE('',*,*,#194,.F.);
#240=ORIENTED_EDGE('',*,*,#195,.F.);
#241=ORIENTED_EDGE('',*,*,#196,.F.);
#242=ORIENTED_EDGE('',*,*,#195,.T.);
#243=ORIENTED_EDGE('',*,*,#197,.F.);
#244=ORIENTED_EDGE('',*,*,#198,.F.);
#245=ORIENTED_EDGE('',*,*,#199,.F.);
#246=ORIENTED_EDGE('',*,*,#198,.T.);
#247=ORIENTED_EDGE('',*,*,#200,.F.);
#248=ORIENTED_EDGE('',*,*,#190,.F.);
#249=ORIENTED_EDGE('',*,*,#200,.T.);
#250=ORIENTED_EDGE('',*,*,#197,.T.);
#251=ORIENTED_EDGE('',*,*,#194,.T.);
#252=ORIENTED_EDGE('',*,*,#191,.T.);
#253=ORIENTED_EDGE('',*,*,#186,.T.);
#254=ORIENTED_EDGE('',*,*,#183,.T.);
#255=ORIENTED_EDGE('',*,*,#180,.T.);
#256=ORIENTED_EDGE('',*,*,#177,.T.);
#257=ORIENTED_EDGE('',*,*,#174,.T.);
#258=ORIENTED_EDGE('',*,*,#171,.T.);
#259=ORIENTED_EDGE('',*,*,#168,.T.);
#260=ORIENTED_EDGE('',*,*,#165,.T.);
#261=ORIENTED_EDGE('',*,*,#199,.T.);
#262=ORIENTED_EDGE('',*,*,#189,.T.);
#263=ORIENTED_EDGE('',*,*,#193,.T.);
#264=ORIENTED_EDGE('',*,*,#196,.T.);
#265=ORIENTED_EDGE('',*,*,#188,.F.);
#266=ORIENTED_EDGE('',*,*,#185,.F.);
#267=ORIENTED_EDGE('',*,*,#182,.F.);
#268=ORIENTED_EDGE('',*,*,#179,.F.);
#269=ORIENTED_EDGE('',*,*,#176,.F.);
#270=ORIENTED_EDGE('',*,*,#173,.F.);
#271=ORIENTED_EDGE('',*,*,#170,.F.);
#272=ORIENTED_EDGE('',*,*,#167,.F.);
#273=CYLINDRICAL_SURFACE('',#310,7.5);
#274=CYLINDRICAL_SURFACE('',#313,4.35);
#275=CYLINDRICAL_SURFACE('',#316,4.35);
#276=CYLINDRICAL_SURFACE('',#319,1.55);
#277=CYLINDRICAL_SURFACE('',#322,1.55);
#278=CYLINDRICAL_SURFACE('',#325,1.55);
#279=CYLINDRICAL_SURFACE('',#328,4.35);
#280=CYLINDRICAL_SURFACE('',#331,1.55);
#281=ADVANCED_FACE('',(#41),#273,.F.);
#282=ADVANCED_FACE('',(#42),#274,.F.);
#283=ADVANCED_FACE('',(#43),#275,.F.);
#284=ADVANCED_FACE('',(#44),#276,.F.);
#285=ADVANCED_FACE('',(#45),#277,.F.);
#286=ADVANCED_FACE('',(#46),#278,.F.);
#287=ADVANCED_FACE('',(#47),#279,.F.);
#288=ADVANCED_FACE('',(#48),#280,.F.);
#289=ADVANCED_FACE('',(#49),#35,.T.);
#290=ADVANCED_FACE('',(#50),#36,.T.);
#291=ADVANCED_FACE('',(#51),#37,.T.);
#292=ADVANCED_FACE('',(#52),#38,.T.);
#293=ADVANCED_FACE('',(#53,#19,#20,#21,#22,#23,#24,#25,#26),#39,.T.);
#294=ADVANCED_FACE('',(#54,#27,#28,#29,#30,#31,#32,#33,#34),#40,.F.);
#295=CLOSED_SHELL('',(#281,#282,#283,#284,#285,#286,#287,#288,#289,#290,
#291,#292,#293,#294));
#296=DERIVED_UNIT_ELEMENT(#298,1.);
#297=DERIVED_UNIT_ELEMENT(#511,-3.);
#298=(
MASS_UNIT()
NAMED_UNIT(*)
SI_UNIT(.KILO.,.GRAM.)
);
#299=DERIVED_UNIT((#296,#297));
#300=MEASURE_REPRESENTATION_ITEM('density measure',
POSITIVE_RATIO_MEASURE(7850.),#299);
#301=PROPERTY_DEFINITION_REPRESENTATION(#306,#303);
#302=PROPERTY_DEFINITION_REPRESENTATION(#307,#304);
#303=REPRESENTATION('material name',(#305),#508);
#304=REPRESENTATION('density',(#300),#508);
#305=DESCRIPTIVE_REPRESENTATION_ITEM('\X2\94A2\X0\','\X2\94A2\X0\');
#306=PROPERTY_DEFINITION('material property','material name',#523);
#307=PROPERTY_DEFINITION('material property','density of part',#523);
#308=AXIS2_PLACEMENT_3D('',#427,#341,#342);
#309=AXIS2_PLACEMENT_3D('',#428,#343,#344);
#310=AXIS2_PLACEMENT_3D('',#429,#345,#346);
#311=AXIS2_PLACEMENT_3D('',#431,#347,#348);
#312=AXIS2_PLACEMENT_3D('',#434,#350,#351);
#313=AXIS2_PLACEMENT_3D('',#435,#352,#353);
#314=AXIS2_PLACEMENT_3D('',#437,#354,#355);
#315=AXIS2_PLACEMENT_3D('',#440,#357,#358);
#316=AXIS2_PLACEMENT_3D('',#441,#359,#360);
#317=AXIS2_PLACEMENT_3D('',#443,#361,#362);
#318=AXIS2_PLACEMENT_3D('',#446,#364,#365);
#319=AXIS2_PLACEMENT_3D('',#447,#366,#367);
#320=AXIS2_PLACEMENT_3D('',#449,#368,#369);
#321=AXIS2_PLACEMENT_3D('',#452,#371,#372);
#322=AXIS2_PLACEMENT_3D('',#453,#373,#374);
#323=AXIS2_PLACEMENT_3D('',#455,#375,#376);
#324=AXIS2_PLACEMENT_3D('',#458,#378,#379);
#325=AXIS2_PLACEMENT_3D('',#459,#380,#381);
#326=AXIS2_PLACEMENT_3D('',#461,#382,#383);
#327=AXIS2_PLACEMENT_3D('',#464,#385,#386);
#328=AXIS2_PLACEMENT_3D('',#465,#387,#388);
#329=AXIS2_PLACEMENT_3D('',#467,#389,#390);
#330=AXIS2_PLACEMENT_3D('',#470,#392,#393);
#331=AXIS2_PLACEMENT_3D('',#471,#394,#395);
#332=AXIS2_PLACEMENT_3D('',#473,#396,#397);
#333=AXIS2_PLACEMENT_3D('',#476,#399,#400);
#334=AXIS2_PLACEMENT_3D('',#477,#401,#402);
#335=AXIS2_PLACEMENT_3D('',#486,#407,#408);
#336=AXIS2_PLACEMENT_3D('',#492,#412,#413);
#337=AXIS2_PLACEMENT_3D('',#498,#417,#418);
#338=AXIS2_PLACEMENT_3D('',#501,#421,#422);
#339=AXIS2_PLACEMENT_3D('',#502,#423,#424);
#340=AXIS2_PLACEMENT_3D('',#503,#425,#426);
#341=DIRECTION('axis',(0.,0.,1.));
#342=DIRECTION('refdir',(1.,0.,0.));
#343=DIRECTION('axis',(0.,0.,1.));
#344=DIRECTION('refdir',(1.,0.,0.));
#345=DIRECTION('center_axis',(0.,1.,0.));
#346=DIRECTION('ref_axis',(1.,0.,0.));
#347=DIRECTION('center_axis',(0.,-1.,0.));
#348=DIRECTION('ref_axis',(1.,0.,0.));
#349=DIRECTION('',(0.,-1.,0.));
#350=DIRECTION('center_axis',(0.,-1.,0.));
#351=DIRECTION('ref_axis',(1.,0.,0.));
#352=DIRECTION('center_axis',(0.,1.,0.));
#353=DIRECTION('ref_axis',(1.,0.,0.));
#354=DIRECTION('center_axis',(0.,-1.,0.));
#355=DIRECTION('ref_axis',(1.,0.,0.));
#356=DIRECTION('',(0.,-1.,0.));
#357=DIRECTION('center_axis',(0.,-1.,0.));
#358=DIRECTION('ref_axis',(1.,0.,0.));
#359=DIRECTION('center_axis',(0.,1.,0.));
#360=DIRECTION('ref_axis',(1.,0.,0.));
#361=DIRECTION('center_axis',(0.,-1.,0.));
#362=DIRECTION('ref_axis',(1.,0.,0.));
#363=DIRECTION('',(0.,-1.,0.));
#364=DIRECTION('center_axis',(0.,-1.,0.));
#365=DIRECTION('ref_axis',(1.,0.,0.));
#366=DIRECTION('center_axis',(0.,1.,0.));
#367=DIRECTION('ref_axis',(1.,0.,0.));
#368=DIRECTION('center_axis',(0.,-1.,0.));
#369=DIRECTION('ref_axis',(1.,0.,0.));
#370=DIRECTION('',(0.,-1.,0.));
#371=DIRECTION('center_axis',(0.,-1.,0.));
#372=DIRECTION('ref_axis',(1.,0.,0.));
#373=DIRECTION('center_axis',(0.,1.,0.));
#374=DIRECTION('ref_axis',(1.,0.,0.));
#375=DIRECTION('center_axis',(0.,-1.,0.));
#376=DIRECTION('ref_axis',(1.,0.,0.));
#377=DIRECTION('',(0.,-1.,0.));
#378=DIRECTION('center_axis',(0.,-1.,0.));
#379=DIRECTION('ref_axis',(1.,0.,0.));
#380=DIRECTION('center_axis',(0.,1.,0.));
#381=DIRECTION('ref_axis',(1.,0.,0.));
#382=DIRECTION('center_axis',(0.,-1.,0.));
#383=DIRECTION('ref_axis',(1.,0.,0.));
#384=DIRECTION('',(0.,-1.,0.));
#385=DIRECTION('center_axis',(0.,-1.,0.));
#386=DIRECTION('ref_axis',(1.,0.,0.));
#387=DIRECTION('center_axis',(0.,1.,0.));
#388=DIRECTION('ref_axis',(1.,0.,0.));
#389=DIRECTION('center_axis',(0.,-1.,0.));
#390=DIRECTION('ref_axis',(1.,0.,0.));
#391=DIRECTION('',(0.,-1.,0.));
#392=DIRECTION('center_axis',(0.,-1.,0.));
#393=DIRECTION('ref_axis',(1.,0.,0.));
#394=DIRECTION('center_axis',(0.,1.,0.));
#395=DIRECTION('ref_axis',(1.,0.,0.));
#396=DIRECTION('center_axis',(0.,-1.,0.));
#397=DIRECTION('ref_axis',(1.,0.,0.));
#398=DIRECTION('',(0.,-1.,0.));
#399=DIRECTION('center_axis',(0.,-1.,0.));
#400=DIRECTION('ref_axis',(1.,0.,0.));
#401=DIRECTION('center_axis',(-1.,0.,0.));
#402=DIRECTION('ref_axis',(0.,0.,1.));
#403=DIRECTION('',(0.,0.,-1.));
#404=DIRECTION('',(0.,1.,0.));
#405=DIRECTION('',(0.,0.,1.));
#406=DIRECTION('',(0.,1.,0.));
#407=DIRECTION('center_axis',(0.,0.,-1.));
#408=DIRECTION('ref_axis',(-1.,0.,0.));
#409=DIRECTION('',(1.,0.,0.));
#410=DIRECTION('',(-1.,0.,0.));
#411=DIRECTION('',(0.,1.,0.));
#412=DIRECTION('center_axis',(1.,0.,0.));
#413=DIRECTION('ref_axis',(0.,0.,-1.));
#414=DIRECTION('',(0.,0.,1.));
#415=DIRECTION('',(0.,0.,-1.));
#416=DIRECTION('',(0.,1.,0.));
#417=DIRECTION('center_axis',(1.61486985400023E-16,0.,1.));
#418=DIRECTION('ref_axis',(1.,0.,-1.61486985400023E-16));
#419=DIRECTION('',(-1.,0.,1.61486985400023E-16));
#420=DIRECTION('',(1.,0.,-1.61486985400023E-16));
#421=DIRECTION('center_axis',(0.,1.,0.));
#422=DIRECTION('ref_axis',(1.,0.,0.));
#423=DIRECTION('center_axis',(0.,1.,0.));
#424=DIRECTION('ref_axis',(1.,0.,0.));
#425=DIRECTION('',(0.,0.,1.));
#426=DIRECTION('',(1.,0.,0.));
#427=CARTESIAN_POINT('',(0.,0.,0.));
#428=CARTESIAN_POINT('',(0.,0.,0.));
#429=CARTESIAN_POINT('Origin',(25.3012192794247,0.,39.8546382004302));
#430=CARTESIAN_POINT('',(17.8012192794247,2.,39.8546382004302));
#431=CARTESIAN_POINT('Origin',(25.3012192794247,2.,39.8546382004302));
#432=CARTESIAN_POINT('',(17.8012192794247,0.,39.8546382004302));
#433=CARTESIAN_POINT('',(17.8012192794247,0.,39.8546382004302));
#434=CARTESIAN_POINT('Origin',(25.3012192794247,0.,39.8546382004302));
#435=CARTESIAN_POINT('Origin',(24.3012192794247,0.,57.3546382004302));
#436=CARTESIAN_POINT('',(19.9512192794247,2.,57.3546382004302));
#437=CARTESIAN_POINT('Origin',(24.3012192794247,2.,57.3546382004302));
#438=CARTESIAN_POINT('',(19.9512192794247,0.,57.3546382004302));
#439=CARTESIAN_POINT('',(19.9512192794247,0.,57.3546382004302));
#440=CARTESIAN_POINT('Origin',(24.3012192794247,0.,57.3546382004302));
#441=CARTESIAN_POINT('Origin',(24.3012192794247,0.,22.3546382004302));
#442=CARTESIAN_POINT('',(19.9512192794247,2.,22.3546382004302));
#443=CARTESIAN_POINT('Origin',(24.3012192794247,2.,22.3546382004302));
#444=CARTESIAN_POINT('',(19.9512192794247,0.,22.3546382004302));
#445=CARTESIAN_POINT('',(19.9512192794247,0.,22.3546382004302));
#446=CARTESIAN_POINT('Origin',(24.3012192794247,0.,22.3546382004302));
#447=CARTESIAN_POINT('Origin',(60.8012192794247,0.,60.8546382004302));
#448=CARTESIAN_POINT('',(59.2512192794247,2.,60.8546382004302));
#449=CARTESIAN_POINT('Origin',(60.8012192794247,2.,60.8546382004302));
#450=CARTESIAN_POINT('',(59.2512192794247,0.,60.8546382004302));
#451=CARTESIAN_POINT('',(59.2512192794247,0.,60.8546382004302));
#452=CARTESIAN_POINT('Origin',(60.8012192794247,0.,60.8546382004302));
#453=CARTESIAN_POINT('Origin',(14.8012192794247,0.,60.8546382004302));
#454=CARTESIAN_POINT('',(13.2512192794247,2.,60.8546382004302));
#455=CARTESIAN_POINT('Origin',(14.8012192794247,2.,60.8546382004302));
#456=CARTESIAN_POINT('',(13.2512192794247,0.,60.8546382004302));
#457=CARTESIAN_POINT('',(13.2512192794247,0.,60.8546382004302));
#458=CARTESIAN_POINT('Origin',(14.8012192794247,0.,60.8546382004302));
#459=CARTESIAN_POINT('Origin',(14.8012192794247,0.,18.8546382004302));
#460=CARTESIAN_POINT('',(13.2512192794247,2.,18.8546382004302));
#461=CARTESIAN_POINT('Origin',(14.8012192794247,2.,18.8546382004302));
#462=CARTESIAN_POINT('',(13.2512192794247,0.,18.8546382004302));
#463=CARTESIAN_POINT('',(13.2512192794247,0.,18.8546382004302));
#464=CARTESIAN_POINT('Origin',(14.8012192794247,0.,18.8546382004302));
#465=CARTESIAN_POINT('Origin',(55.3012192794247,0.,39.8546382004302));
#466=CARTESIAN_POINT('',(50.9512192794247,2.,39.8546382004302));
#467=CARTESIAN_POINT('Origin',(55.3012192794247,2.,39.8546382004302));
#468=CARTESIAN_POINT('',(50.9512192794247,0.,39.8546382004302));
#469=CARTESIAN_POINT('',(50.9512192794247,0.,39.8546382004302));
#470=CARTESIAN_POINT('Origin',(55.3012192794247,0.,39.8546382004302));
#471=CARTESIAN_POINT('Origin',(60.8012192794247,0.,18.8546382004302));
#472=CARTESIAN_POINT('',(59.2512192794247,2.,18.8546382004302));
#473=CARTESIAN_POINT('Origin',(60.8012192794247,2.,18.8546382004302));
#474=CARTESIAN_POINT('',(59.2512192794247,0.,18.8546382004302));
#475=CARTESIAN_POINT('',(59.2512192794247,0.,18.8546382004302));
#476=CARTESIAN_POINT('Origin',(60.8012192794247,0.,18.8546382004302));
#477=CARTESIAN_POINT('Origin',(10.3012192794247,0.,14.8546382004302));
#478=CARTESIAN_POINT('',(10.3012192794247,0.,64.8546382004302));
#479=CARTESIAN_POINT('',(10.3012192794247,0.,14.8546382004302));
#480=CARTESIAN_POINT('',(10.3012192794247,0.,64.8546382004302));
#481=CARTESIAN_POINT('',(10.3012192794247,2.,64.8546382004302));
#482=CARTESIAN_POINT('',(10.3012192794247,0.,64.8546382004302));
#483=CARTESIAN_POINT('',(10.3012192794247,2.,14.8546382004302));
#484=CARTESIAN_POINT('',(10.3012192794247,2.,64.8546382004302));
#485=CARTESIAN_POINT('',(10.3012192794247,0.,14.8546382004302));
#486=CARTESIAN_POINT('Origin',(65.3012192794247,0.,14.8546382004302));
#487=CARTESIAN_POINT('',(65.3012192794247,0.,14.8546382004302));
#488=CARTESIAN_POINT('',(10.3012192794247,0.,14.8546382004302));
#489=CARTESIAN_POINT('',(65.3012192794247,2.,14.8546382004302));
#490=CARTESIAN_POINT('',(10.3012192794247,2.,14.8546382004302));
#491=CARTESIAN_POINT('',(65.3012192794247,0.,14.8546382004302));
#492=CARTESIAN_POINT('Origin',(65.3012192794247,0.,64.8546382004302));
#493=CARTESIAN_POINT('',(65.3012192794247,0.,64.8546382004302));
#494=CARTESIAN_POINT('',(65.3012192794247,0.,14.8546382004302));
#495=CARTESIAN_POINT('',(65.3012192794247,2.,64.8546382004302));
#496=CARTESIAN_POINT('',(65.3012192794247,2.,14.8546382004302));
#497=CARTESIAN_POINT('',(65.3012192794247,0.,64.8546382004302));
#498=CARTESIAN_POINT('Origin',(10.3012192794247,0.,64.8546382004302));
#499=CARTESIAN_POINT('',(65.3012192794247,0.,64.8546382004302));
#500=CARTESIAN_POINT('',(65.3012192794247,2.,64.8546382004302));
#501=CARTESIAN_POINT('Origin',(37.8012192794247,2.,39.8546382004302));
#502=CARTESIAN_POINT('Origin',(37.8012192794247,0.,39.8546382004302));
#503=CARTESIAN_POINT('',(0.,0.,0.));
#504=UNCERTAINTY_MEASURE_WITH_UNIT(LENGTH_MEASURE(0.01),#510,
'DISTANCE_ACCURACY_VALUE',
'Maximum model space distance between geometric entities at asserted c
onnectivities');
#505=UNCERTAINTY_MEASURE_WITH_UNIT(LENGTH_MEASURE(0.01),#510,
'DISTANCE_ACCURACY_VALUE',
'Maximum model space distance between geometric entities at asserted c
onnectivities');
#506=UNCERTAINTY_MEASURE_WITH_UNIT(LENGTH_MEASURE(0.01),#510,
'DISTANCE_ACCURACY_VALUE',
'Maximum model space distance between geometric entities at asserted c
onnectivities');
#507=(
GEOMETRIC_REPRESENTATION_CONTEXT(3)
GLOBAL_UNCERTAINTY_ASSIGNED_CONTEXT((#504))
GLOBAL_UNIT_ASSIGNED_CONTEXT((#510,#512,#513))
REPRESENTATION_CONTEXT('','3D')
);
#508=(
GEOMETRIC_REPRESENTATION_CONTEXT(3)
GLOBAL_UNCERTAINTY_ASSIGNED_CONTEXT((#505))
GLOBAL_UNIT_ASSIGNED_CONTEXT((#510,#512,#513))
REPRESENTATION_CONTEXT('','3D')
);
#509=(
GEOMETRIC_REPRESENTATION_CONTEXT(3)
GLOBAL_UNCERTAINTY_ASSIGNED_CONTEXT((#506))
GLOBAL_UNIT_ASSIGNED_CONTEXT((#510,#512,#513))
REPRESENTATION_CONTEXT('','3D')
);
#510=(
LENGTH_UNIT()
NAMED_UNIT(*)
SI_UNIT(.MILLI.,.METRE.)
);
#511=(
LENGTH_UNIT()
NAMED_UNIT(*)
SI_UNIT($,.METRE.)
);
#512=(
NAMED_UNIT(*)
PLANE_ANGLE_UNIT()
SI_UNIT($,.RADIAN.)
);
#513=(
NAMED_UNIT(*)
SI_UNIT($,.STERADIAN.)
SOLID_ANGLE_UNIT()
);
#514=SHAPE_DEFINITION_REPRESENTATION(#516,#519);
#515=SHAPE_DEFINITION_REPRESENTATION(#517,#520);
#516=PRODUCT_DEFINITION_SHAPE('',$,#522);
#517=PRODUCT_DEFINITION_SHAPE('',$,#523);
#518=PRODUCT_DEFINITION_SHAPE($,$,#14);
#519=SHAPE_REPRESENTATION('',(#308,#340),#507);
#520=SHAPE_REPRESENTATION('',(#309),#508);
#521=PRODUCT_DEFINITION_CONTEXT('part definition',#529,'design');
#522=PRODUCT_DEFINITION('CNC-STM-\X2\673A4F534E0A76D6\X0\',
'CNC-STM-\X2\673A4F534E0A76D6\X0\ v4',#524,#521);
#523=PRODUCT_DEFINITION('\X2\96F690E84EF6\X0\2','\X2\96F690E84EF6\X0\2',
#525,#521);
#524=PRODUCT_DEFINITION_FORMATION('',$,#531);
#525=PRODUCT_DEFINITION_FORMATION('',$,#532);
#526=PRODUCT_RELATED_PRODUCT_CATEGORY('CNC-STM-\X2\673A4F534E0A76D6\X0\ 
v4','CNC-STM-\X2\673A4F534E0A76D6\X0\ v4',(#531));
#527=PRODUCT_RELATED_PRODUCT_CATEGORY('\X2\96F690E84EF6\X0\2',
'\X2\96F690E84EF6\X0\2',(#532));
#528=APPLICATION_PROTOCOL_DEFINITION('international standard',
'automotive_design',2009,#529);
#529=APPLICATION_CONTEXT(
'Core Data for Automotive Mechanical Design Process');
#530=PRODUCT_CONTEXT('part definition',#529,'mechanical');
#531=PRODUCT('CNC-STM-\X2\673A4F534E0A76D6\X0\',
'CNC-STM-\X2\673A4F534E0A76D6\X0\ v4',$,(#530));
#532=PRODUCT('\X2\96F690E84EF6\X0\2','\X2\96F690E84EF6\X0\2',$,(#530));
#533=PRESENTATION_STYLE_ASSIGNMENT((#534));
#534=SURFACE_STYLE_USAGE(.BOTH.,#535);
#535=SURFACE_SIDE_STYLE('',(#536));
#536=SURFACE_STYLE_FILL_AREA(#537);
#537=FILL_AREA_STYLE('\X2\94A2\X0\ - \X2\7F0E5149\X0\',(#538));
#538=FILL_AREA_STYLE_COLOUR('\X2\94A2\X0\ - \X2\7F0E5149\X0\',#539);
#539=COLOUR_RGB('\X2\94A2\X0\ - \X2\7F0E5149\X0\',0.627450980392157,0.627450980392157,
0.627450980392157);
ENDSEC;
END-ISO-10303-21;
