ISO-10303-21;
HEADER;
/* Generated by software containing ST-Developer
 * from STEP Tools, Inc. (www.steptools.com) 
 */

FILE_DESCRIPTION(
/* description */ (''),
/* implementation_level */ '2;1');

FILE_NAME(
/* name */ '',
/* time_stamp */ '2026-04-26T01:37:39+08:00',
/* author */ (''),
/* organization */ (''),
/* preprocessor_version */ 'ST-DEVELOPER v20.1',
/* originating_system */ 'Autodesk Translation Framework v14.24.0.0',
/* authorisation */ '');

FILE_SCHEMA (('AUTOMOTIVE_DESIGN { 1 0 10303 214 3 1 1 }'));
ENDSEC;

DATA;
#10=MECHANICAL_DESIGN_GEOMETRIC_PRESENTATION_REPRESENTATION('',(#17),#644);
#11=ITEM_DEFINED_TRANSFORMATION($,$,#384,#427);
#12=(
REPRESENTATION_RELATIONSHIP($,$,#655,#654)
REPRESENTATION_RELATIONSHIP_WITH_TRANSFORMATION(#11)
SHAPE_REPRESENTATION_RELATIONSHIP()
);
#13=CONTEXT_DEPENDENT_SHAPE_REPRESENTATION(#12,#653);
#14=NEXT_ASSEMBLY_USAGE_OCCURRENCE('\X2\96F690E84EF6\X0\1:1',
'\X2\96F690E84EF6\X0\1:1','\X2\96F690E84EF6\X0\1:1',#657,#658,
'\X2\96F690E84EF6\X0\1:1');
#15=SHAPE_REPRESENTATION_RELATIONSHIP('SRR','None',#655,#16);
#16=ADVANCED_BREP_SHAPE_REPRESENTATION('',(#18),#643);
#17=STYLED_ITEM('',(#668),#18);
#18=MANIFOLD_SOLID_BREP('\X2\5B9E4F53\X0\1',#370);
#19=FACE_BOUND('',#69,.T.);
#20=FACE_BOUND('',#72,.T.);
#21=FACE_BOUND('',#75,.T.);
#22=FACE_BOUND('',#89,.T.);
#23=FACE_BOUND('',#90,.T.);
#24=FACE_BOUND('',#91,.T.);
#25=FACE_BOUND('',#92,.T.);
#26=FACE_BOUND('',#93,.T.);
#27=FACE_BOUND('',#94,.T.);
#28=FACE_BOUND('',#95,.T.);
#29=FACE_BOUND('',#96,.T.);
#30=FACE_BOUND('',#98,.T.);
#31=FACE_BOUND('',#99,.T.);
#32=FACE_BOUND('',#100,.T.);
#33=FACE_BOUND('',#101,.T.);
#34=FACE_BOUND('',#102,.T.);
#35=FACE_BOUND('',#103,.T.);
#36=FACE_BOUND('',#104,.T.);
#37=FACE_BOUND('',#105,.T.);
#38=PLANE('',#388);
#39=PLANE('',#393);
#40=PLANE('',#398);
#41=PLANE('',#421);
#42=PLANE('',#422);
#43=PLANE('',#423);
#44=PLANE('',#424);
#45=PLANE('',#425);
#46=PLANE('',#426);
#47=FACE_OUTER_BOUND('',#67,.T.);
#48=FACE_OUTER_BOUND('',#68,.T.);
#49=FACE_OUTER_BOUND('',#70,.T.);
#50=FACE_OUTER_BOUND('',#71,.T.);
#51=FACE_OUTER_BOUND('',#73,.T.);
#52=FACE_OUTER_BOUND('',#74,.T.);
#53=FACE_OUTER_BOUND('',#76,.T.);
#54=FACE_OUTER_BOUND('',#77,.T.);
#55=FACE_OUTER_BOUND('',#78,.T.);
#56=FACE_OUTER_BOUND('',#79,.T.);
#57=FACE_OUTER_BOUND('',#80,.T.);
#58=FACE_OUTER_BOUND('',#81,.T.);
#59=FACE_OUTER_BOUND('',#82,.T.);
#60=FACE_OUTER_BOUND('',#83,.T.);
#61=FACE_OUTER_BOUND('',#84,.T.);
#62=FACE_OUTER_BOUND('',#85,.T.);
#63=FACE_OUTER_BOUND('',#86,.T.);
#64=FACE_OUTER_BOUND('',#87,.T.);
#65=FACE_OUTER_BOUND('',#88,.T.);
#66=FACE_OUTER_BOUND('',#97,.T.);
#67=EDGE_LOOP('',(#249,#250,#251,#252));
#68=EDGE_LOOP('',(#253));
#69=EDGE_LOOP('',(#254));
#70=EDGE_LOOP('',(#255,#256,#257,#258));
#71=EDGE_LOOP('',(#259));
#72=EDGE_LOOP('',(#260));
#73=EDGE_LOOP('',(#261,#262,#263,#264));
#74=EDGE_LOOP('',(#265));
#75=EDGE_LOOP('',(#266));
#76=EDGE_LOOP('',(#267,#268,#269,#270));
#77=EDGE_LOOP('',(#271,#272,#273,#274));
#78=EDGE_LOOP('',(#275,#276,#277,#278));
#79=EDGE_LOOP('',(#279,#280,#281,#282));
#80=EDGE_LOOP('',(#283,#284,#285,#286));
#81=EDGE_LOOP('',(#287,#288,#289,#290));
#82=EDGE_LOOP('',(#291,#292,#293,#294));
#83=EDGE_LOOP('',(#295,#296,#297,#298));
#84=EDGE_LOOP('',(#299,#300,#301,#302));
#85=EDGE_LOOP('',(#303,#304,#305,#306));
#86=EDGE_LOOP('',(#307,#308,#309,#310));
#87=EDGE_LOOP('',(#311,#312,#313,#314));
#88=EDGE_LOOP('',(#315,#316,#317,#318));
#89=EDGE_LOOP('',(#319));
#90=EDGE_LOOP('',(#320));
#91=EDGE_LOOP('',(#321));
#92=EDGE_LOOP('',(#322));
#93=EDGE_LOOP('',(#323));
#94=EDGE_LOOP('',(#324));
#95=EDGE_LOOP('',(#325));
#96=EDGE_LOOP('',(#326));
#97=EDGE_LOOP('',(#327,#328,#329,#330));
#98=EDGE_LOOP('',(#331));
#99=EDGE_LOOP('',(#332));
#100=EDGE_LOOP('',(#333));
#101=EDGE_LOOP('',(#334));
#102=EDGE_LOOP('',(#335));
#103=EDGE_LOOP('',(#336));
#104=EDGE_LOOP('',(#337));
#105=EDGE_LOOP('',(#338));
#106=LINE('',#547,#129);
#107=LINE('',#556,#130);
#108=LINE('',#565,#131);
#109=LINE('',#573,#132);
#110=LINE('',#577,#133);
#111=LINE('',#581,#134);
#112=LINE('',#586,#135);
#113=LINE('',#592,#136);
#114=LINE('',#598,#137);
#115=LINE('',#604,#138);
#116=LINE('',#610,#139);
#117=LINE('',#615,#140);
#118=LINE('',#617,#141);
#119=LINE('',#619,#142);
#120=LINE('',#620,#143);
#121=LINE('',#623,#144);
#122=LINE('',#625,#145);
#123=LINE('',#626,#146);
#124=LINE('',#629,#147);
#125=LINE('',#631,#148);
#126=LINE('',#632,#149);
#127=LINE('',#634,#150);
#128=LINE('',#635,#151);
#129=VECTOR('',#436,5.);
#130=VECTOR('',#447,5.);
#131=VECTOR('',#458,5.);
#132=VECTOR('',#469,4.35);
#133=VECTOR('',#474,4.35);
#134=VECTOR('',#479,4.35);
#135=VECTOR('',#484,1.55);
#136=VECTOR('',#491,1.55);
#137=VECTOR('',#498,7.5);
#138=VECTOR('',#505,1.55);
#139=VECTOR('',#512,1.55);
#140=VECTOR('',#517,10.);
#141=VECTOR('',#518,10.);
#142=VECTOR('',#519,10.);
#143=VECTOR('',#520,10.);
#144=VECTOR('',#523,10.);
#145=VECTOR('',#524,10.);
#146=VECTOR('',#525,10.);
#147=VECTOR('',#528,10.);
#148=VECTOR('',#529,10.);
#149=VECTOR('',#530,10.);
#150=VECTOR('',#533,10.);
#151=VECTOR('',#534,10.);
#152=CIRCLE('',#386,5.);
#153=CIRCLE('',#387,5.);
#154=CIRCLE('',#389,4.35);
#155=CIRCLE('',#391,5.);
#156=CIRCLE('',#392,5.);
#157=CIRCLE('',#394,4.35);
#158=CIRCLE('',#396,5.);
#159=CIRCLE('',#397,5.);
#160=CIRCLE('',#399,4.35);
#161=CIRCLE('',#401,4.35);
#162=CIRCLE('',#403,4.35);
#163=CIRCLE('',#405,4.35);
#164=CIRCLE('',#407,1.55);
#165=CIRCLE('',#408,1.55);
#166=CIRCLE('',#410,1.55);
#167=CIRCLE('',#411,1.55);
#168=CIRCLE('',#413,7.5);
#169=CIRCLE('',#414,7.5);
#170=CIRCLE('',#416,1.55);
#171=CIRCLE('',#417,1.55);
#172=CIRCLE('',#419,1.55);
#173=CIRCLE('',#420,1.55);
#174=VERTEX_POINT('',#544);
#175=VERTEX_POINT('',#546);
#176=VERTEX_POINT('',#550);
#177=VERTEX_POINT('',#553);
#178=VERTEX_POINT('',#555);
#179=VERTEX_POINT('',#559);
#180=VERTEX_POINT('',#562);
#181=VERTEX_POINT('',#564);
#182=VERTEX_POINT('',#568);
#183=VERTEX_POINT('',#571);
#184=VERTEX_POINT('',#575);
#185=VERTEX_POINT('',#579);
#186=VERTEX_POINT('',#583);
#187=VERTEX_POINT('',#585);
#188=VERTEX_POINT('',#589);
#189=VERTEX_POINT('',#591);
#190=VERTEX_POINT('',#595);
#191=VERTEX_POINT('',#597);
#192=VERTEX_POINT('',#601);
#193=VERTEX_POINT('',#603);
#194=VERTEX_POINT('',#607);
#195=VERTEX_POINT('',#609);
#196=VERTEX_POINT('',#613);
#197=VERTEX_POINT('',#614);
#198=VERTEX_POINT('',#616);
#199=VERTEX_POINT('',#618);
#200=VERTEX_POINT('',#622);
#201=VERTEX_POINT('',#624);
#202=VERTEX_POINT('',#628);
#203=VERTEX_POINT('',#630);
#204=EDGE_CURVE('',#174,#174,#152,.T.);
#205=EDGE_CURVE('',#174,#175,#106,.T.);
#206=EDGE_CURVE('',#175,#175,#153,.T.);
#207=EDGE_CURVE('',#176,#176,#154,.T.);
#208=EDGE_CURVE('',#177,#177,#155,.T.);
#209=EDGE_CURVE('',#177,#178,#107,.T.);
#210=EDGE_CURVE('',#178,#178,#156,.T.);
#211=EDGE_CURVE('',#179,#179,#157,.T.);
#212=EDGE_CURVE('',#180,#180,#158,.T.);
#213=EDGE_CURVE('',#180,#181,#108,.T.);
#214=EDGE_CURVE('',#181,#181,#159,.T.);
#215=EDGE_CURVE('',#182,#182,#160,.T.);
#216=EDGE_CURVE('',#183,#183,#161,.T.);
#217=EDGE_CURVE('',#183,#176,#109,.T.);
#218=EDGE_CURVE('',#184,#184,#162,.T.);
#219=EDGE_CURVE('',#184,#182,#110,.T.);
#220=EDGE_CURVE('',#185,#185,#163,.T.);
#221=EDGE_CURVE('',#185,#179,#111,.T.);
#222=EDGE_CURVE('',#186,#186,#164,.T.);
#223=EDGE_CURVE('',#186,#187,#112,.T.);
#224=EDGE_CURVE('',#187,#187,#165,.T.);
#225=EDGE_CURVE('',#188,#188,#166,.T.);
#226=EDGE_CURVE('',#188,#189,#113,.T.);
#227=EDGE_CURVE('',#189,#189,#167,.T.);
#228=EDGE_CURVE('',#190,#190,#168,.T.);
#229=EDGE_CURVE('',#190,#191,#114,.T.);
#230=EDGE_CURVE('',#191,#191,#169,.T.);
#231=EDGE_CURVE('',#192,#192,#170,.T.);
#232=EDGE_CURVE('',#192,#193,#115,.T.);
#233=EDGE_CURVE('',#193,#193,#171,.T.);
#234=EDGE_CURVE('',#194,#194,#172,.T.);
#235=EDGE_CURVE('',#194,#195,#116,.T.);
#236=EDGE_CURVE('',#195,#195,#173,.T.);
#237=EDGE_CURVE('',#196,#197,#117,.T.);
#238=EDGE_CURVE('',#196,#198,#118,.T.);
#239=EDGE_CURVE('',#199,#198,#119,.T.);
#240=EDGE_CURVE('',#197,#199,#120,.T.);
#241=EDGE_CURVE('',#197,#200,#121,.T.);
#242=EDGE_CURVE('',#201,#199,#122,.T.);
#243=EDGE_CURVE('',#200,#201,#123,.T.);
#244=EDGE_CURVE('',#200,#202,#124,.T.);
#245=EDGE_CURVE('',#203,#201,#125,.T.);
#246=EDGE_CURVE('',#202,#203,#126,.T.);
#247=EDGE_CURVE('',#202,#196,#127,.T.);
#248=EDGE_CURVE('',#198,#203,#128,.T.);
#249=ORIENTED_EDGE('',*,*,#204,.F.);
#250=ORIENTED_EDGE('',*,*,#205,.T.);
#251=ORIENTED_EDGE('',*,*,#206,.T.);
#252=ORIENTED_EDGE('',*,*,#205,.F.);
#253=ORIENTED_EDGE('',*,*,#206,.F.);
#254=ORIENTED_EDGE('',*,*,#207,.F.);
#255=ORIENTED_EDGE('',*,*,#208,.F.);
#256=ORIENTED_EDGE('',*,*,#209,.T.);
#257=ORIENTED_EDGE('',*,*,#210,.T.);
#258=ORIENTED_EDGE('',*,*,#209,.F.);
#259=ORIENTED_EDGE('',*,*,#210,.F.);
#260=ORIENTED_EDGE('',*,*,#211,.F.);
#261=ORIENTED_EDGE('',*,*,#212,.F.);
#262=ORIENTED_EDGE('',*,*,#213,.T.);
#263=ORIENTED_EDGE('',*,*,#214,.T.);
#264=ORIENTED_EDGE('',*,*,#213,.F.);
#265=ORIENTED_EDGE('',*,*,#214,.F.);
#266=ORIENTED_EDGE('',*,*,#215,.F.);
#267=ORIENTED_EDGE('',*,*,#216,.F.);
#268=ORIENTED_EDGE('',*,*,#217,.T.);
#269=ORIENTED_EDGE('',*,*,#207,.T.);
#270=ORIENTED_EDGE('',*,*,#217,.F.);
#271=ORIENTED_EDGE('',*,*,#218,.F.);
#272=ORIENTED_EDGE('',*,*,#219,.T.);
#273=ORIENTED_EDGE('',*,*,#215,.T.);
#274=ORIENTED_EDGE('',*,*,#219,.F.);
#275=ORIENTED_EDGE('',*,*,#220,.F.);
#276=ORIENTED_EDGE('',*,*,#221,.T.);
#277=ORIENTED_EDGE('',*,*,#211,.T.);
#278=ORIENTED_EDGE('',*,*,#221,.F.);
#279=ORIENTED_EDGE('',*,*,#222,.F.);
#280=ORIENTED_EDGE('',*,*,#223,.T.);
#281=ORIENTED_EDGE('',*,*,#224,.T.);
#282=ORIENTED_EDGE('',*,*,#223,.F.);
#283=ORIENTED_EDGE('',*,*,#225,.F.);
#284=ORIENTED_EDGE('',*,*,#226,.T.);
#285=ORIENTED_EDGE('',*,*,#227,.T.);
#286=ORIENTED_EDGE('',*,*,#226,.F.);
#287=ORIENTED_EDGE('',*,*,#228,.F.);
#288=ORIENTED_EDGE('',*,*,#229,.T.);
#289=ORIENTED_EDGE('',*,*,#230,.T.);
#290=ORIENTED_EDGE('',*,*,#229,.F.);
#291=ORIENTED_EDGE('',*,*,#231,.F.);
#292=ORIENTED_EDGE('',*,*,#232,.T.);
#293=ORIENTED_EDGE('',*,*,#233,.T.);
#294=ORIENTED_EDGE('',*,*,#232,.F.);
#295=ORIENTED_EDGE('',*,*,#234,.F.);
#296=ORIENTED_EDGE('',*,*,#235,.T.);
#297=ORIENTED_EDGE('',*,*,#236,.T.);
#298=ORIENTED_EDGE('',*,*,#235,.F.);
#299=ORIENTED_EDGE('',*,*,#237,.F.);
#300=ORIENTED_EDGE('',*,*,#238,.T.);
#301=ORIENTED_EDGE('',*,*,#239,.F.);
#302=ORIENTED_EDGE('',*,*,#240,.F.);
#303=ORIENTED_EDGE('',*,*,#241,.F.);
#304=ORIENTED_EDGE('',*,*,#240,.T.);
#305=ORIENTED_EDGE('',*,*,#242,.F.);
#306=ORIENTED_EDGE('',*,*,#243,.F.);
#307=ORIENTED_EDGE('',*,*,#244,.F.);
#308=ORIENTED_EDGE('',*,*,#243,.T.);
#309=ORIENTED_EDGE('',*,*,#245,.F.);
#310=ORIENTED_EDGE('',*,*,#246,.F.);
#311=ORIENTED_EDGE('',*,*,#247,.F.);
#312=ORIENTED_EDGE('',*,*,#246,.T.);
#313=ORIENTED_EDGE('',*,*,#248,.F.);
#314=ORIENTED_EDGE('',*,*,#238,.F.);
#315=ORIENTED_EDGE('',*,*,#248,.T.);
#316=ORIENTED_EDGE('',*,*,#245,.T.);
#317=ORIENTED_EDGE('',*,*,#242,.T.);
#318=ORIENTED_EDGE('',*,*,#239,.T.);
#319=ORIENTED_EDGE('',*,*,#234,.T.);
#320=ORIENTED_EDGE('',*,*,#231,.T.);
#321=ORIENTED_EDGE('',*,*,#228,.T.);
#322=ORIENTED_EDGE('',*,*,#225,.T.);
#323=ORIENTED_EDGE('',*,*,#222,.T.);
#324=ORIENTED_EDGE('',*,*,#220,.T.);
#325=ORIENTED_EDGE('',*,*,#218,.T.);
#326=ORIENTED_EDGE('',*,*,#216,.T.);
#327=ORIENTED_EDGE('',*,*,#247,.T.);
#328=ORIENTED_EDGE('',*,*,#237,.T.);
#329=ORIENTED_EDGE('',*,*,#241,.T.);
#330=ORIENTED_EDGE('',*,*,#244,.T.);
#331=ORIENTED_EDGE('',*,*,#204,.T.);
#332=ORIENTED_EDGE('',*,*,#208,.T.);
#333=ORIENTED_EDGE('',*,*,#212,.T.);
#334=ORIENTED_EDGE('',*,*,#236,.F.);
#335=ORIENTED_EDGE('',*,*,#233,.F.);
#336=ORIENTED_EDGE('',*,*,#230,.F.);
#337=ORIENTED_EDGE('',*,*,#227,.F.);
#338=ORIENTED_EDGE('',*,*,#224,.F.);
#339=CYLINDRICAL_SURFACE('',#385,5.);
#340=CYLINDRICAL_SURFACE('',#390,5.);
#341=CYLINDRICAL_SURFACE('',#395,5.);
#342=CYLINDRICAL_SURFACE('',#400,4.35);
#343=CYLINDRICAL_SURFACE('',#402,4.35);
#344=CYLINDRICAL_SURFACE('',#404,4.35);
#345=CYLINDRICAL_SURFACE('',#406,1.55);
#346=CYLINDRICAL_SURFACE('',#409,1.55);
#347=CYLINDRICAL_SURFACE('',#412,7.5);
#348=CYLINDRICAL_SURFACE('',#415,1.55);
#349=CYLINDRICAL_SURFACE('',#418,1.55);
#350=ADVANCED_FACE('',(#47),#339,.F.);
#351=ADVANCED_FACE('',(#48,#19),#38,.F.);
#352=ADVANCED_FACE('',(#49),#340,.F.);
#353=ADVANCED_FACE('',(#50,#20),#39,.F.);
#354=ADVANCED_FACE('',(#51),#341,.F.);
#355=ADVANCED_FACE('',(#52,#21),#40,.F.);
#356=ADVANCED_FACE('',(#53),#342,.F.);
#357=ADVANCED_FACE('',(#54),#343,.F.);
#358=ADVANCED_FACE('',(#55),#344,.F.);
#359=ADVANCED_FACE('',(#56),#345,.F.);
#360=ADVANCED_FACE('',(#57),#346,.F.);
#361=ADVANCED_FACE('',(#58),#347,.F.);
#362=ADVANCED_FACE('',(#59),#348,.F.);
#363=ADVANCED_FACE('',(#60),#349,.F.);
#364=ADVANCED_FACE('',(#61),#41,.T.);
#365=ADVANCED_FACE('',(#62),#42,.T.);
#366=ADVANCED_FACE('',(#63),#43,.T.);
#367=ADVANCED_FACE('',(#64),#44,.T.);
#368=ADVANCED_FACE('',(#65,#22,#23,#24,#25,#26,#27,#28,#29),#45,.T.);
#369=ADVANCED_FACE('',(#66,#30,#31,#32,#33,#34,#35,#36,#37),#46,.F.);
#370=CLOSED_SHELL('',(#350,#351,#352,#353,#354,#355,#356,#357,#358,#359,
#360,#361,#362,#363,#364,#365,#366,#367,#368,#369));
#371=DERIVED_UNIT_ELEMENT(#373,1.);
#372=DERIVED_UNIT_ELEMENT(#646,-3.);
#373=(
MASS_UNIT()
NAMED_UNIT(*)
SI_UNIT(.KILO.,.GRAM.)
);
#374=DERIVED_UNIT((#371,#372));
#375=MEASURE_REPRESENTATION_ITEM('density measure',
POSITIVE_RATIO_MEASURE(7850.),#374);
#376=PROPERTY_DEFINITION_REPRESENTATION(#381,#378);
#377=PROPERTY_DEFINITION_REPRESENTATION(#382,#379);
#378=REPRESENTATION('material name',(#380),#643);
#379=REPRESENTATION('density',(#375),#643);
#380=DESCRIPTIVE_REPRESENTATION_ITEM('\X2\94A2\X0\','\X2\94A2\X0\');
#381=PROPERTY_DEFINITION('material property','material name',#658);
#382=PROPERTY_DEFINITION('material property','density of part',#658);
#383=AXIS2_PLACEMENT_3D('',#541,#428,#429);
#384=AXIS2_PLACEMENT_3D('',#542,#430,#431);
#385=AXIS2_PLACEMENT_3D('',#543,#432,#433);
#386=AXIS2_PLACEMENT_3D('',#545,#434,#435);
#387=AXIS2_PLACEMENT_3D('',#548,#437,#438);
#388=AXIS2_PLACEMENT_3D('',#549,#439,#440);
#389=AXIS2_PLACEMENT_3D('',#551,#441,#442);
#390=AXIS2_PLACEMENT_3D('',#552,#443,#444);
#391=AXIS2_PLACEMENT_3D('',#554,#445,#446);
#392=AXIS2_PLACEMENT_3D('',#557,#448,#449);
#393=AXIS2_PLACEMENT_3D('',#558,#450,#451);
#394=AXIS2_PLACEMENT_3D('',#560,#452,#453);
#395=AXIS2_PLACEMENT_3D('',#561,#454,#455);
#396=AXIS2_PLACEMENT_3D('',#563,#456,#457);
#397=AXIS2_PLACEMENT_3D('',#566,#459,#460);
#398=AXIS2_PLACEMENT_3D('',#567,#461,#462);
#399=AXIS2_PLACEMENT_3D('',#569,#463,#464);
#400=AXIS2_PLACEMENT_3D('',#570,#465,#466);
#401=AXIS2_PLACEMENT_3D('',#572,#467,#468);
#402=AXIS2_PLACEMENT_3D('',#574,#470,#471);
#403=AXIS2_PLACEMENT_3D('',#576,#472,#473);
#404=AXIS2_PLACEMENT_3D('',#578,#475,#476);
#405=AXIS2_PLACEMENT_3D('',#580,#477,#478);
#406=AXIS2_PLACEMENT_3D('',#582,#480,#481);
#407=AXIS2_PLACEMENT_3D('',#584,#482,#483);
#408=AXIS2_PLACEMENT_3D('',#587,#485,#486);
#409=AXIS2_PLACEMENT_3D('',#588,#487,#488);
#410=AXIS2_PLACEMENT_3D('',#590,#489,#490);
#411=AXIS2_PLACEMENT_3D('',#593,#492,#493);
#412=AXIS2_PLACEMENT_3D('',#594,#494,#495);
#413=AXIS2_PLACEMENT_3D('',#596,#496,#497);
#414=AXIS2_PLACEMENT_3D('',#599,#499,#500);
#415=AXIS2_PLACEMENT_3D('',#600,#501,#502);
#416=AXIS2_PLACEMENT_3D('',#602,#503,#504);
#417=AXIS2_PLACEMENT_3D('',#605,#506,#507);
#418=AXIS2_PLACEMENT_3D('',#606,#508,#509);
#419=AXIS2_PLACEMENT_3D('',#608,#510,#511);
#420=AXIS2_PLACEMENT_3D('',#611,#513,#514);
#421=AXIS2_PLACEMENT_3D('',#612,#515,#516);
#422=AXIS2_PLACEMENT_3D('',#621,#521,#522);
#423=AXIS2_PLACEMENT_3D('',#627,#526,#527);
#424=AXIS2_PLACEMENT_3D('',#633,#531,#532);
#425=AXIS2_PLACEMENT_3D('',#636,#535,#536);
#426=AXIS2_PLACEMENT_3D('',#637,#537,#538);
#427=AXIS2_PLACEMENT_3D('',#638,#539,#540);
#428=DIRECTION('axis',(0.,0.,1.));
#429=DIRECTION('refdir',(1.,0.,0.));
#430=DIRECTION('axis',(0.,0.,1.));
#431=DIRECTION('refdir',(1.,0.,0.));
#432=DIRECTION('center_axis',(0.,1.,0.));
#433=DIRECTION('ref_axis',(1.,0.,0.));
#434=DIRECTION('center_axis',(0.,1.,0.));
#435=DIRECTION('ref_axis',(1.,0.,0.));
#436=DIRECTION('',(0.,1.,0.));
#437=DIRECTION('center_axis',(0.,1.,0.));
#438=DIRECTION('ref_axis',(1.,0.,0.));
#439=DIRECTION('center_axis',(0.,1.,0.));
#440=DIRECTION('ref_axis',(1.,0.,0.));
#441=DIRECTION('center_axis',(0.,-1.,0.));
#442=DIRECTION('ref_axis',(1.,0.,0.));
#443=DIRECTION('center_axis',(0.,1.,0.));
#444=DIRECTION('ref_axis',(1.,0.,0.));
#445=DIRECTION('center_axis',(0.,1.,0.));
#446=DIRECTION('ref_axis',(1.,0.,0.));
#447=DIRECTION('',(0.,1.,0.));
#448=DIRECTION('center_axis',(0.,1.,0.));
#449=DIRECTION('ref_axis',(1.,0.,0.));
#450=DIRECTION('center_axis',(0.,1.,0.));
#451=DIRECTION('ref_axis',(1.,0.,0.));
#452=DIRECTION('center_axis',(0.,-1.,0.));
#453=DIRECTION('ref_axis',(1.,0.,0.));
#454=DIRECTION('center_axis',(0.,1.,0.));
#455=DIRECTION('ref_axis',(1.,0.,0.));
#456=DIRECTION('center_axis',(0.,1.,0.));
#457=DIRECTION('ref_axis',(1.,0.,0.));
#458=DIRECTION('',(0.,1.,0.));
#459=DIRECTION('center_axis',(0.,1.,0.));
#460=DIRECTION('ref_axis',(1.,0.,0.));
#461=DIRECTION('center_axis',(0.,1.,0.));
#462=DIRECTION('ref_axis',(1.,0.,0.));
#463=DIRECTION('center_axis',(0.,-1.,0.));
#464=DIRECTION('ref_axis',(1.,0.,0.));
#465=DIRECTION('center_axis',(0.,1.,0.));
#466=DIRECTION('ref_axis',(1.,0.,0.));
#467=DIRECTION('center_axis',(0.,-1.,0.));
#468=DIRECTION('ref_axis',(1.,0.,0.));
#469=DIRECTION('',(0.,-1.,0.));
#470=DIRECTION('center_axis',(0.,1.,0.));
#471=DIRECTION('ref_axis',(1.,0.,0.));
#472=DIRECTION('center_axis',(0.,-1.,0.));
#473=DIRECTION('ref_axis',(1.,0.,0.));
#474=DIRECTION('',(0.,-1.,0.));
#475=DIRECTION('center_axis',(0.,1.,0.));
#476=DIRECTION('ref_axis',(1.,0.,0.));
#477=DIRECTION('center_axis',(0.,-1.,0.));
#478=DIRECTION('ref_axis',(1.,0.,0.));
#479=DIRECTION('',(0.,-1.,0.));
#480=DIRECTION('center_axis',(0.,1.,0.));
#481=DIRECTION('ref_axis',(1.,0.,0.));
#482=DIRECTION('center_axis',(0.,-1.,0.));
#483=DIRECTION('ref_axis',(1.,0.,0.));
#484=DIRECTION('',(0.,-1.,0.));
#485=DIRECTION('center_axis',(0.,-1.,0.));
#486=DIRECTION('ref_axis',(1.,0.,0.));
#487=DIRECTION('center_axis',(0.,1.,0.));
#488=DIRECTION('ref_axis',(1.,0.,0.));
#489=DIRECTION('center_axis',(0.,-1.,0.));
#490=DIRECTION('ref_axis',(1.,0.,0.));
#491=DIRECTION('',(0.,-1.,0.));
#492=DIRECTION('center_axis',(0.,-1.,0.));
#493=DIRECTION('ref_axis',(1.,0.,0.));
#494=DIRECTION('center_axis',(0.,1.,0.));
#495=DIRECTION('ref_axis',(1.,0.,0.));
#496=DIRECTION('center_axis',(0.,-1.,0.));
#497=DIRECTION('ref_axis',(1.,0.,0.));
#498=DIRECTION('',(0.,-1.,0.));
#499=DIRECTION('center_axis',(0.,-1.,0.));
#500=DIRECTION('ref_axis',(1.,0.,0.));
#501=DIRECTION('center_axis',(0.,1.,0.));
#502=DIRECTION('ref_axis',(1.,0.,0.));
#503=DIRECTION('center_axis',(0.,-1.,0.));
#504=DIRECTION('ref_axis',(1.,0.,0.));
#505=DIRECTION('',(0.,-1.,0.));
#506=DIRECTION('center_axis',(0.,-1.,0.));
#507=DIRECTION('ref_axis',(1.,0.,0.));
#508=DIRECTION('center_axis',(0.,1.,0.));
#509=DIRECTION('ref_axis',(1.,0.,0.));
#510=DIRECTION('center_axis',(0.,-1.,0.));
#511=DIRECTION('ref_axis',(1.,0.,0.));
#512=DIRECTION('',(0.,-1.,0.));
#513=DIRECTION('center_axis',(0.,-1.,0.));
#514=DIRECTION('ref_axis',(1.,0.,0.));
#515=DIRECTION('center_axis',(-1.,0.,0.));
#516=DIRECTION('ref_axis',(0.,0.,1.));
#517=DIRECTION('',(0.,0.,-1.));
#518=DIRECTION('',(0.,1.,0.));
#519=DIRECTION('',(0.,0.,1.));
#520=DIRECTION('',(0.,1.,0.));
#521=DIRECTION('center_axis',(0.,0.,-1.));
#522=DIRECTION('ref_axis',(-1.,0.,0.));
#523=DIRECTION('',(1.,0.,0.));
#524=DIRECTION('',(-1.,0.,0.));
#525=DIRECTION('',(0.,1.,0.));
#526=DIRECTION('center_axis',(1.,0.,0.));
#527=DIRECTION('ref_axis',(0.,0.,-1.));
#528=DIRECTION('',(0.,0.,1.));
#529=DIRECTION('',(0.,0.,-1.));
#530=DIRECTION('',(0.,1.,0.));
#531=DIRECTION('center_axis',(1.61486985400023E-16,0.,1.));
#532=DIRECTION('ref_axis',(1.,0.,-1.61486985400023E-16));
#533=DIRECTION('',(-1.,0.,1.61486985400023E-16));
#534=DIRECTION('',(1.,0.,-1.61486985400023E-16));
#535=DIRECTION('center_axis',(0.,1.,0.));
#536=DIRECTION('ref_axis',(1.,0.,0.));
#537=DIRECTION('center_axis',(0.,1.,0.));
#538=DIRECTION('ref_axis',(1.,0.,0.));
#539=DIRECTION('',(0.,0.,1.));
#540=DIRECTION('',(1.,0.,0.));
#541=CARTESIAN_POINT('',(0.,0.,0.));
#542=CARTESIAN_POINT('',(0.,0.,0.));
#543=CARTESIAN_POINT('Origin',(24.3012192794247,0.,57.3546382004302));
#544=CARTESIAN_POINT('',(19.3012192794247,0.,57.3546382004302));
#545=CARTESIAN_POINT('Origin',(24.3012192794247,0.,57.3546382004302));
#546=CARTESIAN_POINT('',(19.3012192794247,1.,57.3546382004302));
#547=CARTESIAN_POINT('',(19.3012192794247,0.,57.3546382004302));
#548=CARTESIAN_POINT('Origin',(24.3012192794247,1.,57.3546382004302));
#549=CARTESIAN_POINT('Origin',(24.3012192794247,1.,57.3546382004302));
#550=CARTESIAN_POINT('',(19.9512192794247,1.,57.3546382004302));
#551=CARTESIAN_POINT('Origin',(24.3012192794247,1.,57.3546382004302));
#552=CARTESIAN_POINT('Origin',(55.3012192794247,0.,39.8546382004302));
#553=CARTESIAN_POINT('',(50.3012192794247,0.,39.8546382004302));
#554=CARTESIAN_POINT('Origin',(55.3012192794247,0.,39.8546382004302));
#555=CARTESIAN_POINT('',(50.3012192794247,1.,39.8546382004302));
#556=CARTESIAN_POINT('',(50.3012192794247,0.,39.8546382004302));
#557=CARTESIAN_POINT('Origin',(55.3012192794247,1.,39.8546382004302));
#558=CARTESIAN_POINT('Origin',(55.3012192794247,1.,39.8546382004302));
#559=CARTESIAN_POINT('',(50.9512192794247,1.,39.8546382004302));
#560=CARTESIAN_POINT('Origin',(55.3012192794247,1.,39.8546382004302));
#561=CARTESIAN_POINT('Origin',(24.3012192794247,0.,22.3546382004302));
#562=CARTESIAN_POINT('',(19.3012192794247,0.,22.3546382004302));
#563=CARTESIAN_POINT('Origin',(24.3012192794247,0.,22.3546382004302));
#564=CARTESIAN_POINT('',(19.3012192794247,1.,22.3546382004302));
#565=CARTESIAN_POINT('',(19.3012192794247,0.,22.3546382004302));
#566=CARTESIAN_POINT('Origin',(24.3012192794247,1.,22.3546382004302));
#567=CARTESIAN_POINT('Origin',(24.3012192794247,1.,22.3546382004302));
#568=CARTESIAN_POINT('',(19.9512192794247,1.,22.3546382004302));
#569=CARTESIAN_POINT('Origin',(24.3012192794247,1.,22.3546382004302));
#570=CARTESIAN_POINT('Origin',(24.3012192794247,0.,57.3546382004302));
#571=CARTESIAN_POINT('',(19.9512192794247,2.,57.3546382004302));
#572=CARTESIAN_POINT('Origin',(24.3012192794247,2.,57.3546382004302));
#573=CARTESIAN_POINT('',(19.9512192794247,0.,57.3546382004302));
#574=CARTESIAN_POINT('Origin',(24.3012192794247,0.,22.3546382004302));
#575=CARTESIAN_POINT('',(19.9512192794247,2.,22.3546382004302));
#576=CARTESIAN_POINT('Origin',(24.3012192794247,2.,22.3546382004302));
#577=CARTESIAN_POINT('',(19.9512192794247,0.,22.3546382004302));
#578=CARTESIAN_POINT('Origin',(55.3012192794247,0.,39.8546382004302));
#579=CARTESIAN_POINT('',(50.9512192794247,2.,39.8546382004302));
#580=CARTESIAN_POINT('Origin',(55.3012192794247,2.,39.8546382004302));
#581=CARTESIAN_POINT('',(50.9512192794247,0.,39.8546382004302));
#582=CARTESIAN_POINT('Origin',(60.8012192794247,0.,18.8546382004302));
#583=CARTESIAN_POINT('',(59.2512192794247,2.,18.8546382004302));
#584=CARTESIAN_POINT('Origin',(60.8012192794247,2.,18.8546382004302));
#585=CARTESIAN_POINT('',(59.2512192794247,0.,18.8546382004302));
#586=CARTESIAN_POINT('',(59.2512192794247,0.,18.8546382004302));
#587=CARTESIAN_POINT('Origin',(60.8012192794247,0.,18.8546382004302));
#588=CARTESIAN_POINT('Origin',(14.8012192794247,0.,60.8546382004302));
#589=CARTESIAN_POINT('',(13.2512192794247,2.,60.8546382004302));
#590=CARTESIAN_POINT('Origin',(14.8012192794247,2.,60.8546382004302));
#591=CARTESIAN_POINT('',(13.2512192794247,0.,60.8546382004302));
#592=CARTESIAN_POINT('',(13.2512192794247,0.,60.8546382004302));
#593=CARTESIAN_POINT('Origin',(14.8012192794247,0.,60.8546382004302));
#594=CARTESIAN_POINT('Origin',(25.3012192794247,0.,39.8546382004302));
#595=CARTESIAN_POINT('',(17.8012192794247,2.,39.8546382004302));
#596=CARTESIAN_POINT('Origin',(25.3012192794247,2.,39.8546382004302));
#597=CARTESIAN_POINT('',(17.8012192794247,0.,39.8546382004302));
#598=CARTESIAN_POINT('',(17.8012192794247,0.,39.8546382004302));
#599=CARTESIAN_POINT('Origin',(25.3012192794247,0.,39.8546382004302));
#600=CARTESIAN_POINT('Origin',(60.8012192794247,0.,60.8546382004302));
#601=CARTESIAN_POINT('',(59.2512192794247,2.,60.8546382004302));
#602=CARTESIAN_POINT('Origin',(60.8012192794247,2.,60.8546382004302));
#603=CARTESIAN_POINT('',(59.2512192794247,0.,60.8546382004302));
#604=CARTESIAN_POINT('',(59.2512192794247,0.,60.8546382004302));
#605=CARTESIAN_POINT('Origin',(60.8012192794247,0.,60.8546382004302));
#606=CARTESIAN_POINT('Origin',(14.8012192794247,0.,18.8546382004302));
#607=CARTESIAN_POINT('',(13.2512192794247,2.,18.8546382004302));
#608=CARTESIAN_POINT('Origin',(14.8012192794247,2.,18.8546382004302));
#609=CARTESIAN_POINT('',(13.2512192794247,0.,18.8546382004302));
#610=CARTESIAN_POINT('',(13.2512192794247,0.,18.8546382004302));
#611=CARTESIAN_POINT('Origin',(14.8012192794247,0.,18.8546382004302));
#612=CARTESIAN_POINT('Origin',(10.3012192794247,0.,14.8546382004302));
#613=CARTESIAN_POINT('',(10.3012192794247,0.,64.8546382004302));
#614=CARTESIAN_POINT('',(10.3012192794247,0.,14.8546382004302));
#615=CARTESIAN_POINT('',(10.3012192794247,0.,64.8546382004302));
#616=CARTESIAN_POINT('',(10.3012192794247,2.,64.8546382004302));
#617=CARTESIAN_POINT('',(10.3012192794247,0.,64.8546382004302));
#618=CARTESIAN_POINT('',(10.3012192794247,2.,14.8546382004302));
#619=CARTESIAN_POINT('',(10.3012192794247,2.,64.8546382004302));
#620=CARTESIAN_POINT('',(10.3012192794247,0.,14.8546382004302));
#621=CARTESIAN_POINT('Origin',(65.3012192794247,0.,14.8546382004302));
#622=CARTESIAN_POINT('',(65.3012192794247,0.,14.8546382004302));
#623=CARTESIAN_POINT('',(10.3012192794247,0.,14.8546382004302));
#624=CARTESIAN_POINT('',(65.3012192794247,2.,14.8546382004302));
#625=CARTESIAN_POINT('',(10.3012192794247,2.,14.8546382004302));
#626=CARTESIAN_POINT('',(65.3012192794247,0.,14.8546382004302));
#627=CARTESIAN_POINT('Origin',(65.3012192794247,0.,64.8546382004302));
#628=CARTESIAN_POINT('',(65.3012192794247,0.,64.8546382004302));
#629=CARTESIAN_POINT('',(65.3012192794247,0.,14.8546382004302));
#630=CARTESIAN_POINT('',(65.3012192794247,2.,64.8546382004302));
#631=CARTESIAN_POINT('',(65.3012192794247,2.,14.8546382004302));
#632=CARTESIAN_POINT('',(65.3012192794247,0.,64.8546382004302));
#633=CARTESIAN_POINT('Origin',(10.3012192794247,0.,64.8546382004302));
#634=CARTESIAN_POINT('',(65.3012192794247,0.,64.8546382004302));
#635=CARTESIAN_POINT('',(65.3012192794247,2.,64.8546382004302));
#636=CARTESIAN_POINT('Origin',(37.8012192794247,2.,39.8546382004302));
#637=CARTESIAN_POINT('Origin',(37.8012192794247,0.,39.8546382004302));
#638=CARTESIAN_POINT('',(0.,0.,0.));
#639=UNCERTAINTY_MEASURE_WITH_UNIT(LENGTH_MEASURE(0.01),#645,
'DISTANCE_ACCURACY_VALUE',
'Maximum model space distance between geometric entities at asserted c
onnectivities');
#640=UNCERTAINTY_MEASURE_WITH_UNIT(LENGTH_MEASURE(0.01),#645,
'DISTANCE_ACCURACY_VALUE',
'Maximum model space distance between geometric entities at asserted c
onnectivities');
#641=UNCERTAINTY_MEASURE_WITH_UNIT(LENGTH_MEASURE(0.01),#645,
'DISTANCE_ACCURACY_VALUE',
'Maximum model space distance between geometric entities at asserted c
onnectivities');
#642=(
GEOMETRIC_REPRESENTATION_CONTEXT(3)
GLOBAL_UNCERTAINTY_ASSIGNED_CONTEXT((#639))
GLOBAL_UNIT_ASSIGNED_CONTEXT((#645,#647,#648))
REPRESENTATION_CONTEXT('','3D')
);
#643=(
GEOMETRIC_REPRESENTATION_CONTEXT(3)
GLOBAL_UNCERTAINTY_ASSIGNED_CONTEXT((#640))
GLOBAL_UNIT_ASSIGNED_CONTEXT((#645,#647,#648))
REPRESENTATION_CONTEXT('','3D')
);
#644=(
GEOMETRIC_REPRESENTATION_CONTEXT(3)
GLOBAL_UNCERTAINTY_ASSIGNED_CONTEXT((#641))
GLOBAL_UNIT_ASSIGNED_CONTEXT((#645,#647,#648))
REPRESENTATION_CONTEXT('','3D')
);
#645=(
LENGTH_UNIT()
NAMED_UNIT(*)
SI_UNIT(.MILLI.,.METRE.)
);
#646=(
LENGTH_UNIT()
NAMED_UNIT(*)
SI_UNIT($,.METRE.)
);
#647=(
NAMED_UNIT(*)
PLANE_ANGLE_UNIT()
SI_UNIT($,.RADIAN.)
);
#648=(
NAMED_UNIT(*)
SI_UNIT($,.STERADIAN.)
SOLID_ANGLE_UNIT()
);
#649=SHAPE_DEFINITION_REPRESENTATION(#651,#654);
#650=SHAPE_DEFINITION_REPRESENTATION(#652,#655);
#651=PRODUCT_DEFINITION_SHAPE('',$,#657);
#652=PRODUCT_DEFINITION_SHAPE('',$,#658);
#653=PRODUCT_DEFINITION_SHAPE($,$,#14);
#654=SHAPE_REPRESENTATION('',(#383,#427),#642);
#655=SHAPE_REPRESENTATION('',(#384),#643);
#656=PRODUCT_DEFINITION_CONTEXT('part definition',#664,'design');
#657=PRODUCT_DEFINITION('CNC-STM-\X2\673A4F534E0A76D6\X0\',
'CNC-STM-\X2\673A4F534E0A76D6\X0\ v5',#659,#656);
#658=PRODUCT_DEFINITION('\X2\96F690E84EF6\X0\1','\X2\96F690E84EF6\X0\1',
#660,#656);
#659=PRODUCT_DEFINITION_FORMATION('',$,#666);
#660=PRODUCT_DEFINITION_FORMATION('',$,#667);
#661=PRODUCT_RELATED_PRODUCT_CATEGORY('CNC-STM-\X2\673A4F534E0A76D6\X0\ 
v5','CNC-STM-\X2\673A4F534E0A76D6\X0\ v5',(#666));
#662=PRODUCT_RELATED_PRODUCT_CATEGORY('\X2\96F690E84EF6\X0\1',
'\X2\96F690E84EF6\X0\1',(#667));
#663=APPLICATION_PROTOCOL_DEFINITION('international standard',
'automotive_design',2009,#664);
#664=APPLICATION_CONTEXT(
'Core Data for Automotive Mechanical Design Process');
#665=PRODUCT_CONTEXT('part definition',#664,'mechanical');
#666=PRODUCT('CNC-STM-\X2\673A4F534E0A76D6\X0\',
'CNC-STM-\X2\673A4F534E0A76D6\X0\ v5',$,(#665));
#667=PRODUCT('\X2\96F690E84EF6\X0\1','\X2\96F690E84EF6\X0\1',$,(#665));
#668=PRESENTATION_STYLE_ASSIGNMENT((#669));
#669=SURFACE_STYLE_USAGE(.BOTH.,#670);
#670=SURFACE_SIDE_STYLE('',(#671));
#671=SURFACE_STYLE_FILL_AREA(#672);
#672=FILL_AREA_STYLE('\X2\94A2\X0\ - \X2\7F0E5149\X0\',(#673));
#673=FILL_AREA_STYLE_COLOUR('\X2\94A2\X0\ - \X2\7F0E5149\X0\',#674);
#674=COLOUR_RGB('\X2\94A2\X0\ - \X2\7F0E5149\X0\',0.627450980392157,0.627450980392157,
0.627450980392157);
ENDSEC;
END-ISO-10303-21;
