ISO-10303-21;
HEADER;
/* Generated by software containing ST-Developer
 * from STEP Tools, Inc. (www.steptools.com) 
 */

FILE_DESCRIPTION(
/* description */ (''),
/* implementation_level */ '2;1');

FILE_NAME(
/* name */ '',
/* time_stamp */ '2025-10-06T16:27:54+08:00',
/* author */ (''),
/* organization */ (''),
/* preprocessor_version */ 'ST-DEVELOPER v20.1',
/* originating_system */ 'Autodesk Translation Framework v14.17.0.0',
/* authorisation */ '');

FILE_SCHEMA (('AUTOMOTIVE_DESIGN { 1 0 10303 214 3 1 1 }'));
ENDSEC;

DATA;
#10=MECHANICAL_DESIGN_GEOMETRIC_PRESENTATION_REPRESENTATION('',(#13),#583);
#11=SHAPE_REPRESENTATION_RELATIONSHIP('SRR','None',#590,#12);
#12=ADVANCED_BREP_SHAPE_REPRESENTATION('',(#14),#582);
#13=STYLED_ITEM('',(#600),#14);
#14=MANIFOLD_SOLID_BREP('\X2\5B9E4F53\X0\1',#343);
#15=FACE_BOUND('',#74,.T.);
#16=FACE_BOUND('',#77,.T.);
#17=FACE_BOUND('',#85,.T.);
#18=FACE_BOUND('',#86,.T.);
#19=FACE_BOUND('',#88,.T.);
#20=FACE_BOUND('',#89,.T.);
#21=FACE_BOUND('',#90,.T.);
#22=FACE_BOUND('',#91,.T.);
#23=FACE_BOUND('',#92,.T.);
#24=CIRCLE('',#363,1.5);
#25=CIRCLE('',#364,1.5);
#26=CIRCLE('',#367,1.5);
#27=CIRCLE('',#368,1.5);
#28=CIRCLE('',#371,2.);
#29=CIRCLE('',#372,2.);
#30=CIRCLE('',#374,3.);
#31=CIRCLE('',#376,2.);
#32=CIRCLE('',#377,2.);
#33=CIRCLE('',#379,3.);
#34=CIRCLE('',#381,3.);
#35=CIRCLE('',#383,3.);
#36=CYLINDRICAL_SURFACE('',#362,1.5);
#37=CYLINDRICAL_SURFACE('',#366,1.5);
#38=CYLINDRICAL_SURFACE('',#370,2.);
#39=CYLINDRICAL_SURFACE('',#375,2.);
#40=CYLINDRICAL_SURFACE('',#380,3.);
#41=CYLINDRICAL_SURFACE('',#382,3.);
#42=FACE_OUTER_BOUND('',#63,.T.);
#43=FACE_OUTER_BOUND('',#64,.T.);
#44=FACE_OUTER_BOUND('',#65,.T.);
#45=FACE_OUTER_BOUND('',#66,.T.);
#46=FACE_OUTER_BOUND('',#67,.T.);
#47=FACE_OUTER_BOUND('',#68,.T.);
#48=FACE_OUTER_BOUND('',#69,.T.);
#49=FACE_OUTER_BOUND('',#70,.T.);
#50=FACE_OUTER_BOUND('',#71,.T.);
#51=FACE_OUTER_BOUND('',#72,.T.);
#52=FACE_OUTER_BOUND('',#73,.T.);
#53=FACE_OUTER_BOUND('',#75,.T.);
#54=FACE_OUTER_BOUND('',#76,.T.);
#55=FACE_OUTER_BOUND('',#78,.T.);
#56=FACE_OUTER_BOUND('',#79,.T.);
#57=FACE_OUTER_BOUND('',#80,.T.);
#58=FACE_OUTER_BOUND('',#81,.T.);
#59=FACE_OUTER_BOUND('',#82,.T.);
#60=FACE_OUTER_BOUND('',#83,.T.);
#61=FACE_OUTER_BOUND('',#84,.T.);
#62=FACE_OUTER_BOUND('',#87,.T.);
#63=EDGE_LOOP('',(#223,#224,#225,#226));
#64=EDGE_LOOP('',(#227,#228,#229,#230));
#65=EDGE_LOOP('',(#231,#232,#233,#234));
#66=EDGE_LOOP('',(#235,#236,#237,#238));
#67=EDGE_LOOP('',(#239,#240,#241,#242));
#68=EDGE_LOOP('',(#243,#244,#245,#246));
#69=EDGE_LOOP('',(#247));
#70=EDGE_LOOP('',(#248,#249,#250,#251));
#71=EDGE_LOOP('',(#252));
#72=EDGE_LOOP('',(#253,#254,#255,#256));
#73=EDGE_LOOP('',(#257));
#74=EDGE_LOOP('',(#258));
#75=EDGE_LOOP('',(#259,#260,#261,#262));
#76=EDGE_LOOP('',(#263));
#77=EDGE_LOOP('',(#264));
#78=EDGE_LOOP('',(#265,#266,#267,#268));
#79=EDGE_LOOP('',(#269,#270,#271,#272));
#80=EDGE_LOOP('',(#273,#274,#275,#276));
#81=EDGE_LOOP('',(#277,#278,#279,#280));
#82=EDGE_LOOP('',(#281,#282,#283,#284));
#83=EDGE_LOOP('',(#285,#286,#287,#288));
#84=EDGE_LOOP('',(#289,#290,#291,#292));
#85=EDGE_LOOP('',(#293));
#86=EDGE_LOOP('',(#294));
#87=EDGE_LOOP('',(#295,#296,#297,#298));
#88=EDGE_LOOP('',(#299,#300,#301,#302));
#89=EDGE_LOOP('',(#303));
#90=EDGE_LOOP('',(#304));
#91=EDGE_LOOP('',(#305));
#92=EDGE_LOOP('',(#306));
#93=LINE('',#492,#123);
#94=LINE('',#494,#124);
#95=LINE('',#496,#125);
#96=LINE('',#497,#126);
#97=LINE('',#500,#127);
#98=LINE('',#502,#128);
#99=LINE('',#503,#129);
#100=LINE('',#506,#130);
#101=LINE('',#508,#131);
#102=LINE('',#509,#132);
#103=LINE('',#511,#133);
#104=LINE('',#512,#134);
#105=LINE('',#518,#135);
#106=LINE('',#525,#136);
#107=LINE('',#532,#137);
#108=LINE('',#541,#138);
#109=LINE('',#549,#139);
#110=LINE('',#553,#140);
#111=LINE('',#557,#141);
#112=LINE('',#559,#142);
#113=LINE('',#561,#143);
#114=LINE('',#562,#144);
#115=LINE('',#565,#145);
#116=LINE('',#567,#146);
#117=LINE('',#568,#147);
#118=LINE('',#571,#148);
#119=LINE('',#573,#149);
#120=LINE('',#574,#150);
#121=LINE('',#576,#151);
#122=LINE('',#577,#152);
#123=VECTOR('',#394,10.);
#124=VECTOR('',#395,10.);
#125=VECTOR('',#396,10.);
#126=VECTOR('',#397,10.);
#127=VECTOR('',#400,10.);
#128=VECTOR('',#401,10.);
#129=VECTOR('',#402,10.);
#130=VECTOR('',#405,10.);
#131=VECTOR('',#406,10.);
#132=VECTOR('',#407,10.);
#133=VECTOR('',#410,10.);
#134=VECTOR('',#411,10.);
#135=VECTOR('',#418,1.5);
#136=VECTOR('',#427,1.5);
#137=VECTOR('',#436,2.);
#138=VECTOR('',#447,2.);
#139=VECTOR('',#458,3.);
#140=VECTOR('',#463,3.);
#141=VECTOR('',#466,10.);
#142=VECTOR('',#467,10.);
#143=VECTOR('',#468,10.);
#144=VECTOR('',#469,10.);
#145=VECTOR('',#472,10.);
#146=VECTOR('',#473,10.);
#147=VECTOR('',#474,10.);
#148=VECTOR('',#477,10.);
#149=VECTOR('',#478,10.);
#150=VECTOR('',#479,10.);
#151=VECTOR('',#482,10.);
#152=VECTOR('',#483,10.);
#153=VERTEX_POINT('',#490);
#154=VERTEX_POINT('',#491);
#155=VERTEX_POINT('',#493);
#156=VERTEX_POINT('',#495);
#157=VERTEX_POINT('',#499);
#158=VERTEX_POINT('',#501);
#159=VERTEX_POINT('',#505);
#160=VERTEX_POINT('',#507);
#161=VERTEX_POINT('',#515);
#162=VERTEX_POINT('',#517);
#163=VERTEX_POINT('',#522);
#164=VERTEX_POINT('',#524);
#165=VERTEX_POINT('',#529);
#166=VERTEX_POINT('',#531);
#167=VERTEX_POINT('',#535);
#168=VERTEX_POINT('',#538);
#169=VERTEX_POINT('',#540);
#170=VERTEX_POINT('',#544);
#171=VERTEX_POINT('',#547);
#172=VERTEX_POINT('',#551);
#173=VERTEX_POINT('',#555);
#174=VERTEX_POINT('',#556);
#175=VERTEX_POINT('',#558);
#176=VERTEX_POINT('',#560);
#177=VERTEX_POINT('',#564);
#178=VERTEX_POINT('',#566);
#179=VERTEX_POINT('',#570);
#180=VERTEX_POINT('',#572);
#181=EDGE_CURVE('',#153,#154,#93,.T.);
#182=EDGE_CURVE('',#153,#155,#94,.T.);
#183=EDGE_CURVE('',#155,#156,#95,.T.);
#184=EDGE_CURVE('',#154,#156,#96,.T.);
#185=EDGE_CURVE('',#157,#153,#97,.T.);
#186=EDGE_CURVE('',#157,#158,#98,.T.);
#187=EDGE_CURVE('',#158,#155,#99,.T.);
#188=EDGE_CURVE('',#159,#157,#100,.T.);
#189=EDGE_CURVE('',#159,#160,#101,.T.);
#190=EDGE_CURVE('',#160,#158,#102,.T.);
#191=EDGE_CURVE('',#154,#159,#103,.T.);
#192=EDGE_CURVE('',#156,#160,#104,.T.);
#193=EDGE_CURVE('',#161,#161,#24,.T.);
#194=EDGE_CURVE('',#161,#162,#105,.T.);
#195=EDGE_CURVE('',#162,#162,#25,.T.);
#196=EDGE_CURVE('',#163,#163,#26,.T.);
#197=EDGE_CURVE('',#163,#164,#106,.T.);
#198=EDGE_CURVE('',#164,#164,#27,.T.);
#199=EDGE_CURVE('',#165,#165,#28,.T.);
#200=EDGE_CURVE('',#165,#166,#107,.T.);
#201=EDGE_CURVE('',#166,#166,#29,.T.);
#202=EDGE_CURVE('',#167,#167,#30,.T.);
#203=EDGE_CURVE('',#168,#168,#31,.T.);
#204=EDGE_CURVE('',#168,#169,#108,.T.);
#205=EDGE_CURVE('',#169,#169,#32,.T.);
#206=EDGE_CURVE('',#170,#170,#33,.T.);
#207=EDGE_CURVE('',#171,#171,#34,.T.);
#208=EDGE_CURVE('',#171,#170,#109,.T.);
#209=EDGE_CURVE('',#172,#172,#35,.T.);
#210=EDGE_CURVE('',#172,#167,#110,.T.);
#211=EDGE_CURVE('',#173,#174,#111,.T.);
#212=EDGE_CURVE('',#173,#175,#112,.T.);
#213=EDGE_CURVE('',#176,#175,#113,.T.);
#214=EDGE_CURVE('',#174,#176,#114,.T.);
#215=EDGE_CURVE('',#174,#177,#115,.T.);
#216=EDGE_CURVE('',#178,#176,#116,.T.);
#217=EDGE_CURVE('',#177,#178,#117,.T.);
#218=EDGE_CURVE('',#177,#179,#118,.T.);
#219=EDGE_CURVE('',#180,#178,#119,.T.);
#220=EDGE_CURVE('',#179,#180,#120,.T.);
#221=EDGE_CURVE('',#179,#173,#121,.T.);
#222=EDGE_CURVE('',#175,#180,#122,.T.);
#223=ORIENTED_EDGE('',*,*,#181,.F.);
#224=ORIENTED_EDGE('',*,*,#182,.T.);
#225=ORIENTED_EDGE('',*,*,#183,.T.);
#226=ORIENTED_EDGE('',*,*,#184,.F.);
#227=ORIENTED_EDGE('',*,*,#185,.F.);
#228=ORIENTED_EDGE('',*,*,#186,.T.);
#229=ORIENTED_EDGE('',*,*,#187,.T.);
#230=ORIENTED_EDGE('',*,*,#182,.F.);
#231=ORIENTED_EDGE('',*,*,#188,.F.);
#232=ORIENTED_EDGE('',*,*,#189,.T.);
#233=ORIENTED_EDGE('',*,*,#190,.T.);
#234=ORIENTED_EDGE('',*,*,#186,.F.);
#235=ORIENTED_EDGE('',*,*,#191,.F.);
#236=ORIENTED_EDGE('',*,*,#184,.T.);
#237=ORIENTED_EDGE('',*,*,#192,.T.);
#238=ORIENTED_EDGE('',*,*,#189,.F.);
#239=ORIENTED_EDGE('',*,*,#192,.F.);
#240=ORIENTED_EDGE('',*,*,#183,.F.);
#241=ORIENTED_EDGE('',*,*,#187,.F.);
#242=ORIENTED_EDGE('',*,*,#190,.F.);
#243=ORIENTED_EDGE('',*,*,#193,.F.);
#244=ORIENTED_EDGE('',*,*,#194,.T.);
#245=ORIENTED_EDGE('',*,*,#195,.T.);
#246=ORIENTED_EDGE('',*,*,#194,.F.);
#247=ORIENTED_EDGE('',*,*,#195,.F.);
#248=ORIENTED_EDGE('',*,*,#196,.F.);
#249=ORIENTED_EDGE('',*,*,#197,.T.);
#250=ORIENTED_EDGE('',*,*,#198,.T.);
#251=ORIENTED_EDGE('',*,*,#197,.F.);
#252=ORIENTED_EDGE('',*,*,#198,.F.);
#253=ORIENTED_EDGE('',*,*,#199,.F.);
#254=ORIENTED_EDGE('',*,*,#200,.T.);
#255=ORIENTED_EDGE('',*,*,#201,.T.);
#256=ORIENTED_EDGE('',*,*,#200,.F.);
#257=ORIENTED_EDGE('',*,*,#202,.F.);
#258=ORIENTED_EDGE('',*,*,#199,.T.);
#259=ORIENTED_EDGE('',*,*,#203,.F.);
#260=ORIENTED_EDGE('',*,*,#204,.T.);
#261=ORIENTED_EDGE('',*,*,#205,.T.);
#262=ORIENTED_EDGE('',*,*,#204,.F.);
#263=ORIENTED_EDGE('',*,*,#206,.F.);
#264=ORIENTED_EDGE('',*,*,#203,.T.);
#265=ORIENTED_EDGE('',*,*,#207,.F.);
#266=ORIENTED_EDGE('',*,*,#208,.T.);
#267=ORIENTED_EDGE('',*,*,#206,.T.);
#268=ORIENTED_EDGE('',*,*,#208,.F.);
#269=ORIENTED_EDGE('',*,*,#209,.F.);
#270=ORIENTED_EDGE('',*,*,#210,.T.);
#271=ORIENTED_EDGE('',*,*,#202,.T.);
#272=ORIENTED_EDGE('',*,*,#210,.F.);
#273=ORIENTED_EDGE('',*,*,#211,.F.);
#274=ORIENTED_EDGE('',*,*,#212,.T.);
#275=ORIENTED_EDGE('',*,*,#213,.F.);
#276=ORIENTED_EDGE('',*,*,#214,.F.);
#277=ORIENTED_EDGE('',*,*,#215,.F.);
#278=ORIENTED_EDGE('',*,*,#214,.T.);
#279=ORIENTED_EDGE('',*,*,#216,.F.);
#280=ORIENTED_EDGE('',*,*,#217,.F.);
#281=ORIENTED_EDGE('',*,*,#218,.F.);
#282=ORIENTED_EDGE('',*,*,#217,.T.);
#283=ORIENTED_EDGE('',*,*,#219,.F.);
#284=ORIENTED_EDGE('',*,*,#220,.F.);
#285=ORIENTED_EDGE('',*,*,#221,.F.);
#286=ORIENTED_EDGE('',*,*,#220,.T.);
#287=ORIENTED_EDGE('',*,*,#222,.F.);
#288=ORIENTED_EDGE('',*,*,#212,.F.);
#289=ORIENTED_EDGE('',*,*,#222,.T.);
#290=ORIENTED_EDGE('',*,*,#219,.T.);
#291=ORIENTED_EDGE('',*,*,#216,.T.);
#292=ORIENTED_EDGE('',*,*,#213,.T.);
#293=ORIENTED_EDGE('',*,*,#209,.T.);
#294=ORIENTED_EDGE('',*,*,#207,.T.);
#295=ORIENTED_EDGE('',*,*,#221,.T.);
#296=ORIENTED_EDGE('',*,*,#211,.T.);
#297=ORIENTED_EDGE('',*,*,#215,.T.);
#298=ORIENTED_EDGE('',*,*,#218,.T.);
#299=ORIENTED_EDGE('',*,*,#181,.T.);
#300=ORIENTED_EDGE('',*,*,#191,.T.);
#301=ORIENTED_EDGE('',*,*,#188,.T.);
#302=ORIENTED_EDGE('',*,*,#185,.T.);
#303=ORIENTED_EDGE('',*,*,#193,.T.);
#304=ORIENTED_EDGE('',*,*,#196,.T.);
#305=ORIENTED_EDGE('',*,*,#201,.F.);
#306=ORIENTED_EDGE('',*,*,#205,.F.);
#307=PLANE('',#357);
#308=PLANE('',#358);
#309=PLANE('',#359);
#310=PLANE('',#360);
#311=PLANE('',#361);
#312=PLANE('',#365);
#313=PLANE('',#369);
#314=PLANE('',#373);
#315=PLANE('',#378);
#316=PLANE('',#384);
#317=PLANE('',#385);
#318=PLANE('',#386);
#319=PLANE('',#387);
#320=PLANE('',#388);
#321=PLANE('',#389);
#322=ADVANCED_FACE('',(#42),#307,.F.);
#323=ADVANCED_FACE('',(#43),#308,.F.);
#324=ADVANCED_FACE('',(#44),#309,.F.);
#325=ADVANCED_FACE('',(#45),#310,.F.);
#326=ADVANCED_FACE('',(#46),#311,.F.);
#327=ADVANCED_FACE('',(#47),#36,.F.);
#328=ADVANCED_FACE('',(#48),#312,.F.);
#329=ADVANCED_FACE('',(#49),#37,.F.);
#330=ADVANCED_FACE('',(#50),#313,.F.);
#331=ADVANCED_FACE('',(#51),#38,.F.);
#332=ADVANCED_FACE('',(#52,#15),#314,.T.);
#333=ADVANCED_FACE('',(#53),#39,.F.);
#334=ADVANCED_FACE('',(#54,#16),#315,.T.);
#335=ADVANCED_FACE('',(#55),#40,.F.);
#336=ADVANCED_FACE('',(#56),#41,.F.);
#337=ADVANCED_FACE('',(#57),#316,.T.);
#338=ADVANCED_FACE('',(#58),#317,.T.);
#339=ADVANCED_FACE('',(#59),#318,.T.);
#340=ADVANCED_FACE('',(#60),#319,.T.);
#341=ADVANCED_FACE('',(#61,#17,#18),#320,.T.);
#342=ADVANCED_FACE('',(#62,#19,#20,#21,#22,#23),#321,.F.);
#343=CLOSED_SHELL('',(#322,#323,#324,#325,#326,#327,#328,#329,#330,#331,
#332,#333,#334,#335,#336,#337,#338,#339,#340,#341,#342));
#344=DERIVED_UNIT_ELEMENT(#346,1.);
#345=DERIVED_UNIT_ELEMENT(#585,-3.);
#346=(
MASS_UNIT()
NAMED_UNIT(*)
SI_UNIT(.KILO.,.GRAM.)
);
#347=DERIVED_UNIT((#344,#345));
#348=MEASURE_REPRESENTATION_ITEM('density measure',
POSITIVE_RATIO_MEASURE(8490.),#347);
#349=PROPERTY_DEFINITION_REPRESENTATION(#354,#351);
#350=PROPERTY_DEFINITION_REPRESENTATION(#355,#352);
#351=REPRESENTATION('material name',(#353),#582);
#352=REPRESENTATION('density',(#348),#582);
#353=DESCRIPTIVE_REPRESENTATION_ITEM('\X2\9EC494DC\X0\','\X2\9EC494DC\X0\');
#354=PROPERTY_DEFINITION('material property','material name',#592);
#355=PROPERTY_DEFINITION('material property','density of part',#592);
#356=AXIS2_PLACEMENT_3D('',#488,#390,#391);
#357=AXIS2_PLACEMENT_3D('',#489,#392,#393);
#358=AXIS2_PLACEMENT_3D('',#498,#398,#399);
#359=AXIS2_PLACEMENT_3D('',#504,#403,#404);
#360=AXIS2_PLACEMENT_3D('',#510,#408,#409);
#361=AXIS2_PLACEMENT_3D('',#513,#412,#413);
#362=AXIS2_PLACEMENT_3D('',#514,#414,#415);
#363=AXIS2_PLACEMENT_3D('',#516,#416,#417);
#364=AXIS2_PLACEMENT_3D('',#519,#419,#420);
#365=AXIS2_PLACEMENT_3D('',#520,#421,#422);
#366=AXIS2_PLACEMENT_3D('',#521,#423,#424);
#367=AXIS2_PLACEMENT_3D('',#523,#425,#426);
#368=AXIS2_PLACEMENT_3D('',#526,#428,#429);
#369=AXIS2_PLACEMENT_3D('',#527,#430,#431);
#370=AXIS2_PLACEMENT_3D('',#528,#432,#433);
#371=AXIS2_PLACEMENT_3D('',#530,#434,#435);
#372=AXIS2_PLACEMENT_3D('',#533,#437,#438);
#373=AXIS2_PLACEMENT_3D('',#534,#439,#440);
#374=AXIS2_PLACEMENT_3D('',#536,#441,#442);
#375=AXIS2_PLACEMENT_3D('',#537,#443,#444);
#376=AXIS2_PLACEMENT_3D('',#539,#445,#446);
#377=AXIS2_PLACEMENT_3D('',#542,#448,#449);
#378=AXIS2_PLACEMENT_3D('',#543,#450,#451);
#379=AXIS2_PLACEMENT_3D('',#545,#452,#453);
#380=AXIS2_PLACEMENT_3D('',#546,#454,#455);
#381=AXIS2_PLACEMENT_3D('',#548,#456,#457);
#382=AXIS2_PLACEMENT_3D('',#550,#459,#460);
#383=AXIS2_PLACEMENT_3D('',#552,#461,#462);
#384=AXIS2_PLACEMENT_3D('',#554,#464,#465);
#385=AXIS2_PLACEMENT_3D('',#563,#470,#471);
#386=AXIS2_PLACEMENT_3D('',#569,#475,#476);
#387=AXIS2_PLACEMENT_3D('',#575,#480,#481);
#388=AXIS2_PLACEMENT_3D('',#578,#484,#485);
#389=AXIS2_PLACEMENT_3D('',#579,#486,#487);
#390=DIRECTION('axis',(0.,0.,1.));
#391=DIRECTION('refdir',(1.,0.,0.));
#392=DIRECTION('center_axis',(0.,-1.,0.));
#393=DIRECTION('ref_axis',(-1.,0.,0.));
#394=DIRECTION('',(-1.,0.,0.));
#395=DIRECTION('',(0.,0.,-1.));
#396=DIRECTION('',(-1.,0.,0.));
#397=DIRECTION('',(0.,0.,-1.));
#398=DIRECTION('center_axis',(1.,0.,0.));
#399=DIRECTION('ref_axis',(0.,-1.,0.));
#400=DIRECTION('',(0.,-1.,0.));
#401=DIRECTION('',(0.,0.,-1.));
#402=DIRECTION('',(0.,-1.,0.));
#403=DIRECTION('center_axis',(0.,1.,0.));
#404=DIRECTION('ref_axis',(1.,0.,0.));
#405=DIRECTION('',(1.,0.,0.));
#406=DIRECTION('',(0.,0.,-1.));
#407=DIRECTION('',(1.,0.,0.));
#408=DIRECTION('center_axis',(-1.,0.,0.));
#409=DIRECTION('ref_axis',(0.,1.,0.));
#410=DIRECTION('',(0.,1.,0.));
#411=DIRECTION('',(0.,1.,0.));
#412=DIRECTION('center_axis',(0.,0.,-1.));
#413=DIRECTION('ref_axis',(-1.,0.,0.));
#414=DIRECTION('center_axis',(0.,0.,-1.));
#415=DIRECTION('ref_axis',(1.,0.,0.));
#416=DIRECTION('center_axis',(0.,0.,-1.));
#417=DIRECTION('ref_axis',(1.,0.,0.));
#418=DIRECTION('',(0.,0.,-1.));
#419=DIRECTION('center_axis',(0.,0.,-1.));
#420=DIRECTION('ref_axis',(1.,0.,0.));
#421=DIRECTION('center_axis',(0.,0.,-1.));
#422=DIRECTION('ref_axis',(1.,0.,0.));
#423=DIRECTION('center_axis',(0.,0.,-1.));
#424=DIRECTION('ref_axis',(1.,0.,0.));
#425=DIRECTION('center_axis',(0.,0.,-1.));
#426=DIRECTION('ref_axis',(1.,0.,0.));
#427=DIRECTION('',(0.,0.,-1.));
#428=DIRECTION('center_axis',(0.,0.,-1.));
#429=DIRECTION('ref_axis',(1.,0.,0.));
#430=DIRECTION('center_axis',(0.,0.,-1.));
#431=DIRECTION('ref_axis',(1.,0.,0.));
#432=DIRECTION('center_axis',(0.,0.,-1.));
#433=DIRECTION('ref_axis',(1.,0.,0.));
#434=DIRECTION('center_axis',(0.,0.,1.));
#435=DIRECTION('ref_axis',(1.,0.,0.));
#436=DIRECTION('',(0.,0.,1.));
#437=DIRECTION('center_axis',(0.,0.,1.));
#438=DIRECTION('ref_axis',(1.,0.,0.));
#439=DIRECTION('center_axis',(0.,0.,-1.));
#440=DIRECTION('ref_axis',(1.,0.,0.));
#441=DIRECTION('center_axis',(0.,0.,1.));
#442=DIRECTION('ref_axis',(1.,0.,0.));
#443=DIRECTION('center_axis',(0.,0.,-1.));
#444=DIRECTION('ref_axis',(1.,0.,0.));
#445=DIRECTION('center_axis',(0.,0.,1.));
#446=DIRECTION('ref_axis',(1.,0.,0.));
#447=DIRECTION('',(0.,0.,1.));
#448=DIRECTION('center_axis',(0.,0.,1.));
#449=DIRECTION('ref_axis',(1.,0.,0.));
#450=DIRECTION('center_axis',(0.,0.,-1.));
#451=DIRECTION('ref_axis',(1.,0.,0.));
#452=DIRECTION('center_axis',(0.,0.,1.));
#453=DIRECTION('ref_axis',(1.,0.,0.));
#454=DIRECTION('center_axis',(0.,0.,-1.));
#455=DIRECTION('ref_axis',(1.,0.,0.));
#456=DIRECTION('center_axis',(0.,0.,1.));
#457=DIRECTION('ref_axis',(1.,0.,0.));
#458=DIRECTION('',(0.,0.,1.));
#459=DIRECTION('center_axis',(0.,0.,-1.));
#460=DIRECTION('ref_axis',(1.,0.,0.));
#461=DIRECTION('center_axis',(0.,0.,1.));
#462=DIRECTION('ref_axis',(1.,0.,0.));
#463=DIRECTION('',(0.,0.,1.));
#464=DIRECTION('center_axis',(-1.,-1.74463618155382E-16,0.));
#465=DIRECTION('ref_axis',(-1.74463618155382E-16,1.,0.));
#466=DIRECTION('',(1.74463618155382E-16,-1.,0.));
#467=DIRECTION('',(0.,0.,-1.));
#468=DIRECTION('',(-1.74463618155382E-16,1.,0.));
#469=DIRECTION('',(0.,0.,-1.));
#470=DIRECTION('center_axis',(0.,-1.,0.));
#471=DIRECTION('ref_axis',(-1.,0.,0.));
#472=DIRECTION('',(1.,0.,0.));
#473=DIRECTION('',(-1.,0.,0.));
#474=DIRECTION('',(0.,0.,-1.));
#475=DIRECTION('center_axis',(1.,-1.26882631385732E-16,0.));
#476=DIRECTION('ref_axis',(-1.26882631385732E-16,-1.,0.));
#477=DIRECTION('',(1.26882631385732E-16,1.,0.));
#478=DIRECTION('',(-1.26882631385732E-16,-1.,0.));
#479=DIRECTION('',(0.,0.,-1.));
#480=DIRECTION('center_axis',(0.,1.,0.));
#481=DIRECTION('ref_axis',(1.,0.,0.));
#482=DIRECTION('',(-1.,0.,0.));
#483=DIRECTION('',(1.,0.,0.));
#484=DIRECTION('center_axis',(0.,0.,-1.));
#485=DIRECTION('ref_axis',(1.,0.,0.));
#486=DIRECTION('center_axis',(0.,0.,-1.));
#487=DIRECTION('ref_axis',(1.,0.,0.));
#488=CARTESIAN_POINT('',(0.,0.,0.));
#489=CARTESIAN_POINT('Origin',(61.7810515620999,31.6830073660148,-61.6722134835344));
#490=CARTESIAN_POINT('',(61.7810515620999,31.6830073660148,-61.6722134835344));
#491=CARTESIAN_POINT('',(51.7810515620999,31.6830073660148,-61.6722134835344));
#492=CARTESIAN_POINT('',(49.3870576859513,31.6830073660148,-61.6722134835344));
#493=CARTESIAN_POINT('',(61.7810515620999,31.6830073660148,-66.6722134835344));
#494=CARTESIAN_POINT('',(61.7810515620999,31.6830073660148,-61.6722134835344));
#495=CARTESIAN_POINT('',(51.7810515620999,31.6830073660148,-66.6722134835344));
#496=CARTESIAN_POINT('',(51.7810515620999,31.6830073660148,-66.6722134835344));
#497=CARTESIAN_POINT('',(51.7810515620999,31.6830073660148,-61.6722134835344));
#498=CARTESIAN_POINT('Origin',(61.7810515620999,41.6830073660148,-61.6722134835344));
#499=CARTESIAN_POINT('',(61.7810515620999,41.6830073660148,-61.6722134835344));
#500=CARTESIAN_POINT('',(61.7810515620999,27.3415035190946,-61.6722134835344));
#501=CARTESIAN_POINT('',(61.7810515620999,41.6830073660148,-66.6722134835344));
#502=CARTESIAN_POINT('',(61.7810515620999,41.6830073660148,-61.6722134835344));
#503=CARTESIAN_POINT('',(61.7810515620999,31.6830073660148,-66.6722134835344));
#504=CARTESIAN_POINT('Origin',(51.7810515620999,41.6830073660148,-61.6722134835344));
#505=CARTESIAN_POINT('',(51.7810515620999,41.6830073660148,-61.6722134835344));
#506=CARTESIAN_POINT('',(44.3870576859513,41.6830073660148,-61.6722134835344));
#507=CARTESIAN_POINT('',(51.7810515620999,41.6830073660148,-66.6722134835344));
#508=CARTESIAN_POINT('',(51.7810515620999,41.6830073660148,-61.6722134835344));
#509=CARTESIAN_POINT('',(61.7810515620999,41.6830073660148,-66.6722134835344));
#510=CARTESIAN_POINT('Origin',(51.7810515620999,31.6830073660148,-61.6722134835344));
#511=CARTESIAN_POINT('',(51.7810515620999,22.3415035190946,-61.6722134835344));
#512=CARTESIAN_POINT('',(51.7810515620999,41.6830073660148,-66.6722134835344));
#513=CARTESIAN_POINT('Origin',(56.7810515620999,36.6830073660148,-66.6722134835344));
#514=CARTESIAN_POINT('Origin',(63.25806451612,44.0000228600399,-64.1722134835344));
#515=CARTESIAN_POINT('',(61.75806451612,44.0000228600399,-61.6722134835344));
#516=CARTESIAN_POINT('Origin',(63.25806451612,44.0000228600399,-61.6722134835344));
#517=CARTESIAN_POINT('',(61.75806451612,44.0000228600399,-66.6722134835344));
#518=CARTESIAN_POINT('',(61.75806451612,44.0000228600399,-64.1722134835344));
#519=CARTESIAN_POINT('Origin',(63.25806451612,44.0000228600399,-66.6722134835344));
#520=CARTESIAN_POINT('Origin',(63.25806451612,44.0000228600399,-66.6722134835344));
#521=CARTESIAN_POINT('Origin',(29.094996189992,44.0000228600399,-64.1722134835344));
#522=CARTESIAN_POINT('',(27.594996189992,44.0000228600399,-61.6722134835344));
#523=CARTESIAN_POINT('Origin',(29.094996189992,44.0000228600399,-61.6722134835344));
#524=CARTESIAN_POINT('',(27.594996189992,44.0000228600399,-66.6722134835344));
#525=CARTESIAN_POINT('',(27.594996189992,44.0000228600399,-64.1722134835344));
#526=CARTESIAN_POINT('Origin',(29.094996189992,44.0000228600399,-66.6722134835344));
#527=CARTESIAN_POINT('Origin',(29.094996189992,44.0000228600399,-66.6722134835344));
#528=CARTESIAN_POINT('Origin',(16.9930638098027,4.25,-61.6722134835344));
#529=CARTESIAN_POINT('',(14.9930638098027,4.25,-66.6722134835344));
#530=CARTESIAN_POINT('Origin',(16.9930638098027,4.25,-66.6722134835344));
#531=CARTESIAN_POINT('',(14.9930638098027,4.25,-61.6722134835344));
#532=CARTESIAN_POINT('',(14.9930638098027,4.25,-61.6722134835344));
#533=CARTESIAN_POINT('Origin',(16.9930638098027,4.25,-61.6722134835344));
#534=CARTESIAN_POINT('Origin',(16.9930638098027,4.25,-66.6722134835344));
#535=CARTESIAN_POINT('',(13.9930638098027,4.25,-66.6722134835344));
#536=CARTESIAN_POINT('Origin',(16.9930638098027,4.25,-66.6722134835344));
#537=CARTESIAN_POINT('Origin',(56.9930638098027,4.25,-61.6722134835344));
#538=CARTESIAN_POINT('',(54.9930638098027,4.25,-66.6722134835344));
#539=CARTESIAN_POINT('Origin',(56.9930638098027,4.25,-66.6722134835344));
#540=CARTESIAN_POINT('',(54.9930638098027,4.25,-61.6722134835344));
#541=CARTESIAN_POINT('',(54.9930638098027,4.25,-61.6722134835344));
#542=CARTESIAN_POINT('Origin',(56.9930638098027,4.25,-61.6722134835344));
#543=CARTESIAN_POINT('Origin',(56.9930638098027,4.25,-66.6722134835344));
#544=CARTESIAN_POINT('',(53.9930638098027,4.25,-66.6722134835344));
#545=CARTESIAN_POINT('Origin',(56.9930638098027,4.25,-66.6722134835344));
#546=CARTESIAN_POINT('Origin',(56.9930638098027,4.25,-61.6722134835344));
#547=CARTESIAN_POINT('',(53.9930638098027,4.25,-69.6722134835344));
#548=CARTESIAN_POINT('Origin',(56.9930638098027,4.25,-69.6722134835344));
#549=CARTESIAN_POINT('',(53.9930638098027,4.25,-61.6722134835344));
#550=CARTESIAN_POINT('Origin',(16.9930638098027,4.25,-61.6722134835344));
#551=CARTESIAN_POINT('',(13.9930638098027,4.25,-69.6722134835344));
#552=CARTESIAN_POINT('Origin',(16.9930638098027,4.25,-69.6722134835344));
#553=CARTESIAN_POINT('',(13.9930638098027,4.25,-61.6722134835344));
#554=CARTESIAN_POINT('Origin',(6.99306380980272,-22.0000003278255,-61.6722134835344));
#555=CARTESIAN_POINT('',(6.99306380980271,47.9999996721745,-61.6722134835344));
#556=CARTESIAN_POINT('',(6.99306380980272,-22.0000003278255,-61.6722134835344));
#557=CARTESIAN_POINT('',(6.99306380980271,47.9999996721745,-61.6722134835344));
#558=CARTESIAN_POINT('',(6.99306380980271,47.9999996721745,-69.6722134835344));
#559=CARTESIAN_POINT('',(6.99306380980271,47.9999996721745,-61.6722134835344));
#560=CARTESIAN_POINT('',(6.99306380980272,-22.0000003278255,-69.6722134835344));
#561=CARTESIAN_POINT('',(6.99306380980271,47.9999996721745,-69.6722134835344));
#562=CARTESIAN_POINT('',(6.99306380980272,-22.0000003278255,-61.6722134835344));
#563=CARTESIAN_POINT('Origin',(66.9930638098027,-22.0000003278255,-61.6722134835344));
#564=CARTESIAN_POINT('',(66.9930638098027,-22.0000003278255,-61.6722134835344));
#565=CARTESIAN_POINT('',(6.99306380980272,-22.0000003278255,-61.6722134835344));
#566=CARTESIAN_POINT('',(66.9930638098027,-22.0000003278255,-69.6722134835344));
#567=CARTESIAN_POINT('',(6.99306380980272,-22.0000003278255,-69.6722134835344));
#568=CARTESIAN_POINT('',(66.9930638098027,-22.0000003278255,-61.6722134835344));
#569=CARTESIAN_POINT('Origin',(66.9930638098027,47.9999996721745,-61.6722134835344));
#570=CARTESIAN_POINT('',(66.9930638098027,47.9999996721745,-61.6722134835344));
#571=CARTESIAN_POINT('',(66.9930638098027,-22.0000003278255,-61.6722134835344));
#572=CARTESIAN_POINT('',(66.9930638098027,47.9999996721745,-69.6722134835344));
#573=CARTESIAN_POINT('',(66.9930638098027,-22.0000003278255,-69.6722134835344));
#574=CARTESIAN_POINT('',(66.9930638098027,47.9999996721745,-61.6722134835344));
#575=CARTESIAN_POINT('Origin',(6.99306380980271,47.9999996721745,-61.6722134835344));
#576=CARTESIAN_POINT('',(66.9930638098027,47.9999996721745,-61.6722134835344));
#577=CARTESIAN_POINT('',(66.9930638098027,47.9999996721745,-69.6722134835344));
#578=CARTESIAN_POINT('Origin',(36.9930638098027,12.9999996721745,-69.6722134835344));
#579=CARTESIAN_POINT('Origin',(36.9930638098027,12.9999996721745,-61.6722134835344));
#580=UNCERTAINTY_MEASURE_WITH_UNIT(LENGTH_MEASURE(0.01),#584,
'DISTANCE_ACCURACY_VALUE',
'Maximum model space distance between geometric entities at asserted c
onnectivities');
#581=UNCERTAINTY_MEASURE_WITH_UNIT(LENGTH_MEASURE(0.01),#584,
'DISTANCE_ACCURACY_VALUE',
'Maximum model space distance between geometric entities at asserted c
onnectivities');
#582=(
GEOMETRIC_REPRESENTATION_CONTEXT(3)
GLOBAL_UNCERTAINTY_ASSIGNED_CONTEXT((#580))
GLOBAL_UNIT_ASSIGNED_CONTEXT((#584,#586,#587))
REPRESENTATION_CONTEXT('','3D')
);
#583=(
GEOMETRIC_REPRESENTATION_CONTEXT(3)
GLOBAL_UNCERTAINTY_ASSIGNED_CONTEXT((#581))
GLOBAL_UNIT_ASSIGNED_CONTEXT((#584,#586,#587))
REPRESENTATION_CONTEXT('','3D')
);
#584=(
LENGTH_UNIT()
NAMED_UNIT(*)
SI_UNIT(.MILLI.,.METRE.)
);
#585=(
LENGTH_UNIT()
NAMED_UNIT(*)
SI_UNIT($,.METRE.)
);
#586=(
NAMED_UNIT(*)
PLANE_ANGLE_UNIT()
SI_UNIT($,.RADIAN.)
);
#587=(
NAMED_UNIT(*)
SI_UNIT($,.STERADIAN.)
SOLID_ANGLE_UNIT()
);
#588=SHAPE_DEFINITION_REPRESENTATION(#589,#590);
#589=PRODUCT_DEFINITION_SHAPE('',$,#592);
#590=SHAPE_REPRESENTATION('',(#356),#582);
#591=PRODUCT_DEFINITION_CONTEXT('part definition',#596,'design');
#592=PRODUCT_DEFINITION('\X2\5E955EA7\X0\','\X2\5E955EA7\X0\',#593,#591);
#593=PRODUCT_DEFINITION_FORMATION('',$,#598);
#594=PRODUCT_RELATED_PRODUCT_CATEGORY('\X2\5E955EA7\X0\','\X2\5E955EA7\X0\',
(#598));
#595=APPLICATION_PROTOCOL_DEFINITION('international standard',
'automotive_design',2009,#596);
#596=APPLICATION_CONTEXT(
'Core Data for Automotive Mechanical Design Process');
#597=PRODUCT_CONTEXT('part definition',#596,'mechanical');
#598=PRODUCT('\X2\5E955EA7\X0\','\X2\5E955EA7\X0\',$,(#597));
#599=PRESENTATION_STYLE_ASSIGNMENT((#601));
#600=PRESENTATION_STYLE_ASSIGNMENT((#602));
#601=SURFACE_STYLE_USAGE(.BOTH.,#603);
#602=SURFACE_STYLE_USAGE(.BOTH.,#604);
#603=SURFACE_SIDE_STYLE('',(#605));
#604=SURFACE_SIDE_STYLE('',(#606));
#605=SURFACE_STYLE_FILL_AREA(#607);
#606=SURFACE_STYLE_FILL_AREA(#608);
#607=FILL_AREA_STYLE('\X2\9EC494DC\X0\ - \X2\629B5149\X0\',(#609));
#608=FILL_AREA_STYLE(
'EPX 150 - \X2\7A7A6C1470D87119\X0\(\X2\5E266709\X0\ Carbon M2 M3 L1 3
D \X2\62535370673A\X0\)',(#610));
#609=FILL_AREA_STYLE_COLOUR('\X2\9EC494DC\X0\ - \X2\629B5149\X0\',#611);
#610=FILL_AREA_STYLE_COLOUR(
'EPX 150 - \X2\7A7A6C1470D87119\X0\(\X2\5E266709\X0\ Carbon M2 M3 L1 3
D \X2\62535370673A\X0\)',#612);
#611=COLOUR_RGB('\X2\9EC494DC\X0\ - \X2\629B5149\X0\',0.952941176470588,
0.796078431372549,0.486274509803922);
#612=COLOUR_RGB(
'EPX 150 - \X2\7A7A6C1470D87119\X0\(\X2\5E266709\X0\ Carbon M2 M3 L1 3
D \X2\62535370673A\X0\)',0.247058823529412,0.247058823529412,0.247058823529412);
ENDSEC;
END-ISO-10303-21;
