ISO-10303-21;
HEADER;
/* Generated by software containing ST-Developer
 * from STEP Tools, Inc. (www.steptools.com) 
 */

FILE_DESCRIPTION(
/* description */ (''),
/* implementation_level */ '2;1');

FILE_NAME(
/* name */ '',
/* time_stamp */ '2026-01-24T19:42:55+08:00',
/* author */ (''),
/* organization */ (''),
/* preprocessor_version */ 'ST-DEVELOPER v20.1',
/* originating_system */ 'Autodesk Translation Framework v14.21.0.0',
/* authorisation */ '');

FILE_SCHEMA (('AUTOMOTIVE_DESIGN { 1 0 10303 214 3 1 1 }'));
ENDSEC;

DATA;
#10=MECHANICAL_DESIGN_GEOMETRIC_PRESENTATION_REPRESENTATION('',(#13),#2120);
#11=SHAPE_REPRESENTATION_RELATIONSHIP('SRR','None',#2127,#12);
#12=ADVANCED_BREP_SHAPE_REPRESENTATION('',(#14),#2119);
#13=STYLED_ITEM('',(#2137),#14);
#14=MANIFOLD_SOLID_BREP('\X2\5B9E4F53\X0\1',#1231);
#15=CONICAL_SURFACE('',#1313,1.875,0.785398163397448);
#16=FACE_BOUND('',#169,.T.);
#17=FACE_BOUND('',#175,.T.);
#18=FACE_BOUND('',#179,.T.);
#19=FACE_BOUND('',#191,.T.);
#20=FACE_BOUND('',#192,.T.);
#21=FACE_BOUND('',#193,.T.);
#22=FACE_BOUND('',#194,.T.);
#23=FACE_BOUND('',#195,.T.);
#24=FACE_BOUND('',#196,.T.);
#25=FACE_BOUND('',#197,.T.);
#26=FACE_BOUND('',#198,.T.);
#27=FACE_BOUND('',#199,.T.);
#28=FACE_BOUND('',#230,.T.);
#29=FACE_BOUND('',#241,.T.);
#30=FACE_BOUND('',#242,.T.);
#31=FACE_BOUND('',#243,.T.);
#32=FACE_BOUND('',#244,.T.);
#33=FACE_BOUND('',#245,.T.);
#34=FACE_BOUND('',#246,.T.);
#35=FACE_BOUND('',#247,.T.);
#36=FACE_BOUND('',#248,.T.);
#37=FACE_BOUND('',#249,.T.);
#38=FACE_BOUND('',#250,.T.);
#39=FACE_BOUND('',#251,.T.);
#40=FACE_BOUND('',#252,.T.);
#41=FACE_BOUND('',#255,.T.);
#42=FACE_BOUND('',#258,.T.);
#43=FACE_BOUND('',#261,.T.);
#44=FACE_BOUND('',#266,.T.);
#45=FACE_BOUND('',#267,.T.);
#46=FACE_BOUND('',#269,.T.);
#47=FACE_BOUND('',#270,.T.);
#48=FACE_BOUND('',#273,.T.);
#49=FACE_BOUND('',#274,.T.);
#50=PLANE('',#1251);
#51=PLANE('',#1256);
#52=PLANE('',#1260);
#53=PLANE('',#1261);
#54=PLANE('',#1268);
#55=PLANE('',#1278);
#56=PLANE('',#1279);
#57=PLANE('',#1280);
#58=PLANE('',#1281);
#59=PLANE('',#1282);
#60=PLANE('',#1283);
#61=PLANE('',#1284);
#62=PLANE('',#1287);
#63=PLANE('',#1300);
#64=PLANE('',#1304);
#65=PLANE('',#1308);
#66=PLANE('',#1312);
#67=PLANE('',#1318);
#68=PLANE('',#1321);
#69=PLANE('',#1324);
#70=PLANE('',#1328);
#71=PLANE('',#1329);
#72=PLANE('',#1330);
#73=PLANE('',#1333);
#74=PLANE('',#1334);
#75=PLANE('',#1339);
#76=PLANE('',#1342);
#77=PLANE('',#1345);
#78=PLANE('',#1348);
#79=PLANE('',#1353);
#80=PLANE('',#1357);
#81=PLANE('',#1361);
#82=PLANE('',#1365);
#83=PLANE('',#1366);
#84=PLANE('',#1372);
#85=PLANE('',#1376);
#86=PLANE('',#1380);
#87=PLANE('',#1385);
#88=PLANE('',#1386);
#89=PLANE('',#1387);
#90=PLANE('',#1388);
#91=FACE_OUTER_BOUND('',#166,.T.);
#92=FACE_OUTER_BOUND('',#167,.T.);
#93=FACE_OUTER_BOUND('',#168,.T.);
#94=FACE_OUTER_BOUND('',#170,.T.);
#95=FACE_OUTER_BOUND('',#171,.T.);
#96=FACE_OUTER_BOUND('',#172,.T.);
#97=FACE_OUTER_BOUND('',#173,.T.);
#98=FACE_OUTER_BOUND('',#174,.T.);
#99=FACE_OUTER_BOUND('',#176,.T.);
#100=FACE_OUTER_BOUND('',#177,.T.);
#101=FACE_OUTER_BOUND('',#178,.T.);
#102=FACE_OUTER_BOUND('',#180,.T.);
#103=FACE_OUTER_BOUND('',#181,.T.);
#104=FACE_OUTER_BOUND('',#182,.T.);
#105=FACE_OUTER_BOUND('',#183,.T.);
#106=FACE_OUTER_BOUND('',#184,.T.);
#107=FACE_OUTER_BOUND('',#185,.T.);
#108=FACE_OUTER_BOUND('',#186,.T.);
#109=FACE_OUTER_BOUND('',#187,.T.);
#110=FACE_OUTER_BOUND('',#188,.T.);
#111=FACE_OUTER_BOUND('',#189,.T.);
#112=FACE_OUTER_BOUND('',#190,.T.);
#113=FACE_OUTER_BOUND('',#200,.T.);
#114=FACE_OUTER_BOUND('',#201,.T.);
#115=FACE_OUTER_BOUND('',#202,.T.);
#116=FACE_OUTER_BOUND('',#203,.T.);
#117=FACE_OUTER_BOUND('',#204,.T.);
#118=FACE_OUTER_BOUND('',#205,.T.);
#119=FACE_OUTER_BOUND('',#206,.T.);
#120=FACE_OUTER_BOUND('',#207,.T.);
#121=FACE_OUTER_BOUND('',#208,.T.);
#122=FACE_OUTER_BOUND('',#209,.T.);
#123=FACE_OUTER_BOUND('',#210,.T.);
#124=FACE_OUTER_BOUND('',#211,.T.);
#125=FACE_OUTER_BOUND('',#212,.T.);
#126=FACE_OUTER_BOUND('',#213,.T.);
#127=FACE_OUTER_BOUND('',#214,.T.);
#128=FACE_OUTER_BOUND('',#215,.T.);
#129=FACE_OUTER_BOUND('',#216,.T.);
#130=FACE_OUTER_BOUND('',#217,.T.);
#131=FACE_OUTER_BOUND('',#218,.T.);
#132=FACE_OUTER_BOUND('',#219,.T.);
#133=FACE_OUTER_BOUND('',#220,.T.);
#134=FACE_OUTER_BOUND('',#221,.T.);
#135=FACE_OUTER_BOUND('',#222,.T.);
#136=FACE_OUTER_BOUND('',#223,.T.);
#137=FACE_OUTER_BOUND('',#224,.T.);
#138=FACE_OUTER_BOUND('',#225,.T.);
#139=FACE_OUTER_BOUND('',#226,.T.);
#140=FACE_OUTER_BOUND('',#227,.T.);
#141=FACE_OUTER_BOUND('',#228,.T.);
#142=FACE_OUTER_BOUND('',#229,.T.);
#143=FACE_OUTER_BOUND('',#231,.T.);
#144=FACE_OUTER_BOUND('',#232,.T.);
#145=FACE_OUTER_BOUND('',#233,.T.);
#146=FACE_OUTER_BOUND('',#234,.T.);
#147=FACE_OUTER_BOUND('',#235,.T.);
#148=FACE_OUTER_BOUND('',#236,.T.);
#149=FACE_OUTER_BOUND('',#237,.T.);
#150=FACE_OUTER_BOUND('',#238,.T.);
#151=FACE_OUTER_BOUND('',#239,.T.);
#152=FACE_OUTER_BOUND('',#240,.T.);
#153=FACE_OUTER_BOUND('',#253,.T.);
#154=FACE_OUTER_BOUND('',#254,.T.);
#155=FACE_OUTER_BOUND('',#256,.T.);
#156=FACE_OUTER_BOUND('',#257,.T.);
#157=FACE_OUTER_BOUND('',#259,.T.);
#158=FACE_OUTER_BOUND('',#260,.T.);
#159=FACE_OUTER_BOUND('',#262,.T.);
#160=FACE_OUTER_BOUND('',#263,.T.);
#161=FACE_OUTER_BOUND('',#264,.T.);
#162=FACE_OUTER_BOUND('',#265,.T.);
#163=FACE_OUTER_BOUND('',#268,.T.);
#164=FACE_OUTER_BOUND('',#271,.T.);
#165=FACE_OUTER_BOUND('',#272,.T.);
#166=EDGE_LOOP('',(#799,#800,#801,#802));
#167=EDGE_LOOP('',(#803,#804,#805,#806));
#168=EDGE_LOOP('',(#807,#808));
#169=EDGE_LOOP('',(#809));
#170=EDGE_LOOP('',(#810,#811,#812,#813));
#171=EDGE_LOOP('',(#814));
#172=EDGE_LOOP('',(#815,#816,#817,#818));
#173=EDGE_LOOP('',(#819));
#174=EDGE_LOOP('',(#820));
#175=EDGE_LOOP('',(#821));
#176=EDGE_LOOP('',(#822,#823,#824,#825));
#177=EDGE_LOOP('',(#826,#827,#828,#829));
#178=EDGE_LOOP('',(#830));
#179=EDGE_LOOP('',(#831));
#180=EDGE_LOOP('',(#832,#833,#834,#835));
#181=EDGE_LOOP('',(#836,#837,#838,#839));
#182=EDGE_LOOP('',(#840,#841,#842,#843));
#183=EDGE_LOOP('',(#844,#845,#846,#847));
#184=EDGE_LOOP('',(#848,#849,#850,#851));
#185=EDGE_LOOP('',(#852,#853,#854,#855));
#186=EDGE_LOOP('',(#856,#857,#858,#859));
#187=EDGE_LOOP('',(#860,#861,#862,#863));
#188=EDGE_LOOP('',(#864,#865,#866,#867));
#189=EDGE_LOOP('',(#868,#869,#870,#871,#872));
#190=EDGE_LOOP('',(#873,#874,#875,#876));
#191=EDGE_LOOP('',(#877));
#192=EDGE_LOOP('',(#878));
#193=EDGE_LOOP('',(#879));
#194=EDGE_LOOP('',(#880));
#195=EDGE_LOOP('',(#881));
#196=EDGE_LOOP('',(#882));
#197=EDGE_LOOP('',(#883,#884,#885,#886,#887,#888,#889,#890,#891,#892,#893,
#894,#895,#896,#897,#898,#899,#900,#901,#902,#903));
#198=EDGE_LOOP('',(#904));
#199=EDGE_LOOP('',(#905));
#200=EDGE_LOOP('',(#906,#907,#908,#909,#910,#911,#912,#913));
#201=EDGE_LOOP('',(#914,#915,#916,#917));
#202=EDGE_LOOP('',(#918));
#203=EDGE_LOOP('',(#919,#920,#921,#922));
#204=EDGE_LOOP('',(#923));
#205=EDGE_LOOP('',(#924,#925,#926,#927));
#206=EDGE_LOOP('',(#928));
#207=EDGE_LOOP('',(#929,#930,#931,#932));
#208=EDGE_LOOP('',(#933,#934,#935,#936));
#209=EDGE_LOOP('',(#937));
#210=EDGE_LOOP('',(#938,#939,#940,#941));
#211=EDGE_LOOP('',(#942));
#212=EDGE_LOOP('',(#943,#944,#945,#946));
#213=EDGE_LOOP('',(#947));
#214=EDGE_LOOP('',(#948,#949,#950,#951));
#215=EDGE_LOOP('',(#952));
#216=EDGE_LOOP('',(#953,#954,#955,#956));
#217=EDGE_LOOP('',(#957,#958,#959,#960));
#218=EDGE_LOOP('',(#961,#962,#963,#964));
#219=EDGE_LOOP('',(#965,#966,#967,#968,#969));
#220=EDGE_LOOP('',(#970,#971,#972,#973));
#221=EDGE_LOOP('',(#974,#975,#976,#977));
#222=EDGE_LOOP('',(#978,#979,#980,#981));
#223=EDGE_LOOP('',(#982,#983,#984,#985));
#224=EDGE_LOOP('',(#986,#987,#988,#989));
#225=EDGE_LOOP('',(#990,#991,#992,#993,#994,#995,#996,#997));
#226=EDGE_LOOP('',(#998,#999,#1000,#1001));
#227=EDGE_LOOP('',(#1002,#1003,#1004,#1005,#1006));
#228=EDGE_LOOP('',(#1007,#1008,#1009,#1010));
#229=EDGE_LOOP('',(#1011,#1012,#1013,#1014,#1015,#1016,#1017,#1018,#1019));
#230=EDGE_LOOP('',(#1020));
#231=EDGE_LOOP('',(#1021,#1022,#1023,#1024,#1025,#1026,#1027,#1028));
#232=EDGE_LOOP('',(#1029,#1030,#1031,#1032));
#233=EDGE_LOOP('',(#1033));
#234=EDGE_LOOP('',(#1034,#1035,#1036,#1037));
#235=EDGE_LOOP('',(#1038));
#236=EDGE_LOOP('',(#1039,#1040,#1041,#1042));
#237=EDGE_LOOP('',(#1043));
#238=EDGE_LOOP('',(#1044,#1045,#1046,#1047));
#239=EDGE_LOOP('',(#1048));
#240=EDGE_LOOP('',(#1049,#1050,#1051,#1052));
#241=EDGE_LOOP('',(#1053,#1054));
#242=EDGE_LOOP('',(#1055));
#243=EDGE_LOOP('',(#1056));
#244=EDGE_LOOP('',(#1057));
#245=EDGE_LOOP('',(#1058));
#246=EDGE_LOOP('',(#1059));
#247=EDGE_LOOP('',(#1060));
#248=EDGE_LOOP('',(#1061));
#249=EDGE_LOOP('',(#1062,#1063,#1064,#1065,#1066,#1067));
#250=EDGE_LOOP('',(#1068));
#251=EDGE_LOOP('',(#1069));
#252=EDGE_LOOP('',(#1070));
#253=EDGE_LOOP('',(#1071,#1072,#1073,#1074));
#254=EDGE_LOOP('',(#1075));
#255=EDGE_LOOP('',(#1076));
#256=EDGE_LOOP('',(#1077,#1078,#1079,#1080));
#257=EDGE_LOOP('',(#1081));
#258=EDGE_LOOP('',(#1082));
#259=EDGE_LOOP('',(#1083,#1084,#1085,#1086));
#260=EDGE_LOOP('',(#1087));
#261=EDGE_LOOP('',(#1088));
#262=EDGE_LOOP('',(#1089,#1090,#1091,#1092));
#263=EDGE_LOOP('',(#1093,#1094,#1095,#1096));
#264=EDGE_LOOP('',(#1097,#1098,#1099,#1100));
#265=EDGE_LOOP('',(#1101,#1102,#1103,#1104));
#266=EDGE_LOOP('',(#1105));
#267=EDGE_LOOP('',(#1106));
#268=EDGE_LOOP('',(#1107,#1108,#1109,#1110));
#269=EDGE_LOOP('',(#1111));
#270=EDGE_LOOP('',(#1112));
#271=EDGE_LOOP('',(#1113,#1114,#1115,#1116));
#272=EDGE_LOOP('',(#1117,#1118,#1119,#1120));
#273=EDGE_LOOP('',(#1121));
#274=EDGE_LOOP('',(#1122));
#275=CIRCLE('',#1246,1.);
#276=CIRCLE('',#1247,1.);
#277=CIRCLE('',#1249,9.1);
#278=CIRCLE('',#1250,9.1);
#279=CIRCLE('',#1252,8.50000000000001);
#280=CIRCLE('',#1254,1.5);
#281=CIRCLE('',#1255,1.5);
#282=CIRCLE('',#1258,1.5);
#283=CIRCLE('',#1259,1.5);
#284=CIRCLE('',#1262,3.);
#285=CIRCLE('',#1263,2.);
#286=CIRCLE('',#1265,3.);
#287=CIRCLE('',#1267,2.);
#288=CIRCLE('',#1269,3.);
#289=CIRCLE('',#1270,2.);
#290=CIRCLE('',#1272,3.);
#291=CIRCLE('',#1274,2.);
#292=CIRCLE('',#1276,2.5);
#293=CIRCLE('',#1277,2.5);
#294=CIRCLE('',#1285,8.50000000000001);
#295=CIRCLE('',#1286,8.50000000000001);
#296=CIRCLE('',#1288,5.);
#297=CIRCLE('',#1289,5.);
#298=CIRCLE('',#1290,5.);
#299=CIRCLE('',#1291,1.00000000000001);
#300=CIRCLE('',#1292,1.00000000000001);
#301=CIRCLE('',#1293,8.50000000000001);
#302=CIRCLE('',#1294,0.999999999999996);
#303=CIRCLE('',#1295,0.499999999999998);
#304=CIRCLE('',#1296,0.499999999999998);
#305=CIRCLE('',#1297,0.999999999999996);
#306=CIRCLE('',#1298,1.5);
#307=CIRCLE('',#1299,1.5);
#308=CIRCLE('',#1302,1.5);
#309=CIRCLE('',#1303,1.5);
#310=CIRCLE('',#1306,1.5);
#311=CIRCLE('',#1307,1.5);
#312=CIRCLE('',#1310,2.);
#313=CIRCLE('',#1311,2.);
#314=CIRCLE('',#1314,2.);
#315=CIRCLE('',#1315,1.75);
#316=CIRCLE('',#1317,1.75);
#317=CIRCLE('',#1320,1.5);
#318=CIRCLE('',#1323,1.5);
#319=CIRCLE('',#1326,1.5);
#320=CIRCLE('',#1327,1.5);
#321=CIRCLE('',#1332,0.499999999999998);
#322=CIRCLE('',#1336,0.999999999999996);
#323=CIRCLE('',#1338,1.00000000000001);
#324=CIRCLE('',#1341,1.00000000000001);
#325=CIRCLE('',#1344,0.999999999999996);
#326=CIRCLE('',#1347,0.499999999999998);
#327=CIRCLE('',#1351,1.5);
#328=CIRCLE('',#1352,1.5);
#329=CIRCLE('',#1355,1.5);
#330=CIRCLE('',#1356,1.5);
#331=CIRCLE('',#1359,1.5);
#332=CIRCLE('',#1360,1.5);
#333=CIRCLE('',#1363,1.5);
#334=CIRCLE('',#1364,1.5);
#335=CIRCLE('',#1367,4.4);
#336=CIRCLE('',#1368,4.4);
#337=CIRCLE('',#1369,4.4);
#338=CIRCLE('',#1371,5.);
#339=CIRCLE('',#1373,4.4);
#340=CIRCLE('',#1375,5.);
#341=CIRCLE('',#1377,4.4);
#342=CIRCLE('',#1379,5.);
#343=CIRCLE('',#1381,4.4);
#344=LINE('',#1776,#437);
#345=LINE('',#1780,#438);
#346=LINE('',#1792,#439);
#347=LINE('',#1799,#440);
#348=LINE('',#1810,#441);
#349=LINE('',#1813,#442);
#350=LINE('',#1823,#443);
#351=LINE('',#1826,#444);
#352=LINE('',#1832,#445);
#353=LINE('',#1837,#446);
#354=LINE('',#1839,#447);
#355=LINE('',#1841,#448);
#356=LINE('',#1842,#449);
#357=LINE('',#1845,#450);
#358=LINE('',#1847,#451);
#359=LINE('',#1848,#452);
#360=LINE('',#1851,#453);
#361=LINE('',#1853,#454);
#362=LINE('',#1854,#455);
#363=LINE('',#1856,#456);
#364=LINE('',#1860,#457);
#365=LINE('',#1862,#458);
#366=LINE('',#1864,#459);
#367=LINE('',#1865,#460);
#368=LINE('',#1869,#461);
#369=LINE('',#1871,#462);
#370=LINE('',#1873,#463);
#371=LINE('',#1874,#464);
#372=LINE('',#1876,#465);
#373=LINE('',#1883,#466);
#374=LINE('',#1885,#467);
#375=LINE('',#1887,#468);
#376=LINE('',#1888,#469);
#377=LINE('',#1896,#470);
#378=LINE('',#1900,#471);
#379=LINE('',#1903,#472);
#380=LINE('',#1906,#473);
#381=LINE('',#1910,#474);
#382=LINE('',#1912,#475);
#383=LINE('',#1916,#476);
#384=LINE('',#1920,#477);
#385=LINE('',#1923,#478);
#386=LINE('',#1930,#479);
#387=LINE('',#1932,#480);
#388=LINE('',#1933,#481);
#389=LINE('',#1938,#482);
#390=LINE('',#1945,#483);
#391=LINE('',#1952,#484);
#392=LINE('',#1959,#485);
#393=LINE('',#1963,#486);
#394=LINE('',#1968,#487);
#395=LINE('',#1973,#488);
#396=LINE('',#1980,#489);
#397=LINE('',#1986,#490);
#398=LINE('',#1988,#491);
#399=LINE('',#1990,#492);
#400=LINE('',#1991,#493);
#401=LINE('',#1994,#494);
#402=LINE('',#1996,#495);
#403=LINE('',#1997,#496);
#404=LINE('',#2000,#497);
#405=LINE('',#2003,#498);
#406=LINE('',#2004,#499);
#407=LINE('',#2007,#500);
#408=LINE('',#2008,#501);
#409=LINE('',#2013,#502);
#410=LINE('',#2017,#503);
#411=LINE('',#2018,#504);
#412=LINE('',#2021,#505);
#413=LINE('',#2025,#506);
#414=LINE('',#2026,#507);
#415=LINE('',#2028,#508);
#416=LINE('',#2032,#509);
#417=LINE('',#2033,#510);
#418=LINE('',#2038,#511);
#419=LINE('',#2043,#512);
#420=LINE('',#2050,#513);
#421=LINE('',#2057,#514);
#422=LINE('',#2064,#515);
#423=LINE('',#2070,#516);
#424=LINE('',#2072,#517);
#425=LINE('',#2074,#518);
#426=LINE('',#2075,#519);
#427=LINE('',#2084,#520);
#428=LINE('',#2091,#521);
#429=LINE('',#2098,#522);
#430=LINE('',#2104,#523);
#431=LINE('',#2106,#524);
#432=LINE('',#2108,#525);
#433=LINE('',#2110,#526);
#434=LINE('',#2111,#527);
#435=LINE('',#2113,#528);
#436=LINE('',#2115,#529);
#437=VECTOR('',#1393,10.);
#438=VECTOR('',#1396,10.);
#439=VECTOR('',#1413,1.5);
#440=VECTOR('',#1422,1.5);
#441=VECTOR('',#1437,3.);
#442=VECTOR('',#1440,2.);
#443=VECTOR('',#1453,3.);
#444=VECTOR('',#1456,2.);
#445=VECTOR('',#1463,2.5);
#446=VECTOR('',#1468,10.);
#447=VECTOR('',#1469,10.);
#448=VECTOR('',#1470,10.);
#449=VECTOR('',#1471,10.);
#450=VECTOR('',#1474,10.);
#451=VECTOR('',#1475,10.);
#452=VECTOR('',#1476,10.);
#453=VECTOR('',#1479,10.);
#454=VECTOR('',#1480,10.);
#455=VECTOR('',#1481,10.);
#456=VECTOR('',#1484,10.);
#457=VECTOR('',#1487,10.);
#458=VECTOR('',#1488,10.);
#459=VECTOR('',#1489,10.);
#460=VECTOR('',#1490,10.);
#461=VECTOR('',#1493,10.);
#462=VECTOR('',#1494,10.);
#463=VECTOR('',#1495,10.);
#464=VECTOR('',#1496,10.);
#465=VECTOR('',#1499,10.);
#466=VECTOR('',#1506,10.);
#467=VECTOR('',#1507,10.);
#468=VECTOR('',#1508,10.);
#469=VECTOR('',#1509,10.);
#470=VECTOR('',#1516,10.);
#471=VECTOR('',#1519,10.);
#472=VECTOR('',#1522,10.);
#473=VECTOR('',#1525,10.);
#474=VECTOR('',#1528,10.);
#475=VECTOR('',#1529,10.);
#476=VECTOR('',#1532,10.);
#477=VECTOR('',#1535,10.);
#478=VECTOR('',#1538,10.);
#479=VECTOR('',#1545,10.);
#480=VECTOR('',#1546,10.);
#481=VECTOR('',#1547,10.);
#482=VECTOR('',#1552,1.5);
#483=VECTOR('',#1561,1.5);
#484=VECTOR('',#1570,2.);
#485=VECTOR('',#1579,1.875);
#486=VECTOR('',#1584,1.75);
#487=VECTOR('',#1591,1.5);
#488=VECTOR('',#1598,1.5);
#489=VECTOR('',#1607,1.5);
#490=VECTOR('',#1614,10.);
#491=VECTOR('',#1615,10.);
#492=VECTOR('',#1616,10.);
#493=VECTOR('',#1617,10.);
#494=VECTOR('',#1620,10.);
#495=VECTOR('',#1621,10.);
#496=VECTOR('',#1622,10.);
#497=VECTOR('',#1625,10.);
#498=VECTOR('',#1630,10.);
#499=VECTOR('',#1631,10.);
#500=VECTOR('',#1634,10.);
#501=VECTOR('',#1635,10.);
#502=VECTOR('',#1642,10.);
#503=VECTOR('',#1647,10.);
#504=VECTOR('',#1648,10.);
#505=VECTOR('',#1651,10.);
#506=VECTOR('',#1656,10.);
#507=VECTOR('',#1657,10.);
#508=VECTOR('',#1660,10.);
#509=VECTOR('',#1665,10.);
#510=VECTOR('',#1666,10.);
#511=VECTOR('',#1675,8.50000000000001);
#512=VECTOR('',#1680,1.5);
#513=VECTOR('',#1689,1.5);
#514=VECTOR('',#1698,1.5);
#515=VECTOR('',#1707,1.5);
#516=VECTOR('',#1714,10.);
#517=VECTOR('',#1715,10.);
#518=VECTOR('',#1716,10.);
#519=VECTOR('',#1717,10.);
#520=VECTOR('',#1726,5.);
#521=VECTOR('',#1735,5.);
#522=VECTOR('',#1744,5.);
#523=VECTOR('',#1753,4.4);
#524=VECTOR('',#1756,4.4);
#525=VECTOR('',#1759,4.4);
#526=VECTOR('',#1762,10.);
#527=VECTOR('',#1763,10.);
#528=VECTOR('',#1766,10.);
#529=VECTOR('',#1769,10.);
#530=VERTEX_POINT('',#1774);
#531=VERTEX_POINT('',#1775);
#532=VERTEX_POINT('',#1777);
#533=VERTEX_POINT('',#1779);
#534=VERTEX_POINT('',#1786);
#535=VERTEX_POINT('',#1789);
#536=VERTEX_POINT('',#1791);
#537=VERTEX_POINT('',#1796);
#538=VERTEX_POINT('',#1798);
#539=VERTEX_POINT('',#1803);
#540=VERTEX_POINT('',#1805);
#541=VERTEX_POINT('',#1808);
#542=VERTEX_POINT('',#1812);
#543=VERTEX_POINT('',#1816);
#544=VERTEX_POINT('',#1818);
#545=VERTEX_POINT('',#1821);
#546=VERTEX_POINT('',#1825);
#547=VERTEX_POINT('',#1829);
#548=VERTEX_POINT('',#1831);
#549=VERTEX_POINT('',#1835);
#550=VERTEX_POINT('',#1836);
#551=VERTEX_POINT('',#1838);
#552=VERTEX_POINT('',#1840);
#553=VERTEX_POINT('',#1844);
#554=VERTEX_POINT('',#1846);
#555=VERTEX_POINT('',#1850);
#556=VERTEX_POINT('',#1852);
#557=VERTEX_POINT('',#1858);
#558=VERTEX_POINT('',#1859);
#559=VERTEX_POINT('',#1861);
#560=VERTEX_POINT('',#1863);
#561=VERTEX_POINT('',#1867);
#562=VERTEX_POINT('',#1868);
#563=VERTEX_POINT('',#1870);
#564=VERTEX_POINT('',#1872);
#565=VERTEX_POINT('',#1877);
#566=VERTEX_POINT('',#1881);
#567=VERTEX_POINT('',#1882);
#568=VERTEX_POINT('',#1884);
#569=VERTEX_POINT('',#1886);
#570=VERTEX_POINT('',#1889);
#571=VERTEX_POINT('',#1891);
#572=VERTEX_POINT('',#1893);
#573=VERTEX_POINT('',#1895);
#574=VERTEX_POINT('',#1897);
#575=VERTEX_POINT('',#1899);
#576=VERTEX_POINT('',#1901);
#577=VERTEX_POINT('',#1905);
#578=VERTEX_POINT('',#1907);
#579=VERTEX_POINT('',#1909);
#580=VERTEX_POINT('',#1911);
#581=VERTEX_POINT('',#1913);
#582=VERTEX_POINT('',#1915);
#583=VERTEX_POINT('',#1917);
#584=VERTEX_POINT('',#1919);
#585=VERTEX_POINT('',#1921);
#586=VERTEX_POINT('',#1924);
#587=VERTEX_POINT('',#1926);
#588=VERTEX_POINT('',#1929);
#589=VERTEX_POINT('',#1931);
#590=VERTEX_POINT('',#1935);
#591=VERTEX_POINT('',#1937);
#592=VERTEX_POINT('',#1942);
#593=VERTEX_POINT('',#1944);
#594=VERTEX_POINT('',#1949);
#595=VERTEX_POINT('',#1951);
#596=VERTEX_POINT('',#1956);
#597=VERTEX_POINT('',#1958);
#598=VERTEX_POINT('',#1962);
#599=VERTEX_POINT('',#1967);
#600=VERTEX_POINT('',#1972);
#601=VERTEX_POINT('',#1977);
#602=VERTEX_POINT('',#1979);
#603=VERTEX_POINT('',#1984);
#604=VERTEX_POINT('',#1985);
#605=VERTEX_POINT('',#1987);
#606=VERTEX_POINT('',#1989);
#607=VERTEX_POINT('',#1993);
#608=VERTEX_POINT('',#1995);
#609=VERTEX_POINT('',#1999);
#610=VERTEX_POINT('',#2006);
#611=VERTEX_POINT('',#2012);
#612=VERTEX_POINT('',#2016);
#613=VERTEX_POINT('',#2020);
#614=VERTEX_POINT('',#2024);
#615=VERTEX_POINT('',#2031);
#616=VERTEX_POINT('',#2040);
#617=VERTEX_POINT('',#2042);
#618=VERTEX_POINT('',#2047);
#619=VERTEX_POINT('',#2049);
#620=VERTEX_POINT('',#2054);
#621=VERTEX_POINT('',#2056);
#622=VERTEX_POINT('',#2061);
#623=VERTEX_POINT('',#2063);
#624=VERTEX_POINT('',#2068);
#625=VERTEX_POINT('',#2069);
#626=VERTEX_POINT('',#2071);
#627=VERTEX_POINT('',#2073);
#628=VERTEX_POINT('',#2076);
#629=VERTEX_POINT('',#2078);
#630=VERTEX_POINT('',#2080);
#631=VERTEX_POINT('',#2083);
#632=VERTEX_POINT('',#2087);
#633=VERTEX_POINT('',#2090);
#634=VERTEX_POINT('',#2094);
#635=VERTEX_POINT('',#2097);
#636=VERTEX_POINT('',#2101);
#637=EDGE_CURVE('',#530,#531,#344,.T.);
#638=EDGE_CURVE('',#532,#530,#275,.T.);
#639=EDGE_CURVE('',#533,#532,#345,.T.);
#640=EDGE_CURVE('',#533,#531,#276,.T.);
#641=EDGE_CURVE('',#531,#533,#277,.T.);
#642=EDGE_CURVE('',#530,#532,#278,.T.);
#643=EDGE_CURVE('',#534,#534,#279,.T.);
#644=EDGE_CURVE('',#535,#535,#280,.T.);
#645=EDGE_CURVE('',#535,#536,#346,.T.);
#646=EDGE_CURVE('',#536,#536,#281,.T.);
#647=EDGE_CURVE('',#537,#537,#282,.T.);
#648=EDGE_CURVE('',#537,#538,#347,.T.);
#649=EDGE_CURVE('',#538,#538,#283,.T.);
#650=EDGE_CURVE('',#539,#539,#284,.T.);
#651=EDGE_CURVE('',#540,#540,#285,.T.);
#652=EDGE_CURVE('',#541,#541,#286,.T.);
#653=EDGE_CURVE('',#541,#539,#348,.T.);
#654=EDGE_CURVE('',#540,#542,#349,.T.);
#655=EDGE_CURVE('',#542,#542,#287,.T.);
#656=EDGE_CURVE('',#543,#543,#288,.T.);
#657=EDGE_CURVE('',#544,#544,#289,.T.);
#658=EDGE_CURVE('',#545,#545,#290,.T.);
#659=EDGE_CURVE('',#545,#543,#350,.T.);
#660=EDGE_CURVE('',#544,#546,#351,.T.);
#661=EDGE_CURVE('',#546,#546,#291,.T.);
#662=EDGE_CURVE('',#547,#547,#292,.T.);
#663=EDGE_CURVE('',#547,#548,#352,.T.);
#664=EDGE_CURVE('',#548,#548,#293,.T.);
#665=EDGE_CURVE('',#549,#550,#353,.T.);
#666=EDGE_CURVE('',#549,#551,#354,.T.);
#667=EDGE_CURVE('',#551,#552,#355,.T.);
#668=EDGE_CURVE('',#550,#552,#356,.T.);
#669=EDGE_CURVE('',#553,#549,#357,.T.);
#670=EDGE_CURVE('',#553,#554,#358,.T.);
#671=EDGE_CURVE('',#554,#551,#359,.T.);
#672=EDGE_CURVE('',#555,#553,#360,.T.);
#673=EDGE_CURVE('',#556,#555,#361,.T.);
#674=EDGE_CURVE('',#556,#554,#362,.T.);
#675=EDGE_CURVE('',#552,#556,#363,.T.);
#676=EDGE_CURVE('',#557,#558,#364,.T.);
#677=EDGE_CURVE('',#559,#557,#365,.T.);
#678=EDGE_CURVE('',#559,#560,#366,.T.);
#679=EDGE_CURVE('',#558,#560,#367,.T.);
#680=EDGE_CURVE('',#561,#562,#368,.T.);
#681=EDGE_CURVE('',#563,#561,#369,.T.);
#682=EDGE_CURVE('',#563,#564,#370,.T.);
#683=EDGE_CURVE('',#562,#564,#371,.T.);
#684=EDGE_CURVE('',#560,#563,#372,.T.);
#685=EDGE_CURVE('',#565,#559,#294,.T.);
#686=EDGE_CURVE('',#564,#565,#295,.T.);
#687=EDGE_CURVE('',#566,#567,#373,.T.);
#688=EDGE_CURVE('',#568,#566,#374,.T.);
#689=EDGE_CURVE('',#569,#568,#375,.T.);
#690=EDGE_CURVE('',#567,#569,#376,.T.);
#691=EDGE_CURVE('',#570,#570,#296,.T.);
#692=EDGE_CURVE('',#571,#571,#297,.T.);
#693=EDGE_CURVE('',#572,#572,#298,.T.);
#694=EDGE_CURVE('',#550,#573,#377,.T.);
#695=EDGE_CURVE('',#573,#574,#299,.T.);
#696=EDGE_CURVE('',#574,#575,#378,.T.);
#697=EDGE_CURVE('',#575,#576,#300,.T.);
#698=EDGE_CURVE('',#576,#561,#379,.T.);
#699=EDGE_CURVE('',#557,#562,#301,.T.);
#700=EDGE_CURVE('',#558,#577,#380,.T.);
#701=EDGE_CURVE('',#577,#578,#302,.T.);
#702=EDGE_CURVE('',#578,#579,#381,.T.);
#703=EDGE_CURVE('',#579,#580,#382,.T.);
#704=EDGE_CURVE('',#580,#581,#303,.T.);
#705=EDGE_CURVE('',#581,#582,#383,.T.);
#706=EDGE_CURVE('',#582,#583,#304,.T.);
#707=EDGE_CURVE('',#583,#584,#384,.T.);
#708=EDGE_CURVE('',#584,#585,#305,.T.);
#709=EDGE_CURVE('',#585,#555,#385,.T.);
#710=EDGE_CURVE('',#586,#586,#306,.T.);
#711=EDGE_CURVE('',#587,#587,#307,.T.);
#712=EDGE_CURVE('',#576,#588,#386,.T.);
#713=EDGE_CURVE('',#588,#589,#387,.T.);
#714=EDGE_CURVE('',#577,#589,#388,.T.);
#715=EDGE_CURVE('',#590,#590,#308,.T.);
#716=EDGE_CURVE('',#590,#591,#389,.T.);
#717=EDGE_CURVE('',#591,#591,#309,.T.);
#718=EDGE_CURVE('',#592,#592,#310,.T.);
#719=EDGE_CURVE('',#592,#593,#390,.T.);
#720=EDGE_CURVE('',#593,#593,#311,.T.);
#721=EDGE_CURVE('',#594,#594,#312,.T.);
#722=EDGE_CURVE('',#594,#595,#391,.T.);
#723=EDGE_CURVE('',#595,#595,#313,.T.);
#724=EDGE_CURVE('',#596,#596,#314,.T.);
#725=EDGE_CURVE('',#596,#597,#392,.T.);
#726=EDGE_CURVE('',#597,#597,#315,.T.);
#727=EDGE_CURVE('',#597,#598,#393,.T.);
#728=EDGE_CURVE('',#598,#598,#316,.T.);
#729=EDGE_CURVE('',#587,#599,#394,.T.);
#730=EDGE_CURVE('',#599,#599,#317,.T.);
#731=EDGE_CURVE('',#586,#600,#395,.T.);
#732=EDGE_CURVE('',#600,#600,#318,.T.);
#733=EDGE_CURVE('',#601,#601,#319,.T.);
#734=EDGE_CURVE('',#601,#602,#396,.T.);
#735=EDGE_CURVE('',#602,#602,#320,.T.);
#736=EDGE_CURVE('',#603,#604,#397,.T.);
#737=EDGE_CURVE('',#605,#603,#398,.T.);
#738=EDGE_CURVE('',#606,#605,#399,.T.);
#739=EDGE_CURVE('',#606,#604,#400,.T.);
#740=EDGE_CURVE('',#581,#607,#401,.T.);
#741=EDGE_CURVE('',#608,#607,#402,.T.);
#742=EDGE_CURVE('',#582,#608,#403,.T.);
#743=EDGE_CURVE('',#580,#609,#404,.T.);
#744=EDGE_CURVE('',#607,#609,#321,.T.);
#745=EDGE_CURVE('',#579,#605,#405,.T.);
#746=EDGE_CURVE('',#609,#603,#406,.T.);
#747=EDGE_CURVE('',#578,#610,#407,.T.);
#748=EDGE_CURVE('',#610,#605,#408,.T.);
#749=EDGE_CURVE('',#589,#610,#322,.T.);
#750=EDGE_CURVE('',#575,#611,#409,.T.);
#751=EDGE_CURVE('',#611,#588,#323,.T.);
#752=EDGE_CURVE('',#574,#612,#410,.T.);
#753=EDGE_CURVE('',#612,#611,#411,.T.);
#754=EDGE_CURVE('',#573,#613,#412,.T.);
#755=EDGE_CURVE('',#613,#612,#324,.T.);
#756=EDGE_CURVE('',#585,#614,#413,.T.);
#757=EDGE_CURVE('',#614,#613,#414,.T.);
#758=EDGE_CURVE('',#584,#606,#415,.T.);
#759=EDGE_CURVE('',#606,#614,#325,.T.);
#760=EDGE_CURVE('',#583,#615,#416,.T.);
#761=EDGE_CURVE('',#604,#615,#417,.T.);
#762=EDGE_CURVE('',#615,#608,#326,.T.);
#763=EDGE_CURVE('',#534,#565,#418,.T.);
#764=EDGE_CURVE('',#616,#616,#327,.T.);
#765=EDGE_CURVE('',#616,#617,#419,.T.);
#766=EDGE_CURVE('',#617,#617,#328,.T.);
#767=EDGE_CURVE('',#618,#618,#329,.T.);
#768=EDGE_CURVE('',#618,#619,#420,.T.);
#769=EDGE_CURVE('',#619,#619,#330,.T.);
#770=EDGE_CURVE('',#620,#620,#331,.T.);
#771=EDGE_CURVE('',#620,#621,#421,.T.);
#772=EDGE_CURVE('',#621,#621,#332,.T.);
#773=EDGE_CURVE('',#622,#622,#333,.T.);
#774=EDGE_CURVE('',#622,#623,#422,.T.);
#775=EDGE_CURVE('',#623,#623,#334,.T.);
#776=EDGE_CURVE('',#624,#625,#423,.T.);
#777=EDGE_CURVE('',#625,#626,#424,.T.);
#778=EDGE_CURVE('',#626,#627,#425,.T.);
#779=EDGE_CURVE('',#627,#624,#426,.T.);
#780=EDGE_CURVE('',#628,#628,#335,.T.);
#781=EDGE_CURVE('',#629,#629,#336,.T.);
#782=EDGE_CURVE('',#630,#630,#337,.T.);
#783=EDGE_CURVE('',#570,#631,#427,.T.);
#784=EDGE_CURVE('',#631,#631,#338,.T.);
#785=EDGE_CURVE('',#632,#632,#339,.T.);
#786=EDGE_CURVE('',#571,#633,#428,.T.);
#787=EDGE_CURVE('',#633,#633,#340,.T.);
#788=EDGE_CURVE('',#634,#634,#341,.T.);
#789=EDGE_CURVE('',#572,#635,#429,.T.);
#790=EDGE_CURVE('',#635,#635,#342,.T.);
#791=EDGE_CURVE('',#636,#636,#343,.T.);
#792=EDGE_CURVE('',#630,#634,#430,.T.);
#793=EDGE_CURVE('',#629,#632,#431,.T.);
#794=EDGE_CURVE('',#628,#636,#432,.T.);
#795=EDGE_CURVE('',#568,#624,#433,.T.);
#796=EDGE_CURVE('',#569,#627,#434,.T.);
#797=EDGE_CURVE('',#567,#626,#435,.T.);
#798=EDGE_CURVE('',#566,#625,#436,.T.);
#799=ORIENTED_EDGE('',*,*,#637,.F.);
#800=ORIENTED_EDGE('',*,*,#638,.F.);
#801=ORIENTED_EDGE('',*,*,#639,.F.);
#802=ORIENTED_EDGE('',*,*,#640,.T.);
#803=ORIENTED_EDGE('',*,*,#637,.T.);
#804=ORIENTED_EDGE('',*,*,#641,.T.);
#805=ORIENTED_EDGE('',*,*,#639,.T.);
#806=ORIENTED_EDGE('',*,*,#642,.F.);
#807=ORIENTED_EDGE('',*,*,#641,.F.);
#808=ORIENTED_EDGE('',*,*,#640,.F.);
#809=ORIENTED_EDGE('',*,*,#643,.T.);
#810=ORIENTED_EDGE('',*,*,#644,.F.);
#811=ORIENTED_EDGE('',*,*,#645,.T.);
#812=ORIENTED_EDGE('',*,*,#646,.T.);
#813=ORIENTED_EDGE('',*,*,#645,.F.);
#814=ORIENTED_EDGE('',*,*,#646,.F.);
#815=ORIENTED_EDGE('',*,*,#647,.F.);
#816=ORIENTED_EDGE('',*,*,#648,.T.);
#817=ORIENTED_EDGE('',*,*,#649,.T.);
#818=ORIENTED_EDGE('',*,*,#648,.F.);
#819=ORIENTED_EDGE('',*,*,#649,.F.);
#820=ORIENTED_EDGE('',*,*,#650,.F.);
#821=ORIENTED_EDGE('',*,*,#651,.T.);
#822=ORIENTED_EDGE('',*,*,#652,.F.);
#823=ORIENTED_EDGE('',*,*,#653,.T.);
#824=ORIENTED_EDGE('',*,*,#650,.T.);
#825=ORIENTED_EDGE('',*,*,#653,.F.);
#826=ORIENTED_EDGE('',*,*,#651,.F.);
#827=ORIENTED_EDGE('',*,*,#654,.T.);
#828=ORIENTED_EDGE('',*,*,#655,.F.);
#829=ORIENTED_EDGE('',*,*,#654,.F.);
#830=ORIENTED_EDGE('',*,*,#656,.F.);
#831=ORIENTED_EDGE('',*,*,#657,.T.);
#832=ORIENTED_EDGE('',*,*,#658,.F.);
#833=ORIENTED_EDGE('',*,*,#659,.T.);
#834=ORIENTED_EDGE('',*,*,#656,.T.);
#835=ORIENTED_EDGE('',*,*,#659,.F.);
#836=ORIENTED_EDGE('',*,*,#657,.F.);
#837=ORIENTED_EDGE('',*,*,#660,.T.);
#838=ORIENTED_EDGE('',*,*,#661,.F.);
#839=ORIENTED_EDGE('',*,*,#660,.F.);
#840=ORIENTED_EDGE('',*,*,#662,.F.);
#841=ORIENTED_EDGE('',*,*,#663,.T.);
#842=ORIENTED_EDGE('',*,*,#664,.F.);
#843=ORIENTED_EDGE('',*,*,#663,.F.);
#844=ORIENTED_EDGE('',*,*,#665,.F.);
#845=ORIENTED_EDGE('',*,*,#666,.T.);
#846=ORIENTED_EDGE('',*,*,#667,.T.);
#847=ORIENTED_EDGE('',*,*,#668,.F.);
#848=ORIENTED_EDGE('',*,*,#669,.F.);
#849=ORIENTED_EDGE('',*,*,#670,.T.);
#850=ORIENTED_EDGE('',*,*,#671,.T.);
#851=ORIENTED_EDGE('',*,*,#666,.F.);
#852=ORIENTED_EDGE('',*,*,#672,.F.);
#853=ORIENTED_EDGE('',*,*,#673,.F.);
#854=ORIENTED_EDGE('',*,*,#674,.T.);
#855=ORIENTED_EDGE('',*,*,#670,.F.);
#856=ORIENTED_EDGE('',*,*,#674,.F.);
#857=ORIENTED_EDGE('',*,*,#675,.F.);
#858=ORIENTED_EDGE('',*,*,#667,.F.);
#859=ORIENTED_EDGE('',*,*,#671,.F.);
#860=ORIENTED_EDGE('',*,*,#676,.F.);
#861=ORIENTED_EDGE('',*,*,#677,.F.);
#862=ORIENTED_EDGE('',*,*,#678,.T.);
#863=ORIENTED_EDGE('',*,*,#679,.F.);
#864=ORIENTED_EDGE('',*,*,#680,.F.);
#865=ORIENTED_EDGE('',*,*,#681,.F.);
#866=ORIENTED_EDGE('',*,*,#682,.T.);
#867=ORIENTED_EDGE('',*,*,#683,.F.);
#868=ORIENTED_EDGE('',*,*,#684,.F.);
#869=ORIENTED_EDGE('',*,*,#678,.F.);
#870=ORIENTED_EDGE('',*,*,#685,.F.);
#871=ORIENTED_EDGE('',*,*,#686,.F.);
#872=ORIENTED_EDGE('',*,*,#682,.F.);
#873=ORIENTED_EDGE('',*,*,#687,.F.);
#874=ORIENTED_EDGE('',*,*,#688,.F.);
#875=ORIENTED_EDGE('',*,*,#689,.F.);
#876=ORIENTED_EDGE('',*,*,#690,.F.);
#877=ORIENTED_EDGE('',*,*,#652,.T.);
#878=ORIENTED_EDGE('',*,*,#658,.T.);
#879=ORIENTED_EDGE('',*,*,#662,.T.);
#880=ORIENTED_EDGE('',*,*,#691,.T.);
#881=ORIENTED_EDGE('',*,*,#692,.T.);
#882=ORIENTED_EDGE('',*,*,#693,.T.);
#883=ORIENTED_EDGE('',*,*,#672,.T.);
#884=ORIENTED_EDGE('',*,*,#669,.T.);
#885=ORIENTED_EDGE('',*,*,#665,.T.);
#886=ORIENTED_EDGE('',*,*,#694,.T.);
#887=ORIENTED_EDGE('',*,*,#695,.T.);
#888=ORIENTED_EDGE('',*,*,#696,.T.);
#889=ORIENTED_EDGE('',*,*,#697,.T.);
#890=ORIENTED_EDGE('',*,*,#698,.T.);
#891=ORIENTED_EDGE('',*,*,#680,.T.);
#892=ORIENTED_EDGE('',*,*,#699,.F.);
#893=ORIENTED_EDGE('',*,*,#676,.T.);
#894=ORIENTED_EDGE('',*,*,#700,.T.);
#895=ORIENTED_EDGE('',*,*,#701,.T.);
#896=ORIENTED_EDGE('',*,*,#702,.T.);
#897=ORIENTED_EDGE('',*,*,#703,.T.);
#898=ORIENTED_EDGE('',*,*,#704,.T.);
#899=ORIENTED_EDGE('',*,*,#705,.T.);
#900=ORIENTED_EDGE('',*,*,#706,.T.);
#901=ORIENTED_EDGE('',*,*,#707,.T.);
#902=ORIENTED_EDGE('',*,*,#708,.T.);
#903=ORIENTED_EDGE('',*,*,#709,.T.);
#904=ORIENTED_EDGE('',*,*,#710,.T.);
#905=ORIENTED_EDGE('',*,*,#711,.T.);
#906=ORIENTED_EDGE('',*,*,#679,.T.);
#907=ORIENTED_EDGE('',*,*,#684,.T.);
#908=ORIENTED_EDGE('',*,*,#681,.T.);
#909=ORIENTED_EDGE('',*,*,#698,.F.);
#910=ORIENTED_EDGE('',*,*,#712,.T.);
#911=ORIENTED_EDGE('',*,*,#713,.T.);
#912=ORIENTED_EDGE('',*,*,#714,.F.);
#913=ORIENTED_EDGE('',*,*,#700,.F.);
#914=ORIENTED_EDGE('',*,*,#715,.F.);
#915=ORIENTED_EDGE('',*,*,#716,.T.);
#916=ORIENTED_EDGE('',*,*,#717,.T.);
#917=ORIENTED_EDGE('',*,*,#716,.F.);
#918=ORIENTED_EDGE('',*,*,#717,.F.);
#919=ORIENTED_EDGE('',*,*,#718,.F.);
#920=ORIENTED_EDGE('',*,*,#719,.T.);
#921=ORIENTED_EDGE('',*,*,#720,.T.);
#922=ORIENTED_EDGE('',*,*,#719,.F.);
#923=ORIENTED_EDGE('',*,*,#720,.F.);
#924=ORIENTED_EDGE('',*,*,#721,.F.);
#925=ORIENTED_EDGE('',*,*,#722,.T.);
#926=ORIENTED_EDGE('',*,*,#723,.T.);
#927=ORIENTED_EDGE('',*,*,#722,.F.);
#928=ORIENTED_EDGE('',*,*,#723,.F.);
#929=ORIENTED_EDGE('',*,*,#724,.F.);
#930=ORIENTED_EDGE('',*,*,#725,.T.);
#931=ORIENTED_EDGE('',*,*,#726,.T.);
#932=ORIENTED_EDGE('',*,*,#725,.F.);
#933=ORIENTED_EDGE('',*,*,#726,.F.);
#934=ORIENTED_EDGE('',*,*,#727,.T.);
#935=ORIENTED_EDGE('',*,*,#728,.T.);
#936=ORIENTED_EDGE('',*,*,#727,.F.);
#937=ORIENTED_EDGE('',*,*,#728,.F.);
#938=ORIENTED_EDGE('',*,*,#711,.F.);
#939=ORIENTED_EDGE('',*,*,#729,.T.);
#940=ORIENTED_EDGE('',*,*,#730,.T.);
#941=ORIENTED_EDGE('',*,*,#729,.F.);
#942=ORIENTED_EDGE('',*,*,#730,.F.);
#943=ORIENTED_EDGE('',*,*,#710,.F.);
#944=ORIENTED_EDGE('',*,*,#731,.T.);
#945=ORIENTED_EDGE('',*,*,#732,.T.);
#946=ORIENTED_EDGE('',*,*,#731,.F.);
#947=ORIENTED_EDGE('',*,*,#732,.F.);
#948=ORIENTED_EDGE('',*,*,#733,.F.);
#949=ORIENTED_EDGE('',*,*,#734,.T.);
#950=ORIENTED_EDGE('',*,*,#735,.T.);
#951=ORIENTED_EDGE('',*,*,#734,.F.);
#952=ORIENTED_EDGE('',*,*,#735,.F.);
#953=ORIENTED_EDGE('',*,*,#736,.F.);
#954=ORIENTED_EDGE('',*,*,#737,.F.);
#955=ORIENTED_EDGE('',*,*,#738,.F.);
#956=ORIENTED_EDGE('',*,*,#739,.T.);
#957=ORIENTED_EDGE('',*,*,#705,.F.);
#958=ORIENTED_EDGE('',*,*,#740,.T.);
#959=ORIENTED_EDGE('',*,*,#741,.F.);
#960=ORIENTED_EDGE('',*,*,#742,.F.);
#961=ORIENTED_EDGE('',*,*,#704,.F.);
#962=ORIENTED_EDGE('',*,*,#743,.T.);
#963=ORIENTED_EDGE('',*,*,#744,.F.);
#964=ORIENTED_EDGE('',*,*,#740,.F.);
#965=ORIENTED_EDGE('',*,*,#703,.F.);
#966=ORIENTED_EDGE('',*,*,#745,.T.);
#967=ORIENTED_EDGE('',*,*,#737,.T.);
#968=ORIENTED_EDGE('',*,*,#746,.F.);
#969=ORIENTED_EDGE('',*,*,#743,.F.);
#970=ORIENTED_EDGE('',*,*,#702,.F.);
#971=ORIENTED_EDGE('',*,*,#747,.T.);
#972=ORIENTED_EDGE('',*,*,#748,.T.);
#973=ORIENTED_EDGE('',*,*,#745,.F.);
#974=ORIENTED_EDGE('',*,*,#701,.F.);
#975=ORIENTED_EDGE('',*,*,#714,.T.);
#976=ORIENTED_EDGE('',*,*,#749,.T.);
#977=ORIENTED_EDGE('',*,*,#747,.F.);
#978=ORIENTED_EDGE('',*,*,#697,.F.);
#979=ORIENTED_EDGE('',*,*,#750,.T.);
#980=ORIENTED_EDGE('',*,*,#751,.T.);
#981=ORIENTED_EDGE('',*,*,#712,.F.);
#982=ORIENTED_EDGE('',*,*,#696,.F.);
#983=ORIENTED_EDGE('',*,*,#752,.T.);
#984=ORIENTED_EDGE('',*,*,#753,.T.);
#985=ORIENTED_EDGE('',*,*,#750,.F.);
#986=ORIENTED_EDGE('',*,*,#695,.F.);
#987=ORIENTED_EDGE('',*,*,#754,.T.);
#988=ORIENTED_EDGE('',*,*,#755,.T.);
#989=ORIENTED_EDGE('',*,*,#752,.F.);
#990=ORIENTED_EDGE('',*,*,#673,.T.);
#991=ORIENTED_EDGE('',*,*,#709,.F.);
#992=ORIENTED_EDGE('',*,*,#756,.T.);
#993=ORIENTED_EDGE('',*,*,#757,.T.);
#994=ORIENTED_EDGE('',*,*,#754,.F.);
#995=ORIENTED_EDGE('',*,*,#694,.F.);
#996=ORIENTED_EDGE('',*,*,#668,.T.);
#997=ORIENTED_EDGE('',*,*,#675,.T.);
#998=ORIENTED_EDGE('',*,*,#708,.F.);
#999=ORIENTED_EDGE('',*,*,#758,.T.);
#1000=ORIENTED_EDGE('',*,*,#759,.T.);
#1001=ORIENTED_EDGE('',*,*,#756,.F.);
#1002=ORIENTED_EDGE('',*,*,#707,.F.);
#1003=ORIENTED_EDGE('',*,*,#760,.T.);
#1004=ORIENTED_EDGE('',*,*,#761,.F.);
#1005=ORIENTED_EDGE('',*,*,#739,.F.);
#1006=ORIENTED_EDGE('',*,*,#758,.F.);
#1007=ORIENTED_EDGE('',*,*,#706,.F.);
#1008=ORIENTED_EDGE('',*,*,#742,.T.);
#1009=ORIENTED_EDGE('',*,*,#762,.F.);
#1010=ORIENTED_EDGE('',*,*,#760,.F.);
#1011=ORIENTED_EDGE('',*,*,#738,.T.);
#1012=ORIENTED_EDGE('',*,*,#748,.F.);
#1013=ORIENTED_EDGE('',*,*,#749,.F.);
#1014=ORIENTED_EDGE('',*,*,#713,.F.);
#1015=ORIENTED_EDGE('',*,*,#751,.F.);
#1016=ORIENTED_EDGE('',*,*,#753,.F.);
#1017=ORIENTED_EDGE('',*,*,#755,.F.);
#1018=ORIENTED_EDGE('',*,*,#757,.F.);
#1019=ORIENTED_EDGE('',*,*,#759,.F.);
#1020=ORIENTED_EDGE('',*,*,#733,.T.);
#1021=ORIENTED_EDGE('',*,*,#643,.F.);
#1022=ORIENTED_EDGE('',*,*,#763,.T.);
#1023=ORIENTED_EDGE('',*,*,#685,.T.);
#1024=ORIENTED_EDGE('',*,*,#677,.T.);
#1025=ORIENTED_EDGE('',*,*,#699,.T.);
#1026=ORIENTED_EDGE('',*,*,#683,.T.);
#1027=ORIENTED_EDGE('',*,*,#686,.T.);
#1028=ORIENTED_EDGE('',*,*,#763,.F.);
#1029=ORIENTED_EDGE('',*,*,#764,.F.);
#1030=ORIENTED_EDGE('',*,*,#765,.T.);
#1031=ORIENTED_EDGE('',*,*,#766,.T.);
#1032=ORIENTED_EDGE('',*,*,#765,.F.);
#1033=ORIENTED_EDGE('',*,*,#766,.F.);
#1034=ORIENTED_EDGE('',*,*,#767,.F.);
#1035=ORIENTED_EDGE('',*,*,#768,.T.);
#1036=ORIENTED_EDGE('',*,*,#769,.T.);
#1037=ORIENTED_EDGE('',*,*,#768,.F.);
#1038=ORIENTED_EDGE('',*,*,#769,.F.);
#1039=ORIENTED_EDGE('',*,*,#770,.F.);
#1040=ORIENTED_EDGE('',*,*,#771,.T.);
#1041=ORIENTED_EDGE('',*,*,#772,.T.);
#1042=ORIENTED_EDGE('',*,*,#771,.F.);
#1043=ORIENTED_EDGE('',*,*,#772,.F.);
#1044=ORIENTED_EDGE('',*,*,#773,.F.);
#1045=ORIENTED_EDGE('',*,*,#774,.T.);
#1046=ORIENTED_EDGE('',*,*,#775,.T.);
#1047=ORIENTED_EDGE('',*,*,#774,.F.);
#1048=ORIENTED_EDGE('',*,*,#775,.F.);
#1049=ORIENTED_EDGE('',*,*,#776,.T.);
#1050=ORIENTED_EDGE('',*,*,#777,.T.);
#1051=ORIENTED_EDGE('',*,*,#778,.T.);
#1052=ORIENTED_EDGE('',*,*,#779,.T.);
#1053=ORIENTED_EDGE('',*,*,#638,.T.);
#1054=ORIENTED_EDGE('',*,*,#642,.T.);
#1055=ORIENTED_EDGE('',*,*,#644,.T.);
#1056=ORIENTED_EDGE('',*,*,#647,.T.);
#1057=ORIENTED_EDGE('',*,*,#655,.T.);
#1058=ORIENTED_EDGE('',*,*,#661,.T.);
#1059=ORIENTED_EDGE('',*,*,#664,.T.);
#1060=ORIENTED_EDGE('',*,*,#715,.T.);
#1061=ORIENTED_EDGE('',*,*,#718,.T.);
#1062=ORIENTED_EDGE('',*,*,#741,.T.);
#1063=ORIENTED_EDGE('',*,*,#744,.T.);
#1064=ORIENTED_EDGE('',*,*,#746,.T.);
#1065=ORIENTED_EDGE('',*,*,#736,.T.);
#1066=ORIENTED_EDGE('',*,*,#761,.T.);
#1067=ORIENTED_EDGE('',*,*,#762,.T.);
#1068=ORIENTED_EDGE('',*,*,#780,.T.);
#1069=ORIENTED_EDGE('',*,*,#781,.T.);
#1070=ORIENTED_EDGE('',*,*,#782,.T.);
#1071=ORIENTED_EDGE('',*,*,#691,.F.);
#1072=ORIENTED_EDGE('',*,*,#783,.T.);
#1073=ORIENTED_EDGE('',*,*,#784,.T.);
#1074=ORIENTED_EDGE('',*,*,#783,.F.);
#1075=ORIENTED_EDGE('',*,*,#784,.F.);
#1076=ORIENTED_EDGE('',*,*,#785,.F.);
#1077=ORIENTED_EDGE('',*,*,#692,.F.);
#1078=ORIENTED_EDGE('',*,*,#786,.T.);
#1079=ORIENTED_EDGE('',*,*,#787,.T.);
#1080=ORIENTED_EDGE('',*,*,#786,.F.);
#1081=ORIENTED_EDGE('',*,*,#787,.F.);
#1082=ORIENTED_EDGE('',*,*,#788,.F.);
#1083=ORIENTED_EDGE('',*,*,#693,.F.);
#1084=ORIENTED_EDGE('',*,*,#789,.T.);
#1085=ORIENTED_EDGE('',*,*,#790,.T.);
#1086=ORIENTED_EDGE('',*,*,#789,.F.);
#1087=ORIENTED_EDGE('',*,*,#790,.F.);
#1088=ORIENTED_EDGE('',*,*,#791,.F.);
#1089=ORIENTED_EDGE('',*,*,#782,.F.);
#1090=ORIENTED_EDGE('',*,*,#792,.T.);
#1091=ORIENTED_EDGE('',*,*,#788,.T.);
#1092=ORIENTED_EDGE('',*,*,#792,.F.);
#1093=ORIENTED_EDGE('',*,*,#781,.F.);
#1094=ORIENTED_EDGE('',*,*,#793,.T.);
#1095=ORIENTED_EDGE('',*,*,#785,.T.);
#1096=ORIENTED_EDGE('',*,*,#793,.F.);
#1097=ORIENTED_EDGE('',*,*,#780,.F.);
#1098=ORIENTED_EDGE('',*,*,#794,.T.);
#1099=ORIENTED_EDGE('',*,*,#791,.T.);
#1100=ORIENTED_EDGE('',*,*,#794,.F.);
#1101=ORIENTED_EDGE('',*,*,#689,.T.);
#1102=ORIENTED_EDGE('',*,*,#795,.T.);
#1103=ORIENTED_EDGE('',*,*,#779,.F.);
#1104=ORIENTED_EDGE('',*,*,#796,.F.);
#1105=ORIENTED_EDGE('',*,*,#721,.T.);
#1106=ORIENTED_EDGE('',*,*,#724,.T.);
#1107=ORIENTED_EDGE('',*,*,#690,.T.);
#1108=ORIENTED_EDGE('',*,*,#796,.T.);
#1109=ORIENTED_EDGE('',*,*,#778,.F.);
#1110=ORIENTED_EDGE('',*,*,#797,.F.);
#1111=ORIENTED_EDGE('',*,*,#764,.T.);
#1112=ORIENTED_EDGE('',*,*,#767,.T.);
#1113=ORIENTED_EDGE('',*,*,#687,.T.);
#1114=ORIENTED_EDGE('',*,*,#797,.T.);
#1115=ORIENTED_EDGE('',*,*,#777,.F.);
#1116=ORIENTED_EDGE('',*,*,#798,.F.);
#1117=ORIENTED_EDGE('',*,*,#688,.T.);
#1118=ORIENTED_EDGE('',*,*,#798,.T.);
#1119=ORIENTED_EDGE('',*,*,#776,.F.);
#1120=ORIENTED_EDGE('',*,*,#795,.F.);
#1121=ORIENTED_EDGE('',*,*,#770,.T.);
#1122=ORIENTED_EDGE('',*,*,#773,.T.);
#1123=CYLINDRICAL_SURFACE('',#1245,1.);
#1124=CYLINDRICAL_SURFACE('',#1248,9.1);
#1125=CYLINDRICAL_SURFACE('',#1253,1.5);
#1126=CYLINDRICAL_SURFACE('',#1257,1.5);
#1127=CYLINDRICAL_SURFACE('',#1264,3.);
#1128=CYLINDRICAL_SURFACE('',#1266,2.);
#1129=CYLINDRICAL_SURFACE('',#1271,3.);
#1130=CYLINDRICAL_SURFACE('',#1273,2.);
#1131=CYLINDRICAL_SURFACE('',#1275,2.5);
#1132=CYLINDRICAL_SURFACE('',#1301,1.5);
#1133=CYLINDRICAL_SURFACE('',#1305,1.5);
#1134=CYLINDRICAL_SURFACE('',#1309,2.);
#1135=CYLINDRICAL_SURFACE('',#1316,1.75);
#1136=CYLINDRICAL_SURFACE('',#1319,1.5);
#1137=CYLINDRICAL_SURFACE('',#1322,1.5);
#1138=CYLINDRICAL_SURFACE('',#1325,1.5);
#1139=CYLINDRICAL_SURFACE('',#1331,0.499999999999998);
#1140=CYLINDRICAL_SURFACE('',#1335,0.999999999999996);
#1141=CYLINDRICAL_SURFACE('',#1337,1.00000000000001);
#1142=CYLINDRICAL_SURFACE('',#1340,1.00000000000001);
#1143=CYLINDRICAL_SURFACE('',#1343,0.999999999999996);
#1144=CYLINDRICAL_SURFACE('',#1346,0.499999999999998);
#1145=CYLINDRICAL_SURFACE('',#1349,8.50000000000001);
#1146=CYLINDRICAL_SURFACE('',#1350,1.5);
#1147=CYLINDRICAL_SURFACE('',#1354,1.5);
#1148=CYLINDRICAL_SURFACE('',#1358,1.5);
#1149=CYLINDRICAL_SURFACE('',#1362,1.5);
#1150=CYLINDRICAL_SURFACE('',#1370,5.);
#1151=CYLINDRICAL_SURFACE('',#1374,5.);
#1152=CYLINDRICAL_SURFACE('',#1378,5.);
#1153=CYLINDRICAL_SURFACE('',#1382,4.4);
#1154=CYLINDRICAL_SURFACE('',#1383,4.4);
#1155=CYLINDRICAL_SURFACE('',#1384,4.4);
#1156=ADVANCED_FACE('',(#91),#1123,.F.);
#1157=ADVANCED_FACE('',(#92),#1124,.F.);
#1158=ADVANCED_FACE('',(#93,#16),#50,.T.);
#1159=ADVANCED_FACE('',(#94),#1125,.F.);
#1160=ADVANCED_FACE('',(#95),#51,.F.);
#1161=ADVANCED_FACE('',(#96),#1126,.F.);
#1162=ADVANCED_FACE('',(#97),#52,.F.);
#1163=ADVANCED_FACE('',(#98,#17),#53,.F.);
#1164=ADVANCED_FACE('',(#99),#1127,.F.);
#1165=ADVANCED_FACE('',(#100),#1128,.F.);
#1166=ADVANCED_FACE('',(#101,#18),#54,.F.);
#1167=ADVANCED_FACE('',(#102),#1129,.F.);
#1168=ADVANCED_FACE('',(#103),#1130,.F.);
#1169=ADVANCED_FACE('',(#104),#1131,.F.);
#1170=ADVANCED_FACE('',(#105),#55,.F.);
#1171=ADVANCED_FACE('',(#106),#56,.F.);
#1172=ADVANCED_FACE('',(#107),#57,.F.);
#1173=ADVANCED_FACE('',(#108),#58,.F.);
#1174=ADVANCED_FACE('',(#109),#59,.F.);
#1175=ADVANCED_FACE('',(#110),#60,.F.);
#1176=ADVANCED_FACE('',(#111),#61,.T.);
#1177=ADVANCED_FACE('',(#112,#19,#20,#21,#22,#23,#24,#25,#26,#27),#62,.F.);
#1178=ADVANCED_FACE('',(#113),#63,.F.);
#1179=ADVANCED_FACE('',(#114),#1132,.F.);
#1180=ADVANCED_FACE('',(#115),#64,.F.);
#1181=ADVANCED_FACE('',(#116),#1133,.F.);
#1182=ADVANCED_FACE('',(#117),#65,.F.);
#1183=ADVANCED_FACE('',(#118),#1134,.F.);
#1184=ADVANCED_FACE('',(#119),#66,.F.);
#1185=ADVANCED_FACE('',(#120),#15,.F.);
#1186=ADVANCED_FACE('',(#121),#1135,.F.);
#1187=ADVANCED_FACE('',(#122),#67,.F.);
#1188=ADVANCED_FACE('',(#123),#1136,.F.);
#1189=ADVANCED_FACE('',(#124),#68,.F.);
#1190=ADVANCED_FACE('',(#125),#1137,.F.);
#1191=ADVANCED_FACE('',(#126),#69,.F.);
#1192=ADVANCED_FACE('',(#127),#1138,.F.);
#1193=ADVANCED_FACE('',(#128),#70,.F.);
#1194=ADVANCED_FACE('',(#129),#71,.F.);
#1195=ADVANCED_FACE('',(#130),#72,.F.);
#1196=ADVANCED_FACE('',(#131),#1139,.F.);
#1197=ADVANCED_FACE('',(#132),#73,.F.);
#1198=ADVANCED_FACE('',(#133),#74,.F.);
#1199=ADVANCED_FACE('',(#134),#1140,.F.);
#1200=ADVANCED_FACE('',(#135),#1141,.F.);
#1201=ADVANCED_FACE('',(#136),#75,.F.);
#1202=ADVANCED_FACE('',(#137),#1142,.F.);
#1203=ADVANCED_FACE('',(#138),#76,.F.);
#1204=ADVANCED_FACE('',(#139),#1143,.F.);
#1205=ADVANCED_FACE('',(#140),#77,.F.);
#1206=ADVANCED_FACE('',(#141),#1144,.F.);
#1207=ADVANCED_FACE('',(#142,#28),#78,.T.);
#1208=ADVANCED_FACE('',(#143),#1145,.F.);
#1209=ADVANCED_FACE('',(#144),#1146,.F.);
#1210=ADVANCED_FACE('',(#145),#79,.F.);
#1211=ADVANCED_FACE('',(#146),#1147,.F.);
#1212=ADVANCED_FACE('',(#147),#80,.F.);
#1213=ADVANCED_FACE('',(#148),#1148,.F.);
#1214=ADVANCED_FACE('',(#149),#81,.F.);
#1215=ADVANCED_FACE('',(#150),#1149,.F.);
#1216=ADVANCED_FACE('',(#151),#82,.F.);
#1217=ADVANCED_FACE('',(#152,#29,#30,#31,#32,#33,#34,#35,#36,#37,#38,#39,
#40),#83,.T.);
#1218=ADVANCED_FACE('',(#153),#1150,.F.);
#1219=ADVANCED_FACE('',(#154,#41),#84,.F.);
#1220=ADVANCED_FACE('',(#155),#1151,.F.);
#1221=ADVANCED_FACE('',(#156,#42),#85,.F.);
#1222=ADVANCED_FACE('',(#157),#1152,.F.);
#1223=ADVANCED_FACE('',(#158,#43),#86,.F.);
#1224=ADVANCED_FACE('',(#159),#1153,.F.);
#1225=ADVANCED_FACE('',(#160),#1154,.F.);
#1226=ADVANCED_FACE('',(#161),#1155,.F.);
#1227=ADVANCED_FACE('',(#162,#44,#45),#87,.T.);
#1228=ADVANCED_FACE('',(#163,#46,#47),#88,.T.);
#1229=ADVANCED_FACE('',(#164),#89,.T.);
#1230=ADVANCED_FACE('',(#165,#48,#49),#90,.T.);
#1231=CLOSED_SHELL('',(#1156,#1157,#1158,#1159,#1160,#1161,#1162,#1163,
#1164,#1165,#1166,#1167,#1168,#1169,#1170,#1171,#1172,#1173,#1174,#1175,
#1176,#1177,#1178,#1179,#1180,#1181,#1182,#1183,#1184,#1185,#1186,#1187,
#1188,#1189,#1190,#1191,#1192,#1193,#1194,#1195,#1196,#1197,#1198,#1199,
#1200,#1201,#1202,#1203,#1204,#1205,#1206,#1207,#1208,#1209,#1210,#1211,
#1212,#1213,#1214,#1215,#1216,#1217,#1218,#1219,#1220,#1221,#1222,#1223,
#1224,#1225,#1226,#1227,#1228,#1229,#1230));
#1232=DERIVED_UNIT_ELEMENT(#1234,1.);
#1233=DERIVED_UNIT_ELEMENT(#2122,-3.);
#1234=(
MASS_UNIT()
NAMED_UNIT(*)
SI_UNIT(.KILO.,.GRAM.)
);
#1235=DERIVED_UNIT((#1232,#1233));
#1236=MEASURE_REPRESENTATION_ITEM('density measure',
POSITIVE_RATIO_MEASURE(8490.),#1235);
#1237=PROPERTY_DEFINITION_REPRESENTATION(#1242,#1239);
#1238=PROPERTY_DEFINITION_REPRESENTATION(#1243,#1240);
#1239=REPRESENTATION('material name',(#1241),#2119);
#1240=REPRESENTATION('density',(#1236),#2119);
#1241=DESCRIPTIVE_REPRESENTATION_ITEM('\X2\9EC494DC\X0\','\X2\9EC494DC\X0\');
#1242=PROPERTY_DEFINITION('material property','material name',#2129);
#1243=PROPERTY_DEFINITION('material property','density of part',#2129);
#1244=AXIS2_PLACEMENT_3D('',#1772,#1389,#1390);
#1245=AXIS2_PLACEMENT_3D('',#1773,#1391,#1392);
#1246=AXIS2_PLACEMENT_3D('',#1778,#1394,#1395);
#1247=AXIS2_PLACEMENT_3D('',#1781,#1397,#1398);
#1248=AXIS2_PLACEMENT_3D('',#1782,#1399,#1400);
#1249=AXIS2_PLACEMENT_3D('',#1783,#1401,#1402);
#1250=AXIS2_PLACEMENT_3D('',#1784,#1403,#1404);
#1251=AXIS2_PLACEMENT_3D('',#1785,#1405,#1406);
#1252=AXIS2_PLACEMENT_3D('',#1787,#1407,#1408);
#1253=AXIS2_PLACEMENT_3D('',#1788,#1409,#1410);
#1254=AXIS2_PLACEMENT_3D('',#1790,#1411,#1412);
#1255=AXIS2_PLACEMENT_3D('',#1793,#1414,#1415);
#1256=AXIS2_PLACEMENT_3D('',#1794,#1416,#1417);
#1257=AXIS2_PLACEMENT_3D('',#1795,#1418,#1419);
#1258=AXIS2_PLACEMENT_3D('',#1797,#1420,#1421);
#1259=AXIS2_PLACEMENT_3D('',#1800,#1423,#1424);
#1260=AXIS2_PLACEMENT_3D('',#1801,#1425,#1426);
#1261=AXIS2_PLACEMENT_3D('',#1802,#1427,#1428);
#1262=AXIS2_PLACEMENT_3D('',#1804,#1429,#1430);
#1263=AXIS2_PLACEMENT_3D('',#1806,#1431,#1432);
#1264=AXIS2_PLACEMENT_3D('',#1807,#1433,#1434);
#1265=AXIS2_PLACEMENT_3D('',#1809,#1435,#1436);
#1266=AXIS2_PLACEMENT_3D('',#1811,#1438,#1439);
#1267=AXIS2_PLACEMENT_3D('',#1814,#1441,#1442);
#1268=AXIS2_PLACEMENT_3D('',#1815,#1443,#1444);
#1269=AXIS2_PLACEMENT_3D('',#1817,#1445,#1446);
#1270=AXIS2_PLACEMENT_3D('',#1819,#1447,#1448);
#1271=AXIS2_PLACEMENT_3D('',#1820,#1449,#1450);
#1272=AXIS2_PLACEMENT_3D('',#1822,#1451,#1452);
#1273=AXIS2_PLACEMENT_3D('',#1824,#1454,#1455);
#1274=AXIS2_PLACEMENT_3D('',#1827,#1457,#1458);
#1275=AXIS2_PLACEMENT_3D('',#1828,#1459,#1460);
#1276=AXIS2_PLACEMENT_3D('',#1830,#1461,#1462);
#1277=AXIS2_PLACEMENT_3D('',#1833,#1464,#1465);
#1278=AXIS2_PLACEMENT_3D('',#1834,#1466,#1467);
#1279=AXIS2_PLACEMENT_3D('',#1843,#1472,#1473);
#1280=AXIS2_PLACEMENT_3D('',#1849,#1477,#1478);
#1281=AXIS2_PLACEMENT_3D('',#1855,#1482,#1483);
#1282=AXIS2_PLACEMENT_3D('',#1857,#1485,#1486);
#1283=AXIS2_PLACEMENT_3D('',#1866,#1491,#1492);
#1284=AXIS2_PLACEMENT_3D('',#1875,#1497,#1498);
#1285=AXIS2_PLACEMENT_3D('',#1878,#1500,#1501);
#1286=AXIS2_PLACEMENT_3D('',#1879,#1502,#1503);
#1287=AXIS2_PLACEMENT_3D('',#1880,#1504,#1505);
#1288=AXIS2_PLACEMENT_3D('',#1890,#1510,#1511);
#1289=AXIS2_PLACEMENT_3D('',#1892,#1512,#1513);
#1290=AXIS2_PLACEMENT_3D('',#1894,#1514,#1515);
#1291=AXIS2_PLACEMENT_3D('',#1898,#1517,#1518);
#1292=AXIS2_PLACEMENT_3D('',#1902,#1520,#1521);
#1293=AXIS2_PLACEMENT_3D('',#1904,#1523,#1524);
#1294=AXIS2_PLACEMENT_3D('',#1908,#1526,#1527);
#1295=AXIS2_PLACEMENT_3D('',#1914,#1530,#1531);
#1296=AXIS2_PLACEMENT_3D('',#1918,#1533,#1534);
#1297=AXIS2_PLACEMENT_3D('',#1922,#1536,#1537);
#1298=AXIS2_PLACEMENT_3D('',#1925,#1539,#1540);
#1299=AXIS2_PLACEMENT_3D('',#1927,#1541,#1542);
#1300=AXIS2_PLACEMENT_3D('',#1928,#1543,#1544);
#1301=AXIS2_PLACEMENT_3D('',#1934,#1548,#1549);
#1302=AXIS2_PLACEMENT_3D('',#1936,#1550,#1551);
#1303=AXIS2_PLACEMENT_3D('',#1939,#1553,#1554);
#1304=AXIS2_PLACEMENT_3D('',#1940,#1555,#1556);
#1305=AXIS2_PLACEMENT_3D('',#1941,#1557,#1558);
#1306=AXIS2_PLACEMENT_3D('',#1943,#1559,#1560);
#1307=AXIS2_PLACEMENT_3D('',#1946,#1562,#1563);
#1308=AXIS2_PLACEMENT_3D('',#1947,#1564,#1565);
#1309=AXIS2_PLACEMENT_3D('',#1948,#1566,#1567);
#1310=AXIS2_PLACEMENT_3D('',#1950,#1568,#1569);
#1311=AXIS2_PLACEMENT_3D('',#1953,#1571,#1572);
#1312=AXIS2_PLACEMENT_3D('',#1954,#1573,#1574);
#1313=AXIS2_PLACEMENT_3D('',#1955,#1575,#1576);
#1314=AXIS2_PLACEMENT_3D('',#1957,#1577,#1578);
#1315=AXIS2_PLACEMENT_3D('',#1960,#1580,#1581);
#1316=AXIS2_PLACEMENT_3D('',#1961,#1582,#1583);
#1317=AXIS2_PLACEMENT_3D('',#1964,#1585,#1586);
#1318=AXIS2_PLACEMENT_3D('',#1965,#1587,#1588);
#1319=AXIS2_PLACEMENT_3D('',#1966,#1589,#1590);
#1320=AXIS2_PLACEMENT_3D('',#1969,#1592,#1593);
#1321=AXIS2_PLACEMENT_3D('',#1970,#1594,#1595);
#1322=AXIS2_PLACEMENT_3D('',#1971,#1596,#1597);
#1323=AXIS2_PLACEMENT_3D('',#1974,#1599,#1600);
#1324=AXIS2_PLACEMENT_3D('',#1975,#1601,#1602);
#1325=AXIS2_PLACEMENT_3D('',#1976,#1603,#1604);
#1326=AXIS2_PLACEMENT_3D('',#1978,#1605,#1606);
#1327=AXIS2_PLACEMENT_3D('',#1981,#1608,#1609);
#1328=AXIS2_PLACEMENT_3D('',#1982,#1610,#1611);
#1329=AXIS2_PLACEMENT_3D('',#1983,#1612,#1613);
#1330=AXIS2_PLACEMENT_3D('',#1992,#1618,#1619);
#1331=AXIS2_PLACEMENT_3D('',#1998,#1623,#1624);
#1332=AXIS2_PLACEMENT_3D('',#2001,#1626,#1627);
#1333=AXIS2_PLACEMENT_3D('',#2002,#1628,#1629);
#1334=AXIS2_PLACEMENT_3D('',#2005,#1632,#1633);
#1335=AXIS2_PLACEMENT_3D('',#2009,#1636,#1637);
#1336=AXIS2_PLACEMENT_3D('',#2010,#1638,#1639);
#1337=AXIS2_PLACEMENT_3D('',#2011,#1640,#1641);
#1338=AXIS2_PLACEMENT_3D('',#2014,#1643,#1644);
#1339=AXIS2_PLACEMENT_3D('',#2015,#1645,#1646);
#1340=AXIS2_PLACEMENT_3D('',#2019,#1649,#1650);
#1341=AXIS2_PLACEMENT_3D('',#2022,#1652,#1653);
#1342=AXIS2_PLACEMENT_3D('',#2023,#1654,#1655);
#1343=AXIS2_PLACEMENT_3D('',#2027,#1658,#1659);
#1344=AXIS2_PLACEMENT_3D('',#2029,#1661,#1662);
#1345=AXIS2_PLACEMENT_3D('',#2030,#1663,#1664);
#1346=AXIS2_PLACEMENT_3D('',#2034,#1667,#1668);
#1347=AXIS2_PLACEMENT_3D('',#2035,#1669,#1670);
#1348=AXIS2_PLACEMENT_3D('',#2036,#1671,#1672);
#1349=AXIS2_PLACEMENT_3D('',#2037,#1673,#1674);
#1350=AXIS2_PLACEMENT_3D('',#2039,#1676,#1677);
#1351=AXIS2_PLACEMENT_3D('',#2041,#1678,#1679);
#1352=AXIS2_PLACEMENT_3D('',#2044,#1681,#1682);
#1353=AXIS2_PLACEMENT_3D('',#2045,#1683,#1684);
#1354=AXIS2_PLACEMENT_3D('',#2046,#1685,#1686);
#1355=AXIS2_PLACEMENT_3D('',#2048,#1687,#1688);
#1356=AXIS2_PLACEMENT_3D('',#2051,#1690,#1691);
#1357=AXIS2_PLACEMENT_3D('',#2052,#1692,#1693);
#1358=AXIS2_PLACEMENT_3D('',#2053,#1694,#1695);
#1359=AXIS2_PLACEMENT_3D('',#2055,#1696,#1697);
#1360=AXIS2_PLACEMENT_3D('',#2058,#1699,#1700);
#1361=AXIS2_PLACEMENT_3D('',#2059,#1701,#1702);
#1362=AXIS2_PLACEMENT_3D('',#2060,#1703,#1704);
#1363=AXIS2_PLACEMENT_3D('',#2062,#1705,#1706);
#1364=AXIS2_PLACEMENT_3D('',#2065,#1708,#1709);
#1365=AXIS2_PLACEMENT_3D('',#2066,#1710,#1711);
#1366=AXIS2_PLACEMENT_3D('',#2067,#1712,#1713);
#1367=AXIS2_PLACEMENT_3D('',#2077,#1718,#1719);
#1368=AXIS2_PLACEMENT_3D('',#2079,#1720,#1721);
#1369=AXIS2_PLACEMENT_3D('',#2081,#1722,#1723);
#1370=AXIS2_PLACEMENT_3D('',#2082,#1724,#1725);
#1371=AXIS2_PLACEMENT_3D('',#2085,#1727,#1728);
#1372=AXIS2_PLACEMENT_3D('',#2086,#1729,#1730);
#1373=AXIS2_PLACEMENT_3D('',#2088,#1731,#1732);
#1374=AXIS2_PLACEMENT_3D('',#2089,#1733,#1734);
#1375=AXIS2_PLACEMENT_3D('',#2092,#1736,#1737);
#1376=AXIS2_PLACEMENT_3D('',#2093,#1738,#1739);
#1377=AXIS2_PLACEMENT_3D('',#2095,#1740,#1741);
#1378=AXIS2_PLACEMENT_3D('',#2096,#1742,#1743);
#1379=AXIS2_PLACEMENT_3D('',#2099,#1745,#1746);
#1380=AXIS2_PLACEMENT_3D('',#2100,#1747,#1748);
#1381=AXIS2_PLACEMENT_3D('',#2102,#1749,#1750);
#1382=AXIS2_PLACEMENT_3D('',#2103,#1751,#1752);
#1383=AXIS2_PLACEMENT_3D('',#2105,#1754,#1755);
#1384=AXIS2_PLACEMENT_3D('',#2107,#1757,#1758);
#1385=AXIS2_PLACEMENT_3D('',#2109,#1760,#1761);
#1386=AXIS2_PLACEMENT_3D('',#2112,#1764,#1765);
#1387=AXIS2_PLACEMENT_3D('',#2114,#1767,#1768);
#1388=AXIS2_PLACEMENT_3D('',#2116,#1770,#1771);
#1389=DIRECTION('axis',(0.,0.,1.));
#1390=DIRECTION('refdir',(1.,0.,0.));
#1391=DIRECTION('center_axis',(0.,-1.,0.));
#1392=DIRECTION('ref_axis',(1.22464679914735E-16,0.,-1.));
#1393=DIRECTION('',(0.,-1.,0.));
#1394=DIRECTION('center_axis',(0.,-1.,0.));
#1395=DIRECTION('ref_axis',(0.,0.,1.));
#1396=DIRECTION('',(0.,1.,0.));
#1397=DIRECTION('center_axis',(0.,-1.,0.));
#1398=DIRECTION('ref_axis',(0.,0.,1.));
#1399=DIRECTION('center_axis',(0.,1.,0.));
#1400=DIRECTION('ref_axis',(6.12323399573677E-17,0.,1.));
#1401=DIRECTION('center_axis',(0.,-1.,0.));
#1402=DIRECTION('ref_axis',(1.,0.,0.));
#1403=DIRECTION('center_axis',(0.,-1.,0.));
#1404=DIRECTION('ref_axis',(1.,0.,0.));
#1405=DIRECTION('center_axis',(0.,1.,0.));
#1406=DIRECTION('ref_axis',(1.,0.,0.));
#1407=DIRECTION('center_axis',(0.,-1.,0.));
#1408=DIRECTION('ref_axis',(1.,0.,0.));
#1409=DIRECTION('center_axis',(0.,-1.,0.));
#1410=DIRECTION('ref_axis',(0.,0.,1.));
#1411=DIRECTION('center_axis',(0.,-1.,0.));
#1412=DIRECTION('ref_axis',(0.,0.,1.));
#1413=DIRECTION('',(0.,-1.,0.));
#1414=DIRECTION('center_axis',(0.,-1.,0.));
#1415=DIRECTION('ref_axis',(0.,0.,1.));
#1416=DIRECTION('center_axis',(0.,-1.,0.));
#1417=DIRECTION('ref_axis',(0.,0.,1.));
#1418=DIRECTION('center_axis',(0.,-1.,0.));
#1419=DIRECTION('ref_axis',(0.,0.,1.));
#1420=DIRECTION('center_axis',(0.,-1.,0.));
#1421=DIRECTION('ref_axis',(0.,0.,1.));
#1422=DIRECTION('',(0.,-1.,0.));
#1423=DIRECTION('center_axis',(0.,-1.,0.));
#1424=DIRECTION('ref_axis',(0.,0.,1.));
#1425=DIRECTION('center_axis',(0.,-1.,0.));
#1426=DIRECTION('ref_axis',(0.,0.,1.));
#1427=DIRECTION('center_axis',(0.,1.,0.));
#1428=DIRECTION('ref_axis',(0.,0.,-1.));
#1429=DIRECTION('center_axis',(0.,1.,0.));
#1430=DIRECTION('ref_axis',(0.,0.,-1.));
#1431=DIRECTION('center_axis',(0.,1.,0.));
#1432=DIRECTION('ref_axis',(0.,0.,-1.));
#1433=DIRECTION('center_axis',(0.,1.,0.));
#1434=DIRECTION('ref_axis',(0.,0.,-1.));
#1435=DIRECTION('center_axis',(0.,1.,0.));
#1436=DIRECTION('ref_axis',(0.,0.,-1.));
#1437=DIRECTION('',(0.,1.,0.));
#1438=DIRECTION('center_axis',(0.,1.,0.));
#1439=DIRECTION('ref_axis',(0.,0.,-1.));
#1440=DIRECTION('',(0.,1.,0.));
#1441=DIRECTION('center_axis',(0.,-1.,0.));
#1442=DIRECTION('ref_axis',(0.,0.,-1.));
#1443=DIRECTION('center_axis',(0.,1.,0.));
#1444=DIRECTION('ref_axis',(0.,0.,-1.));
#1445=DIRECTION('center_axis',(0.,1.,0.));
#1446=DIRECTION('ref_axis',(0.,0.,-1.));
#1447=DIRECTION('center_axis',(0.,1.,0.));
#1448=DIRECTION('ref_axis',(0.,0.,-1.));
#1449=DIRECTION('center_axis',(0.,1.,0.));
#1450=DIRECTION('ref_axis',(0.,0.,-1.));
#1451=DIRECTION('center_axis',(0.,1.,0.));
#1452=DIRECTION('ref_axis',(0.,0.,-1.));
#1453=DIRECTION('',(0.,1.,0.));
#1454=DIRECTION('center_axis',(0.,1.,0.));
#1455=DIRECTION('ref_axis',(0.,0.,-1.));
#1456=DIRECTION('',(0.,1.,0.));
#1457=DIRECTION('center_axis',(0.,-1.,0.));
#1458=DIRECTION('ref_axis',(0.,0.,-1.));
#1459=DIRECTION('center_axis',(0.,1.,0.));
#1460=DIRECTION('ref_axis',(1.,0.,0.));
#1461=DIRECTION('center_axis',(0.,1.,0.));
#1462=DIRECTION('ref_axis',(1.,0.,0.));
#1463=DIRECTION('',(0.,1.,0.));
#1464=DIRECTION('center_axis',(0.,-1.,0.));
#1465=DIRECTION('ref_axis',(1.,0.,0.));
#1466=DIRECTION('center_axis',(0.,0.,1.));
#1467=DIRECTION('ref_axis',(1.,0.,0.));
#1468=DIRECTION('',(1.,0.,0.));
#1469=DIRECTION('',(0.,1.,0.));
#1470=DIRECTION('',(1.,0.,0.));
#1471=DIRECTION('',(0.,1.,0.));
#1472=DIRECTION('center_axis',(-1.,0.,0.));
#1473=DIRECTION('ref_axis',(0.,0.,1.));
#1474=DIRECTION('',(0.,0.,1.));
#1475=DIRECTION('',(0.,1.,0.));
#1476=DIRECTION('',(0.,0.,1.));
#1477=DIRECTION('center_axis',(0.,0.,-1.));
#1478=DIRECTION('ref_axis',(-1.,0.,0.));
#1479=DIRECTION('',(-1.,0.,0.));
#1480=DIRECTION('',(0.,-1.,0.));
#1481=DIRECTION('',(-1.,0.,0.));
#1482=DIRECTION('center_axis',(0.,1.,0.));
#1483=DIRECTION('ref_axis',(0.,0.,1.));
#1484=DIRECTION('',(-2.40377726269665E-16,0.,-1.));
#1485=DIRECTION('center_axis',(0.,0.,-1.));
#1486=DIRECTION('ref_axis',(-1.,0.,0.));
#1487=DIRECTION('',(-1.,0.,0.));
#1488=DIRECTION('',(0.,-1.,0.));
#1489=DIRECTION('',(-1.,0.,0.));
#1490=DIRECTION('',(0.,1.,0.));
#1491=DIRECTION('center_axis',(0.,0.,1.));
#1492=DIRECTION('ref_axis',(1.,0.,0.));
#1493=DIRECTION('',(1.,0.,0.));
#1494=DIRECTION('',(0.,-1.,0.));
#1495=DIRECTION('',(1.,0.,0.));
#1496=DIRECTION('',(0.,1.,0.));
#1497=DIRECTION('center_axis',(0.,-1.,0.));
#1498=DIRECTION('ref_axis',(1.,0.,0.));
#1499=DIRECTION('',(-2.40377726269665E-16,0.,1.));
#1500=DIRECTION('center_axis',(0.,-1.,0.));
#1501=DIRECTION('ref_axis',(1.,0.,0.));
#1502=DIRECTION('center_axis',(0.,-1.,0.));
#1503=DIRECTION('ref_axis',(1.,0.,0.));
#1504=DIRECTION('center_axis',(0.,1.,0.));
#1505=DIRECTION('ref_axis',(1.,0.,0.));
#1506=DIRECTION('',(1.,0.,0.));
#1507=DIRECTION('',(0.,0.,1.));
#1508=DIRECTION('',(-1.,0.,0.));
#1509=DIRECTION('',(0.,0.,-1.));
#1510=DIRECTION('center_axis',(0.,1.,0.));
#1511=DIRECTION('ref_axis',(1.,0.,0.));
#1512=DIRECTION('center_axis',(0.,1.,0.));
#1513=DIRECTION('ref_axis',(1.,0.,0.));
#1514=DIRECTION('center_axis',(0.,1.,0.));
#1515=DIRECTION('ref_axis',(1.,0.,0.));
#1516=DIRECTION('',(2.40377726269665E-16,0.,1.));
#1517=DIRECTION('center_axis',(0.,1.,0.));
#1518=DIRECTION('ref_axis',(-8.8817841970012E-15,0.,1.));
#1519=DIRECTION('',(1.,0.,0.));
#1520=DIRECTION('center_axis',(0.,1.,0.));
#1521=DIRECTION('ref_axis',(1.,0.,4.4408920985006E-15));
#1522=DIRECTION('',(2.40377726269665E-16,0.,-1.));
#1523=DIRECTION('center_axis',(0.,-1.,0.));
#1524=DIRECTION('ref_axis',(1.,0.,0.));
#1525=DIRECTION('',(2.40377726269665E-16,0.,-1.));
#1526=DIRECTION('center_axis',(0.,1.,0.));
#1527=DIRECTION('ref_axis',(-4.44089209850064E-15,0.,-1.));
#1528=DIRECTION('',(-1.,0.,0.));
#1529=DIRECTION('',(0.,0.,-1.));
#1530=DIRECTION('center_axis',(0.,1.,0.));
#1531=DIRECTION('ref_axis',(0.,0.,-1.));
#1532=DIRECTION('',(-1.,0.,0.));
#1533=DIRECTION('center_axis',(0.,1.,0.));
#1534=DIRECTION('ref_axis',(-1.,0.,0.));
#1535=DIRECTION('',(0.,0.,1.));
#1536=DIRECTION('center_axis',(0.,1.,0.));
#1537=DIRECTION('ref_axis',(-1.,0.,0.));
#1538=DIRECTION('',(2.40377726269665E-16,0.,1.));
#1539=DIRECTION('center_axis',(0.,1.,0.));
#1540=DIRECTION('ref_axis',(0.,0.,-1.));
#1541=DIRECTION('center_axis',(0.,1.,0.));
#1542=DIRECTION('ref_axis',(0.,0.,-1.));
#1543=DIRECTION('center_axis',(1.,0.,2.40377726269665E-16));
#1544=DIRECTION('ref_axis',(2.40377726269665E-16,0.,-1.));
#1545=DIRECTION('',(0.,1.,0.));
#1546=DIRECTION('',(2.40377726269665E-16,0.,-1.));
#1547=DIRECTION('',(0.,1.,0.));
#1548=DIRECTION('center_axis',(0.,-1.,0.));
#1549=DIRECTION('ref_axis',(0.,0.,1.));
#1550=DIRECTION('center_axis',(0.,-1.,0.));
#1551=DIRECTION('ref_axis',(0.,0.,1.));
#1552=DIRECTION('',(0.,-1.,0.));
#1553=DIRECTION('center_axis',(0.,-1.,0.));
#1554=DIRECTION('ref_axis',(0.,0.,1.));
#1555=DIRECTION('center_axis',(0.,-1.,0.));
#1556=DIRECTION('ref_axis',(0.,0.,1.));
#1557=DIRECTION('center_axis',(0.,-1.,0.));
#1558=DIRECTION('ref_axis',(0.,0.,1.));
#1559=DIRECTION('center_axis',(0.,-1.,0.));
#1560=DIRECTION('ref_axis',(0.,0.,1.));
#1561=DIRECTION('',(0.,-1.,0.));
#1562=DIRECTION('center_axis',(0.,-1.,0.));
#1563=DIRECTION('ref_axis',(0.,0.,1.));
#1564=DIRECTION('center_axis',(0.,-1.,0.));
#1565=DIRECTION('ref_axis',(0.,0.,1.));
#1566=DIRECTION('center_axis',(0.,0.,1.));
#1567=DIRECTION('ref_axis',(-1.,0.,0.));
#1568=DIRECTION('center_axis',(0.,0.,1.));
#1569=DIRECTION('ref_axis',(-1.,0.,0.));
#1570=DIRECTION('',(0.,0.,1.));
#1571=DIRECTION('center_axis',(0.,0.,1.));
#1572=DIRECTION('ref_axis',(-1.,0.,0.));
#1573=DIRECTION('center_axis',(0.,0.,1.));
#1574=DIRECTION('ref_axis',(-1.,0.,0.));
#1575=DIRECTION('center_axis',(0.,0.,-1.));
#1576=DIRECTION('ref_axis',(-1.,0.,0.));
#1577=DIRECTION('center_axis',(0.,0.,1.));
#1578=DIRECTION('ref_axis',(-1.,0.,0.));
#1579=DIRECTION('',(-0.707106781186547,-8.65956056235493E-17,0.707106781186548));
#1580=DIRECTION('center_axis',(0.,0.,1.));
#1581=DIRECTION('ref_axis',(-1.,0.,0.));
#1582=DIRECTION('center_axis',(0.,0.,1.));
#1583=DIRECTION('ref_axis',(-1.,0.,0.));
#1584=DIRECTION('',(0.,0.,1.));
#1585=DIRECTION('center_axis',(0.,0.,1.));
#1586=DIRECTION('ref_axis',(-1.,0.,0.));
#1587=DIRECTION('center_axis',(0.,0.,1.));
#1588=DIRECTION('ref_axis',(-1.,0.,0.));
#1589=DIRECTION('center_axis',(0.,1.,0.));
#1590=DIRECTION('ref_axis',(0.,0.,-1.));
#1591=DIRECTION('',(0.,1.,0.));
#1592=DIRECTION('center_axis',(0.,1.,0.));
#1593=DIRECTION('ref_axis',(0.,0.,-1.));
#1594=DIRECTION('center_axis',(0.,1.,0.));
#1595=DIRECTION('ref_axis',(0.,0.,-1.));
#1596=DIRECTION('center_axis',(0.,1.,0.));
#1597=DIRECTION('ref_axis',(0.,0.,-1.));
#1598=DIRECTION('',(0.,1.,0.));
#1599=DIRECTION('center_axis',(0.,1.,0.));
#1600=DIRECTION('ref_axis',(0.,0.,-1.));
#1601=DIRECTION('center_axis',(0.,1.,0.));
#1602=DIRECTION('ref_axis',(0.,0.,-1.));
#1603=DIRECTION('center_axis',(0.,1.,0.));
#1604=DIRECTION('ref_axis',(0.,0.,-1.));
#1605=DIRECTION('center_axis',(0.,1.,0.));
#1606=DIRECTION('ref_axis',(0.,0.,-1.));
#1607=DIRECTION('',(0.,1.,0.));
#1608=DIRECTION('center_axis',(0.,1.,0.));
#1609=DIRECTION('ref_axis',(0.,0.,-1.));
#1610=DIRECTION('center_axis',(0.,1.,0.));
#1611=DIRECTION('ref_axis',(0.,0.,-1.));
#1612=DIRECTION('center_axis',(0.,0.,1.));
#1613=DIRECTION('ref_axis',(1.,0.,0.));
#1614=DIRECTION('',(-1.,0.,0.));
#1615=DIRECTION('',(0.,1.,0.));
#1616=DIRECTION('',(1.,0.,0.));
#1617=DIRECTION('',(0.,1.,0.));
#1618=DIRECTION('center_axis',(0.,0.,-1.));
#1619=DIRECTION('ref_axis',(-1.,0.,0.));
#1620=DIRECTION('',(0.,1.,0.));
#1621=DIRECTION('',(1.,0.,0.));
#1622=DIRECTION('',(0.,1.,0.));
#1623=DIRECTION('center_axis',(0.,1.,0.));
#1624=DIRECTION('ref_axis',(0.,0.,-1.));
#1625=DIRECTION('',(0.,1.,0.));
#1626=DIRECTION('center_axis',(0.,-1.,0.));
#1627=DIRECTION('ref_axis',(0.,0.,-1.));
#1628=DIRECTION('center_axis',(1.,0.,0.));
#1629=DIRECTION('ref_axis',(0.,0.,-1.));
#1630=DIRECTION('',(0.,1.,0.));
#1631=DIRECTION('',(0.,0.,1.));
#1632=DIRECTION('center_axis',(0.,0.,-1.));
#1633=DIRECTION('ref_axis',(-1.,0.,0.));
#1634=DIRECTION('',(0.,1.,0.));
#1635=DIRECTION('',(-1.,0.,0.));
#1636=DIRECTION('center_axis',(0.,1.,0.));
#1637=DIRECTION('ref_axis',(-4.44089209850064E-15,0.,-1.));
#1638=DIRECTION('center_axis',(0.,1.,0.));
#1639=DIRECTION('ref_axis',(-4.44089209850064E-15,0.,-1.));
#1640=DIRECTION('center_axis',(0.,1.,0.));
#1641=DIRECTION('ref_axis',(1.,0.,4.4408920985006E-15));
#1642=DIRECTION('',(0.,1.,0.));
#1643=DIRECTION('center_axis',(0.,1.,0.));
#1644=DIRECTION('ref_axis',(1.,0.,4.4408920985006E-15));
#1645=DIRECTION('center_axis',(0.,0.,1.));
#1646=DIRECTION('ref_axis',(1.,0.,0.));
#1647=DIRECTION('',(0.,1.,0.));
#1648=DIRECTION('',(1.,0.,0.));
#1649=DIRECTION('center_axis',(0.,1.,0.));
#1650=DIRECTION('ref_axis',(-8.8817841970012E-15,0.,1.));
#1651=DIRECTION('',(0.,1.,0.));
#1652=DIRECTION('center_axis',(0.,1.,0.));
#1653=DIRECTION('ref_axis',(-8.8817841970012E-15,0.,1.));
#1654=DIRECTION('center_axis',(-1.,0.,2.40377726269665E-16));
#1655=DIRECTION('ref_axis',(2.40377726269665E-16,0.,1.));
#1656=DIRECTION('',(0.,1.,0.));
#1657=DIRECTION('',(2.40377726269665E-16,0.,1.));
#1658=DIRECTION('center_axis',(0.,1.,0.));
#1659=DIRECTION('ref_axis',(-1.,0.,0.));
#1660=DIRECTION('',(0.,1.,0.));
#1661=DIRECTION('center_axis',(0.,1.,0.));
#1662=DIRECTION('ref_axis',(-1.,0.,0.));
#1663=DIRECTION('center_axis',(-1.,0.,0.));
#1664=DIRECTION('ref_axis',(0.,0.,1.));
#1665=DIRECTION('',(0.,1.,0.));
#1666=DIRECTION('',(0.,0.,-1.));
#1667=DIRECTION('center_axis',(0.,1.,0.));
#1668=DIRECTION('ref_axis',(-1.,0.,0.));
#1669=DIRECTION('center_axis',(0.,-1.,0.));
#1670=DIRECTION('ref_axis',(-1.,0.,0.));
#1671=DIRECTION('center_axis',(0.,-1.,0.));
#1672=DIRECTION('ref_axis',(1.,0.,0.));
#1673=DIRECTION('center_axis',(0.,1.,0.));
#1674=DIRECTION('ref_axis',(1.,0.,0.));
#1675=DIRECTION('',(0.,-1.,0.));
#1676=DIRECTION('center_axis',(-1.,0.,0.));
#1677=DIRECTION('ref_axis',(0.,1.,0.));
#1678=DIRECTION('center_axis',(-1.,0.,0.));
#1679=DIRECTION('ref_axis',(0.,1.,0.));
#1680=DIRECTION('',(-1.,0.,0.));
#1681=DIRECTION('center_axis',(-1.,0.,0.));
#1682=DIRECTION('ref_axis',(0.,1.,0.));
#1683=DIRECTION('center_axis',(-1.,0.,0.));
#1684=DIRECTION('ref_axis',(0.,1.,0.));
#1685=DIRECTION('center_axis',(-1.,0.,0.));
#1686=DIRECTION('ref_axis',(0.,1.,0.));
#1687=DIRECTION('center_axis',(-1.,0.,0.));
#1688=DIRECTION('ref_axis',(0.,1.,0.));
#1689=DIRECTION('',(-1.,0.,0.));
#1690=DIRECTION('center_axis',(-1.,0.,0.));
#1691=DIRECTION('ref_axis',(0.,1.,0.));
#1692=DIRECTION('center_axis',(-1.,0.,0.));
#1693=DIRECTION('ref_axis',(0.,1.,0.));
#1694=DIRECTION('center_axis',(1.,0.,0.));
#1695=DIRECTION('ref_axis',(0.,-1.,0.));
#1696=DIRECTION('center_axis',(1.,0.,0.));
#1697=DIRECTION('ref_axis',(0.,-1.,0.));
#1698=DIRECTION('',(1.,0.,0.));
#1699=DIRECTION('center_axis',(1.,0.,0.));
#1700=DIRECTION('ref_axis',(0.,-1.,0.));
#1701=DIRECTION('center_axis',(1.,0.,0.));
#1702=DIRECTION('ref_axis',(0.,-1.,0.));
#1703=DIRECTION('center_axis',(1.,0.,0.));
#1704=DIRECTION('ref_axis',(0.,-1.,0.));
#1705=DIRECTION('center_axis',(1.,0.,0.));
#1706=DIRECTION('ref_axis',(0.,-1.,0.));
#1707=DIRECTION('',(1.,0.,0.));
#1708=DIRECTION('center_axis',(1.,0.,0.));
#1709=DIRECTION('ref_axis',(0.,-1.,0.));
#1710=DIRECTION('center_axis',(1.,0.,0.));
#1711=DIRECTION('ref_axis',(0.,-1.,0.));
#1712=DIRECTION('center_axis',(0.,1.,0.));
#1713=DIRECTION('ref_axis',(1.,0.,0.));
#1714=DIRECTION('',(0.,0.,1.));
#1715=DIRECTION('',(1.,0.,0.));
#1716=DIRECTION('',(0.,0.,-1.));
#1717=DIRECTION('',(-1.,0.,0.));
#1718=DIRECTION('center_axis',(0.,-1.,0.));
#1719=DIRECTION('ref_axis',(1.,0.,0.));
#1720=DIRECTION('center_axis',(0.,-1.,0.));
#1721=DIRECTION('ref_axis',(1.,0.,0.));
#1722=DIRECTION('center_axis',(0.,-1.,0.));
#1723=DIRECTION('ref_axis',(1.,0.,0.));
#1724=DIRECTION('center_axis',(0.,1.,0.));
#1725=DIRECTION('ref_axis',(1.,0.,0.));
#1726=DIRECTION('',(0.,1.,0.));
#1727=DIRECTION('center_axis',(0.,1.,0.));
#1728=DIRECTION('ref_axis',(1.,0.,0.));
#1729=DIRECTION('center_axis',(0.,1.,0.));
#1730=DIRECTION('ref_axis',(1.,0.,0.));
#1731=DIRECTION('center_axis',(0.,-1.,0.));
#1732=DIRECTION('ref_axis',(1.,0.,0.));
#1733=DIRECTION('center_axis',(0.,1.,0.));
#1734=DIRECTION('ref_axis',(1.,0.,0.));
#1735=DIRECTION('',(0.,1.,0.));
#1736=DIRECTION('center_axis',(0.,1.,0.));
#1737=DIRECTION('ref_axis',(1.,0.,0.));
#1738=DIRECTION('center_axis',(0.,1.,0.));
#1739=DIRECTION('ref_axis',(1.,0.,0.));
#1740=DIRECTION('center_axis',(0.,-1.,0.));
#1741=DIRECTION('ref_axis',(1.,0.,0.));
#1742=DIRECTION('center_axis',(0.,1.,0.));
#1743=DIRECTION('ref_axis',(1.,0.,0.));
#1744=DIRECTION('',(0.,1.,0.));
#1745=DIRECTION('center_axis',(0.,1.,0.));
#1746=DIRECTION('ref_axis',(1.,0.,0.));
#1747=DIRECTION('center_axis',(0.,1.,0.));
#1748=DIRECTION('ref_axis',(1.,0.,0.));
#1749=DIRECTION('center_axis',(0.,-1.,0.));
#1750=DIRECTION('ref_axis',(1.,0.,0.));
#1751=DIRECTION('center_axis',(0.,1.,0.));
#1752=DIRECTION('ref_axis',(1.,0.,0.));
#1753=DIRECTION('',(0.,-1.,0.));
#1754=DIRECTION('center_axis',(0.,1.,0.));
#1755=DIRECTION('ref_axis',(1.,0.,0.));
#1756=DIRECTION('',(0.,-1.,0.));
#1757=DIRECTION('center_axis',(0.,1.,0.));
#1758=DIRECTION('ref_axis',(1.,0.,0.));
#1759=DIRECTION('',(0.,-1.,0.));
#1760=DIRECTION('center_axis',(0.,0.,-1.));
#1761=DIRECTION('ref_axis',(-1.,0.,0.));
#1762=DIRECTION('',(0.,1.,0.));
#1763=DIRECTION('',(0.,1.,0.));
#1764=DIRECTION('center_axis',(1.,0.,0.));
#1765=DIRECTION('ref_axis',(0.,0.,-1.));
#1766=DIRECTION('',(0.,1.,0.));
#1767=DIRECTION('center_axis',(0.,0.,1.));
#1768=DIRECTION('ref_axis',(1.,0.,0.));
#1769=DIRECTION('',(0.,1.,0.));
#1770=DIRECTION('center_axis',(-1.,0.,0.));
#1771=DIRECTION('ref_axis',(0.,0.,1.));
#1772=CARTESIAN_POINT('',(0.,0.,0.));
#1773=CARTESIAN_POINT('Origin',(49.4930638098027,7.75,-45.6722134835344));
#1774=CARTESIAN_POINT('',(50.492050796705,8.5,-45.7172134835344));
#1775=CARTESIAN_POINT('',(50.492050796705,7.,-45.7172134835344));
#1776=CARTESIAN_POINT('',(50.492050796705,7.75,-45.7172134835344));
#1777=CARTESIAN_POINT('',(48.4940768229005,8.5,-45.7172134835344));
#1778=CARTESIAN_POINT('Origin',(49.4930638098027,8.5,-45.6722134835344));
#1779=CARTESIAN_POINT('',(48.4940768229005,7.,-45.7172134835344));
#1780=CARTESIAN_POINT('',(48.4940768229005,7.75,-45.7172134835344));
#1781=CARTESIAN_POINT('Origin',(49.4930638098027,7.,-45.6722134835344));
#1782=CARTESIAN_POINT('Origin',(49.4930638098027,0.,-36.6722134835344));
#1783=CARTESIAN_POINT('Origin',(49.4930638098027,7.,-36.6722134835344));
#1784=CARTESIAN_POINT('Origin',(49.4930638098027,8.5,-36.6722134835344));
#1785=CARTESIAN_POINT('Origin',(49.4930638098027,7.,-36.6722134835344));
#1786=CARTESIAN_POINT('',(40.9930638098027,7.,-36.6722134835344));
#1787=CARTESIAN_POINT('Origin',(49.4930638098027,7.,-36.6722134835344));
#1788=CARTESIAN_POINT('Origin',(58.4930638098027,6.,-45.6722134835344));
#1789=CARTESIAN_POINT('',(58.4930638098027,8.5,-47.1722134835344));
#1790=CARTESIAN_POINT('Origin',(58.4930638098027,8.5,-45.6722134835344));
#1791=CARTESIAN_POINT('',(58.4930638098027,3.5,-47.1722134835344));
#1792=CARTESIAN_POINT('',(58.4930638098027,6.,-47.1722134835344));
#1793=CARTESIAN_POINT('Origin',(58.4930638098027,3.5,-45.6722134835344));
#1794=CARTESIAN_POINT('Origin',(58.4930638098027,3.5,-45.6722134835344));
#1795=CARTESIAN_POINT('Origin',(40.4930638098027,6.,-27.6722134835344));
#1796=CARTESIAN_POINT('',(40.4930638098027,8.5,-29.1722134835344));
#1797=CARTESIAN_POINT('Origin',(40.4930638098027,8.5,-27.6722134835344));
#1798=CARTESIAN_POINT('',(40.4930638098027,3.5,-29.1722134835344));
#1799=CARTESIAN_POINT('',(40.4930638098027,6.,-29.1722134835344));
#1800=CARTESIAN_POINT('Origin',(40.4930638098027,3.5,-27.6722134835344));
#1801=CARTESIAN_POINT('Origin',(40.4930638098027,3.5,-27.6722134835344));
#1802=CARTESIAN_POINT('Origin',(19.4930638098027,3.,-51.6722134835344));
#1803=CARTESIAN_POINT('',(19.4930638098027,3.,-48.6722134835344));
#1804=CARTESIAN_POINT('Origin',(19.4930638098027,3.,-51.6722134835344));
#1805=CARTESIAN_POINT('',(19.4930638098027,3.,-49.6722134835344));
#1806=CARTESIAN_POINT('Origin',(19.4930638098027,3.,-51.6722134835344));
#1807=CARTESIAN_POINT('Origin',(19.4930638098027,1.5,-51.6722134835344));
#1808=CARTESIAN_POINT('',(19.4930638098027,0.,-48.6722134835344));
#1809=CARTESIAN_POINT('Origin',(19.4930638098027,0.,-51.6722134835344));
#1810=CARTESIAN_POINT('',(19.4930638098027,1.5,-48.6722134835344));
#1811=CARTESIAN_POINT('Origin',(19.4930638098027,4.25,-51.6722134835344));
#1812=CARTESIAN_POINT('',(19.4930638098027,8.5,-49.6722134835344));
#1813=CARTESIAN_POINT('',(19.4930638098027,4.25,-49.6722134835344));
#1814=CARTESIAN_POINT('Origin',(19.4930638098027,8.5,-51.6722134835344));
#1815=CARTESIAN_POINT('Origin',(19.4930638098027,3.,-21.6722134835344));
#1816=CARTESIAN_POINT('',(19.4930638098027,3.,-18.6722134835344));
#1817=CARTESIAN_POINT('Origin',(19.4930638098027,3.,-21.6722134835344));
#1818=CARTESIAN_POINT('',(19.4930638098027,3.,-19.6722134835344));
#1819=CARTESIAN_POINT('Origin',(19.4930638098027,3.,-21.6722134835344));
#1820=CARTESIAN_POINT('Origin',(19.4930638098027,1.5,-21.6722134835344));
#1821=CARTESIAN_POINT('',(19.4930638098027,0.,-18.6722134835344));
#1822=CARTESIAN_POINT('Origin',(19.4930638098027,0.,-21.6722134835344));
#1823=CARTESIAN_POINT('',(19.4930638098027,1.5,-18.6722134835344));
#1824=CARTESIAN_POINT('Origin',(19.4930638098027,4.25,-21.6722134835344));
#1825=CARTESIAN_POINT('',(19.4930638098027,8.5,-19.6722134835344));
#1826=CARTESIAN_POINT('',(19.4930638098027,4.25,-19.6722134835344));
#1827=CARTESIAN_POINT('Origin',(19.4930638098027,8.5,-21.6722134835344));
#1828=CARTESIAN_POINT('Origin',(59.4930638098027,0.,-51.6722134835344));
#1829=CARTESIAN_POINT('',(56.9930638098027,0.,-51.6722134835344));
#1830=CARTESIAN_POINT('Origin',(59.4930638098027,0.,-51.6722134835344));
#1831=CARTESIAN_POINT('',(56.9930638098027,8.5,-51.6722134835344));
#1832=CARTESIAN_POINT('',(56.9930638098027,0.,-51.6722134835344));
#1833=CARTESIAN_POINT('Origin',(59.4930638098027,8.5,-51.6722134835344));
#1834=CARTESIAN_POINT('Origin',(23.049697739396,0.,-48.1215351006554));
#1835=CARTESIAN_POINT('',(23.049697739396,0.,-48.1215351006554));
#1836=CARTESIAN_POINT('',(27.049697739396,0.,-48.1215351006554));
#1837=CARTESIAN_POINT('',(30.0213807745994,0.,-48.1215351006554));
#1838=CARTESIAN_POINT('',(23.049697739396,1.,-48.1215351006554));
#1839=CARTESIAN_POINT('',(23.049697739396,0.,-48.1215351006554));
#1840=CARTESIAN_POINT('',(27.049697739396,1.,-48.1215351006554));
#1841=CARTESIAN_POINT('',(27.049697739396,1.,-48.1215351006554));
#1842=CARTESIAN_POINT('',(27.049697739396,0.,-48.1215351006554));
#1843=CARTESIAN_POINT('Origin',(23.049697739396,0.,-50.5000007525086));
#1844=CARTESIAN_POINT('',(23.049697739396,0.,-50.5000007525086));
#1845=CARTESIAN_POINT('',(23.049697739396,0.,-43.5861071180215));
#1846=CARTESIAN_POINT('',(23.049697739396,1.,-50.5000007525086));
#1847=CARTESIAN_POINT('',(23.049697739396,0.,-50.5000007525086));
#1848=CARTESIAN_POINT('',(23.049697739396,1.,-48.1215351006554));
#1849=CARTESIAN_POINT('Origin',(27.049697739396,0.,-50.5000007525086));
#1850=CARTESIAN_POINT('',(27.049697739396,0.,-50.5000007525086));
#1851=CARTESIAN_POINT('',(32.0213807745994,0.,-50.5000007525086));
#1852=CARTESIAN_POINT('',(27.049697739396,1.,-50.5000007525086));
#1853=CARTESIAN_POINT('',(27.049697739396,0.,-50.5000007525086));
#1854=CARTESIAN_POINT('',(23.049697739396,1.,-50.5000007525086));
#1855=CARTESIAN_POINT('Origin',(25.049697739396,1.,-49.310767926582));
#1856=CARTESIAN_POINT('',(27.049697739396,1.,-51.4645546516325));
#1857=CARTESIAN_POINT('Origin',(40.9974005252887,0.,-36.943700787402));
#1858=CARTESIAN_POINT('',(40.9974005252887,0.,-36.943700787402));
#1859=CARTESIAN_POINT('',(38.524320548641,0.,-36.943700787402));
#1860=CARTESIAN_POINT('',(38.9952321675457,0.,-36.943700787402));
#1861=CARTESIAN_POINT('',(40.9974005252887,1.,-36.943700787402));
#1862=CARTESIAN_POINT('',(40.9974005252887,0.,-36.943700787402));
#1863=CARTESIAN_POINT('',(38.524320548641,1.,-36.943700787402));
#1864=CARTESIAN_POINT('',(38.524320548641,1.,-36.943700787402));
#1865=CARTESIAN_POINT('',(38.524320548641,0.,-36.943700787402));
#1866=CARTESIAN_POINT('Origin',(38.524320548641,0.,-35.443700787402));
#1867=CARTESIAN_POINT('',(38.524320548641,0.,-35.443700787402));
#1868=CARTESIAN_POINT('',(41.0823113728657,0.,-35.443700787402));
#1869=CARTESIAN_POINT('',(37.7586921792219,0.,-35.443700787402));
#1870=CARTESIAN_POINT('',(38.524320548641,1.,-35.443700787402));
#1871=CARTESIAN_POINT('',(38.524320548641,0.,-35.443700787402));
#1872=CARTESIAN_POINT('',(41.0823113728657,1.,-35.443700787402));
#1873=CARTESIAN_POINT('',(38.524320548641,1.,-35.443700787402));
#1874=CARTESIAN_POINT('',(41.0823113728657,0.,-35.443700787402));
#1875=CARTESIAN_POINT('Origin',(39.8033159607534,1.,-36.193700787402));
#1876=CARTESIAN_POINT('',(38.524320548641,1.,-35.668700787402));
#1877=CARTESIAN_POINT('',(40.9930638098027,1.,-36.6722134835344));
#1878=CARTESIAN_POINT('Origin',(49.4930638098027,1.,-36.6722134835344));
#1879=CARTESIAN_POINT('Origin',(49.4930638098027,1.,-36.6722134835344));
#1880=CARTESIAN_POINT('Origin',(36.9930638098027,0.,-36.6722134835344));
#1881=CARTESIAN_POINT('',(9.49306380980272,0.,-11.6722134835344));
#1882=CARTESIAN_POINT('',(64.4930638098027,0.,-11.6722134835344));
#1883=CARTESIAN_POINT('',(9.49306380980272,0.,-11.6722134835344));
#1884=CARTESIAN_POINT('',(9.49306380980272,0.,-61.6722134835344));
#1885=CARTESIAN_POINT('',(9.49306380980272,0.,-61.6722134835344));
#1886=CARTESIAN_POINT('',(64.4930638098027,0.,-61.6722134835344));
#1887=CARTESIAN_POINT('',(64.4930638098027,0.,-61.6722134835344));
#1888=CARTESIAN_POINT('',(64.4930638098027,0.,-11.6722134835344));
#1889=CARTESIAN_POINT('',(45.4930638098027,0.,-54.1722134835344));
#1890=CARTESIAN_POINT('Origin',(50.4930638098027,0.,-54.1722134835344));
#1891=CARTESIAN_POINT('',(45.4930638098027,0.,-19.1722134835344));
#1892=CARTESIAN_POINT('Origin',(50.4930638098027,0.,-19.1722134835344));
#1893=CARTESIAN_POINT('',(14.4930638098027,0.,-36.6722134835344));
#1894=CARTESIAN_POINT('Origin',(19.4930638098027,0.,-36.6722134835344));
#1895=CARTESIAN_POINT('',(27.049697739396,0.,-35.143700787402));
#1896=CARTESIAN_POINT('',(27.049697739396,0.,-45.1452774301087));
#1897=CARTESIAN_POINT('',(28.049697739396,0.,-34.143700787402));
#1898=CARTESIAN_POINT('Origin',(28.049697739396,0.,-35.143700787402));
#1899=CARTESIAN_POINT('',(37.524320548641,0.,-34.143700787402));
#1900=CARTESIAN_POINT('',(32.5213807745994,0.,-34.143700787402));
#1901=CARTESIAN_POINT('',(38.524320548641,0.,-35.143700787402));
#1902=CARTESIAN_POINT('Origin',(37.524320548641,0.,-35.143700787402));
#1903=CARTESIAN_POINT('',(38.524320548641,0.,-35.9079571354682));
#1904=CARTESIAN_POINT('Origin',(49.4930638098027,0.,-36.6722134835344));
#1905=CARTESIAN_POINT('',(38.524320548641,0.,-53.618341376683));
#1906=CARTESIAN_POINT('',(38.524320548641,0.,-35.9079571354682));
#1907=CARTESIAN_POINT('',(37.524320548641,0.,-54.618341376683));
#1908=CARTESIAN_POINT('Origin',(37.524320548641,0.,-53.618341376683));
#1909=CARTESIAN_POINT('',(37.5000005587935,0.,-54.618341376683));
#1910=CARTESIAN_POINT('',(37.2586921792219,0.,-54.618341376683));
#1911=CARTESIAN_POINT('',(37.5000005587935,0.,-59.118341376683));
#1912=CARTESIAN_POINT('',(37.5000005587935,0.,-45.6452774301087));
#1913=CARTESIAN_POINT('',(37.0000005587935,0.,-59.618341376683));
#1914=CARTESIAN_POINT('Origin',(37.0000005587935,0.,-59.118341376683));
#1915=CARTESIAN_POINT('',(28.549697739396,0.,-59.618341376683));
#1916=CARTESIAN_POINT('',(36.9965321842981,0.,-59.618341376683));
#1917=CARTESIAN_POINT('',(28.049697739396,0.,-59.118341376683));
#1918=CARTESIAN_POINT('Origin',(28.549697739396,0.,-59.118341376683));
#1919=CARTESIAN_POINT('',(28.049697739396,0.,-54.618341376683));
#1920=CARTESIAN_POINT('',(28.049697739396,0.,-47.8952774301087));
#1921=CARTESIAN_POINT('',(27.049697739396,0.,-53.618341376683));
#1922=CARTESIAN_POINT('Origin',(28.049697739396,0.,-53.618341376683));
#1923=CARTESIAN_POINT('',(27.049697739396,0.,-45.1452774301087));
#1924=CARTESIAN_POINT('',(36.1732518637522,0.,-30.8318888184548));
#1925=CARTESIAN_POINT('Origin',(36.1732518637522,0.,-32.3318888184548));
#1926=CARTESIAN_POINT('',(23.1732518637522,0.,-55.2319480071384));
#1927=CARTESIAN_POINT('Origin',(23.1732518637522,0.,-56.7319480071384));
#1928=CARTESIAN_POINT('Origin',(38.524320548641,0.,-35.143700787402));
#1929=CARTESIAN_POINT('',(38.524320548641,4.,-35.143700787402));
#1930=CARTESIAN_POINT('',(38.524320548641,0.,-35.143700787402));
#1931=CARTESIAN_POINT('',(38.524320548641,4.,-53.618341376683));
#1932=CARTESIAN_POINT('',(38.524320548641,4.,-35.143700787402));
#1933=CARTESIAN_POINT('',(38.524320548641,0.,-53.618341376683));
#1934=CARTESIAN_POINT('Origin',(30.445008890018,7.,-33.191008382017));
#1935=CARTESIAN_POINT('',(30.445008890018,8.5,-34.691008382017));
#1936=CARTESIAN_POINT('Origin',(30.445008890018,8.5,-33.191008382017));
#1937=CARTESIAN_POINT('',(30.445008890018,5.5,-34.691008382017));
#1938=CARTESIAN_POINT('',(30.445008890018,7.,-34.691008382017));
#1939=CARTESIAN_POINT('Origin',(30.445008890018,5.5,-33.191008382017));
#1940=CARTESIAN_POINT('Origin',(30.445008890018,5.5,-33.191008382017));
#1941=CARTESIAN_POINT('Origin',(30.445008890018,7.,-46.272034544069));
#1942=CARTESIAN_POINT('',(30.445008890018,8.5,-47.772034544069));
#1943=CARTESIAN_POINT('Origin',(30.445008890018,8.5,-46.272034544069));
#1944=CARTESIAN_POINT('',(30.445008890018,5.5,-47.772034544069));
#1945=CARTESIAN_POINT('',(30.445008890018,7.,-47.772034544069));
#1946=CARTESIAN_POINT('Origin',(30.445008890018,5.5,-46.272034544069));
#1947=CARTESIAN_POINT('Origin',(30.445008890018,5.5,-46.272034544069));
#1948=CARTESIAN_POINT('Origin',(56.9930638098027,4.25,-59.1722134835344));
#1949=CARTESIAN_POINT('',(58.9930638098027,4.25,-61.6722134835344));
#1950=CARTESIAN_POINT('Origin',(56.9930638098027,4.25,-61.6722134835344));
#1951=CARTESIAN_POINT('',(58.9930638098027,4.25,-56.6722134835344));
#1952=CARTESIAN_POINT('',(58.9930638098027,4.25,-59.1722134835344));
#1953=CARTESIAN_POINT('Origin',(56.9930638098027,4.25,-56.6722134835344));
#1954=CARTESIAN_POINT('Origin',(56.9930638098027,4.25,-56.6722134835344));
#1955=CARTESIAN_POINT('Origin',(16.9930638098027,4.25,-61.5472134835344));
#1956=CARTESIAN_POINT('',(18.9930638098027,4.25,-61.6722134835344));
#1957=CARTESIAN_POINT('Origin',(16.9930638098027,4.25,-61.6722134835344));
#1958=CARTESIAN_POINT('',(18.7430638098027,4.25,-61.4222134835344));
#1959=CARTESIAN_POINT('',(18.8680638098027,4.25,-61.5472134835344));
#1960=CARTESIAN_POINT('Origin',(16.9930638098027,4.25,-61.4222134835344));
#1961=CARTESIAN_POINT('Origin',(16.9930638098027,4.25,-59.1722134835344));
#1962=CARTESIAN_POINT('',(18.7430638098027,4.25,-56.6722134835344));
#1963=CARTESIAN_POINT('',(18.7430638098027,4.25,-59.1722134835344));
#1964=CARTESIAN_POINT('Origin',(16.9930638098027,4.25,-56.6722134835344));
#1965=CARTESIAN_POINT('Origin',(16.9930638098027,4.25,-56.6722134835344));
#1966=CARTESIAN_POINT('Origin',(23.1732518637522,2.5,-56.7319480071384));
#1967=CARTESIAN_POINT('',(23.1732518637522,5.,-55.2319480071384));
#1968=CARTESIAN_POINT('',(23.1732518637522,2.5,-55.2319480071384));
#1969=CARTESIAN_POINT('Origin',(23.1732518637522,5.,-56.7319480071384));
#1970=CARTESIAN_POINT('Origin',(23.1732518637522,5.,-56.7319480071384));
#1971=CARTESIAN_POINT('Origin',(36.1732518637522,2.5,-32.3318888184548));
#1972=CARTESIAN_POINT('',(36.1732518637522,5.,-30.8318888184548));
#1973=CARTESIAN_POINT('',(36.1732518637522,2.5,-30.8318888184548));
#1974=CARTESIAN_POINT('Origin',(36.1732518637522,5.,-32.3318888184548));
#1975=CARTESIAN_POINT('Origin',(36.1732518637522,5.,-32.3318888184548));
#1976=CARTESIAN_POINT('Origin',(36.128016256033,4.,-48.097028194056));
#1977=CARTESIAN_POINT('',(36.128016256033,4.,-46.597028194056));
#1978=CARTESIAN_POINT('Origin',(36.128016256033,4.,-48.097028194056));
#1979=CARTESIAN_POINT('',(36.128016256033,8.,-46.597028194056));
#1980=CARTESIAN_POINT('',(36.128016256033,4.,-46.597028194056));
#1981=CARTESIAN_POINT('Origin',(36.128016256033,8.,-48.097028194056));
#1982=CARTESIAN_POINT('Origin',(36.128016256033,8.,-48.097028194056));
#1983=CARTESIAN_POINT('Origin',(28.049697739396,0.,-54.618341376683));
#1984=CARTESIAN_POINT('',(37.5000005587935,8.5,-54.618341376683));
#1985=CARTESIAN_POINT('',(28.049697739396,8.5,-54.618341376683));
#1986=CARTESIAN_POINT('',(32.5213807745994,8.5,-54.618341376683));
#1987=CARTESIAN_POINT('',(37.5000005587935,4.,-54.618341376683));
#1988=CARTESIAN_POINT('',(37.5000005587935,0.,-54.618341376683));
#1989=CARTESIAN_POINT('',(28.049697739396,4.,-54.618341376683));
#1990=CARTESIAN_POINT('',(30.4183534417073,4.,-54.618341376683));
#1991=CARTESIAN_POINT('',(28.049697739396,0.,-54.618341376683));
#1992=CARTESIAN_POINT('Origin',(37.0000005587935,0.,-59.618341376683));
#1993=CARTESIAN_POINT('',(37.0000005587935,8.5,-59.618341376683));
#1994=CARTESIAN_POINT('',(37.0000005587935,0.,-59.618341376683));
#1995=CARTESIAN_POINT('',(28.549697739396,8.5,-59.618341376683));
#1996=CARTESIAN_POINT('',(36.9965321842981,8.5,-59.618341376683));
#1997=CARTESIAN_POINT('',(28.549697739396,0.,-59.618341376683));
#1998=CARTESIAN_POINT('Origin',(37.0000005587935,0.,-59.118341376683));
#1999=CARTESIAN_POINT('',(37.5000005587935,8.5,-59.118341376683));
#2000=CARTESIAN_POINT('',(37.5000005587935,0.,-59.118341376683));
#2001=CARTESIAN_POINT('Origin',(37.0000005587935,8.5,-59.118341376683));
#2002=CARTESIAN_POINT('Origin',(37.5000005587935,0.,-54.618341376683));
#2003=CARTESIAN_POINT('',(37.5000005587935,0.,-54.618341376683));
#2004=CARTESIAN_POINT('',(37.5000005587935,8.5,-45.6452774301087));
#2005=CARTESIAN_POINT('Origin',(37.524320548641,0.,-54.618341376683));
#2006=CARTESIAN_POINT('',(37.524320548641,4.,-54.618341376683));
#2007=CARTESIAN_POINT('',(37.524320548641,0.,-54.618341376683));
#2008=CARTESIAN_POINT('',(37.524320548641,4.,-54.618341376683));
#2009=CARTESIAN_POINT('Origin',(37.524320548641,0.,-53.618341376683));
#2010=CARTESIAN_POINT('Origin',(37.524320548641,4.,-53.618341376683));
#2011=CARTESIAN_POINT('Origin',(37.524320548641,0.,-35.143700787402));
#2012=CARTESIAN_POINT('',(37.524320548641,4.,-34.143700787402));
#2013=CARTESIAN_POINT('',(37.524320548641,0.,-34.143700787402));
#2014=CARTESIAN_POINT('Origin',(37.524320548641,4.,-35.143700787402));
#2015=CARTESIAN_POINT('Origin',(28.049697739396,0.,-34.143700787402));
#2016=CARTESIAN_POINT('',(28.049697739396,4.,-34.143700787402));
#2017=CARTESIAN_POINT('',(28.049697739396,0.,-34.143700787402));
#2018=CARTESIAN_POINT('',(28.049697739396,4.,-34.143700787402));
#2019=CARTESIAN_POINT('Origin',(28.049697739396,0.,-35.143700787402));
#2020=CARTESIAN_POINT('',(27.049697739396,4.,-35.143700787402));
#2021=CARTESIAN_POINT('',(27.049697739396,0.,-35.143700787402));
#2022=CARTESIAN_POINT('Origin',(28.049697739396,4.,-35.143700787402));
#2023=CARTESIAN_POINT('Origin',(27.049697739396,0.,-53.618341376683));
#2024=CARTESIAN_POINT('',(27.049697739396,4.,-53.618341376683));
#2025=CARTESIAN_POINT('',(27.049697739396,0.,-53.618341376683));
#2026=CARTESIAN_POINT('',(27.049697739396,4.,-53.618341376683));
#2027=CARTESIAN_POINT('Origin',(28.049697739396,0.,-53.618341376683));
#2028=CARTESIAN_POINT('',(28.049697739396,0.,-54.618341376683));
#2029=CARTESIAN_POINT('Origin',(28.049697739396,4.,-53.618341376683));
#2030=CARTESIAN_POINT('Origin',(28.049697739396,0.,-59.118341376683));
#2031=CARTESIAN_POINT('',(28.049697739396,8.5,-59.118341376683));
#2032=CARTESIAN_POINT('',(28.049697739396,0.,-59.118341376683));
#2033=CARTESIAN_POINT('',(28.049697739396,8.5,-47.8952774301087));
#2034=CARTESIAN_POINT('Origin',(28.549697739396,0.,-59.118341376683));
#2035=CARTESIAN_POINT('Origin',(28.549697739396,8.5,-59.118341376683));
#2036=CARTESIAN_POINT('Origin',(32.7870091440185,4.,-46.8810210820425));
#2037=CARTESIAN_POINT('Origin',(49.4930638098027,0.,-36.6722134835344));
#2038=CARTESIAN_POINT('',(40.9930638098027,0.,-36.6722134835344));
#2039=CARTESIAN_POINT('Origin',(61.9930638098027,4.25,-16.6722134835344));
#2040=CARTESIAN_POINT('',(64.4930638098027,2.75,-16.6722134835344));
#2041=CARTESIAN_POINT('Origin',(64.4930638098027,4.25,-16.6722134835344));
#2042=CARTESIAN_POINT('',(59.4930638098027,2.75,-16.6722134835344));
#2043=CARTESIAN_POINT('',(61.9930638098027,2.75,-16.6722134835344));
#2044=CARTESIAN_POINT('Origin',(59.4930638098027,4.25,-16.6722134835344));
#2045=CARTESIAN_POINT('Origin',(59.4930638098027,4.25,-16.6722134835344));
#2046=CARTESIAN_POINT('Origin',(61.9930638098027,4.25,-56.6722134835344));
#2047=CARTESIAN_POINT('',(64.4930638098027,2.75,-56.6722134835344));
#2048=CARTESIAN_POINT('Origin',(64.4930638098027,4.25,-56.6722134835344));
#2049=CARTESIAN_POINT('',(59.4930638098027,2.75,-56.6722134835344));
#2050=CARTESIAN_POINT('',(61.9930638098027,2.75,-56.6722134835344));
#2051=CARTESIAN_POINT('Origin',(59.4930638098027,4.25,-56.6722134835344));
#2052=CARTESIAN_POINT('Origin',(59.4930638098027,4.25,-56.6722134835344));
#2053=CARTESIAN_POINT('Origin',(11.9930638098027,4.25,-56.6722134835344));
#2054=CARTESIAN_POINT('',(9.49306380980272,5.75,-56.6722134835344));
#2055=CARTESIAN_POINT('Origin',(9.49306380980272,4.25,-56.6722134835344));
#2056=CARTESIAN_POINT('',(14.4930638098027,5.75,-56.6722134835344));
#2057=CARTESIAN_POINT('',(11.9930638098027,5.75,-56.6722134835344));
#2058=CARTESIAN_POINT('Origin',(14.4930638098027,4.25,-56.6722134835344));
#2059=CARTESIAN_POINT('Origin',(14.4930638098027,4.25,-56.6722134835344));
#2060=CARTESIAN_POINT('Origin',(11.9930638098027,4.25,-16.6722134835344));
#2061=CARTESIAN_POINT('',(9.49306380980272,5.75,-16.6722134835344));
#2062=CARTESIAN_POINT('Origin',(9.49306380980272,4.25,-16.6722134835344));
#2063=CARTESIAN_POINT('',(14.4930638098027,5.75,-16.6722134835344));
#2064=CARTESIAN_POINT('',(11.9930638098027,5.75,-16.6722134835344));
#2065=CARTESIAN_POINT('Origin',(14.4930638098027,4.25,-16.6722134835344));
#2066=CARTESIAN_POINT('Origin',(14.4930638098027,4.25,-16.6722134835344));
#2067=CARTESIAN_POINT('Origin',(36.9930638098027,8.5,-36.6722134835344));
#2068=CARTESIAN_POINT('',(9.49306380980272,8.5,-61.6722134835344));
#2069=CARTESIAN_POINT('',(9.49306380980272,8.5,-11.6722134835344));
#2070=CARTESIAN_POINT('',(9.49306380980272,8.5,-61.6722134835344));
#2071=CARTESIAN_POINT('',(64.4930638098027,8.5,-11.6722134835344));
#2072=CARTESIAN_POINT('',(9.49306380980272,8.5,-11.6722134835344));
#2073=CARTESIAN_POINT('',(64.4930638098027,8.5,-61.6722134835344));
#2074=CARTESIAN_POINT('',(64.4930638098027,8.5,-11.6722134835344));
#2075=CARTESIAN_POINT('',(64.4930638098027,8.5,-61.6722134835344));
#2076=CARTESIAN_POINT('',(15.0930638098027,8.5,-36.6722134835344));
#2077=CARTESIAN_POINT('Origin',(19.4930638098027,8.5,-36.6722134835344));
#2078=CARTESIAN_POINT('',(46.0930638098027,8.5,-54.1722134835344));
#2079=CARTESIAN_POINT('Origin',(50.4930638098027,8.5,-54.1722134835344));
#2080=CARTESIAN_POINT('',(46.0930638098027,8.5,-19.1722134835344));
#2081=CARTESIAN_POINT('Origin',(50.4930638098027,8.5,-19.1722134835344));
#2082=CARTESIAN_POINT('Origin',(50.4930638098027,0.,-54.1722134835344));
#2083=CARTESIAN_POINT('',(45.4930638098027,0.75,-54.1722134835344));
#2084=CARTESIAN_POINT('',(45.4930638098027,0.,-54.1722134835344));
#2085=CARTESIAN_POINT('Origin',(50.4930638098027,0.75,-54.1722134835344));
#2086=CARTESIAN_POINT('Origin',(50.4930638098027,0.75,-54.1722134835344));
#2087=CARTESIAN_POINT('',(46.0930638098027,0.75,-54.1722134835344));
#2088=CARTESIAN_POINT('Origin',(50.4930638098027,0.75,-54.1722134835344));
#2089=CARTESIAN_POINT('Origin',(50.4930638098027,0.,-19.1722134835344));
#2090=CARTESIAN_POINT('',(45.4930638098027,0.75,-19.1722134835344));
#2091=CARTESIAN_POINT('',(45.4930638098027,0.,-19.1722134835344));
#2092=CARTESIAN_POINT('Origin',(50.4930638098027,0.75,-19.1722134835344));
#2093=CARTESIAN_POINT('Origin',(50.4930638098027,0.75,-19.1722134835344));
#2094=CARTESIAN_POINT('',(46.0930638098027,0.75,-19.1722134835344));
#2095=CARTESIAN_POINT('Origin',(50.4930638098027,0.75,-19.1722134835344));
#2096=CARTESIAN_POINT('Origin',(19.4930638098027,0.,-36.6722134835344));
#2097=CARTESIAN_POINT('',(14.4930638098027,0.75,-36.6722134835344));
#2098=CARTESIAN_POINT('',(14.4930638098027,0.,-36.6722134835344));
#2099=CARTESIAN_POINT('Origin',(19.4930638098027,0.75,-36.6722134835344));
#2100=CARTESIAN_POINT('Origin',(19.4930638098027,0.75,-36.6722134835344));
#2101=CARTESIAN_POINT('',(15.0930638098027,0.75,-36.6722134835344));
#2102=CARTESIAN_POINT('Origin',(19.4930638098027,0.75,-36.6722134835344));
#2103=CARTESIAN_POINT('Origin',(50.4930638098027,0.,-19.1722134835344));
#2104=CARTESIAN_POINT('',(46.0930638098027,0.,-19.1722134835344));
#2105=CARTESIAN_POINT('Origin',(50.4930638098027,0.,-54.1722134835344));
#2106=CARTESIAN_POINT('',(46.0930638098027,0.,-54.1722134835344));
#2107=CARTESIAN_POINT('Origin',(19.4930638098027,0.,-36.6722134835344));
#2108=CARTESIAN_POINT('',(15.0930638098027,0.,-36.6722134835344));
#2109=CARTESIAN_POINT('Origin',(64.4930638098027,0.,-61.6722134835344));
#2110=CARTESIAN_POINT('',(9.49306380980272,0.,-61.6722134835344));
#2111=CARTESIAN_POINT('',(64.4930638098027,0.,-61.6722134835344));
#2112=CARTESIAN_POINT('Origin',(64.4930638098027,0.,-11.6722134835344));
#2113=CARTESIAN_POINT('',(64.4930638098027,0.,-11.6722134835344));
#2114=CARTESIAN_POINT('Origin',(9.49306380980272,0.,-11.6722134835344));
#2115=CARTESIAN_POINT('',(9.49306380980272,0.,-11.6722134835344));
#2116=CARTESIAN_POINT('Origin',(9.49306380980272,0.,-61.6722134835344));
#2117=UNCERTAINTY_MEASURE_WITH_UNIT(LENGTH_MEASURE(0.01),#2121,
'DISTANCE_ACCURACY_VALUE',
'Maximum model space distance between geometric entities at asserted c
onnectivities');
#2118=UNCERTAINTY_MEASURE_WITH_UNIT(LENGTH_MEASURE(0.01),#2121,
'DISTANCE_ACCURACY_VALUE',
'Maximum model space distance between geometric entities at asserted c
onnectivities');
#2119=(
GEOMETRIC_REPRESENTATION_CONTEXT(3)
GLOBAL_UNCERTAINTY_ASSIGNED_CONTEXT((#2117))
GLOBAL_UNIT_ASSIGNED_CONTEXT((#2121,#2123,#2124))
REPRESENTATION_CONTEXT('','3D')
);
#2120=(
GEOMETRIC_REPRESENTATION_CONTEXT(3)
GLOBAL_UNCERTAINTY_ASSIGNED_CONTEXT((#2118))
GLOBAL_UNIT_ASSIGNED_CONTEXT((#2121,#2123,#2124))
REPRESENTATION_CONTEXT('','3D')
);
#2121=(
LENGTH_UNIT()
NAMED_UNIT(*)
SI_UNIT(.MILLI.,.METRE.)
);
#2122=(
LENGTH_UNIT()
NAMED_UNIT(*)
SI_UNIT($,.METRE.)
);
#2123=(
NAMED_UNIT(*)
PLANE_ANGLE_UNIT()
SI_UNIT($,.RADIAN.)
);
#2124=(
NAMED_UNIT(*)
SI_UNIT($,.STERADIAN.)
SOLID_ANGLE_UNIT()
);
#2125=SHAPE_DEFINITION_REPRESENTATION(#2126,#2127);
#2126=PRODUCT_DEFINITION_SHAPE('',$,#2129);
#2127=SHAPE_REPRESENTATION('',(#1244),#2119);
#2128=PRODUCT_DEFINITION_CONTEXT('part definition',#2133,'design');
#2129=PRODUCT_DEFINITION('\X2\63A2948879FB52A87CFB7EDF\X0\',
'\X2\63A2948879FB52A87CFB7EDF\X0\',#2130,#2128);
#2130=PRODUCT_DEFINITION_FORMATION('',$,#2135);
#2131=PRODUCT_RELATED_PRODUCT_CATEGORY('\X2\63A2948879FB52A87CFB7EDF\X0\',
'\X2\63A2948879FB52A87CFB7EDF\X0\',(#2135));
#2132=APPLICATION_PROTOCOL_DEFINITION('international standard',
'automotive_design',2009,#2133);
#2133=APPLICATION_CONTEXT(
'Core Data for Automotive Mechanical Design Process');
#2134=PRODUCT_CONTEXT('part definition',#2133,'mechanical');
#2135=PRODUCT('\X2\63A2948879FB52A87CFB7EDF\X0\','\X2\63A2948879FB52A87CFB7EDF\X0\',
$,(#2134));
#2136=PRESENTATION_STYLE_ASSIGNMENT((#2138));
#2137=PRESENTATION_STYLE_ASSIGNMENT((#2139));
#2138=SURFACE_STYLE_USAGE(.BOTH.,#2140);
#2139=SURFACE_STYLE_USAGE(.BOTH.,#2141);
#2140=SURFACE_SIDE_STYLE('',(#2142));
#2141=SURFACE_SIDE_STYLE('',(#2143));
#2142=SURFACE_STYLE_FILL_AREA(#2144);
#2143=SURFACE_STYLE_FILL_AREA(#2145);
#2144=FILL_AREA_STYLE('\X2\9EC494DC\X0\ - \X2\629B5149\X0\',(#2146));
#2145=FILL_AREA_STYLE(
'EPX 150 - \X2\7A7A6C1470D87119\X0\(\X2\5E266709\X0\ Carbon M2 M3 L1 3
D \X2\62535370673A\X0\)',(#2147));
#2146=FILL_AREA_STYLE_COLOUR('\X2\9EC494DC\X0\ - \X2\629B5149\X0\',#2148);
#2147=FILL_AREA_STYLE_COLOUR(
'EPX 150 - \X2\7A7A6C1470D87119\X0\(\X2\5E266709\X0\ Carbon M2 M3 L1 3
D \X2\62535370673A\X0\)',#2149);
#2148=COLOUR_RGB('\X2\9EC494DC\X0\ - \X2\629B5149\X0\',0.952941176470588,
0.796078431372549,0.486274509803922);
#2149=COLOUR_RGB(
'EPX 150 - \X2\7A7A6C1470D87119\X0\(\X2\5E266709\X0\ Carbon M2 M3 L1 3
D \X2\62535370673A\X0\)',0.247058823529412,0.247058823529412,0.247058823529412);
ENDSEC;
END-ISO-10303-21;
