ISO-10303-21;
HEADER;
/* Generated by software containing ST-Developer
 * from STEP Tools, Inc. (www.steptools.com) 
 */

FILE_DESCRIPTION(
/* description */ (''),
/* implementation_level */ '2;1');

FILE_NAME(
/* name */ '',
/* time_stamp */ '2026-04-30T16:14:00+08:00',
/* author */ (''),
/* organization */ (''),
/* preprocessor_version */ 'ST-DEVELOPER v20.1',
/* originating_system */ 'Autodesk Translation Framework v14.24.0.0',
/* authorisation */ '');

FILE_SCHEMA (('AUTOMOTIVE_DESIGN { 1 0 10303 214 3 1 1 }'));
ENDSEC;

DATA;
#10=MECHANICAL_DESIGN_GEOMETRIC_PRESENTATION_REPRESENTATION('',(#13),#879);
#11=SHAPE_REPRESENTATION_RELATIONSHIP('SRR','None',#886,#12);
#12=ADVANCED_BREP_SHAPE_REPRESENTATION('',(#14),#878);
#13=STYLED_ITEM('',(#896),#14);
#14=MANIFOLD_SOLID_BREP('\X2\5B9E4F53\X0\1',#499);
#15=FACE_BOUND('',#63,.T.);
#16=FACE_BOUND('',#69,.T.);
#17=FACE_BOUND('',#70,.T.);
#18=FACE_BOUND('',#83,.T.);
#19=FACE_BOUND('',#84,.T.);
#20=FACE_BOUND('',#85,.T.);
#21=FACE_BOUND('',#86,.T.);
#22=FACE_BOUND('',#87,.T.);
#23=PLANE('',#537);
#24=PLANE('',#548);
#25=PLANE('',#554);
#26=PLANE('',#560);
#27=PLANE('',#562);
#28=PLANE('',#564);
#29=PLANE('',#568);
#30=PLANE('',#570);
#31=PLANE('',#572);
#32=FACE_OUTER_BOUND('',#56,.T.);
#33=FACE_OUTER_BOUND('',#57,.T.);
#34=FACE_OUTER_BOUND('',#58,.T.);
#35=FACE_OUTER_BOUND('',#59,.T.);
#36=FACE_OUTER_BOUND('',#60,.T.);
#37=FACE_OUTER_BOUND('',#61,.T.);
#38=FACE_OUTER_BOUND('',#62,.T.);
#39=FACE_OUTER_BOUND('',#64,.T.);
#40=FACE_OUTER_BOUND('',#65,.T.);
#41=FACE_OUTER_BOUND('',#66,.T.);
#42=FACE_OUTER_BOUND('',#67,.T.);
#43=FACE_OUTER_BOUND('',#68,.T.);
#44=FACE_OUTER_BOUND('',#71,.T.);
#45=FACE_OUTER_BOUND('',#72,.T.);
#46=FACE_OUTER_BOUND('',#73,.T.);
#47=FACE_OUTER_BOUND('',#74,.T.);
#48=FACE_OUTER_BOUND('',#75,.T.);
#49=FACE_OUTER_BOUND('',#76,.T.);
#50=FACE_OUTER_BOUND('',#77,.T.);
#51=FACE_OUTER_BOUND('',#78,.T.);
#52=FACE_OUTER_BOUND('',#79,.T.);
#53=FACE_OUTER_BOUND('',#80,.T.);
#54=FACE_OUTER_BOUND('',#81,.T.);
#55=FACE_OUTER_BOUND('',#82,.T.);
#56=EDGE_LOOP('',(#316,#317,#318,#319,#320,#321,#322,#323));
#57=EDGE_LOOP('',(#324,#325,#326,#327,#328,#329,#330,#331));
#58=EDGE_LOOP('',(#332,#333,#334,#335));
#59=EDGE_LOOP('',(#336,#337,#338,#339,#340,#341,#342,#343));
#60=EDGE_LOOP('',(#344,#345,#346,#347));
#61=EDGE_LOOP('',(#348,#349,#350,#351));
#62=EDGE_LOOP('',(#352,#353,#354,#355,#356,#357,#358,#359,#360,#361,#362,
#363,#364,#365,#366,#367,#368,#369,#370,#371));
#63=EDGE_LOOP('',(#372));
#64=EDGE_LOOP('',(#373,#374,#375,#376));
#65=EDGE_LOOP('',(#377,#378,#379,#380));
#66=EDGE_LOOP('',(#381,#382,#383,#384));
#67=EDGE_LOOP('',(#385,#386,#387,#388));
#68=EDGE_LOOP('',(#389));
#69=EDGE_LOOP('',(#390,#391,#392,#393,#394,#395,#396,#397,#398,#399,#400,
#401,#402,#403,#404,#405,#406,#407,#408));
#70=EDGE_LOOP('',(#409));
#71=EDGE_LOOP('',(#410,#411,#412,#413));
#72=EDGE_LOOP('',(#414,#415,#416,#417));
#73=EDGE_LOOP('',(#418,#419,#420,#421));
#74=EDGE_LOOP('',(#422,#423,#424,#425));
#75=EDGE_LOOP('',(#426,#427,#428,#429));
#76=EDGE_LOOP('',(#430,#431,#432,#433));
#77=EDGE_LOOP('',(#434,#435,#436,#437));
#78=EDGE_LOOP('',(#438,#439,#440,#441));
#79=EDGE_LOOP('',(#442,#443,#444,#445));
#80=EDGE_LOOP('',(#446,#447,#448,#449));
#81=EDGE_LOOP('',(#450,#451,#452,#453));
#82=EDGE_LOOP('',(#454));
#83=EDGE_LOOP('',(#455));
#84=EDGE_LOOP('',(#456));
#85=EDGE_LOOP('',(#457));
#86=EDGE_LOOP('',(#458));
#87=EDGE_LOOP('',(#459));
#88=LINE('',#736,#124);
#89=LINE('',#740,#125);
#90=LINE('',#744,#126);
#91=LINE('',#750,#127);
#92=LINE('',#754,#128);
#93=LINE('',#758,#129);
#94=LINE('',#764,#130);
#95=LINE('',#770,#131);
#96=LINE('',#774,#132);
#97=LINE('',#778,#133);
#98=LINE('',#784,#134);
#99=LINE('',#790,#135);
#100=LINE('',#794,#136);
#101=LINE('',#798,#137);
#102=LINE('',#803,#138);
#103=LINE('',#807,#139);
#104=LINE('',#810,#140);
#105=LINE('',#814,#141);
#106=LINE('',#821,#142);
#107=LINE('',#824,#143);
#108=LINE('',#825,#144);
#109=LINE('',#829,#145);
#110=LINE('',#834,#146);
#111=LINE('',#840,#147);
#112=LINE('',#843,#148);
#113=LINE('',#847,#149);
#114=LINE('',#850,#150);
#115=LINE('',#853,#151);
#116=LINE('',#855,#152);
#117=LINE('',#858,#153);
#118=LINE('',#860,#154);
#119=LINE('',#862,#155);
#120=LINE('',#867,#156);
#121=LINE('',#869,#157);
#122=LINE('',#871,#158);
#123=LINE('',#873,#159);
#124=VECTOR('',#579,1.5);
#125=VECTOR('',#582,10.);
#126=VECTOR('',#585,10.);
#127=VECTOR('',#592,1.5);
#128=VECTOR('',#595,10.);
#129=VECTOR('',#598,10.);
#130=VECTOR('',#605,1.5);
#131=VECTOR('',#612,1.5);
#132=VECTOR('',#615,10.);
#133=VECTOR('',#618,10.);
#134=VECTOR('',#625,10.);
#135=VECTOR('',#632,10.);
#136=VECTOR('',#637,10.);
#137=VECTOR('',#640,10.);
#138=VECTOR('',#645,10.);
#139=VECTOR('',#648,10.);
#140=VECTOR('',#651,10.);
#141=VECTOR('',#654,10.);
#142=VECTOR('',#663,10.);
#143=VECTOR('',#666,10.);
#144=VECTOR('',#667,10.);
#145=VECTOR('',#672,10.);
#146=VECTOR('',#677,11.);
#147=VECTOR('',#684,10.);
#148=VECTOR('',#687,10.);
#149=VECTOR('',#690,10.);
#150=VECTOR('',#693,10.);
#151=VECTOR('',#696,10.);
#152=VECTOR('',#699,10.);
#153=VECTOR('',#704,10.);
#154=VECTOR('',#707,10.);
#155=VECTOR('',#710,10.);
#156=VECTOR('',#717,1.6);
#157=VECTOR('',#720,10.);
#158=VECTOR('',#723,10.);
#159=VECTOR('',#726,10.);
#160=CIRCLE('',#514,1.5);
#161=CIRCLE('',#515,1.5);
#162=CIRCLE('',#516,1.5);
#163=CIRCLE('',#517,1.5);
#164=CIRCLE('',#519,1.5);
#165=CIRCLE('',#520,1.5);
#166=CIRCLE('',#521,1.5);
#167=CIRCLE('',#522,1.5);
#168=CIRCLE('',#524,1.5);
#169=CIRCLE('',#525,1.5);
#170=CIRCLE('',#527,1.5);
#171=CIRCLE('',#528,1.5);
#172=CIRCLE('',#529,1.5);
#173=CIRCLE('',#530,1.5);
#174=CIRCLE('',#532,9.);
#175=CIRCLE('',#533,9.);
#176=CIRCLE('',#535,9.);
#177=CIRCLE('',#536,9.);
#178=CIRCLE('',#538,3.75);
#179=CIRCLE('',#539,9.);
#180=CIRCLE('',#540,9.);
#181=CIRCLE('',#541,3.75);
#182=CIRCLE('',#542,9.);
#183=CIRCLE('',#543,3.75);
#184=CIRCLE('',#544,9.);
#185=CIRCLE('',#545,1.6);
#186=CIRCLE('',#547,9.);
#187=CIRCLE('',#550,3.75);
#188=CIRCLE('',#552,11.);
#189=CIRCLE('',#553,11.);
#190=CIRCLE('',#555,9.);
#191=CIRCLE('',#556,3.75);
#192=CIRCLE('',#557,9.);
#193=CIRCLE('',#558,3.75);
#194=CIRCLE('',#559,9.);
#195=CIRCLE('',#567,1.6);
#196=VERTEX_POINT('',#733);
#197=VERTEX_POINT('',#735);
#198=VERTEX_POINT('',#737);
#199=VERTEX_POINT('',#739);
#200=VERTEX_POINT('',#741);
#201=VERTEX_POINT('',#743);
#202=VERTEX_POINT('',#747);
#203=VERTEX_POINT('',#749);
#204=VERTEX_POINT('',#751);
#205=VERTEX_POINT('',#753);
#206=VERTEX_POINT('',#755);
#207=VERTEX_POINT('',#757);
#208=VERTEX_POINT('',#761);
#209=VERTEX_POINT('',#763);
#210=VERTEX_POINT('',#767);
#211=VERTEX_POINT('',#769);
#212=VERTEX_POINT('',#771);
#213=VERTEX_POINT('',#773);
#214=VERTEX_POINT('',#775);
#215=VERTEX_POINT('',#777);
#216=VERTEX_POINT('',#781);
#217=VERTEX_POINT('',#783);
#218=VERTEX_POINT('',#787);
#219=VERTEX_POINT('',#789);
#220=VERTEX_POINT('',#793);
#221=VERTEX_POINT('',#795);
#222=VERTEX_POINT('',#797);
#223=VERTEX_POINT('',#800);
#224=VERTEX_POINT('',#802);
#225=VERTEX_POINT('',#804);
#226=VERTEX_POINT('',#806);
#227=VERTEX_POINT('',#809);
#228=VERTEX_POINT('',#811);
#229=VERTEX_POINT('',#813);
#230=VERTEX_POINT('',#816);
#231=VERTEX_POINT('',#819);
#232=VERTEX_POINT('',#823);
#233=VERTEX_POINT('',#827);
#234=VERTEX_POINT('',#831);
#235=VERTEX_POINT('',#833);
#236=VERTEX_POINT('',#837);
#237=VERTEX_POINT('',#839);
#238=VERTEX_POINT('',#841);
#239=VERTEX_POINT('',#844);
#240=VERTEX_POINT('',#846);
#241=VERTEX_POINT('',#848);
#242=VERTEX_POINT('',#851);
#243=VERTEX_POINT('',#865);
#244=EDGE_CURVE('',#196,#196,#160,.T.);
#245=EDGE_CURVE('',#196,#197,#88,.T.);
#246=EDGE_CURVE('',#198,#197,#161,.T.);
#247=EDGE_CURVE('',#199,#198,#89,.T.);
#248=EDGE_CURVE('',#200,#199,#162,.T.);
#249=EDGE_CURVE('',#201,#200,#90,.T.);
#250=EDGE_CURVE('',#197,#201,#163,.T.);
#251=EDGE_CURVE('',#202,#202,#164,.T.);
#252=EDGE_CURVE('',#202,#203,#91,.T.);
#253=EDGE_CURVE('',#204,#203,#165,.T.);
#254=EDGE_CURVE('',#205,#204,#92,.T.);
#255=EDGE_CURVE('',#206,#205,#166,.T.);
#256=EDGE_CURVE('',#207,#206,#93,.T.);
#257=EDGE_CURVE('',#203,#207,#167,.T.);
#258=EDGE_CURVE('',#208,#208,#168,.T.);
#259=EDGE_CURVE('',#208,#209,#94,.T.);
#260=EDGE_CURVE('',#209,#209,#169,.T.);
#261=EDGE_CURVE('',#210,#210,#170,.T.);
#262=EDGE_CURVE('',#210,#211,#95,.T.);
#263=EDGE_CURVE('',#212,#211,#171,.T.);
#264=EDGE_CURVE('',#213,#212,#96,.T.);
#265=EDGE_CURVE('',#214,#213,#172,.T.);
#266=EDGE_CURVE('',#215,#214,#97,.T.);
#267=EDGE_CURVE('',#211,#215,#173,.T.);
#268=EDGE_CURVE('',#198,#216,#174,.T.);
#269=EDGE_CURVE('',#217,#216,#98,.T.);
#270=EDGE_CURVE('',#217,#199,#175,.T.);
#271=EDGE_CURVE('',#206,#218,#176,.T.);
#272=EDGE_CURVE('',#219,#218,#99,.T.);
#273=EDGE_CURVE('',#219,#207,#177,.T.);
#274=EDGE_CURVE('',#220,#217,#100,.T.);
#275=EDGE_CURVE('',#221,#220,#178,.T.);
#276=EDGE_CURVE('',#221,#222,#101,.T.);
#277=EDGE_CURVE('',#212,#222,#179,.T.);
#278=EDGE_CURVE('',#223,#215,#180,.T.);
#279=EDGE_CURVE('',#224,#223,#102,.T.);
#280=EDGE_CURVE('',#225,#224,#181,.T.);
#281=EDGE_CURVE('',#226,#225,#103,.T.);
#282=EDGE_CURVE('',#204,#226,#182,.T.);
#283=EDGE_CURVE('',#219,#227,#104,.T.);
#284=EDGE_CURVE('',#228,#227,#183,.T.);
#285=EDGE_CURVE('',#228,#229,#105,.T.);
#286=EDGE_CURVE('',#200,#229,#184,.T.);
#287=EDGE_CURVE('',#230,#230,#185,.T.);
#288=EDGE_CURVE('',#214,#231,#186,.T.);
#289=EDGE_CURVE('',#223,#231,#106,.T.);
#290=EDGE_CURVE('',#216,#232,#107,.T.);
#291=EDGE_CURVE('',#220,#232,#108,.T.);
#292=EDGE_CURVE('',#232,#233,#187,.T.);
#293=EDGE_CURVE('',#221,#233,#109,.T.);
#294=EDGE_CURVE('',#234,#234,#188,.T.);
#295=EDGE_CURVE('',#234,#235,#110,.T.);
#296=EDGE_CURVE('',#235,#235,#189,.T.);
#297=EDGE_CURVE('',#236,#201,#190,.T.);
#298=EDGE_CURVE('',#237,#236,#111,.T.);
#299=EDGE_CURVE('',#238,#237,#191,.T.);
#300=EDGE_CURVE('',#218,#238,#112,.T.);
#301=EDGE_CURVE('',#239,#205,#192,.T.);
#302=EDGE_CURVE('',#240,#239,#113,.T.);
#303=EDGE_CURVE('',#241,#240,#193,.T.);
#304=EDGE_CURVE('',#231,#241,#114,.T.);
#305=EDGE_CURVE('',#242,#213,#194,.T.);
#306=EDGE_CURVE('',#233,#242,#115,.T.);
#307=EDGE_CURVE('',#222,#242,#116,.T.);
#308=EDGE_CURVE('',#224,#241,#117,.T.);
#309=EDGE_CURVE('',#225,#240,#118,.T.);
#310=EDGE_CURVE('',#226,#239,#119,.T.);
#311=EDGE_CURVE('',#243,#243,#195,.T.);
#312=EDGE_CURVE('',#243,#230,#120,.T.);
#313=EDGE_CURVE('',#227,#238,#121,.T.);
#314=EDGE_CURVE('',#228,#237,#122,.T.);
#315=EDGE_CURVE('',#229,#236,#123,.T.);
#316=ORIENTED_EDGE('',*,*,#244,.F.);
#317=ORIENTED_EDGE('',*,*,#245,.T.);
#318=ORIENTED_EDGE('',*,*,#246,.F.);
#319=ORIENTED_EDGE('',*,*,#247,.F.);
#320=ORIENTED_EDGE('',*,*,#248,.F.);
#321=ORIENTED_EDGE('',*,*,#249,.F.);
#322=ORIENTED_EDGE('',*,*,#250,.F.);
#323=ORIENTED_EDGE('',*,*,#245,.F.);
#324=ORIENTED_EDGE('',*,*,#251,.F.);
#325=ORIENTED_EDGE('',*,*,#252,.T.);
#326=ORIENTED_EDGE('',*,*,#253,.F.);
#327=ORIENTED_EDGE('',*,*,#254,.F.);
#328=ORIENTED_EDGE('',*,*,#255,.F.);
#329=ORIENTED_EDGE('',*,*,#256,.F.);
#330=ORIENTED_EDGE('',*,*,#257,.F.);
#331=ORIENTED_EDGE('',*,*,#252,.F.);
#332=ORIENTED_EDGE('',*,*,#258,.F.);
#333=ORIENTED_EDGE('',*,*,#259,.T.);
#334=ORIENTED_EDGE('',*,*,#260,.F.);
#335=ORIENTED_EDGE('',*,*,#259,.F.);
#336=ORIENTED_EDGE('',*,*,#261,.F.);
#337=ORIENTED_EDGE('',*,*,#262,.T.);
#338=ORIENTED_EDGE('',*,*,#263,.F.);
#339=ORIENTED_EDGE('',*,*,#264,.F.);
#340=ORIENTED_EDGE('',*,*,#265,.F.);
#341=ORIENTED_EDGE('',*,*,#266,.F.);
#342=ORIENTED_EDGE('',*,*,#267,.F.);
#343=ORIENTED_EDGE('',*,*,#262,.F.);
#344=ORIENTED_EDGE('',*,*,#247,.T.);
#345=ORIENTED_EDGE('',*,*,#268,.T.);
#346=ORIENTED_EDGE('',*,*,#269,.F.);
#347=ORIENTED_EDGE('',*,*,#270,.T.);
#348=ORIENTED_EDGE('',*,*,#256,.T.);
#349=ORIENTED_EDGE('',*,*,#271,.T.);
#350=ORIENTED_EDGE('',*,*,#272,.F.);
#351=ORIENTED_EDGE('',*,*,#273,.T.);
#352=ORIENTED_EDGE('',*,*,#248,.T.);
#353=ORIENTED_EDGE('',*,*,#270,.F.);
#354=ORIENTED_EDGE('',*,*,#274,.F.);
#355=ORIENTED_EDGE('',*,*,#275,.F.);
#356=ORIENTED_EDGE('',*,*,#276,.T.);
#357=ORIENTED_EDGE('',*,*,#277,.F.);
#358=ORIENTED_EDGE('',*,*,#263,.T.);
#359=ORIENTED_EDGE('',*,*,#267,.T.);
#360=ORIENTED_EDGE('',*,*,#278,.F.);
#361=ORIENTED_EDGE('',*,*,#279,.F.);
#362=ORIENTED_EDGE('',*,*,#280,.F.);
#363=ORIENTED_EDGE('',*,*,#281,.F.);
#364=ORIENTED_EDGE('',*,*,#282,.F.);
#365=ORIENTED_EDGE('',*,*,#253,.T.);
#366=ORIENTED_EDGE('',*,*,#257,.T.);
#367=ORIENTED_EDGE('',*,*,#273,.F.);
#368=ORIENTED_EDGE('',*,*,#283,.T.);
#369=ORIENTED_EDGE('',*,*,#284,.F.);
#370=ORIENTED_EDGE('',*,*,#285,.T.);
#371=ORIENTED_EDGE('',*,*,#286,.F.);
#372=ORIENTED_EDGE('',*,*,#287,.F.);
#373=ORIENTED_EDGE('',*,*,#266,.T.);
#374=ORIENTED_EDGE('',*,*,#288,.T.);
#375=ORIENTED_EDGE('',*,*,#289,.F.);
#376=ORIENTED_EDGE('',*,*,#278,.T.);
#377=ORIENTED_EDGE('',*,*,#290,.T.);
#378=ORIENTED_EDGE('',*,*,#291,.F.);
#379=ORIENTED_EDGE('',*,*,#274,.T.);
#380=ORIENTED_EDGE('',*,*,#269,.T.);
#381=ORIENTED_EDGE('',*,*,#292,.T.);
#382=ORIENTED_EDGE('',*,*,#293,.F.);
#383=ORIENTED_EDGE('',*,*,#275,.T.);
#384=ORIENTED_EDGE('',*,*,#291,.T.);
#385=ORIENTED_EDGE('',*,*,#294,.F.);
#386=ORIENTED_EDGE('',*,*,#295,.T.);
#387=ORIENTED_EDGE('',*,*,#296,.F.);
#388=ORIENTED_EDGE('',*,*,#295,.F.);
#389=ORIENTED_EDGE('',*,*,#294,.T.);
#390=ORIENTED_EDGE('',*,*,#246,.T.);
#391=ORIENTED_EDGE('',*,*,#250,.T.);
#392=ORIENTED_EDGE('',*,*,#297,.F.);
#393=ORIENTED_EDGE('',*,*,#298,.F.);
#394=ORIENTED_EDGE('',*,*,#299,.F.);
#395=ORIENTED_EDGE('',*,*,#300,.F.);
#396=ORIENTED_EDGE('',*,*,#271,.F.);
#397=ORIENTED_EDGE('',*,*,#255,.T.);
#398=ORIENTED_EDGE('',*,*,#301,.F.);
#399=ORIENTED_EDGE('',*,*,#302,.F.);
#400=ORIENTED_EDGE('',*,*,#303,.F.);
#401=ORIENTED_EDGE('',*,*,#304,.F.);
#402=ORIENTED_EDGE('',*,*,#288,.F.);
#403=ORIENTED_EDGE('',*,*,#265,.T.);
#404=ORIENTED_EDGE('',*,*,#305,.F.);
#405=ORIENTED_EDGE('',*,*,#306,.F.);
#406=ORIENTED_EDGE('',*,*,#292,.F.);
#407=ORIENTED_EDGE('',*,*,#290,.F.);
#408=ORIENTED_EDGE('',*,*,#268,.F.);
#409=ORIENTED_EDGE('',*,*,#260,.T.);
#410=ORIENTED_EDGE('',*,*,#306,.T.);
#411=ORIENTED_EDGE('',*,*,#307,.F.);
#412=ORIENTED_EDGE('',*,*,#276,.F.);
#413=ORIENTED_EDGE('',*,*,#293,.T.);
#414=ORIENTED_EDGE('',*,*,#264,.T.);
#415=ORIENTED_EDGE('',*,*,#277,.T.);
#416=ORIENTED_EDGE('',*,*,#307,.T.);
#417=ORIENTED_EDGE('',*,*,#305,.T.);
#418=ORIENTED_EDGE('',*,*,#304,.T.);
#419=ORIENTED_EDGE('',*,*,#308,.F.);
#420=ORIENTED_EDGE('',*,*,#279,.T.);
#421=ORIENTED_EDGE('',*,*,#289,.T.);
#422=ORIENTED_EDGE('',*,*,#303,.T.);
#423=ORIENTED_EDGE('',*,*,#309,.F.);
#424=ORIENTED_EDGE('',*,*,#280,.T.);
#425=ORIENTED_EDGE('',*,*,#308,.T.);
#426=ORIENTED_EDGE('',*,*,#302,.T.);
#427=ORIENTED_EDGE('',*,*,#310,.F.);
#428=ORIENTED_EDGE('',*,*,#281,.T.);
#429=ORIENTED_EDGE('',*,*,#309,.T.);
#430=ORIENTED_EDGE('',*,*,#254,.T.);
#431=ORIENTED_EDGE('',*,*,#282,.T.);
#432=ORIENTED_EDGE('',*,*,#310,.T.);
#433=ORIENTED_EDGE('',*,*,#301,.T.);
#434=ORIENTED_EDGE('',*,*,#311,.T.);
#435=ORIENTED_EDGE('',*,*,#312,.T.);
#436=ORIENTED_EDGE('',*,*,#287,.T.);
#437=ORIENTED_EDGE('',*,*,#312,.F.);
#438=ORIENTED_EDGE('',*,*,#300,.T.);
#439=ORIENTED_EDGE('',*,*,#313,.F.);
#440=ORIENTED_EDGE('',*,*,#283,.F.);
#441=ORIENTED_EDGE('',*,*,#272,.T.);
#442=ORIENTED_EDGE('',*,*,#299,.T.);
#443=ORIENTED_EDGE('',*,*,#314,.F.);
#444=ORIENTED_EDGE('',*,*,#284,.T.);
#445=ORIENTED_EDGE('',*,*,#313,.T.);
#446=ORIENTED_EDGE('',*,*,#298,.T.);
#447=ORIENTED_EDGE('',*,*,#315,.F.);
#448=ORIENTED_EDGE('',*,*,#285,.F.);
#449=ORIENTED_EDGE('',*,*,#314,.T.);
#450=ORIENTED_EDGE('',*,*,#249,.T.);
#451=ORIENTED_EDGE('',*,*,#286,.T.);
#452=ORIENTED_EDGE('',*,*,#315,.T.);
#453=ORIENTED_EDGE('',*,*,#297,.T.);
#454=ORIENTED_EDGE('',*,*,#296,.T.);
#455=ORIENTED_EDGE('',*,*,#244,.T.);
#456=ORIENTED_EDGE('',*,*,#251,.T.);
#457=ORIENTED_EDGE('',*,*,#258,.T.);
#458=ORIENTED_EDGE('',*,*,#261,.T.);
#459=ORIENTED_EDGE('',*,*,#311,.F.);
#460=CYLINDRICAL_SURFACE('',#513,1.5);
#461=CYLINDRICAL_SURFACE('',#518,1.5);
#462=CYLINDRICAL_SURFACE('',#523,1.5);
#463=CYLINDRICAL_SURFACE('',#526,1.5);
#464=CYLINDRICAL_SURFACE('',#531,9.);
#465=CYLINDRICAL_SURFACE('',#534,9.);
#466=CYLINDRICAL_SURFACE('',#546,9.);
#467=CYLINDRICAL_SURFACE('',#549,3.75);
#468=CYLINDRICAL_SURFACE('',#551,11.);
#469=CYLINDRICAL_SURFACE('',#561,9.);
#470=CYLINDRICAL_SURFACE('',#563,3.75);
#471=CYLINDRICAL_SURFACE('',#565,9.);
#472=CYLINDRICAL_SURFACE('',#566,1.6);
#473=CYLINDRICAL_SURFACE('',#569,3.75);
#474=CYLINDRICAL_SURFACE('',#571,9.);
#475=ADVANCED_FACE('',(#32),#460,.F.);
#476=ADVANCED_FACE('',(#33),#461,.F.);
#477=ADVANCED_FACE('',(#34),#462,.F.);
#478=ADVANCED_FACE('',(#35),#463,.F.);
#479=ADVANCED_FACE('',(#36),#464,.T.);
#480=ADVANCED_FACE('',(#37),#465,.T.);
#481=ADVANCED_FACE('',(#38,#15),#23,.F.);
#482=ADVANCED_FACE('',(#39),#466,.T.);
#483=ADVANCED_FACE('',(#40),#24,.T.);
#484=ADVANCED_FACE('',(#41),#467,.T.);
#485=ADVANCED_FACE('',(#42),#468,.T.);
#486=ADVANCED_FACE('',(#43,#16,#17),#25,.F.);
#487=ADVANCED_FACE('',(#44),#26,.T.);
#488=ADVANCED_FACE('',(#45),#469,.T.);
#489=ADVANCED_FACE('',(#46),#27,.T.);
#490=ADVANCED_FACE('',(#47),#470,.T.);
#491=ADVANCED_FACE('',(#48),#28,.T.);
#492=ADVANCED_FACE('',(#49),#471,.T.);
#493=ADVANCED_FACE('',(#50),#472,.F.);
#494=ADVANCED_FACE('',(#51),#29,.T.);
#495=ADVANCED_FACE('',(#52),#473,.T.);
#496=ADVANCED_FACE('',(#53),#30,.T.);
#497=ADVANCED_FACE('',(#54),#474,.T.);
#498=ADVANCED_FACE('',(#55,#18,#19,#20,#21,#22),#31,.T.);
#499=CLOSED_SHELL('',(#475,#476,#477,#478,#479,#480,#481,#482,#483,#484,
#485,#486,#487,#488,#489,#490,#491,#492,#493,#494,#495,#496,#497,#498));
#500=DERIVED_UNIT_ELEMENT(#502,1.);
#501=DERIVED_UNIT_ELEMENT(#881,-3.);
#502=(
MASS_UNIT()
NAMED_UNIT(*)
SI_UNIT(.KILO.,.GRAM.)
);
#503=DERIVED_UNIT((#500,#501));
#504=MEASURE_REPRESENTATION_ITEM('density measure',
POSITIVE_RATIO_MEASURE(7850.),#503);
#505=PROPERTY_DEFINITION_REPRESENTATION(#510,#507);
#506=PROPERTY_DEFINITION_REPRESENTATION(#511,#508);
#507=REPRESENTATION('material name',(#509),#878);
#508=REPRESENTATION('density',(#504),#878);
#509=DESCRIPTIVE_REPRESENTATION_ITEM('\X2\94A2\X0\','\X2\94A2\X0\');
#510=PROPERTY_DEFINITION('material property','material name',#888);
#511=PROPERTY_DEFINITION('material property','density of part',#888);
#512=AXIS2_PLACEMENT_3D('',#731,#573,#574);
#513=AXIS2_PLACEMENT_3D('',#732,#575,#576);
#514=AXIS2_PLACEMENT_3D('',#734,#577,#578);
#515=AXIS2_PLACEMENT_3D('',#738,#580,#581);
#516=AXIS2_PLACEMENT_3D('',#742,#583,#584);
#517=AXIS2_PLACEMENT_3D('',#745,#586,#587);
#518=AXIS2_PLACEMENT_3D('',#746,#588,#589);
#519=AXIS2_PLACEMENT_3D('',#748,#590,#591);
#520=AXIS2_PLACEMENT_3D('',#752,#593,#594);
#521=AXIS2_PLACEMENT_3D('',#756,#596,#597);
#522=AXIS2_PLACEMENT_3D('',#759,#599,#600);
#523=AXIS2_PLACEMENT_3D('',#760,#601,#602);
#524=AXIS2_PLACEMENT_3D('',#762,#603,#604);
#525=AXIS2_PLACEMENT_3D('',#765,#606,#607);
#526=AXIS2_PLACEMENT_3D('',#766,#608,#609);
#527=AXIS2_PLACEMENT_3D('',#768,#610,#611);
#528=AXIS2_PLACEMENT_3D('',#772,#613,#614);
#529=AXIS2_PLACEMENT_3D('',#776,#616,#617);
#530=AXIS2_PLACEMENT_3D('',#779,#619,#620);
#531=AXIS2_PLACEMENT_3D('',#780,#621,#622);
#532=AXIS2_PLACEMENT_3D('',#782,#623,#624);
#533=AXIS2_PLACEMENT_3D('',#785,#626,#627);
#534=AXIS2_PLACEMENT_3D('',#786,#628,#629);
#535=AXIS2_PLACEMENT_3D('',#788,#630,#631);
#536=AXIS2_PLACEMENT_3D('',#791,#633,#634);
#537=AXIS2_PLACEMENT_3D('',#792,#635,#636);
#538=AXIS2_PLACEMENT_3D('',#796,#638,#639);
#539=AXIS2_PLACEMENT_3D('',#799,#641,#642);
#540=AXIS2_PLACEMENT_3D('',#801,#643,#644);
#541=AXIS2_PLACEMENT_3D('',#805,#646,#647);
#542=AXIS2_PLACEMENT_3D('',#808,#649,#650);
#543=AXIS2_PLACEMENT_3D('',#812,#652,#653);
#544=AXIS2_PLACEMENT_3D('',#815,#655,#656);
#545=AXIS2_PLACEMENT_3D('',#817,#657,#658);
#546=AXIS2_PLACEMENT_3D('',#818,#659,#660);
#547=AXIS2_PLACEMENT_3D('',#820,#661,#662);
#548=AXIS2_PLACEMENT_3D('',#822,#664,#665);
#549=AXIS2_PLACEMENT_3D('',#826,#668,#669);
#550=AXIS2_PLACEMENT_3D('',#828,#670,#671);
#551=AXIS2_PLACEMENT_3D('',#830,#673,#674);
#552=AXIS2_PLACEMENT_3D('',#832,#675,#676);
#553=AXIS2_PLACEMENT_3D('',#835,#678,#679);
#554=AXIS2_PLACEMENT_3D('',#836,#680,#681);
#555=AXIS2_PLACEMENT_3D('',#838,#682,#683);
#556=AXIS2_PLACEMENT_3D('',#842,#685,#686);
#557=AXIS2_PLACEMENT_3D('',#845,#688,#689);
#558=AXIS2_PLACEMENT_3D('',#849,#691,#692);
#559=AXIS2_PLACEMENT_3D('',#852,#694,#695);
#560=AXIS2_PLACEMENT_3D('',#854,#697,#698);
#561=AXIS2_PLACEMENT_3D('',#856,#700,#701);
#562=AXIS2_PLACEMENT_3D('',#857,#702,#703);
#563=AXIS2_PLACEMENT_3D('',#859,#705,#706);
#564=AXIS2_PLACEMENT_3D('',#861,#708,#709);
#565=AXIS2_PLACEMENT_3D('',#863,#711,#712);
#566=AXIS2_PLACEMENT_3D('',#864,#713,#714);
#567=AXIS2_PLACEMENT_3D('',#866,#715,#716);
#568=AXIS2_PLACEMENT_3D('',#868,#718,#719);
#569=AXIS2_PLACEMENT_3D('',#870,#721,#722);
#570=AXIS2_PLACEMENT_3D('',#872,#724,#725);
#571=AXIS2_PLACEMENT_3D('',#874,#727,#728);
#572=AXIS2_PLACEMENT_3D('',#875,#729,#730);
#573=DIRECTION('axis',(0.,0.,1.));
#574=DIRECTION('refdir',(1.,0.,0.));
#575=DIRECTION('center_axis',(-9.17539689772856E-17,0.,-1.));
#576=DIRECTION('ref_axis',(-1.,0.,9.17539689772856E-17));
#577=DIRECTION('center_axis',(0.,0.,-1.));
#578=DIRECTION('ref_axis',(-1.,0.,9.17539689772856E-17));
#579=DIRECTION('',(-9.17539689772856E-17,0.,-1.));
#580=DIRECTION('center_axis',(0.,0.,1.));
#581=DIRECTION('ref_axis',(-1.,0.,9.17539689772856E-17));
#582=DIRECTION('',(9.17539689772856E-17,0.,1.));
#583=DIRECTION('center_axis',(0.,0.,1.));
#584=DIRECTION('ref_axis',(-1.,0.,9.17539689772856E-17));
#585=DIRECTION('',(-9.17539689772856E-17,0.,-1.));
#586=DIRECTION('center_axis',(0.,0.,1.));
#587=DIRECTION('ref_axis',(-1.,0.,9.17539689772856E-17));
#588=DIRECTION('center_axis',(-4.58769844886428E-17,0.,-1.));
#589=DIRECTION('ref_axis',(-1.,0.,4.58769844886428E-17));
#590=DIRECTION('center_axis',(0.,0.,-1.));
#591=DIRECTION('ref_axis',(-1.,0.,4.58769844886428E-17));
#592=DIRECTION('',(-4.58769844886428E-17,0.,-1.));
#593=DIRECTION('center_axis',(0.,0.,1.));
#594=DIRECTION('ref_axis',(-1.,0.,4.58769844886428E-17));
#595=DIRECTION('',(-4.58769844886428E-17,0.,-1.));
#596=DIRECTION('center_axis',(0.,0.,1.));
#597=DIRECTION('ref_axis',(-1.,0.,4.58769844886428E-17));
#598=DIRECTION('',(4.58769844886428E-17,0.,1.));
#599=DIRECTION('center_axis',(0.,0.,1.));
#600=DIRECTION('ref_axis',(-1.,0.,4.58769844886428E-17));
#601=DIRECTION('center_axis',(-9.17539689772856E-17,0.,-1.));
#602=DIRECTION('ref_axis',(-1.,0.,9.17539689772856E-17));
#603=DIRECTION('center_axis',(0.,0.,-1.));
#604=DIRECTION('ref_axis',(-1.,0.,9.17539689772856E-17));
#605=DIRECTION('',(-9.17539689772856E-17,0.,-1.));
#606=DIRECTION('center_axis',(0.,0.,1.));
#607=DIRECTION('ref_axis',(-1.,0.,9.17539689772856E-17));
#608=DIRECTION('center_axis',(-4.58769844886428E-17,0.,-1.));
#609=DIRECTION('ref_axis',(-1.,0.,4.58769844886428E-17));
#610=DIRECTION('center_axis',(0.,0.,-1.));
#611=DIRECTION('ref_axis',(-1.,0.,4.58769844886428E-17));
#612=DIRECTION('',(-4.58769844886428E-17,0.,-1.));
#613=DIRECTION('center_axis',(0.,0.,1.));
#614=DIRECTION('ref_axis',(-1.,0.,4.58769844886428E-17));
#615=DIRECTION('',(-4.58769844886428E-17,0.,-1.));
#616=DIRECTION('center_axis',(0.,0.,1.));
#617=DIRECTION('ref_axis',(-1.,0.,4.58769844886428E-17));
#618=DIRECTION('',(4.58769844886428E-17,0.,1.));
#619=DIRECTION('center_axis',(0.,0.,1.));
#620=DIRECTION('ref_axis',(-1.,0.,4.58769844886428E-17));
#621=DIRECTION('center_axis',(0.,0.,1.));
#622=DIRECTION('ref_axis',(0.993807989999907,0.111111111111111,0.));
#623=DIRECTION('center_axis',(0.,0.,-1.));
#624=DIRECTION('ref_axis',(0.993807989999907,0.111111111111111,0.));
#625=DIRECTION('',(0.,0.,1.));
#626=DIRECTION('center_axis',(0.,0.,1.));
#627=DIRECTION('ref_axis',(0.993807989999907,0.111111111111111,0.));
#628=DIRECTION('center_axis',(0.,0.,1.));
#629=DIRECTION('ref_axis',(-0.111111111111111,0.993807989999907,0.));
#630=DIRECTION('center_axis',(0.,0.,-1.));
#631=DIRECTION('ref_axis',(-0.111111111111111,0.993807989999907,0.));
#632=DIRECTION('',(0.,0.,1.));
#633=DIRECTION('center_axis',(0.,0.,1.));
#634=DIRECTION('ref_axis',(-0.111111111111111,0.993807989999907,0.));
#635=DIRECTION('center_axis',(0.,0.,1.));
#636=DIRECTION('ref_axis',(-1.,0.,0.));
#637=DIRECTION('',(1.,-7.78559488468531E-17,0.));
#638=DIRECTION('center_axis',(0.,0.,1.));
#639=DIRECTION('ref_axis',(-0.293333333333333,-0.956010227746312,0.));
#640=DIRECTION('',(0.,-1.,0.));
#641=DIRECTION('center_axis',(0.,0.,1.));
#642=DIRECTION('ref_axis',(-0.993807989999907,-0.111111111111111,0.));
#643=DIRECTION('center_axis',(0.,0.,1.));
#644=DIRECTION('ref_axis',(-0.993807989999907,-0.111111111111111,0.));
#645=DIRECTION('',(-1.,-1.03807931795804E-16,0.));
#646=DIRECTION('center_axis',(0.,0.,1.));
#647=DIRECTION('ref_axis',(-0.956010227746312,0.293333333333333,0.));
#648=DIRECTION('',(1.,-5.19039658979021E-17,0.));
#649=DIRECTION('center_axis',(0.,0.,1.));
#650=DIRECTION('ref_axis',(-0.111111111111111,0.993807989999907,0.));
#651=DIRECTION('',(-2.59519829489511E-17,-1.,0.));
#652=DIRECTION('center_axis',(0.,0.,1.));
#653=DIRECTION('ref_axis',(0.293333333333333,0.956010227746312,0.));
#654=DIRECTION('',(0.,1.,0.));
#655=DIRECTION('center_axis',(0.,0.,1.));
#656=DIRECTION('ref_axis',(0.993807989999907,0.111111111111111,0.));
#657=DIRECTION('center_axis',(0.,0.,-1.));
#658=DIRECTION('ref_axis',(-1.,0.,0.));
#659=DIRECTION('center_axis',(0.,0.,1.));
#660=DIRECTION('ref_axis',(-0.993807989999907,-0.111111111111111,0.));
#661=DIRECTION('center_axis',(0.,0.,-1.));
#662=DIRECTION('ref_axis',(-0.993807989999907,-0.111111111111111,0.));
#663=DIRECTION('',(0.,0.,1.));
#664=DIRECTION('center_axis',(-7.78559488468531E-17,-1.,0.));
#665=DIRECTION('ref_axis',(1.,-7.78559488468531E-17,0.));
#666=DIRECTION('',(-1.,7.78559488468531E-17,6.12323399573677E-17));
#667=DIRECTION('',(0.,0.,1.));
#668=DIRECTION('center_axis',(0.,0.,1.));
#669=DIRECTION('ref_axis',(-0.293333333333333,-0.956010227746312,0.));
#670=DIRECTION('center_axis',(-6.12323399573677E-17,0.,-1.));
#671=DIRECTION('ref_axis',(-0.293333333333333,-0.956010227746312,0.));
#672=DIRECTION('',(0.,0.,1.));
#673=DIRECTION('center_axis',(0.,0.,-1.));
#674=DIRECTION('ref_axis',(-1.,0.,0.));
#675=DIRECTION('center_axis',(0.,0.,-1.));
#676=DIRECTION('ref_axis',(-1.,0.,0.));
#677=DIRECTION('',(0.,0.,1.));
#678=DIRECTION('center_axis',(0.,0.,1.));
#679=DIRECTION('ref_axis',(-1.,0.,0.));
#680=DIRECTION('center_axis',(0.,0.,1.));
#681=DIRECTION('ref_axis',(-1.,0.,0.));
#682=DIRECTION('center_axis',(0.,0.,-1.));
#683=DIRECTION('ref_axis',(0.993807989999907,0.111111111111111,0.));
#684=DIRECTION('',(0.,1.,0.));
#685=DIRECTION('center_axis',(0.,0.,-1.));
#686=DIRECTION('ref_axis',(0.293333333333333,0.956010227746312,0.));
#687=DIRECTION('',(-2.59519829489511E-17,-1.,0.));
#688=DIRECTION('center_axis',(0.,0.,-1.));
#689=DIRECTION('ref_axis',(-0.111111111111111,0.993807989999907,0.));
#690=DIRECTION('',(-1.,5.19039658979021E-17,0.));
#691=DIRECTION('center_axis',(0.,0.,-1.));
#692=DIRECTION('ref_axis',(-0.956010227746312,0.293333333333333,0.));
#693=DIRECTION('',(1.,1.03807931795804E-16,0.));
#694=DIRECTION('center_axis',(0.,0.,-1.));
#695=DIRECTION('ref_axis',(-0.993807989999907,-0.111111111111111,0.));
#696=DIRECTION('',(0.,-1.,0.));
#697=DIRECTION('center_axis',(1.,0.,0.));
#698=DIRECTION('ref_axis',(0.,1.,0.));
#699=DIRECTION('',(0.,0.,1.));
#700=DIRECTION('center_axis',(0.,0.,1.));
#701=DIRECTION('ref_axis',(-0.993807989999907,-0.111111111111111,0.));
#702=DIRECTION('center_axis',(-1.03807931795804E-16,1.,0.));
#703=DIRECTION('ref_axis',(-1.,-1.03807931795804E-16,0.));
#704=DIRECTION('',(0.,0.,1.));
#705=DIRECTION('center_axis',(0.,0.,1.));
#706=DIRECTION('ref_axis',(-0.956010227746312,0.293333333333333,0.));
#707=DIRECTION('',(0.,0.,1.));
#708=DIRECTION('center_axis',(-5.19039658979021E-17,-1.,0.));
#709=DIRECTION('ref_axis',(1.,-5.19039658979021E-17,0.));
#710=DIRECTION('',(0.,0.,1.));
#711=DIRECTION('center_axis',(0.,0.,1.));
#712=DIRECTION('ref_axis',(-0.111111111111111,0.993807989999907,0.));
#713=DIRECTION('center_axis',(0.,0.,1.));
#714=DIRECTION('ref_axis',(-1.,0.,0.));
#715=DIRECTION('center_axis',(0.,0.,1.));
#716=DIRECTION('ref_axis',(-1.,0.,0.));
#717=DIRECTION('',(0.,0.,-1.));
#718=DIRECTION('center_axis',(1.,-2.59519829489511E-17,0.));
#719=DIRECTION('ref_axis',(2.59519829489511E-17,1.,0.));
#720=DIRECTION('',(0.,0.,1.));
#721=DIRECTION('center_axis',(0.,0.,1.));
#722=DIRECTION('ref_axis',(0.293333333333333,0.956010227746312,0.));
#723=DIRECTION('',(0.,0.,1.));
#724=DIRECTION('center_axis',(-1.,0.,0.));
#725=DIRECTION('ref_axis',(0.,-1.,0.));
#726=DIRECTION('',(0.,0.,1.));
#727=DIRECTION('center_axis',(0.,0.,1.));
#728=DIRECTION('ref_axis',(0.993807989999907,0.111111111111111,0.));
#729=DIRECTION('center_axis',(0.,0.,1.));
#730=DIRECTION('ref_axis',(-1.,0.,0.));
#731=CARTESIAN_POINT('',(0.,0.,0.));
#732=CARTESIAN_POINT('Origin',(5.65685424949238,5.65685424949238,32.));
#733=CARTESIAN_POINT('',(7.15685424949238,5.65685424949238,32.));
#734=CARTESIAN_POINT('Origin',(5.65685424949238,5.65685424949238,32.));
#735=CARTESIAN_POINT('',(7.15685424949238,5.65685424949238,31.));
#736=CARTESIAN_POINT('',(7.15685424949238,5.65685424949238,32.));
#737=CARTESIAN_POINT('',(7.14542210936687,5.47201451743059,31.));
#738=CARTESIAN_POINT('Origin',(5.65685424949238,5.65685424949238,31.));
#739=CARTESIAN_POINT('',(7.14542210936687,5.47201451743059,21.));
#740=CARTESIAN_POINT('',(7.14542210936687,5.47201451743058,32.));
#741=CARTESIAN_POINT('',(5.47201451743059,7.14542210936687,21.));
#742=CARTESIAN_POINT('Origin',(5.65685424949238,5.65685424949238,21.));
#743=CARTESIAN_POINT('',(5.47201451743059,7.14542210936687,31.));
#744=CARTESIAN_POINT('',(5.47201451743059,7.14542210936687,32.));
#745=CARTESIAN_POINT('Origin',(5.65685424949238,5.65685424949238,31.));
#746=CARTESIAN_POINT('Origin',(-5.65685424949238,5.65685424949238,32.));
#747=CARTESIAN_POINT('',(-4.15685424949238,5.65685424949238,32.));
#748=CARTESIAN_POINT('Origin',(-5.65685424949238,5.65685424949238,32.));
#749=CARTESIAN_POINT('',(-4.15685424949238,5.65685424949238,21.));
#750=CARTESIAN_POINT('',(-4.15685424949238,5.65685424949238,32.));
#751=CARTESIAN_POINT('',(-7.14542210936687,5.47201451743059,21.));
#752=CARTESIAN_POINT('Origin',(-5.65685424949238,5.65685424949238,21.));
#753=CARTESIAN_POINT('',(-7.14542210936687,5.47201451743059,31.));
#754=CARTESIAN_POINT('',(-7.14542210936687,5.47201451743059,32.));
#755=CARTESIAN_POINT('',(-5.47201451743059,7.14542210936687,31.));
#756=CARTESIAN_POINT('Origin',(-5.65685424949238,5.65685424949238,31.));
#757=CARTESIAN_POINT('',(-5.47201451743059,7.14542210936687,21.));
#758=CARTESIAN_POINT('',(-5.47201451743059,7.14542210936687,32.));
#759=CARTESIAN_POINT('Origin',(-5.65685424949238,5.65685424949238,21.));
#760=CARTESIAN_POINT('Origin',(5.65685424949238,-5.65685424949238,32.));
#761=CARTESIAN_POINT('',(7.15685424949238,-5.65685424949238,32.));
#762=CARTESIAN_POINT('Origin',(5.65685424949238,-5.65685424949238,32.));
#763=CARTESIAN_POINT('',(7.15685424949238,-5.65685424949238,31.));
#764=CARTESIAN_POINT('',(7.15685424949238,-5.65685424949238,32.));
#765=CARTESIAN_POINT('Origin',(5.65685424949238,-5.65685424949238,31.));
#766=CARTESIAN_POINT('Origin',(-5.65685424949238,-5.65685424949238,32.));
#767=CARTESIAN_POINT('',(-4.15685424949238,-5.65685424949238,32.));
#768=CARTESIAN_POINT('Origin',(-5.65685424949238,-5.65685424949238,32.));
#769=CARTESIAN_POINT('',(-4.15685424949238,-5.65685424949238,21.));
#770=CARTESIAN_POINT('',(-4.15685424949238,-5.65685424949238,32.));
#771=CARTESIAN_POINT('',(-5.47201451743059,-7.14542210936687,21.));
#772=CARTESIAN_POINT('Origin',(-5.65685424949238,-5.65685424949238,21.));
#773=CARTESIAN_POINT('',(-5.47201451743059,-7.14542210936687,31.));
#774=CARTESIAN_POINT('',(-5.47201451743059,-7.14542210936687,32.));
#775=CARTESIAN_POINT('',(-7.14542210936687,-5.47201451743059,31.));
#776=CARTESIAN_POINT('Origin',(-5.65685424949238,-5.65685424949238,31.));
#777=CARTESIAN_POINT('',(-7.14542210936687,-5.47201451743059,21.));
#778=CARTESIAN_POINT('',(-7.14542210936687,-5.47201451743059,32.));
#779=CARTESIAN_POINT('Origin',(-5.65685424949238,-5.65685424949238,21.));
#780=CARTESIAN_POINT('Origin',(0.,0.,21.));
#781=CARTESIAN_POINT('',(8.93252483903628,1.1,31.));
#782=CARTESIAN_POINT('Origin',(0.,0.,31.));
#783=CARTESIAN_POINT('',(8.93252483903628,1.1,21.));
#784=CARTESIAN_POINT('',(8.93252483903628,1.1,21.));
#785=CARTESIAN_POINT('Origin',(0.,0.,21.));
#786=CARTESIAN_POINT('Origin',(0.,0.,21.));
#787=CARTESIAN_POINT('',(-1.1,8.93252483903628,31.));
#788=CARTESIAN_POINT('Origin',(0.,0.,31.));
#789=CARTESIAN_POINT('',(-1.1,8.93252483903628,21.));
#790=CARTESIAN_POINT('',(-1.1,8.93252483903628,21.));
#791=CARTESIAN_POINT('Origin',(0.,0.,21.));
#792=CARTESIAN_POINT('Origin',(1.11022302462516E-15,1.11022302462516E-15,
21.));
#793=CARTESIAN_POINT('',(3.58503835404867,1.1,21.));
#794=CARTESIAN_POINT('',(3.58503835404867,1.1,21.));
#795=CARTESIAN_POINT('',(-1.1,-3.58503835404867,21.));
#796=CARTESIAN_POINT('Origin',(0.,0.,21.));
#797=CARTESIAN_POINT('',(-1.1,-8.93252483903628,21.));
#798=CARTESIAN_POINT('',(-1.1,-3.58503835404867,21.));
#799=CARTESIAN_POINT('Origin',(0.,0.,21.));
#800=CARTESIAN_POINT('',(-8.93252483903628,-1.1,21.));
#801=CARTESIAN_POINT('Origin',(0.,0.,21.));
#802=CARTESIAN_POINT('',(-3.58503835404867,-1.1,21.));
#803=CARTESIAN_POINT('',(-3.58503835404867,-1.1,21.));
#804=CARTESIAN_POINT('',(-3.58503835404867,1.1,21.));
#805=CARTESIAN_POINT('Origin',(0.,0.,21.));
#806=CARTESIAN_POINT('',(-8.93252483903628,1.1,21.));
#807=CARTESIAN_POINT('',(-8.93252483903628,1.1,21.));
#808=CARTESIAN_POINT('Origin',(0.,0.,21.));
#809=CARTESIAN_POINT('',(-1.1,3.58503835404867,21.));
#810=CARTESIAN_POINT('',(-1.1,8.93252483903628,21.));
#811=CARTESIAN_POINT('',(1.1,3.58503835404867,21.));
#812=CARTESIAN_POINT('Origin',(0.,0.,21.));
#813=CARTESIAN_POINT('',(1.1,8.93252483903628,21.));
#814=CARTESIAN_POINT('',(1.1,3.58503835404867,21.));
#815=CARTESIAN_POINT('Origin',(0.,0.,21.));
#816=CARTESIAN_POINT('',(1.6,1.95943487863577E-16,21.));
#817=CARTESIAN_POINT('Origin',(0.,0.,21.));
#818=CARTESIAN_POINT('Origin',(0.,0.,21.));
#819=CARTESIAN_POINT('',(-8.93252483903628,-1.1,31.));
#820=CARTESIAN_POINT('Origin',(0.,0.,31.));
#821=CARTESIAN_POINT('',(-8.93252483903628,-1.1,21.));
#822=CARTESIAN_POINT('Origin',(3.58503835404867,1.1,21.));
#823=CARTESIAN_POINT('',(3.58503835404867,1.1,31.));
#824=CARTESIAN_POINT('',(1.79251917702434,1.1,31.));
#825=CARTESIAN_POINT('',(3.58503835404867,1.1,21.));
#826=CARTESIAN_POINT('Origin',(0.,0.,21.));
#827=CARTESIAN_POINT('',(-1.1,-3.58503835404867,31.));
#828=CARTESIAN_POINT('Origin',(0.,0.,31.));
#829=CARTESIAN_POINT('',(-1.1,-3.58503835404867,21.));
#830=CARTESIAN_POINT('Origin',(0.,0.,32.));
#831=CARTESIAN_POINT('',(11.,-1.34711147906209E-15,31.));
#832=CARTESIAN_POINT('Origin',(0.,0.,31.));
#833=CARTESIAN_POINT('',(11.,-1.34711147906209E-15,32.));
#834=CARTESIAN_POINT('',(11.,-1.34711147906209E-15,32.));
#835=CARTESIAN_POINT('Origin',(0.,0.,32.));
#836=CARTESIAN_POINT('Origin',(0.,0.,31.));
#837=CARTESIAN_POINT('',(1.1,8.93252483903628,31.));
#838=CARTESIAN_POINT('Origin',(0.,0.,31.));
#839=CARTESIAN_POINT('',(1.1,3.58503835404867,31.));
#840=CARTESIAN_POINT('',(1.1,4.46626241951814,31.));
#841=CARTESIAN_POINT('',(-1.1,3.58503835404867,31.));
#842=CARTESIAN_POINT('Origin',(0.,0.,31.));
#843=CARTESIAN_POINT('',(-1.1,1.79251917702433,31.));
#844=CARTESIAN_POINT('',(-8.93252483903628,1.1,31.));
#845=CARTESIAN_POINT('Origin',(0.,0.,31.));
#846=CARTESIAN_POINT('',(-3.58503835404867,1.1,31.));
#847=CARTESIAN_POINT('',(-4.46626241951814,1.1,31.));
#848=CARTESIAN_POINT('',(-3.58503835404867,-1.1,31.));
#849=CARTESIAN_POINT('Origin',(0.,0.,31.));
#850=CARTESIAN_POINT('',(-1.79251917702434,-1.1,31.));
#851=CARTESIAN_POINT('',(-1.1,-8.93252483903628,31.));
#852=CARTESIAN_POINT('Origin',(0.,0.,31.));
#853=CARTESIAN_POINT('',(-1.1,-4.46626241951814,31.));
#854=CARTESIAN_POINT('Origin',(-1.1,-8.93252483903628,21.));
#855=CARTESIAN_POINT('',(-1.1,-8.93252483903628,21.));
#856=CARTESIAN_POINT('Origin',(0.,0.,21.));
#857=CARTESIAN_POINT('Origin',(-3.58503835404867,-1.1,21.));
#858=CARTESIAN_POINT('',(-3.58503835404867,-1.1,21.));
#859=CARTESIAN_POINT('Origin',(0.,0.,21.));
#860=CARTESIAN_POINT('',(-3.58503835404867,1.1,21.));
#861=CARTESIAN_POINT('Origin',(-8.93252483903628,1.1,21.));
#862=CARTESIAN_POINT('',(-8.93252483903628,1.1,21.));
#863=CARTESIAN_POINT('Origin',(0.,0.,21.));
#864=CARTESIAN_POINT('Origin',(0.,0.,21.));
#865=CARTESIAN_POINT('',(1.6,1.95943487863577E-16,32.));
#866=CARTESIAN_POINT('Origin',(0.,0.,32.));
#867=CARTESIAN_POINT('',(1.6,1.95943487863577E-16,21.));
#868=CARTESIAN_POINT('Origin',(-1.1,3.58503835404867,21.));
#869=CARTESIAN_POINT('',(-1.1,3.58503835404867,21.));
#870=CARTESIAN_POINT('Origin',(0.,0.,21.));
#871=CARTESIAN_POINT('',(1.1,3.58503835404867,21.));
#872=CARTESIAN_POINT('Origin',(1.1,8.93252483903628,21.));
#873=CARTESIAN_POINT('',(1.1,8.93252483903628,21.));
#874=CARTESIAN_POINT('Origin',(0.,0.,21.));
#875=CARTESIAN_POINT('Origin',(1.11022302462516E-15,1.11022302462516E-15,
32.));
#876=UNCERTAINTY_MEASURE_WITH_UNIT(LENGTH_MEASURE(0.01),#880,
'DISTANCE_ACCURACY_VALUE',
'Maximum model space distance between geometric entities at asserted c
onnectivities');
#877=UNCERTAINTY_MEASURE_WITH_UNIT(LENGTH_MEASURE(0.01),#880,
'DISTANCE_ACCURACY_VALUE',
'Maximum model space distance between geometric entities at asserted c
onnectivities');
#878=(
GEOMETRIC_REPRESENTATION_CONTEXT(3)
GLOBAL_UNCERTAINTY_ASSIGNED_CONTEXT((#876))
GLOBAL_UNIT_ASSIGNED_CONTEXT((#880,#882,#883))
REPRESENTATION_CONTEXT('','3D')
);
#879=(
GEOMETRIC_REPRESENTATION_CONTEXT(3)
GLOBAL_UNCERTAINTY_ASSIGNED_CONTEXT((#877))
GLOBAL_UNIT_ASSIGNED_CONTEXT((#880,#882,#883))
REPRESENTATION_CONTEXT('','3D')
);
#880=(
LENGTH_UNIT()
NAMED_UNIT(*)
SI_UNIT(.MILLI.,.METRE.)
);
#881=(
LENGTH_UNIT()
NAMED_UNIT(*)
SI_UNIT($,.METRE.)
);
#882=(
NAMED_UNIT(*)
PLANE_ANGLE_UNIT()
SI_UNIT($,.RADIAN.)
);
#883=(
NAMED_UNIT(*)
SI_UNIT($,.STERADIAN.)
SOLID_ANGLE_UNIT()
);
#884=SHAPE_DEFINITION_REPRESENTATION(#885,#886);
#885=PRODUCT_DEFINITION_SHAPE('',$,#888);
#886=SHAPE_REPRESENTATION('',(#512),#878);
#887=PRODUCT_DEFINITION_CONTEXT('part definition',#892,'design');
#888=PRODUCT_DEFINITION('\X2\65CB8F6C7535673A7AEF\X0\',
'\X2\65CB8F6C7535673A7AEF\X0\',#889,#887);
#889=PRODUCT_DEFINITION_FORMATION('',$,#894);
#890=PRODUCT_RELATED_PRODUCT_CATEGORY('\X2\65CB8F6C7535673A7AEF\X0\',
'\X2\65CB8F6C7535673A7AEF\X0\',(#894));
#891=APPLICATION_PROTOCOL_DEFINITION('international standard',
'automotive_design',2009,#892);
#892=APPLICATION_CONTEXT(
'Core Data for Automotive Mechanical Design Process');
#893=PRODUCT_CONTEXT('part definition',#892,'mechanical');
#894=PRODUCT('\X2\65CB8F6C7535673A7AEF\X0\','\X2\65CB8F6C7535673A7AEF\X0\',
$,(#893));
#895=PRESENTATION_STYLE_ASSIGNMENT((#897));
#896=PRESENTATION_STYLE_ASSIGNMENT((#898));
#897=SURFACE_STYLE_USAGE(.BOTH.,#899);
#898=SURFACE_STYLE_USAGE(.BOTH.,#900);
#899=SURFACE_SIDE_STYLE('',(#901));
#900=SURFACE_SIDE_STYLE('',(#902));
#901=SURFACE_STYLE_FILL_AREA(#903);
#902=SURFACE_STYLE_FILL_AREA(#904);
#903=FILL_AREA_STYLE('\X2\94A2\X0\ - \X2\7F0E5149\X0\',(#905));
#904=FILL_AREA_STYLE(
'PA 11 - \X2\5C3C9F99\X0\ - HP 11-30 (\X2\5E266709\X0\ EOS P 396 3D \X2\62535370673A\X0\)',
(#906));
#905=FILL_AREA_STYLE_COLOUR('\X2\94A2\X0\ - \X2\7F0E5149\X0\',#907);
#906=FILL_AREA_STYLE_COLOUR(
'PA 11 - \X2\5C3C9F99\X0\ - HP 11-30 (\X2\5E266709\X0\ EOS P 396 3D \X2\62535370673A\X0\)',
#908);
#907=COLOUR_RGB('\X2\94A2\X0\ - \X2\7F0E5149\X0\',0.627450980392157,0.627450980392157,
0.627450980392157);
#908=COLOUR_RGB(
'PA 11 - \X2\5C3C9F99\X0\ - HP 11-30 (\X2\5E266709\X0\ EOS P 396 3D \X2\62535370673A\X0\)',
0.247058823529412,0.247058823529412,0.247058823529412);
ENDSEC;
END-ISO-10303-21;
