ISO-10303-21;
HEADER;
/* Generated by software containing ST-Developer
 * from STEP Tools, Inc. (www.steptools.com) 
 */

FILE_DESCRIPTION(
/* description */ (''),
/* implementation_level */ '2;1');

FILE_NAME(
/* name */ '',
/* time_stamp */ '2025-10-06T16:28:18+08:00',
/* author */ (''),
/* organization */ (''),
/* preprocessor_version */ 'ST-DEVELOPER v20.1',
/* originating_system */ 'Autodesk Translation Framework v14.17.0.0',
/* authorisation */ '');

FILE_SCHEMA (('AUTOMOTIVE_DESIGN { 1 0 10303 214 3 1 1 }'));
ENDSEC;

DATA;
#10=MECHANICAL_DESIGN_GEOMETRIC_PRESENTATION_REPRESENTATION('',(#13),#469);
#11=SHAPE_REPRESENTATION_RELATIONSHIP('SRR','None',#476,#12);
#12=ADVANCED_BREP_SHAPE_REPRESENTATION('',(#14),#468);
#13=STYLED_ITEM('',(#486),#14);
#14=MANIFOLD_SOLID_BREP('\X2\5B9E4F53\X0\1',#183);
#15=PLANE('',#205);
#16=PLANE('',#206);
#17=PLANE('',#208);
#18=PLANE('',#210);
#19=PLANE('',#215);
#20=FACE_BOUND('',#49,.T.);
#21=FACE_BOUND('',#51,.T.);
#22=FACE_BOUND('',#53,.T.);
#23=FACE_BOUND('',#55,.T.);
#24=FACE_BOUND('',#59,.T.);
#25=FACE_BOUND('',#61,.T.);
#26=FACE_BOUND('',#63,.T.);
#27=CIRCLE('',#200,1.6);
#28=CIRCLE('',#201,1.6);
#29=CIRCLE('',#203,3.5);
#30=CIRCLE('',#204,3.5);
#31=CIRCLE('',#207,9.);
#32=CIRCLE('',#209,6.25);
#33=CIRCLE('',#212,6.25);
#34=CIRCLE('',#214,9.);
#35=FACE_OUTER_BOUND('',#46,.T.);
#36=FACE_OUTER_BOUND('',#47,.T.);
#37=FACE_OUTER_BOUND('',#48,.T.);
#38=FACE_OUTER_BOUND('',#50,.T.);
#39=FACE_OUTER_BOUND('',#52,.T.);
#40=FACE_OUTER_BOUND('',#54,.T.);
#41=FACE_OUTER_BOUND('',#56,.T.);
#42=FACE_OUTER_BOUND('',#57,.T.);
#43=FACE_OUTER_BOUND('',#58,.T.);
#44=FACE_OUTER_BOUND('',#60,.T.);
#45=FACE_OUTER_BOUND('',#62,.T.);
#46=EDGE_LOOP('',(#122,#123,#124,#125,#126,#127));
#47=EDGE_LOOP('',(#128,#129,#130,#131,#132,#133));
#48=EDGE_LOOP('',(#134,#135,#136,#137));
#49=EDGE_LOOP('',(#138,#139));
#50=EDGE_LOOP('',(#140,#141,#142,#143));
#51=EDGE_LOOP('',(#144,#145));
#52=EDGE_LOOP('',(#146));
#53=EDGE_LOOP('',(#147));
#54=EDGE_LOOP('',(#148));
#55=EDGE_LOOP('',(#149));
#56=EDGE_LOOP('',(#150));
#57=EDGE_LOOP('',(#151));
#58=EDGE_LOOP('',(#152,#153,#154,#155));
#59=EDGE_LOOP('',(#156,#157));
#60=EDGE_LOOP('',(#158,#159,#160,#161));
#61=EDGE_LOOP('',(#162,#163));
#62=EDGE_LOOP('',(#164));
#63=EDGE_LOOP('',(#165));
#64=LINE('',#285,#70);
#65=LINE('',#399,#71);
#66=LINE('',#441,#72);
#67=LINE('',#447,#73);
#68=LINE('',#460,#74);
#69=LINE('',#464,#75);
#70=VECTOR('',#220,1.5);
#71=VECTOR('',#223,1.5);
#72=VECTOR('',#228,1.6);
#73=VECTOR('',#235,3.5);
#74=VECTOR('',#254,6.25);
#75=VECTOR('',#259,9.);
#76=B_SPLINE_CURVE_WITH_KNOTS('',3,(#266,#267,#268,#269,#270,#271,#272,
#273,#274,#275,#276,#277,#278,#279,#280,#281,#282,#283),.UNSPECIFIED.,.F.,
 .F.,(4,2,2,2,2,2,2,2,4),(0.229277382852017,0.286557518291736,0.343837653731455,
0.401196209717745,0.458554765704034,0.515913321690323,0.573271877676612,
0.630552013116332,0.687832148556051),.UNSPECIFIED.);
#77=B_SPLINE_CURVE_WITH_KNOTS('',3,(#287,#288,#289,#290,#291,#292,#293,
#294,#295,#296,#297,#298,#299,#300,#301,#302,#303,#304,#305,#306,#307,#308,
#309,#310,#311,#312,#313,#314,#315,#316,#317,#318,#319,#320,#321,#322,#323,
#324),.UNSPECIFIED.,.F.,.F.,(4,2,2,2,2,2,2,2,2,2,2,2,2,2,2,2,2,2,4),(0.,
0.0341317293677641,0.0682634587355282,0.136526917471056,0.197688486612192,
0.22826927118276,0.258850055753328,0.289430840323896,0.320011624894464,
0.3811731940356,0.449436652771128,0.483568382138893,0.517700111506657,0.551831840874421,
0.585963570242185,0.654227028977713,0.715388598118849,0.745969382689417,
0.776550167259985),.UNSPECIFIED.);
#78=B_SPLINE_CURVE_WITH_KNOTS('',3,(#325,#326,#327,#328,#329,#330,#331,
#332,#333,#334,#335,#336,#337,#338),.UNSPECIFIED.,.F.,.F.,(4,2,2,2,2,2,
4),(0.776550167259985,0.807130951830553,0.837711736401121,0.898873305542257,
0.967136764277785,1.00126849364555,1.03540022301331),.UNSPECIFIED.);
#79=B_SPLINE_CURVE_WITH_KNOTS('',3,(#339,#340,#341,#342,#343,#344,#345,
#346,#347,#348,#349,#350,#351,#352,#353,#354,#355,#356,#357),
 .UNSPECIFIED.,.F.,.F.,(4,2,2,2,3,2,2,2,4),(0.687832148556051,0.74511228399577,
0.802392419435489,0.859750975421778,0.917109531408068,0.974468087394357,
1.03182664338065,1.08910677882037,1.14638691426008),.UNSPECIFIED.);
#80=B_SPLINE_CURVE_WITH_KNOTS('',3,(#361,#362,#363,#364,#365,#366,#367,
#368,#369,#370,#371,#372,#373,#374,#375,#376,#377,#378),.UNSPECIFIED.,.F.,
 .F.,(4,2,2,2,2,2,2,2,4),(0.226466751188939,0.28308268289157,0.339698614594202,
0.39631605848604,0.452933502377878,0.509550946269716,0.566168390161554,
0.622784321864186,0.679400253566817),.UNSPECIFIED.);
#81=B_SPLINE_CURVE_WITH_KNOTS('',3,(#379,#380,#381,#382,#383,#384,#385,
#386,#387,#388,#389,#390,#391,#392,#393,#394,#395,#396,#397),
 .UNSPECIFIED.,.F.,.F.,(4,2,2,2,3,2,2,2,4),(0.679400253566817,0.736016185269448,
0.792632116972079,0.849249560863917,0.905867004755756,0.962484448647594,
1.01910189253943,1.07571782424206,1.13233375594469),.UNSPECIFIED.);
#82=B_SPLINE_CURVE_WITH_KNOTS('',3,(#401,#402,#403,#404,#405,#406,#407,
#408,#409,#410),.UNSPECIFIED.,.F.,.F.,(4,2,2,2,4),(0.,0.0567456209188214,
0.113491241837643,0.170230156120701,0.22696907040376),.UNSPECIFIED.);
#83=B_SPLINE_CURVE_WITH_KNOTS('',3,(#411,#412,#413,#414,#415,#416,#417,
#418,#419,#420,#421,#422,#423,#424,#425,#426,#427,#428,#429,#430,#431,#432,
#433,#434,#435,#436),.UNSPECIFIED.,.F.,.F.,(4,2,2,2,2,2,2,2,2,2,2,2,4),
(0.22696907040376,0.283707984686818,0.340446898969877,0.397192519888698,
0.45393814080752,0.510683761726341,0.567429382645162,0.624168296928221,
0.680907211211279,0.737646125494338,0.794385039777396,0.851130660696218,
0.907876281615039),.UNSPECIFIED.);
#84=VERTEX_POINT('',#264);
#85=VERTEX_POINT('',#265);
#86=VERTEX_POINT('',#284);
#87=VERTEX_POINT('',#286);
#88=VERTEX_POINT('',#359);
#89=VERTEX_POINT('',#360);
#90=VERTEX_POINT('',#398);
#91=VERTEX_POINT('',#400);
#92=VERTEX_POINT('',#438);
#93=VERTEX_POINT('',#440);
#94=VERTEX_POINT('',#444);
#95=VERTEX_POINT('',#446);
#96=VERTEX_POINT('',#451);
#97=VERTEX_POINT('',#454);
#98=VERTEX_POINT('',#458);
#99=VERTEX_POINT('',#462);
#100=EDGE_CURVE('',#84,#85,#76,.T.);
#101=EDGE_CURVE('',#84,#86,#64,.T.);
#102=EDGE_CURVE('',#87,#86,#77,.T.);
#103=EDGE_CURVE('',#86,#87,#78,.T.);
#104=EDGE_CURVE('',#85,#84,#79,.T.);
#105=EDGE_CURVE('',#88,#89,#80,.T.);
#106=EDGE_CURVE('',#89,#88,#81,.T.);
#107=EDGE_CURVE('',#89,#90,#65,.T.);
#108=EDGE_CURVE('',#91,#90,#82,.T.);
#109=EDGE_CURVE('',#90,#91,#83,.T.);
#110=EDGE_CURVE('',#92,#92,#27,.T.);
#111=EDGE_CURVE('',#92,#93,#66,.T.);
#112=EDGE_CURVE('',#93,#93,#28,.T.);
#113=EDGE_CURVE('',#94,#94,#29,.T.);
#114=EDGE_CURVE('',#94,#95,#67,.T.);
#115=EDGE_CURVE('',#95,#95,#30,.T.);
#116=EDGE_CURVE('',#96,#96,#31,.T.);
#117=EDGE_CURVE('',#97,#97,#32,.T.);
#118=EDGE_CURVE('',#98,#98,#33,.T.);
#119=EDGE_CURVE('',#98,#97,#68,.T.);
#120=EDGE_CURVE('',#99,#99,#34,.T.);
#121=EDGE_CURVE('',#99,#96,#69,.T.);
#122=ORIENTED_EDGE('',*,*,#100,.F.);
#123=ORIENTED_EDGE('',*,*,#101,.T.);
#124=ORIENTED_EDGE('',*,*,#102,.F.);
#125=ORIENTED_EDGE('',*,*,#103,.F.);
#126=ORIENTED_EDGE('',*,*,#101,.F.);
#127=ORIENTED_EDGE('',*,*,#104,.F.);
#128=ORIENTED_EDGE('',*,*,#105,.F.);
#129=ORIENTED_EDGE('',*,*,#106,.F.);
#130=ORIENTED_EDGE('',*,*,#107,.T.);
#131=ORIENTED_EDGE('',*,*,#108,.F.);
#132=ORIENTED_EDGE('',*,*,#109,.F.);
#133=ORIENTED_EDGE('',*,*,#107,.F.);
#134=ORIENTED_EDGE('',*,*,#110,.F.);
#135=ORIENTED_EDGE('',*,*,#111,.T.);
#136=ORIENTED_EDGE('',*,*,#112,.F.);
#137=ORIENTED_EDGE('',*,*,#111,.F.);
#138=ORIENTED_EDGE('',*,*,#102,.T.);
#139=ORIENTED_EDGE('',*,*,#103,.T.);
#140=ORIENTED_EDGE('',*,*,#113,.F.);
#141=ORIENTED_EDGE('',*,*,#114,.T.);
#142=ORIENTED_EDGE('',*,*,#115,.F.);
#143=ORIENTED_EDGE('',*,*,#114,.F.);
#144=ORIENTED_EDGE('',*,*,#100,.T.);
#145=ORIENTED_EDGE('',*,*,#104,.T.);
#146=ORIENTED_EDGE('',*,*,#113,.T.);
#147=ORIENTED_EDGE('',*,*,#110,.T.);
#148=ORIENTED_EDGE('',*,*,#116,.T.);
#149=ORIENTED_EDGE('',*,*,#115,.T.);
#150=ORIENTED_EDGE('',*,*,#117,.T.);
#151=ORIENTED_EDGE('',*,*,#112,.T.);
#152=ORIENTED_EDGE('',*,*,#118,.F.);
#153=ORIENTED_EDGE('',*,*,#119,.T.);
#154=ORIENTED_EDGE('',*,*,#117,.F.);
#155=ORIENTED_EDGE('',*,*,#119,.F.);
#156=ORIENTED_EDGE('',*,*,#108,.T.);
#157=ORIENTED_EDGE('',*,*,#109,.T.);
#158=ORIENTED_EDGE('',*,*,#120,.F.);
#159=ORIENTED_EDGE('',*,*,#121,.T.);
#160=ORIENTED_EDGE('',*,*,#116,.F.);
#161=ORIENTED_EDGE('',*,*,#121,.F.);
#162=ORIENTED_EDGE('',*,*,#105,.T.);
#163=ORIENTED_EDGE('',*,*,#106,.T.);
#164=ORIENTED_EDGE('',*,*,#120,.T.);
#165=ORIENTED_EDGE('',*,*,#118,.T.);
#166=CYLINDRICAL_SURFACE('',#197,1.5);
#167=CYLINDRICAL_SURFACE('',#198,1.5);
#168=CYLINDRICAL_SURFACE('',#199,1.6);
#169=CYLINDRICAL_SURFACE('',#202,3.5);
#170=CYLINDRICAL_SURFACE('',#211,6.25);
#171=CYLINDRICAL_SURFACE('',#213,9.);
#172=ADVANCED_FACE('',(#35),#166,.F.);
#173=ADVANCED_FACE('',(#36),#167,.F.);
#174=ADVANCED_FACE('',(#37,#20),#168,.F.);
#175=ADVANCED_FACE('',(#38,#21),#169,.T.);
#176=ADVANCED_FACE('',(#39,#22),#15,.T.);
#177=ADVANCED_FACE('',(#40,#23),#16,.T.);
#178=ADVANCED_FACE('',(#41),#17,.F.);
#179=ADVANCED_FACE('',(#42),#18,.T.);
#180=ADVANCED_FACE('',(#43,#24),#170,.F.);
#181=ADVANCED_FACE('',(#44,#25),#171,.T.);
#182=ADVANCED_FACE('',(#45,#26),#19,.F.);
#183=CLOSED_SHELL('',(#172,#173,#174,#175,#176,#177,#178,#179,#180,#181,
#182));
#184=DERIVED_UNIT_ELEMENT(#186,1.);
#185=DERIVED_UNIT_ELEMENT(#471,-3.);
#186=(
MASS_UNIT()
NAMED_UNIT(*)
SI_UNIT(.KILO.,.GRAM.)
);
#187=DERIVED_UNIT((#184,#185));
#188=MEASURE_REPRESENTATION_ITEM('density measure',
POSITIVE_RATIO_MEASURE(8490.),#187);
#189=PROPERTY_DEFINITION_REPRESENTATION(#194,#191);
#190=PROPERTY_DEFINITION_REPRESENTATION(#195,#192);
#191=REPRESENTATION('material name',(#193),#468);
#192=REPRESENTATION('density',(#188),#468);
#193=DESCRIPTIVE_REPRESENTATION_ITEM('\X2\9EC494DC\X0\','\X2\9EC494DC\X0\');
#194=PROPERTY_DEFINITION('material property','material name',#478);
#195=PROPERTY_DEFINITION('material property','density of part',#478);
#196=AXIS2_PLACEMENT_3D('',#262,#216,#217);
#197=AXIS2_PLACEMENT_3D('',#263,#218,#219);
#198=AXIS2_PLACEMENT_3D('',#358,#221,#222);
#199=AXIS2_PLACEMENT_3D('',#437,#224,#225);
#200=AXIS2_PLACEMENT_3D('',#439,#226,#227);
#201=AXIS2_PLACEMENT_3D('',#442,#229,#230);
#202=AXIS2_PLACEMENT_3D('',#443,#231,#232);
#203=AXIS2_PLACEMENT_3D('',#445,#233,#234);
#204=AXIS2_PLACEMENT_3D('',#448,#236,#237);
#205=AXIS2_PLACEMENT_3D('',#449,#238,#239);
#206=AXIS2_PLACEMENT_3D('',#450,#240,#241);
#207=AXIS2_PLACEMENT_3D('',#452,#242,#243);
#208=AXIS2_PLACEMENT_3D('',#453,#244,#245);
#209=AXIS2_PLACEMENT_3D('',#455,#246,#247);
#210=AXIS2_PLACEMENT_3D('',#456,#248,#249);
#211=AXIS2_PLACEMENT_3D('',#457,#250,#251);
#212=AXIS2_PLACEMENT_3D('',#459,#252,#253);
#213=AXIS2_PLACEMENT_3D('',#461,#255,#256);
#214=AXIS2_PLACEMENT_3D('',#463,#257,#258);
#215=AXIS2_PLACEMENT_3D('',#465,#260,#261);
#216=DIRECTION('axis',(0.,0.,1.));
#217=DIRECTION('refdir',(1.,0.,0.));
#218=DIRECTION('center_axis',(1.,0.,0.));
#219=DIRECTION('ref_axis',(0.,-1.,0.));
#220=DIRECTION('',(1.,0.,0.));
#221=DIRECTION('center_axis',(1.,0.,0.));
#222=DIRECTION('ref_axis',(0.,-1.,0.));
#223=DIRECTION('',(1.,0.,0.));
#224=DIRECTION('center_axis',(0.,1.,0.));
#225=DIRECTION('ref_axis',(-1.,0.,-1.87911242122141E-10));
#226=DIRECTION('center_axis',(0.,-1.,0.));
#227=DIRECTION('ref_axis',(-1.,0.,-1.87911242122141E-10));
#228=DIRECTION('',(0.,-1.,0.));
#229=DIRECTION('center_axis',(0.,1.,0.));
#230=DIRECTION('ref_axis',(-1.,0.,-1.87911242122141E-10));
#231=DIRECTION('center_axis',(0.,1.,0.));
#232=DIRECTION('ref_axis',(-1.,0.,-1.87911242122141E-10));
#233=DIRECTION('center_axis',(0.,1.,0.));
#234=DIRECTION('ref_axis',(-1.,0.,-1.87911242122141E-10));
#235=DIRECTION('',(0.,-1.,0.));
#236=DIRECTION('center_axis',(0.,-1.,0.));
#237=DIRECTION('ref_axis',(-1.,0.,-1.87911242122141E-10));
#238=DIRECTION('center_axis',(0.,1.,0.));
#239=DIRECTION('ref_axis',(-1.,0.,-1.87911242122141E-10));
#240=DIRECTION('center_axis',(0.,1.,0.));
#241=DIRECTION('ref_axis',(-1.,0.,-1.87911242122141E-10));
#242=DIRECTION('center_axis',(0.,1.,0.));
#243=DIRECTION('ref_axis',(-1.,0.,-1.87911242122141E-10));
#244=DIRECTION('center_axis',(0.,1.,0.));
#245=DIRECTION('ref_axis',(-1.,0.,-1.87911242122141E-10));
#246=DIRECTION('center_axis',(0.,-1.,0.));
#247=DIRECTION('ref_axis',(-1.,0.,-1.87911242122141E-10));
#248=DIRECTION('center_axis',(0.,1.,0.));
#249=DIRECTION('ref_axis',(-1.,0.,-1.87911242122141E-10));
#250=DIRECTION('center_axis',(0.,-1.,0.));
#251=DIRECTION('ref_axis',(-1.,0.,-1.87911242122141E-10));
#252=DIRECTION('center_axis',(0.,1.,0.));
#253=DIRECTION('ref_axis',(-1.,0.,-1.87911242122141E-10));
#254=DIRECTION('',(0.,1.,0.));
#255=DIRECTION('center_axis',(0.,-1.,0.));
#256=DIRECTION('ref_axis',(-1.,0.,-1.87911242122141E-10));
#257=DIRECTION('center_axis',(0.,-1.,0.));
#258=DIRECTION('ref_axis',(-1.,0.,-1.87911242122141E-10));
#259=DIRECTION('',(0.,1.,0.));
#260=DIRECTION('center_axis',(0.,1.,0.));
#261=DIRECTION('ref_axis',(-1.,0.,-1.87911242122141E-10));
#262=CARTESIAN_POINT('',(0.,0.,0.));
#263=CARTESIAN_POINT('Origin',(17.4930638098027,23.4869647026062,-36.6722134835344));
#264=CARTESIAN_POINT('',(15.9930638098027,24.9869647026062,-36.6722134835344));
#265=CARTESIAN_POINT('',(15.9930638098027,21.9869647026062,-36.6722134835344));
#266=CARTESIAN_POINT('Ctrl Pts',(15.9930638098027,24.9869647026062,-36.6722134835344));
#267=CARTESIAN_POINT('Ctrl Pts',(15.9930638098027,24.9869647026062,-36.4812796987353));
#268=CARTESIAN_POINT('Ctrl Pts',(16.010169634804,24.948306231966,-36.2792441702703));
#269=CARTESIAN_POINT('Ctrl Pts',(16.0718786597219,24.7944336266706,-35.9103284020764));
#270=CARTESIAN_POINT('Ctrl Pts',(16.1157604102738,24.679346469581,-35.7432749069496));
#271=CARTESIAN_POINT('Ctrl Pts',(16.1995925240517,24.4157229430341,-35.4796513804027));
#272=CARTESIAN_POINT('Ctrl Pts',(16.2453853499801,24.2487358613901,-35.3646998988912));
#273=CARTESIAN_POINT('Ctrl Pts',(16.3116072476408,23.8800862361971,-35.2109325887873));
#274=CARTESIAN_POINT('Ctrl Pts',(16.3307861496343,23.6781598892272,-35.1722134835344));
#275=CARTESIAN_POINT('Ctrl Pts',(16.3307861496343,23.2957695159852,-35.1722134835344));
#276=CARTESIAN_POINT('Ctrl Pts',(16.3116072476408,23.0938431690153,-35.2109325887873));
#277=CARTESIAN_POINT('Ctrl Pts',(16.2453853499801,22.7251935438223,-35.3646998988912));
#278=CARTESIAN_POINT('Ctrl Pts',(16.1995925240517,22.5582064621783,-35.4796513804027));
#279=CARTESIAN_POINT('Ctrl Pts',(16.1157604102738,22.2945829356314,-35.7432749069496));
#280=CARTESIAN_POINT('Ctrl Pts',(16.0718786597219,22.1794957785418,-35.9103284020764));
#281=CARTESIAN_POINT('Ctrl Pts',(16.010169634804,22.0256231732464,-36.2792441702703));
#282=CARTESIAN_POINT('Ctrl Pts',(15.9930638098027,21.9869647026062,-36.4812796987353));
#283=CARTESIAN_POINT('Ctrl Pts',(15.9930638098027,21.9869647026062,-36.6722134835344));
#284=CARTESIAN_POINT('',(17.8930638098027,24.9869647026062,-36.6722134835344));
#285=CARTESIAN_POINT('',(17.4930638098027,24.9869647026062,-36.6722134835344));
#286=CARTESIAN_POINT('',(18.9362873735197,23.4869647026062,-38.1722134835344));
#287=CARTESIAN_POINT('Ctrl Pts',(18.9362873735197,23.4869647026062,-38.1722134835344));
#288=CARTESIAN_POINT('Ctrl Pts',(18.9362873735197,23.3731922713803,-38.1722134835344));
#289=CARTESIAN_POINT('Ctrl Pts',(18.9025614679098,23.2732945391339,-38.1601171947916));
#290=CARTESIAN_POINT('Ctrl Pts',(18.8099107361393,23.0824131279287,-38.1199190586957));
#291=CARTESIAN_POINT('Ctrl Pts',(18.7504382416326,22.9917927274843,-38.0913584673626));
#292=CARTESIAN_POINT('Ctrl Pts',(18.5589322409685,22.7270479045292,-37.9795944299996));
#293=CARTESIAN_POINT('Ctrl Pts',(18.4158983331396,22.5626794772833,-37.8692486017712));
#294=CARTESIAN_POINT('Ctrl Pts',(18.1869619159696,22.3041175530296,-37.6106866775175));
#295=CARTESIAN_POINT('Ctrl Pts',(18.0816627645212,22.1896832104451,-37.4513503075372));
#296=CARTESIAN_POINT('Ctrl Pts',(17.9712422383028,22.0705740494376,-37.176034863346));
#297=CARTESIAN_POINT('Ctrl Pts',(17.942061917507,22.0393248488387,-37.0782765650721));
#298=CARTESIAN_POINT('Ctrl Pts',(17.9029742387226,21.9975217214757,-36.8773332291255));
#299=CARTESIAN_POINT('Ctrl Pts',(17.8930638098027,21.9869647026062,-36.774149432103));
#300=CARTESIAN_POINT('Ctrl Pts',(17.8930638098027,21.9869647026062,-36.5702775349658));
#301=CARTESIAN_POINT('Ctrl Pts',(17.9029742387226,21.9975217214757,-36.4670937379433));
#302=CARTESIAN_POINT('Ctrl Pts',(17.942061917507,22.0393248488387,-36.2661504019967));
#303=CARTESIAN_POINT('Ctrl Pts',(17.9712422383028,22.0705740494376,-36.1683921037228));
#304=CARTESIAN_POINT('Ctrl Pts',(18.0816627645212,22.1896832104451,-35.8930766595316));
#305=CARTESIAN_POINT('Ctrl Pts',(18.1869619159696,22.3041175530296,-35.7337402895513));
#306=CARTESIAN_POINT('Ctrl Pts',(18.4158983331396,22.5626794772833,-35.4751783652976));
#307=CARTESIAN_POINT('Ctrl Pts',(18.5589322409685,22.7270479045292,-35.3648325370693));
#308=CARTESIAN_POINT('Ctrl Pts',(18.7504382416326,22.9917927274843,-35.2530684997062));
#309=CARTESIAN_POINT('Ctrl Pts',(18.8099107361393,23.0824131279287,-35.2245079083731));
#310=CARTESIAN_POINT('Ctrl Pts',(18.9025614679098,23.2732945391339,-35.1843097722772));
#311=CARTESIAN_POINT('Ctrl Pts',(18.9362873735197,23.3731922713803,-35.1722134835344));
#312=CARTESIAN_POINT('Ctrl Pts',(18.9362873735197,23.6007371338321,-35.1722134835344));
#313=CARTESIAN_POINT('Ctrl Pts',(18.9025614679098,23.7006348660785,-35.1843097722772));
#314=CARTESIAN_POINT('Ctrl Pts',(18.8099107361393,23.8915162772837,-35.2245079083731));
#315=CARTESIAN_POINT('Ctrl Pts',(18.7504382416326,23.9821366777281,-35.2530684997062));
#316=CARTESIAN_POINT('Ctrl Pts',(18.5589322409685,24.2468815006832,-35.3648325370693));
#317=CARTESIAN_POINT('Ctrl Pts',(18.4158983331396,24.4112499279291,-35.4751783652976));
#318=CARTESIAN_POINT('Ctrl Pts',(18.1869619159696,24.6698118521828,-35.7337402895513));
#319=CARTESIAN_POINT('Ctrl Pts',(18.0816627645212,24.7842461947673,-35.8930766595316));
#320=CARTESIAN_POINT('Ctrl Pts',(17.9712422383028,24.9033553557748,-36.1683921037228));
#321=CARTESIAN_POINT('Ctrl Pts',(17.942061917507,24.9346045563737,-36.2661504019967));
#322=CARTESIAN_POINT('Ctrl Pts',(17.9029742387226,24.9764076837367,-36.4670937379433));
#323=CARTESIAN_POINT('Ctrl Pts',(17.8930638098027,24.9869647026062,-36.5702775349658));
#324=CARTESIAN_POINT('Ctrl Pts',(17.8930638098027,24.9869647026062,-36.6722134835344));
#325=CARTESIAN_POINT('Ctrl Pts',(17.8930638098027,24.9869647026062,-36.6722134835344));
#326=CARTESIAN_POINT('Ctrl Pts',(17.8930638098027,24.9869647026062,-36.774149432103));
#327=CARTESIAN_POINT('Ctrl Pts',(17.9029742387226,24.9764076837367,-36.8773332291255));
#328=CARTESIAN_POINT('Ctrl Pts',(17.942061917507,24.9346045563737,-37.0782765650721));
#329=CARTESIAN_POINT('Ctrl Pts',(17.9712422383028,24.9033553557748,-37.176034863346));
#330=CARTESIAN_POINT('Ctrl Pts',(18.0816627645212,24.7842461947673,-37.4513503075372));
#331=CARTESIAN_POINT('Ctrl Pts',(18.1869619159696,24.6698118521828,-37.6106866775175));
#332=CARTESIAN_POINT('Ctrl Pts',(18.4158983331396,24.4112499279291,-37.8692486017712));
#333=CARTESIAN_POINT('Ctrl Pts',(18.5589322409685,24.2468815006832,-37.9795944299996));
#334=CARTESIAN_POINT('Ctrl Pts',(18.7504382416326,23.9821366777281,-38.0913584673626));
#335=CARTESIAN_POINT('Ctrl Pts',(18.8099107361393,23.8915162772837,-38.1199190586957));
#336=CARTESIAN_POINT('Ctrl Pts',(18.9025614679098,23.7006348660785,-38.1601171947916));
#337=CARTESIAN_POINT('Ctrl Pts',(18.9362873735197,23.6007371338321,-38.1722134835344));
#338=CARTESIAN_POINT('Ctrl Pts',(18.9362873735197,23.4869647026062,-38.1722134835344));
#339=CARTESIAN_POINT('Ctrl Pts',(15.9930638098027,21.9869647026062,-36.6722134835344));
#340=CARTESIAN_POINT('Ctrl Pts',(15.9930638098027,21.9869647026062,-36.8631472683335));
#341=CARTESIAN_POINT('Ctrl Pts',(16.010169634804,22.0256231732464,-37.0651827967985));
#342=CARTESIAN_POINT('Ctrl Pts',(16.0718786597219,22.1794957785418,-37.4340985649924));
#343=CARTESIAN_POINT('Ctrl Pts',(16.1157604102738,22.2945829356314,-37.6011520601192));
#344=CARTESIAN_POINT('Ctrl Pts',(16.1995925240517,22.5582064621783,-37.8647755866661));
#345=CARTESIAN_POINT('Ctrl Pts',(16.2453853499801,22.7251935438223,-37.9797270681776));
#346=CARTESIAN_POINT('Ctrl Pts',(16.3116072476408,23.0938431690153,-38.1334943782815));
#347=CARTESIAN_POINT('Ctrl Pts',(16.3307861496343,23.2957695159852,-38.1722134835344));
#348=CARTESIAN_POINT('Ctrl Pts',(16.3307861496343,23.4869647026062,-38.1722134835344));
#349=CARTESIAN_POINT('Ctrl Pts',(16.3307861496343,23.6781598892272,-38.1722134835344));
#350=CARTESIAN_POINT('Ctrl Pts',(16.3116072476408,23.8800862361971,-38.1334943782815));
#351=CARTESIAN_POINT('Ctrl Pts',(16.2453853499801,24.2487358613901,-37.9797270681776));
#352=CARTESIAN_POINT('Ctrl Pts',(16.1995925240517,24.4157229430341,-37.8647755866661));
#353=CARTESIAN_POINT('Ctrl Pts',(16.1157604102738,24.679346469581,-37.6011520601192));
#354=CARTESIAN_POINT('Ctrl Pts',(16.0718786597219,24.7944336266706,-37.4340985649925));
#355=CARTESIAN_POINT('Ctrl Pts',(16.010169634804,24.948306231966,-37.0651827967985));
#356=CARTESIAN_POINT('Ctrl Pts',(15.9930638098027,24.9869647026062,-36.8631472683335));
#357=CARTESIAN_POINT('Ctrl Pts',(15.9930638098027,24.9869647026062,-36.6722134835344));
#358=CARTESIAN_POINT('Origin',(12.9930638098027,13.2366168498993,-36.6722134835344));
#359=CARTESIAN_POINT('',(10.4930638098027,11.7366168498993,-36.6722134835344));
#360=CARTESIAN_POINT('',(10.4930638098027,14.7366168498993,-36.6722134835344));
#361=CARTESIAN_POINT('Ctrl Pts',(10.4930638098027,11.7366168498993,-36.6722134835344));
#362=CARTESIAN_POINT('Ctrl Pts',(10.4930638098027,11.7366168498993,-36.8609332558765));
#363=CARTESIAN_POINT('Ctrl Pts',(10.4996029842845,11.7744045363994,-37.0619934936319));
#364=CARTESIAN_POINT('Ctrl Pts',(10.5232360403768,11.9275952964638,-37.4314603898975));
#365=CARTESIAN_POINT('Ctrl Pts',(10.5400008037678,12.0429790569523,-37.5998960341471));
#366=CARTESIAN_POINT('Ctrl Pts',(10.5715643056368,12.3089378510664,-37.8658548282612));
#367=CARTESIAN_POINT('Ctrl Pts',(10.5884318880343,12.4773719704728,-37.9812358028396));
#368=CARTESIAN_POINT('Ctrl Pts',(10.6123010050937,12.8468336284459,-38.1344245400727));
#369=CARTESIAN_POINT('Ctrl Pts',(10.6189441351533,13.0478920369265,-38.1722134835344));
#370=CARTESIAN_POINT('Ctrl Pts',(10.6189441351533,13.4253416628721,-38.1722134835344));
#371=CARTESIAN_POINT('Ctrl Pts',(10.6123010050937,13.6264000713527,-38.1344245400727));
#372=CARTESIAN_POINT('Ctrl Pts',(10.5884318880343,13.9958617293257,-37.9812358028396));
#373=CARTESIAN_POINT('Ctrl Pts',(10.5715643056368,14.1642958487321,-37.8658548282612));
#374=CARTESIAN_POINT('Ctrl Pts',(10.5400008037678,14.4302546428463,-37.5998960341471));
#375=CARTESIAN_POINT('Ctrl Pts',(10.5232360403768,14.5456384033347,-37.4314603898975));
#376=CARTESIAN_POINT('Ctrl Pts',(10.4996029842845,14.6988291633992,-37.0619934936319));
#377=CARTESIAN_POINT('Ctrl Pts',(10.4930638098027,14.7366168498993,-36.8609332558765));
#378=CARTESIAN_POINT('Ctrl Pts',(10.4930638098027,14.7366168498993,-36.6722134835344));
#379=CARTESIAN_POINT('Ctrl Pts',(10.4930638098027,14.7366168498993,-36.6722134835344));
#380=CARTESIAN_POINT('Ctrl Pts',(10.4930638098027,14.7366168498993,-36.4834937111923));
#381=CARTESIAN_POINT('Ctrl Pts',(10.4996029842845,14.6988291633992,-36.282433473437));
#382=CARTESIAN_POINT('Ctrl Pts',(10.5232360403768,14.5456384033347,-35.9129665771713));
#383=CARTESIAN_POINT('Ctrl Pts',(10.5400008037678,14.4302546428463,-35.7445309329218));
#384=CARTESIAN_POINT('Ctrl Pts',(10.5715643056368,14.1642958487321,-35.4785721388076));
#385=CARTESIAN_POINT('Ctrl Pts',(10.5884318880343,13.9958617293257,-35.3631911642292));
#386=CARTESIAN_POINT('Ctrl Pts',(10.6123010050937,13.6264000713527,-35.2100024269961));
#387=CARTESIAN_POINT('Ctrl Pts',(10.6189441351533,13.4253416628721,-35.1722134835344));
#388=CARTESIAN_POINT('Ctrl Pts',(10.6189441351533,13.2366168498993,-35.1722134835344));
#389=CARTESIAN_POINT('Ctrl Pts',(10.6189441351533,13.0478920369265,-35.1722134835344));
#390=CARTESIAN_POINT('Ctrl Pts',(10.6123010050937,12.8468336284459,-35.2100024269961));
#391=CARTESIAN_POINT('Ctrl Pts',(10.5884318880343,12.4773719704728,-35.3631911642292));
#392=CARTESIAN_POINT('Ctrl Pts',(10.5715643056368,12.3089378510664,-35.4785721388076));
#393=CARTESIAN_POINT('Ctrl Pts',(10.5400008037678,12.0429790569523,-35.7445309329217));
#394=CARTESIAN_POINT('Ctrl Pts',(10.5232360403768,11.9275952964638,-35.9129665771713));
#395=CARTESIAN_POINT('Ctrl Pts',(10.4996029842845,11.7744045363994,-36.282433473437));
#396=CARTESIAN_POINT('Ctrl Pts',(10.4930638098027,11.7366168498993,-36.4834937111923));
#397=CARTESIAN_POINT('Ctrl Pts',(10.4930638098027,11.7366168498993,-36.6722134835344));
#398=CARTESIAN_POINT('',(13.2430638098027,14.7366168498993,-36.6722134835344));
#399=CARTESIAN_POINT('',(12.9930638098027,14.7366168498993,-36.6722134835344));
#400=CARTESIAN_POINT('',(13.4257332600469,13.2366168498993,-35.1722134835344));
#401=CARTESIAN_POINT('Ctrl Pts',(13.4257332600469,13.2366168498993,-35.1722134835344));
#402=CARTESIAN_POINT('Ctrl Pts',(13.4257332600469,13.4257689196287,-35.1722134835344));
#403=CARTESIAN_POINT('Ctrl Pts',(13.4159674593791,13.6269992630483,-35.2101672633281));
#404=CARTESIAN_POINT('Ctrl Pts',(13.3811187509232,13.9963346400828,-35.3634710935622));
#405=CARTESIAN_POINT('Ctrl Pts',(13.3565847746474,14.1645069806719,-35.4787832707473));
#406=CARTESIAN_POINT('Ctrl Pts',(13.3108605523837,14.4300313708975,-35.7443076609729));
#407=CARTESIAN_POINT('Ctrl Pts',(13.2866387007486,14.5453557962894,-35.9124865648718));
#408=CARTESIAN_POINT('Ctrl Pts',(13.252510135743,14.6986685537182,-36.2818451136603));
#409=CARTESIAN_POINT('Ctrl Pts',(13.2430638098027,14.7366168498993,-36.4830837692575));
#410=CARTESIAN_POINT('Ctrl Pts',(13.2430638098027,14.7366168498993,-36.6722134835344));
#411=CARTESIAN_POINT('Ctrl Pts',(13.2430638098027,14.7366168498993,-36.6722134835344));
#412=CARTESIAN_POINT('Ctrl Pts',(13.2430638098027,14.7366168498993,-36.8613431978113));
#413=CARTESIAN_POINT('Ctrl Pts',(13.252510135743,14.6986685537182,-37.0625818534085));
#414=CARTESIAN_POINT('Ctrl Pts',(13.2866387007486,14.5453557962894,-37.431940402197));
#415=CARTESIAN_POINT('Ctrl Pts',(13.3108605523837,14.4300313708974,-37.6001193060959));
#416=CARTESIAN_POINT('Ctrl Pts',(13.3565847746474,14.1645069806719,-37.8656436963215));
#417=CARTESIAN_POINT('Ctrl Pts',(13.3811187509232,13.9963346400828,-37.9809558735066));
#418=CARTESIAN_POINT('Ctrl Pts',(13.4159674593791,13.6269992630483,-38.1342597037407));
#419=CARTESIAN_POINT('Ctrl Pts',(13.4257332600469,13.4257689196287,-38.1722134835344));
#420=CARTESIAN_POINT('Ctrl Pts',(13.4257332600469,13.0474647801699,-38.1722134835344));
#421=CARTESIAN_POINT('Ctrl Pts',(13.4159674593791,12.8462344367503,-38.1342597037407));
#422=CARTESIAN_POINT('Ctrl Pts',(13.3811187509232,12.4768990597158,-37.9809558735066));
#423=CARTESIAN_POINT('Ctrl Pts',(13.3565847746474,12.3087267191267,-37.8656436963215));
#424=CARTESIAN_POINT('Ctrl Pts',(13.3108605523837,12.0432023289011,-37.6001193060959));
#425=CARTESIAN_POINT('Ctrl Pts',(13.2866387007486,11.9278779035091,-37.431940402197));
#426=CARTESIAN_POINT('Ctrl Pts',(13.252510135743,11.7745651460804,-37.0625818534085));
#427=CARTESIAN_POINT('Ctrl Pts',(13.2430638098027,11.7366168498993,-36.8613431978113));
#428=CARTESIAN_POINT('Ctrl Pts',(13.2430638098027,11.7366168498993,-36.4830837692575));
#429=CARTESIAN_POINT('Ctrl Pts',(13.252510135743,11.7745651460804,-36.2818451136603));
#430=CARTESIAN_POINT('Ctrl Pts',(13.2866387007486,11.9278779035092,-35.9124865648718));
#431=CARTESIAN_POINT('Ctrl Pts',(13.3108605523837,12.0432023289011,-35.7443076609729));
#432=CARTESIAN_POINT('Ctrl Pts',(13.3565847746474,12.3087267191267,-35.4787832707473));
#433=CARTESIAN_POINT('Ctrl Pts',(13.3811187509232,12.4768990597158,-35.3634710935622));
#434=CARTESIAN_POINT('Ctrl Pts',(13.4159674593791,12.8462344367503,-35.2101672633281));
#435=CARTESIAN_POINT('Ctrl Pts',(13.4257332600469,13.0474647801699,-35.1722134835344));
#436=CARTESIAN_POINT('Ctrl Pts',(13.4257332600469,13.2366168498993,-35.1722134835344));
#437=CARTESIAN_POINT('Origin',(19.4930638098027,20.2,-36.6722134835344));
#438=CARTESIAN_POINT('',(21.0930638098027,26.2,-36.6722134832337));
#439=CARTESIAN_POINT('Origin',(19.4930638098027,26.2,-36.6722134835344));
#440=CARTESIAN_POINT('',(21.0930638098027,21.2,-36.6722134832337));
#441=CARTESIAN_POINT('',(21.0930638098027,20.2,-36.6722134832337));
#442=CARTESIAN_POINT('Origin',(19.4930638098027,21.2,-36.6722134835344));
#443=CARTESIAN_POINT('Origin',(19.4930638098027,20.2,-36.6722134835344));
#444=CARTESIAN_POINT('',(22.9930638098027,26.2,-36.6722134828767));
#445=CARTESIAN_POINT('Origin',(19.4930638098027,26.2,-36.6722134835344));
#446=CARTESIAN_POINT('',(22.9930638098027,21.2,-36.6722134828767));
#447=CARTESIAN_POINT('',(22.9930638098027,20.2,-36.6722134828767));
#448=CARTESIAN_POINT('Origin',(19.4930638098027,21.2,-36.6722134835344));
#449=CARTESIAN_POINT('Origin',(19.4930638098027,26.2,-36.6722134835344));
#450=CARTESIAN_POINT('Origin',(19.4930638098027,21.2,-36.6722134835344));
#451=CARTESIAN_POINT('',(28.4930638098027,21.2,-36.6722134818432));
#452=CARTESIAN_POINT('Origin',(19.4930638098027,21.2,-36.6722134835344));
#453=CARTESIAN_POINT('Origin',(19.4930638098027,20.2,-36.6722134835344));
#454=CARTESIAN_POINT('',(25.7430638098027,20.2,-36.67221348236));
#455=CARTESIAN_POINT('Origin',(19.4930638098027,20.2,-36.6722134835344));
#456=CARTESIAN_POINT('Origin',(19.4930638098027,21.2,-36.6722134835344));
#457=CARTESIAN_POINT('Origin',(19.4930638098027,20.2,-36.6722134835344));
#458=CARTESIAN_POINT('',(25.7430638098027,10.2,-36.67221348236));
#459=CARTESIAN_POINT('Origin',(19.4930638098027,10.2,-36.6722134835344));
#460=CARTESIAN_POINT('',(25.7430638098027,20.2,-36.67221348236));
#461=CARTESIAN_POINT('Origin',(19.4930638098027,20.2,-36.6722134835344));
#462=CARTESIAN_POINT('',(28.4930638098027,10.2,-36.6722134818432));
#463=CARTESIAN_POINT('Origin',(19.4930638098027,10.2,-36.6722134835344));
#464=CARTESIAN_POINT('',(28.4930638098027,20.2,-36.6722134818432));
#465=CARTESIAN_POINT('Origin',(19.4930638098027,10.2,-36.6722134835344));
#466=UNCERTAINTY_MEASURE_WITH_UNIT(LENGTH_MEASURE(0.01),#470,
'DISTANCE_ACCURACY_VALUE',
'Maximum model space distance between geometric entities at asserted c
onnectivities');
#467=UNCERTAINTY_MEASURE_WITH_UNIT(LENGTH_MEASURE(0.01),#470,
'DISTANCE_ACCURACY_VALUE',
'Maximum model space distance between geometric entities at asserted c
onnectivities');
#468=(
GEOMETRIC_REPRESENTATION_CONTEXT(3)
GLOBAL_UNCERTAINTY_ASSIGNED_CONTEXT((#466))
GLOBAL_UNIT_ASSIGNED_CONTEXT((#470,#472,#473))
REPRESENTATION_CONTEXT('','3D')
);
#469=(
GEOMETRIC_REPRESENTATION_CONTEXT(3)
GLOBAL_UNCERTAINTY_ASSIGNED_CONTEXT((#467))
GLOBAL_UNIT_ASSIGNED_CONTEXT((#470,#472,#473))
REPRESENTATION_CONTEXT('','3D')
);
#470=(
LENGTH_UNIT()
NAMED_UNIT(*)
SI_UNIT(.MILLI.,.METRE.)
);
#471=(
LENGTH_UNIT()
NAMED_UNIT(*)
SI_UNIT($,.METRE.)
);
#472=(
NAMED_UNIT(*)
PLANE_ANGLE_UNIT()
SI_UNIT($,.RADIAN.)
);
#473=(
NAMED_UNIT(*)
SI_UNIT($,.STERADIAN.)
SOLID_ANGLE_UNIT()
);
#474=SHAPE_DEFINITION_REPRESENTATION(#475,#476);
#475=PRODUCT_DEFINITION_SHAPE('',$,#478);
#476=SHAPE_REPRESENTATION('',(#196),#468);
#477=PRODUCT_DEFINITION_CONTEXT('part definition',#482,'design');
#478=PRODUCT_DEFINITION('\X2\65CB8F6C673A6784\X0\','\X2\65CB8F6C673A6784\X0\',
#479,#477);
#479=PRODUCT_DEFINITION_FORMATION('',$,#484);
#480=PRODUCT_RELATED_PRODUCT_CATEGORY('\X2\65CB8F6C673A6784\X0\',
'\X2\65CB8F6C673A6784\X0\',(#484));
#481=APPLICATION_PROTOCOL_DEFINITION('international standard',
'automotive_design',2009,#482);
#482=APPLICATION_CONTEXT(
'Core Data for Automotive Mechanical Design Process');
#483=PRODUCT_CONTEXT('part definition',#482,'mechanical');
#484=PRODUCT('\X2\65CB8F6C673A6784\X0\','\X2\65CB8F6C673A6784\X0\',$,(#483));
#485=PRESENTATION_STYLE_ASSIGNMENT((#487));
#486=PRESENTATION_STYLE_ASSIGNMENT((#488));
#487=SURFACE_STYLE_USAGE(.BOTH.,#489);
#488=SURFACE_STYLE_USAGE(.BOTH.,#490);
#489=SURFACE_SIDE_STYLE('',(#491));
#490=SURFACE_SIDE_STYLE('',(#492));
#491=SURFACE_STYLE_FILL_AREA(#493);
#492=SURFACE_STYLE_FILL_AREA(#494);
#493=FILL_AREA_STYLE('\X2\9EC494DC\X0\ - \X2\629B5149\X0\',(#495));
#494=FILL_AREA_STYLE(
'EPX 150 - \X2\7A7A6C1470D87119\X0\(\X2\5E266709\X0\ Carbon M2 M3 L1 3
D \X2\62535370673A\X0\)',(#496));
#495=FILL_AREA_STYLE_COLOUR('\X2\9EC494DC\X0\ - \X2\629B5149\X0\',#497);
#496=FILL_AREA_STYLE_COLOUR(
'EPX 150 - \X2\7A7A6C1470D87119\X0\(\X2\5E266709\X0\ Carbon M2 M3 L1 3
D \X2\62535370673A\X0\)',#498);
#497=COLOUR_RGB('\X2\9EC494DC\X0\ - \X2\629B5149\X0\',0.952941176470588,
0.796078431372549,0.486274509803922);
#498=COLOUR_RGB(
'EPX 150 - \X2\7A7A6C1470D87119\X0\(\X2\5E266709\X0\ Carbon M2 M3 L1 3
D \X2\62535370673A\X0\)',0.247058823529412,0.247058823529412,0.247058823529412);
ENDSEC;
END-ISO-10303-21;
