ISO-10303-21;
HEADER;
/* Generated by software containing ST-Developer
 * from STEP Tools, Inc. (www.steptools.com) 
 */

FILE_DESCRIPTION(
/* description */ (''),
/* implementation_level */ '2;1');

FILE_NAME(
/* name */ '',
/* time_stamp */ '2026-01-24T19:43:04+08:00',
/* author */ (''),
/* organization */ (''),
/* preprocessor_version */ 'ST-DEVELOPER v20.1',
/* originating_system */ 'Autodesk Translation Framework v14.21.0.0',
/* authorisation */ '');

FILE_SCHEMA (('AUTOMOTIVE_DESIGN { 1 0 10303 214 3 1 1 }'));
ENDSEC;

DATA;
#10=MECHANICAL_DESIGN_GEOMETRIC_PRESENTATION_REPRESENTATION('',(#13),#632);
#11=SHAPE_REPRESENTATION_RELATIONSHIP('SRR','None',#639,#12);
#12=ADVANCED_BREP_SHAPE_REPRESENTATION('',(#14),#631);
#13=STYLED_ITEM('',(#648),#14);
#14=MANIFOLD_SOLID_BREP('\X2\5B9E4F53\X0\1',#356);
#15=FACE_BOUND('',#68,.T.);
#16=FACE_BOUND('',#71,.T.);
#17=FACE_BOUND('',#82,.T.);
#18=FACE_BOUND('',#83,.T.);
#19=FACE_BOUND('',#84,.T.);
#20=FACE_BOUND('',#86,.T.);
#21=FACE_BOUND('',#87,.T.);
#22=FACE_BOUND('',#88,.T.);
#23=PLANE('',#373);
#24=PLANE('',#377);
#25=PLANE('',#381);
#26=PLANE('',#385);
#27=PLANE('',#389);
#28=PLANE('',#393);
#29=PLANE('',#397);
#30=PLANE('',#401);
#31=PLANE('',#405);
#32=PLANE('',#409);
#33=PLANE('',#413);
#34=PLANE('',#414);
#35=FACE_OUTER_BOUND('',#58,.T.);
#36=FACE_OUTER_BOUND('',#59,.T.);
#37=FACE_OUTER_BOUND('',#60,.T.);
#38=FACE_OUTER_BOUND('',#61,.T.);
#39=FACE_OUTER_BOUND('',#62,.T.);
#40=FACE_OUTER_BOUND('',#63,.T.);
#41=FACE_OUTER_BOUND('',#64,.T.);
#42=FACE_OUTER_BOUND('',#65,.T.);
#43=FACE_OUTER_BOUND('',#66,.T.);
#44=FACE_OUTER_BOUND('',#67,.T.);
#45=FACE_OUTER_BOUND('',#69,.T.);
#46=FACE_OUTER_BOUND('',#70,.T.);
#47=FACE_OUTER_BOUND('',#72,.T.);
#48=FACE_OUTER_BOUND('',#73,.T.);
#49=FACE_OUTER_BOUND('',#74,.T.);
#50=FACE_OUTER_BOUND('',#75,.T.);
#51=FACE_OUTER_BOUND('',#76,.T.);
#52=FACE_OUTER_BOUND('',#77,.T.);
#53=FACE_OUTER_BOUND('',#78,.T.);
#54=FACE_OUTER_BOUND('',#79,.T.);
#55=FACE_OUTER_BOUND('',#80,.T.);
#56=FACE_OUTER_BOUND('',#81,.T.);
#57=FACE_OUTER_BOUND('',#85,.T.);
#58=EDGE_LOOP('',(#232,#233,#234,#235));
#59=EDGE_LOOP('',(#236));
#60=EDGE_LOOP('',(#237,#238,#239,#240));
#61=EDGE_LOOP('',(#241));
#62=EDGE_LOOP('',(#242,#243,#244,#245));
#63=EDGE_LOOP('',(#246));
#64=EDGE_LOOP('',(#247,#248,#249,#250));
#65=EDGE_LOOP('',(#251));
#66=EDGE_LOOP('',(#252,#253,#254,#255));
#67=EDGE_LOOP('',(#256));
#68=EDGE_LOOP('',(#257));
#69=EDGE_LOOP('',(#258,#259,#260,#261));
#70=EDGE_LOOP('',(#262));
#71=EDGE_LOOP('',(#263));
#72=EDGE_LOOP('',(#264,#265,#266,#267));
#73=EDGE_LOOP('',(#268,#269,#270,#271));
#74=EDGE_LOOP('',(#272,#273,#274,#275));
#75=EDGE_LOOP('',(#276,#277,#278,#279));
#76=EDGE_LOOP('',(#280,#281,#282,#283));
#77=EDGE_LOOP('',(#284,#285,#286,#287));
#78=EDGE_LOOP('',(#288,#289,#290,#291));
#79=EDGE_LOOP('',(#292,#293,#294,#295));
#80=EDGE_LOOP('',(#296,#297,#298,#299));
#81=EDGE_LOOP('',(#300,#301,#302,#303,#304,#305,#306,#307));
#82=EDGE_LOOP('',(#308));
#83=EDGE_LOOP('',(#309));
#84=EDGE_LOOP('',(#310));
#85=EDGE_LOOP('',(#311,#312,#313,#314,#315,#316,#317,#318));
#86=EDGE_LOOP('',(#319));
#87=EDGE_LOOP('',(#320));
#88=EDGE_LOOP('',(#321));
#89=LINE('',#535,#112);
#90=LINE('',#542,#113);
#91=LINE('',#549,#114);
#92=LINE('',#556,#115);
#93=LINE('',#563,#116);
#94=LINE('',#570,#117);
#95=LINE('',#577,#118);
#96=LINE('',#582,#119);
#97=LINE('',#584,#120);
#98=LINE('',#586,#121);
#99=LINE('',#587,#122);
#100=LINE('',#593,#123);
#101=LINE('',#596,#124);
#102=LINE('',#598,#125);
#103=LINE('',#599,#126);
#104=LINE('',#605,#127);
#105=LINE('',#608,#128);
#106=LINE('',#610,#129);
#107=LINE('',#611,#130);
#108=LINE('',#617,#131);
#109=LINE('',#620,#132);
#110=LINE('',#622,#133);
#111=LINE('',#623,#134);
#112=VECTOR('',#421,2.);
#113=VECTOR('',#430,2.);
#114=VECTOR('',#439,2.);
#115=VECTOR('',#448,2.);
#116=VECTOR('',#457,3.);
#117=VECTOR('',#466,3.);
#118=VECTOR('',#475,4.4);
#119=VECTOR('',#480,10.);
#120=VECTOR('',#481,10.);
#121=VECTOR('',#482,10.);
#122=VECTOR('',#483,10.);
#123=VECTOR('',#490,10.);
#124=VECTOR('',#493,10.);
#125=VECTOR('',#494,10.);
#126=VECTOR('',#495,10.);
#127=VECTOR('',#502,10.);
#128=VECTOR('',#505,10.);
#129=VECTOR('',#506,10.);
#130=VECTOR('',#507,10.);
#131=VECTOR('',#514,10.);
#132=VECTOR('',#517,10.);
#133=VECTOR('',#518,10.);
#134=VECTOR('',#519,10.);
#135=CIRCLE('',#371,2.);
#136=CIRCLE('',#372,2.);
#137=CIRCLE('',#375,2.);
#138=CIRCLE('',#376,2.);
#139=CIRCLE('',#379,2.);
#140=CIRCLE('',#380,2.);
#141=CIRCLE('',#383,2.);
#142=CIRCLE('',#384,2.);
#143=CIRCLE('',#387,3.);
#144=CIRCLE('',#388,3.);
#145=CIRCLE('',#391,3.);
#146=CIRCLE('',#392,3.);
#147=CIRCLE('',#395,4.4);
#148=CIRCLE('',#396,4.4);
#149=CIRCLE('',#399,3.99999999999999);
#150=CIRCLE('',#400,3.99999999999999);
#151=CIRCLE('',#403,3.99999999999999);
#152=CIRCLE('',#404,3.99999999999999);
#153=CIRCLE('',#407,3.99999999999999);
#154=CIRCLE('',#408,3.99999999999999);
#155=CIRCLE('',#411,2.99999999999999);
#156=CIRCLE('',#412,2.99999999999999);
#157=VERTEX_POINT('',#532);
#158=VERTEX_POINT('',#534);
#159=VERTEX_POINT('',#539);
#160=VERTEX_POINT('',#541);
#161=VERTEX_POINT('',#546);
#162=VERTEX_POINT('',#548);
#163=VERTEX_POINT('',#553);
#164=VERTEX_POINT('',#555);
#165=VERTEX_POINT('',#560);
#166=VERTEX_POINT('',#562);
#167=VERTEX_POINT('',#567);
#168=VERTEX_POINT('',#569);
#169=VERTEX_POINT('',#574);
#170=VERTEX_POINT('',#576);
#171=VERTEX_POINT('',#580);
#172=VERTEX_POINT('',#581);
#173=VERTEX_POINT('',#583);
#174=VERTEX_POINT('',#585);
#175=VERTEX_POINT('',#589);
#176=VERTEX_POINT('',#591);
#177=VERTEX_POINT('',#595);
#178=VERTEX_POINT('',#597);
#179=VERTEX_POINT('',#601);
#180=VERTEX_POINT('',#603);
#181=VERTEX_POINT('',#607);
#182=VERTEX_POINT('',#609);
#183=VERTEX_POINT('',#613);
#184=VERTEX_POINT('',#615);
#185=VERTEX_POINT('',#619);
#186=VERTEX_POINT('',#621);
#187=EDGE_CURVE('',#157,#157,#135,.T.);
#188=EDGE_CURVE('',#157,#158,#89,.T.);
#189=EDGE_CURVE('',#158,#158,#136,.T.);
#190=EDGE_CURVE('',#159,#159,#137,.T.);
#191=EDGE_CURVE('',#159,#160,#90,.T.);
#192=EDGE_CURVE('',#160,#160,#138,.T.);
#193=EDGE_CURVE('',#161,#161,#139,.T.);
#194=EDGE_CURVE('',#161,#162,#91,.T.);
#195=EDGE_CURVE('',#162,#162,#140,.T.);
#196=EDGE_CURVE('',#163,#163,#141,.T.);
#197=EDGE_CURVE('',#163,#164,#92,.T.);
#198=EDGE_CURVE('',#164,#164,#142,.T.);
#199=EDGE_CURVE('',#165,#165,#143,.T.);
#200=EDGE_CURVE('',#165,#166,#93,.T.);
#201=EDGE_CURVE('',#166,#166,#144,.T.);
#202=EDGE_CURVE('',#167,#167,#145,.T.);
#203=EDGE_CURVE('',#167,#168,#94,.T.);
#204=EDGE_CURVE('',#168,#168,#146,.T.);
#205=EDGE_CURVE('',#169,#169,#147,.T.);
#206=EDGE_CURVE('',#169,#170,#95,.T.);
#207=EDGE_CURVE('',#170,#170,#148,.T.);
#208=EDGE_CURVE('',#171,#172,#96,.T.);
#209=EDGE_CURVE('',#172,#173,#97,.T.);
#210=EDGE_CURVE('',#174,#173,#98,.T.);
#211=EDGE_CURVE('',#171,#174,#99,.T.);
#212=EDGE_CURVE('',#175,#171,#149,.T.);
#213=EDGE_CURVE('',#176,#174,#150,.T.);
#214=EDGE_CURVE('',#175,#176,#100,.T.);
#215=EDGE_CURVE('',#177,#175,#101,.T.);
#216=EDGE_CURVE('',#178,#176,#102,.T.);
#217=EDGE_CURVE('',#177,#178,#103,.T.);
#218=EDGE_CURVE('',#179,#177,#151,.T.);
#219=EDGE_CURVE('',#180,#178,#152,.T.);
#220=EDGE_CURVE('',#179,#180,#104,.T.);
#221=EDGE_CURVE('',#181,#179,#105,.T.);
#222=EDGE_CURVE('',#182,#180,#106,.T.);
#223=EDGE_CURVE('',#181,#182,#107,.T.);
#224=EDGE_CURVE('',#183,#181,#153,.T.);
#225=EDGE_CURVE('',#184,#182,#154,.T.);
#226=EDGE_CURVE('',#183,#184,#108,.T.);
#227=EDGE_CURVE('',#185,#183,#109,.T.);
#228=EDGE_CURVE('',#186,#184,#110,.T.);
#229=EDGE_CURVE('',#185,#186,#111,.T.);
#230=EDGE_CURVE('',#172,#185,#155,.T.);
#231=EDGE_CURVE('',#173,#186,#156,.T.);
#232=ORIENTED_EDGE('',*,*,#187,.F.);
#233=ORIENTED_EDGE('',*,*,#188,.T.);
#234=ORIENTED_EDGE('',*,*,#189,.T.);
#235=ORIENTED_EDGE('',*,*,#188,.F.);
#236=ORIENTED_EDGE('',*,*,#189,.F.);
#237=ORIENTED_EDGE('',*,*,#190,.F.);
#238=ORIENTED_EDGE('',*,*,#191,.T.);
#239=ORIENTED_EDGE('',*,*,#192,.T.);
#240=ORIENTED_EDGE('',*,*,#191,.F.);
#241=ORIENTED_EDGE('',*,*,#192,.F.);
#242=ORIENTED_EDGE('',*,*,#193,.F.);
#243=ORIENTED_EDGE('',*,*,#194,.T.);
#244=ORIENTED_EDGE('',*,*,#195,.T.);
#245=ORIENTED_EDGE('',*,*,#194,.F.);
#246=ORIENTED_EDGE('',*,*,#195,.F.);
#247=ORIENTED_EDGE('',*,*,#196,.F.);
#248=ORIENTED_EDGE('',*,*,#197,.T.);
#249=ORIENTED_EDGE('',*,*,#198,.T.);
#250=ORIENTED_EDGE('',*,*,#197,.F.);
#251=ORIENTED_EDGE('',*,*,#198,.F.);
#252=ORIENTED_EDGE('',*,*,#199,.F.);
#253=ORIENTED_EDGE('',*,*,#200,.T.);
#254=ORIENTED_EDGE('',*,*,#201,.F.);
#255=ORIENTED_EDGE('',*,*,#200,.F.);
#256=ORIENTED_EDGE('',*,*,#199,.T.);
#257=ORIENTED_EDGE('',*,*,#190,.T.);
#258=ORIENTED_EDGE('',*,*,#202,.F.);
#259=ORIENTED_EDGE('',*,*,#203,.T.);
#260=ORIENTED_EDGE('',*,*,#204,.F.);
#261=ORIENTED_EDGE('',*,*,#203,.F.);
#262=ORIENTED_EDGE('',*,*,#202,.T.);
#263=ORIENTED_EDGE('',*,*,#187,.T.);
#264=ORIENTED_EDGE('',*,*,#205,.F.);
#265=ORIENTED_EDGE('',*,*,#206,.T.);
#266=ORIENTED_EDGE('',*,*,#207,.T.);
#267=ORIENTED_EDGE('',*,*,#206,.F.);
#268=ORIENTED_EDGE('',*,*,#208,.T.);
#269=ORIENTED_EDGE('',*,*,#209,.T.);
#270=ORIENTED_EDGE('',*,*,#210,.F.);
#271=ORIENTED_EDGE('',*,*,#211,.F.);
#272=ORIENTED_EDGE('',*,*,#212,.T.);
#273=ORIENTED_EDGE('',*,*,#211,.T.);
#274=ORIENTED_EDGE('',*,*,#213,.F.);
#275=ORIENTED_EDGE('',*,*,#214,.F.);
#276=ORIENTED_EDGE('',*,*,#215,.T.);
#277=ORIENTED_EDGE('',*,*,#214,.T.);
#278=ORIENTED_EDGE('',*,*,#216,.F.);
#279=ORIENTED_EDGE('',*,*,#217,.F.);
#280=ORIENTED_EDGE('',*,*,#218,.T.);
#281=ORIENTED_EDGE('',*,*,#217,.T.);
#282=ORIENTED_EDGE('',*,*,#219,.F.);
#283=ORIENTED_EDGE('',*,*,#220,.F.);
#284=ORIENTED_EDGE('',*,*,#221,.T.);
#285=ORIENTED_EDGE('',*,*,#220,.T.);
#286=ORIENTED_EDGE('',*,*,#222,.F.);
#287=ORIENTED_EDGE('',*,*,#223,.F.);
#288=ORIENTED_EDGE('',*,*,#224,.T.);
#289=ORIENTED_EDGE('',*,*,#223,.T.);
#290=ORIENTED_EDGE('',*,*,#225,.F.);
#291=ORIENTED_EDGE('',*,*,#226,.F.);
#292=ORIENTED_EDGE('',*,*,#227,.T.);
#293=ORIENTED_EDGE('',*,*,#226,.T.);
#294=ORIENTED_EDGE('',*,*,#228,.F.);
#295=ORIENTED_EDGE('',*,*,#229,.F.);
#296=ORIENTED_EDGE('',*,*,#230,.T.);
#297=ORIENTED_EDGE('',*,*,#229,.T.);
#298=ORIENTED_EDGE('',*,*,#231,.F.);
#299=ORIENTED_EDGE('',*,*,#209,.F.);
#300=ORIENTED_EDGE('',*,*,#231,.T.);
#301=ORIENTED_EDGE('',*,*,#228,.T.);
#302=ORIENTED_EDGE('',*,*,#225,.T.);
#303=ORIENTED_EDGE('',*,*,#222,.T.);
#304=ORIENTED_EDGE('',*,*,#219,.T.);
#305=ORIENTED_EDGE('',*,*,#216,.T.);
#306=ORIENTED_EDGE('',*,*,#213,.T.);
#307=ORIENTED_EDGE('',*,*,#210,.T.);
#308=ORIENTED_EDGE('',*,*,#201,.T.);
#309=ORIENTED_EDGE('',*,*,#204,.T.);
#310=ORIENTED_EDGE('',*,*,#205,.T.);
#311=ORIENTED_EDGE('',*,*,#230,.F.);
#312=ORIENTED_EDGE('',*,*,#208,.F.);
#313=ORIENTED_EDGE('',*,*,#212,.F.);
#314=ORIENTED_EDGE('',*,*,#215,.F.);
#315=ORIENTED_EDGE('',*,*,#218,.F.);
#316=ORIENTED_EDGE('',*,*,#221,.F.);
#317=ORIENTED_EDGE('',*,*,#224,.F.);
#318=ORIENTED_EDGE('',*,*,#227,.F.);
#319=ORIENTED_EDGE('',*,*,#193,.T.);
#320=ORIENTED_EDGE('',*,*,#196,.T.);
#321=ORIENTED_EDGE('',*,*,#207,.F.);
#322=CYLINDRICAL_SURFACE('',#370,2.);
#323=CYLINDRICAL_SURFACE('',#374,2.);
#324=CYLINDRICAL_SURFACE('',#378,2.);
#325=CYLINDRICAL_SURFACE('',#382,2.);
#326=CYLINDRICAL_SURFACE('',#386,3.);
#327=CYLINDRICAL_SURFACE('',#390,3.);
#328=CYLINDRICAL_SURFACE('',#394,4.4);
#329=CYLINDRICAL_SURFACE('',#398,3.99999999999999);
#330=CYLINDRICAL_SURFACE('',#402,3.99999999999999);
#331=CYLINDRICAL_SURFACE('',#406,3.99999999999999);
#332=CYLINDRICAL_SURFACE('',#410,2.99999999999999);
#333=ADVANCED_FACE('',(#35),#322,.F.);
#334=ADVANCED_FACE('',(#36),#23,.F.);
#335=ADVANCED_FACE('',(#37),#323,.F.);
#336=ADVANCED_FACE('',(#38),#24,.F.);
#337=ADVANCED_FACE('',(#39),#324,.F.);
#338=ADVANCED_FACE('',(#40),#25,.F.);
#339=ADVANCED_FACE('',(#41),#325,.F.);
#340=ADVANCED_FACE('',(#42),#26,.F.);
#341=ADVANCED_FACE('',(#43),#326,.T.);
#342=ADVANCED_FACE('',(#44,#15),#27,.T.);
#343=ADVANCED_FACE('',(#45),#327,.T.);
#344=ADVANCED_FACE('',(#46,#16),#28,.T.);
#345=ADVANCED_FACE('',(#47),#328,.F.);
#346=ADVANCED_FACE('',(#48),#29,.T.);
#347=ADVANCED_FACE('',(#49),#329,.T.);
#348=ADVANCED_FACE('',(#50),#30,.T.);
#349=ADVANCED_FACE('',(#51),#330,.T.);
#350=ADVANCED_FACE('',(#52),#31,.T.);
#351=ADVANCED_FACE('',(#53),#331,.T.);
#352=ADVANCED_FACE('',(#54),#32,.T.);
#353=ADVANCED_FACE('',(#55),#332,.T.);
#354=ADVANCED_FACE('',(#56,#17,#18,#19),#33,.T.);
#355=ADVANCED_FACE('',(#57,#20,#21,#22),#34,.F.);
#356=CLOSED_SHELL('',(#333,#334,#335,#336,#337,#338,#339,#340,#341,#342,
#343,#344,#345,#346,#347,#348,#349,#350,#351,#352,#353,#354,#355));
#357=DERIVED_UNIT_ELEMENT(#359,1.);
#358=DERIVED_UNIT_ELEMENT(#634,-3.);
#359=(
MASS_UNIT()
NAMED_UNIT(*)
SI_UNIT(.KILO.,.GRAM.)
);
#360=DERIVED_UNIT((#357,#358));
#361=MEASURE_REPRESENTATION_ITEM('density measure',
POSITIVE_RATIO_MEASURE(8490.),#360);
#362=PROPERTY_DEFINITION_REPRESENTATION(#367,#364);
#363=PROPERTY_DEFINITION_REPRESENTATION(#368,#365);
#364=REPRESENTATION('material name',(#366),#631);
#365=REPRESENTATION('density',(#361),#631);
#366=DESCRIPTIVE_REPRESENTATION_ITEM('\X2\9EC494DC\X0\','\X2\9EC494DC\X0\');
#367=PROPERTY_DEFINITION('material property','material name',#641);
#368=PROPERTY_DEFINITION('material property','density of part',#641);
#369=AXIS2_PLACEMENT_3D('',#530,#415,#416);
#370=AXIS2_PLACEMENT_3D('',#531,#417,#418);
#371=AXIS2_PLACEMENT_3D('',#533,#419,#420);
#372=AXIS2_PLACEMENT_3D('',#536,#422,#423);
#373=AXIS2_PLACEMENT_3D('',#537,#424,#425);
#374=AXIS2_PLACEMENT_3D('',#538,#426,#427);
#375=AXIS2_PLACEMENT_3D('',#540,#428,#429);
#376=AXIS2_PLACEMENT_3D('',#543,#431,#432);
#377=AXIS2_PLACEMENT_3D('',#544,#433,#434);
#378=AXIS2_PLACEMENT_3D('',#545,#435,#436);
#379=AXIS2_PLACEMENT_3D('',#547,#437,#438);
#380=AXIS2_PLACEMENT_3D('',#550,#440,#441);
#381=AXIS2_PLACEMENT_3D('',#551,#442,#443);
#382=AXIS2_PLACEMENT_3D('',#552,#444,#445);
#383=AXIS2_PLACEMENT_3D('',#554,#446,#447);
#384=AXIS2_PLACEMENT_3D('',#557,#449,#450);
#385=AXIS2_PLACEMENT_3D('',#558,#451,#452);
#386=AXIS2_PLACEMENT_3D('',#559,#453,#454);
#387=AXIS2_PLACEMENT_3D('',#561,#455,#456);
#388=AXIS2_PLACEMENT_3D('',#564,#458,#459);
#389=AXIS2_PLACEMENT_3D('',#565,#460,#461);
#390=AXIS2_PLACEMENT_3D('',#566,#462,#463);
#391=AXIS2_PLACEMENT_3D('',#568,#464,#465);
#392=AXIS2_PLACEMENT_3D('',#571,#467,#468);
#393=AXIS2_PLACEMENT_3D('',#572,#469,#470);
#394=AXIS2_PLACEMENT_3D('',#573,#471,#472);
#395=AXIS2_PLACEMENT_3D('',#575,#473,#474);
#396=AXIS2_PLACEMENT_3D('',#578,#476,#477);
#397=AXIS2_PLACEMENT_3D('',#579,#478,#479);
#398=AXIS2_PLACEMENT_3D('',#588,#484,#485);
#399=AXIS2_PLACEMENT_3D('',#590,#486,#487);
#400=AXIS2_PLACEMENT_3D('',#592,#488,#489);
#401=AXIS2_PLACEMENT_3D('',#594,#491,#492);
#402=AXIS2_PLACEMENT_3D('',#600,#496,#497);
#403=AXIS2_PLACEMENT_3D('',#602,#498,#499);
#404=AXIS2_PLACEMENT_3D('',#604,#500,#501);
#405=AXIS2_PLACEMENT_3D('',#606,#503,#504);
#406=AXIS2_PLACEMENT_3D('',#612,#508,#509);
#407=AXIS2_PLACEMENT_3D('',#614,#510,#511);
#408=AXIS2_PLACEMENT_3D('',#616,#512,#513);
#409=AXIS2_PLACEMENT_3D('',#618,#515,#516);
#410=AXIS2_PLACEMENT_3D('',#624,#520,#521);
#411=AXIS2_PLACEMENT_3D('',#625,#522,#523);
#412=AXIS2_PLACEMENT_3D('',#626,#524,#525);
#413=AXIS2_PLACEMENT_3D('',#627,#526,#527);
#414=AXIS2_PLACEMENT_3D('',#628,#528,#529);
#415=DIRECTION('axis',(0.,0.,1.));
#416=DIRECTION('refdir',(1.,0.,0.));
#417=DIRECTION('center_axis',(0.,-1.,0.));
#418=DIRECTION('ref_axis',(0.,0.,1.));
#419=DIRECTION('center_axis',(0.,-1.,0.));
#420=DIRECTION('ref_axis',(0.,0.,1.));
#421=DIRECTION('',(0.,-1.,0.));
#422=DIRECTION('center_axis',(0.,-1.,0.));
#423=DIRECTION('ref_axis',(0.,0.,1.));
#424=DIRECTION('center_axis',(0.,-1.,0.));
#425=DIRECTION('ref_axis',(0.,0.,1.));
#426=DIRECTION('center_axis',(0.,-1.,0.));
#427=DIRECTION('ref_axis',(0.,0.,1.));
#428=DIRECTION('center_axis',(0.,-1.,0.));
#429=DIRECTION('ref_axis',(0.,0.,1.));
#430=DIRECTION('',(0.,-1.,0.));
#431=DIRECTION('center_axis',(0.,-1.,0.));
#432=DIRECTION('ref_axis',(0.,0.,1.));
#433=DIRECTION('center_axis',(0.,-1.,0.));
#434=DIRECTION('ref_axis',(0.,0.,1.));
#435=DIRECTION('center_axis',(0.,1.,0.));
#436=DIRECTION('ref_axis',(0.,0.,-1.));
#437=DIRECTION('center_axis',(0.,1.,0.));
#438=DIRECTION('ref_axis',(0.,0.,-1.));
#439=DIRECTION('',(0.,1.,0.));
#440=DIRECTION('center_axis',(0.,1.,0.));
#441=DIRECTION('ref_axis',(0.,0.,-1.));
#442=DIRECTION('center_axis',(0.,1.,0.));
#443=DIRECTION('ref_axis',(0.,0.,-1.));
#444=DIRECTION('center_axis',(0.,1.,0.));
#445=DIRECTION('ref_axis',(0.,0.,-1.));
#446=DIRECTION('center_axis',(0.,1.,0.));
#447=DIRECTION('ref_axis',(0.,0.,-1.));
#448=DIRECTION('',(0.,1.,0.));
#449=DIRECTION('center_axis',(0.,1.,0.));
#450=DIRECTION('ref_axis',(0.,0.,-1.));
#451=DIRECTION('center_axis',(0.,1.,0.));
#452=DIRECTION('ref_axis',(0.,0.,-1.));
#453=DIRECTION('center_axis',(0.,1.,0.));
#454=DIRECTION('ref_axis',(-1.,0.,0.));
#455=DIRECTION('center_axis',(0.,1.,0.));
#456=DIRECTION('ref_axis',(-1.,0.,0.));
#457=DIRECTION('',(0.,-1.,0.));
#458=DIRECTION('center_axis',(0.,-1.,0.));
#459=DIRECTION('ref_axis',(-1.,0.,0.));
#460=DIRECTION('center_axis',(0.,1.,0.));
#461=DIRECTION('ref_axis',(-1.,0.,0.));
#462=DIRECTION('center_axis',(0.,1.,0.));
#463=DIRECTION('ref_axis',(-1.,0.,0.));
#464=DIRECTION('center_axis',(0.,1.,0.));
#465=DIRECTION('ref_axis',(-1.,0.,0.));
#466=DIRECTION('',(0.,-1.,0.));
#467=DIRECTION('center_axis',(0.,-1.,0.));
#468=DIRECTION('ref_axis',(-1.,0.,0.));
#469=DIRECTION('center_axis',(0.,1.,0.));
#470=DIRECTION('ref_axis',(-1.,0.,0.));
#471=DIRECTION('center_axis',(0.,1.,0.));
#472=DIRECTION('ref_axis',(-1.,0.,0.));
#473=DIRECTION('center_axis',(0.,-1.,0.));
#474=DIRECTION('ref_axis',(-1.,0.,0.));
#475=DIRECTION('',(0.,-1.,0.));
#476=DIRECTION('center_axis',(0.,-1.,0.));
#477=DIRECTION('ref_axis',(-1.,0.,0.));
#478=DIRECTION('center_axis',(1.,0.,0.));
#479=DIRECTION('ref_axis',(0.,0.,-1.));
#480=DIRECTION('',(0.,0.,-1.));
#481=DIRECTION('',(0.,1.,0.));
#482=DIRECTION('',(0.,0.,-1.));
#483=DIRECTION('',(0.,1.,0.));
#484=DIRECTION('center_axis',(0.,1.,0.));
#485=DIRECTION('ref_axis',(-1.11022302462516E-15,0.,1.));
#486=DIRECTION('center_axis',(0.,1.,0.));
#487=DIRECTION('ref_axis',(-1.11022302462516E-15,0.,1.));
#488=DIRECTION('center_axis',(0.,1.,0.));
#489=DIRECTION('ref_axis',(-1.11022302462516E-15,0.,1.));
#490=DIRECTION('',(0.,1.,0.));
#491=DIRECTION('center_axis',(6.3441315692866E-16,0.,1.));
#492=DIRECTION('ref_axis',(1.,0.,-6.3441315692866E-16));
#493=DIRECTION('',(1.,0.,-6.3441315692866E-16));
#494=DIRECTION('',(1.,0.,-6.3441315692866E-16));
#495=DIRECTION('',(0.,1.,0.));
#496=DIRECTION('center_axis',(0.,1.,0.));
#497=DIRECTION('ref_axis',(-1.,0.,0.));
#498=DIRECTION('center_axis',(0.,1.,0.));
#499=DIRECTION('ref_axis',(-1.,0.,0.));
#500=DIRECTION('center_axis',(0.,1.,0.));
#501=DIRECTION('ref_axis',(-1.,0.,0.));
#502=DIRECTION('',(0.,1.,0.));
#503=DIRECTION('center_axis',(-1.,0.,0.));
#504=DIRECTION('ref_axis',(0.,0.,1.));
#505=DIRECTION('',(0.,0.,1.));
#506=DIRECTION('',(0.,0.,1.));
#507=DIRECTION('',(0.,1.,0.));
#508=DIRECTION('center_axis',(0.,1.,0.));
#509=DIRECTION('ref_axis',(0.,0.,-1.));
#510=DIRECTION('center_axis',(0.,1.,0.));
#511=DIRECTION('ref_axis',(0.,0.,-1.));
#512=DIRECTION('center_axis',(0.,1.,0.));
#513=DIRECTION('ref_axis',(0.,0.,-1.));
#514=DIRECTION('',(0.,1.,0.));
#515=DIRECTION('center_axis',(0.,0.,-1.));
#516=DIRECTION('ref_axis',(-1.,0.,0.));
#517=DIRECTION('',(-1.,0.,0.));
#518=DIRECTION('',(-1.,0.,0.));
#519=DIRECTION('',(0.,1.,0.));
#520=DIRECTION('center_axis',(0.,1.,0.));
#521=DIRECTION('ref_axis',(1.,0.,2.96059473233376E-15));
#522=DIRECTION('center_axis',(0.,1.,0.));
#523=DIRECTION('ref_axis',(1.,0.,2.96059473233376E-15));
#524=DIRECTION('center_axis',(0.,1.,0.));
#525=DIRECTION('ref_axis',(1.,0.,2.96059473233376E-15));
#526=DIRECTION('center_axis',(0.,1.,0.));
#527=DIRECTION('ref_axis',(-1.,0.,0.));
#528=DIRECTION('center_axis',(0.,1.,0.));
#529=DIRECTION('ref_axis',(-1.,0.,0.));
#530=CARTESIAN_POINT('',(0.,0.,0.));
#531=CARTESIAN_POINT('Origin',(19.4930638098027,34.,-21.6722134835344));
#532=CARTESIAN_POINT('',(19.4930638098027,36.5,-23.6722134835344));
#533=CARTESIAN_POINT('Origin',(19.4930638098027,36.5,-21.6722134835344));
#534=CARTESIAN_POINT('',(19.4930638098027,31.5,-23.6722134835344));
#535=CARTESIAN_POINT('',(19.4930638098027,34.,-23.6722134835344));
#536=CARTESIAN_POINT('Origin',(19.4930638098027,31.5,-21.6722134835344));
#537=CARTESIAN_POINT('Origin',(19.4930638098027,31.5,-21.6722134835344));
#538=CARTESIAN_POINT('Origin',(19.4930638098027,34.,-51.6722134835344));
#539=CARTESIAN_POINT('',(19.4930638098027,36.5,-53.6722134835344));
#540=CARTESIAN_POINT('Origin',(19.4930638098027,36.5,-51.6722134835344));
#541=CARTESIAN_POINT('',(19.4930638098027,31.5,-53.6722134835344));
#542=CARTESIAN_POINT('',(19.4930638098027,34.,-53.6722134835344));
#543=CARTESIAN_POINT('Origin',(19.4930638098027,31.5,-51.6722134835344));
#544=CARTESIAN_POINT('Origin',(19.4930638098027,31.5,-51.6722134835344));
#545=CARTESIAN_POINT('Origin',(19.4930638098027,11.,-21.6722134835344));
#546=CARTESIAN_POINT('',(19.4930638098027,8.5,-19.6722134835344));
#547=CARTESIAN_POINT('Origin',(19.4930638098027,8.5,-21.6722134835344));
#548=CARTESIAN_POINT('',(19.4930638098027,13.5,-19.6722134835344));
#549=CARTESIAN_POINT('',(19.4930638098027,11.,-19.6722134835344));
#550=CARTESIAN_POINT('Origin',(19.4930638098027,13.5,-21.6722134835344));
#551=CARTESIAN_POINT('Origin',(19.4930638098027,13.5,-21.6722134835344));
#552=CARTESIAN_POINT('Origin',(19.4930638098027,11.,-51.6722134835344));
#553=CARTESIAN_POINT('',(19.4930638098027,8.5,-49.6722134835344));
#554=CARTESIAN_POINT('Origin',(19.4930638098027,8.5,-51.6722134835344));
#555=CARTESIAN_POINT('',(19.4930638098027,13.5,-49.6722134835344));
#556=CARTESIAN_POINT('',(19.4930638098027,11.,-49.6722134835344));
#557=CARTESIAN_POINT('Origin',(19.4930638098027,13.5,-51.6722134835344));
#558=CARTESIAN_POINT('Origin',(19.4930638098027,13.5,-51.6722134835344));
#559=CARTESIAN_POINT('Origin',(19.4930638098027,8.5,-51.6722134835344));
#560=CARTESIAN_POINT('',(22.4930638098027,36.5,-51.6722134835344));
#561=CARTESIAN_POINT('Origin',(19.4930638098027,36.5,-51.6722134835344));
#562=CARTESIAN_POINT('',(22.4930638098027,10.5,-51.6722134835344));
#563=CARTESIAN_POINT('',(22.4930638098027,8.5,-51.6722134835344));
#564=CARTESIAN_POINT('Origin',(19.4930638098027,10.5,-51.6722134835344));
#565=CARTESIAN_POINT('Origin',(19.4930638098027,36.5,-51.6722134835344));
#566=CARTESIAN_POINT('Origin',(19.4930638098027,8.5,-21.6722134835344));
#567=CARTESIAN_POINT('',(22.4930638098027,36.5,-21.6722134835344));
#568=CARTESIAN_POINT('Origin',(19.4930638098027,36.5,-21.6722134835344));
#569=CARTESIAN_POINT('',(22.4930638098027,10.5,-21.6722134835344));
#570=CARTESIAN_POINT('',(22.4930638098027,8.5,-21.6722134835344));
#571=CARTESIAN_POINT('Origin',(19.4930638098027,10.5,-21.6722134835344));
#572=CARTESIAN_POINT('Origin',(19.4930638098027,36.5,-21.6722134835344));
#573=CARTESIAN_POINT('Origin',(19.4930638098027,8.5,-36.6722134835344));
#574=CARTESIAN_POINT('',(23.8930638098027,10.5,-36.6722134835344));
#575=CARTESIAN_POINT('Origin',(19.4930638098027,10.5,-36.6722134835344));
#576=CARTESIAN_POINT('',(23.8930638098027,8.5,-36.6722134835344));
#577=CARTESIAN_POINT('',(23.8930638098027,8.5,-36.6722134835344));
#578=CARTESIAN_POINT('Origin',(19.4930638098027,8.5,-36.6722134835344));
#579=CARTESIAN_POINT('Origin',(26.9930638098027,8.5,-20.6722134835344));
#580=CARTESIAN_POINT('',(26.9930638098027,8.5,-20.6722134835344));
#581=CARTESIAN_POINT('',(26.9930638098027,8.5,-53.6722134835344));
#582=CARTESIAN_POINT('',(26.9930638098027,8.5,-20.6722134835344));
#583=CARTESIAN_POINT('',(26.9930638098027,10.5,-53.6722134835344));
#584=CARTESIAN_POINT('',(26.9930638098027,8.5,-53.6722134835344));
#585=CARTESIAN_POINT('',(26.9930638098027,10.5,-20.6722134835344));
#586=CARTESIAN_POINT('',(26.9930638098027,10.5,-20.6722134835344));
#587=CARTESIAN_POINT('',(26.9930638098027,8.5,-20.6722134835344));
#588=CARTESIAN_POINT('Origin',(22.9930638098027,8.5,-20.6722134835344));
#589=CARTESIAN_POINT('',(22.9930638098027,8.5,-16.6722134835344));
#590=CARTESIAN_POINT('Origin',(22.9930638098027,8.5,-20.6722134835344));
#591=CARTESIAN_POINT('',(22.9930638098027,10.5,-16.6722134835344));
#592=CARTESIAN_POINT('Origin',(22.9930638098027,10.5,-20.6722134835344));
#593=CARTESIAN_POINT('',(22.9930638098027,8.5,-16.6722134835344));
#594=CARTESIAN_POINT('Origin',(15.9930638098027,8.5,-16.6722134835344));
#595=CARTESIAN_POINT('',(15.9930638098027,8.5,-16.6722134835344));
#596=CARTESIAN_POINT('',(15.9930638098027,8.5,-16.6722134835344));
#597=CARTESIAN_POINT('',(15.9930638098027,10.5,-16.6722134835344));
#598=CARTESIAN_POINT('',(15.9930638098027,10.5,-16.6722134835344));
#599=CARTESIAN_POINT('',(15.9930638098027,8.5,-16.6722134835344));
#600=CARTESIAN_POINT('Origin',(15.9930638098027,8.5,-20.6722134835344));
#601=CARTESIAN_POINT('',(11.9930638098027,8.5,-20.6722134835344));
#602=CARTESIAN_POINT('Origin',(15.9930638098027,8.5,-20.6722134835344));
#603=CARTESIAN_POINT('',(11.9930638098027,10.5,-20.6722134835344));
#604=CARTESIAN_POINT('Origin',(15.9930638098027,10.5,-20.6722134835344));
#605=CARTESIAN_POINT('',(11.9930638098027,8.5,-20.6722134835344));
#606=CARTESIAN_POINT('Origin',(11.9930638098027,8.5,-52.6722134835344));
#607=CARTESIAN_POINT('',(11.9930638098027,8.5,-52.6722134835344));
#608=CARTESIAN_POINT('',(11.9930638098027,8.5,-52.6722134835344));
#609=CARTESIAN_POINT('',(11.9930638098027,10.5,-52.6722134835344));
#610=CARTESIAN_POINT('',(11.9930638098027,10.5,-52.6722134835344));
#611=CARTESIAN_POINT('',(11.9930638098027,8.5,-52.6722134835344));
#612=CARTESIAN_POINT('Origin',(15.9930638098027,8.5,-52.6722134835344));
#613=CARTESIAN_POINT('',(15.9930638098027,8.5,-56.6722134835344));
#614=CARTESIAN_POINT('Origin',(15.9930638098027,8.5,-52.6722134835344));
#615=CARTESIAN_POINT('',(15.9930638098027,10.5,-56.6722134835344));
#616=CARTESIAN_POINT('Origin',(15.9930638098027,10.5,-52.6722134835344));
#617=CARTESIAN_POINT('',(15.9930638098027,8.5,-56.6722134835344));
#618=CARTESIAN_POINT('Origin',(23.9930638098027,8.5,-56.6722134835344));
#619=CARTESIAN_POINT('',(23.9930638098027,8.5,-56.6722134835344));
#620=CARTESIAN_POINT('',(23.9930638098027,8.5,-56.6722134835344));
#621=CARTESIAN_POINT('',(23.9930638098027,10.5,-56.6722134835344));
#622=CARTESIAN_POINT('',(23.9930638098027,10.5,-56.6722134835344));
#623=CARTESIAN_POINT('',(23.9930638098027,8.5,-56.6722134835344));
#624=CARTESIAN_POINT('Origin',(23.9930638098027,8.5,-53.6722134835344));
#625=CARTESIAN_POINT('Origin',(23.9930638098027,8.5,-53.6722134835344));
#626=CARTESIAN_POINT('Origin',(23.9930638098027,10.5,-53.6722134835344));
#627=CARTESIAN_POINT('Origin',(19.4930638098027,10.5,-36.6722134835344));
#628=CARTESIAN_POINT('Origin',(19.4930638098027,8.5,-36.6722134835344));
#629=UNCERTAINTY_MEASURE_WITH_UNIT(LENGTH_MEASURE(0.01),#633,
'DISTANCE_ACCURACY_VALUE',
'Maximum model space distance between geometric entities at asserted c
onnectivities');
#630=UNCERTAINTY_MEASURE_WITH_UNIT(LENGTH_MEASURE(0.01),#633,
'DISTANCE_ACCURACY_VALUE',
'Maximum model space distance between geometric entities at asserted c
onnectivities');
#631=(
GEOMETRIC_REPRESENTATION_CONTEXT(3)
GLOBAL_UNCERTAINTY_ASSIGNED_CONTEXT((#629))
GLOBAL_UNIT_ASSIGNED_CONTEXT((#633,#635,#636))
REPRESENTATION_CONTEXT('','3D')
);
#632=(
GEOMETRIC_REPRESENTATION_CONTEXT(3)
GLOBAL_UNCERTAINTY_ASSIGNED_CONTEXT((#630))
GLOBAL_UNIT_ASSIGNED_CONTEXT((#633,#635,#636))
REPRESENTATION_CONTEXT('','3D')
);
#633=(
LENGTH_UNIT()
NAMED_UNIT(*)
SI_UNIT(.MILLI.,.METRE.)
);
#634=(
LENGTH_UNIT()
NAMED_UNIT(*)
SI_UNIT($,.METRE.)
);
#635=(
NAMED_UNIT(*)
PLANE_ANGLE_UNIT()
SI_UNIT($,.RADIAN.)
);
#636=(
NAMED_UNIT(*)
SI_UNIT($,.STERADIAN.)
SOLID_ANGLE_UNIT()
);
#637=SHAPE_DEFINITION_REPRESENTATION(#638,#639);
#638=PRODUCT_DEFINITION_SHAPE('',$,#641);
#639=SHAPE_REPRESENTATION('',(#369),#631);
#640=PRODUCT_DEFINITION_CONTEXT('part definition',#645,'design');
#641=PRODUCT_DEFINITION('\X2\65CB8F6C652F67B6\X0\','\X2\65CB8F6C652F67B6\X0\',
#642,#640);
#642=PRODUCT_DEFINITION_FORMATION('',$,#647);
#643=PRODUCT_RELATED_PRODUCT_CATEGORY('\X2\65CB8F6C652F67B6\X0\',
'\X2\65CB8F6C652F67B6\X0\',(#647));
#644=APPLICATION_PROTOCOL_DEFINITION('international standard',
'automotive_design',2009,#645);
#645=APPLICATION_CONTEXT(
'Core Data for Automotive Mechanical Design Process');
#646=PRODUCT_CONTEXT('part definition',#645,'mechanical');
#647=PRODUCT('\X2\65CB8F6C652F67B6\X0\','\X2\65CB8F6C652F67B6\X0\',$,(#646));
#648=PRESENTATION_STYLE_ASSIGNMENT((#649));
#649=SURFACE_STYLE_USAGE(.BOTH.,#650);
#650=SURFACE_SIDE_STYLE('',(#651));
#651=SURFACE_STYLE_FILL_AREA(#652);
#652=FILL_AREA_STYLE('\X2\9EC494DC\X0\ - \X2\629B5149\X0\',(#653));
#653=FILL_AREA_STYLE_COLOUR('\X2\9EC494DC\X0\ - \X2\629B5149\X0\',#654);
#654=COLOUR_RGB('\X2\9EC494DC\X0\ - \X2\629B5149\X0\',0.952941176470588,
0.796078431372549,0.486274509803922);
ENDSEC;
END-ISO-10303-21;
