ISO-10303-21;
HEADER;
/* Generated by software containing ST-Developer
 * from STEP Tools, Inc. (www.steptools.com) 
 */

FILE_DESCRIPTION(
/* description */ (''),
/* implementation_level */ '2;1');

FILE_NAME(
/* name */ '',
/* time_stamp */ '2026-03-15T10:05:57+08:00',
/* author */ (''),
/* organization */ (''),
/* preprocessor_version */ 'ST-DEVELOPER v20.1',
/* originating_system */ 'Autodesk Translation Framework v14.24.0.0',
/* authorisation */ '');

FILE_SCHEMA (('AUTOMOTIVE_DESIGN { 1 0 10303 214 3 1 1 }'));
ENDSEC;

DATA;
#10=MECHANICAL_DESIGN_GEOMETRIC_PRESENTATION_REPRESENTATION('',(#13),#835);
#11=SHAPE_REPRESENTATION_RELATIONSHIP('SRR','None',#842,#12);
#12=ADVANCED_BREP_SHAPE_REPRESENTATION('',(#14),#834);
#13=STYLED_ITEM('',(#852),#14);
#14=MANIFOLD_SOLID_BREP('\X2\5B9E4F53\X0\1',#445);
#15=FACE_BOUND('',#81,.T.);
#16=FACE_BOUND('',#84,.T.);
#17=FACE_BOUND('',#88,.T.);
#18=FACE_BOUND('',#90,.T.);
#19=B_SPLINE_CURVE_WITH_KNOTS('',3,(#733,#734,#735,#736,#737,#738,#739,
#740,#741,#742,#743,#744,#745,#746,#747,#748,#749,#750),.UNSPECIFIED.,.F.,
 .F.,(4,2,2,2,2,2,2,2,4),(0.226466751188939,0.28308268289157,0.339698614594202,
0.39631605848604,0.452933502377878,0.509550946269716,0.566168390161555,
0.622784321864186,0.679400253566817),.UNSPECIFIED.);
#20=B_SPLINE_CURVE_WITH_KNOTS('',3,(#752,#753,#754,#755,#756,#757,#758,
#759,#760,#761),.UNSPECIFIED.,.F.,.F.,(4,2,2,2,4),(0.905867004755756,0.962484448647594,
1.01910189253943,1.07571782424206,1.13233375594469),.UNSPECIFIED.);
#21=B_SPLINE_CURVE_WITH_KNOTS('',3,(#764,#765,#766,#767,#768,#769,#770,
#771,#772,#773,#774,#775,#776,#777,#778,#779,#780,#781,#782,#783,#784,#785,
#786,#787,#788,#789,#790,#791,#792,#793,#794,#795,#796,#797),
 .UNSPECIFIED.,.T.,.F.,(4,2,2,2,2,2,2,2,2,2,2,2,2,2,2,2,4),(0.,0.0567456209188215,
0.113491241837643,0.170230156120701,0.22696907040376,0.283707984686818,
0.340446898969877,0.397192519888698,0.45393814080752,0.510683761726341,
0.567429382645163,0.624168296928221,0.68090721121128,0.737646125494338,
0.794385039777396,0.851130660696218,0.907876281615039),.UNSPECIFIED.);
#22=B_SPLINE_CURVE_WITH_KNOTS('',3,(#798,#799,#800,#801,#802,#803,#804,
#805,#806,#807),.UNSPECIFIED.,.F.,.F.,(4,2,2,2,4),(0.679400253566817,0.736016185269448,
0.792632116972079,0.849249560863918,0.905867004755756),.UNSPECIFIED.);
#23=PLANE('',#462);
#24=PLANE('',#463);
#25=PLANE('',#464);
#26=PLANE('',#469);
#27=PLANE('',#470);
#28=PLANE('',#471);
#29=PLANE('',#477);
#30=PLANE('',#478);
#31=PLANE('',#479);
#32=PLANE('',#484);
#33=PLANE('',#485);
#34=PLANE('',#486);
#35=PLANE('',#492);
#36=PLANE('',#499);
#37=PLANE('',#503);
#38=PLANE('',#504);
#39=FACE_OUTER_BOUND('',#63,.T.);
#40=FACE_OUTER_BOUND('',#64,.T.);
#41=FACE_OUTER_BOUND('',#65,.T.);
#42=FACE_OUTER_BOUND('',#66,.T.);
#43=FACE_OUTER_BOUND('',#67,.T.);
#44=FACE_OUTER_BOUND('',#68,.T.);
#45=FACE_OUTER_BOUND('',#69,.T.);
#46=FACE_OUTER_BOUND('',#70,.T.);
#47=FACE_OUTER_BOUND('',#71,.T.);
#48=FACE_OUTER_BOUND('',#72,.T.);
#49=FACE_OUTER_BOUND('',#73,.T.);
#50=FACE_OUTER_BOUND('',#74,.T.);
#51=FACE_OUTER_BOUND('',#75,.T.);
#52=FACE_OUTER_BOUND('',#76,.T.);
#53=FACE_OUTER_BOUND('',#77,.T.);
#54=FACE_OUTER_BOUND('',#78,.T.);
#55=FACE_OUTER_BOUND('',#79,.T.);
#56=FACE_OUTER_BOUND('',#80,.T.);
#57=FACE_OUTER_BOUND('',#82,.T.);
#58=FACE_OUTER_BOUND('',#83,.T.);
#59=FACE_OUTER_BOUND('',#85,.T.);
#60=FACE_OUTER_BOUND('',#86,.T.);
#61=FACE_OUTER_BOUND('',#87,.T.);
#62=FACE_OUTER_BOUND('',#89,.T.);
#63=EDGE_LOOP('',(#289,#290,#291,#292));
#64=EDGE_LOOP('',(#293,#294,#295,#296));
#65=EDGE_LOOP('',(#297,#298,#299,#300));
#66=EDGE_LOOP('',(#301,#302,#303,#304));
#67=EDGE_LOOP('',(#305,#306,#307,#308));
#68=EDGE_LOOP('',(#309,#310,#311,#312));
#69=EDGE_LOOP('',(#313,#314,#315,#316));
#70=EDGE_LOOP('',(#317,#318,#319,#320,#321));
#71=EDGE_LOOP('',(#322,#323,#324,#325));
#72=EDGE_LOOP('',(#326,#327,#328,#329));
#73=EDGE_LOOP('',(#330,#331,#332,#333));
#74=EDGE_LOOP('',(#334,#335,#336,#337));
#75=EDGE_LOOP('',(#338,#339,#340,#341));
#76=EDGE_LOOP('',(#342,#343,#344,#345));
#77=EDGE_LOOP('',(#346,#347,#348,#349));
#78=EDGE_LOOP('',(#350,#351,#352,#353));
#79=EDGE_LOOP('',(#354,#355,#356,#357,#358,#359));
#80=EDGE_LOOP('',(#360,#361,#362,#363));
#81=EDGE_LOOP('',(#364));
#82=EDGE_LOOP('',(#365));
#83=EDGE_LOOP('',(#366,#367,#368,#369,#370,#371,#372,#373,#374,#375,#376,
#377,#378,#379,#380,#381,#382,#383,#384,#385));
#84=EDGE_LOOP('',(#386,#387,#388));
#85=EDGE_LOOP('',(#389,#390,#391,#392,#393,#394,#395,#396,#397,#398,#399,
#400,#401,#402,#403,#404));
#86=EDGE_LOOP('',(#405,#406,#407,#408));
#87=EDGE_LOOP('',(#409));
#88=EDGE_LOOP('',(#410));
#89=EDGE_LOOP('',(#411));
#90=EDGE_LOOP('',(#412));
#91=LINE('',#641,#127);
#92=LINE('',#644,#128);
#93=LINE('',#647,#129);
#94=LINE('',#649,#130);
#95=LINE('',#650,#131);
#96=LINE('',#653,#132);
#97=LINE('',#655,#133);
#98=LINE('',#656,#134);
#99=LINE('',#664,#135);
#100=LINE('',#667,#136);
#101=LINE('',#670,#137);
#102=LINE('',#672,#138);
#103=LINE('',#673,#139);
#104=LINE('',#676,#140);
#105=LINE('',#678,#141);
#106=LINE('',#679,#142);
#107=LINE('',#689,#143);
#108=LINE('',#692,#144);
#109=LINE('',#695,#145);
#110=LINE('',#697,#146);
#111=LINE('',#698,#147);
#112=LINE('',#701,#148);
#113=LINE('',#703,#149);
#114=LINE('',#704,#150);
#115=LINE('',#712,#151);
#116=LINE('',#715,#152);
#117=LINE('',#718,#153);
#118=LINE('',#720,#154);
#119=LINE('',#721,#155);
#120=LINE('',#724,#156);
#121=LINE('',#726,#157);
#122=LINE('',#727,#158);
#123=LINE('',#763,#159);
#124=LINE('',#812,#160);
#125=LINE('',#821,#161);
#126=LINE('',#828,#162);
#127=VECTOR('',#511,10.);
#128=VECTOR('',#514,10.);
#129=VECTOR('',#517,10.);
#130=VECTOR('',#518,10.);
#131=VECTOR('',#519,10.);
#132=VECTOR('',#522,10.);
#133=VECTOR('',#523,10.);
#134=VECTOR('',#524,10.);
#135=VECTOR('',#533,10.);
#136=VECTOR('',#536,10.);
#137=VECTOR('',#539,10.);
#138=VECTOR('',#540,10.);
#139=VECTOR('',#541,10.);
#140=VECTOR('',#544,10.);
#141=VECTOR('',#545,10.);
#142=VECTOR('',#546,10.);
#143=VECTOR('',#557,10.);
#144=VECTOR('',#560,10.);
#145=VECTOR('',#563,10.);
#146=VECTOR('',#564,10.);
#147=VECTOR('',#565,10.);
#148=VECTOR('',#568,10.);
#149=VECTOR('',#569,10.);
#150=VECTOR('',#570,10.);
#151=VECTOR('',#579,10.);
#152=VECTOR('',#582,10.);
#153=VECTOR('',#585,10.);
#154=VECTOR('',#586,10.);
#155=VECTOR('',#587,10.);
#156=VECTOR('',#590,10.);
#157=VECTOR('',#591,10.);
#158=VECTOR('',#592,10.);
#159=VECTOR('',#599,1.5);
#160=VECTOR('',#604,6.25);
#161=VECTOR('',#619,9.);
#162=VECTOR('',#628,11.);
#163=CIRCLE('',#460,4.);
#164=CIRCLE('',#461,4.);
#165=CIRCLE('',#465,9.);
#166=CIRCLE('',#467,4.);
#167=CIRCLE('',#468,4.);
#168=CIRCLE('',#472,9.);
#169=CIRCLE('',#473,9.);
#170=CIRCLE('',#475,4.);
#171=CIRCLE('',#476,4.);
#172=CIRCLE('',#480,9.);
#173=CIRCLE('',#482,4.);
#174=CIRCLE('',#483,4.);
#175=CIRCLE('',#487,9.);
#176=CIRCLE('',#490,6.25);
#177=CIRCLE('',#491,6.25);
#178=CIRCLE('',#494,9.);
#179=CIRCLE('',#495,9.);
#180=CIRCLE('',#496,9.);
#181=CIRCLE('',#497,9.);
#182=CIRCLE('',#498,9.);
#183=CIRCLE('',#501,11.);
#184=CIRCLE('',#502,11.);
#185=VERTEX_POINT('',#637);
#186=VERTEX_POINT('',#638);
#187=VERTEX_POINT('',#640);
#188=VERTEX_POINT('',#642);
#189=VERTEX_POINT('',#646);
#190=VERTEX_POINT('',#648);
#191=VERTEX_POINT('',#652);
#192=VERTEX_POINT('',#654);
#193=VERTEX_POINT('',#660);
#194=VERTEX_POINT('',#661);
#195=VERTEX_POINT('',#663);
#196=VERTEX_POINT('',#665);
#197=VERTEX_POINT('',#669);
#198=VERTEX_POINT('',#671);
#199=VERTEX_POINT('',#675);
#200=VERTEX_POINT('',#677);
#201=VERTEX_POINT('',#681);
#202=VERTEX_POINT('',#685);
#203=VERTEX_POINT('',#686);
#204=VERTEX_POINT('',#688);
#205=VERTEX_POINT('',#690);
#206=VERTEX_POINT('',#694);
#207=VERTEX_POINT('',#696);
#208=VERTEX_POINT('',#700);
#209=VERTEX_POINT('',#702);
#210=VERTEX_POINT('',#708);
#211=VERTEX_POINT('',#709);
#212=VERTEX_POINT('',#711);
#213=VERTEX_POINT('',#713);
#214=VERTEX_POINT('',#717);
#215=VERTEX_POINT('',#719);
#216=VERTEX_POINT('',#723);
#217=VERTEX_POINT('',#725);
#218=VERTEX_POINT('',#731);
#219=VERTEX_POINT('',#732);
#220=VERTEX_POINT('',#751);
#221=VERTEX_POINT('',#762);
#222=VERTEX_POINT('',#809);
#223=VERTEX_POINT('',#811);
#224=VERTEX_POINT('',#820);
#225=VERTEX_POINT('',#825);
#226=VERTEX_POINT('',#827);
#227=EDGE_CURVE('',#185,#186,#163,.T.);
#228=EDGE_CURVE('',#185,#187,#91,.T.);
#229=EDGE_CURVE('',#188,#187,#164,.T.);
#230=EDGE_CURVE('',#186,#188,#92,.T.);
#231=EDGE_CURVE('',#186,#189,#93,.T.);
#232=EDGE_CURVE('',#190,#188,#94,.T.);
#233=EDGE_CURVE('',#189,#190,#95,.T.);
#234=EDGE_CURVE('',#191,#185,#96,.T.);
#235=EDGE_CURVE('',#191,#192,#97,.T.);
#236=EDGE_CURVE('',#187,#192,#98,.T.);
#237=EDGE_CURVE('',#192,#190,#165,.T.);
#238=EDGE_CURVE('',#193,#194,#166,.T.);
#239=EDGE_CURVE('',#193,#195,#99,.T.);
#240=EDGE_CURVE('',#196,#195,#167,.T.);
#241=EDGE_CURVE('',#194,#196,#100,.T.);
#242=EDGE_CURVE('',#194,#197,#101,.T.);
#243=EDGE_CURVE('',#198,#196,#102,.T.);
#244=EDGE_CURVE('',#197,#198,#103,.T.);
#245=EDGE_CURVE('',#199,#193,#104,.T.);
#246=EDGE_CURVE('',#199,#200,#105,.T.);
#247=EDGE_CURVE('',#195,#200,#106,.T.);
#248=EDGE_CURVE('',#200,#201,#168,.T.);
#249=EDGE_CURVE('',#201,#198,#169,.T.);
#250=EDGE_CURVE('',#202,#203,#170,.T.);
#251=EDGE_CURVE('',#202,#204,#107,.T.);
#252=EDGE_CURVE('',#205,#204,#171,.T.);
#253=EDGE_CURVE('',#203,#205,#108,.T.);
#254=EDGE_CURVE('',#203,#206,#109,.T.);
#255=EDGE_CURVE('',#207,#205,#110,.T.);
#256=EDGE_CURVE('',#206,#207,#111,.T.);
#257=EDGE_CURVE('',#208,#202,#112,.T.);
#258=EDGE_CURVE('',#208,#209,#113,.T.);
#259=EDGE_CURVE('',#204,#209,#114,.T.);
#260=EDGE_CURVE('',#209,#207,#172,.T.);
#261=EDGE_CURVE('',#210,#211,#173,.T.);
#262=EDGE_CURVE('',#210,#212,#115,.T.);
#263=EDGE_CURVE('',#213,#212,#174,.T.);
#264=EDGE_CURVE('',#211,#213,#116,.T.);
#265=EDGE_CURVE('',#211,#214,#117,.T.);
#266=EDGE_CURVE('',#215,#213,#118,.T.);
#267=EDGE_CURVE('',#214,#215,#119,.T.);
#268=EDGE_CURVE('',#216,#210,#120,.T.);
#269=EDGE_CURVE('',#216,#217,#121,.T.);
#270=EDGE_CURVE('',#212,#217,#122,.T.);
#271=EDGE_CURVE('',#217,#215,#175,.T.);
#272=EDGE_CURVE('',#218,#219,#19,.T.);
#273=EDGE_CURVE('',#220,#218,#20,.T.);
#274=EDGE_CURVE('',#220,#221,#123,.T.);
#275=EDGE_CURVE('',#221,#221,#21,.T.);
#276=EDGE_CURVE('',#219,#220,#22,.T.);
#277=EDGE_CURVE('',#222,#222,#176,.T.);
#278=EDGE_CURVE('',#222,#223,#124,.T.);
#279=EDGE_CURVE('',#223,#223,#177,.T.);
#280=EDGE_CURVE('',#214,#199,#178,.T.);
#281=EDGE_CURVE('',#206,#216,#179,.T.);
#282=EDGE_CURVE('',#189,#208,#180,.T.);
#283=EDGE_CURVE('',#197,#191,#181,.T.);
#284=EDGE_CURVE('',#201,#224,#125,.T.);
#285=EDGE_CURVE('',#224,#224,#182,.T.);
#286=EDGE_CURVE('',#225,#225,#183,.T.);
#287=EDGE_CURVE('',#225,#226,#126,.T.);
#288=EDGE_CURVE('',#226,#226,#184,.T.);
#289=ORIENTED_EDGE('',*,*,#227,.F.);
#290=ORIENTED_EDGE('',*,*,#228,.T.);
#291=ORIENTED_EDGE('',*,*,#229,.F.);
#292=ORIENTED_EDGE('',*,*,#230,.F.);
#293=ORIENTED_EDGE('',*,*,#231,.F.);
#294=ORIENTED_EDGE('',*,*,#230,.T.);
#295=ORIENTED_EDGE('',*,*,#232,.F.);
#296=ORIENTED_EDGE('',*,*,#233,.F.);
#297=ORIENTED_EDGE('',*,*,#234,.F.);
#298=ORIENTED_EDGE('',*,*,#235,.T.);
#299=ORIENTED_EDGE('',*,*,#236,.F.);
#300=ORIENTED_EDGE('',*,*,#228,.F.);
#301=ORIENTED_EDGE('',*,*,#236,.T.);
#302=ORIENTED_EDGE('',*,*,#237,.T.);
#303=ORIENTED_EDGE('',*,*,#232,.T.);
#304=ORIENTED_EDGE('',*,*,#229,.T.);
#305=ORIENTED_EDGE('',*,*,#238,.F.);
#306=ORIENTED_EDGE('',*,*,#239,.T.);
#307=ORIENTED_EDGE('',*,*,#240,.F.);
#308=ORIENTED_EDGE('',*,*,#241,.F.);
#309=ORIENTED_EDGE('',*,*,#242,.F.);
#310=ORIENTED_EDGE('',*,*,#241,.T.);
#311=ORIENTED_EDGE('',*,*,#243,.F.);
#312=ORIENTED_EDGE('',*,*,#244,.F.);
#313=ORIENTED_EDGE('',*,*,#245,.F.);
#314=ORIENTED_EDGE('',*,*,#246,.T.);
#315=ORIENTED_EDGE('',*,*,#247,.F.);
#316=ORIENTED_EDGE('',*,*,#239,.F.);
#317=ORIENTED_EDGE('',*,*,#247,.T.);
#318=ORIENTED_EDGE('',*,*,#248,.T.);
#319=ORIENTED_EDGE('',*,*,#249,.T.);
#320=ORIENTED_EDGE('',*,*,#243,.T.);
#321=ORIENTED_EDGE('',*,*,#240,.T.);
#322=ORIENTED_EDGE('',*,*,#250,.F.);
#323=ORIENTED_EDGE('',*,*,#251,.T.);
#324=ORIENTED_EDGE('',*,*,#252,.F.);
#325=ORIENTED_EDGE('',*,*,#253,.F.);
#326=ORIENTED_EDGE('',*,*,#254,.F.);
#327=ORIENTED_EDGE('',*,*,#253,.T.);
#328=ORIENTED_EDGE('',*,*,#255,.F.);
#329=ORIENTED_EDGE('',*,*,#256,.F.);
#330=ORIENTED_EDGE('',*,*,#257,.F.);
#331=ORIENTED_EDGE('',*,*,#258,.T.);
#332=ORIENTED_EDGE('',*,*,#259,.F.);
#333=ORIENTED_EDGE('',*,*,#251,.F.);
#334=ORIENTED_EDGE('',*,*,#259,.T.);
#335=ORIENTED_EDGE('',*,*,#260,.T.);
#336=ORIENTED_EDGE('',*,*,#255,.T.);
#337=ORIENTED_EDGE('',*,*,#252,.T.);
#338=ORIENTED_EDGE('',*,*,#261,.F.);
#339=ORIENTED_EDGE('',*,*,#262,.T.);
#340=ORIENTED_EDGE('',*,*,#263,.F.);
#341=ORIENTED_EDGE('',*,*,#264,.F.);
#342=ORIENTED_EDGE('',*,*,#265,.F.);
#343=ORIENTED_EDGE('',*,*,#264,.T.);
#344=ORIENTED_EDGE('',*,*,#266,.F.);
#345=ORIENTED_EDGE('',*,*,#267,.F.);
#346=ORIENTED_EDGE('',*,*,#268,.F.);
#347=ORIENTED_EDGE('',*,*,#269,.T.);
#348=ORIENTED_EDGE('',*,*,#270,.F.);
#349=ORIENTED_EDGE('',*,*,#262,.F.);
#350=ORIENTED_EDGE('',*,*,#270,.T.);
#351=ORIENTED_EDGE('',*,*,#271,.T.);
#352=ORIENTED_EDGE('',*,*,#266,.T.);
#353=ORIENTED_EDGE('',*,*,#263,.T.);
#354=ORIENTED_EDGE('',*,*,#272,.F.);
#355=ORIENTED_EDGE('',*,*,#273,.F.);
#356=ORIENTED_EDGE('',*,*,#274,.T.);
#357=ORIENTED_EDGE('',*,*,#275,.F.);
#358=ORIENTED_EDGE('',*,*,#274,.F.);
#359=ORIENTED_EDGE('',*,*,#276,.F.);
#360=ORIENTED_EDGE('',*,*,#277,.F.);
#361=ORIENTED_EDGE('',*,*,#278,.T.);
#362=ORIENTED_EDGE('',*,*,#279,.T.);
#363=ORIENTED_EDGE('',*,*,#278,.F.);
#364=ORIENTED_EDGE('',*,*,#275,.T.);
#365=ORIENTED_EDGE('',*,*,#279,.F.);
#366=ORIENTED_EDGE('',*,*,#280,.F.);
#367=ORIENTED_EDGE('',*,*,#267,.T.);
#368=ORIENTED_EDGE('',*,*,#271,.F.);
#369=ORIENTED_EDGE('',*,*,#269,.F.);
#370=ORIENTED_EDGE('',*,*,#281,.F.);
#371=ORIENTED_EDGE('',*,*,#256,.T.);
#372=ORIENTED_EDGE('',*,*,#260,.F.);
#373=ORIENTED_EDGE('',*,*,#258,.F.);
#374=ORIENTED_EDGE('',*,*,#282,.F.);
#375=ORIENTED_EDGE('',*,*,#233,.T.);
#376=ORIENTED_EDGE('',*,*,#237,.F.);
#377=ORIENTED_EDGE('',*,*,#235,.F.);
#378=ORIENTED_EDGE('',*,*,#283,.F.);
#379=ORIENTED_EDGE('',*,*,#244,.T.);
#380=ORIENTED_EDGE('',*,*,#249,.F.);
#381=ORIENTED_EDGE('',*,*,#284,.T.);
#382=ORIENTED_EDGE('',*,*,#285,.F.);
#383=ORIENTED_EDGE('',*,*,#284,.F.);
#384=ORIENTED_EDGE('',*,*,#248,.F.);
#385=ORIENTED_EDGE('',*,*,#246,.F.);
#386=ORIENTED_EDGE('',*,*,#272,.T.);
#387=ORIENTED_EDGE('',*,*,#276,.T.);
#388=ORIENTED_EDGE('',*,*,#273,.T.);
#389=ORIENTED_EDGE('',*,*,#231,.T.);
#390=ORIENTED_EDGE('',*,*,#282,.T.);
#391=ORIENTED_EDGE('',*,*,#257,.T.);
#392=ORIENTED_EDGE('',*,*,#250,.T.);
#393=ORIENTED_EDGE('',*,*,#254,.T.);
#394=ORIENTED_EDGE('',*,*,#281,.T.);
#395=ORIENTED_EDGE('',*,*,#268,.T.);
#396=ORIENTED_EDGE('',*,*,#261,.T.);
#397=ORIENTED_EDGE('',*,*,#265,.T.);
#398=ORIENTED_EDGE('',*,*,#280,.T.);
#399=ORIENTED_EDGE('',*,*,#245,.T.);
#400=ORIENTED_EDGE('',*,*,#238,.T.);
#401=ORIENTED_EDGE('',*,*,#242,.T.);
#402=ORIENTED_EDGE('',*,*,#283,.T.);
#403=ORIENTED_EDGE('',*,*,#234,.T.);
#404=ORIENTED_EDGE('',*,*,#227,.T.);
#405=ORIENTED_EDGE('',*,*,#286,.F.);
#406=ORIENTED_EDGE('',*,*,#287,.T.);
#407=ORIENTED_EDGE('',*,*,#288,.T.);
#408=ORIENTED_EDGE('',*,*,#287,.F.);
#409=ORIENTED_EDGE('',*,*,#286,.T.);
#410=ORIENTED_EDGE('',*,*,#285,.T.);
#411=ORIENTED_EDGE('',*,*,#288,.F.);
#412=ORIENTED_EDGE('',*,*,#277,.T.);
#413=CYLINDRICAL_SURFACE('',#459,4.);
#414=CYLINDRICAL_SURFACE('',#466,4.);
#415=CYLINDRICAL_SURFACE('',#474,4.);
#416=CYLINDRICAL_SURFACE('',#481,4.);
#417=CYLINDRICAL_SURFACE('',#488,1.5);
#418=CYLINDRICAL_SURFACE('',#489,6.25);
#419=CYLINDRICAL_SURFACE('',#493,9.);
#420=CYLINDRICAL_SURFACE('',#500,11.);
#421=ADVANCED_FACE('',(#39),#413,.F.);
#422=ADVANCED_FACE('',(#40),#23,.T.);
#423=ADVANCED_FACE('',(#41),#24,.T.);
#424=ADVANCED_FACE('',(#42),#25,.T.);
#425=ADVANCED_FACE('',(#43),#414,.F.);
#426=ADVANCED_FACE('',(#44),#26,.T.);
#427=ADVANCED_FACE('',(#45),#27,.T.);
#428=ADVANCED_FACE('',(#46),#28,.T.);
#429=ADVANCED_FACE('',(#47),#415,.F.);
#430=ADVANCED_FACE('',(#48),#29,.T.);
#431=ADVANCED_FACE('',(#49),#30,.T.);
#432=ADVANCED_FACE('',(#50),#31,.T.);
#433=ADVANCED_FACE('',(#51),#416,.F.);
#434=ADVANCED_FACE('',(#52),#32,.T.);
#435=ADVANCED_FACE('',(#53),#33,.T.);
#436=ADVANCED_FACE('',(#54),#34,.T.);
#437=ADVANCED_FACE('',(#55),#417,.F.);
#438=ADVANCED_FACE('',(#56,#15),#418,.F.);
#439=ADVANCED_FACE('',(#57),#35,.F.);
#440=ADVANCED_FACE('',(#58,#16),#419,.T.);
#441=ADVANCED_FACE('',(#59),#36,.T.);
#442=ADVANCED_FACE('',(#60),#420,.T.);
#443=ADVANCED_FACE('',(#61,#17),#37,.T.);
#444=ADVANCED_FACE('',(#62,#18),#38,.F.);
#445=CLOSED_SHELL('',(#421,#422,#423,#424,#425,#426,#427,#428,#429,#430,
#431,#432,#433,#434,#435,#436,#437,#438,#439,#440,#441,#442,#443,#444));
#446=DERIVED_UNIT_ELEMENT(#448,1.);
#447=DERIVED_UNIT_ELEMENT(#837,-3.);
#448=(
MASS_UNIT()
NAMED_UNIT(*)
SI_UNIT(.KILO.,.GRAM.)
);
#449=DERIVED_UNIT((#446,#447));
#450=MEASURE_REPRESENTATION_ITEM('density measure',
POSITIVE_RATIO_MEASURE(7850.),#449);
#451=PROPERTY_DEFINITION_REPRESENTATION(#456,#453);
#452=PROPERTY_DEFINITION_REPRESENTATION(#457,#454);
#453=REPRESENTATION('material name',(#455),#834);
#454=REPRESENTATION('density',(#450),#834);
#455=DESCRIPTIVE_REPRESENTATION_ITEM('\X2\94A2\X0\','\X2\94A2\X0\');
#456=PROPERTY_DEFINITION('material property','material name',#844);
#457=PROPERTY_DEFINITION('material property','density of part',#844);
#458=AXIS2_PLACEMENT_3D('',#635,#505,#506);
#459=AXIS2_PLACEMENT_3D('',#636,#507,#508);
#460=AXIS2_PLACEMENT_3D('',#639,#509,#510);
#461=AXIS2_PLACEMENT_3D('',#643,#512,#513);
#462=AXIS2_PLACEMENT_3D('',#645,#515,#516);
#463=AXIS2_PLACEMENT_3D('',#651,#520,#521);
#464=AXIS2_PLACEMENT_3D('',#657,#525,#526);
#465=AXIS2_PLACEMENT_3D('',#658,#527,#528);
#466=AXIS2_PLACEMENT_3D('',#659,#529,#530);
#467=AXIS2_PLACEMENT_3D('',#662,#531,#532);
#468=AXIS2_PLACEMENT_3D('',#666,#534,#535);
#469=AXIS2_PLACEMENT_3D('',#668,#537,#538);
#470=AXIS2_PLACEMENT_3D('',#674,#542,#543);
#471=AXIS2_PLACEMENT_3D('',#680,#547,#548);
#472=AXIS2_PLACEMENT_3D('',#682,#549,#550);
#473=AXIS2_PLACEMENT_3D('',#683,#551,#552);
#474=AXIS2_PLACEMENT_3D('',#684,#553,#554);
#475=AXIS2_PLACEMENT_3D('',#687,#555,#556);
#476=AXIS2_PLACEMENT_3D('',#691,#558,#559);
#477=AXIS2_PLACEMENT_3D('',#693,#561,#562);
#478=AXIS2_PLACEMENT_3D('',#699,#566,#567);
#479=AXIS2_PLACEMENT_3D('',#705,#571,#572);
#480=AXIS2_PLACEMENT_3D('',#706,#573,#574);
#481=AXIS2_PLACEMENT_3D('',#707,#575,#576);
#482=AXIS2_PLACEMENT_3D('',#710,#577,#578);
#483=AXIS2_PLACEMENT_3D('',#714,#580,#581);
#484=AXIS2_PLACEMENT_3D('',#716,#583,#584);
#485=AXIS2_PLACEMENT_3D('',#722,#588,#589);
#486=AXIS2_PLACEMENT_3D('',#728,#593,#594);
#487=AXIS2_PLACEMENT_3D('',#729,#595,#596);
#488=AXIS2_PLACEMENT_3D('',#730,#597,#598);
#489=AXIS2_PLACEMENT_3D('',#808,#600,#601);
#490=AXIS2_PLACEMENT_3D('',#810,#602,#603);
#491=AXIS2_PLACEMENT_3D('',#813,#605,#606);
#492=AXIS2_PLACEMENT_3D('',#814,#607,#608);
#493=AXIS2_PLACEMENT_3D('',#815,#609,#610);
#494=AXIS2_PLACEMENT_3D('',#816,#611,#612);
#495=AXIS2_PLACEMENT_3D('',#817,#613,#614);
#496=AXIS2_PLACEMENT_3D('',#818,#615,#616);
#497=AXIS2_PLACEMENT_3D('',#819,#617,#618);
#498=AXIS2_PLACEMENT_3D('',#822,#620,#621);
#499=AXIS2_PLACEMENT_3D('',#823,#622,#623);
#500=AXIS2_PLACEMENT_3D('',#824,#624,#625);
#501=AXIS2_PLACEMENT_3D('',#826,#626,#627);
#502=AXIS2_PLACEMENT_3D('',#829,#629,#630);
#503=AXIS2_PLACEMENT_3D('',#830,#631,#632);
#504=AXIS2_PLACEMENT_3D('',#831,#633,#634);
#505=DIRECTION('axis',(0.,0.,1.));
#506=DIRECTION('refdir',(1.,0.,0.));
#507=DIRECTION('center_axis',(0.,0.,1.));
#508=DIRECTION('ref_axis',(-0.25,-0.968245836551854,0.));
#509=DIRECTION('center_axis',(0.,0.,1.));
#510=DIRECTION('ref_axis',(-0.25,-0.968245836551854,0.));
#511=DIRECTION('',(0.,0.,1.));
#512=DIRECTION('center_axis',(0.,0.,-1.));
#513=DIRECTION('ref_axis',(-0.25,-0.968245836551854,0.));
#514=DIRECTION('',(0.,0.,1.));
#515=DIRECTION('center_axis',(1.,0.,0.));
#516=DIRECTION('ref_axis',(0.,1.,0.));
#517=DIRECTION('',(0.,-1.,0.));
#518=DIRECTION('',(0.,1.,0.));
#519=DIRECTION('',(0.,0.,1.));
#520=DIRECTION('center_axis',(-1.,0.,0.));
#521=DIRECTION('ref_axis',(0.,-1.,0.));
#522=DIRECTION('',(0.,1.,0.));
#523=DIRECTION('',(0.,0.,1.));
#524=DIRECTION('',(0.,-1.,0.));
#525=DIRECTION('center_axis',(0.,0.,1.));
#526=DIRECTION('ref_axis',(-1.,0.,0.));
#527=DIRECTION('center_axis',(0.,0.,1.));
#528=DIRECTION('ref_axis',(-1.,0.,0.));
#529=DIRECTION('center_axis',(0.,0.,1.));
#530=DIRECTION('ref_axis',(-0.968245836551854,0.25,0.));
#531=DIRECTION('center_axis',(0.,0.,1.));
#532=DIRECTION('ref_axis',(-0.968245836551854,0.25,0.));
#533=DIRECTION('',(0.,0.,1.));
#534=DIRECTION('center_axis',(0.,0.,-1.));
#535=DIRECTION('ref_axis',(-0.968245836551854,0.25,0.));
#536=DIRECTION('',(0.,0.,1.));
#537=DIRECTION('center_axis',(2.73654074960353E-17,-1.,0.));
#538=DIRECTION('ref_axis',(1.,2.73654074960353E-17,0.));
#539=DIRECTION('',(-1.,-2.73654074960353E-17,0.));
#540=DIRECTION('',(1.,2.73654074960353E-17,0.));
#541=DIRECTION('',(0.,0.,1.));
#542=DIRECTION('center_axis',(0.,1.,0.));
#543=DIRECTION('ref_axis',(-1.,0.,0.));
#544=DIRECTION('',(1.,0.,0.));
#545=DIRECTION('',(0.,0.,1.));
#546=DIRECTION('',(-1.,0.,0.));
#547=DIRECTION('center_axis',(0.,0.,1.));
#548=DIRECTION('ref_axis',(-1.,0.,0.));
#549=DIRECTION('center_axis',(0.,0.,1.));
#550=DIRECTION('ref_axis',(-1.,0.,0.));
#551=DIRECTION('center_axis',(0.,0.,1.));
#552=DIRECTION('ref_axis',(-1.,0.,0.));
#553=DIRECTION('center_axis',(0.,0.,1.));
#554=DIRECTION('ref_axis',(0.968245836551854,-0.25,0.));
#555=DIRECTION('center_axis',(0.,0.,1.));
#556=DIRECTION('ref_axis',(0.968245836551854,-0.25,0.));
#557=DIRECTION('',(0.,0.,1.));
#558=DIRECTION('center_axis',(0.,0.,-1.));
#559=DIRECTION('ref_axis',(0.968245836551854,-0.25,0.));
#560=DIRECTION('',(0.,0.,1.));
#561=DIRECTION('center_axis',(-2.73654074960353E-17,1.,0.));
#562=DIRECTION('ref_axis',(-1.,-2.73654074960353E-17,0.));
#563=DIRECTION('',(1.,2.73654074960353E-17,0.));
#564=DIRECTION('',(-1.,-2.73654074960353E-17,0.));
#565=DIRECTION('',(0.,0.,1.));
#566=DIRECTION('center_axis',(0.,-1.,0.));
#567=DIRECTION('ref_axis',(1.,0.,0.));
#568=DIRECTION('',(-1.,0.,0.));
#569=DIRECTION('',(0.,0.,1.));
#570=DIRECTION('',(1.,0.,0.));
#571=DIRECTION('center_axis',(0.,0.,1.));
#572=DIRECTION('ref_axis',(-1.,0.,0.));
#573=DIRECTION('center_axis',(0.,0.,1.));
#574=DIRECTION('ref_axis',(-1.,0.,0.));
#575=DIRECTION('center_axis',(0.,0.,1.));
#576=DIRECTION('ref_axis',(0.25,0.968245836551854,0.));
#577=DIRECTION('center_axis',(0.,0.,1.));
#578=DIRECTION('ref_axis',(0.25,0.968245836551854,0.));
#579=DIRECTION('',(0.,0.,1.));
#580=DIRECTION('center_axis',(0.,0.,-1.));
#581=DIRECTION('ref_axis',(0.25,0.968245836551854,0.));
#582=DIRECTION('',(0.,0.,1.));
#583=DIRECTION('center_axis',(-1.,-2.73654074960353E-17,0.));
#584=DIRECTION('ref_axis',(2.73654074960353E-17,-1.,0.));
#585=DIRECTION('',(-2.73654074960353E-17,1.,0.));
#586=DIRECTION('',(2.73654074960353E-17,-1.,0.));
#587=DIRECTION('',(0.,0.,1.));
#588=DIRECTION('center_axis',(1.,0.,0.));
#589=DIRECTION('ref_axis',(0.,1.,0.));
#590=DIRECTION('',(0.,-1.,0.));
#591=DIRECTION('',(0.,0.,1.));
#592=DIRECTION('',(0.,1.,0.));
#593=DIRECTION('center_axis',(0.,0.,1.));
#594=DIRECTION('ref_axis',(-1.,0.,0.));
#595=DIRECTION('center_axis',(0.,0.,1.));
#596=DIRECTION('ref_axis',(-1.,0.,0.));
#597=DIRECTION('center_axis',(-1.,0.,0.));
#598=DIRECTION('ref_axis',(0.,1.,0.));
#599=DIRECTION('',(-1.,0.,0.));
#600=DIRECTION('center_axis',(0.,0.,1.));
#601=DIRECTION('ref_axis',(1.,0.,0.));
#602=DIRECTION('center_axis',(0.,0.,1.));
#603=DIRECTION('ref_axis',(1.,0.,0.));
#604=DIRECTION('',(0.,0.,1.));
#605=DIRECTION('center_axis',(0.,0.,1.));
#606=DIRECTION('ref_axis',(1.,0.,0.));
#607=DIRECTION('center_axis',(0.,0.,1.));
#608=DIRECTION('ref_axis',(1.,0.,0.));
#609=DIRECTION('center_axis',(0.,0.,1.));
#610=DIRECTION('ref_axis',(1.,0.,0.));
#611=DIRECTION('center_axis',(0.,0.,1.));
#612=DIRECTION('ref_axis',(1.,0.,0.));
#613=DIRECTION('center_axis',(0.,0.,1.));
#614=DIRECTION('ref_axis',(1.,0.,0.));
#615=DIRECTION('center_axis',(0.,0.,1.));
#616=DIRECTION('ref_axis',(1.,0.,0.));
#617=DIRECTION('center_axis',(0.,0.,1.));
#618=DIRECTION('ref_axis',(1.,0.,0.));
#619=DIRECTION('',(0.,0.,-1.));
#620=DIRECTION('center_axis',(0.,0.,-1.));
#621=DIRECTION('ref_axis',(1.,0.,0.));
#622=DIRECTION('center_axis',(0.,0.,1.));
#623=DIRECTION('ref_axis',(1.,0.,0.));
#624=DIRECTION('center_axis',(0.,0.,1.));
#625=DIRECTION('ref_axis',(1.,0.,0.));
#626=DIRECTION('center_axis',(0.,0.,1.));
#627=DIRECTION('ref_axis',(1.,0.,0.));
#628=DIRECTION('',(0.,0.,-1.));
#629=DIRECTION('center_axis',(0.,0.,1.));
#630=DIRECTION('ref_axis',(1.,0.,0.));
#631=DIRECTION('center_axis',(0.,0.,1.));
#632=DIRECTION('ref_axis',(1.,0.,0.));
#633=DIRECTION('center_axis',(0.,0.,1.));
#634=DIRECTION('ref_axis',(1.,0.,0.));
#635=CARTESIAN_POINT('',(0.,0.,0.));
#636=CARTESIAN_POINT('Origin',(0.,0.,11.));
#637=CARTESIAN_POINT('',(-1.,-3.87298334620742,11.));
#638=CARTESIAN_POINT('',(1.,-3.87298334620742,11.));
#639=CARTESIAN_POINT('Origin',(0.,0.,11.));
#640=CARTESIAN_POINT('',(-1.,-3.87298334620742,21.));
#641=CARTESIAN_POINT('',(-1.,-3.87298334620742,11.));
#642=CARTESIAN_POINT('',(1.,-3.87298334620742,21.));
#643=CARTESIAN_POINT('Origin',(0.,0.,21.));
#644=CARTESIAN_POINT('',(1.,-3.87298334620742,11.));
#645=CARTESIAN_POINT('Origin',(1.,-8.94427190999916,11.));
#646=CARTESIAN_POINT('',(1.,-8.94427190999916,11.));
#647=CARTESIAN_POINT('',(1.,-4.47213595499958,11.));
#648=CARTESIAN_POINT('',(1.,-8.94427190999916,21.));
#649=CARTESIAN_POINT('',(1.,-8.94427190999916,21.));
#650=CARTESIAN_POINT('',(1.,-8.94427190999916,11.));
#651=CARTESIAN_POINT('Origin',(-1.,-3.87298334620742,11.));
#652=CARTESIAN_POINT('',(-1.,-8.94427190999916,11.));
#653=CARTESIAN_POINT('',(-1.,-1.93649167310371,11.));
#654=CARTESIAN_POINT('',(-1.,-8.94427190999916,21.));
#655=CARTESIAN_POINT('',(-1.,-8.94427190999916,11.));
#656=CARTESIAN_POINT('',(-1.,-3.87298334620742,21.));
#657=CARTESIAN_POINT('Origin',(1.38777878078145E-16,-6.43649167310371,21.));
#658=CARTESIAN_POINT('Origin',(0.,0.,21.));
#659=CARTESIAN_POINT('Origin',(0.,0.,11.));
#660=CARTESIAN_POINT('',(-3.87298334620742,1.,11.));
#661=CARTESIAN_POINT('',(-3.87298334620742,-1.,11.));
#662=CARTESIAN_POINT('Origin',(0.,0.,11.));
#663=CARTESIAN_POINT('',(-3.87298334620742,1.,21.));
#664=CARTESIAN_POINT('',(-3.87298334620742,1.,11.));
#665=CARTESIAN_POINT('',(-3.87298334620742,-1.,21.));
#666=CARTESIAN_POINT('Origin',(0.,0.,21.));
#667=CARTESIAN_POINT('',(-3.87298334620742,-1.,11.));
#668=CARTESIAN_POINT('Origin',(-8.94427190999916,-1.,11.));
#669=CARTESIAN_POINT('',(-8.94427190999916,-1.,11.));
#670=CARTESIAN_POINT('',(-4.47213595499958,-1.,11.));
#671=CARTESIAN_POINT('',(-8.94427190999916,-1.,21.));
#672=CARTESIAN_POINT('',(-8.94427190999916,-1.,21.));
#673=CARTESIAN_POINT('',(-8.94427190999916,-1.,11.));
#674=CARTESIAN_POINT('Origin',(-3.87298334620742,1.,11.));
#675=CARTESIAN_POINT('',(-8.94427190999916,1.,11.));
#676=CARTESIAN_POINT('',(-1.93649167310371,1.,11.));
#677=CARTESIAN_POINT('',(-8.94427190999916,1.,21.));
#678=CARTESIAN_POINT('',(-8.94427190999916,1.,11.));
#679=CARTESIAN_POINT('',(-3.87298334620742,1.,21.));
#680=CARTESIAN_POINT('Origin',(-6.43649167310371,-4.16333634234434E-16,
21.));
#681=CARTESIAN_POINT('',(-9.,-1.10218211923262E-15,21.));
#682=CARTESIAN_POINT('Origin',(0.,0.,21.));
#683=CARTESIAN_POINT('Origin',(0.,0.,21.));
#684=CARTESIAN_POINT('Origin',(0.,0.,11.));
#685=CARTESIAN_POINT('',(3.87298334620742,-1.,11.));
#686=CARTESIAN_POINT('',(3.87298334620742,1.,11.));
#687=CARTESIAN_POINT('Origin',(0.,0.,11.));
#688=CARTESIAN_POINT('',(3.87298334620742,-1.,21.));
#689=CARTESIAN_POINT('',(3.87298334620742,-1.,11.));
#690=CARTESIAN_POINT('',(3.87298334620742,1.,21.));
#691=CARTESIAN_POINT('Origin',(0.,0.,21.));
#692=CARTESIAN_POINT('',(3.87298334620742,1.,11.));
#693=CARTESIAN_POINT('Origin',(8.94427190999916,1.,11.));
#694=CARTESIAN_POINT('',(8.94427190999916,1.,11.));
#695=CARTESIAN_POINT('',(4.47213595499958,1.,11.));
#696=CARTESIAN_POINT('',(8.94427190999916,1.,21.));
#697=CARTESIAN_POINT('',(8.94427190999916,1.,21.));
#698=CARTESIAN_POINT('',(8.94427190999916,1.,11.));
#699=CARTESIAN_POINT('Origin',(3.87298334620742,-1.,11.));
#700=CARTESIAN_POINT('',(8.94427190999916,-1.,11.));
#701=CARTESIAN_POINT('',(1.93649167310371,-1.,11.));
#702=CARTESIAN_POINT('',(8.94427190999916,-1.,21.));
#703=CARTESIAN_POINT('',(8.94427190999916,-1.,11.));
#704=CARTESIAN_POINT('',(3.87298334620742,-1.,21.));
#705=CARTESIAN_POINT('Origin',(6.43649167310371,-1.38777878078145E-16,21.));
#706=CARTESIAN_POINT('Origin',(0.,0.,21.));
#707=CARTESIAN_POINT('Origin',(0.,0.,11.));
#708=CARTESIAN_POINT('',(1.,3.87298334620742,11.));
#709=CARTESIAN_POINT('',(-1.,3.87298334620742,11.));
#710=CARTESIAN_POINT('Origin',(0.,0.,11.));
#711=CARTESIAN_POINT('',(1.,3.87298334620742,21.));
#712=CARTESIAN_POINT('',(1.,3.87298334620742,11.));
#713=CARTESIAN_POINT('',(-1.,3.87298334620742,21.));
#714=CARTESIAN_POINT('Origin',(0.,0.,21.));
#715=CARTESIAN_POINT('',(-1.,3.87298334620742,11.));
#716=CARTESIAN_POINT('Origin',(-1.,8.94427190999916,11.));
#717=CARTESIAN_POINT('',(-1.,8.94427190999916,11.));
#718=CARTESIAN_POINT('',(-1.,4.47213595499958,11.));
#719=CARTESIAN_POINT('',(-1.,8.94427190999916,21.));
#720=CARTESIAN_POINT('',(-1.,8.94427190999916,21.));
#721=CARTESIAN_POINT('',(-1.,8.94427190999916,11.));
#722=CARTESIAN_POINT('Origin',(1.,3.87298334620742,11.));
#723=CARTESIAN_POINT('',(1.,8.94427190999916,11.));
#724=CARTESIAN_POINT('',(1.,1.93649167310371,11.));
#725=CARTESIAN_POINT('',(1.,8.94427190999916,21.));
#726=CARTESIAN_POINT('',(1.,8.94427190999916,11.));
#727=CARTESIAN_POINT('',(1.,3.87298334620742,21.));
#728=CARTESIAN_POINT('Origin',(-4.16333634234434E-16,6.43649167310371,21.));
#729=CARTESIAN_POINT('Origin',(0.,0.,21.));
#730=CARTESIAN_POINT('Origin',(6.75,0.,5.63139307498932));
#731=CARTESIAN_POINT('',(9.,0.,7.13139307498932));
#732=CARTESIAN_POINT('',(9.,0.,4.13139307498932));
#733=CARTESIAN_POINT('Ctrl Pts',(9.,-3.12250225675825E-16,7.13139307498932));
#734=CARTESIAN_POINT('Ctrl Pts',(9.,0.188719772342104,7.13139307498932));
#735=CARTESIAN_POINT('Ctrl Pts',(8.99346082551818,0.38978001009744,7.09360538848918));
#736=CARTESIAN_POINT('Ctrl Pts',(8.96982776942594,0.7592469063631,6.94041462842476));
#737=CARTESIAN_POINT('Ctrl Pts',(8.95306300603488,0.927682550612656,6.8250308679363));
#738=CARTESIAN_POINT('Ctrl Pts',(8.92149950416588,1.1936413447268,6.55907207382216));
#739=CARTESIAN_POINT('Ctrl Pts',(8.90463192176846,1.30902231930516,6.39063795441576));
#740=CARTESIAN_POINT('Ctrl Pts',(8.88076280470899,1.46221105653826,6.0211762964427));
#741=CARTESIAN_POINT('Ctrl Pts',(8.87411967464942,1.5,5.82011788796211));
#742=CARTESIAN_POINT('Ctrl Pts',(8.87411967464942,1.5,5.44266826201652));
#743=CARTESIAN_POINT('Ctrl Pts',(8.88076280470899,1.46221105653826,5.24160985353593));
#744=CARTESIAN_POINT('Ctrl Pts',(8.90463192176846,1.30902231930516,4.87214819556287));
#745=CARTESIAN_POINT('Ctrl Pts',(8.92149950416588,1.1936413447268,4.70371407615648));
#746=CARTESIAN_POINT('Ctrl Pts',(8.95306300603488,0.927682550612657,4.43775528204233));
#747=CARTESIAN_POINT('Ctrl Pts',(8.96982776942594,0.7592469063631,4.32237152155387));
#748=CARTESIAN_POINT('Ctrl Pts',(8.99346082551818,0.389780010097441,4.16918076148946));
#749=CARTESIAN_POINT('Ctrl Pts',(9.,0.188719772342105,4.13139307498932));
#750=CARTESIAN_POINT('Ctrl Pts',(9.,4.5102810375397E-16,4.13139307498932));
#751=CARTESIAN_POINT('',(8.87411967464942,-1.5,5.63139307498932));
#752=CARTESIAN_POINT('Ctrl Pts',(8.87411967464942,-1.5,5.63139307498932));
#753=CARTESIAN_POINT('Ctrl Pts',(8.87411967464942,-1.5,5.82011788796211));
#754=CARTESIAN_POINT('Ctrl Pts',(8.88076280470899,-1.46221105653826,6.02117629644271));
#755=CARTESIAN_POINT('Ctrl Pts',(8.90463192176846,-1.30902231930516,6.39063795441576));
#756=CARTESIAN_POINT('Ctrl Pts',(8.92149950416588,-1.1936413447268,6.55907207382216));
#757=CARTESIAN_POINT('Ctrl Pts',(8.95306300603488,-0.927682550612657,6.8250308679363));
#758=CARTESIAN_POINT('Ctrl Pts',(8.96982776942594,-0.7592469063631,6.94041462842476));
#759=CARTESIAN_POINT('Ctrl Pts',(8.99346082551818,-0.38978001009744,7.09360538848918));
#760=CARTESIAN_POINT('Ctrl Pts',(9.,-0.188719772342104,7.13139307498932));
#761=CARTESIAN_POINT('Ctrl Pts',(9.,-1.04083408558608E-16,7.13139307498932));
#762=CARTESIAN_POINT('',(6.0673305497558,-1.5,5.63139307498932));
#763=CARTESIAN_POINT('',(6.75,-1.5,5.63139307498932));
#764=CARTESIAN_POINT('Ctrl Pts',(6.0673305497558,-1.5,5.63139307498932));
#765=CARTESIAN_POINT('Ctrl Pts',(6.0673305497558,-1.5,5.44224100525991));
#766=CARTESIAN_POINT('Ctrl Pts',(6.07709635042362,-1.46204622020626,5.24101066184031));
#767=CARTESIAN_POINT('Ctrl Pts',(6.1119450588795,-1.30874238997222,4.87167528480585));
#768=CARTESIAN_POINT('Ctrl Pts',(6.13647903515533,-1.19343021278707,4.70350294421675));
#769=CARTESIAN_POINT('Ctrl Pts',(6.18220325741904,-0.927905822561484,4.43797855399116));
#770=CARTESIAN_POINT('Ctrl Pts',(6.20642510905415,-0.759726918662619,4.32265412859918));
#771=CARTESIAN_POINT('Ctrl Pts',(6.24055367405967,-0.390368369874116,4.16934137117045));
#772=CARTESIAN_POINT('Ctrl Pts',(6.25,-0.189129714276861,4.13139307498932));
#773=CARTESIAN_POINT('Ctrl Pts',(6.25,0.189129714276861,4.13139307498932));
#774=CARTESIAN_POINT('Ctrl Pts',(6.24055367405967,0.390368369874116,4.16934137117045));
#775=CARTESIAN_POINT('Ctrl Pts',(6.20642510905415,0.759726918662619,4.32265412859918));
#776=CARTESIAN_POINT('Ctrl Pts',(6.18220325741904,0.927905822561484,4.43797855399116));
#777=CARTESIAN_POINT('Ctrl Pts',(6.13647903515533,1.19343021278707,4.70350294421675));
#778=CARTESIAN_POINT('Ctrl Pts',(6.1119450588795,1.30874238997222,4.87167528480585));
#779=CARTESIAN_POINT('Ctrl Pts',(6.07709635042362,1.46204622020626,5.24101066184031));
#780=CARTESIAN_POINT('Ctrl Pts',(6.0673305497558,1.5,5.44224100525991));
#781=CARTESIAN_POINT('Ctrl Pts',(6.0673305497558,1.5,5.82054514471872));
#782=CARTESIAN_POINT('Ctrl Pts',(6.07709635042362,1.46204622020626,6.02177548813832));
#783=CARTESIAN_POINT('Ctrl Pts',(6.1119450588795,1.30874238997222,6.39111086517279));
#784=CARTESIAN_POINT('Ctrl Pts',(6.13647903515533,1.19343021278707,6.55928320576189));
#785=CARTESIAN_POINT('Ctrl Pts',(6.18220325741904,0.927905822561484,6.82480759598747));
#786=CARTESIAN_POINT('Ctrl Pts',(6.20642510905415,0.75972691866262,6.94013202137945));
#787=CARTESIAN_POINT('Ctrl Pts',(6.24055367405967,0.390368369874116,7.09344477880818));
#788=CARTESIAN_POINT('Ctrl Pts',(6.25,0.189129714276862,7.13139307498932));
#789=CARTESIAN_POINT('Ctrl Pts',(6.25,-0.189129714276861,7.13139307498932));
#790=CARTESIAN_POINT('Ctrl Pts',(6.24055367405967,-0.390368369874116,7.09344477880818));
#791=CARTESIAN_POINT('Ctrl Pts',(6.20642510905415,-0.75972691866262,6.94013202137945));
#792=CARTESIAN_POINT('Ctrl Pts',(6.18220325741904,-0.927905822561484,6.82480759598747));
#793=CARTESIAN_POINT('Ctrl Pts',(6.13647903515533,-1.19343021278707,6.55928320576189));
#794=CARTESIAN_POINT('Ctrl Pts',(6.1119450588795,-1.30874238997222,6.39111086517279));
#795=CARTESIAN_POINT('Ctrl Pts',(6.07709635042362,-1.46204622020626,6.02177548813832));
#796=CARTESIAN_POINT('Ctrl Pts',(6.0673305497558,-1.5,5.82054514471872));
#797=CARTESIAN_POINT('Ctrl Pts',(6.0673305497558,-1.5,5.63139307498932));
#798=CARTESIAN_POINT('Ctrl Pts',(9.,6.59194920871187E-16,4.13139307498932));
#799=CARTESIAN_POINT('Ctrl Pts',(9.,-0.188719772342103,4.13139307498932));
#800=CARTESIAN_POINT('Ctrl Pts',(8.99346082551818,-0.389780010097439,4.16918076148946));
#801=CARTESIAN_POINT('Ctrl Pts',(8.96982776942594,-0.759246906363099,4.32237152155387));
#802=CARTESIAN_POINT('Ctrl Pts',(8.95306300603488,-0.927682550612656,4.43775528204233));
#803=CARTESIAN_POINT('Ctrl Pts',(8.92149950416588,-1.1936413447268,4.70371407615647));
#804=CARTESIAN_POINT('Ctrl Pts',(8.90463192176846,-1.30902231930516,4.87214819556287));
#805=CARTESIAN_POINT('Ctrl Pts',(8.88076280470899,-1.46221105653826,5.24160985353593));
#806=CARTESIAN_POINT('Ctrl Pts',(8.87411967464942,-1.5,5.44266826201652));
#807=CARTESIAN_POINT('Ctrl Pts',(8.87411967464942,-1.5,5.63139307498932));
#808=CARTESIAN_POINT('Origin',(0.,0.,0.));
#809=CARTESIAN_POINT('',(-6.25,-7.65404249467096E-16,0.));
#810=CARTESIAN_POINT('Origin',(0.,0.,0.));
#811=CARTESIAN_POINT('',(-6.25,-7.65404249467096E-16,10.));
#812=CARTESIAN_POINT('',(-6.25,-7.65404249467096E-16,0.));
#813=CARTESIAN_POINT('Origin',(0.,0.,10.));
#814=CARTESIAN_POINT('Origin',(0.,0.,10.));
#815=CARTESIAN_POINT('Origin',(0.,0.,0.));
#816=CARTESIAN_POINT('Origin',(0.,0.,11.));
#817=CARTESIAN_POINT('Origin',(0.,0.,11.));
#818=CARTESIAN_POINT('Origin',(0.,0.,11.));
#819=CARTESIAN_POINT('Origin',(0.,0.,11.));
#820=CARTESIAN_POINT('',(-9.,1.10218211923262E-15,1.));
#821=CARTESIAN_POINT('',(-9.,-1.10218211923262E-15,0.));
#822=CARTESIAN_POINT('Origin',(0.,0.,1.));
#823=CARTESIAN_POINT('Origin',(0.,0.,11.));
#824=CARTESIAN_POINT('Origin',(0.,0.,0.));
#825=CARTESIAN_POINT('',(-11.,-1.34711147906209E-15,1.));
#826=CARTESIAN_POINT('Origin',(0.,0.,1.));
#827=CARTESIAN_POINT('',(-11.,-1.34711147906209E-15,0.));
#828=CARTESIAN_POINT('',(-11.,-1.34711147906209E-15,0.));
#829=CARTESIAN_POINT('Origin',(0.,0.,0.));
#830=CARTESIAN_POINT('Origin',(0.,0.,1.));
#831=CARTESIAN_POINT('Origin',(0.,0.,0.));
#832=UNCERTAINTY_MEASURE_WITH_UNIT(LENGTH_MEASURE(0.01),#836,
'DISTANCE_ACCURACY_VALUE',
'Maximum model space distance between geometric entities at asserted c
onnectivities');
#833=UNCERTAINTY_MEASURE_WITH_UNIT(LENGTH_MEASURE(0.01),#836,
'DISTANCE_ACCURACY_VALUE',
'Maximum model space distance between geometric entities at asserted c
onnectivities');
#834=(
GEOMETRIC_REPRESENTATION_CONTEXT(3)
GLOBAL_UNCERTAINTY_ASSIGNED_CONTEXT((#832))
GLOBAL_UNIT_ASSIGNED_CONTEXT((#836,#838,#839))
REPRESENTATION_CONTEXT('','3D')
);
#835=(
GEOMETRIC_REPRESENTATION_CONTEXT(3)
GLOBAL_UNCERTAINTY_ASSIGNED_CONTEXT((#833))
GLOBAL_UNIT_ASSIGNED_CONTEXT((#836,#838,#839))
REPRESENTATION_CONTEXT('','3D')
);
#836=(
LENGTH_UNIT()
NAMED_UNIT(*)
SI_UNIT(.MILLI.,.METRE.)
);
#837=(
LENGTH_UNIT()
NAMED_UNIT(*)
SI_UNIT($,.METRE.)
);
#838=(
NAMED_UNIT(*)
PLANE_ANGLE_UNIT()
SI_UNIT($,.RADIAN.)
);
#839=(
NAMED_UNIT(*)
SI_UNIT($,.STERADIAN.)
SOLID_ANGLE_UNIT()
);
#840=SHAPE_DEFINITION_REPRESENTATION(#841,#842);
#841=PRODUCT_DEFINITION_SHAPE('',$,#844);
#842=SHAPE_REPRESENTATION('',(#458),#834);
#843=PRODUCT_DEFINITION_CONTEXT('part definition',#848,'design');
#844=PRODUCT_DEFINITION('\X2\65CB8F6C87BA4E1D7AEF\X0\',
'\X2\65CB8F6C87BA4E1D7AEF\X0\',#845,#843);
#845=PRODUCT_DEFINITION_FORMATION('',$,#850);
#846=PRODUCT_RELATED_PRODUCT_CATEGORY('\X2\65CB8F6C87BA4E1D7AEF\X0\',
'\X2\65CB8F6C87BA4E1D7AEF\X0\',(#850));
#847=APPLICATION_PROTOCOL_DEFINITION('international standard',
'automotive_design',2009,#848);
#848=APPLICATION_CONTEXT(
'Core Data for Automotive Mechanical Design Process');
#849=PRODUCT_CONTEXT('part definition',#848,'mechanical');
#850=PRODUCT('\X2\65CB8F6C87BA4E1D7AEF\X0\','\X2\65CB8F6C87BA4E1D7AEF\X0\',
$,(#849));
#851=PRESENTATION_STYLE_ASSIGNMENT((#853));
#852=PRESENTATION_STYLE_ASSIGNMENT((#854));
#853=SURFACE_STYLE_USAGE(.BOTH.,#855);
#854=SURFACE_STYLE_USAGE(.BOTH.,#856);
#855=SURFACE_SIDE_STYLE('',(#857));
#856=SURFACE_SIDE_STYLE('',(#858));
#857=SURFACE_STYLE_FILL_AREA(#859);
#858=SURFACE_STYLE_FILL_AREA(#860);
#859=FILL_AREA_STYLE('\X2\94A2\X0\ - \X2\7F0E5149\X0\',(#861));
#860=FILL_AREA_STYLE(
'PA 11 - \X2\5C3C9F99\X0\ - HP 11-30 (\X2\5E266709\X0\ EOS P 396 3D \X2\62535370673A\X0\)',
(#862));
#861=FILL_AREA_STYLE_COLOUR('\X2\94A2\X0\ - \X2\7F0E5149\X0\',#863);
#862=FILL_AREA_STYLE_COLOUR(
'PA 11 - \X2\5C3C9F99\X0\ - HP 11-30 (\X2\5E266709\X0\ EOS P 396 3D \X2\62535370673A\X0\)',
#864);
#863=COLOUR_RGB('\X2\94A2\X0\ - \X2\7F0E5149\X0\',0.627450980392157,0.627450980392157,
0.627450980392157);
#864=COLOUR_RGB(
'PA 11 - \X2\5C3C9F99\X0\ - HP 11-30 (\X2\5E266709\X0\ EOS P 396 3D \X2\62535370673A\X0\)',
0.247058823529412,0.247058823529412,0.247058823529412);
ENDSEC;
END-ISO-10303-21;
