ISO-10303-21;
HEADER;
/* Generated by software containing ST-Developer
 * from STEP Tools, Inc. (www.steptools.com) 
 */

FILE_DESCRIPTION(
/* description */ (''),
/* implementation_level */ '2;1');

FILE_NAME(
/* name */ '',
/* time_stamp */ '2026-03-15T10:05:41+08:00',
/* author */ (''),
/* organization */ (''),
/* preprocessor_version */ 'ST-DEVELOPER v20.1',
/* originating_system */ 'Autodesk Translation Framework v14.24.0.0',
/* authorisation */ '');

FILE_SCHEMA (('AUTOMOTIVE_DESIGN { 1 0 10303 214 3 1 1 }'));
ENDSEC;

DATA;
#10=MECHANICAL_DESIGN_GEOMETRIC_PRESENTATION_REPRESENTATION('',(#13),#838);
#11=SHAPE_REPRESENTATION_RELATIONSHIP('SRR','None',#845,#12);
#12=ADVANCED_BREP_SHAPE_REPRESENTATION('',(#14),#837);
#13=STYLED_ITEM('',(#855),#14);
#14=MANIFOLD_SOLID_BREP('\X2\5B9E4F53\X0\1',#440);
#15=FACE_BOUND('',#68,.T.);
#16=FACE_BOUND('',#71,.T.);
#17=FACE_BOUND('',#83,.T.);
#18=FACE_BOUND('',#85,.T.);
#19=FACE_BOUND('',#87,.T.);
#20=B_SPLINE_CURVE_WITH_KNOTS('',3,(#660,#661,#662,#663,#664,#665,#666,
#667,#668,#669,#670,#671,#672,#673,#674,#675,#676,#677),.UNSPECIFIED.,.F.,
 .F.,(4,2,2,2,2,2,2,2,4),(0.228818800665581,0.285994551210473,0.343170301755366,
0.400403951543264,0.457637601331161,0.514871251119059,0.572104900906956,
0.629280651451849,0.686456401996742),.UNSPECIFIED.);
#21=B_SPLINE_CURVE_WITH_KNOTS('',3,(#679,#680,#681,#682,#683,#684,#685,
#686,#687,#688),.UNSPECIFIED.,.F.,.F.,(4,2,2,2,4),(0.915275202662323,0.97250885245022,
1.02974250223812,1.08691825278301,1.1440940033279),.UNSPECIFIED.);
#22=B_SPLINE_CURVE_WITH_KNOTS('',3,(#691,#692,#693,#694,#695,#696,#697,
#698,#699,#700,#701,#702,#703,#704,#705,#706,#707,#708),.UNSPECIFIED.,.F.,
 .F.,(4,2,2,2,2,2,2,2,4),(0.659469666519094,0.715388598118849,0.745969382689417,
0.776550167259985,0.807130951830553,0.837711736401121,0.898873305542257,
0.967136764277785,0.977470165831209),.UNSPECIFIED.);
#23=B_SPLINE_CURVE_WITH_KNOTS('',3,(#710,#711,#712,#713,#714,#715,#716,
#717),.UNSPECIFIED.,.F.,.F.,(4,2,2,4),(0.575630168688762,0.585963570242185,
0.654227028977713,0.659469666519094),.UNSPECIFIED.);
#24=B_SPLINE_CURVE_WITH_KNOTS('',3,(#721,#722,#723,#724,#725,#726,#727,
#728),.UNSPECIFIED.,.F.,.F.,(4,2,2,4),(0.375930556494219,0.381173194035601,
0.449436652771129,0.45977005432455),.UNSPECIFIED.);
#25=B_SPLINE_CURVE_WITH_KNOTS('',3,(#729,#730,#731,#732,#733,#734,#735,
#736,#737,#738,#739,#740,#741,#742,#743,#744,#745,#746),.UNSPECIFIED.,.F.,
 .F.,(4,2,2,2,2,2,2,2,4),(0.0579300571821059,0.068263458735528,0.136526917471056,
0.197688486612192,0.22826927118276,0.258850055753328,0.289430840323896,
0.320011624894464,0.375930556494219),.UNSPECIFIED.);
#26=B_SPLINE_CURVE_WITH_KNOTS('',3,(#747,#748,#749,#750,#751,#752,#753,
#754,#755,#756),.UNSPECIFIED.,.F.,.F.,(4,2,2,2,4),(0.686456401996742,0.743632152541634,
0.800807903086527,0.858041552874425,0.915275202662323),.UNSPECIFIED.);
#27=PLANE('',#457);
#28=PLANE('',#458);
#29=PLANE('',#459);
#30=PLANE('',#464);
#31=PLANE('',#465);
#32=PLANE('',#471);
#33=PLANE('',#479);
#34=PLANE('',#482);
#35=PLANE('',#487);
#36=PLANE('',#490);
#37=PLANE('',#497);
#38=PLANE('',#498);
#39=FACE_OUTER_BOUND('',#61,.T.);
#40=FACE_OUTER_BOUND('',#62,.T.);
#41=FACE_OUTER_BOUND('',#63,.T.);
#42=FACE_OUTER_BOUND('',#64,.T.);
#43=FACE_OUTER_BOUND('',#65,.T.);
#44=FACE_OUTER_BOUND('',#66,.T.);
#45=FACE_OUTER_BOUND('',#67,.T.);
#46=FACE_OUTER_BOUND('',#69,.T.);
#47=FACE_OUTER_BOUND('',#70,.T.);
#48=FACE_OUTER_BOUND('',#72,.T.);
#49=FACE_OUTER_BOUND('',#73,.T.);
#50=FACE_OUTER_BOUND('',#74,.T.);
#51=FACE_OUTER_BOUND('',#75,.T.);
#52=FACE_OUTER_BOUND('',#76,.T.);
#53=FACE_OUTER_BOUND('',#77,.T.);
#54=FACE_OUTER_BOUND('',#78,.T.);
#55=FACE_OUTER_BOUND('',#79,.T.);
#56=FACE_OUTER_BOUND('',#80,.T.);
#57=FACE_OUTER_BOUND('',#81,.T.);
#58=FACE_OUTER_BOUND('',#82,.T.);
#59=FACE_OUTER_BOUND('',#84,.T.);
#60=FACE_OUTER_BOUND('',#86,.T.);
#61=EDGE_LOOP('',(#282,#283,#284,#285));
#62=EDGE_LOOP('',(#286,#287,#288,#289,#290));
#63=EDGE_LOOP('',(#291,#292,#293,#294,#295));
#64=EDGE_LOOP('',(#296,#297,#298));
#65=EDGE_LOOP('',(#299,#300,#301,#302,#303,#304,#305,#306,#307,#308,#309,
#310));
#66=EDGE_LOOP('',(#311,#312));
#67=EDGE_LOOP('',(#313));
#68=EDGE_LOOP('',(#314));
#69=EDGE_LOOP('',(#315,#316,#317,#318));
#70=EDGE_LOOP('',(#319));
#71=EDGE_LOOP('',(#320,#321,#322,#323,#324,#325,#326,#327,#328,#329));
#72=EDGE_LOOP('',(#330,#331,#332,#333));
#73=EDGE_LOOP('',(#334,#335,#336,#337));
#74=EDGE_LOOP('',(#338,#339,#340,#341));
#75=EDGE_LOOP('',(#342,#343,#344,#345));
#76=EDGE_LOOP('',(#346,#347,#348,#349));
#77=EDGE_LOOP('',(#350,#351,#352,#353,#354,#355,#356,#357,#358,#359,#360,
#361));
#78=EDGE_LOOP('',(#362,#363,#364,#365));
#79=EDGE_LOOP('',(#366,#367,#368,#369));
#80=EDGE_LOOP('',(#370,#371,#372,#373));
#81=EDGE_LOOP('',(#374,#375,#376,#377));
#82=EDGE_LOOP('',(#378,#379,#380,#381,#382,#383,#384,#385));
#83=EDGE_LOOP('',(#386,#387,#388));
#84=EDGE_LOOP('',(#389));
#85=EDGE_LOOP('',(#390,#391,#392,#393,#394));
#86=EDGE_LOOP('',(#395,#396,#397,#398,#399,#400,#401,#402,#403,#404,#405,
#406));
#87=EDGE_LOOP('',(#407));
#88=LINE('',#630,#121);
#89=LINE('',#633,#122);
#90=LINE('',#636,#123);
#91=LINE('',#638,#124);
#92=LINE('',#640,#125);
#93=LINE('',#641,#126);
#94=LINE('',#644,#127);
#95=LINE('',#646,#128);
#96=LINE('',#648,#129);
#97=LINE('',#649,#130);
#98=LINE('',#653,#131);
#99=LINE('',#689,#132);
#100=LINE('',#758,#133);
#101=LINE('',#768,#134);
#102=LINE('',#774,#135);
#103=LINE('',#778,#136);
#104=LINE('',#782,#137);
#105=LINE('',#786,#138);
#106=LINE('',#790,#139);
#107=LINE('',#794,#140);
#108=LINE('',#795,#141);
#109=LINE('',#798,#142);
#110=LINE('',#802,#143);
#111=LINE('',#803,#144);
#112=LINE('',#806,#145);
#113=LINE('',#809,#146);
#114=LINE('',#811,#147);
#115=LINE('',#815,#148);
#116=LINE('',#816,#149);
#117=LINE('',#819,#150);
#118=LINE('',#823,#151);
#119=LINE('',#824,#152);
#120=LINE('',#829,#153);
#121=VECTOR('',#505,10.);
#122=VECTOR('',#508,10.);
#123=VECTOR('',#511,10.);
#124=VECTOR('',#512,10.);
#125=VECTOR('',#513,10.);
#126=VECTOR('',#514,10.);
#127=VECTOR('',#517,10.);
#128=VECTOR('',#518,10.);
#129=VECTOR('',#519,10.);
#130=VECTOR('',#520,10.);
#131=VECTOR('',#523,10.);
#132=VECTOR('',#530,1.5);
#133=VECTOR('',#535,10.);
#134=VECTOR('',#546,11.);
#135=VECTOR('',#553,10.);
#136=VECTOR('',#556,10.);
#137=VECTOR('',#559,10.);
#138=VECTOR('',#562,10.);
#139=VECTOR('',#567,10.);
#140=VECTOR('',#572,10.);
#141=VECTOR('',#573,10.);
#142=VECTOR('',#576,10.);
#143=VECTOR('',#581,10.);
#144=VECTOR('',#582,10.);
#145=VECTOR('',#585,10.);
#146=VECTOR('',#590,1.6);
#147=VECTOR('',#591,1.6);
#148=VECTOR('',#596,10.);
#149=VECTOR('',#597,10.);
#150=VECTOR('',#600,10.);
#151=VECTOR('',#605,10.);
#152=VECTOR('',#606,10.);
#153=VECTOR('',#613,3.75);
#154=CIRCLE('',#455,9.00000013411045);
#155=CIRCLE('',#456,9.00000013411045);
#156=CIRCLE('',#460,1.5);
#157=CIRCLE('',#461,1.5);
#158=CIRCLE('',#463,1.5);
#159=CIRCLE('',#466,3.75);
#160=CIRCLE('',#467,1.6);
#161=CIRCLE('',#469,11.);
#162=CIRCLE('',#470,11.);
#163=CIRCLE('',#472,9.);
#164=CIRCLE('',#473,3.75);
#165=CIRCLE('',#474,9.);
#166=CIRCLE('',#475,3.75);
#167=CIRCLE('',#476,9.);
#168=CIRCLE('',#478,9.);
#169=CIRCLE('',#481,3.75);
#170=CIRCLE('',#484,9.);
#171=CIRCLE('',#486,1.6);
#172=CIRCLE('',#489,3.75);
#173=CIRCLE('',#492,9.);
#174=CIRCLE('',#494,3.75);
#175=CIRCLE('',#495,3.75);
#176=CIRCLE('',#496,3.75);
#177=VERTEX_POINT('',#626);
#178=VERTEX_POINT('',#627);
#179=VERTEX_POINT('',#629);
#180=VERTEX_POINT('',#631);
#181=VERTEX_POINT('',#635);
#182=VERTEX_POINT('',#637);
#183=VERTEX_POINT('',#639);
#184=VERTEX_POINT('',#643);
#185=VERTEX_POINT('',#645);
#186=VERTEX_POINT('',#647);
#187=VERTEX_POINT('',#651);
#188=VERTEX_POINT('',#652);
#189=VERTEX_POINT('',#654);
#190=VERTEX_POINT('',#658);
#191=VERTEX_POINT('',#659);
#192=VERTEX_POINT('',#678);
#193=VERTEX_POINT('',#690);
#194=VERTEX_POINT('',#709);
#195=VERTEX_POINT('',#718);
#196=VERTEX_POINT('',#720);
#197=VERTEX_POINT('',#760);
#198=VERTEX_POINT('',#762);
#199=VERTEX_POINT('',#765);
#200=VERTEX_POINT('',#767);
#201=VERTEX_POINT('',#771);
#202=VERTEX_POINT('',#773);
#203=VERTEX_POINT('',#775);
#204=VERTEX_POINT('',#777);
#205=VERTEX_POINT('',#779);
#206=VERTEX_POINT('',#781);
#207=VERTEX_POINT('',#783);
#208=VERTEX_POINT('',#785);
#209=VERTEX_POINT('',#789);
#210=VERTEX_POINT('',#793);
#211=VERTEX_POINT('',#797);
#212=VERTEX_POINT('',#801);
#213=VERTEX_POINT('',#805);
#214=VERTEX_POINT('',#810);
#215=VERTEX_POINT('',#814);
#216=VERTEX_POINT('',#818);
#217=VERTEX_POINT('',#822);
#218=VERTEX_POINT('',#828);
#219=EDGE_CURVE('',#177,#178,#154,.T.);
#220=EDGE_CURVE('',#179,#178,#88,.T.);
#221=EDGE_CURVE('',#180,#179,#155,.T.);
#222=EDGE_CURVE('',#177,#180,#89,.T.);
#223=EDGE_CURVE('',#181,#178,#90,.T.);
#224=EDGE_CURVE('',#182,#181,#91,.T.);
#225=EDGE_CURVE('',#182,#183,#92,.T.);
#226=EDGE_CURVE('',#183,#179,#93,.T.);
#227=EDGE_CURVE('',#184,#180,#94,.T.);
#228=EDGE_CURVE('',#185,#184,#95,.T.);
#229=EDGE_CURVE('',#185,#186,#96,.T.);
#230=EDGE_CURVE('',#177,#186,#97,.T.);
#231=EDGE_CURVE('',#187,#188,#98,.T.);
#232=EDGE_CURVE('',#189,#187,#156,.T.);
#233=EDGE_CURVE('',#188,#189,#157,.T.);
#234=EDGE_CURVE('',#190,#191,#20,.T.);
#235=EDGE_CURVE('',#192,#190,#21,.T.);
#236=EDGE_CURVE('',#192,#189,#99,.T.);
#237=EDGE_CURVE('',#193,#187,#22,.T.);
#238=EDGE_CURVE('',#194,#193,#23,.T.);
#239=EDGE_CURVE('',#194,#195,#158,.T.);
#240=EDGE_CURVE('',#196,#195,#24,.T.);
#241=EDGE_CURVE('',#188,#196,#25,.T.);
#242=EDGE_CURVE('',#191,#192,#26,.T.);
#243=EDGE_CURVE('',#195,#194,#100,.T.);
#244=EDGE_CURVE('',#197,#197,#159,.T.);
#245=EDGE_CURVE('',#198,#198,#160,.T.);
#246=EDGE_CURVE('',#199,#199,#161,.T.);
#247=EDGE_CURVE('',#199,#200,#101,.T.);
#248=EDGE_CURVE('',#200,#200,#162,.T.);
#249=EDGE_CURVE('',#201,#179,#163,.T.);
#250=EDGE_CURVE('',#202,#201,#102,.T.);
#251=EDGE_CURVE('',#203,#202,#164,.T.);
#252=EDGE_CURVE('',#204,#203,#103,.T.);
#253=EDGE_CURVE('',#205,#204,#165,.T.);
#254=EDGE_CURVE('',#206,#205,#104,.T.);
#255=EDGE_CURVE('',#207,#206,#166,.T.);
#256=EDGE_CURVE('',#208,#207,#105,.T.);
#257=EDGE_CURVE('',#180,#208,#167,.T.);
#258=EDGE_CURVE('',#209,#208,#106,.T.);
#259=EDGE_CURVE('',#209,#184,#168,.T.);
#260=EDGE_CURVE('',#210,#207,#107,.T.);
#261=EDGE_CURVE('',#210,#209,#108,.T.);
#262=EDGE_CURVE('',#211,#206,#109,.T.);
#263=EDGE_CURVE('',#211,#210,#169,.T.);
#264=EDGE_CURVE('',#212,#205,#110,.T.);
#265=EDGE_CURVE('',#212,#211,#111,.T.);
#266=EDGE_CURVE('',#213,#204,#112,.T.);
#267=EDGE_CURVE('',#213,#212,#170,.T.);
#268=EDGE_CURVE('',#198,#193,#113,.T.);
#269=EDGE_CURVE('',#196,#214,#114,.T.);
#270=EDGE_CURVE('',#214,#214,#171,.T.);
#271=EDGE_CURVE('',#215,#203,#115,.T.);
#272=EDGE_CURVE('',#213,#215,#116,.T.);
#273=EDGE_CURVE('',#216,#202,#117,.T.);
#274=EDGE_CURVE('',#216,#215,#172,.T.);
#275=EDGE_CURVE('',#217,#201,#118,.T.);
#276=EDGE_CURVE('',#216,#217,#119,.T.);
#277=EDGE_CURVE('',#183,#217,#173,.T.);
#278=EDGE_CURVE('',#197,#218,#120,.T.);
#279=EDGE_CURVE('',#186,#218,#174,.T.);
#280=EDGE_CURVE('',#185,#182,#175,.T.);
#281=EDGE_CURVE('',#218,#181,#176,.T.);
#282=ORIENTED_EDGE('',*,*,#219,.T.);
#283=ORIENTED_EDGE('',*,*,#220,.F.);
#284=ORIENTED_EDGE('',*,*,#221,.F.);
#285=ORIENTED_EDGE('',*,*,#222,.F.);
#286=ORIENTED_EDGE('',*,*,#220,.T.);
#287=ORIENTED_EDGE('',*,*,#223,.F.);
#288=ORIENTED_EDGE('',*,*,#224,.F.);
#289=ORIENTED_EDGE('',*,*,#225,.T.);
#290=ORIENTED_EDGE('',*,*,#226,.T.);
#291=ORIENTED_EDGE('',*,*,#222,.T.);
#292=ORIENTED_EDGE('',*,*,#227,.F.);
#293=ORIENTED_EDGE('',*,*,#228,.F.);
#294=ORIENTED_EDGE('',*,*,#229,.T.);
#295=ORIENTED_EDGE('',*,*,#230,.F.);
#296=ORIENTED_EDGE('',*,*,#231,.F.);
#297=ORIENTED_EDGE('',*,*,#232,.F.);
#298=ORIENTED_EDGE('',*,*,#233,.F.);
#299=ORIENTED_EDGE('',*,*,#234,.F.);
#300=ORIENTED_EDGE('',*,*,#235,.F.);
#301=ORIENTED_EDGE('',*,*,#236,.T.);
#302=ORIENTED_EDGE('',*,*,#232,.T.);
#303=ORIENTED_EDGE('',*,*,#237,.F.);
#304=ORIENTED_EDGE('',*,*,#238,.F.);
#305=ORIENTED_EDGE('',*,*,#239,.T.);
#306=ORIENTED_EDGE('',*,*,#240,.F.);
#307=ORIENTED_EDGE('',*,*,#241,.F.);
#308=ORIENTED_EDGE('',*,*,#233,.T.);
#309=ORIENTED_EDGE('',*,*,#236,.F.);
#310=ORIENTED_EDGE('',*,*,#242,.F.);
#311=ORIENTED_EDGE('',*,*,#243,.F.);
#312=ORIENTED_EDGE('',*,*,#239,.F.);
#313=ORIENTED_EDGE('',*,*,#244,.T.);
#314=ORIENTED_EDGE('',*,*,#245,.T.);
#315=ORIENTED_EDGE('',*,*,#246,.F.);
#316=ORIENTED_EDGE('',*,*,#247,.T.);
#317=ORIENTED_EDGE('',*,*,#248,.F.);
#318=ORIENTED_EDGE('',*,*,#247,.F.);
#319=ORIENTED_EDGE('',*,*,#246,.T.);
#320=ORIENTED_EDGE('',*,*,#249,.F.);
#321=ORIENTED_EDGE('',*,*,#250,.F.);
#322=ORIENTED_EDGE('',*,*,#251,.F.);
#323=ORIENTED_EDGE('',*,*,#252,.F.);
#324=ORIENTED_EDGE('',*,*,#253,.F.);
#325=ORIENTED_EDGE('',*,*,#254,.F.);
#326=ORIENTED_EDGE('',*,*,#255,.F.);
#327=ORIENTED_EDGE('',*,*,#256,.F.);
#328=ORIENTED_EDGE('',*,*,#257,.F.);
#329=ORIENTED_EDGE('',*,*,#221,.T.);
#330=ORIENTED_EDGE('',*,*,#257,.T.);
#331=ORIENTED_EDGE('',*,*,#258,.F.);
#332=ORIENTED_EDGE('',*,*,#259,.T.);
#333=ORIENTED_EDGE('',*,*,#227,.T.);
#334=ORIENTED_EDGE('',*,*,#256,.T.);
#335=ORIENTED_EDGE('',*,*,#260,.F.);
#336=ORIENTED_EDGE('',*,*,#261,.T.);
#337=ORIENTED_EDGE('',*,*,#258,.T.);
#338=ORIENTED_EDGE('',*,*,#255,.T.);
#339=ORIENTED_EDGE('',*,*,#262,.F.);
#340=ORIENTED_EDGE('',*,*,#263,.T.);
#341=ORIENTED_EDGE('',*,*,#260,.T.);
#342=ORIENTED_EDGE('',*,*,#254,.T.);
#343=ORIENTED_EDGE('',*,*,#264,.F.);
#344=ORIENTED_EDGE('',*,*,#265,.T.);
#345=ORIENTED_EDGE('',*,*,#262,.T.);
#346=ORIENTED_EDGE('',*,*,#253,.T.);
#347=ORIENTED_EDGE('',*,*,#266,.F.);
#348=ORIENTED_EDGE('',*,*,#267,.T.);
#349=ORIENTED_EDGE('',*,*,#264,.T.);
#350=ORIENTED_EDGE('',*,*,#245,.F.);
#351=ORIENTED_EDGE('',*,*,#268,.T.);
#352=ORIENTED_EDGE('',*,*,#237,.T.);
#353=ORIENTED_EDGE('',*,*,#231,.T.);
#354=ORIENTED_EDGE('',*,*,#241,.T.);
#355=ORIENTED_EDGE('',*,*,#269,.T.);
#356=ORIENTED_EDGE('',*,*,#270,.T.);
#357=ORIENTED_EDGE('',*,*,#269,.F.);
#358=ORIENTED_EDGE('',*,*,#240,.T.);
#359=ORIENTED_EDGE('',*,*,#243,.T.);
#360=ORIENTED_EDGE('',*,*,#238,.T.);
#361=ORIENTED_EDGE('',*,*,#268,.F.);
#362=ORIENTED_EDGE('',*,*,#252,.T.);
#363=ORIENTED_EDGE('',*,*,#271,.F.);
#364=ORIENTED_EDGE('',*,*,#272,.F.);
#365=ORIENTED_EDGE('',*,*,#266,.T.);
#366=ORIENTED_EDGE('',*,*,#251,.T.);
#367=ORIENTED_EDGE('',*,*,#273,.F.);
#368=ORIENTED_EDGE('',*,*,#274,.T.);
#369=ORIENTED_EDGE('',*,*,#271,.T.);
#370=ORIENTED_EDGE('',*,*,#250,.T.);
#371=ORIENTED_EDGE('',*,*,#275,.F.);
#372=ORIENTED_EDGE('',*,*,#276,.F.);
#373=ORIENTED_EDGE('',*,*,#273,.T.);
#374=ORIENTED_EDGE('',*,*,#249,.T.);
#375=ORIENTED_EDGE('',*,*,#226,.F.);
#376=ORIENTED_EDGE('',*,*,#277,.T.);
#377=ORIENTED_EDGE('',*,*,#275,.T.);
#378=ORIENTED_EDGE('',*,*,#244,.F.);
#379=ORIENTED_EDGE('',*,*,#278,.T.);
#380=ORIENTED_EDGE('',*,*,#279,.F.);
#381=ORIENTED_EDGE('',*,*,#229,.F.);
#382=ORIENTED_EDGE('',*,*,#280,.T.);
#383=ORIENTED_EDGE('',*,*,#224,.T.);
#384=ORIENTED_EDGE('',*,*,#281,.F.);
#385=ORIENTED_EDGE('',*,*,#278,.F.);
#386=ORIENTED_EDGE('',*,*,#234,.T.);
#387=ORIENTED_EDGE('',*,*,#242,.T.);
#388=ORIENTED_EDGE('',*,*,#235,.T.);
#389=ORIENTED_EDGE('',*,*,#248,.T.);
#390=ORIENTED_EDGE('',*,*,#219,.F.);
#391=ORIENTED_EDGE('',*,*,#230,.T.);
#392=ORIENTED_EDGE('',*,*,#279,.T.);
#393=ORIENTED_EDGE('',*,*,#281,.T.);
#394=ORIENTED_EDGE('',*,*,#223,.T.);
#395=ORIENTED_EDGE('',*,*,#267,.F.);
#396=ORIENTED_EDGE('',*,*,#272,.T.);
#397=ORIENTED_EDGE('',*,*,#274,.F.);
#398=ORIENTED_EDGE('',*,*,#276,.T.);
#399=ORIENTED_EDGE('',*,*,#277,.F.);
#400=ORIENTED_EDGE('',*,*,#225,.F.);
#401=ORIENTED_EDGE('',*,*,#280,.F.);
#402=ORIENTED_EDGE('',*,*,#228,.T.);
#403=ORIENTED_EDGE('',*,*,#259,.F.);
#404=ORIENTED_EDGE('',*,*,#261,.F.);
#405=ORIENTED_EDGE('',*,*,#263,.F.);
#406=ORIENTED_EDGE('',*,*,#265,.F.);
#407=ORIENTED_EDGE('',*,*,#270,.F.);
#408=CYLINDRICAL_SURFACE('',#454,9.00000013411045);
#409=CYLINDRICAL_SURFACE('',#462,1.5);
#410=CYLINDRICAL_SURFACE('',#468,11.);
#411=CYLINDRICAL_SURFACE('',#477,9.);
#412=CYLINDRICAL_SURFACE('',#480,3.75);
#413=CYLINDRICAL_SURFACE('',#483,9.);
#414=CYLINDRICAL_SURFACE('',#485,1.6);
#415=CYLINDRICAL_SURFACE('',#488,3.75);
#416=CYLINDRICAL_SURFACE('',#491,9.);
#417=CYLINDRICAL_SURFACE('',#493,3.75);
#418=ADVANCED_FACE('',(#39),#408,.F.);
#419=ADVANCED_FACE('',(#40),#27,.T.);
#420=ADVANCED_FACE('',(#41),#28,.T.);
#421=ADVANCED_FACE('',(#42),#29,.F.);
#422=ADVANCED_FACE('',(#43),#409,.F.);
#423=ADVANCED_FACE('',(#44),#30,.F.);
#424=ADVANCED_FACE('',(#45,#15),#31,.T.);
#425=ADVANCED_FACE('',(#46),#410,.T.);
#426=ADVANCED_FACE('',(#47,#16),#32,.F.);
#427=ADVANCED_FACE('',(#48),#411,.T.);
#428=ADVANCED_FACE('',(#49),#33,.T.);
#429=ADVANCED_FACE('',(#50),#412,.T.);
#430=ADVANCED_FACE('',(#51),#34,.T.);
#431=ADVANCED_FACE('',(#52),#413,.T.);
#432=ADVANCED_FACE('',(#53),#414,.F.);
#433=ADVANCED_FACE('',(#54),#35,.T.);
#434=ADVANCED_FACE('',(#55),#415,.T.);
#435=ADVANCED_FACE('',(#56),#36,.T.);
#436=ADVANCED_FACE('',(#57),#416,.T.);
#437=ADVANCED_FACE('',(#58,#17),#417,.T.);
#438=ADVANCED_FACE('',(#59,#18),#37,.T.);
#439=ADVANCED_FACE('',(#60,#19),#38,.F.);
#440=CLOSED_SHELL('',(#418,#419,#420,#421,#422,#423,#424,#425,#426,#427,
#428,#429,#430,#431,#432,#433,#434,#435,#436,#437,#438,#439));
#441=DERIVED_UNIT_ELEMENT(#443,1.);
#442=DERIVED_UNIT_ELEMENT(#840,-3.);
#443=(
MASS_UNIT()
NAMED_UNIT(*)
SI_UNIT(.KILO.,.GRAM.)
);
#444=DERIVED_UNIT((#441,#442));
#445=MEASURE_REPRESENTATION_ITEM('density measure',
POSITIVE_RATIO_MEASURE(7850.),#444);
#446=PROPERTY_DEFINITION_REPRESENTATION(#451,#448);
#447=PROPERTY_DEFINITION_REPRESENTATION(#452,#449);
#448=REPRESENTATION('material name',(#450),#837);
#449=REPRESENTATION('density',(#445),#837);
#450=DESCRIPTIVE_REPRESENTATION_ITEM('\X2\94A2\X0\','\X2\94A2\X0\');
#451=PROPERTY_DEFINITION('material property','material name',#847);
#452=PROPERTY_DEFINITION('material property','density of part',#847);
#453=AXIS2_PLACEMENT_3D('',#624,#499,#500);
#454=AXIS2_PLACEMENT_3D('',#625,#501,#502);
#455=AXIS2_PLACEMENT_3D('',#628,#503,#504);
#456=AXIS2_PLACEMENT_3D('',#632,#506,#507);
#457=AXIS2_PLACEMENT_3D('',#634,#509,#510);
#458=AXIS2_PLACEMENT_3D('',#642,#515,#516);
#459=AXIS2_PLACEMENT_3D('',#650,#521,#522);
#460=AXIS2_PLACEMENT_3D('',#655,#524,#525);
#461=AXIS2_PLACEMENT_3D('',#656,#526,#527);
#462=AXIS2_PLACEMENT_3D('',#657,#528,#529);
#463=AXIS2_PLACEMENT_3D('',#719,#531,#532);
#464=AXIS2_PLACEMENT_3D('',#757,#533,#534);
#465=AXIS2_PLACEMENT_3D('',#759,#536,#537);
#466=AXIS2_PLACEMENT_3D('',#761,#538,#539);
#467=AXIS2_PLACEMENT_3D('',#763,#540,#541);
#468=AXIS2_PLACEMENT_3D('',#764,#542,#543);
#469=AXIS2_PLACEMENT_3D('',#766,#544,#545);
#470=AXIS2_PLACEMENT_3D('',#769,#547,#548);
#471=AXIS2_PLACEMENT_3D('',#770,#549,#550);
#472=AXIS2_PLACEMENT_3D('',#772,#551,#552);
#473=AXIS2_PLACEMENT_3D('',#776,#554,#555);
#474=AXIS2_PLACEMENT_3D('',#780,#557,#558);
#475=AXIS2_PLACEMENT_3D('',#784,#560,#561);
#476=AXIS2_PLACEMENT_3D('',#787,#563,#564);
#477=AXIS2_PLACEMENT_3D('',#788,#565,#566);
#478=AXIS2_PLACEMENT_3D('',#791,#568,#569);
#479=AXIS2_PLACEMENT_3D('',#792,#570,#571);
#480=AXIS2_PLACEMENT_3D('',#796,#574,#575);
#481=AXIS2_PLACEMENT_3D('',#799,#577,#578);
#482=AXIS2_PLACEMENT_3D('',#800,#579,#580);
#483=AXIS2_PLACEMENT_3D('',#804,#583,#584);
#484=AXIS2_PLACEMENT_3D('',#807,#586,#587);
#485=AXIS2_PLACEMENT_3D('',#808,#588,#589);
#486=AXIS2_PLACEMENT_3D('',#812,#592,#593);
#487=AXIS2_PLACEMENT_3D('',#813,#594,#595);
#488=AXIS2_PLACEMENT_3D('',#817,#598,#599);
#489=AXIS2_PLACEMENT_3D('',#820,#601,#602);
#490=AXIS2_PLACEMENT_3D('',#821,#603,#604);
#491=AXIS2_PLACEMENT_3D('',#825,#607,#608);
#492=AXIS2_PLACEMENT_3D('',#826,#609,#610);
#493=AXIS2_PLACEMENT_3D('',#827,#611,#612);
#494=AXIS2_PLACEMENT_3D('',#830,#614,#615);
#495=AXIS2_PLACEMENT_3D('',#831,#616,#617);
#496=AXIS2_PLACEMENT_3D('',#832,#618,#619);
#497=AXIS2_PLACEMENT_3D('',#833,#620,#621);
#498=AXIS2_PLACEMENT_3D('',#834,#622,#623);
#499=DIRECTION('axis',(0.,0.,1.));
#500=DIRECTION('refdir',(1.,0.,0.));
#501=DIRECTION('center_axis',(0.,0.,-1.));
#502=DIRECTION('ref_axis',(0.707106781186547,-0.707106781186548,0.));
#503=DIRECTION('center_axis',(6.12323399573677E-17,0.,1.));
#504=DIRECTION('ref_axis',(-1.,0.,6.12323399573677E-17));
#505=DIRECTION('',(0.,0.,1.));
#506=DIRECTION('center_axis',(6.12323399573677E-17,0.,1.));
#507=DIRECTION('ref_axis',(-1.,0.,6.12323399573677E-17));
#508=DIRECTION('',(0.,0.,-1.));
#509=DIRECTION('center_axis',(-7.78559488468531E-17,-1.,0.));
#510=DIRECTION('ref_axis',(1.,-7.78559488468531E-17,0.));
#511=DIRECTION('',(1.,-2.07615863591608E-16,0.));
#512=DIRECTION('',(0.,0.,1.));
#513=DIRECTION('',(1.,-7.78559488468531E-17,0.));
#514=DIRECTION('',(0.,0.,1.));
#515=DIRECTION('center_axis',(1.,0.,0.));
#516=DIRECTION('ref_axis',(0.,1.,0.));
#517=DIRECTION('',(0.,0.,1.));
#518=DIRECTION('',(0.,-1.,0.));
#519=DIRECTION('',(0.,0.,1.));
#520=DIRECTION('',(1.40685618572565E-14,1.,0.));
#521=DIRECTION('center_axis',(-0.766044443118978,0.642787609686539,0.));
#522=DIRECTION('ref_axis',(0.642787609686539,0.766044443118978,0.));
#523=DIRECTION('',(0.,0.,-1.));
#524=DIRECTION('center_axis',(-0.766044443118978,0.642787609686539,0.));
#525=DIRECTION('ref_axis',(0.64278760968654,0.766044443118978,0.));
#526=DIRECTION('center_axis',(-0.766044443118978,0.642787609686539,0.));
#527=DIRECTION('ref_axis',(0.64278760968654,0.766044443118978,0.));
#528=DIRECTION('center_axis',(-0.766044443118978,0.642787609686539,0.));
#529=DIRECTION('ref_axis',(0.64278760968654,0.766044443118978,0.));
#530=DIRECTION('',(-0.766044443118978,0.64278760968654,0.));
#531=DIRECTION('center_axis',(-0.766044443118978,0.642787609686539,0.));
#532=DIRECTION('ref_axis',(0.64278760968654,0.766044443118978,0.));
#533=DIRECTION('center_axis',(-0.766044443118978,0.642787609686539,0.));
#534=DIRECTION('ref_axis',(0.642787609686539,0.766044443118978,0.));
#535=DIRECTION('',(0.,0.,1.));
#536=DIRECTION('center_axis',(6.12323399573677E-17,0.,1.));
#537=DIRECTION('ref_axis',(-1.,0.,6.12323399573677E-17));
#538=DIRECTION('center_axis',(6.12323399573677E-17,0.,1.));
#539=DIRECTION('ref_axis',(-1.,0.,6.12323399573676E-17));
#540=DIRECTION('center_axis',(-6.12323399573677E-17,0.,-1.));
#541=DIRECTION('ref_axis',(-1.,0.,6.12323399573677E-17));
#542=DIRECTION('center_axis',(0.,0.,-1.));
#543=DIRECTION('ref_axis',(-1.,0.,0.));
#544=DIRECTION('center_axis',(0.,0.,-1.));
#545=DIRECTION('ref_axis',(-1.,0.,0.));
#546=DIRECTION('',(0.,0.,1.));
#547=DIRECTION('center_axis',(0.,0.,1.));
#548=DIRECTION('ref_axis',(-1.,0.,0.));
#549=DIRECTION('center_axis',(0.,0.,1.));
#550=DIRECTION('ref_axis',(-1.,0.,0.));
#551=DIRECTION('center_axis',(0.,0.,-1.));
#552=DIRECTION('ref_axis',(0.993807989999907,0.111111111111111,0.));
#553=DIRECTION('',(0.,1.,0.));
#554=DIRECTION('center_axis',(0.,0.,-1.));
#555=DIRECTION('ref_axis',(0.293333333333333,0.956010227746312,0.));
#556=DIRECTION('',(-2.59519829489511E-17,-1.,0.));
#557=DIRECTION('center_axis',(0.,0.,-1.));
#558=DIRECTION('ref_axis',(-0.111111111111111,0.993807989999907,0.));
#559=DIRECTION('',(-1.,5.19039658979021E-17,0.));
#560=DIRECTION('center_axis',(0.,0.,-1.));
#561=DIRECTION('ref_axis',(-0.956010227746312,0.293333333333333,0.));
#562=DIRECTION('',(1.,1.03807931795804E-16,0.));
#563=DIRECTION('center_axis',(0.,0.,-1.));
#564=DIRECTION('ref_axis',(-0.993807989999907,-0.111111111111111,0.));
#565=DIRECTION('center_axis',(0.,0.,1.));
#566=DIRECTION('ref_axis',(-0.993807989999907,-0.111111111111111,0.));
#567=DIRECTION('',(0.,0.,1.));
#568=DIRECTION('center_axis',(0.,0.,1.));
#569=DIRECTION('ref_axis',(-0.993807989999907,-0.111111111111111,0.));
#570=DIRECTION('center_axis',(-1.03807931795804E-16,1.,0.));
#571=DIRECTION('ref_axis',(-1.,-1.03807931795804E-16,0.));
#572=DIRECTION('',(0.,0.,1.));
#573=DIRECTION('',(-1.,-1.03807931795804E-16,0.));
#574=DIRECTION('center_axis',(0.,0.,1.));
#575=DIRECTION('ref_axis',(-0.956010227746312,0.293333333333333,0.));
#576=DIRECTION('',(0.,0.,1.));
#577=DIRECTION('center_axis',(0.,0.,1.));
#578=DIRECTION('ref_axis',(-0.956010227746312,0.293333333333333,0.));
#579=DIRECTION('center_axis',(-5.19039658979021E-17,-1.,0.));
#580=DIRECTION('ref_axis',(1.,-5.19039658979021E-17,0.));
#581=DIRECTION('',(0.,0.,1.));
#582=DIRECTION('',(1.,-5.19039658979021E-17,0.));
#583=DIRECTION('center_axis',(0.,0.,1.));
#584=DIRECTION('ref_axis',(-0.111111111111111,0.993807989999907,0.));
#585=DIRECTION('',(0.,0.,1.));
#586=DIRECTION('center_axis',(0.,0.,1.));
#587=DIRECTION('ref_axis',(-0.111111111111111,0.993807989999907,0.));
#588=DIRECTION('center_axis',(0.,0.,1.));
#589=DIRECTION('ref_axis',(-1.,0.,0.));
#590=DIRECTION('',(0.,0.,-1.));
#591=DIRECTION('',(0.,0.,-1.));
#592=DIRECTION('center_axis',(0.,0.,-1.));
#593=DIRECTION('ref_axis',(-1.,0.,0.));
#594=DIRECTION('center_axis',(1.,-2.59519829489511E-17,0.));
#595=DIRECTION('ref_axis',(2.59519829489511E-17,1.,0.));
#596=DIRECTION('',(0.,0.,1.));
#597=DIRECTION('',(-2.59519829489511E-17,-1.,0.));
#598=DIRECTION('center_axis',(0.,0.,1.));
#599=DIRECTION('ref_axis',(0.293333333333333,0.956010227746312,0.));
#600=DIRECTION('',(0.,0.,1.));
#601=DIRECTION('center_axis',(0.,0.,1.));
#602=DIRECTION('ref_axis',(0.293333333333333,0.956010227746312,0.));
#603=DIRECTION('center_axis',(-1.,0.,0.));
#604=DIRECTION('ref_axis',(0.,-1.,0.));
#605=DIRECTION('',(0.,0.,1.));
#606=DIRECTION('',(0.,1.,0.));
#607=DIRECTION('center_axis',(0.,0.,1.));
#608=DIRECTION('ref_axis',(0.993807989999907,0.111111111111111,0.));
#609=DIRECTION('center_axis',(0.,0.,1.));
#610=DIRECTION('ref_axis',(0.993807989999907,0.111111111111111,0.));
#611=DIRECTION('center_axis',(0.,0.,1.));
#612=DIRECTION('ref_axis',(-0.293333333333333,-0.956010227746312,0.));
#613=DIRECTION('',(0.,0.,-1.));
#614=DIRECTION('center_axis',(0.,0.,-1.));
#615=DIRECTION('ref_axis',(-1.,0.,6.93889390390723E-17));
#616=DIRECTION('center_axis',(0.,0.,1.));
#617=DIRECTION('ref_axis',(-0.293333333333333,-0.956010227746312,0.));
#618=DIRECTION('center_axis',(0.,0.,-1.));
#619=DIRECTION('ref_axis',(-1.,0.,6.93889390390723E-17));
#620=DIRECTION('center_axis',(0.,0.,1.));
#621=DIRECTION('ref_axis',(-1.,0.,0.));
#622=DIRECTION('center_axis',(0.,0.,1.));
#623=DIRECTION('ref_axis',(-1.,0.,0.));
#624=CARTESIAN_POINT('',(0.,0.,0.));
#625=CARTESIAN_POINT('Origin',(1.95943487863577E-15,0.,32.));
#626=CARTESIAN_POINT('',(-1.10000000000001,-8.93252497415978,32.));
#627=CARTESIAN_POINT('',(8.93252497415978,1.1,32.));
#628=CARTESIAN_POINT('Origin',(1.95943487863577E-15,0.,32.));
#629=CARTESIAN_POINT('',(8.93252483903628,1.1,31.));
#630=CARTESIAN_POINT('',(8.93252497415978,1.1,32.));
#631=CARTESIAN_POINT('',(-1.1,-8.93252483903628,31.));
#632=CARTESIAN_POINT('Origin',(1.95943487863577E-15,0.,31.));
#633=CARTESIAN_POINT('',(-1.1,-8.93252497415978,32.));
#634=CARTESIAN_POINT('Origin',(3.58503835404867,1.1,21.));
#635=CARTESIAN_POINT('',(3.58503835404867,1.1,32.));
#636=CARTESIAN_POINT('',(5.47243090408641,1.1,32.));
#637=CARTESIAN_POINT('',(3.58503835404867,1.1,21.));
#638=CARTESIAN_POINT('',(3.58503835404867,1.1,21.));
#639=CARTESIAN_POINT('',(8.93252483903628,1.1,21.));
#640=CARTESIAN_POINT('',(3.58503835404867,1.1,21.));
#641=CARTESIAN_POINT('',(8.93252483903628,1.1,21.));
#642=CARTESIAN_POINT('Origin',(-1.1,-8.93252483903628,21.));
#643=CARTESIAN_POINT('',(-1.1,-8.93252483903628,21.));
#644=CARTESIAN_POINT('',(-1.1,-8.93252483903628,21.));
#645=CARTESIAN_POINT('',(-1.1,-3.58503835404867,21.));
#646=CARTESIAN_POINT('',(-1.1,-3.58503835404867,21.));
#647=CARTESIAN_POINT('',(-1.1,-3.58503835404867,32.));
#648=CARTESIAN_POINT('',(-1.1,-3.58503835404867,21.));
#649=CARTESIAN_POINT('',(-1.0999999999999,-1.79251917702433,32.));
#650=CARTESIAN_POINT('Origin',(0.574533332339233,-0.482090707264904,33.9205684661865));
#651=CARTESIAN_POINT('',(-0.333937296000041,-1.56476384235455,34.4230622472426));
#652=CARTESIAN_POINT('',(-0.333937296000041,-1.56476384235455,33.4180746851305));
#653=CARTESIAN_POINT('',(-0.333937296000041,-1.56476384235455,21.));
#654=CARTESIAN_POINT('',(-0.389648082190577,-1.63115737194337,33.9205684661865));
#655=CARTESIAN_POINT('Origin',(0.574533332339233,-0.482090707264904,33.9205684661865));
#656=CARTESIAN_POINT('Origin',(0.574533332339233,-0.482090707264904,33.9205684661865));
#657=CARTESIAN_POINT('Origin',(1.7235999970177,-1.44627212179471,33.9205684661865));
#658=CARTESIAN_POINT('',(2.87266666169617,-2.41045353632452,35.4205684661865));
#659=CARTESIAN_POINT('',(2.87266666169617,-2.41045353632452,32.4205684661865));
#660=CARTESIAN_POINT('Ctrl Pts',(2.87266666169617,-2.41045353632452,35.4205684661865));
#661=CARTESIAN_POINT('Ctrl Pts',(2.99517287511212,-2.26445631637095,35.4205684661865));
#662=CARTESIAN_POINT('Ctrl Pts',(3.11274180027992,-2.09957221810031,35.3820473919279));
#663=CARTESIAN_POINT('Ctrl Pts',(3.3059138531639,-1.77997151828334,35.228285620733));
#664=CARTESIAN_POINT('Ctrl Pts',(3.382144754354,-1.62558145573224,35.113155708482));
#665=CARTESIAN_POINT('Ctrl Pts',(3.49219950699841,-1.37331684127803,34.8491679709969));
#666=CARTESIAN_POINT('Ctrl Pts',(3.53367660913677,-1.25796109650445,34.6819486095936));
#667=CARTESIAN_POINT('Ctrl Pts',(3.58568957807178,-1.10098466218521,34.3131489147704));
#668=CARTESIAN_POINT('Ctrl Pts',(3.59702389924957,-1.06015049319775,34.1113472988129));
#669=CARTESIAN_POINT('Ctrl Pts',(3.59702389924957,-1.06015049319775,33.7297896335602));
#670=CARTESIAN_POINT('Ctrl Pts',(3.58568957807178,-1.10098466218521,33.5279880176026));
#671=CARTESIAN_POINT('Ctrl Pts',(3.53367660913677,-1.25796109650445,33.1591883227794));
#672=CARTESIAN_POINT('Ctrl Pts',(3.49219950699841,-1.37331684127803,32.9919689613762));
#673=CARTESIAN_POINT('Ctrl Pts',(3.382144754354,-1.62558145573224,32.727981223891));
#674=CARTESIAN_POINT('Ctrl Pts',(3.3059138531639,-1.77997151828335,32.61285131164));
#675=CARTESIAN_POINT('Ctrl Pts',(3.11274180027992,-2.09957221810031,32.4590895404451));
#676=CARTESIAN_POINT('Ctrl Pts',(2.99517287511212,-2.26445631637095,32.4205684661865));
#677=CARTESIAN_POINT('Ctrl Pts',(2.87266666169617,-2.41045353632452,32.4205684661865));
#678=CARTESIAN_POINT('',(1.66866107018995,-3.35828382255469,33.9205684661865));
#679=CARTESIAN_POINT('Ctrl Pts',(1.66866107018995,-3.35828382255469,33.9205684661865));
#680=CARTESIAN_POINT('Ctrl Pts',(1.66866107018995,-3.35828382255469,34.1113472988129));
#681=CARTESIAN_POINT('Ctrl Pts',(1.70690669217899,-3.34003091615246,34.3131489147704));
#682=CARTESIAN_POINT('Ctrl Pts',(1.85246634446618,-3.26154946933189,34.6819486095936));
#683=CARTESIAN_POINT('Ctrl Pts',(1.95886715307247,-3.20067118271022,34.8491679709969));
#684=CARTESIAN_POINT('Ctrl Pts',(2.18818849395732,-3.04848311846033,35.113155708482));
#685=CARTESIAN_POINT('Ctrl Pts',(2.32699566747212,-2.94660078293733,35.228285620733));
#686=CARTESIAN_POINT('Ctrl Pts',(2.60819693956051,-2.70086536848761,35.3820473919279));
#687=CARTESIAN_POINT('Ctrl Pts',(2.75016044828022,-2.55645075627809,35.4205684661865));
#688=CARTESIAN_POINT('Ctrl Pts',(2.87266666169617,-2.41045353632452,35.4205684661865));
#689=CARTESIAN_POINT('',(0.759418582487891,-2.59533878647318,33.9205684661865));
#690=CARTESIAN_POINT('',(1.6,-2.40976483960577E-11,35.0124794824739));
#691=CARTESIAN_POINT('Ctrl Pts',(1.6,-4.81950417074994E-11,35.0124794824739));
#692=CARTESIAN_POINT('Ctrl Pts',(1.59999999999539,-0.153052336487574,35.1229112852799));
#693=CARTESIAN_POINT('Ctrl Pts',(1.57673621558062,-0.326485812483761,35.2246564782782));
#694=CARTESIAN_POINT('Ctrl Pts',(1.48963309870415,-0.592258481984618,35.3369591193551));
#695=CARTESIAN_POINT('Ctrl Pts',(1.44914869842371,-0.68590243180035,35.3682083199541));
#696=CARTESIAN_POINT('Ctrl Pts',(1.34992771095536,-0.864959033298081,35.410011447317));
#697=CARTESIAN_POINT('Ctrl Pts',(1.29119427371188,-0.950372708543455,35.4205684661865));
#698=CARTESIAN_POINT('Ctrl Pts',(1.16014794426885,-1.10654764245347,35.4205684661865));
#699=CARTESIAN_POINT('Ctrl Pts',(1.08623084901939,-1.1792207158661,35.410011447317));
#700=CARTESIAN_POINT('Ctrl Pts',(0.927124063296595,-1.30802716613578,35.3682083199541));
#701=CARTESIAN_POINT('Ctrl Pts',(0.841932817828013,-1.36415761864303,35.3369591193551));
#702=CARTESIAN_POINT('Ctrl Pts',(0.580376431030697,-1.50408453866224,35.2178499583476));
#703=CARTESIAN_POINT('Ctrl Pts',(0.397293156802731,-1.55845828961089,35.1034156157631));
#704=CARTESIAN_POINT('Ctrl Pts',(0.0557172853551267,-1.60937072252471,34.8448536915094));
#705=CARTESIAN_POINT('Ctrl Pts',(-0.124781976080606,-1.60196010734291,34.6804852642635));
#706=CARTESIAN_POINT('Ctrl Pts',(-0.292531712543643,-1.57318995227321,34.4772714976065));
#707=CARTESIAN_POINT('Ctrl Pts',(-0.313729388239136,-1.56907642543759,34.4503047193491));
#708=CARTESIAN_POINT('Ctrl Pts',(-0.333937296000042,-1.56476384235455,34.4230622472426));
#709=CARTESIAN_POINT('',(1.48300396067851,0.600582427824744,34.4230622472426));
#710=CARTESIAN_POINT('Ctrl Pts',(1.48300396067851,0.600582427824746,34.4230622472426));
#711=CARTESIAN_POINT('Ctrl Pts',(1.49076009229134,0.581430395783058,34.4503047193491));
#712=CARTESIAN_POINT('Ctrl Pts',(1.49849206316657,0.561269066851093,34.4772714976065));
#713=CARTESIAN_POINT('Ctrl Pts',(1.55595457097549,0.401063710815592,34.6804852642635));
#714=CARTESIAN_POINT('Ctrl Pts',(1.59459597007966,0.224593478562407,34.8448536915094));
#715=CARTESIAN_POINT('Ctrl Pts',(1.59980689035464,0.0285238294785699,34.9917022416665));
#716=CARTESIAN_POINT('Ctrl Pts',(1.60000000000043,0.0143493070980215,35.0021260315299));
#717=CARTESIAN_POINT('Ctrl Pts',(1.6,-4.81949764720117E-11,35.0124794824739));
#718=CARTESIAN_POINT('',(1.48300396067851,0.600582427824744,33.4180746851305));
#719=CARTESIAN_POINT('Origin',(0.574533332339233,-0.482090707264904,33.9205684661865));
#720=CARTESIAN_POINT('',(1.6,-2.40977871739357E-11,32.8286574498992));
#721=CARTESIAN_POINT('Ctrl Pts',(1.6,-4.81968872682374E-11,32.8286574498992));
#722=CARTESIAN_POINT('Ctrl Pts',(1.60000000000043,0.0143493070980211,32.8390109008431));
#723=CARTESIAN_POINT('Ctrl Pts',(1.59980689035464,0.0285238294785698,32.8494346907065));
#724=CARTESIAN_POINT('Ctrl Pts',(1.59459597007966,0.224593478562408,32.9962832408637));
#725=CARTESIAN_POINT('Ctrl Pts',(1.55595457097549,0.401063710815591,33.1606516681095));
#726=CARTESIAN_POINT('Ctrl Pts',(1.49849206316657,0.56126906685109,33.3638654347665));
#727=CARTESIAN_POINT('Ctrl Pts',(1.49076009229134,0.581430395783058,33.390832213024));
#728=CARTESIAN_POINT('Ctrl Pts',(1.48300396067851,0.600582427824744,33.4180746851305));
#729=CARTESIAN_POINT('Ctrl Pts',(-0.33393729600004,-1.56476384235455,33.4180746851305));
#730=CARTESIAN_POINT('Ctrl Pts',(-0.313729388239138,-1.56907642543759,33.390832213024));
#731=CARTESIAN_POINT('Ctrl Pts',(-0.292531712543646,-1.57318995227321,33.3638654347665));
#732=CARTESIAN_POINT('Ctrl Pts',(-0.124781976080614,-1.60196010734291,33.1606516681095));
#733=CARTESIAN_POINT('Ctrl Pts',(0.0557172853551254,-1.60937072252471,32.9962832408637));
#734=CARTESIAN_POINT('Ctrl Pts',(0.397293156802729,-1.55845828961089,32.73772131661));
#735=CARTESIAN_POINT('Ctrl Pts',(0.580376431030696,-1.50408453866224,32.6232869740255));
#736=CARTESIAN_POINT('Ctrl Pts',(0.841932817828012,-1.36415761864304,32.504177813018));
#737=CARTESIAN_POINT('Ctrl Pts',(0.927124063296594,-1.30802716613578,32.472928612419));
#738=CARTESIAN_POINT('Ctrl Pts',(1.08623084901939,-1.1792207158661,32.4311254850561));
#739=CARTESIAN_POINT('Ctrl Pts',(1.16014794426885,-1.10654764245347,32.4205684661865));
#740=CARTESIAN_POINT('Ctrl Pts',(1.29119427371188,-0.950372708543455,32.4205684661865));
#741=CARTESIAN_POINT('Ctrl Pts',(1.34992771095536,-0.864959033298082,32.4311254850561));
#742=CARTESIAN_POINT('Ctrl Pts',(1.44914869842371,-0.685902431800349,32.472928612419));
#743=CARTESIAN_POINT('Ctrl Pts',(1.48963309870415,-0.592258481984618,32.504177813018));
#744=CARTESIAN_POINT('Ctrl Pts',(1.57673621558062,-0.326485812483761,32.6164804540948));
#745=CARTESIAN_POINT('Ctrl Pts',(1.59999999999539,-0.153052336487576,32.7182256470931));
#746=CARTESIAN_POINT('Ctrl Pts',(1.6,-4.81968872682374E-11,32.8286574498992));
#747=CARTESIAN_POINT('Ctrl Pts',(2.87266666169617,-2.41045353632452,32.4205684661865));
#748=CARTESIAN_POINT('Ctrl Pts',(2.75016044828022,-2.55645075627809,32.4205684661865));
#749=CARTESIAN_POINT('Ctrl Pts',(2.60819693956051,-2.70086536848761,32.4590895404451));
#750=CARTESIAN_POINT('Ctrl Pts',(2.32699566747212,-2.94660078293733,32.61285131164));
#751=CARTESIAN_POINT('Ctrl Pts',(2.18818849395732,-3.04848311846033,32.727981223891));
#752=CARTESIAN_POINT('Ctrl Pts',(1.95886715307247,-3.20067118271022,32.9919689613762));
#753=CARTESIAN_POINT('Ctrl Pts',(1.85246634446618,-3.26154946933189,33.1591883227794));
#754=CARTESIAN_POINT('Ctrl Pts',(1.70690669217899,-3.34003091615246,33.5279880176026));
#755=CARTESIAN_POINT('Ctrl Pts',(1.66866107018995,-3.35828382255469,33.7297896335602));
#756=CARTESIAN_POINT('Ctrl Pts',(1.66866107018995,-3.35828382255469,33.9205684661865));
#757=CARTESIAN_POINT('Origin',(0.574533332339233,-0.482090707264904,33.9205684661865));
#758=CARTESIAN_POINT('',(1.48300396067851,0.600582427824744,21.));
#759=CARTESIAN_POINT('Origin',(2.23699063479205E-15,0.,36.));
#760=CARTESIAN_POINT('',(1.1,3.58503835404867,36.));
#761=CARTESIAN_POINT('Origin',(2.23699063479205E-15,0.,36.));
#762=CARTESIAN_POINT('',(1.6,1.95943487863577E-16,36.));
#763=CARTESIAN_POINT('Origin',(2.23699063479205E-15,0.,36.));
#764=CARTESIAN_POINT('Origin',(0.,0.,32.));
#765=CARTESIAN_POINT('',(11.,-1.34711147906209E-15,31.));
#766=CARTESIAN_POINT('Origin',(0.,0.,31.));
#767=CARTESIAN_POINT('',(11.,-1.34711147906209E-15,32.));
#768=CARTESIAN_POINT('',(11.,-1.34711147906209E-15,32.));
#769=CARTESIAN_POINT('Origin',(0.,0.,32.));
#770=CARTESIAN_POINT('Origin',(0.,0.,31.));
#771=CARTESIAN_POINT('',(1.1,8.93252483903628,31.));
#772=CARTESIAN_POINT('Origin',(0.,0.,31.));
#773=CARTESIAN_POINT('',(1.1,3.58503835404867,31.));
#774=CARTESIAN_POINT('',(1.1,4.46626241951814,31.));
#775=CARTESIAN_POINT('',(-1.1,3.58503835404867,31.));
#776=CARTESIAN_POINT('Origin',(0.,0.,31.));
#777=CARTESIAN_POINT('',(-1.1,8.93252483903628,31.));
#778=CARTESIAN_POINT('',(-1.1,1.79251917702433,31.));
#779=CARTESIAN_POINT('',(-8.93252483903628,1.1,31.));
#780=CARTESIAN_POINT('Origin',(0.,0.,31.));
#781=CARTESIAN_POINT('',(-3.58503835404867,1.1,31.));
#782=CARTESIAN_POINT('',(-4.46626241951814,1.1,31.));
#783=CARTESIAN_POINT('',(-3.58503835404867,-1.1,31.));
#784=CARTESIAN_POINT('Origin',(0.,0.,31.));
#785=CARTESIAN_POINT('',(-8.93252483903628,-1.1,31.));
#786=CARTESIAN_POINT('',(-1.79251917702434,-1.1,31.));
#787=CARTESIAN_POINT('Origin',(0.,0.,31.));
#788=CARTESIAN_POINT('Origin',(0.,0.,21.));
#789=CARTESIAN_POINT('',(-8.93252483903628,-1.1,21.));
#790=CARTESIAN_POINT('',(-8.93252483903628,-1.1,21.));
#791=CARTESIAN_POINT('Origin',(0.,0.,21.));
#792=CARTESIAN_POINT('Origin',(-3.58503835404867,-1.1,21.));
#793=CARTESIAN_POINT('',(-3.58503835404867,-1.1,21.));
#794=CARTESIAN_POINT('',(-3.58503835404867,-1.1,21.));
#795=CARTESIAN_POINT('',(-3.58503835404867,-1.1,21.));
#796=CARTESIAN_POINT('Origin',(0.,0.,21.));
#797=CARTESIAN_POINT('',(-3.58503835404867,1.1,21.));
#798=CARTESIAN_POINT('',(-3.58503835404867,1.1,21.));
#799=CARTESIAN_POINT('Origin',(0.,0.,21.));
#800=CARTESIAN_POINT('Origin',(-8.93252483903628,1.1,21.));
#801=CARTESIAN_POINT('',(-8.93252483903628,1.1,21.));
#802=CARTESIAN_POINT('',(-8.93252483903628,1.1,21.));
#803=CARTESIAN_POINT('',(-8.93252483903628,1.1,21.));
#804=CARTESIAN_POINT('Origin',(0.,0.,21.));
#805=CARTESIAN_POINT('',(-1.1,8.93252483903628,21.));
#806=CARTESIAN_POINT('',(-1.1,8.93252483903628,21.));
#807=CARTESIAN_POINT('Origin',(0.,0.,21.));
#808=CARTESIAN_POINT('Origin',(0.,0.,21.));
#809=CARTESIAN_POINT('',(1.6,1.95943487863577E-16,21.));
#810=CARTESIAN_POINT('',(1.6,1.95943487863577E-16,21.));
#811=CARTESIAN_POINT('',(1.6,1.95943487863577E-16,21.));
#812=CARTESIAN_POINT('Origin',(0.,0.,21.));
#813=CARTESIAN_POINT('Origin',(-1.1,3.58503835404867,21.));
#814=CARTESIAN_POINT('',(-1.1,3.58503835404867,21.));
#815=CARTESIAN_POINT('',(-1.1,3.58503835404867,21.));
#816=CARTESIAN_POINT('',(-1.1,8.93252483903628,21.));
#817=CARTESIAN_POINT('Origin',(0.,0.,21.));
#818=CARTESIAN_POINT('',(1.1,3.58503835404867,21.));
#819=CARTESIAN_POINT('',(1.1,3.58503835404867,21.));
#820=CARTESIAN_POINT('Origin',(0.,0.,21.));
#821=CARTESIAN_POINT('Origin',(1.1,8.93252483903628,21.));
#822=CARTESIAN_POINT('',(1.1,8.93252483903628,21.));
#823=CARTESIAN_POINT('',(1.1,8.93252483903628,21.));
#824=CARTESIAN_POINT('',(1.1,3.58503835404867,21.));
#825=CARTESIAN_POINT('Origin',(0.,0.,21.));
#826=CARTESIAN_POINT('Origin',(0.,0.,21.));
#827=CARTESIAN_POINT('Origin',(0.,0.,21.));
#828=CARTESIAN_POINT('',(1.1,3.58503835404867,32.));
#829=CARTESIAN_POINT('',(1.1,3.58503835404867,21.));
#830=CARTESIAN_POINT('Origin',(1.95943487863577E-15,0.,32.));
#831=CARTESIAN_POINT('Origin',(0.,0.,21.));
#832=CARTESIAN_POINT('Origin',(1.95943487863577E-15,0.,32.));
#833=CARTESIAN_POINT('Origin',(1.11022302462516E-15,1.11022302462516E-15,
32.));
#834=CARTESIAN_POINT('Origin',(1.11022302462516E-15,1.11022302462516E-15,
21.));
#835=UNCERTAINTY_MEASURE_WITH_UNIT(LENGTH_MEASURE(0.01),#839,
'DISTANCE_ACCURACY_VALUE',
'Maximum model space distance between geometric entities at asserted c
onnectivities');
#836=UNCERTAINTY_MEASURE_WITH_UNIT(LENGTH_MEASURE(0.01),#839,
'DISTANCE_ACCURACY_VALUE',
'Maximum model space distance between geometric entities at asserted c
onnectivities');
#837=(
GEOMETRIC_REPRESENTATION_CONTEXT(3)
GLOBAL_UNCERTAINTY_ASSIGNED_CONTEXT((#835))
GLOBAL_UNIT_ASSIGNED_CONTEXT((#839,#841,#842))
REPRESENTATION_CONTEXT('','3D')
);
#838=(
GEOMETRIC_REPRESENTATION_CONTEXT(3)
GLOBAL_UNCERTAINTY_ASSIGNED_CONTEXT((#836))
GLOBAL_UNIT_ASSIGNED_CONTEXT((#839,#841,#842))
REPRESENTATION_CONTEXT('','3D')
);
#839=(
LENGTH_UNIT()
NAMED_UNIT(*)
SI_UNIT(.MILLI.,.METRE.)
);
#840=(
LENGTH_UNIT()
NAMED_UNIT(*)
SI_UNIT($,.METRE.)
);
#841=(
NAMED_UNIT(*)
PLANE_ANGLE_UNIT()
SI_UNIT($,.RADIAN.)
);
#842=(
NAMED_UNIT(*)
SI_UNIT($,.STERADIAN.)
SOLID_ANGLE_UNIT()
);
#843=SHAPE_DEFINITION_REPRESENTATION(#844,#845);
#844=PRODUCT_DEFINITION_SHAPE('',$,#847);
#845=SHAPE_REPRESENTATION('',(#453),#837);
#846=PRODUCT_DEFINITION_CONTEXT('part definition',#851,'design');
#847=PRODUCT_DEFINITION('\X2\65CB8F6C7535673A7AEF\X0\',
'\X2\65CB8F6C7535673A7AEF\X0\',#848,#846);
#848=PRODUCT_DEFINITION_FORMATION('',$,#853);
#849=PRODUCT_RELATED_PRODUCT_CATEGORY('\X2\65CB8F6C7535673A7AEF\X0\',
'\X2\65CB8F6C7535673A7AEF\X0\',(#853));
#850=APPLICATION_PROTOCOL_DEFINITION('international standard',
'automotive_design',2009,#851);
#851=APPLICATION_CONTEXT(
'Core Data for Automotive Mechanical Design Process');
#852=PRODUCT_CONTEXT('part definition',#851,'mechanical');
#853=PRODUCT('\X2\65CB8F6C7535673A7AEF\X0\','\X2\65CB8F6C7535673A7AEF\X0\',
$,(#852));
#854=PRESENTATION_STYLE_ASSIGNMENT((#856));
#855=PRESENTATION_STYLE_ASSIGNMENT((#857));
#856=SURFACE_STYLE_USAGE(.BOTH.,#858);
#857=SURFACE_STYLE_USAGE(.BOTH.,#859);
#858=SURFACE_SIDE_STYLE('',(#860));
#859=SURFACE_SIDE_STYLE('',(#861));
#860=SURFACE_STYLE_FILL_AREA(#862);
#861=SURFACE_STYLE_FILL_AREA(#863);
#862=FILL_AREA_STYLE('\X2\94A2\X0\ - \X2\7F0E5149\X0\',(#864));
#863=FILL_AREA_STYLE(
'PA 11 - \X2\5C3C9F99\X0\ - HP 11-30 (\X2\5E266709\X0\ EOS P 396 3D \X2\62535370673A\X0\)',
(#865));
#864=FILL_AREA_STYLE_COLOUR('\X2\94A2\X0\ - \X2\7F0E5149\X0\',#866);
#865=FILL_AREA_STYLE_COLOUR(
'PA 11 - \X2\5C3C9F99\X0\ - HP 11-30 (\X2\5E266709\X0\ EOS P 396 3D \X2\62535370673A\X0\)',
#867);
#866=COLOUR_RGB('\X2\94A2\X0\ - \X2\7F0E5149\X0\',0.627450980392157,0.627450980392157,
0.627450980392157);
#867=COLOUR_RGB(
'PA 11 - \X2\5C3C9F99\X0\ - HP 11-30 (\X2\5E266709\X0\ EOS P 396 3D \X2\62535370673A\X0\)',
0.247058823529412,0.247058823529412,0.247058823529412);
ENDSEC;
END-ISO-10303-21;
