ISO-10303-21;
HEADER;
/* Generated by software containing ST-Developer
 * from STEP Tools, Inc. (www.steptools.com) 
 */

FILE_DESCRIPTION(
/* description */ (''),
/* implementation_level */ '2;1');

FILE_NAME(
/* name */ '',
/* time_stamp */ '2026-05-10T14:19:14+08:00',
/* author */ (''),
/* organization */ (''),
/* preprocessor_version */ 'ST-DEVELOPER v20.1',
/* originating_system */ 'Autodesk Translation Framework v15.8.0.0',
/* authorisation */ '');

FILE_SCHEMA (('AUTOMOTIVE_DESIGN { 1 0 10303 214 3 1 1 }'));
ENDSEC;

DATA;
#10=MECHANICAL_DESIGN_GEOMETRIC_PRESENTATION_REPRESENTATION('',(#13),#839);
#11=SHAPE_REPRESENTATION_RELATIONSHIP('SRR','None',#845,#12);
#12=ADVANCED_BREP_SHAPE_REPRESENTATION('',(#14),#838);
#13=STYLED_ITEM('',(#854),#14);
#14=MANIFOLD_SOLID_BREP('\X2\5B9E4F53\X0\2',#491);
#15=FACE_BOUND('',#68,.T.);
#16=FACE_BOUND('',#71,.T.);
#17=FACE_BOUND('',#81,.T.);
#18=FACE_BOUND('',#82,.T.);
#19=FACE_BOUND('',#96,.T.);
#20=FACE_BOUND('',#97,.T.);
#21=FACE_BOUND('',#98,.T.);
#22=FACE_BOUND('',#99,.T.);
#23=FACE_BOUND('',#101,.T.);
#24=FACE_BOUND('',#102,.T.);
#25=FACE_BOUND('',#103,.T.);
#26=PLANE('',#496);
#27=PLANE('',#501);
#28=PLANE('',#503);
#29=PLANE('',#507);
#30=PLANE('',#511);
#31=PLANE('',#515);
#32=PLANE('',#519);
#33=PLANE('',#530);
#34=PLANE('',#534);
#35=PLANE('',#538);
#36=PLANE('',#542);
#37=PLANE('',#546);
#38=PLANE('',#547);
#39=FACE_OUTER_BOUND('',#66,.T.);
#40=FACE_OUTER_BOUND('',#67,.T.);
#41=FACE_OUTER_BOUND('',#69,.T.);
#42=FACE_OUTER_BOUND('',#70,.T.);
#43=FACE_OUTER_BOUND('',#72,.T.);
#44=FACE_OUTER_BOUND('',#73,.T.);
#45=FACE_OUTER_BOUND('',#74,.T.);
#46=FACE_OUTER_BOUND('',#75,.T.);
#47=FACE_OUTER_BOUND('',#76,.T.);
#48=FACE_OUTER_BOUND('',#77,.T.);
#49=FACE_OUTER_BOUND('',#78,.T.);
#50=FACE_OUTER_BOUND('',#79,.T.);
#51=FACE_OUTER_BOUND('',#80,.T.);
#52=FACE_OUTER_BOUND('',#83,.T.);
#53=FACE_OUTER_BOUND('',#84,.T.);
#54=FACE_OUTER_BOUND('',#85,.T.);
#55=FACE_OUTER_BOUND('',#86,.T.);
#56=FACE_OUTER_BOUND('',#87,.T.);
#57=FACE_OUTER_BOUND('',#88,.T.);
#58=FACE_OUTER_BOUND('',#89,.T.);
#59=FACE_OUTER_BOUND('',#90,.T.);
#60=FACE_OUTER_BOUND('',#91,.T.);
#61=FACE_OUTER_BOUND('',#92,.T.);
#62=FACE_OUTER_BOUND('',#93,.T.);
#63=FACE_OUTER_BOUND('',#94,.T.);
#64=FACE_OUTER_BOUND('',#95,.T.);
#65=FACE_OUTER_BOUND('',#100,.T.);
#66=EDGE_LOOP('',(#318,#319,#320,#321));
#67=EDGE_LOOP('',(#322));
#68=EDGE_LOOP('',(#323));
#69=EDGE_LOOP('',(#324,#325,#326,#327));
#70=EDGE_LOOP('',(#328));
#71=EDGE_LOOP('',(#329));
#72=EDGE_LOOP('',(#330,#331,#332,#333));
#73=EDGE_LOOP('',(#334,#335,#336,#337));
#74=EDGE_LOOP('',(#338,#339,#340,#341));
#75=EDGE_LOOP('',(#342,#343,#344,#345));
#76=EDGE_LOOP('',(#346,#347,#348,#349));
#77=EDGE_LOOP('',(#350,#351,#352,#353));
#78=EDGE_LOOP('',(#354,#355,#356,#357));
#79=EDGE_LOOP('',(#358,#359,#360,#361));
#80=EDGE_LOOP('',(#362,#363,#364,#365,#366,#367,#368,#369));
#81=EDGE_LOOP('',(#370));
#82=EDGE_LOOP('',(#371));
#83=EDGE_LOOP('',(#372,#373,#374,#375));
#84=EDGE_LOOP('',(#376,#377,#378,#379));
#85=EDGE_LOOP('',(#380,#381,#382,#383));
#86=EDGE_LOOP('',(#384,#385,#386,#387));
#87=EDGE_LOOP('',(#388,#389,#390,#391));
#88=EDGE_LOOP('',(#392,#393,#394,#395));
#89=EDGE_LOOP('',(#396,#397,#398,#399));
#90=EDGE_LOOP('',(#400,#401,#402,#403));
#91=EDGE_LOOP('',(#404,#405,#406,#407));
#92=EDGE_LOOP('',(#408,#409,#410,#411));
#93=EDGE_LOOP('',(#412,#413,#414,#415));
#94=EDGE_LOOP('',(#416,#417,#418,#419));
#95=EDGE_LOOP('',(#420,#421,#422,#423,#424,#425,#426,#427));
#96=EDGE_LOOP('',(#428));
#97=EDGE_LOOP('',(#429));
#98=EDGE_LOOP('',(#430));
#99=EDGE_LOOP('',(#431));
#100=EDGE_LOOP('',(#432,#433,#434,#435,#436,#437,#438,#439));
#101=EDGE_LOOP('',(#440,#441,#442,#443,#444,#445,#446,#447));
#102=EDGE_LOOP('',(#448));
#103=EDGE_LOOP('',(#449));
#104=LINE('',#703,#142);
#105=LINE('',#712,#143);
#106=LINE('',#720,#144);
#107=LINE('',#722,#145);
#108=LINE('',#724,#146);
#109=LINE('',#725,#147);
#110=LINE('',#731,#148);
#111=LINE('',#734,#149);
#112=LINE('',#736,#150);
#113=LINE('',#737,#151);
#114=LINE('',#743,#152);
#115=LINE('',#746,#153);
#116=LINE('',#748,#154);
#117=LINE('',#749,#155);
#118=LINE('',#755,#156);
#119=LINE('',#758,#157);
#120=LINE('',#760,#158);
#121=LINE('',#761,#159);
#122=LINE('',#774,#160);
#123=LINE('',#777,#161);
#124=LINE('',#779,#162);
#125=LINE('',#784,#163);
#126=LINE('',#789,#164);
#127=LINE('',#791,#165);
#128=LINE('',#793,#166);
#129=LINE('',#794,#167);
#130=LINE('',#800,#168);
#131=LINE('',#803,#169);
#132=LINE('',#805,#170);
#133=LINE('',#806,#171);
#134=LINE('',#812,#172);
#135=LINE('',#815,#173);
#136=LINE('',#817,#174);
#137=LINE('',#818,#175);
#138=LINE('',#824,#176);
#139=LINE('',#827,#177);
#140=LINE('',#829,#178);
#141=LINE('',#830,#179);
#142=VECTOR('',#554,2.25);
#143=VECTOR('',#565,2.25);
#144=VECTOR('',#574,10.);
#145=VECTOR('',#575,10.);
#146=VECTOR('',#576,10.);
#147=VECTOR('',#577,10.);
#148=VECTOR('',#584,10.);
#149=VECTOR('',#587,10.);
#150=VECTOR('',#588,10.);
#151=VECTOR('',#589,10.);
#152=VECTOR('',#596,10.);
#153=VECTOR('',#599,10.);
#154=VECTOR('',#600,10.);
#155=VECTOR('',#601,10.);
#156=VECTOR('',#608,10.);
#157=VECTOR('',#611,10.);
#158=VECTOR('',#612,10.);
#159=VECTOR('',#613,10.);
#160=VECTOR('',#630,1.5);
#161=VECTOR('',#635,0.800000000000001);
#162=VECTOR('',#638,0.800000000000001);
#163=VECTOR('',#643,1.5);
#164=VECTOR('',#648,10.);
#165=VECTOR('',#649,10.);
#166=VECTOR('',#650,10.);
#167=VECTOR('',#651,10.);
#168=VECTOR('',#658,10.);
#169=VECTOR('',#661,10.);
#170=VECTOR('',#662,10.);
#171=VECTOR('',#663,10.);
#172=VECTOR('',#670,10.);
#173=VECTOR('',#673,10.);
#174=VECTOR('',#674,10.);
#175=VECTOR('',#675,10.);
#176=VECTOR('',#682,10.);
#177=VECTOR('',#685,10.);
#178=VECTOR('',#686,10.);
#179=VECTOR('',#687,10.);
#180=CIRCLE('',#494,2.25);
#181=CIRCLE('',#495,2.25);
#182=CIRCLE('',#497,0.800000000000001);
#183=CIRCLE('',#499,2.25);
#184=CIRCLE('',#500,2.25);
#185=CIRCLE('',#502,0.800000000000001);
#186=CIRCLE('',#505,1.89999999999999);
#187=CIRCLE('',#506,1.89999999999999);
#188=CIRCLE('',#509,1.9);
#189=CIRCLE('',#510,1.9);
#190=CIRCLE('',#513,1.90000000000001);
#191=CIRCLE('',#514,1.90000000000001);
#192=CIRCLE('',#517,1.90000000000001);
#193=CIRCLE('',#518,1.90000000000001);
#194=CIRCLE('',#520,0.800000000000001);
#195=CIRCLE('',#521,0.800000000000001);
#196=CIRCLE('',#523,1.5);
#197=CIRCLE('',#524,1.5);
#198=CIRCLE('',#528,1.5);
#199=CIRCLE('',#529,1.5);
#200=CIRCLE('',#532,5.);
#201=CIRCLE('',#533,5.);
#202=CIRCLE('',#536,5.);
#203=CIRCLE('',#537,5.);
#204=CIRCLE('',#540,5.);
#205=CIRCLE('',#541,5.);
#206=CIRCLE('',#544,4.99999999999999);
#207=CIRCLE('',#545,4.99999999999999);
#208=VERTEX_POINT('',#700);
#209=VERTEX_POINT('',#702);
#210=VERTEX_POINT('',#706);
#211=VERTEX_POINT('',#709);
#212=VERTEX_POINT('',#711);
#213=VERTEX_POINT('',#715);
#214=VERTEX_POINT('',#718);
#215=VERTEX_POINT('',#719);
#216=VERTEX_POINT('',#721);
#217=VERTEX_POINT('',#723);
#218=VERTEX_POINT('',#727);
#219=VERTEX_POINT('',#729);
#220=VERTEX_POINT('',#733);
#221=VERTEX_POINT('',#735);
#222=VERTEX_POINT('',#739);
#223=VERTEX_POINT('',#741);
#224=VERTEX_POINT('',#745);
#225=VERTEX_POINT('',#747);
#226=VERTEX_POINT('',#751);
#227=VERTEX_POINT('',#753);
#228=VERTEX_POINT('',#757);
#229=VERTEX_POINT('',#759);
#230=VERTEX_POINT('',#766);
#231=VERTEX_POINT('',#768);
#232=VERTEX_POINT('',#771);
#233=VERTEX_POINT('',#773);
#234=VERTEX_POINT('',#781);
#235=VERTEX_POINT('',#783);
#236=VERTEX_POINT('',#787);
#237=VERTEX_POINT('',#788);
#238=VERTEX_POINT('',#790);
#239=VERTEX_POINT('',#792);
#240=VERTEX_POINT('',#796);
#241=VERTEX_POINT('',#798);
#242=VERTEX_POINT('',#802);
#243=VERTEX_POINT('',#804);
#244=VERTEX_POINT('',#808);
#245=VERTEX_POINT('',#810);
#246=VERTEX_POINT('',#814);
#247=VERTEX_POINT('',#816);
#248=VERTEX_POINT('',#820);
#249=VERTEX_POINT('',#822);
#250=VERTEX_POINT('',#826);
#251=VERTEX_POINT('',#828);
#252=EDGE_CURVE('',#208,#208,#180,.T.);
#253=EDGE_CURVE('',#208,#209,#104,.T.);
#254=EDGE_CURVE('',#209,#209,#181,.T.);
#255=EDGE_CURVE('',#210,#210,#182,.T.);
#256=EDGE_CURVE('',#211,#211,#183,.T.);
#257=EDGE_CURVE('',#211,#212,#105,.T.);
#258=EDGE_CURVE('',#212,#212,#184,.T.);
#259=EDGE_CURVE('',#213,#213,#185,.T.);
#260=EDGE_CURVE('',#214,#215,#106,.T.);
#261=EDGE_CURVE('',#214,#216,#107,.T.);
#262=EDGE_CURVE('',#217,#216,#108,.T.);
#263=EDGE_CURVE('',#215,#217,#109,.T.);
#264=EDGE_CURVE('',#215,#218,#186,.T.);
#265=EDGE_CURVE('',#219,#217,#187,.T.);
#266=EDGE_CURVE('',#218,#219,#110,.T.);
#267=EDGE_CURVE('',#218,#220,#111,.T.);
#268=EDGE_CURVE('',#221,#219,#112,.T.);
#269=EDGE_CURVE('',#220,#221,#113,.T.);
#270=EDGE_CURVE('',#220,#222,#188,.T.);
#271=EDGE_CURVE('',#223,#221,#189,.T.);
#272=EDGE_CURVE('',#222,#223,#114,.T.);
#273=EDGE_CURVE('',#222,#224,#115,.T.);
#274=EDGE_CURVE('',#225,#223,#116,.T.);
#275=EDGE_CURVE('',#224,#225,#117,.T.);
#276=EDGE_CURVE('',#224,#226,#190,.T.);
#277=EDGE_CURVE('',#227,#225,#191,.T.);
#278=EDGE_CURVE('',#226,#227,#118,.T.);
#279=EDGE_CURVE('',#226,#228,#119,.T.);
#280=EDGE_CURVE('',#229,#227,#120,.T.);
#281=EDGE_CURVE('',#228,#229,#121,.T.);
#282=EDGE_CURVE('',#228,#214,#192,.T.);
#283=EDGE_CURVE('',#216,#229,#193,.T.);
#284=EDGE_CURVE('',#230,#230,#194,.T.);
#285=EDGE_CURVE('',#231,#231,#195,.T.);
#286=EDGE_CURVE('',#232,#232,#196,.T.);
#287=EDGE_CURVE('',#232,#233,#122,.T.);
#288=EDGE_CURVE('',#233,#233,#197,.T.);
#289=EDGE_CURVE('',#210,#230,#123,.T.);
#290=EDGE_CURVE('',#213,#231,#124,.T.);
#291=EDGE_CURVE('',#234,#234,#198,.T.);
#292=EDGE_CURVE('',#234,#235,#125,.T.);
#293=EDGE_CURVE('',#235,#235,#199,.T.);
#294=EDGE_CURVE('',#236,#237,#126,.T.);
#295=EDGE_CURVE('',#237,#238,#127,.T.);
#296=EDGE_CURVE('',#239,#238,#128,.T.);
#297=EDGE_CURVE('',#236,#239,#129,.T.);
#298=EDGE_CURVE('',#240,#236,#200,.T.);
#299=EDGE_CURVE('',#241,#239,#201,.T.);
#300=EDGE_CURVE('',#240,#241,#130,.T.);
#301=EDGE_CURVE('',#242,#240,#131,.T.);
#302=EDGE_CURVE('',#243,#241,#132,.T.);
#303=EDGE_CURVE('',#242,#243,#133,.T.);
#304=EDGE_CURVE('',#244,#242,#202,.T.);
#305=EDGE_CURVE('',#245,#243,#203,.T.);
#306=EDGE_CURVE('',#244,#245,#134,.T.);
#307=EDGE_CURVE('',#246,#244,#135,.T.);
#308=EDGE_CURVE('',#247,#245,#136,.T.);
#309=EDGE_CURVE('',#246,#247,#137,.T.);
#310=EDGE_CURVE('',#248,#246,#204,.T.);
#311=EDGE_CURVE('',#249,#247,#205,.T.);
#312=EDGE_CURVE('',#248,#249,#138,.T.);
#313=EDGE_CURVE('',#250,#248,#139,.T.);
#314=EDGE_CURVE('',#251,#249,#140,.T.);
#315=EDGE_CURVE('',#250,#251,#141,.T.);
#316=EDGE_CURVE('',#237,#250,#206,.T.);
#317=EDGE_CURVE('',#238,#251,#207,.T.);
#318=ORIENTED_EDGE('',*,*,#252,.F.);
#319=ORIENTED_EDGE('',*,*,#253,.T.);
#320=ORIENTED_EDGE('',*,*,#254,.T.);
#321=ORIENTED_EDGE('',*,*,#253,.F.);
#322=ORIENTED_EDGE('',*,*,#254,.F.);
#323=ORIENTED_EDGE('',*,*,#255,.F.);
#324=ORIENTED_EDGE('',*,*,#256,.F.);
#325=ORIENTED_EDGE('',*,*,#257,.T.);
#326=ORIENTED_EDGE('',*,*,#258,.T.);
#327=ORIENTED_EDGE('',*,*,#257,.F.);
#328=ORIENTED_EDGE('',*,*,#258,.F.);
#329=ORIENTED_EDGE('',*,*,#259,.F.);
#330=ORIENTED_EDGE('',*,*,#260,.F.);
#331=ORIENTED_EDGE('',*,*,#261,.T.);
#332=ORIENTED_EDGE('',*,*,#262,.F.);
#333=ORIENTED_EDGE('',*,*,#263,.F.);
#334=ORIENTED_EDGE('',*,*,#264,.F.);
#335=ORIENTED_EDGE('',*,*,#263,.T.);
#336=ORIENTED_EDGE('',*,*,#265,.F.);
#337=ORIENTED_EDGE('',*,*,#266,.F.);
#338=ORIENTED_EDGE('',*,*,#267,.F.);
#339=ORIENTED_EDGE('',*,*,#266,.T.);
#340=ORIENTED_EDGE('',*,*,#268,.F.);
#341=ORIENTED_EDGE('',*,*,#269,.F.);
#342=ORIENTED_EDGE('',*,*,#270,.F.);
#343=ORIENTED_EDGE('',*,*,#269,.T.);
#344=ORIENTED_EDGE('',*,*,#271,.F.);
#345=ORIENTED_EDGE('',*,*,#272,.F.);
#346=ORIENTED_EDGE('',*,*,#273,.F.);
#347=ORIENTED_EDGE('',*,*,#272,.T.);
#348=ORIENTED_EDGE('',*,*,#274,.F.);
#349=ORIENTED_EDGE('',*,*,#275,.F.);
#350=ORIENTED_EDGE('',*,*,#276,.F.);
#351=ORIENTED_EDGE('',*,*,#275,.T.);
#352=ORIENTED_EDGE('',*,*,#277,.F.);
#353=ORIENTED_EDGE('',*,*,#278,.F.);
#354=ORIENTED_EDGE('',*,*,#279,.F.);
#355=ORIENTED_EDGE('',*,*,#278,.T.);
#356=ORIENTED_EDGE('',*,*,#280,.F.);
#357=ORIENTED_EDGE('',*,*,#281,.F.);
#358=ORIENTED_EDGE('',*,*,#282,.F.);
#359=ORIENTED_EDGE('',*,*,#281,.T.);
#360=ORIENTED_EDGE('',*,*,#283,.F.);
#361=ORIENTED_EDGE('',*,*,#261,.F.);
#362=ORIENTED_EDGE('',*,*,#283,.T.);
#363=ORIENTED_EDGE('',*,*,#280,.T.);
#364=ORIENTED_EDGE('',*,*,#277,.T.);
#365=ORIENTED_EDGE('',*,*,#274,.T.);
#366=ORIENTED_EDGE('',*,*,#271,.T.);
#367=ORIENTED_EDGE('',*,*,#268,.T.);
#368=ORIENTED_EDGE('',*,*,#265,.T.);
#369=ORIENTED_EDGE('',*,*,#262,.T.);
#370=ORIENTED_EDGE('',*,*,#284,.T.);
#371=ORIENTED_EDGE('',*,*,#285,.T.);
#372=ORIENTED_EDGE('',*,*,#286,.F.);
#373=ORIENTED_EDGE('',*,*,#287,.T.);
#374=ORIENTED_EDGE('',*,*,#288,.T.);
#375=ORIENTED_EDGE('',*,*,#287,.F.);
#376=ORIENTED_EDGE('',*,*,#255,.T.);
#377=ORIENTED_EDGE('',*,*,#289,.T.);
#378=ORIENTED_EDGE('',*,*,#284,.F.);
#379=ORIENTED_EDGE('',*,*,#289,.F.);
#380=ORIENTED_EDGE('',*,*,#259,.T.);
#381=ORIENTED_EDGE('',*,*,#290,.T.);
#382=ORIENTED_EDGE('',*,*,#285,.F.);
#383=ORIENTED_EDGE('',*,*,#290,.F.);
#384=ORIENTED_EDGE('',*,*,#291,.F.);
#385=ORIENTED_EDGE('',*,*,#292,.T.);
#386=ORIENTED_EDGE('',*,*,#293,.T.);
#387=ORIENTED_EDGE('',*,*,#292,.F.);
#388=ORIENTED_EDGE('',*,*,#294,.T.);
#389=ORIENTED_EDGE('',*,*,#295,.T.);
#390=ORIENTED_EDGE('',*,*,#296,.F.);
#391=ORIENTED_EDGE('',*,*,#297,.F.);
#392=ORIENTED_EDGE('',*,*,#298,.T.);
#393=ORIENTED_EDGE('',*,*,#297,.T.);
#394=ORIENTED_EDGE('',*,*,#299,.F.);
#395=ORIENTED_EDGE('',*,*,#300,.F.);
#396=ORIENTED_EDGE('',*,*,#301,.T.);
#397=ORIENTED_EDGE('',*,*,#300,.T.);
#398=ORIENTED_EDGE('',*,*,#302,.F.);
#399=ORIENTED_EDGE('',*,*,#303,.F.);
#400=ORIENTED_EDGE('',*,*,#304,.T.);
#401=ORIENTED_EDGE('',*,*,#303,.T.);
#402=ORIENTED_EDGE('',*,*,#305,.F.);
#403=ORIENTED_EDGE('',*,*,#306,.F.);
#404=ORIENTED_EDGE('',*,*,#307,.T.);
#405=ORIENTED_EDGE('',*,*,#306,.T.);
#406=ORIENTED_EDGE('',*,*,#308,.F.);
#407=ORIENTED_EDGE('',*,*,#309,.F.);
#408=ORIENTED_EDGE('',*,*,#310,.T.);
#409=ORIENTED_EDGE('',*,*,#309,.T.);
#410=ORIENTED_EDGE('',*,*,#311,.F.);
#411=ORIENTED_EDGE('',*,*,#312,.F.);
#412=ORIENTED_EDGE('',*,*,#313,.T.);
#413=ORIENTED_EDGE('',*,*,#312,.T.);
#414=ORIENTED_EDGE('',*,*,#314,.F.);
#415=ORIENTED_EDGE('',*,*,#315,.F.);
#416=ORIENTED_EDGE('',*,*,#316,.T.);
#417=ORIENTED_EDGE('',*,*,#315,.T.);
#418=ORIENTED_EDGE('',*,*,#317,.F.);
#419=ORIENTED_EDGE('',*,*,#295,.F.);
#420=ORIENTED_EDGE('',*,*,#317,.T.);
#421=ORIENTED_EDGE('',*,*,#314,.T.);
#422=ORIENTED_EDGE('',*,*,#311,.T.);
#423=ORIENTED_EDGE('',*,*,#308,.T.);
#424=ORIENTED_EDGE('',*,*,#305,.T.);
#425=ORIENTED_EDGE('',*,*,#302,.T.);
#426=ORIENTED_EDGE('',*,*,#299,.T.);
#427=ORIENTED_EDGE('',*,*,#296,.T.);
#428=ORIENTED_EDGE('',*,*,#252,.T.);
#429=ORIENTED_EDGE('',*,*,#256,.T.);
#430=ORIENTED_EDGE('',*,*,#291,.T.);
#431=ORIENTED_EDGE('',*,*,#286,.T.);
#432=ORIENTED_EDGE('',*,*,#316,.F.);
#433=ORIENTED_EDGE('',*,*,#294,.F.);
#434=ORIENTED_EDGE('',*,*,#298,.F.);
#435=ORIENTED_EDGE('',*,*,#301,.F.);
#436=ORIENTED_EDGE('',*,*,#304,.F.);
#437=ORIENTED_EDGE('',*,*,#307,.F.);
#438=ORIENTED_EDGE('',*,*,#310,.F.);
#439=ORIENTED_EDGE('',*,*,#313,.F.);
#440=ORIENTED_EDGE('',*,*,#260,.T.);
#441=ORIENTED_EDGE('',*,*,#264,.T.);
#442=ORIENTED_EDGE('',*,*,#267,.T.);
#443=ORIENTED_EDGE('',*,*,#270,.T.);
#444=ORIENTED_EDGE('',*,*,#273,.T.);
#445=ORIENTED_EDGE('',*,*,#276,.T.);
#446=ORIENTED_EDGE('',*,*,#279,.T.);
#447=ORIENTED_EDGE('',*,*,#282,.T.);
#448=ORIENTED_EDGE('',*,*,#293,.F.);
#449=ORIENTED_EDGE('',*,*,#288,.F.);
#450=CYLINDRICAL_SURFACE('',#493,2.25);
#451=CYLINDRICAL_SURFACE('',#498,2.25);
#452=CYLINDRICAL_SURFACE('',#504,1.89999999999999);
#453=CYLINDRICAL_SURFACE('',#508,1.9);
#454=CYLINDRICAL_SURFACE('',#512,1.90000000000001);
#455=CYLINDRICAL_SURFACE('',#516,1.90000000000001);
#456=CYLINDRICAL_SURFACE('',#522,1.5);
#457=CYLINDRICAL_SURFACE('',#525,0.800000000000001);
#458=CYLINDRICAL_SURFACE('',#526,0.800000000000001);
#459=CYLINDRICAL_SURFACE('',#527,1.5);
#460=CYLINDRICAL_SURFACE('',#531,5.);
#461=CYLINDRICAL_SURFACE('',#535,5.);
#462=CYLINDRICAL_SURFACE('',#539,5.);
#463=CYLINDRICAL_SURFACE('',#543,4.99999999999999);
#464=ADVANCED_FACE('',(#39),#450,.F.);
#465=ADVANCED_FACE('',(#40,#15),#26,.T.);
#466=ADVANCED_FACE('',(#41),#451,.F.);
#467=ADVANCED_FACE('',(#42,#16),#27,.T.);
#468=ADVANCED_FACE('',(#43),#28,.T.);
#469=ADVANCED_FACE('',(#44),#452,.T.);
#470=ADVANCED_FACE('',(#45),#29,.T.);
#471=ADVANCED_FACE('',(#46),#453,.T.);
#472=ADVANCED_FACE('',(#47),#30,.T.);
#473=ADVANCED_FACE('',(#48),#454,.T.);
#474=ADVANCED_FACE('',(#49),#31,.T.);
#475=ADVANCED_FACE('',(#50),#455,.T.);
#476=ADVANCED_FACE('',(#51,#17,#18),#32,.F.);
#477=ADVANCED_FACE('',(#52),#456,.F.);
#478=ADVANCED_FACE('',(#53),#457,.F.);
#479=ADVANCED_FACE('',(#54),#458,.F.);
#480=ADVANCED_FACE('',(#55),#459,.F.);
#481=ADVANCED_FACE('',(#56),#33,.T.);
#482=ADVANCED_FACE('',(#57),#460,.T.);
#483=ADVANCED_FACE('',(#58),#34,.T.);
#484=ADVANCED_FACE('',(#59),#461,.T.);
#485=ADVANCED_FACE('',(#60),#35,.T.);
#486=ADVANCED_FACE('',(#61),#462,.T.);
#487=ADVANCED_FACE('',(#62),#36,.T.);
#488=ADVANCED_FACE('',(#63),#463,.T.);
#489=ADVANCED_FACE('',(#64,#19,#20,#21,#22),#37,.T.);
#490=ADVANCED_FACE('',(#65,#23,#24,#25),#38,.F.);
#491=CLOSED_SHELL('',(#464,#465,#466,#467,#468,#469,#470,#471,#472,#473,
#474,#475,#476,#477,#478,#479,#480,#481,#482,#483,#484,#485,#486,#487,#488,
#489,#490));
#492=AXIS2_PLACEMENT_3D('',#698,#548,#549);
#493=AXIS2_PLACEMENT_3D('',#699,#550,#551);
#494=AXIS2_PLACEMENT_3D('',#701,#552,#553);
#495=AXIS2_PLACEMENT_3D('',#704,#555,#556);
#496=AXIS2_PLACEMENT_3D('',#705,#557,#558);
#497=AXIS2_PLACEMENT_3D('',#707,#559,#560);
#498=AXIS2_PLACEMENT_3D('',#708,#561,#562);
#499=AXIS2_PLACEMENT_3D('',#710,#563,#564);
#500=AXIS2_PLACEMENT_3D('',#713,#566,#567);
#501=AXIS2_PLACEMENT_3D('',#714,#568,#569);
#502=AXIS2_PLACEMENT_3D('',#716,#570,#571);
#503=AXIS2_PLACEMENT_3D('',#717,#572,#573);
#504=AXIS2_PLACEMENT_3D('',#726,#578,#579);
#505=AXIS2_PLACEMENT_3D('',#728,#580,#581);
#506=AXIS2_PLACEMENT_3D('',#730,#582,#583);
#507=AXIS2_PLACEMENT_3D('',#732,#585,#586);
#508=AXIS2_PLACEMENT_3D('',#738,#590,#591);
#509=AXIS2_PLACEMENT_3D('',#740,#592,#593);
#510=AXIS2_PLACEMENT_3D('',#742,#594,#595);
#511=AXIS2_PLACEMENT_3D('',#744,#597,#598);
#512=AXIS2_PLACEMENT_3D('',#750,#602,#603);
#513=AXIS2_PLACEMENT_3D('',#752,#604,#605);
#514=AXIS2_PLACEMENT_3D('',#754,#606,#607);
#515=AXIS2_PLACEMENT_3D('',#756,#609,#610);
#516=AXIS2_PLACEMENT_3D('',#762,#614,#615);
#517=AXIS2_PLACEMENT_3D('',#763,#616,#617);
#518=AXIS2_PLACEMENT_3D('',#764,#618,#619);
#519=AXIS2_PLACEMENT_3D('',#765,#620,#621);
#520=AXIS2_PLACEMENT_3D('',#767,#622,#623);
#521=AXIS2_PLACEMENT_3D('',#769,#624,#625);
#522=AXIS2_PLACEMENT_3D('',#770,#626,#627);
#523=AXIS2_PLACEMENT_3D('',#772,#628,#629);
#524=AXIS2_PLACEMENT_3D('',#775,#631,#632);
#525=AXIS2_PLACEMENT_3D('',#776,#633,#634);
#526=AXIS2_PLACEMENT_3D('',#778,#636,#637);
#527=AXIS2_PLACEMENT_3D('',#780,#639,#640);
#528=AXIS2_PLACEMENT_3D('',#782,#641,#642);
#529=AXIS2_PLACEMENT_3D('',#785,#644,#645);
#530=AXIS2_PLACEMENT_3D('',#786,#646,#647);
#531=AXIS2_PLACEMENT_3D('',#795,#652,#653);
#532=AXIS2_PLACEMENT_3D('',#797,#654,#655);
#533=AXIS2_PLACEMENT_3D('',#799,#656,#657);
#534=AXIS2_PLACEMENT_3D('',#801,#659,#660);
#535=AXIS2_PLACEMENT_3D('',#807,#664,#665);
#536=AXIS2_PLACEMENT_3D('',#809,#666,#667);
#537=AXIS2_PLACEMENT_3D('',#811,#668,#669);
#538=AXIS2_PLACEMENT_3D('',#813,#671,#672);
#539=AXIS2_PLACEMENT_3D('',#819,#676,#677);
#540=AXIS2_PLACEMENT_3D('',#821,#678,#679);
#541=AXIS2_PLACEMENT_3D('',#823,#680,#681);
#542=AXIS2_PLACEMENT_3D('',#825,#683,#684);
#543=AXIS2_PLACEMENT_3D('',#831,#688,#689);
#544=AXIS2_PLACEMENT_3D('',#832,#690,#691);
#545=AXIS2_PLACEMENT_3D('',#833,#692,#693);
#546=AXIS2_PLACEMENT_3D('',#834,#694,#695);
#547=AXIS2_PLACEMENT_3D('',#835,#696,#697);
#548=DIRECTION('axis',(0.,0.,1.));
#549=DIRECTION('refdir',(1.,0.,0.));
#550=DIRECTION('center_axis',(0.,-1.,0.));
#551=DIRECTION('ref_axis',(-1.,0.,0.));
#552=DIRECTION('center_axis',(0.,-1.,0.));
#553=DIRECTION('ref_axis',(-1.,0.,0.));
#554=DIRECTION('',(0.,-1.,0.));
#555=DIRECTION('center_axis',(0.,-1.,0.));
#556=DIRECTION('ref_axis',(-1.,0.,0.));
#557=DIRECTION('center_axis',(0.,1.,0.));
#558=DIRECTION('ref_axis',(-1.,0.,0.));
#559=DIRECTION('center_axis',(0.,1.,0.));
#560=DIRECTION('ref_axis',(-1.,0.,0.));
#561=DIRECTION('center_axis',(0.,-1.,0.));
#562=DIRECTION('ref_axis',(-1.,0.,0.));
#563=DIRECTION('center_axis',(0.,-1.,0.));
#564=DIRECTION('ref_axis',(-1.,0.,0.));
#565=DIRECTION('',(0.,-1.,0.));
#566=DIRECTION('center_axis',(0.,-1.,0.));
#567=DIRECTION('ref_axis',(-1.,0.,0.));
#568=DIRECTION('center_axis',(0.,1.,0.));
#569=DIRECTION('ref_axis',(-1.,0.,0.));
#570=DIRECTION('center_axis',(0.,1.,0.));
#571=DIRECTION('ref_axis',(-1.,0.,0.));
#572=DIRECTION('center_axis',(1.,0.,-8.88178419700125E-16));
#573=DIRECTION('ref_axis',(8.88178419700125E-16,0.,1.));
#574=DIRECTION('',(-8.88178419700125E-16,0.,-1.));
#575=DIRECTION('',(0.,-1.,0.));
#576=DIRECTION('',(8.88178419700125E-16,0.,1.));
#577=DIRECTION('',(0.,-1.,0.));
#578=DIRECTION('center_axis',(0.,-1.,0.));
#579=DIRECTION('ref_axis',(1.,0.,4.67462326157963E-15));
#580=DIRECTION('center_axis',(0.,1.,0.));
#581=DIRECTION('ref_axis',(1.,0.,4.67462326157963E-15));
#582=DIRECTION('center_axis',(0.,-1.,0.));
#583=DIRECTION('ref_axis',(1.,0.,4.67462326157963E-15));
#584=DIRECTION('',(0.,-1.,0.));
#585=DIRECTION('center_axis',(0.,0.,-1.));
#586=DIRECTION('ref_axis',(1.,0.,0.));
#587=DIRECTION('',(-1.,0.,0.));
#588=DIRECTION('',(1.,0.,0.));
#589=DIRECTION('',(0.,-1.,0.));
#590=DIRECTION('center_axis',(0.,-1.,0.));
#591=DIRECTION('ref_axis',(3.50596744618471E-15,0.,-1.));
#592=DIRECTION('center_axis',(0.,1.,0.));
#593=DIRECTION('ref_axis',(3.50596744618471E-15,0.,-1.));
#594=DIRECTION('center_axis',(0.,-1.,0.));
#595=DIRECTION('ref_axis',(3.50596744618471E-15,0.,-1.));
#596=DIRECTION('',(0.,-1.,0.));
#597=DIRECTION('center_axis',(-1.,0.,2.368475785867E-15));
#598=DIRECTION('ref_axis',(-2.368475785867E-15,0.,-1.));
#599=DIRECTION('',(2.368475785867E-15,0.,1.));
#600=DIRECTION('',(-2.368475785867E-15,0.,-1.));
#601=DIRECTION('',(0.,-1.,0.));
#602=DIRECTION('center_axis',(0.,-1.,0.));
#603=DIRECTION('ref_axis',(-1.,0.,7.01193489236939E-15));
#604=DIRECTION('center_axis',(0.,1.,0.));
#605=DIRECTION('ref_axis',(-1.,0.,7.01193489236939E-15));
#606=DIRECTION('center_axis',(0.,-1.,0.));
#607=DIRECTION('ref_axis',(-1.,0.,7.01193489236939E-15));
#608=DIRECTION('',(0.,-1.,0.));
#609=DIRECTION('center_axis',(0.,0.,1.));
#610=DIRECTION('ref_axis',(-1.,0.,0.));
#611=DIRECTION('',(1.,0.,0.));
#612=DIRECTION('',(-1.,0.,0.));
#613=DIRECTION('',(0.,-1.,0.));
#614=DIRECTION('center_axis',(0.,-1.,0.));
#615=DIRECTION('ref_axis',(2.33731163078979E-15,0.,1.));
#616=DIRECTION('center_axis',(0.,1.,0.));
#617=DIRECTION('ref_axis',(2.33731163078979E-15,0.,1.));
#618=DIRECTION('center_axis',(0.,-1.,0.));
#619=DIRECTION('ref_axis',(2.33731163078979E-15,0.,1.));
#620=DIRECTION('center_axis',(0.,1.,0.));
#621=DIRECTION('ref_axis',(-1.,0.,0.));
#622=DIRECTION('center_axis',(0.,1.,0.));
#623=DIRECTION('ref_axis',(-1.,0.,0.));
#624=DIRECTION('center_axis',(0.,1.,0.));
#625=DIRECTION('ref_axis',(-1.,0.,0.));
#626=DIRECTION('center_axis',(0.,1.,0.));
#627=DIRECTION('ref_axis',(-1.,0.,0.));
#628=DIRECTION('center_axis',(0.,-1.,0.));
#629=DIRECTION('ref_axis',(-1.,0.,0.));
#630=DIRECTION('',(0.,-1.,0.));
#631=DIRECTION('center_axis',(0.,-1.,0.));
#632=DIRECTION('ref_axis',(-1.,0.,0.));
#633=DIRECTION('center_axis',(0.,1.,0.));
#634=DIRECTION('ref_axis',(-1.,0.,0.));
#635=DIRECTION('',(0.,-1.,0.));
#636=DIRECTION('center_axis',(0.,1.,0.));
#637=DIRECTION('ref_axis',(-1.,0.,0.));
#638=DIRECTION('',(0.,-1.,0.));
#639=DIRECTION('center_axis',(0.,1.,0.));
#640=DIRECTION('ref_axis',(-1.,0.,0.));
#641=DIRECTION('center_axis',(0.,-1.,0.));
#642=DIRECTION('ref_axis',(-1.,0.,0.));
#643=DIRECTION('',(0.,-1.,0.));
#644=DIRECTION('center_axis',(0.,-1.,0.));
#645=DIRECTION('ref_axis',(-1.,0.,0.));
#646=DIRECTION('center_axis',(-1.,0.,2.22044604925031E-16));
#647=DIRECTION('ref_axis',(2.22044604925031E-16,0.,1.));
#648=DIRECTION('',(2.22044604925031E-16,0.,1.));
#649=DIRECTION('',(0.,1.,0.));
#650=DIRECTION('',(2.22044604925031E-16,0.,1.));
#651=DIRECTION('',(0.,1.,0.));
#652=DIRECTION('center_axis',(0.,1.,0.));
#653=DIRECTION('ref_axis',(0.,0.,-1.));
#654=DIRECTION('center_axis',(0.,1.,0.));
#655=DIRECTION('ref_axis',(0.,0.,-1.));
#656=DIRECTION('center_axis',(0.,1.,0.));
#657=DIRECTION('ref_axis',(0.,0.,-1.));
#658=DIRECTION('',(0.,1.,0.));
#659=DIRECTION('center_axis',(-1.11022302462516E-16,0.,-1.));
#660=DIRECTION('ref_axis',(-1.,0.,1.11022302462516E-16));
#661=DIRECTION('',(-1.,0.,1.11022302462516E-16));
#662=DIRECTION('',(-1.,0.,1.11022302462516E-16));
#663=DIRECTION('',(0.,1.,0.));
#664=DIRECTION('center_axis',(0.,1.,0.));
#665=DIRECTION('ref_axis',(1.,0.,0.));
#666=DIRECTION('center_axis',(0.,1.,0.));
#667=DIRECTION('ref_axis',(1.,0.,0.));
#668=DIRECTION('center_axis',(0.,1.,0.));
#669=DIRECTION('ref_axis',(1.,0.,0.));
#670=DIRECTION('',(0.,1.,0.));
#671=DIRECTION('center_axis',(1.,0.,4.44089209850062E-16));
#672=DIRECTION('ref_axis',(4.44089209850062E-16,0.,-1.));
#673=DIRECTION('',(4.44089209850062E-16,0.,-1.));
#674=DIRECTION('',(4.44089209850062E-16,0.,-1.));
#675=DIRECTION('',(0.,1.,0.));
#676=DIRECTION('center_axis',(0.,1.,0.));
#677=DIRECTION('ref_axis',(0.,0.,1.));
#678=DIRECTION('center_axis',(0.,1.,0.));
#679=DIRECTION('ref_axis',(0.,0.,1.));
#680=DIRECTION('center_axis',(0.,1.,0.));
#681=DIRECTION('ref_axis',(0.,0.,1.));
#682=DIRECTION('',(0.,1.,0.));
#683=DIRECTION('center_axis',(0.,0.,1.));
#684=DIRECTION('ref_axis',(1.,0.,0.));
#685=DIRECTION('',(1.,0.,0.));
#686=DIRECTION('',(1.,0.,0.));
#687=DIRECTION('',(0.,1.,0.));
#688=DIRECTION('center_axis',(0.,1.,0.));
#689=DIRECTION('ref_axis',(-1.,0.,-1.77635683940025E-15));
#690=DIRECTION('center_axis',(0.,1.,0.));
#691=DIRECTION('ref_axis',(-1.,0.,-1.77635683940025E-15));
#692=DIRECTION('center_axis',(0.,1.,0.));
#693=DIRECTION('ref_axis',(-1.,0.,-1.77635683940025E-15));
#694=DIRECTION('center_axis',(0.,1.,0.));
#695=DIRECTION('ref_axis',(-1.,0.,0.));
#696=DIRECTION('center_axis',(0.,1.,0.));
#697=DIRECTION('ref_axis',(-1.,0.,0.));
#698=CARTESIAN_POINT('',(0.,0.,0.));
#699=CARTESIAN_POINT('Origin',(29.0000003278259,8.,36.1474125202911));
#700=CARTESIAN_POINT('',(31.2500003278259,8.,36.1474125202911));
#701=CARTESIAN_POINT('Origin',(29.0000003278259,8.,36.1474125202911));
#702=CARTESIAN_POINT('',(31.2500003278259,7.,36.1474125202911));
#703=CARTESIAN_POINT('',(31.2500003278259,8.,36.1474125202911));
#704=CARTESIAN_POINT('Origin',(29.0000003278259,7.,36.1474125202911));
#705=CARTESIAN_POINT('Origin',(29.0000003278259,7.,36.1474125202911));
#706=CARTESIAN_POINT('',(29.8000003278259,7.,36.1474125202911));
#707=CARTESIAN_POINT('Origin',(29.0000003278259,7.,36.1474125202911));
#708=CARTESIAN_POINT('Origin',(17.0000003278259,8.,24.1474125202911));
#709=CARTESIAN_POINT('',(19.2500003278259,8.,24.1474125202911));
#710=CARTESIAN_POINT('Origin',(17.0000003278259,8.,24.1474125202911));
#711=CARTESIAN_POINT('',(19.2500003278259,7.,24.1474125202911));
#712=CARTESIAN_POINT('',(19.2500003278259,8.,24.1474125202911));
#713=CARTESIAN_POINT('Origin',(17.0000003278259,7.,24.1474125202911));
#714=CARTESIAN_POINT('Origin',(17.0000003278259,7.,24.1474125202911));
#715=CARTESIAN_POINT('',(17.8000003278259,7.,24.1474125202911));
#716=CARTESIAN_POINT('Origin',(17.0000003278259,7.,24.1474125202911));
#717=CARTESIAN_POINT('Origin',(31.4000003278259,7.,21.6474125202911));
#718=CARTESIAN_POINT('',(31.4000003278259,7.,36.6474125202911));
#719=CARTESIAN_POINT('',(31.4000003278259,7.,21.6474125202911));
#720=CARTESIAN_POINT('',(31.4000003278259,7.,25.3974125202911));
#721=CARTESIAN_POINT('',(31.4000003278259,1.6,36.6474125202911));
#722=CARTESIAN_POINT('',(31.4000003278259,7.,36.6474125202911));
#723=CARTESIAN_POINT('',(31.4000003278259,1.6,21.6474125202911));
#724=CARTESIAN_POINT('',(31.4000003278259,1.6,36.6474125202911));
#725=CARTESIAN_POINT('',(31.4000003278259,7.,21.6474125202911));
#726=CARTESIAN_POINT('Origin',(29.5000003278259,7.,21.6474125202911));
#727=CARTESIAN_POINT('',(29.5000003278259,7.,19.7474125202911));
#728=CARTESIAN_POINT('Origin',(29.5000003278259,7.,21.6474125202911));
#729=CARTESIAN_POINT('',(29.5000003278259,1.6,19.7474125202911));
#730=CARTESIAN_POINT('Origin',(29.5000003278259,1.6,21.6474125202911));
#731=CARTESIAN_POINT('',(29.5000003278259,7.,19.7474125202911));
#732=CARTESIAN_POINT('Origin',(16.5000003278259,7.,19.7474125202911));
#733=CARTESIAN_POINT('',(16.5000003278259,7.,19.7474125202911));
#734=CARTESIAN_POINT('',(19.7500003278259,7.,19.7474125202911));
#735=CARTESIAN_POINT('',(16.5000003278259,1.6,19.7474125202911));
#736=CARTESIAN_POINT('',(29.5000003278259,1.6,19.7474125202911));
#737=CARTESIAN_POINT('',(16.5000003278259,7.,19.7474125202911));
#738=CARTESIAN_POINT('Origin',(16.5000003278259,7.,21.6474125202911));
#739=CARTESIAN_POINT('',(14.6000003278259,7.,21.647412520291));
#740=CARTESIAN_POINT('Origin',(16.5000003278259,7.,21.6474125202911));
#741=CARTESIAN_POINT('',(14.6000003278259,1.6,21.647412520291));
#742=CARTESIAN_POINT('Origin',(16.5000003278259,1.6,21.6474125202911));
#743=CARTESIAN_POINT('',(14.6000003278259,7.,21.647412520291));
#744=CARTESIAN_POINT('Origin',(14.6000003278259,7.,36.6474125202911));
#745=CARTESIAN_POINT('',(14.6000003278259,7.,36.6474125202911));
#746=CARTESIAN_POINT('',(14.6000003278259,7.,32.8974125202911));
#747=CARTESIAN_POINT('',(14.6000003278259,1.6,36.6474125202911));
#748=CARTESIAN_POINT('',(14.6000003278259,1.6,21.647412520291));
#749=CARTESIAN_POINT('',(14.6000003278259,7.,36.6474125202911));
#750=CARTESIAN_POINT('Origin',(16.5000003278259,7.,36.6474125202911));
#751=CARTESIAN_POINT('',(16.5000003278259,7.,38.5474125202911));
#752=CARTESIAN_POINT('Origin',(16.5000003278259,7.,36.6474125202911));
#753=CARTESIAN_POINT('',(16.5000003278259,1.6,38.5474125202911));
#754=CARTESIAN_POINT('Origin',(16.5000003278259,1.6,36.6474125202911));
#755=CARTESIAN_POINT('',(16.5000003278259,7.,38.5474125202911));
#756=CARTESIAN_POINT('Origin',(29.5000003278259,7.,38.5474125202911));
#757=CARTESIAN_POINT('',(29.5000003278259,7.,38.5474125202911));
#758=CARTESIAN_POINT('',(26.2500003278259,7.,38.5474125202911));
#759=CARTESIAN_POINT('',(29.5000003278259,1.6,38.5474125202911));
#760=CARTESIAN_POINT('',(16.5000003278259,1.6,38.5474125202911));
#761=CARTESIAN_POINT('',(29.5000003278259,7.,38.5474125202911));
#762=CARTESIAN_POINT('Origin',(29.5000003278259,7.,36.6474125202911));
#763=CARTESIAN_POINT('Origin',(29.5000003278259,7.,36.6474125202911));
#764=CARTESIAN_POINT('Origin',(29.5000003278259,1.6,36.6474125202911));
#765=CARTESIAN_POINT('Origin',(23.0000003278259,1.6,29.1474125202911));
#766=CARTESIAN_POINT('',(29.8000003278259,1.6,36.1474125202911));
#767=CARTESIAN_POINT('Origin',(29.0000003278259,1.6,36.1474125202911));
#768=CARTESIAN_POINT('',(17.8000003278259,1.6,24.1474125202911));
#769=CARTESIAN_POINT('Origin',(17.0000003278259,1.6,24.1474125202911));
#770=CARTESIAN_POINT('Origin',(12.0000003278259,7.,36.4807458536244));
#771=CARTESIAN_POINT('',(13.5000003278259,8.,36.4807458536244));
#772=CARTESIAN_POINT('Origin',(12.0000003278259,8.,36.4807458536244));
#773=CARTESIAN_POINT('',(13.5000003278259,7.,36.4807458536244));
#774=CARTESIAN_POINT('',(13.5000003278259,7.,36.4807458536244));
#775=CARTESIAN_POINT('Origin',(12.0000003278259,7.,36.4807458536244));
#776=CARTESIAN_POINT('Origin',(29.0000003278259,7.,36.1474125202911));
#777=CARTESIAN_POINT('',(29.8000003278259,7.,36.1474125202911));
#778=CARTESIAN_POINT('Origin',(17.0000003278259,7.,24.1474125202911));
#779=CARTESIAN_POINT('',(17.8000003278259,7.,24.1474125202911));
#780=CARTESIAN_POINT('Origin',(34.0000003278259,7.,21.8140791869577));
#781=CARTESIAN_POINT('',(35.5000003278259,8.,21.8140791869577));
#782=CARTESIAN_POINT('Origin',(34.0000003278259,8.,21.8140791869577));
#783=CARTESIAN_POINT('',(35.5000003278259,7.,21.8140791869577));
#784=CARTESIAN_POINT('',(35.5000003278259,7.,21.8140791869577));
#785=CARTESIAN_POINT('Origin',(34.0000003278259,7.,21.8140791869577));
#786=CARTESIAN_POINT('Origin',(8.0000003278259,7.,24.1474125202911));
#787=CARTESIAN_POINT('',(8.0000003278259,7.,24.1474125202911));
#788=CARTESIAN_POINT('',(8.0000003278259,7.,34.1474125202911));
#789=CARTESIAN_POINT('',(8.0000003278259,7.,24.1474125202911));
#790=CARTESIAN_POINT('',(8.0000003278259,8.,34.1474125202911));
#791=CARTESIAN_POINT('',(8.0000003278259,7.,34.1474125202911));
#792=CARTESIAN_POINT('',(8.00000032782589,8.,24.1474125202911));
#793=CARTESIAN_POINT('',(8.0000003278259,8.,24.1474125202911));
#794=CARTESIAN_POINT('',(8.0000003278259,7.,24.1474125202911));
#795=CARTESIAN_POINT('Origin',(13.0000003278259,7.,24.1474125202911));
#796=CARTESIAN_POINT('',(13.0000003278259,7.,19.1474125202911));
#797=CARTESIAN_POINT('Origin',(13.0000003278259,7.,24.1474125202911));
#798=CARTESIAN_POINT('',(13.0000003278259,8.,19.1474125202911));
#799=CARTESIAN_POINT('Origin',(13.0000003278259,8.,24.1474125202911));
#800=CARTESIAN_POINT('',(13.0000003278259,7.,19.1474125202911));
#801=CARTESIAN_POINT('Origin',(33.0000003278259,7.,19.1474125202911));
#802=CARTESIAN_POINT('',(33.0000003278259,7.,19.1474125202911));
#803=CARTESIAN_POINT('',(33.0000003278259,7.,19.1474125202911));
#804=CARTESIAN_POINT('',(33.0000003278259,8.,19.1474125202911));
#805=CARTESIAN_POINT('',(33.0000003278259,8.,19.1474125202911));
#806=CARTESIAN_POINT('',(33.0000003278259,7.,19.1474125202911));
#807=CARTESIAN_POINT('Origin',(33.0000003278259,7.,24.1474125202911));
#808=CARTESIAN_POINT('',(38.0000003278259,7.,24.1474125202911));
#809=CARTESIAN_POINT('Origin',(33.0000003278259,7.,24.1474125202911));
#810=CARTESIAN_POINT('',(38.0000003278259,8.,24.1474125202911));
#811=CARTESIAN_POINT('Origin',(33.0000003278259,8.,24.1474125202911));
#812=CARTESIAN_POINT('',(38.0000003278259,7.,24.1474125202911));
#813=CARTESIAN_POINT('Origin',(38.0000003278259,7.,34.1474125202911));
#814=CARTESIAN_POINT('',(38.0000003278259,7.,34.1474125202911));
#815=CARTESIAN_POINT('',(38.0000003278259,7.,34.1474125202911));
#816=CARTESIAN_POINT('',(38.0000003278259,8.,34.1474125202911));
#817=CARTESIAN_POINT('',(38.0000003278259,8.,34.1474125202911));
#818=CARTESIAN_POINT('',(38.0000003278259,7.,34.1474125202911));
#819=CARTESIAN_POINT('Origin',(33.0000003278259,7.,34.1474125202911));
#820=CARTESIAN_POINT('',(33.0000003278259,7.,39.1474125202911));
#821=CARTESIAN_POINT('Origin',(33.0000003278259,7.,34.1474125202911));
#822=CARTESIAN_POINT('',(33.0000003278259,8.,39.1474125202911));
#823=CARTESIAN_POINT('Origin',(33.0000003278259,8.,34.1474125202911));
#824=CARTESIAN_POINT('',(33.0000003278259,7.,39.1474125202911));
#825=CARTESIAN_POINT('Origin',(13.0000003278259,7.,39.1474125202911));
#826=CARTESIAN_POINT('',(13.0000003278259,7.,39.1474125202911));
#827=CARTESIAN_POINT('',(13.0000003278259,7.,39.1474125202911));
#828=CARTESIAN_POINT('',(13.0000003278259,8.,39.1474125202911));
#829=CARTESIAN_POINT('',(13.0000003278259,8.,39.1474125202911));
#830=CARTESIAN_POINT('',(13.0000003278259,7.,39.1474125202911));
#831=CARTESIAN_POINT('Origin',(13.0000003278259,7.,34.1474125202911));
#832=CARTESIAN_POINT('Origin',(13.0000003278259,7.,34.1474125202911));
#833=CARTESIAN_POINT('Origin',(13.0000003278259,8.,34.1474125202911));
#834=CARTESIAN_POINT('Origin',(23.0000003278259,8.,29.1474125202911));
#835=CARTESIAN_POINT('Origin',(23.0000003278259,7.,29.1474125202911));
#836=UNCERTAINTY_MEASURE_WITH_UNIT(LENGTH_MEASURE(0.01),#840,
'DISTANCE_ACCURACY_VALUE',
'Maximum model space distance between geometric entities at asserted c
onnectivities');
#837=UNCERTAINTY_MEASURE_WITH_UNIT(LENGTH_MEASURE(0.01),#840,
'DISTANCE_ACCURACY_VALUE',
'Maximum model space distance between geometric entities at asserted c
onnectivities');
#838=(
GEOMETRIC_REPRESENTATION_CONTEXT(3)
GLOBAL_UNCERTAINTY_ASSIGNED_CONTEXT((#836))
GLOBAL_UNIT_ASSIGNED_CONTEXT((#840,#841,#842))
REPRESENTATION_CONTEXT('','3D')
);
#839=(
GEOMETRIC_REPRESENTATION_CONTEXT(3)
GLOBAL_UNCERTAINTY_ASSIGNED_CONTEXT((#837))
GLOBAL_UNIT_ASSIGNED_CONTEXT((#840,#841,#842))
REPRESENTATION_CONTEXT('','3D')
);
#840=(
LENGTH_UNIT()
NAMED_UNIT(*)
SI_UNIT(.MILLI.,.METRE.)
);
#841=(
NAMED_UNIT(*)
PLANE_ANGLE_UNIT()
SI_UNIT($,.RADIAN.)
);
#842=(
NAMED_UNIT(*)
SI_UNIT($,.STERADIAN.)
SOLID_ANGLE_UNIT()
);
#843=SHAPE_DEFINITION_REPRESENTATION(#844,#845);
#844=PRODUCT_DEFINITION_SHAPE('',$,#847);
#845=SHAPE_REPRESENTATION('',(#492),#838);
#846=PRODUCT_DEFINITION_CONTEXT('part definition',#851,'design');
#847=PRODUCT_DEFINITION('\X2\683754C15E7353F0\X0\v2',
'\X2\683754C15E7353F0\X0\v2 v3',#848,#846);
#848=PRODUCT_DEFINITION_FORMATION('',$,#853);
#849=PRODUCT_RELATED_PRODUCT_CATEGORY('\X2\683754C15E7353F0\X0\v2 v3',
'\X2\683754C15E7353F0\X0\v2 v3',(#853));
#850=APPLICATION_PROTOCOL_DEFINITION('international standard',
'automotive_design',2009,#851);
#851=APPLICATION_CONTEXT(
'Core Data for Automotive Mechanical Design Process');
#852=PRODUCT_CONTEXT('part definition',#851,'mechanical');
#853=PRODUCT('\X2\683754C15E7353F0\X0\v2','\X2\683754C15E7353F0\X0\v2 
v3',$,(#852));
#854=PRESENTATION_STYLE_ASSIGNMENT((#855));
#855=SURFACE_STYLE_USAGE(.BOTH.,#856);
#856=SURFACE_SIDE_STYLE('',(#857));
#857=SURFACE_STYLE_FILL_AREA(#858);
#858=FILL_AREA_STYLE('\X2\94A2\X0\ - \X2\7F0E5149\X0\',(#859));
#859=FILL_AREA_STYLE_COLOUR('\X2\94A2\X0\ - \X2\7F0E5149\X0\',#860);
#860=COLOUR_RGB('\X2\94A2\X0\ - \X2\7F0E5149\X0\',0.627450980392157,0.627450980392157,
0.627450980392157);
ENDSEC;
END-ISO-10303-21;
