ISO-10303-21;
HEADER;
/* Generated by software containing ST-Developer
 * from STEP Tools, Inc. (www.steptools.com) 
 */

FILE_DESCRIPTION(
/* description */ (''),
/* implementation_level */ '2;1');

FILE_NAME(
/* name */ '',
/* time_stamp */ '2026-05-10T14:04:04+08:00',
/* author */ (''),
/* organization */ (''),
/* preprocessor_version */ 'ST-DEVELOPER v20.1',
/* originating_system */ 'Autodesk Translation Framework v15.8.0.0',
/* authorisation */ '');

FILE_SCHEMA (('AUTOMOTIVE_DESIGN { 1 0 10303 214 3 1 1 }'));
ENDSEC;

DATA;
#10=MECHANICAL_DESIGN_GEOMETRIC_PRESENTATION_REPRESENTATION('',(#13),#749);
#11=SHAPE_REPRESENTATION_RELATIONSHIP('SRR','None',#755,#12);
#12=ADVANCED_BREP_SHAPE_REPRESENTATION('',(#14),#748);
#13=STYLED_ITEM('',(#764),#14);
#14=MANIFOLD_SOLID_BREP('\X2\5B9E4F53\X0\2',#441);
#15=FACE_BOUND('',#92,.T.);
#16=FACE_BOUND('',#93,.T.);
#17=FACE_BOUND('',#107,.T.);
#18=FACE_BOUND('',#108,.T.);
#19=FACE_BOUND('',#109,.T.);
#20=FACE_BOUND('',#110,.T.);
#21=FACE_BOUND('',#112,.T.);
#22=FACE_BOUND('',#113,.T.);
#23=FACE_BOUND('',#114,.T.);
#24=CIRCLE('',#445,1.89999999999999);
#25=CIRCLE('',#446,1.89999999999999);
#26=CIRCLE('',#449,1.9);
#27=CIRCLE('',#450,1.9);
#28=CIRCLE('',#453,1.90000000000001);
#29=CIRCLE('',#454,1.90000000000001);
#30=CIRCLE('',#457,1.90000000000001);
#31=CIRCLE('',#458,1.90000000000001);
#32=CIRCLE('',#460,0.800000000000001);
#33=CIRCLE('',#461,0.800000000000001);
#34=CIRCLE('',#463,1.5);
#35=CIRCLE('',#464,1.5);
#36=CIRCLE('',#466,0.800000000000001);
#37=CIRCLE('',#468,1.5);
#38=CIRCLE('',#469,1.5);
#39=CIRCLE('',#471,0.800000000000001);
#40=CIRCLE('',#474,5.);
#41=CIRCLE('',#475,5.);
#42=CIRCLE('',#478,5.);
#43=CIRCLE('',#479,5.);
#44=CIRCLE('',#482,5.);
#45=CIRCLE('',#483,5.);
#46=CIRCLE('',#486,4.99999999999999);
#47=CIRCLE('',#487,4.99999999999999);
#48=CYLINDRICAL_SURFACE('',#444,1.89999999999999);
#49=CYLINDRICAL_SURFACE('',#448,1.9);
#50=CYLINDRICAL_SURFACE('',#452,1.90000000000001);
#51=CYLINDRICAL_SURFACE('',#456,1.90000000000001);
#52=CYLINDRICAL_SURFACE('',#462,1.5);
#53=CYLINDRICAL_SURFACE('',#465,0.800000000000001);
#54=CYLINDRICAL_SURFACE('',#467,1.5);
#55=CYLINDRICAL_SURFACE('',#470,0.800000000000001);
#56=CYLINDRICAL_SURFACE('',#473,5.);
#57=CYLINDRICAL_SURFACE('',#477,5.);
#58=CYLINDRICAL_SURFACE('',#481,5.);
#59=CYLINDRICAL_SURFACE('',#485,4.99999999999999);
#60=FACE_OUTER_BOUND('',#83,.T.);
#61=FACE_OUTER_BOUND('',#84,.T.);
#62=FACE_OUTER_BOUND('',#85,.T.);
#63=FACE_OUTER_BOUND('',#86,.T.);
#64=FACE_OUTER_BOUND('',#87,.T.);
#65=FACE_OUTER_BOUND('',#88,.T.);
#66=FACE_OUTER_BOUND('',#89,.T.);
#67=FACE_OUTER_BOUND('',#90,.T.);
#68=FACE_OUTER_BOUND('',#91,.T.);
#69=FACE_OUTER_BOUND('',#94,.T.);
#70=FACE_OUTER_BOUND('',#95,.T.);
#71=FACE_OUTER_BOUND('',#96,.T.);
#72=FACE_OUTER_BOUND('',#97,.T.);
#73=FACE_OUTER_BOUND('',#98,.T.);
#74=FACE_OUTER_BOUND('',#99,.T.);
#75=FACE_OUTER_BOUND('',#100,.T.);
#76=FACE_OUTER_BOUND('',#101,.T.);
#77=FACE_OUTER_BOUND('',#102,.T.);
#78=FACE_OUTER_BOUND('',#103,.T.);
#79=FACE_OUTER_BOUND('',#104,.T.);
#80=FACE_OUTER_BOUND('',#105,.T.);
#81=FACE_OUTER_BOUND('',#106,.T.);
#82=FACE_OUTER_BOUND('',#111,.T.);
#83=EDGE_LOOP('',(#287,#288,#289,#290));
#84=EDGE_LOOP('',(#291,#292,#293,#294));
#85=EDGE_LOOP('',(#295,#296,#297,#298));
#86=EDGE_LOOP('',(#299,#300,#301,#302));
#87=EDGE_LOOP('',(#303,#304,#305,#306));
#88=EDGE_LOOP('',(#307,#308,#309,#310));
#89=EDGE_LOOP('',(#311,#312,#313,#314));
#90=EDGE_LOOP('',(#315,#316,#317,#318));
#91=EDGE_LOOP('',(#319,#320,#321,#322,#323,#324,#325,#326));
#92=EDGE_LOOP('',(#327));
#93=EDGE_LOOP('',(#328));
#94=EDGE_LOOP('',(#329,#330,#331,#332));
#95=EDGE_LOOP('',(#333,#334,#335,#336));
#96=EDGE_LOOP('',(#337,#338,#339,#340));
#97=EDGE_LOOP('',(#341,#342,#343,#344));
#98=EDGE_LOOP('',(#345,#346,#347,#348));
#99=EDGE_LOOP('',(#349,#350,#351,#352));
#100=EDGE_LOOP('',(#353,#354,#355,#356));
#101=EDGE_LOOP('',(#357,#358,#359,#360));
#102=EDGE_LOOP('',(#361,#362,#363,#364));
#103=EDGE_LOOP('',(#365,#366,#367,#368));
#104=EDGE_LOOP('',(#369,#370,#371,#372));
#105=EDGE_LOOP('',(#373,#374,#375,#376));
#106=EDGE_LOOP('',(#377,#378,#379,#380,#381,#382,#383,#384));
#107=EDGE_LOOP('',(#385));
#108=EDGE_LOOP('',(#386));
#109=EDGE_LOOP('',(#387));
#110=EDGE_LOOP('',(#388));
#111=EDGE_LOOP('',(#389,#390,#391,#392,#393,#394,#395,#396));
#112=EDGE_LOOP('',(#397,#398,#399,#400,#401,#402,#403,#404));
#113=EDGE_LOOP('',(#405));
#114=EDGE_LOOP('',(#406));
#115=LINE('',#626,#151);
#116=LINE('',#628,#152);
#117=LINE('',#630,#153);
#118=LINE('',#631,#154);
#119=LINE('',#637,#155);
#120=LINE('',#640,#156);
#121=LINE('',#642,#157);
#122=LINE('',#643,#158);
#123=LINE('',#649,#159);
#124=LINE('',#652,#160);
#125=LINE('',#654,#161);
#126=LINE('',#655,#162);
#127=LINE('',#661,#163);
#128=LINE('',#664,#164);
#129=LINE('',#666,#165);
#130=LINE('',#667,#166);
#131=LINE('',#680,#167);
#132=LINE('',#685,#168);
#133=LINE('',#690,#169);
#134=LINE('',#695,#170);
#135=LINE('',#699,#171);
#136=LINE('',#701,#172);
#137=LINE('',#703,#173);
#138=LINE('',#704,#174);
#139=LINE('',#710,#175);
#140=LINE('',#713,#176);
#141=LINE('',#715,#177);
#142=LINE('',#716,#178);
#143=LINE('',#722,#179);
#144=LINE('',#725,#180);
#145=LINE('',#727,#181);
#146=LINE('',#728,#182);
#147=LINE('',#734,#183);
#148=LINE('',#737,#184);
#149=LINE('',#739,#185);
#150=LINE('',#740,#186);
#151=VECTOR('',#494,10.);
#152=VECTOR('',#495,10.);
#153=VECTOR('',#496,10.);
#154=VECTOR('',#497,10.);
#155=VECTOR('',#504,10.);
#156=VECTOR('',#507,10.);
#157=VECTOR('',#508,10.);
#158=VECTOR('',#509,10.);
#159=VECTOR('',#516,10.);
#160=VECTOR('',#519,10.);
#161=VECTOR('',#520,10.);
#162=VECTOR('',#521,10.);
#163=VECTOR('',#528,10.);
#164=VECTOR('',#531,10.);
#165=VECTOR('',#532,10.);
#166=VECTOR('',#533,10.);
#167=VECTOR('',#550,1.5);
#168=VECTOR('',#557,0.800000000000001);
#169=VECTOR('',#562,1.5);
#170=VECTOR('',#569,0.800000000000001);
#171=VECTOR('',#572,10.);
#172=VECTOR('',#573,10.);
#173=VECTOR('',#574,10.);
#174=VECTOR('',#575,10.);
#175=VECTOR('',#582,10.);
#176=VECTOR('',#585,10.);
#177=VECTOR('',#586,10.);
#178=VECTOR('',#587,10.);
#179=VECTOR('',#594,10.);
#180=VECTOR('',#597,10.);
#181=VECTOR('',#598,10.);
#182=VECTOR('',#599,10.);
#183=VECTOR('',#606,10.);
#184=VECTOR('',#609,10.);
#185=VECTOR('',#610,10.);
#186=VECTOR('',#611,10.);
#187=VERTEX_POINT('',#624);
#188=VERTEX_POINT('',#625);
#189=VERTEX_POINT('',#627);
#190=VERTEX_POINT('',#629);
#191=VERTEX_POINT('',#633);
#192=VERTEX_POINT('',#635);
#193=VERTEX_POINT('',#639);
#194=VERTEX_POINT('',#641);
#195=VERTEX_POINT('',#645);
#196=VERTEX_POINT('',#647);
#197=VERTEX_POINT('',#651);
#198=VERTEX_POINT('',#653);
#199=VERTEX_POINT('',#657);
#200=VERTEX_POINT('',#659);
#201=VERTEX_POINT('',#663);
#202=VERTEX_POINT('',#665);
#203=VERTEX_POINT('',#672);
#204=VERTEX_POINT('',#674);
#205=VERTEX_POINT('',#677);
#206=VERTEX_POINT('',#679);
#207=VERTEX_POINT('',#683);
#208=VERTEX_POINT('',#687);
#209=VERTEX_POINT('',#689);
#210=VERTEX_POINT('',#693);
#211=VERTEX_POINT('',#697);
#212=VERTEX_POINT('',#698);
#213=VERTEX_POINT('',#700);
#214=VERTEX_POINT('',#702);
#215=VERTEX_POINT('',#706);
#216=VERTEX_POINT('',#708);
#217=VERTEX_POINT('',#712);
#218=VERTEX_POINT('',#714);
#219=VERTEX_POINT('',#718);
#220=VERTEX_POINT('',#720);
#221=VERTEX_POINT('',#724);
#222=VERTEX_POINT('',#726);
#223=VERTEX_POINT('',#730);
#224=VERTEX_POINT('',#732);
#225=VERTEX_POINT('',#736);
#226=VERTEX_POINT('',#738);
#227=EDGE_CURVE('',#187,#188,#115,.T.);
#228=EDGE_CURVE('',#187,#189,#116,.T.);
#229=EDGE_CURVE('',#190,#189,#117,.T.);
#230=EDGE_CURVE('',#188,#190,#118,.T.);
#231=EDGE_CURVE('',#188,#191,#24,.T.);
#232=EDGE_CURVE('',#192,#190,#25,.T.);
#233=EDGE_CURVE('',#191,#192,#119,.T.);
#234=EDGE_CURVE('',#191,#193,#120,.T.);
#235=EDGE_CURVE('',#194,#192,#121,.T.);
#236=EDGE_CURVE('',#193,#194,#122,.T.);
#237=EDGE_CURVE('',#193,#195,#26,.T.);
#238=EDGE_CURVE('',#196,#194,#27,.T.);
#239=EDGE_CURVE('',#195,#196,#123,.T.);
#240=EDGE_CURVE('',#195,#197,#124,.T.);
#241=EDGE_CURVE('',#198,#196,#125,.T.);
#242=EDGE_CURVE('',#197,#198,#126,.T.);
#243=EDGE_CURVE('',#197,#199,#28,.T.);
#244=EDGE_CURVE('',#200,#198,#29,.T.);
#245=EDGE_CURVE('',#199,#200,#127,.T.);
#246=EDGE_CURVE('',#199,#201,#128,.T.);
#247=EDGE_CURVE('',#202,#200,#129,.T.);
#248=EDGE_CURVE('',#201,#202,#130,.T.);
#249=EDGE_CURVE('',#201,#187,#30,.T.);
#250=EDGE_CURVE('',#189,#202,#31,.T.);
#251=EDGE_CURVE('',#203,#203,#32,.T.);
#252=EDGE_CURVE('',#204,#204,#33,.T.);
#253=EDGE_CURVE('',#205,#205,#34,.T.);
#254=EDGE_CURVE('',#205,#206,#131,.T.);
#255=EDGE_CURVE('',#206,#206,#35,.T.);
#256=EDGE_CURVE('',#207,#207,#36,.T.);
#257=EDGE_CURVE('',#207,#204,#132,.T.);
#258=EDGE_CURVE('',#208,#208,#37,.T.);
#259=EDGE_CURVE('',#208,#209,#133,.T.);
#260=EDGE_CURVE('',#209,#209,#38,.T.);
#261=EDGE_CURVE('',#210,#210,#39,.T.);
#262=EDGE_CURVE('',#210,#203,#134,.T.);
#263=EDGE_CURVE('',#211,#212,#135,.T.);
#264=EDGE_CURVE('',#212,#213,#136,.T.);
#265=EDGE_CURVE('',#214,#213,#137,.T.);
#266=EDGE_CURVE('',#211,#214,#138,.T.);
#267=EDGE_CURVE('',#215,#211,#40,.T.);
#268=EDGE_CURVE('',#216,#214,#41,.T.);
#269=EDGE_CURVE('',#215,#216,#139,.T.);
#270=EDGE_CURVE('',#217,#215,#140,.T.);
#271=EDGE_CURVE('',#218,#216,#141,.T.);
#272=EDGE_CURVE('',#217,#218,#142,.T.);
#273=EDGE_CURVE('',#219,#217,#42,.T.);
#274=EDGE_CURVE('',#220,#218,#43,.T.);
#275=EDGE_CURVE('',#219,#220,#143,.T.);
#276=EDGE_CURVE('',#221,#219,#144,.T.);
#277=EDGE_CURVE('',#222,#220,#145,.T.);
#278=EDGE_CURVE('',#221,#222,#146,.T.);
#279=EDGE_CURVE('',#223,#221,#44,.T.);
#280=EDGE_CURVE('',#224,#222,#45,.T.);
#281=EDGE_CURVE('',#223,#224,#147,.T.);
#282=EDGE_CURVE('',#225,#223,#148,.T.);
#283=EDGE_CURVE('',#226,#224,#149,.T.);
#284=EDGE_CURVE('',#225,#226,#150,.T.);
#285=EDGE_CURVE('',#212,#225,#46,.T.);
#286=EDGE_CURVE('',#213,#226,#47,.T.);
#287=ORIENTED_EDGE('',*,*,#227,.F.);
#288=ORIENTED_EDGE('',*,*,#228,.T.);
#289=ORIENTED_EDGE('',*,*,#229,.F.);
#290=ORIENTED_EDGE('',*,*,#230,.F.);
#291=ORIENTED_EDGE('',*,*,#231,.F.);
#292=ORIENTED_EDGE('',*,*,#230,.T.);
#293=ORIENTED_EDGE('',*,*,#232,.F.);
#294=ORIENTED_EDGE('',*,*,#233,.F.);
#295=ORIENTED_EDGE('',*,*,#234,.F.);
#296=ORIENTED_EDGE('',*,*,#233,.T.);
#297=ORIENTED_EDGE('',*,*,#235,.F.);
#298=ORIENTED_EDGE('',*,*,#236,.F.);
#299=ORIENTED_EDGE('',*,*,#237,.F.);
#300=ORIENTED_EDGE('',*,*,#236,.T.);
#301=ORIENTED_EDGE('',*,*,#238,.F.);
#302=ORIENTED_EDGE('',*,*,#239,.F.);
#303=ORIENTED_EDGE('',*,*,#240,.F.);
#304=ORIENTED_EDGE('',*,*,#239,.T.);
#305=ORIENTED_EDGE('',*,*,#241,.F.);
#306=ORIENTED_EDGE('',*,*,#242,.F.);
#307=ORIENTED_EDGE('',*,*,#243,.F.);
#308=ORIENTED_EDGE('',*,*,#242,.T.);
#309=ORIENTED_EDGE('',*,*,#244,.F.);
#310=ORIENTED_EDGE('',*,*,#245,.F.);
#311=ORIENTED_EDGE('',*,*,#246,.F.);
#312=ORIENTED_EDGE('',*,*,#245,.T.);
#313=ORIENTED_EDGE('',*,*,#247,.F.);
#314=ORIENTED_EDGE('',*,*,#248,.F.);
#315=ORIENTED_EDGE('',*,*,#249,.F.);
#316=ORIENTED_EDGE('',*,*,#248,.T.);
#317=ORIENTED_EDGE('',*,*,#250,.F.);
#318=ORIENTED_EDGE('',*,*,#228,.F.);
#319=ORIENTED_EDGE('',*,*,#250,.T.);
#320=ORIENTED_EDGE('',*,*,#247,.T.);
#321=ORIENTED_EDGE('',*,*,#244,.T.);
#322=ORIENTED_EDGE('',*,*,#241,.T.);
#323=ORIENTED_EDGE('',*,*,#238,.T.);
#324=ORIENTED_EDGE('',*,*,#235,.T.);
#325=ORIENTED_EDGE('',*,*,#232,.T.);
#326=ORIENTED_EDGE('',*,*,#229,.T.);
#327=ORIENTED_EDGE('',*,*,#251,.T.);
#328=ORIENTED_EDGE('',*,*,#252,.T.);
#329=ORIENTED_EDGE('',*,*,#253,.F.);
#330=ORIENTED_EDGE('',*,*,#254,.T.);
#331=ORIENTED_EDGE('',*,*,#255,.T.);
#332=ORIENTED_EDGE('',*,*,#254,.F.);
#333=ORIENTED_EDGE('',*,*,#256,.F.);
#334=ORIENTED_EDGE('',*,*,#257,.T.);
#335=ORIENTED_EDGE('',*,*,#252,.F.);
#336=ORIENTED_EDGE('',*,*,#257,.F.);
#337=ORIENTED_EDGE('',*,*,#258,.F.);
#338=ORIENTED_EDGE('',*,*,#259,.T.);
#339=ORIENTED_EDGE('',*,*,#260,.T.);
#340=ORIENTED_EDGE('',*,*,#259,.F.);
#341=ORIENTED_EDGE('',*,*,#261,.F.);
#342=ORIENTED_EDGE('',*,*,#262,.T.);
#343=ORIENTED_EDGE('',*,*,#251,.F.);
#344=ORIENTED_EDGE('',*,*,#262,.F.);
#345=ORIENTED_EDGE('',*,*,#263,.T.);
#346=ORIENTED_EDGE('',*,*,#264,.T.);
#347=ORIENTED_EDGE('',*,*,#265,.F.);
#348=ORIENTED_EDGE('',*,*,#266,.F.);
#349=ORIENTED_EDGE('',*,*,#267,.T.);
#350=ORIENTED_EDGE('',*,*,#266,.T.);
#351=ORIENTED_EDGE('',*,*,#268,.F.);
#352=ORIENTED_EDGE('',*,*,#269,.F.);
#353=ORIENTED_EDGE('',*,*,#270,.T.);
#354=ORIENTED_EDGE('',*,*,#269,.T.);
#355=ORIENTED_EDGE('',*,*,#271,.F.);
#356=ORIENTED_EDGE('',*,*,#272,.F.);
#357=ORIENTED_EDGE('',*,*,#273,.T.);
#358=ORIENTED_EDGE('',*,*,#272,.T.);
#359=ORIENTED_EDGE('',*,*,#274,.F.);
#360=ORIENTED_EDGE('',*,*,#275,.F.);
#361=ORIENTED_EDGE('',*,*,#276,.T.);
#362=ORIENTED_EDGE('',*,*,#275,.T.);
#363=ORIENTED_EDGE('',*,*,#277,.F.);
#364=ORIENTED_EDGE('',*,*,#278,.F.);
#365=ORIENTED_EDGE('',*,*,#279,.T.);
#366=ORIENTED_EDGE('',*,*,#278,.T.);
#367=ORIENTED_EDGE('',*,*,#280,.F.);
#368=ORIENTED_EDGE('',*,*,#281,.F.);
#369=ORIENTED_EDGE('',*,*,#282,.T.);
#370=ORIENTED_EDGE('',*,*,#281,.T.);
#371=ORIENTED_EDGE('',*,*,#283,.F.);
#372=ORIENTED_EDGE('',*,*,#284,.F.);
#373=ORIENTED_EDGE('',*,*,#285,.T.);
#374=ORIENTED_EDGE('',*,*,#284,.T.);
#375=ORIENTED_EDGE('',*,*,#286,.F.);
#376=ORIENTED_EDGE('',*,*,#264,.F.);
#377=ORIENTED_EDGE('',*,*,#286,.T.);
#378=ORIENTED_EDGE('',*,*,#283,.T.);
#379=ORIENTED_EDGE('',*,*,#280,.T.);
#380=ORIENTED_EDGE('',*,*,#277,.T.);
#381=ORIENTED_EDGE('',*,*,#274,.T.);
#382=ORIENTED_EDGE('',*,*,#271,.T.);
#383=ORIENTED_EDGE('',*,*,#268,.T.);
#384=ORIENTED_EDGE('',*,*,#265,.T.);
#385=ORIENTED_EDGE('',*,*,#261,.T.);
#386=ORIENTED_EDGE('',*,*,#258,.T.);
#387=ORIENTED_EDGE('',*,*,#256,.T.);
#388=ORIENTED_EDGE('',*,*,#253,.T.);
#389=ORIENTED_EDGE('',*,*,#285,.F.);
#390=ORIENTED_EDGE('',*,*,#263,.F.);
#391=ORIENTED_EDGE('',*,*,#267,.F.);
#392=ORIENTED_EDGE('',*,*,#270,.F.);
#393=ORIENTED_EDGE('',*,*,#273,.F.);
#394=ORIENTED_EDGE('',*,*,#276,.F.);
#395=ORIENTED_EDGE('',*,*,#279,.F.);
#396=ORIENTED_EDGE('',*,*,#282,.F.);
#397=ORIENTED_EDGE('',*,*,#227,.T.);
#398=ORIENTED_EDGE('',*,*,#231,.T.);
#399=ORIENTED_EDGE('',*,*,#234,.T.);
#400=ORIENTED_EDGE('',*,*,#237,.T.);
#401=ORIENTED_EDGE('',*,*,#240,.T.);
#402=ORIENTED_EDGE('',*,*,#243,.T.);
#403=ORIENTED_EDGE('',*,*,#246,.T.);
#404=ORIENTED_EDGE('',*,*,#249,.T.);
#405=ORIENTED_EDGE('',*,*,#260,.F.);
#406=ORIENTED_EDGE('',*,*,#255,.F.);
#407=PLANE('',#443);
#408=PLANE('',#447);
#409=PLANE('',#451);
#410=PLANE('',#455);
#411=PLANE('',#459);
#412=PLANE('',#472);
#413=PLANE('',#476);
#414=PLANE('',#480);
#415=PLANE('',#484);
#416=PLANE('',#488);
#417=PLANE('',#489);
#418=ADVANCED_FACE('',(#60),#407,.T.);
#419=ADVANCED_FACE('',(#61),#48,.T.);
#420=ADVANCED_FACE('',(#62),#408,.T.);
#421=ADVANCED_FACE('',(#63),#49,.T.);
#422=ADVANCED_FACE('',(#64),#409,.T.);
#423=ADVANCED_FACE('',(#65),#50,.T.);
#424=ADVANCED_FACE('',(#66),#410,.T.);
#425=ADVANCED_FACE('',(#67),#51,.T.);
#426=ADVANCED_FACE('',(#68,#15,#16),#411,.F.);
#427=ADVANCED_FACE('',(#69),#52,.F.);
#428=ADVANCED_FACE('',(#70),#53,.F.);
#429=ADVANCED_FACE('',(#71),#54,.F.);
#430=ADVANCED_FACE('',(#72),#55,.F.);
#431=ADVANCED_FACE('',(#73),#412,.T.);
#432=ADVANCED_FACE('',(#74),#56,.T.);
#433=ADVANCED_FACE('',(#75),#413,.T.);
#434=ADVANCED_FACE('',(#76),#57,.T.);
#435=ADVANCED_FACE('',(#77),#414,.T.);
#436=ADVANCED_FACE('',(#78),#58,.T.);
#437=ADVANCED_FACE('',(#79),#415,.T.);
#438=ADVANCED_FACE('',(#80),#59,.T.);
#439=ADVANCED_FACE('',(#81,#17,#18,#19,#20),#416,.T.);
#440=ADVANCED_FACE('',(#82,#21,#22,#23),#417,.F.);
#441=CLOSED_SHELL('',(#418,#419,#420,#421,#422,#423,#424,#425,#426,#427,
#428,#429,#430,#431,#432,#433,#434,#435,#436,#437,#438,#439,#440));
#442=AXIS2_PLACEMENT_3D('',#622,#490,#491);
#443=AXIS2_PLACEMENT_3D('',#623,#492,#493);
#444=AXIS2_PLACEMENT_3D('',#632,#498,#499);
#445=AXIS2_PLACEMENT_3D('',#634,#500,#501);
#446=AXIS2_PLACEMENT_3D('',#636,#502,#503);
#447=AXIS2_PLACEMENT_3D('',#638,#505,#506);
#448=AXIS2_PLACEMENT_3D('',#644,#510,#511);
#449=AXIS2_PLACEMENT_3D('',#646,#512,#513);
#450=AXIS2_PLACEMENT_3D('',#648,#514,#515);
#451=AXIS2_PLACEMENT_3D('',#650,#517,#518);
#452=AXIS2_PLACEMENT_3D('',#656,#522,#523);
#453=AXIS2_PLACEMENT_3D('',#658,#524,#525);
#454=AXIS2_PLACEMENT_3D('',#660,#526,#527);
#455=AXIS2_PLACEMENT_3D('',#662,#529,#530);
#456=AXIS2_PLACEMENT_3D('',#668,#534,#535);
#457=AXIS2_PLACEMENT_3D('',#669,#536,#537);
#458=AXIS2_PLACEMENT_3D('',#670,#538,#539);
#459=AXIS2_PLACEMENT_3D('',#671,#540,#541);
#460=AXIS2_PLACEMENT_3D('',#673,#542,#543);
#461=AXIS2_PLACEMENT_3D('',#675,#544,#545);
#462=AXIS2_PLACEMENT_3D('',#676,#546,#547);
#463=AXIS2_PLACEMENT_3D('',#678,#548,#549);
#464=AXIS2_PLACEMENT_3D('',#681,#551,#552);
#465=AXIS2_PLACEMENT_3D('',#682,#553,#554);
#466=AXIS2_PLACEMENT_3D('',#684,#555,#556);
#467=AXIS2_PLACEMENT_3D('',#686,#558,#559);
#468=AXIS2_PLACEMENT_3D('',#688,#560,#561);
#469=AXIS2_PLACEMENT_3D('',#691,#563,#564);
#470=AXIS2_PLACEMENT_3D('',#692,#565,#566);
#471=AXIS2_PLACEMENT_3D('',#694,#567,#568);
#472=AXIS2_PLACEMENT_3D('',#696,#570,#571);
#473=AXIS2_PLACEMENT_3D('',#705,#576,#577);
#474=AXIS2_PLACEMENT_3D('',#707,#578,#579);
#475=AXIS2_PLACEMENT_3D('',#709,#580,#581);
#476=AXIS2_PLACEMENT_3D('',#711,#583,#584);
#477=AXIS2_PLACEMENT_3D('',#717,#588,#589);
#478=AXIS2_PLACEMENT_3D('',#719,#590,#591);
#479=AXIS2_PLACEMENT_3D('',#721,#592,#593);
#480=AXIS2_PLACEMENT_3D('',#723,#595,#596);
#481=AXIS2_PLACEMENT_3D('',#729,#600,#601);
#482=AXIS2_PLACEMENT_3D('',#731,#602,#603);
#483=AXIS2_PLACEMENT_3D('',#733,#604,#605);
#484=AXIS2_PLACEMENT_3D('',#735,#607,#608);
#485=AXIS2_PLACEMENT_3D('',#741,#612,#613);
#486=AXIS2_PLACEMENT_3D('',#742,#614,#615);
#487=AXIS2_PLACEMENT_3D('',#743,#616,#617);
#488=AXIS2_PLACEMENT_3D('',#744,#618,#619);
#489=AXIS2_PLACEMENT_3D('',#745,#620,#621);
#490=DIRECTION('axis',(0.,0.,1.));
#491=DIRECTION('refdir',(1.,0.,0.));
#492=DIRECTION('center_axis',(1.,0.,-8.88178419700125E-16));
#493=DIRECTION('ref_axis',(8.88178419700125E-16,0.,1.));
#494=DIRECTION('',(-8.88178419700125E-16,0.,-1.));
#495=DIRECTION('',(0.,-1.,0.));
#496=DIRECTION('',(8.88178419700125E-16,0.,1.));
#497=DIRECTION('',(0.,-1.,0.));
#498=DIRECTION('center_axis',(0.,-1.,0.));
#499=DIRECTION('ref_axis',(1.,0.,4.67462326157963E-15));
#500=DIRECTION('center_axis',(0.,1.,0.));
#501=DIRECTION('ref_axis',(1.,0.,4.67462326157963E-15));
#502=DIRECTION('center_axis',(0.,-1.,0.));
#503=DIRECTION('ref_axis',(1.,0.,4.67462326157963E-15));
#504=DIRECTION('',(0.,-1.,0.));
#505=DIRECTION('center_axis',(0.,0.,-1.));
#506=DIRECTION('ref_axis',(1.,0.,0.));
#507=DIRECTION('',(-1.,0.,0.));
#508=DIRECTION('',(1.,0.,0.));
#509=DIRECTION('',(0.,-1.,0.));
#510=DIRECTION('center_axis',(0.,-1.,0.));
#511=DIRECTION('ref_axis',(3.50596744618471E-15,0.,-1.));
#512=DIRECTION('center_axis',(0.,1.,0.));
#513=DIRECTION('ref_axis',(3.50596744618471E-15,0.,-1.));
#514=DIRECTION('center_axis',(0.,-1.,0.));
#515=DIRECTION('ref_axis',(3.50596744618471E-15,0.,-1.));
#516=DIRECTION('',(0.,-1.,0.));
#517=DIRECTION('center_axis',(-1.,0.,2.368475785867E-15));
#518=DIRECTION('ref_axis',(-2.368475785867E-15,0.,-1.));
#519=DIRECTION('',(2.368475785867E-15,0.,1.));
#520=DIRECTION('',(-2.368475785867E-15,0.,-1.));
#521=DIRECTION('',(0.,-1.,0.));
#522=DIRECTION('center_axis',(0.,-1.,0.));
#523=DIRECTION('ref_axis',(-1.,0.,7.01193489236939E-15));
#524=DIRECTION('center_axis',(0.,1.,0.));
#525=DIRECTION('ref_axis',(-1.,0.,7.01193489236939E-15));
#526=DIRECTION('center_axis',(0.,-1.,0.));
#527=DIRECTION('ref_axis',(-1.,0.,7.01193489236939E-15));
#528=DIRECTION('',(0.,-1.,0.));
#529=DIRECTION('center_axis',(0.,0.,1.));
#530=DIRECTION('ref_axis',(-1.,0.,0.));
#531=DIRECTION('',(1.,0.,0.));
#532=DIRECTION('',(-1.,0.,0.));
#533=DIRECTION('',(0.,-1.,0.));
#534=DIRECTION('center_axis',(0.,-1.,0.));
#535=DIRECTION('ref_axis',(2.33731163078979E-15,0.,1.));
#536=DIRECTION('center_axis',(0.,1.,0.));
#537=DIRECTION('ref_axis',(2.33731163078979E-15,0.,1.));
#538=DIRECTION('center_axis',(0.,-1.,0.));
#539=DIRECTION('ref_axis',(2.33731163078979E-15,0.,1.));
#540=DIRECTION('center_axis',(0.,1.,0.));
#541=DIRECTION('ref_axis',(-1.,0.,0.));
#542=DIRECTION('center_axis',(0.,1.,0.));
#543=DIRECTION('ref_axis',(-1.,0.,0.));
#544=DIRECTION('center_axis',(0.,1.,0.));
#545=DIRECTION('ref_axis',(-1.,0.,0.));
#546=DIRECTION('center_axis',(0.,1.,0.));
#547=DIRECTION('ref_axis',(-1.,0.,0.));
#548=DIRECTION('center_axis',(0.,-1.,0.));
#549=DIRECTION('ref_axis',(-1.,0.,0.));
#550=DIRECTION('',(0.,-1.,0.));
#551=DIRECTION('center_axis',(0.,-1.,0.));
#552=DIRECTION('ref_axis',(-1.,0.,0.));
#553=DIRECTION('center_axis',(0.,1.,0.));
#554=DIRECTION('ref_axis',(-1.,0.,0.));
#555=DIRECTION('center_axis',(0.,-1.,0.));
#556=DIRECTION('ref_axis',(-1.,0.,0.));
#557=DIRECTION('',(0.,-1.,0.));
#558=DIRECTION('center_axis',(0.,1.,0.));
#559=DIRECTION('ref_axis',(-1.,0.,0.));
#560=DIRECTION('center_axis',(0.,-1.,0.));
#561=DIRECTION('ref_axis',(-1.,0.,0.));
#562=DIRECTION('',(0.,-1.,0.));
#563=DIRECTION('center_axis',(0.,-1.,0.));
#564=DIRECTION('ref_axis',(-1.,0.,0.));
#565=DIRECTION('center_axis',(0.,1.,0.));
#566=DIRECTION('ref_axis',(-1.,0.,0.));
#567=DIRECTION('center_axis',(0.,-1.,0.));
#568=DIRECTION('ref_axis',(-1.,0.,0.));
#569=DIRECTION('',(0.,-1.,0.));
#570=DIRECTION('center_axis',(-1.,0.,2.22044604925031E-16));
#571=DIRECTION('ref_axis',(2.22044604925031E-16,0.,1.));
#572=DIRECTION('',(2.22044604925031E-16,0.,1.));
#573=DIRECTION('',(0.,1.,0.));
#574=DIRECTION('',(2.22044604925031E-16,0.,1.));
#575=DIRECTION('',(0.,1.,0.));
#576=DIRECTION('center_axis',(0.,1.,0.));
#577=DIRECTION('ref_axis',(0.,0.,-1.));
#578=DIRECTION('center_axis',(0.,1.,0.));
#579=DIRECTION('ref_axis',(0.,0.,-1.));
#580=DIRECTION('center_axis',(0.,1.,0.));
#581=DIRECTION('ref_axis',(0.,0.,-1.));
#582=DIRECTION('',(0.,1.,0.));
#583=DIRECTION('center_axis',(-1.11022302462516E-16,0.,-1.));
#584=DIRECTION('ref_axis',(-1.,0.,1.11022302462516E-16));
#585=DIRECTION('',(-1.,0.,1.11022302462516E-16));
#586=DIRECTION('',(-1.,0.,1.11022302462516E-16));
#587=DIRECTION('',(0.,1.,0.));
#588=DIRECTION('center_axis',(0.,1.,0.));
#589=DIRECTION('ref_axis',(1.,0.,0.));
#590=DIRECTION('center_axis',(0.,1.,0.));
#591=DIRECTION('ref_axis',(1.,0.,0.));
#592=DIRECTION('center_axis',(0.,1.,0.));
#593=DIRECTION('ref_axis',(1.,0.,0.));
#594=DIRECTION('',(0.,1.,0.));
#595=DIRECTION('center_axis',(1.,0.,4.44089209850062E-16));
#596=DIRECTION('ref_axis',(4.44089209850062E-16,0.,-1.));
#597=DIRECTION('',(4.44089209850062E-16,0.,-1.));
#598=DIRECTION('',(4.44089209850062E-16,0.,-1.));
#599=DIRECTION('',(0.,1.,0.));
#600=DIRECTION('center_axis',(0.,1.,0.));
#601=DIRECTION('ref_axis',(0.,0.,1.));
#602=DIRECTION('center_axis',(0.,1.,0.));
#603=DIRECTION('ref_axis',(0.,0.,1.));
#604=DIRECTION('center_axis',(0.,1.,0.));
#605=DIRECTION('ref_axis',(0.,0.,1.));
#606=DIRECTION('',(0.,1.,0.));
#607=DIRECTION('center_axis',(0.,0.,1.));
#608=DIRECTION('ref_axis',(1.,0.,0.));
#609=DIRECTION('',(1.,0.,0.));
#610=DIRECTION('',(1.,0.,0.));
#611=DIRECTION('',(0.,1.,0.));
#612=DIRECTION('center_axis',(0.,1.,0.));
#613=DIRECTION('ref_axis',(-1.,0.,-1.77635683940025E-15));
#614=DIRECTION('center_axis',(0.,1.,0.));
#615=DIRECTION('ref_axis',(-1.,0.,-1.77635683940025E-15));
#616=DIRECTION('center_axis',(0.,1.,0.));
#617=DIRECTION('ref_axis',(-1.,0.,-1.77635683940025E-15));
#618=DIRECTION('center_axis',(0.,1.,0.));
#619=DIRECTION('ref_axis',(-1.,0.,0.));
#620=DIRECTION('center_axis',(0.,1.,0.));
#621=DIRECTION('ref_axis',(-1.,0.,0.));
#622=CARTESIAN_POINT('',(0.,0.,0.));
#623=CARTESIAN_POINT('Origin',(31.4000003278259,7.,21.6474125202911));
#624=CARTESIAN_POINT('',(31.4000003278259,7.,36.6474125202911));
#625=CARTESIAN_POINT('',(31.4000003278259,7.,21.6474125202911));
#626=CARTESIAN_POINT('',(31.4000003278259,7.,25.3974125202911));
#627=CARTESIAN_POINT('',(31.4000003278259,1.6,36.6474125202911));
#628=CARTESIAN_POINT('',(31.4000003278259,7.,36.6474125202911));
#629=CARTESIAN_POINT('',(31.4000003278259,1.6,21.6474125202911));
#630=CARTESIAN_POINT('',(31.4000003278259,1.6,36.6474125202911));
#631=CARTESIAN_POINT('',(31.4000003278259,7.,21.6474125202911));
#632=CARTESIAN_POINT('Origin',(29.5000003278259,7.,21.6474125202911));
#633=CARTESIAN_POINT('',(29.5000003278259,7.,19.7474125202911));
#634=CARTESIAN_POINT('Origin',(29.5000003278259,7.,21.6474125202911));
#635=CARTESIAN_POINT('',(29.5000003278259,1.6,19.7474125202911));
#636=CARTESIAN_POINT('Origin',(29.5000003278259,1.6,21.6474125202911));
#637=CARTESIAN_POINT('',(29.5000003278259,7.,19.7474125202911));
#638=CARTESIAN_POINT('Origin',(16.5000003278259,7.,19.7474125202911));
#639=CARTESIAN_POINT('',(16.5000003278259,7.,19.7474125202911));
#640=CARTESIAN_POINT('',(19.7500003278259,7.,19.7474125202911));
#641=CARTESIAN_POINT('',(16.5000003278259,1.6,19.7474125202911));
#642=CARTESIAN_POINT('',(29.5000003278259,1.6,19.7474125202911));
#643=CARTESIAN_POINT('',(16.5000003278259,7.,19.7474125202911));
#644=CARTESIAN_POINT('Origin',(16.5000003278259,7.,21.6474125202911));
#645=CARTESIAN_POINT('',(14.6000003278259,7.,21.647412520291));
#646=CARTESIAN_POINT('Origin',(16.5000003278259,7.,21.6474125202911));
#647=CARTESIAN_POINT('',(14.6000003278259,1.6,21.647412520291));
#648=CARTESIAN_POINT('Origin',(16.5000003278259,1.6,21.6474125202911));
#649=CARTESIAN_POINT('',(14.6000003278259,7.,21.647412520291));
#650=CARTESIAN_POINT('Origin',(14.6000003278259,7.,36.6474125202911));
#651=CARTESIAN_POINT('',(14.6000003278259,7.,36.6474125202911));
#652=CARTESIAN_POINT('',(14.6000003278259,7.,32.8974125202911));
#653=CARTESIAN_POINT('',(14.6000003278259,1.6,36.6474125202911));
#654=CARTESIAN_POINT('',(14.6000003278259,1.6,21.647412520291));
#655=CARTESIAN_POINT('',(14.6000003278259,7.,36.6474125202911));
#656=CARTESIAN_POINT('Origin',(16.5000003278259,7.,36.6474125202911));
#657=CARTESIAN_POINT('',(16.5000003278259,7.,38.5474125202911));
#658=CARTESIAN_POINT('Origin',(16.5000003278259,7.,36.6474125202911));
#659=CARTESIAN_POINT('',(16.5000003278259,1.6,38.5474125202911));
#660=CARTESIAN_POINT('Origin',(16.5000003278259,1.6,36.6474125202911));
#661=CARTESIAN_POINT('',(16.5000003278259,7.,38.5474125202911));
#662=CARTESIAN_POINT('Origin',(29.5000003278259,7.,38.5474125202911));
#663=CARTESIAN_POINT('',(29.5000003278259,7.,38.5474125202911));
#664=CARTESIAN_POINT('',(26.2500003278259,7.,38.5474125202911));
#665=CARTESIAN_POINT('',(29.5000003278259,1.6,38.5474125202911));
#666=CARTESIAN_POINT('',(16.5000003278259,1.6,38.5474125202911));
#667=CARTESIAN_POINT('',(29.5000003278259,7.,38.5474125202911));
#668=CARTESIAN_POINT('Origin',(29.5000003278259,7.,36.6474125202911));
#669=CARTESIAN_POINT('Origin',(29.5000003278259,7.,36.6474125202911));
#670=CARTESIAN_POINT('Origin',(29.5000003278259,1.6,36.6474125202911));
#671=CARTESIAN_POINT('Origin',(23.0000003278259,1.6,29.1474125202911));
#672=CARTESIAN_POINT('',(29.8000003278259,1.6,36.1474125202911));
#673=CARTESIAN_POINT('Origin',(29.0000003278259,1.6,36.1474125202911));
#674=CARTESIAN_POINT('',(17.8000003278259,1.6,24.1474125202911));
#675=CARTESIAN_POINT('Origin',(17.0000003278259,1.6,24.1474125202911));
#676=CARTESIAN_POINT('Origin',(34.0000003278259,7.,21.8140791869577));
#677=CARTESIAN_POINT('',(35.5000003278259,7.6,21.8140791869577));
#678=CARTESIAN_POINT('Origin',(34.0000003278259,7.6,21.8140791869577));
#679=CARTESIAN_POINT('',(35.5000003278259,7.,21.8140791869577));
#680=CARTESIAN_POINT('',(35.5000003278259,7.,21.8140791869577));
#681=CARTESIAN_POINT('Origin',(34.0000003278259,7.,21.8140791869577));
#682=CARTESIAN_POINT('Origin',(17.0000003278259,7.,24.1474125202911));
#683=CARTESIAN_POINT('',(17.8000003278259,7.6,24.1474125202911));
#684=CARTESIAN_POINT('Origin',(17.0000003278259,7.6,24.1474125202911));
#685=CARTESIAN_POINT('',(17.8000003278259,7.,24.1474125202911));
#686=CARTESIAN_POINT('Origin',(12.0000003278259,7.,36.4807458536244));
#687=CARTESIAN_POINT('',(13.5000003278259,7.6,36.4807458536244));
#688=CARTESIAN_POINT('Origin',(12.0000003278259,7.6,36.4807458536244));
#689=CARTESIAN_POINT('',(13.5000003278259,7.,36.4807458536244));
#690=CARTESIAN_POINT('',(13.5000003278259,7.,36.4807458536244));
#691=CARTESIAN_POINT('Origin',(12.0000003278259,7.,36.4807458536244));
#692=CARTESIAN_POINT('Origin',(29.0000003278259,7.,36.1474125202911));
#693=CARTESIAN_POINT('',(29.8000003278259,7.6,36.1474125202911));
#694=CARTESIAN_POINT('Origin',(29.0000003278259,7.6,36.1474125202911));
#695=CARTESIAN_POINT('',(29.8000003278259,7.,36.1474125202911));
#696=CARTESIAN_POINT('Origin',(8.0000003278259,7.,24.1474125202911));
#697=CARTESIAN_POINT('',(8.0000003278259,7.,24.1474125202911));
#698=CARTESIAN_POINT('',(8.0000003278259,7.,34.1474125202911));
#699=CARTESIAN_POINT('',(8.0000003278259,7.,24.1474125202911));
#700=CARTESIAN_POINT('',(8.0000003278259,7.6,34.1474125202911));
#701=CARTESIAN_POINT('',(8.0000003278259,7.,34.1474125202911));
#702=CARTESIAN_POINT('',(8.0000003278259,7.6,24.1474125202911));
#703=CARTESIAN_POINT('',(8.0000003278259,7.6,24.1474125202911));
#704=CARTESIAN_POINT('',(8.0000003278259,7.,24.1474125202911));
#705=CARTESIAN_POINT('Origin',(13.0000003278259,7.,24.1474125202911));
#706=CARTESIAN_POINT('',(13.0000003278259,7.,19.1474125202911));
#707=CARTESIAN_POINT('Origin',(13.0000003278259,7.,24.1474125202911));
#708=CARTESIAN_POINT('',(13.0000003278259,7.6,19.1474125202911));
#709=CARTESIAN_POINT('Origin',(13.0000003278259,7.6,24.1474125202911));
#710=CARTESIAN_POINT('',(13.0000003278259,7.,19.1474125202911));
#711=CARTESIAN_POINT('Origin',(33.0000003278259,7.,19.1474125202911));
#712=CARTESIAN_POINT('',(33.0000003278259,7.,19.1474125202911));
#713=CARTESIAN_POINT('',(33.0000003278259,7.,19.1474125202911));
#714=CARTESIAN_POINT('',(33.0000003278259,7.6,19.1474125202911));
#715=CARTESIAN_POINT('',(33.0000003278259,7.6,19.1474125202911));
#716=CARTESIAN_POINT('',(33.0000003278259,7.,19.1474125202911));
#717=CARTESIAN_POINT('Origin',(33.0000003278259,7.,24.1474125202911));
#718=CARTESIAN_POINT('',(38.0000003278259,7.,24.1474125202911));
#719=CARTESIAN_POINT('Origin',(33.0000003278259,7.,24.1474125202911));
#720=CARTESIAN_POINT('',(38.0000003278259,7.6,24.1474125202911));
#721=CARTESIAN_POINT('Origin',(33.0000003278259,7.6,24.1474125202911));
#722=CARTESIAN_POINT('',(38.0000003278259,7.,24.1474125202911));
#723=CARTESIAN_POINT('Origin',(38.0000003278259,7.,34.1474125202911));
#724=CARTESIAN_POINT('',(38.0000003278259,7.,34.1474125202911));
#725=CARTESIAN_POINT('',(38.0000003278259,7.,34.1474125202911));
#726=CARTESIAN_POINT('',(38.0000003278259,7.6,34.1474125202911));
#727=CARTESIAN_POINT('',(38.0000003278259,7.6,34.1474125202911));
#728=CARTESIAN_POINT('',(38.0000003278259,7.,34.1474125202911));
#729=CARTESIAN_POINT('Origin',(33.0000003278259,7.,34.1474125202911));
#730=CARTESIAN_POINT('',(33.0000003278259,7.,39.1474125202911));
#731=CARTESIAN_POINT('Origin',(33.0000003278259,7.,34.1474125202911));
#732=CARTESIAN_POINT('',(33.0000003278259,7.6,39.1474125202911));
#733=CARTESIAN_POINT('Origin',(33.0000003278259,7.6,34.1474125202911));
#734=CARTESIAN_POINT('',(33.0000003278259,7.,39.1474125202911));
#735=CARTESIAN_POINT('Origin',(13.0000003278259,7.,39.1474125202911));
#736=CARTESIAN_POINT('',(13.0000003278259,7.,39.1474125202911));
#737=CARTESIAN_POINT('',(13.0000003278259,7.,39.1474125202911));
#738=CARTESIAN_POINT('',(13.0000003278259,7.6,39.1474125202911));
#739=CARTESIAN_POINT('',(13.0000003278259,7.6,39.1474125202911));
#740=CARTESIAN_POINT('',(13.0000003278259,7.,39.1474125202911));
#741=CARTESIAN_POINT('Origin',(13.0000003278259,7.,34.1474125202911));
#742=CARTESIAN_POINT('Origin',(13.0000003278259,7.,34.1474125202911));
#743=CARTESIAN_POINT('Origin',(13.0000003278259,7.6,34.1474125202911));
#744=CARTESIAN_POINT('Origin',(23.0000003278259,7.6,29.1474125202911));
#745=CARTESIAN_POINT('Origin',(23.0000003278259,7.,29.1474125202911));
#746=UNCERTAINTY_MEASURE_WITH_UNIT(LENGTH_MEASURE(0.01),#750,
'DISTANCE_ACCURACY_VALUE',
'Maximum model space distance between geometric entities at asserted c
onnectivities');
#747=UNCERTAINTY_MEASURE_WITH_UNIT(LENGTH_MEASURE(0.01),#750,
'DISTANCE_ACCURACY_VALUE',
'Maximum model space distance between geometric entities at asserted c
onnectivities');
#748=(
GEOMETRIC_REPRESENTATION_CONTEXT(3)
GLOBAL_UNCERTAINTY_ASSIGNED_CONTEXT((#746))
GLOBAL_UNIT_ASSIGNED_CONTEXT((#750,#751,#752))
REPRESENTATION_CONTEXT('','3D')
);
#749=(
GEOMETRIC_REPRESENTATION_CONTEXT(3)
GLOBAL_UNCERTAINTY_ASSIGNED_CONTEXT((#747))
GLOBAL_UNIT_ASSIGNED_CONTEXT((#750,#751,#752))
REPRESENTATION_CONTEXT('','3D')
);
#750=(
LENGTH_UNIT()
NAMED_UNIT(*)
SI_UNIT(.MILLI.,.METRE.)
);
#751=(
NAMED_UNIT(*)
PLANE_ANGLE_UNIT()
SI_UNIT($,.RADIAN.)
);
#752=(
NAMED_UNIT(*)
SI_UNIT($,.STERADIAN.)
SOLID_ANGLE_UNIT()
);
#753=SHAPE_DEFINITION_REPRESENTATION(#754,#755);
#754=PRODUCT_DEFINITION_SHAPE('',$,#757);
#755=SHAPE_REPRESENTATION('',(#442),#748);
#756=PRODUCT_DEFINITION_CONTEXT('part definition',#761,'design');
#757=PRODUCT_DEFINITION('\X2\683754C15E7353F0\X0\v2',
'\X2\683754C15E7353F0\X0\v2 v3',#758,#756);
#758=PRODUCT_DEFINITION_FORMATION('',$,#763);
#759=PRODUCT_RELATED_PRODUCT_CATEGORY('\X2\683754C15E7353F0\X0\v2 v3',
'\X2\683754C15E7353F0\X0\v2 v3',(#763));
#760=APPLICATION_PROTOCOL_DEFINITION('international standard',
'automotive_design',2009,#761);
#761=APPLICATION_CONTEXT(
'Core Data for Automotive Mechanical Design Process');
#762=PRODUCT_CONTEXT('part definition',#761,'mechanical');
#763=PRODUCT('\X2\683754C15E7353F0\X0\v2','\X2\683754C15E7353F0\X0\v2 
v3',$,(#762));
#764=PRESENTATION_STYLE_ASSIGNMENT((#765));
#765=SURFACE_STYLE_USAGE(.BOTH.,#766);
#766=SURFACE_SIDE_STYLE('',(#767));
#767=SURFACE_STYLE_FILL_AREA(#768);
#768=FILL_AREA_STYLE('\X2\94A2\X0\ - \X2\7F0E5149\X0\',(#769));
#769=FILL_AREA_STYLE_COLOUR('\X2\94A2\X0\ - \X2\7F0E5149\X0\',#770);
#770=COLOUR_RGB('\X2\94A2\X0\ - \X2\7F0E5149\X0\',0.627450980392157,0.627450980392157,
0.627450980392157);
ENDSEC;
END-ISO-10303-21;
