ISO-10303-21;
HEADER;
/* Generated by software containing ST-Developer
 * from STEP Tools, Inc. (www.steptools.com) 
 */

FILE_DESCRIPTION(
/* description */ (''),
/* implementation_level */ '2;1');

FILE_NAME(
/* name */ '',
/* time_stamp */ '2026-02-18T23:24:31+08:00',
/* author */ (''),
/* organization */ (''),
/* preprocessor_version */ 'ST-DEVELOPER v20.1',
/* originating_system */ 'Autodesk Translation Framework v14.24.0.0',
/* authorisation */ '');

FILE_SCHEMA (('AUTOMOTIVE_DESIGN { 1 0 10303 214 3 1 1 }'));
ENDSEC;

DATA;
#10=MECHANICAL_DESIGN_GEOMETRIC_PRESENTATION_REPRESENTATION('',(#13),#2069);
#11=SHAPE_REPRESENTATION_RELATIONSHIP('SRR','None',#2076,#12);
#12=ADVANCED_BREP_SHAPE_REPRESENTATION('',(#14),#2068);
#13=STYLED_ITEM('',(#2085),#14);
#14=MANIFOLD_SOLID_BREP('\X2\5B9E4F53\X0\1',#1240);
#15=FACE_BOUND('',#207,.T.);
#16=FACE_BOUND('',#208,.T.);
#17=FACE_BOUND('',#209,.T.);
#18=FACE_BOUND('',#210,.T.);
#19=FACE_BOUND('',#211,.T.);
#20=FACE_BOUND('',#213,.T.);
#21=FACE_BOUND('',#214,.T.);
#22=FACE_BOUND('',#215,.T.);
#23=FACE_BOUND('',#216,.T.);
#24=FACE_BOUND('',#217,.T.);
#25=CYLINDRICAL_SURFACE('',#1270,0.999999999999988);
#26=CYLINDRICAL_SURFACE('',#1273,1.00000000000001);
#27=CYLINDRICAL_SURFACE('',#1283,0.999999999999996);
#28=CYLINDRICAL_SURFACE('',#1286,0.999999999999992);
#29=CYLINDRICAL_SURFACE('',#1289,0.999999999999996);
#30=CYLINDRICAL_SURFACE('',#1292,0.999999999999985);
#31=CYLINDRICAL_SURFACE('',#1301,1.00000000000001);
#32=CYLINDRICAL_SURFACE('',#1304,0.999999999999996);
#33=CYLINDRICAL_SURFACE('',#1307,0.999999999999999);
#34=CYLINDRICAL_SURFACE('',#1310,1.00000000000002);
#35=CYLINDRICAL_SURFACE('',#1319,0.999999999999996);
#36=CYLINDRICAL_SURFACE('',#1322,1.);
#37=CYLINDRICAL_SURFACE('',#1325,0.999999999999994);
#38=CYLINDRICAL_SURFACE('',#1328,1.);
#39=CYLINDRICAL_SURFACE('',#1332,0.800000000000001);
#40=CYLINDRICAL_SURFACE('',#1335,0.800000000000001);
#41=CYLINDRICAL_SURFACE('',#1338,1.00000000000001);
#42=CYLINDRICAL_SURFACE('',#1340,1.);
#43=CYLINDRICAL_SURFACE('',#1342,1.);
#44=CYLINDRICAL_SURFACE('',#1347,0.999999999999996);
#45=CYLINDRICAL_SURFACE('',#1350,1.);
#46=PLANE('',#1263);
#47=PLANE('',#1268);
#48=PLANE('',#1269);
#49=PLANE('',#1272);
#50=PLANE('',#1275);
#51=PLANE('',#1276);
#52=PLANE('',#1281);
#53=PLANE('',#1282);
#54=PLANE('',#1285);
#55=PLANE('',#1288);
#56=PLANE('',#1291);
#57=PLANE('',#1294);
#58=PLANE('',#1299);
#59=PLANE('',#1300);
#60=PLANE('',#1303);
#61=PLANE('',#1306);
#62=PLANE('',#1309);
#63=PLANE('',#1312);
#64=PLANE('',#1317);
#65=PLANE('',#1318);
#66=PLANE('',#1321);
#67=PLANE('',#1324);
#68=PLANE('',#1327);
#69=PLANE('',#1330);
#70=PLANE('',#1331);
#71=PLANE('',#1344);
#72=PLANE('',#1345);
#73=PLANE('',#1346);
#74=PLANE('',#1349);
#75=PLANE('',#1352);
#76=PLANE('',#1353);
#77=PLANE('',#1354);
#78=PLANE('',#1355);
#79=PLANE('',#1356);
#80=PLANE('',#1357);
#81=PLANE('',#1358);
#82=PLANE('',#1359);
#83=PLANE('',#1360);
#84=FACE_OUTER_BOUND('',#146,.T.);
#85=FACE_OUTER_BOUND('',#147,.T.);
#86=FACE_OUTER_BOUND('',#148,.T.);
#87=FACE_OUTER_BOUND('',#149,.T.);
#88=FACE_OUTER_BOUND('',#150,.T.);
#89=FACE_OUTER_BOUND('',#151,.T.);
#90=FACE_OUTER_BOUND('',#152,.T.);
#91=FACE_OUTER_BOUND('',#153,.T.);
#92=FACE_OUTER_BOUND('',#154,.T.);
#93=FACE_OUTER_BOUND('',#155,.T.);
#94=FACE_OUTER_BOUND('',#156,.T.);
#95=FACE_OUTER_BOUND('',#157,.T.);
#96=FACE_OUTER_BOUND('',#158,.T.);
#97=FACE_OUTER_BOUND('',#159,.T.);
#98=FACE_OUTER_BOUND('',#160,.T.);
#99=FACE_OUTER_BOUND('',#161,.T.);
#100=FACE_OUTER_BOUND('',#162,.T.);
#101=FACE_OUTER_BOUND('',#163,.T.);
#102=FACE_OUTER_BOUND('',#164,.T.);
#103=FACE_OUTER_BOUND('',#165,.T.);
#104=FACE_OUTER_BOUND('',#166,.T.);
#105=FACE_OUTER_BOUND('',#167,.T.);
#106=FACE_OUTER_BOUND('',#168,.T.);
#107=FACE_OUTER_BOUND('',#169,.T.);
#108=FACE_OUTER_BOUND('',#170,.T.);
#109=FACE_OUTER_BOUND('',#171,.T.);
#110=FACE_OUTER_BOUND('',#172,.T.);
#111=FACE_OUTER_BOUND('',#173,.T.);
#112=FACE_OUTER_BOUND('',#174,.T.);
#113=FACE_OUTER_BOUND('',#175,.T.);
#114=FACE_OUTER_BOUND('',#176,.T.);
#115=FACE_OUTER_BOUND('',#177,.T.);
#116=FACE_OUTER_BOUND('',#178,.T.);
#117=FACE_OUTER_BOUND('',#179,.T.);
#118=FACE_OUTER_BOUND('',#180,.T.);
#119=FACE_OUTER_BOUND('',#181,.T.);
#120=FACE_OUTER_BOUND('',#182,.T.);
#121=FACE_OUTER_BOUND('',#183,.T.);
#122=FACE_OUTER_BOUND('',#184,.T.);
#123=FACE_OUTER_BOUND('',#185,.T.);
#124=FACE_OUTER_BOUND('',#186,.T.);
#125=FACE_OUTER_BOUND('',#187,.T.);
#126=FACE_OUTER_BOUND('',#188,.T.);
#127=FACE_OUTER_BOUND('',#189,.T.);
#128=FACE_OUTER_BOUND('',#190,.T.);
#129=FACE_OUTER_BOUND('',#191,.T.);
#130=FACE_OUTER_BOUND('',#192,.T.);
#131=FACE_OUTER_BOUND('',#193,.T.);
#132=FACE_OUTER_BOUND('',#194,.T.);
#133=FACE_OUTER_BOUND('',#195,.T.);
#134=FACE_OUTER_BOUND('',#196,.T.);
#135=FACE_OUTER_BOUND('',#197,.T.);
#136=FACE_OUTER_BOUND('',#198,.T.);
#137=FACE_OUTER_BOUND('',#199,.T.);
#138=FACE_OUTER_BOUND('',#200,.T.);
#139=FACE_OUTER_BOUND('',#201,.T.);
#140=FACE_OUTER_BOUND('',#202,.T.);
#141=FACE_OUTER_BOUND('',#203,.T.);
#142=FACE_OUTER_BOUND('',#204,.T.);
#143=FACE_OUTER_BOUND('',#205,.T.);
#144=FACE_OUTER_BOUND('',#206,.T.);
#145=FACE_OUTER_BOUND('',#212,.T.);
#146=EDGE_LOOP('',(#821,#822,#823,#824));
#147=EDGE_LOOP('',(#825,#826,#827,#828));
#148=EDGE_LOOP('',(#829,#830,#831,#832));
#149=EDGE_LOOP('',(#833,#834,#835,#836,#837,#838,#839,#840,#841,#842,#843,
#844));
#150=EDGE_LOOP('',(#845,#846,#847,#848));
#151=EDGE_LOOP('',(#849,#850,#851,#852));
#152=EDGE_LOOP('',(#853,#854,#855,#856));
#153=EDGE_LOOP('',(#857,#858,#859,#860));
#154=EDGE_LOOP('',(#861,#862,#863,#864));
#155=EDGE_LOOP('',(#865,#866,#867,#868));
#156=EDGE_LOOP('',(#869,#870,#871,#872,#873,#874,#875,#876,#877,#878,#879,
#880));
#157=EDGE_LOOP('',(#881,#882,#883,#884));
#158=EDGE_LOOP('',(#885,#886,#887,#888));
#159=EDGE_LOOP('',(#889,#890,#891,#892));
#160=EDGE_LOOP('',(#893,#894,#895,#896));
#161=EDGE_LOOP('',(#897,#898,#899,#900));
#162=EDGE_LOOP('',(#901,#902,#903,#904));
#163=EDGE_LOOP('',(#905,#906,#907,#908));
#164=EDGE_LOOP('',(#909,#910,#911,#912));
#165=EDGE_LOOP('',(#913,#914,#915,#916));
#166=EDGE_LOOP('',(#917,#918,#919,#920,#921,#922,#923,#924,#925,#926,#927,
#928));
#167=EDGE_LOOP('',(#929,#930,#931,#932));
#168=EDGE_LOOP('',(#933,#934,#935,#936));
#169=EDGE_LOOP('',(#937,#938,#939,#940));
#170=EDGE_LOOP('',(#941,#942,#943,#944));
#171=EDGE_LOOP('',(#945,#946,#947,#948));
#172=EDGE_LOOP('',(#949,#950,#951,#952));
#173=EDGE_LOOP('',(#953,#954,#955,#956));
#174=EDGE_LOOP('',(#957,#958,#959,#960));
#175=EDGE_LOOP('',(#961,#962,#963,#964));
#176=EDGE_LOOP('',(#965,#966,#967,#968,#969,#970,#971,#972,#973,#974,#975,
#976));
#177=EDGE_LOOP('',(#977,#978,#979,#980));
#178=EDGE_LOOP('',(#981,#982,#983,#984));
#179=EDGE_LOOP('',(#985,#986,#987,#988));
#180=EDGE_LOOP('',(#989,#990,#991,#992));
#181=EDGE_LOOP('',(#993,#994,#995,#996));
#182=EDGE_LOOP('',(#997,#998,#999,#1000));
#183=EDGE_LOOP('',(#1001,#1002,#1003,#1004));
#184=EDGE_LOOP('',(#1005,#1006,#1007,#1008));
#185=EDGE_LOOP('',(#1009,#1010,#1011,#1012));
#186=EDGE_LOOP('',(#1013,#1014,#1015,#1016));
#187=EDGE_LOOP('',(#1017,#1018,#1019,#1020));
#188=EDGE_LOOP('',(#1021,#1022,#1023,#1024));
#189=EDGE_LOOP('',(#1025,#1026,#1027,#1028));
#190=EDGE_LOOP('',(#1029,#1030,#1031,#1032));
#191=EDGE_LOOP('',(#1033,#1034,#1035,#1036));
#192=EDGE_LOOP('',(#1037,#1038,#1039,#1040));
#193=EDGE_LOOP('',(#1041,#1042,#1043,#1044));
#194=EDGE_LOOP('',(#1045,#1046,#1047,#1048));
#195=EDGE_LOOP('',(#1049,#1050,#1051,#1052));
#196=EDGE_LOOP('',(#1053,#1054,#1055,#1056));
#197=EDGE_LOOP('',(#1057,#1058,#1059,#1060));
#198=EDGE_LOOP('',(#1061,#1062,#1063,#1064));
#199=EDGE_LOOP('',(#1065,#1066,#1067,#1068,#1069,#1070,#1071,#1072,#1073,
#1074,#1075,#1076));
#200=EDGE_LOOP('',(#1077,#1078,#1079,#1080));
#201=EDGE_LOOP('',(#1081,#1082,#1083,#1084));
#202=EDGE_LOOP('',(#1085,#1086,#1087,#1088));
#203=EDGE_LOOP('',(#1089,#1090,#1091,#1092,#1093,#1094,#1095,#1096,#1097,
#1098,#1099,#1100));
#204=EDGE_LOOP('',(#1101,#1102,#1103,#1104));
#205=EDGE_LOOP('',(#1105,#1106,#1107,#1108));
#206=EDGE_LOOP('',(#1109,#1110,#1111,#1112,#1113,#1114,#1115,#1116,#1117,
#1118,#1119,#1120,#1121,#1122,#1123,#1124,#1125,#1126,#1127,#1128,#1129,
#1130,#1131,#1132,#1133,#1134,#1135,#1136,#1137,#1138,#1139,#1140,#1141,
#1142,#1143,#1144,#1145,#1146,#1147,#1148,#1149,#1150,#1151,#1152,#1153,
#1154,#1155,#1156,#1157,#1158,#1159,#1160));
#207=EDGE_LOOP('',(#1161));
#208=EDGE_LOOP('',(#1162));
#209=EDGE_LOOP('',(#1163));
#210=EDGE_LOOP('',(#1164));
#211=EDGE_LOOP('',(#1165));
#212=EDGE_LOOP('',(#1166,#1167,#1168,#1169));
#213=EDGE_LOOP('',(#1170));
#214=EDGE_LOOP('',(#1171));
#215=EDGE_LOOP('',(#1172));
#216=EDGE_LOOP('',(#1173));
#217=EDGE_LOOP('',(#1174));
#218=LINE('',#1714,#350);
#219=LINE('',#1720,#351);
#220=LINE('',#1726,#352);
#221=LINE('',#1733,#353);
#222=LINE('',#1737,#354);
#223=LINE('',#1741,#355);
#224=LINE('',#1743,#356);
#225=LINE('',#1745,#357);
#226=LINE('',#1747,#358);
#227=LINE('',#1749,#359);
#228=LINE('',#1752,#360);
#229=LINE('',#1755,#361);
#230=LINE('',#1757,#362);
#231=LINE('',#1758,#363);
#232=LINE('',#1761,#364);
#233=LINE('',#1762,#365);
#234=LINE('',#1765,#366);
#235=LINE('',#1769,#367);
#236=LINE('',#1770,#368);
#237=LINE('',#1773,#369);
#238=LINE('',#1777,#370);
#239=LINE('',#1778,#371);
#240=LINE('',#1782,#372);
#241=LINE('',#1786,#373);
#242=LINE('',#1790,#374);
#243=LINE('',#1794,#375);
#244=LINE('',#1798,#376);
#245=LINE('',#1800,#377);
#246=LINE('',#1802,#378);
#247=LINE('',#1803,#379);
#248=LINE('',#1806,#380);
#249=LINE('',#1808,#381);
#250=LINE('',#1809,#382);
#251=LINE('',#1812,#383);
#252=LINE('',#1813,#384);
#253=LINE('',#1816,#385);
#254=LINE('',#1820,#386);
#255=LINE('',#1821,#387);
#256=LINE('',#1824,#388);
#257=LINE('',#1828,#389);
#258=LINE('',#1829,#390);
#259=LINE('',#1832,#391);
#260=LINE('',#1836,#392);
#261=LINE('',#1837,#393);
#262=LINE('',#1840,#394);
#263=LINE('',#1845,#395);
#264=LINE('',#1849,#396);
#265=LINE('',#1853,#397);
#266=LINE('',#1857,#398);
#267=LINE('',#1861,#399);
#268=LINE('',#1863,#400);
#269=LINE('',#1865,#401);
#270=LINE('',#1866,#402);
#271=LINE('',#1869,#403);
#272=LINE('',#1871,#404);
#273=LINE('',#1872,#405);
#274=LINE('',#1875,#406);
#275=LINE('',#1876,#407);
#276=LINE('',#1879,#408);
#277=LINE('',#1883,#409);
#278=LINE('',#1884,#410);
#279=LINE('',#1887,#411);
#280=LINE('',#1891,#412);
#281=LINE('',#1892,#413);
#282=LINE('',#1895,#414);
#283=LINE('',#1899,#415);
#284=LINE('',#1900,#416);
#285=LINE('',#1903,#417);
#286=LINE('',#1908,#418);
#287=LINE('',#1910,#419);
#288=LINE('',#1912,#420);
#289=LINE('',#1916,#421);
#290=LINE('',#1920,#422);
#291=LINE('',#1924,#423);
#292=LINE('',#1928,#424);
#293=LINE('',#1929,#425);
#294=LINE('',#1932,#426);
#295=LINE('',#1934,#427);
#296=LINE('',#1935,#428);
#297=LINE('',#1938,#429);
#298=LINE('',#1939,#430);
#299=LINE('',#1942,#431);
#300=LINE('',#1946,#432);
#301=LINE('',#1947,#433);
#302=LINE('',#1950,#434);
#303=LINE('',#1954,#435);
#304=LINE('',#1955,#436);
#305=LINE('',#1958,#437);
#306=LINE('',#1962,#438);
#307=LINE('',#1963,#439);
#308=LINE('',#1966,#440);
#309=LINE('',#1970,#441);
#310=LINE('',#1971,#442);
#311=LINE('',#1974,#443);
#312=LINE('',#1975,#444);
#313=LINE('',#1980,#445);
#314=LINE('',#1986,#446);
#315=LINE('',#1991,#447);
#316=LINE('',#1995,#448);
#317=LINE('',#1999,#449);
#318=LINE('',#2002,#450);
#319=LINE('',#2003,#451);
#320=LINE('',#2006,#452);
#321=LINE('',#2008,#453);
#322=LINE('',#2009,#454);
#323=LINE('',#2012,#455);
#324=LINE('',#2013,#456);
#325=LINE('',#2017,#457);
#326=LINE('',#2020,#458);
#327=LINE('',#2021,#459);
#328=LINE('',#2027,#460);
#329=LINE('',#2029,#461);
#330=LINE('',#2031,#462);
#331=LINE('',#2032,#463);
#332=LINE('',#2033,#464);
#333=LINE('',#2035,#465);
#334=LINE('',#2036,#466);
#335=LINE('',#2039,#467);
#336=LINE('',#2041,#468);
#337=LINE('',#2042,#469);
#338=LINE('',#2045,#470);
#339=LINE('',#2047,#471);
#340=LINE('',#2048,#472);
#341=LINE('',#2050,#473);
#342=LINE('',#2053,#474);
#343=LINE('',#2054,#475);
#344=LINE('',#2055,#476);
#345=LINE('',#2057,#477);
#346=LINE('',#2058,#478);
#347=LINE('',#2060,#479);
#348=LINE('',#2061,#480);
#349=LINE('',#2063,#481);
#350=VECTOR('',#1367,2.);
#351=VECTOR('',#1374,2.);
#352=VECTOR('',#1381,2.);
#353=VECTOR('',#1388,10.);
#354=VECTOR('',#1391,10.);
#355=VECTOR('',#1394,10.);
#356=VECTOR('',#1395,10.);
#357=VECTOR('',#1396,10.);
#358=VECTOR('',#1397,10.);
#359=VECTOR('',#1398,10.);
#360=VECTOR('',#1401,10.);
#361=VECTOR('',#1404,10.);
#362=VECTOR('',#1405,10.);
#363=VECTOR('',#1406,10.);
#364=VECTOR('',#1409,10.);
#365=VECTOR('',#1410,10.);
#366=VECTOR('',#1413,10.);
#367=VECTOR('',#1418,10.);
#368=VECTOR('',#1419,10.);
#369=VECTOR('',#1422,10.);
#370=VECTOR('',#1427,10.);
#371=VECTOR('',#1428,10.);
#372=VECTOR('',#1431,10.);
#373=VECTOR('',#1434,10.);
#374=VECTOR('',#1437,10.);
#375=VECTOR('',#1440,10.);
#376=VECTOR('',#1443,10.);
#377=VECTOR('',#1444,10.);
#378=VECTOR('',#1445,10.);
#379=VECTOR('',#1446,10.);
#380=VECTOR('',#1449,10.);
#381=VECTOR('',#1450,10.);
#382=VECTOR('',#1451,10.);
#383=VECTOR('',#1454,10.);
#384=VECTOR('',#1455,10.);
#385=VECTOR('',#1458,10.);
#386=VECTOR('',#1463,10.);
#387=VECTOR('',#1464,10.);
#388=VECTOR('',#1467,10.);
#389=VECTOR('',#1472,10.);
#390=VECTOR('',#1473,10.);
#391=VECTOR('',#1476,10.);
#392=VECTOR('',#1481,10.);
#393=VECTOR('',#1482,10.);
#394=VECTOR('',#1485,10.);
#395=VECTOR('',#1490,10.);
#396=VECTOR('',#1493,10.);
#397=VECTOR('',#1496,10.);
#398=VECTOR('',#1499,10.);
#399=VECTOR('',#1502,10.);
#400=VECTOR('',#1503,10.);
#401=VECTOR('',#1504,10.);
#402=VECTOR('',#1505,10.);
#403=VECTOR('',#1508,10.);
#404=VECTOR('',#1509,10.);
#405=VECTOR('',#1510,10.);
#406=VECTOR('',#1513,10.);
#407=VECTOR('',#1514,10.);
#408=VECTOR('',#1517,10.);
#409=VECTOR('',#1522,10.);
#410=VECTOR('',#1523,10.);
#411=VECTOR('',#1526,10.);
#412=VECTOR('',#1531,10.);
#413=VECTOR('',#1532,10.);
#414=VECTOR('',#1535,10.);
#415=VECTOR('',#1540,10.);
#416=VECTOR('',#1541,10.);
#417=VECTOR('',#1544,10.);
#418=VECTOR('',#1549,10.);
#419=VECTOR('',#1550,10.);
#420=VECTOR('',#1551,10.);
#421=VECTOR('',#1554,10.);
#422=VECTOR('',#1557,10.);
#423=VECTOR('',#1560,10.);
#424=VECTOR('',#1563,10.);
#425=VECTOR('',#1564,10.);
#426=VECTOR('',#1567,10.);
#427=VECTOR('',#1568,10.);
#428=VECTOR('',#1569,10.);
#429=VECTOR('',#1572,10.);
#430=VECTOR('',#1573,10.);
#431=VECTOR('',#1576,10.);
#432=VECTOR('',#1581,10.);
#433=VECTOR('',#1582,10.);
#434=VECTOR('',#1585,10.);
#435=VECTOR('',#1590,10.);
#436=VECTOR('',#1591,10.);
#437=VECTOR('',#1594,10.);
#438=VECTOR('',#1599,10.);
#439=VECTOR('',#1600,10.);
#440=VECTOR('',#1603,10.);
#441=VECTOR('',#1608,10.);
#442=VECTOR('',#1609,10.);
#443=VECTOR('',#1612,10.);
#444=VECTOR('',#1613,10.);
#445=VECTOR('',#1618,0.800000000000001);
#446=VECTOR('',#1625,0.800000000000001);
#447=VECTOR('',#1632,1.00000000000001);
#448=VECTOR('',#1637,1.);
#449=VECTOR('',#1642,1.);
#450=VECTOR('',#1645,10.);
#451=VECTOR('',#1646,10.);
#452=VECTOR('',#1649,10.);
#453=VECTOR('',#1650,10.);
#454=VECTOR('',#1651,10.);
#455=VECTOR('',#1654,10.);
#456=VECTOR('',#1655,10.);
#457=VECTOR('',#1660,10.);
#458=VECTOR('',#1663,10.);
#459=VECTOR('',#1664,10.);
#460=VECTOR('',#1671,10.);
#461=VECTOR('',#1672,10.);
#462=VECTOR('',#1673,10.);
#463=VECTOR('',#1674,10.);
#464=VECTOR('',#1675,10.);
#465=VECTOR('',#1676,10.);
#466=VECTOR('',#1677,10.);
#467=VECTOR('',#1680,10.);
#468=VECTOR('',#1681,10.);
#469=VECTOR('',#1682,10.);
#470=VECTOR('',#1685,10.);
#471=VECTOR('',#1686,10.);
#472=VECTOR('',#1687,10.);
#473=VECTOR('',#1690,10.);
#474=VECTOR('',#1693,10.);
#475=VECTOR('',#1694,10.);
#476=VECTOR('',#1695,10.);
#477=VECTOR('',#1696,10.);
#478=VECTOR('',#1697,10.);
#479=VECTOR('',#1700,10.);
#480=VECTOR('',#1701,10.);
#481=VECTOR('',#1704,10.);
#482=CIRCLE('',#1255,2.);
#483=CIRCLE('',#1256,1.00000000000001);
#484=CIRCLE('',#1258,2.);
#485=CIRCLE('',#1259,1.);
#486=CIRCLE('',#1261,2.);
#487=CIRCLE('',#1262,1.);
#488=CIRCLE('',#1264,1.);
#489=CIRCLE('',#1265,1.00000000000001);
#490=CIRCLE('',#1266,0.999999999999988);
#491=CIRCLE('',#1267,0.999999999999996);
#492=CIRCLE('',#1271,0.999999999999988);
#493=CIRCLE('',#1274,1.00000000000001);
#494=CIRCLE('',#1277,0.999999999999985);
#495=CIRCLE('',#1278,0.999999999999996);
#496=CIRCLE('',#1279,0.999999999999992);
#497=CIRCLE('',#1280,0.999999999999996);
#498=CIRCLE('',#1284,0.999999999999996);
#499=CIRCLE('',#1287,0.999999999999992);
#500=CIRCLE('',#1290,0.999999999999996);
#501=CIRCLE('',#1293,0.999999999999985);
#502=CIRCLE('',#1295,1.00000000000002);
#503=CIRCLE('',#1296,0.999999999999999);
#504=CIRCLE('',#1297,0.999999999999996);
#505=CIRCLE('',#1298,1.00000000000001);
#506=CIRCLE('',#1302,1.00000000000001);
#507=CIRCLE('',#1305,0.999999999999996);
#508=CIRCLE('',#1308,0.999999999999999);
#509=CIRCLE('',#1311,1.00000000000002);
#510=CIRCLE('',#1313,1.);
#511=CIRCLE('',#1314,0.999999999999994);
#512=CIRCLE('',#1315,1.);
#513=CIRCLE('',#1316,0.999999999999996);
#514=CIRCLE('',#1320,0.999999999999996);
#515=CIRCLE('',#1323,1.);
#516=CIRCLE('',#1326,0.999999999999994);
#517=CIRCLE('',#1329,1.);
#518=CIRCLE('',#1333,0.800000000000001);
#519=CIRCLE('',#1334,0.800000000000001);
#520=CIRCLE('',#1336,0.800000000000001);
#521=CIRCLE('',#1337,0.800000000000001);
#522=CIRCLE('',#1339,1.00000000000001);
#523=CIRCLE('',#1341,1.);
#524=CIRCLE('',#1343,1.);
#525=CIRCLE('',#1348,0.999999999999996);
#526=CIRCLE('',#1351,1.);
#527=VERTEX_POINT('',#1711);
#528=VERTEX_POINT('',#1713);
#529=VERTEX_POINT('',#1717);
#530=VERTEX_POINT('',#1719);
#531=VERTEX_POINT('',#1723);
#532=VERTEX_POINT('',#1725);
#533=VERTEX_POINT('',#1729);
#534=VERTEX_POINT('',#1730);
#535=VERTEX_POINT('',#1732);
#536=VERTEX_POINT('',#1734);
#537=VERTEX_POINT('',#1736);
#538=VERTEX_POINT('',#1738);
#539=VERTEX_POINT('',#1740);
#540=VERTEX_POINT('',#1742);
#541=VERTEX_POINT('',#1744);
#542=VERTEX_POINT('',#1746);
#543=VERTEX_POINT('',#1748);
#544=VERTEX_POINT('',#1750);
#545=VERTEX_POINT('',#1754);
#546=VERTEX_POINT('',#1756);
#547=VERTEX_POINT('',#1760);
#548=VERTEX_POINT('',#1764);
#549=VERTEX_POINT('',#1768);
#550=VERTEX_POINT('',#1772);
#551=VERTEX_POINT('',#1776);
#552=VERTEX_POINT('',#1780);
#553=VERTEX_POINT('',#1781);
#554=VERTEX_POINT('',#1783);
#555=VERTEX_POINT('',#1785);
#556=VERTEX_POINT('',#1787);
#557=VERTEX_POINT('',#1789);
#558=VERTEX_POINT('',#1791);
#559=VERTEX_POINT('',#1793);
#560=VERTEX_POINT('',#1795);
#561=VERTEX_POINT('',#1797);
#562=VERTEX_POINT('',#1799);
#563=VERTEX_POINT('',#1801);
#564=VERTEX_POINT('',#1805);
#565=VERTEX_POINT('',#1807);
#566=VERTEX_POINT('',#1811);
#567=VERTEX_POINT('',#1815);
#568=VERTEX_POINT('',#1819);
#569=VERTEX_POINT('',#1823);
#570=VERTEX_POINT('',#1827);
#571=VERTEX_POINT('',#1831);
#572=VERTEX_POINT('',#1835);
#573=VERTEX_POINT('',#1839);
#574=VERTEX_POINT('',#1843);
#575=VERTEX_POINT('',#1844);
#576=VERTEX_POINT('',#1846);
#577=VERTEX_POINT('',#1848);
#578=VERTEX_POINT('',#1850);
#579=VERTEX_POINT('',#1852);
#580=VERTEX_POINT('',#1854);
#581=VERTEX_POINT('',#1856);
#582=VERTEX_POINT('',#1858);
#583=VERTEX_POINT('',#1860);
#584=VERTEX_POINT('',#1862);
#585=VERTEX_POINT('',#1864);
#586=VERTEX_POINT('',#1868);
#587=VERTEX_POINT('',#1870);
#588=VERTEX_POINT('',#1874);
#589=VERTEX_POINT('',#1878);
#590=VERTEX_POINT('',#1882);
#591=VERTEX_POINT('',#1886);
#592=VERTEX_POINT('',#1890);
#593=VERTEX_POINT('',#1894);
#594=VERTEX_POINT('',#1898);
#595=VERTEX_POINT('',#1902);
#596=VERTEX_POINT('',#1906);
#597=VERTEX_POINT('',#1907);
#598=VERTEX_POINT('',#1909);
#599=VERTEX_POINT('',#1911);
#600=VERTEX_POINT('',#1913);
#601=VERTEX_POINT('',#1915);
#602=VERTEX_POINT('',#1917);
#603=VERTEX_POINT('',#1919);
#604=VERTEX_POINT('',#1921);
#605=VERTEX_POINT('',#1923);
#606=VERTEX_POINT('',#1925);
#607=VERTEX_POINT('',#1927);
#608=VERTEX_POINT('',#1931);
#609=VERTEX_POINT('',#1933);
#610=VERTEX_POINT('',#1937);
#611=VERTEX_POINT('',#1941);
#612=VERTEX_POINT('',#1945);
#613=VERTEX_POINT('',#1949);
#614=VERTEX_POINT('',#1953);
#615=VERTEX_POINT('',#1957);
#616=VERTEX_POINT('',#1961);
#617=VERTEX_POINT('',#1965);
#618=VERTEX_POINT('',#1969);
#619=VERTEX_POINT('',#1973);
#620=VERTEX_POINT('',#1977);
#621=VERTEX_POINT('',#1979);
#622=VERTEX_POINT('',#1983);
#623=VERTEX_POINT('',#1985);
#624=VERTEX_POINT('',#1989);
#625=VERTEX_POINT('',#1993);
#626=VERTEX_POINT('',#1997);
#627=VERTEX_POINT('',#2001);
#628=VERTEX_POINT('',#2005);
#629=VERTEX_POINT('',#2007);
#630=VERTEX_POINT('',#2011);
#631=VERTEX_POINT('',#2015);
#632=VERTEX_POINT('',#2019);
#633=VERTEX_POINT('',#2025);
#634=VERTEX_POINT('',#2026);
#635=VERTEX_POINT('',#2028);
#636=VERTEX_POINT('',#2030);
#637=VERTEX_POINT('',#2034);
#638=VERTEX_POINT('',#2038);
#639=VERTEX_POINT('',#2040);
#640=VERTEX_POINT('',#2044);
#641=VERTEX_POINT('',#2046);
#642=VERTEX_POINT('',#2052);
#643=VERTEX_POINT('',#2056);
#644=EDGE_CURVE('',#527,#527,#482,.T.);
#645=EDGE_CURVE('',#527,#528,#218,.T.);
#646=EDGE_CURVE('',#528,#528,#483,.T.);
#647=EDGE_CURVE('',#529,#529,#484,.T.);
#648=EDGE_CURVE('',#529,#530,#219,.T.);
#649=EDGE_CURVE('',#530,#530,#485,.T.);
#650=EDGE_CURVE('',#531,#531,#486,.T.);
#651=EDGE_CURVE('',#531,#532,#220,.T.);
#652=EDGE_CURVE('',#532,#532,#487,.T.);
#653=EDGE_CURVE('',#533,#534,#488,.T.);
#654=EDGE_CURVE('',#535,#533,#221,.T.);
#655=EDGE_CURVE('',#536,#535,#489,.T.);
#656=EDGE_CURVE('',#537,#536,#222,.T.);
#657=EDGE_CURVE('',#538,#537,#490,.T.);
#658=EDGE_CURVE('',#539,#538,#223,.T.);
#659=EDGE_CURVE('',#540,#539,#224,.T.);
#660=EDGE_CURVE('',#540,#541,#225,.T.);
#661=EDGE_CURVE('',#542,#541,#226,.T.);
#662=EDGE_CURVE('',#543,#542,#227,.T.);
#663=EDGE_CURVE('',#544,#543,#491,.T.);
#664=EDGE_CURVE('',#534,#544,#228,.T.);
#665=EDGE_CURVE('',#539,#545,#229,.T.);
#666=EDGE_CURVE('',#546,#545,#230,.T.);
#667=EDGE_CURVE('',#540,#546,#231,.T.);
#668=EDGE_CURVE('',#538,#547,#232,.T.);
#669=EDGE_CURVE('',#545,#547,#233,.T.);
#670=EDGE_CURVE('',#537,#548,#234,.T.);
#671=EDGE_CURVE('',#547,#548,#492,.T.);
#672=EDGE_CURVE('',#536,#549,#235,.T.);
#673=EDGE_CURVE('',#548,#549,#236,.T.);
#674=EDGE_CURVE('',#535,#550,#237,.T.);
#675=EDGE_CURVE('',#549,#550,#493,.T.);
#676=EDGE_CURVE('',#533,#551,#238,.T.);
#677=EDGE_CURVE('',#550,#551,#239,.T.);
#678=EDGE_CURVE('',#552,#553,#240,.T.);
#679=EDGE_CURVE('',#554,#552,#494,.T.);
#680=EDGE_CURVE('',#555,#554,#241,.T.);
#681=EDGE_CURVE('',#556,#555,#495,.T.);
#682=EDGE_CURVE('',#557,#556,#242,.T.);
#683=EDGE_CURVE('',#558,#557,#496,.T.);
#684=EDGE_CURVE('',#559,#558,#243,.T.);
#685=EDGE_CURVE('',#560,#559,#497,.T.);
#686=EDGE_CURVE('',#561,#560,#244,.T.);
#687=EDGE_CURVE('',#562,#561,#245,.T.);
#688=EDGE_CURVE('',#562,#563,#246,.T.);
#689=EDGE_CURVE('',#553,#563,#247,.T.);
#690=EDGE_CURVE('',#561,#564,#248,.T.);
#691=EDGE_CURVE('',#565,#564,#249,.T.);
#692=EDGE_CURVE('',#562,#565,#250,.T.);
#693=EDGE_CURVE('',#560,#566,#251,.T.);
#694=EDGE_CURVE('',#564,#566,#252,.T.);
#695=EDGE_CURVE('',#559,#567,#253,.T.);
#696=EDGE_CURVE('',#566,#567,#498,.T.);
#697=EDGE_CURVE('',#558,#568,#254,.T.);
#698=EDGE_CURVE('',#567,#568,#255,.T.);
#699=EDGE_CURVE('',#557,#569,#256,.T.);
#700=EDGE_CURVE('',#568,#569,#499,.T.);
#701=EDGE_CURVE('',#556,#570,#257,.T.);
#702=EDGE_CURVE('',#569,#570,#258,.T.);
#703=EDGE_CURVE('',#555,#571,#259,.T.);
#704=EDGE_CURVE('',#570,#571,#500,.T.);
#705=EDGE_CURVE('',#554,#572,#260,.T.);
#706=EDGE_CURVE('',#571,#572,#261,.T.);
#707=EDGE_CURVE('',#552,#573,#262,.T.);
#708=EDGE_CURVE('',#572,#573,#501,.T.);
#709=EDGE_CURVE('',#574,#575,#263,.T.);
#710=EDGE_CURVE('',#576,#574,#502,.T.);
#711=EDGE_CURVE('',#577,#576,#264,.T.);
#712=EDGE_CURVE('',#578,#577,#503,.T.);
#713=EDGE_CURVE('',#579,#578,#265,.T.);
#714=EDGE_CURVE('',#580,#579,#504,.T.);
#715=EDGE_CURVE('',#581,#580,#266,.T.);
#716=EDGE_CURVE('',#582,#581,#505,.T.);
#717=EDGE_CURVE('',#583,#582,#267,.T.);
#718=EDGE_CURVE('',#584,#583,#268,.T.);
#719=EDGE_CURVE('',#584,#585,#269,.T.);
#720=EDGE_CURVE('',#575,#585,#270,.T.);
#721=EDGE_CURVE('',#583,#586,#271,.T.);
#722=EDGE_CURVE('',#587,#586,#272,.T.);
#723=EDGE_CURVE('',#584,#587,#273,.T.);
#724=EDGE_CURVE('',#582,#588,#274,.T.);
#725=EDGE_CURVE('',#586,#588,#275,.T.);
#726=EDGE_CURVE('',#581,#589,#276,.T.);
#727=EDGE_CURVE('',#588,#589,#506,.T.);
#728=EDGE_CURVE('',#580,#590,#277,.T.);
#729=EDGE_CURVE('',#589,#590,#278,.T.);
#730=EDGE_CURVE('',#579,#591,#279,.T.);
#731=EDGE_CURVE('',#590,#591,#507,.T.);
#732=EDGE_CURVE('',#578,#592,#280,.T.);
#733=EDGE_CURVE('',#591,#592,#281,.T.);
#734=EDGE_CURVE('',#577,#593,#282,.T.);
#735=EDGE_CURVE('',#592,#593,#508,.T.);
#736=EDGE_CURVE('',#576,#594,#283,.T.);
#737=EDGE_CURVE('',#593,#594,#284,.T.);
#738=EDGE_CURVE('',#574,#595,#285,.T.);
#739=EDGE_CURVE('',#594,#595,#509,.T.);
#740=EDGE_CURVE('',#596,#597,#286,.T.);
#741=EDGE_CURVE('',#598,#597,#287,.T.);
#742=EDGE_CURVE('',#599,#598,#288,.T.);
#743=EDGE_CURVE('',#600,#599,#510,.T.);
#744=EDGE_CURVE('',#601,#600,#289,.T.);
#745=EDGE_CURVE('',#602,#601,#511,.T.);
#746=EDGE_CURVE('',#603,#602,#290,.T.);
#747=EDGE_CURVE('',#604,#603,#512,.T.);
#748=EDGE_CURVE('',#605,#604,#291,.T.);
#749=EDGE_CURVE('',#606,#605,#513,.T.);
#750=EDGE_CURVE('',#607,#606,#292,.T.);
#751=EDGE_CURVE('',#596,#607,#293,.T.);
#752=EDGE_CURVE('',#607,#608,#294,.T.);
#753=EDGE_CURVE('',#609,#608,#295,.T.);
#754=EDGE_CURVE('',#596,#609,#296,.T.);
#755=EDGE_CURVE('',#606,#610,#297,.T.);
#756=EDGE_CURVE('',#608,#610,#298,.T.);
#757=EDGE_CURVE('',#605,#611,#299,.T.);
#758=EDGE_CURVE('',#610,#611,#514,.T.);
#759=EDGE_CURVE('',#604,#612,#300,.T.);
#760=EDGE_CURVE('',#611,#612,#301,.T.);
#761=EDGE_CURVE('',#603,#613,#302,.T.);
#762=EDGE_CURVE('',#612,#613,#515,.T.);
#763=EDGE_CURVE('',#602,#614,#303,.T.);
#764=EDGE_CURVE('',#613,#614,#304,.T.);
#765=EDGE_CURVE('',#601,#615,#305,.T.);
#766=EDGE_CURVE('',#614,#615,#516,.T.);
#767=EDGE_CURVE('',#600,#616,#306,.T.);
#768=EDGE_CURVE('',#615,#616,#307,.T.);
#769=EDGE_CURVE('',#599,#617,#308,.T.);
#770=EDGE_CURVE('',#616,#617,#517,.T.);
#771=EDGE_CURVE('',#598,#618,#309,.T.);
#772=EDGE_CURVE('',#617,#618,#310,.T.);
#773=EDGE_CURVE('',#597,#619,#311,.T.);
#774=EDGE_CURVE('',#618,#619,#312,.T.);
#775=EDGE_CURVE('',#620,#620,#518,.T.);
#776=EDGE_CURVE('',#620,#621,#313,.T.);
#777=EDGE_CURVE('',#621,#621,#519,.T.);
#778=EDGE_CURVE('',#622,#622,#520,.T.);
#779=EDGE_CURVE('',#622,#623,#314,.T.);
#780=EDGE_CURVE('',#623,#623,#521,.T.);
#781=EDGE_CURVE('',#624,#624,#522,.T.);
#782=EDGE_CURVE('',#624,#528,#315,.T.);
#783=EDGE_CURVE('',#625,#625,#523,.T.);
#784=EDGE_CURVE('',#625,#532,#316,.T.);
#785=EDGE_CURVE('',#626,#626,#524,.T.);
#786=EDGE_CURVE('',#626,#530,#317,.T.);
#787=EDGE_CURVE('',#575,#627,#318,.T.);
#788=EDGE_CURVE('',#595,#627,#319,.T.);
#789=EDGE_CURVE('',#541,#628,#320,.T.);
#790=EDGE_CURVE('',#629,#628,#321,.T.);
#791=EDGE_CURVE('',#542,#629,#322,.T.);
#792=EDGE_CURVE('',#630,#629,#323,.T.);
#793=EDGE_CURVE('',#543,#630,#324,.T.);
#794=EDGE_CURVE('',#631,#630,#525,.T.);
#795=EDGE_CURVE('',#544,#631,#325,.T.);
#796=EDGE_CURVE('',#632,#631,#326,.T.);
#797=EDGE_CURVE('',#534,#632,#327,.T.);
#798=EDGE_CURVE('',#551,#632,#526,.T.);
#799=EDGE_CURVE('',#633,#634,#328,.T.);
#800=EDGE_CURVE('',#634,#635,#329,.T.);
#801=EDGE_CURVE('',#636,#635,#330,.T.);
#802=EDGE_CURVE('',#585,#636,#331,.T.);
#803=EDGE_CURVE('',#628,#587,#332,.T.);
#804=EDGE_CURVE('',#637,#546,#333,.T.);
#805=EDGE_CURVE('',#633,#637,#334,.T.);
#806=EDGE_CURVE('',#638,#633,#335,.T.);
#807=EDGE_CURVE('',#639,#637,#336,.T.);
#808=EDGE_CURVE('',#638,#639,#337,.T.);
#809=EDGE_CURVE('',#563,#640,#338,.T.);
#810=EDGE_CURVE('',#641,#640,#339,.T.);
#811=EDGE_CURVE('',#553,#641,#340,.T.);
#812=EDGE_CURVE('',#573,#641,#341,.T.);
#813=EDGE_CURVE('',#642,#638,#342,.T.);
#814=EDGE_CURVE('',#640,#639,#343,.T.);
#815=EDGE_CURVE('',#619,#565,#344,.T.);
#816=EDGE_CURVE('',#643,#609,#345,.T.);
#817=EDGE_CURVE('',#642,#643,#346,.T.);
#818=EDGE_CURVE('',#634,#642,#347,.T.);
#819=EDGE_CURVE('',#635,#643,#348,.T.);
#820=EDGE_CURVE('',#627,#636,#349,.T.);
#821=ORIENTED_EDGE('',*,*,#644,.F.);
#822=ORIENTED_EDGE('',*,*,#645,.T.);
#823=ORIENTED_EDGE('',*,*,#646,.F.);
#824=ORIENTED_EDGE('',*,*,#645,.F.);
#825=ORIENTED_EDGE('',*,*,#647,.F.);
#826=ORIENTED_EDGE('',*,*,#648,.T.);
#827=ORIENTED_EDGE('',*,*,#649,.F.);
#828=ORIENTED_EDGE('',*,*,#648,.F.);
#829=ORIENTED_EDGE('',*,*,#650,.F.);
#830=ORIENTED_EDGE('',*,*,#651,.T.);
#831=ORIENTED_EDGE('',*,*,#652,.F.);
#832=ORIENTED_EDGE('',*,*,#651,.F.);
#833=ORIENTED_EDGE('',*,*,#653,.F.);
#834=ORIENTED_EDGE('',*,*,#654,.F.);
#835=ORIENTED_EDGE('',*,*,#655,.F.);
#836=ORIENTED_EDGE('',*,*,#656,.F.);
#837=ORIENTED_EDGE('',*,*,#657,.F.);
#838=ORIENTED_EDGE('',*,*,#658,.F.);
#839=ORIENTED_EDGE('',*,*,#659,.F.);
#840=ORIENTED_EDGE('',*,*,#660,.T.);
#841=ORIENTED_EDGE('',*,*,#661,.F.);
#842=ORIENTED_EDGE('',*,*,#662,.F.);
#843=ORIENTED_EDGE('',*,*,#663,.F.);
#844=ORIENTED_EDGE('',*,*,#664,.F.);
#845=ORIENTED_EDGE('',*,*,#659,.T.);
#846=ORIENTED_EDGE('',*,*,#665,.T.);
#847=ORIENTED_EDGE('',*,*,#666,.F.);
#848=ORIENTED_EDGE('',*,*,#667,.F.);
#849=ORIENTED_EDGE('',*,*,#658,.T.);
#850=ORIENTED_EDGE('',*,*,#668,.T.);
#851=ORIENTED_EDGE('',*,*,#669,.F.);
#852=ORIENTED_EDGE('',*,*,#665,.F.);
#853=ORIENTED_EDGE('',*,*,#657,.T.);
#854=ORIENTED_EDGE('',*,*,#670,.T.);
#855=ORIENTED_EDGE('',*,*,#671,.F.);
#856=ORIENTED_EDGE('',*,*,#668,.F.);
#857=ORIENTED_EDGE('',*,*,#656,.T.);
#858=ORIENTED_EDGE('',*,*,#672,.T.);
#859=ORIENTED_EDGE('',*,*,#673,.F.);
#860=ORIENTED_EDGE('',*,*,#670,.F.);
#861=ORIENTED_EDGE('',*,*,#655,.T.);
#862=ORIENTED_EDGE('',*,*,#674,.T.);
#863=ORIENTED_EDGE('',*,*,#675,.F.);
#864=ORIENTED_EDGE('',*,*,#672,.F.);
#865=ORIENTED_EDGE('',*,*,#654,.T.);
#866=ORIENTED_EDGE('',*,*,#676,.T.);
#867=ORIENTED_EDGE('',*,*,#677,.F.);
#868=ORIENTED_EDGE('',*,*,#674,.F.);
#869=ORIENTED_EDGE('',*,*,#678,.F.);
#870=ORIENTED_EDGE('',*,*,#679,.F.);
#871=ORIENTED_EDGE('',*,*,#680,.F.);
#872=ORIENTED_EDGE('',*,*,#681,.F.);
#873=ORIENTED_EDGE('',*,*,#682,.F.);
#874=ORIENTED_EDGE('',*,*,#683,.F.);
#875=ORIENTED_EDGE('',*,*,#684,.F.);
#876=ORIENTED_EDGE('',*,*,#685,.F.);
#877=ORIENTED_EDGE('',*,*,#686,.F.);
#878=ORIENTED_EDGE('',*,*,#687,.F.);
#879=ORIENTED_EDGE('',*,*,#688,.T.);
#880=ORIENTED_EDGE('',*,*,#689,.F.);
#881=ORIENTED_EDGE('',*,*,#687,.T.);
#882=ORIENTED_EDGE('',*,*,#690,.T.);
#883=ORIENTED_EDGE('',*,*,#691,.F.);
#884=ORIENTED_EDGE('',*,*,#692,.F.);
#885=ORIENTED_EDGE('',*,*,#686,.T.);
#886=ORIENTED_EDGE('',*,*,#693,.T.);
#887=ORIENTED_EDGE('',*,*,#694,.F.);
#888=ORIENTED_EDGE('',*,*,#690,.F.);
#889=ORIENTED_EDGE('',*,*,#685,.T.);
#890=ORIENTED_EDGE('',*,*,#695,.T.);
#891=ORIENTED_EDGE('',*,*,#696,.F.);
#892=ORIENTED_EDGE('',*,*,#693,.F.);
#893=ORIENTED_EDGE('',*,*,#684,.T.);
#894=ORIENTED_EDGE('',*,*,#697,.T.);
#895=ORIENTED_EDGE('',*,*,#698,.F.);
#896=ORIENTED_EDGE('',*,*,#695,.F.);
#897=ORIENTED_EDGE('',*,*,#683,.T.);
#898=ORIENTED_EDGE('',*,*,#699,.T.);
#899=ORIENTED_EDGE('',*,*,#700,.F.);
#900=ORIENTED_EDGE('',*,*,#697,.F.);
#901=ORIENTED_EDGE('',*,*,#682,.T.);
#902=ORIENTED_EDGE('',*,*,#701,.T.);
#903=ORIENTED_EDGE('',*,*,#702,.F.);
#904=ORIENTED_EDGE('',*,*,#699,.F.);
#905=ORIENTED_EDGE('',*,*,#681,.T.);
#906=ORIENTED_EDGE('',*,*,#703,.T.);
#907=ORIENTED_EDGE('',*,*,#704,.F.);
#908=ORIENTED_EDGE('',*,*,#701,.F.);
#909=ORIENTED_EDGE('',*,*,#680,.T.);
#910=ORIENTED_EDGE('',*,*,#705,.T.);
#911=ORIENTED_EDGE('',*,*,#706,.F.);
#912=ORIENTED_EDGE('',*,*,#703,.F.);
#913=ORIENTED_EDGE('',*,*,#679,.T.);
#914=ORIENTED_EDGE('',*,*,#707,.T.);
#915=ORIENTED_EDGE('',*,*,#708,.F.);
#916=ORIENTED_EDGE('',*,*,#705,.F.);
#917=ORIENTED_EDGE('',*,*,#709,.F.);
#918=ORIENTED_EDGE('',*,*,#710,.F.);
#919=ORIENTED_EDGE('',*,*,#711,.F.);
#920=ORIENTED_EDGE('',*,*,#712,.F.);
#921=ORIENTED_EDGE('',*,*,#713,.F.);
#922=ORIENTED_EDGE('',*,*,#714,.F.);
#923=ORIENTED_EDGE('',*,*,#715,.F.);
#924=ORIENTED_EDGE('',*,*,#716,.F.);
#925=ORIENTED_EDGE('',*,*,#717,.F.);
#926=ORIENTED_EDGE('',*,*,#718,.F.);
#927=ORIENTED_EDGE('',*,*,#719,.T.);
#928=ORIENTED_EDGE('',*,*,#720,.F.);
#929=ORIENTED_EDGE('',*,*,#718,.T.);
#930=ORIENTED_EDGE('',*,*,#721,.T.);
#931=ORIENTED_EDGE('',*,*,#722,.F.);
#932=ORIENTED_EDGE('',*,*,#723,.F.);
#933=ORIENTED_EDGE('',*,*,#717,.T.);
#934=ORIENTED_EDGE('',*,*,#724,.T.);
#935=ORIENTED_EDGE('',*,*,#725,.F.);
#936=ORIENTED_EDGE('',*,*,#721,.F.);
#937=ORIENTED_EDGE('',*,*,#716,.T.);
#938=ORIENTED_EDGE('',*,*,#726,.T.);
#939=ORIENTED_EDGE('',*,*,#727,.F.);
#940=ORIENTED_EDGE('',*,*,#724,.F.);
#941=ORIENTED_EDGE('',*,*,#715,.T.);
#942=ORIENTED_EDGE('',*,*,#728,.T.);
#943=ORIENTED_EDGE('',*,*,#729,.F.);
#944=ORIENTED_EDGE('',*,*,#726,.F.);
#945=ORIENTED_EDGE('',*,*,#714,.T.);
#946=ORIENTED_EDGE('',*,*,#730,.T.);
#947=ORIENTED_EDGE('',*,*,#731,.F.);
#948=ORIENTED_EDGE('',*,*,#728,.F.);
#949=ORIENTED_EDGE('',*,*,#713,.T.);
#950=ORIENTED_EDGE('',*,*,#732,.T.);
#951=ORIENTED_EDGE('',*,*,#733,.F.);
#952=ORIENTED_EDGE('',*,*,#730,.F.);
#953=ORIENTED_EDGE('',*,*,#712,.T.);
#954=ORIENTED_EDGE('',*,*,#734,.T.);
#955=ORIENTED_EDGE('',*,*,#735,.F.);
#956=ORIENTED_EDGE('',*,*,#732,.F.);
#957=ORIENTED_EDGE('',*,*,#711,.T.);
#958=ORIENTED_EDGE('',*,*,#736,.T.);
#959=ORIENTED_EDGE('',*,*,#737,.F.);
#960=ORIENTED_EDGE('',*,*,#734,.F.);
#961=ORIENTED_EDGE('',*,*,#710,.T.);
#962=ORIENTED_EDGE('',*,*,#738,.T.);
#963=ORIENTED_EDGE('',*,*,#739,.F.);
#964=ORIENTED_EDGE('',*,*,#736,.F.);
#965=ORIENTED_EDGE('',*,*,#740,.T.);
#966=ORIENTED_EDGE('',*,*,#741,.F.);
#967=ORIENTED_EDGE('',*,*,#742,.F.);
#968=ORIENTED_EDGE('',*,*,#743,.F.);
#969=ORIENTED_EDGE('',*,*,#744,.F.);
#970=ORIENTED_EDGE('',*,*,#745,.F.);
#971=ORIENTED_EDGE('',*,*,#746,.F.);
#972=ORIENTED_EDGE('',*,*,#747,.F.);
#973=ORIENTED_EDGE('',*,*,#748,.F.);
#974=ORIENTED_EDGE('',*,*,#749,.F.);
#975=ORIENTED_EDGE('',*,*,#750,.F.);
#976=ORIENTED_EDGE('',*,*,#751,.F.);
#977=ORIENTED_EDGE('',*,*,#751,.T.);
#978=ORIENTED_EDGE('',*,*,#752,.T.);
#979=ORIENTED_EDGE('',*,*,#753,.F.);
#980=ORIENTED_EDGE('',*,*,#754,.F.);
#981=ORIENTED_EDGE('',*,*,#750,.T.);
#982=ORIENTED_EDGE('',*,*,#755,.T.);
#983=ORIENTED_EDGE('',*,*,#756,.F.);
#984=ORIENTED_EDGE('',*,*,#752,.F.);
#985=ORIENTED_EDGE('',*,*,#749,.T.);
#986=ORIENTED_EDGE('',*,*,#757,.T.);
#987=ORIENTED_EDGE('',*,*,#758,.F.);
#988=ORIENTED_EDGE('',*,*,#755,.F.);
#989=ORIENTED_EDGE('',*,*,#748,.T.);
#990=ORIENTED_EDGE('',*,*,#759,.T.);
#991=ORIENTED_EDGE('',*,*,#760,.F.);
#992=ORIENTED_EDGE('',*,*,#757,.F.);
#993=ORIENTED_EDGE('',*,*,#747,.T.);
#994=ORIENTED_EDGE('',*,*,#761,.T.);
#995=ORIENTED_EDGE('',*,*,#762,.F.);
#996=ORIENTED_EDGE('',*,*,#759,.F.);
#997=ORIENTED_EDGE('',*,*,#746,.T.);
#998=ORIENTED_EDGE('',*,*,#763,.T.);
#999=ORIENTED_EDGE('',*,*,#764,.F.);
#1000=ORIENTED_EDGE('',*,*,#761,.F.);
#1001=ORIENTED_EDGE('',*,*,#745,.T.);
#1002=ORIENTED_EDGE('',*,*,#765,.T.);
#1003=ORIENTED_EDGE('',*,*,#766,.F.);
#1004=ORIENTED_EDGE('',*,*,#763,.F.);
#1005=ORIENTED_EDGE('',*,*,#744,.T.);
#1006=ORIENTED_EDGE('',*,*,#767,.T.);
#1007=ORIENTED_EDGE('',*,*,#768,.F.);
#1008=ORIENTED_EDGE('',*,*,#765,.F.);
#1009=ORIENTED_EDGE('',*,*,#743,.T.);
#1010=ORIENTED_EDGE('',*,*,#769,.T.);
#1011=ORIENTED_EDGE('',*,*,#770,.F.);
#1012=ORIENTED_EDGE('',*,*,#767,.F.);
#1013=ORIENTED_EDGE('',*,*,#742,.T.);
#1014=ORIENTED_EDGE('',*,*,#771,.T.);
#1015=ORIENTED_EDGE('',*,*,#772,.F.);
#1016=ORIENTED_EDGE('',*,*,#769,.F.);
#1017=ORIENTED_EDGE('',*,*,#741,.T.);
#1018=ORIENTED_EDGE('',*,*,#773,.T.);
#1019=ORIENTED_EDGE('',*,*,#774,.F.);
#1020=ORIENTED_EDGE('',*,*,#771,.F.);
#1021=ORIENTED_EDGE('',*,*,#775,.F.);
#1022=ORIENTED_EDGE('',*,*,#776,.T.);
#1023=ORIENTED_EDGE('',*,*,#777,.T.);
#1024=ORIENTED_EDGE('',*,*,#776,.F.);
#1025=ORIENTED_EDGE('',*,*,#778,.F.);
#1026=ORIENTED_EDGE('',*,*,#779,.T.);
#1027=ORIENTED_EDGE('',*,*,#780,.T.);
#1028=ORIENTED_EDGE('',*,*,#779,.F.);
#1029=ORIENTED_EDGE('',*,*,#781,.F.);
#1030=ORIENTED_EDGE('',*,*,#782,.T.);
#1031=ORIENTED_EDGE('',*,*,#646,.T.);
#1032=ORIENTED_EDGE('',*,*,#782,.F.);
#1033=ORIENTED_EDGE('',*,*,#783,.F.);
#1034=ORIENTED_EDGE('',*,*,#784,.T.);
#1035=ORIENTED_EDGE('',*,*,#652,.T.);
#1036=ORIENTED_EDGE('',*,*,#784,.F.);
#1037=ORIENTED_EDGE('',*,*,#785,.F.);
#1038=ORIENTED_EDGE('',*,*,#786,.T.);
#1039=ORIENTED_EDGE('',*,*,#649,.T.);
#1040=ORIENTED_EDGE('',*,*,#786,.F.);
#1041=ORIENTED_EDGE('',*,*,#709,.T.);
#1042=ORIENTED_EDGE('',*,*,#787,.T.);
#1043=ORIENTED_EDGE('',*,*,#788,.F.);
#1044=ORIENTED_EDGE('',*,*,#738,.F.);
#1045=ORIENTED_EDGE('',*,*,#661,.T.);
#1046=ORIENTED_EDGE('',*,*,#789,.T.);
#1047=ORIENTED_EDGE('',*,*,#790,.F.);
#1048=ORIENTED_EDGE('',*,*,#791,.F.);
#1049=ORIENTED_EDGE('',*,*,#662,.T.);
#1050=ORIENTED_EDGE('',*,*,#791,.T.);
#1051=ORIENTED_EDGE('',*,*,#792,.F.);
#1052=ORIENTED_EDGE('',*,*,#793,.F.);
#1053=ORIENTED_EDGE('',*,*,#663,.T.);
#1054=ORIENTED_EDGE('',*,*,#793,.T.);
#1055=ORIENTED_EDGE('',*,*,#794,.F.);
#1056=ORIENTED_EDGE('',*,*,#795,.F.);
#1057=ORIENTED_EDGE('',*,*,#664,.T.);
#1058=ORIENTED_EDGE('',*,*,#795,.T.);
#1059=ORIENTED_EDGE('',*,*,#796,.F.);
#1060=ORIENTED_EDGE('',*,*,#797,.F.);
#1061=ORIENTED_EDGE('',*,*,#653,.T.);
#1062=ORIENTED_EDGE('',*,*,#797,.T.);
#1063=ORIENTED_EDGE('',*,*,#798,.F.);
#1064=ORIENTED_EDGE('',*,*,#676,.F.);
#1065=ORIENTED_EDGE('',*,*,#799,.T.);
#1066=ORIENTED_EDGE('',*,*,#800,.T.);
#1067=ORIENTED_EDGE('',*,*,#801,.F.);
#1068=ORIENTED_EDGE('',*,*,#802,.F.);
#1069=ORIENTED_EDGE('',*,*,#719,.F.);
#1070=ORIENTED_EDGE('',*,*,#723,.T.);
#1071=ORIENTED_EDGE('',*,*,#803,.F.);
#1072=ORIENTED_EDGE('',*,*,#789,.F.);
#1073=ORIENTED_EDGE('',*,*,#660,.F.);
#1074=ORIENTED_EDGE('',*,*,#667,.T.);
#1075=ORIENTED_EDGE('',*,*,#804,.F.);
#1076=ORIENTED_EDGE('',*,*,#805,.F.);
#1077=ORIENTED_EDGE('',*,*,#806,.T.);
#1078=ORIENTED_EDGE('',*,*,#805,.T.);
#1079=ORIENTED_EDGE('',*,*,#807,.F.);
#1080=ORIENTED_EDGE('',*,*,#808,.F.);
#1081=ORIENTED_EDGE('',*,*,#689,.T.);
#1082=ORIENTED_EDGE('',*,*,#809,.T.);
#1083=ORIENTED_EDGE('',*,*,#810,.F.);
#1084=ORIENTED_EDGE('',*,*,#811,.F.);
#1085=ORIENTED_EDGE('',*,*,#678,.T.);
#1086=ORIENTED_EDGE('',*,*,#811,.T.);
#1087=ORIENTED_EDGE('',*,*,#812,.F.);
#1088=ORIENTED_EDGE('',*,*,#707,.F.);
#1089=ORIENTED_EDGE('',*,*,#813,.T.);
#1090=ORIENTED_EDGE('',*,*,#808,.T.);
#1091=ORIENTED_EDGE('',*,*,#814,.F.);
#1092=ORIENTED_EDGE('',*,*,#809,.F.);
#1093=ORIENTED_EDGE('',*,*,#688,.F.);
#1094=ORIENTED_EDGE('',*,*,#692,.T.);
#1095=ORIENTED_EDGE('',*,*,#815,.F.);
#1096=ORIENTED_EDGE('',*,*,#773,.F.);
#1097=ORIENTED_EDGE('',*,*,#740,.F.);
#1098=ORIENTED_EDGE('',*,*,#754,.T.);
#1099=ORIENTED_EDGE('',*,*,#816,.F.);
#1100=ORIENTED_EDGE('',*,*,#817,.F.);
#1101=ORIENTED_EDGE('',*,*,#818,.T.);
#1102=ORIENTED_EDGE('',*,*,#817,.T.);
#1103=ORIENTED_EDGE('',*,*,#819,.F.);
#1104=ORIENTED_EDGE('',*,*,#800,.F.);
#1105=ORIENTED_EDGE('',*,*,#720,.T.);
#1106=ORIENTED_EDGE('',*,*,#802,.T.);
#1107=ORIENTED_EDGE('',*,*,#820,.F.);
#1108=ORIENTED_EDGE('',*,*,#787,.F.);
#1109=ORIENTED_EDGE('',*,*,#820,.T.);
#1110=ORIENTED_EDGE('',*,*,#801,.T.);
#1111=ORIENTED_EDGE('',*,*,#819,.T.);
#1112=ORIENTED_EDGE('',*,*,#816,.T.);
#1113=ORIENTED_EDGE('',*,*,#753,.T.);
#1114=ORIENTED_EDGE('',*,*,#756,.T.);
#1115=ORIENTED_EDGE('',*,*,#758,.T.);
#1116=ORIENTED_EDGE('',*,*,#760,.T.);
#1117=ORIENTED_EDGE('',*,*,#762,.T.);
#1118=ORIENTED_EDGE('',*,*,#764,.T.);
#1119=ORIENTED_EDGE('',*,*,#766,.T.);
#1120=ORIENTED_EDGE('',*,*,#768,.T.);
#1121=ORIENTED_EDGE('',*,*,#770,.T.);
#1122=ORIENTED_EDGE('',*,*,#772,.T.);
#1123=ORIENTED_EDGE('',*,*,#774,.T.);
#1124=ORIENTED_EDGE('',*,*,#815,.T.);
#1125=ORIENTED_EDGE('',*,*,#691,.T.);
#1126=ORIENTED_EDGE('',*,*,#694,.T.);
#1127=ORIENTED_EDGE('',*,*,#696,.T.);
#1128=ORIENTED_EDGE('',*,*,#698,.T.);
#1129=ORIENTED_EDGE('',*,*,#700,.T.);
#1130=ORIENTED_EDGE('',*,*,#702,.T.);
#1131=ORIENTED_EDGE('',*,*,#704,.T.);
#1132=ORIENTED_EDGE('',*,*,#706,.T.);
#1133=ORIENTED_EDGE('',*,*,#708,.T.);
#1134=ORIENTED_EDGE('',*,*,#812,.T.);
#1135=ORIENTED_EDGE('',*,*,#810,.T.);
#1136=ORIENTED_EDGE('',*,*,#814,.T.);
#1137=ORIENTED_EDGE('',*,*,#807,.T.);
#1138=ORIENTED_EDGE('',*,*,#804,.T.);
#1139=ORIENTED_EDGE('',*,*,#666,.T.);
#1140=ORIENTED_EDGE('',*,*,#669,.T.);
#1141=ORIENTED_EDGE('',*,*,#671,.T.);
#1142=ORIENTED_EDGE('',*,*,#673,.T.);
#1143=ORIENTED_EDGE('',*,*,#675,.T.);
#1144=ORIENTED_EDGE('',*,*,#677,.T.);
#1145=ORIENTED_EDGE('',*,*,#798,.T.);
#1146=ORIENTED_EDGE('',*,*,#796,.T.);
#1147=ORIENTED_EDGE('',*,*,#794,.T.);
#1148=ORIENTED_EDGE('',*,*,#792,.T.);
#1149=ORIENTED_EDGE('',*,*,#790,.T.);
#1150=ORIENTED_EDGE('',*,*,#803,.T.);
#1151=ORIENTED_EDGE('',*,*,#722,.T.);
#1152=ORIENTED_EDGE('',*,*,#725,.T.);
#1153=ORIENTED_EDGE('',*,*,#727,.T.);
#1154=ORIENTED_EDGE('',*,*,#729,.T.);
#1155=ORIENTED_EDGE('',*,*,#731,.T.);
#1156=ORIENTED_EDGE('',*,*,#733,.T.);
#1157=ORIENTED_EDGE('',*,*,#735,.T.);
#1158=ORIENTED_EDGE('',*,*,#737,.T.);
#1159=ORIENTED_EDGE('',*,*,#739,.T.);
#1160=ORIENTED_EDGE('',*,*,#788,.T.);
#1161=ORIENTED_EDGE('',*,*,#785,.T.);
#1162=ORIENTED_EDGE('',*,*,#783,.T.);
#1163=ORIENTED_EDGE('',*,*,#781,.T.);
#1164=ORIENTED_EDGE('',*,*,#778,.T.);
#1165=ORIENTED_EDGE('',*,*,#775,.T.);
#1166=ORIENTED_EDGE('',*,*,#799,.F.);
#1167=ORIENTED_EDGE('',*,*,#806,.F.);
#1168=ORIENTED_EDGE('',*,*,#813,.F.);
#1169=ORIENTED_EDGE('',*,*,#818,.F.);
#1170=ORIENTED_EDGE('',*,*,#644,.T.);
#1171=ORIENTED_EDGE('',*,*,#647,.T.);
#1172=ORIENTED_EDGE('',*,*,#650,.T.);
#1173=ORIENTED_EDGE('',*,*,#780,.F.);
#1174=ORIENTED_EDGE('',*,*,#777,.F.);
#1175=CONICAL_SURFACE('',#1254,2.,0.785398163397448);
#1176=CONICAL_SURFACE('',#1257,2.,0.785398163397448);
#1177=CONICAL_SURFACE('',#1260,2.,0.785398163397448);
#1178=ADVANCED_FACE('',(#84),#1175,.F.);
#1179=ADVANCED_FACE('',(#85),#1176,.F.);
#1180=ADVANCED_FACE('',(#86),#1177,.F.);
#1181=ADVANCED_FACE('',(#87),#46,.T.);
#1182=ADVANCED_FACE('',(#88),#47,.T.);
#1183=ADVANCED_FACE('',(#89),#48,.T.);
#1184=ADVANCED_FACE('',(#90),#25,.F.);
#1185=ADVANCED_FACE('',(#91),#49,.T.);
#1186=ADVANCED_FACE('',(#92),#26,.F.);
#1187=ADVANCED_FACE('',(#93),#50,.T.);
#1188=ADVANCED_FACE('',(#94),#51,.T.);
#1189=ADVANCED_FACE('',(#95),#52,.T.);
#1190=ADVANCED_FACE('',(#96),#53,.T.);
#1191=ADVANCED_FACE('',(#97),#27,.F.);
#1192=ADVANCED_FACE('',(#98),#54,.T.);
#1193=ADVANCED_FACE('',(#99),#28,.F.);
#1194=ADVANCED_FACE('',(#100),#55,.T.);
#1195=ADVANCED_FACE('',(#101),#29,.F.);
#1196=ADVANCED_FACE('',(#102),#56,.T.);
#1197=ADVANCED_FACE('',(#103),#30,.F.);
#1198=ADVANCED_FACE('',(#104),#57,.T.);
#1199=ADVANCED_FACE('',(#105),#58,.T.);
#1200=ADVANCED_FACE('',(#106),#59,.T.);
#1201=ADVANCED_FACE('',(#107),#31,.F.);
#1202=ADVANCED_FACE('',(#108),#60,.T.);
#1203=ADVANCED_FACE('',(#109),#32,.F.);
#1204=ADVANCED_FACE('',(#110),#61,.T.);
#1205=ADVANCED_FACE('',(#111),#33,.F.);
#1206=ADVANCED_FACE('',(#112),#62,.T.);
#1207=ADVANCED_FACE('',(#113),#34,.F.);
#1208=ADVANCED_FACE('',(#114),#63,.T.);
#1209=ADVANCED_FACE('',(#115),#64,.T.);
#1210=ADVANCED_FACE('',(#116),#65,.T.);
#1211=ADVANCED_FACE('',(#117),#35,.F.);
#1212=ADVANCED_FACE('',(#118),#66,.T.);
#1213=ADVANCED_FACE('',(#119),#36,.F.);
#1214=ADVANCED_FACE('',(#120),#67,.T.);
#1215=ADVANCED_FACE('',(#121),#37,.F.);
#1216=ADVANCED_FACE('',(#122),#68,.T.);
#1217=ADVANCED_FACE('',(#123),#38,.F.);
#1218=ADVANCED_FACE('',(#124),#69,.T.);
#1219=ADVANCED_FACE('',(#125),#70,.T.);
#1220=ADVANCED_FACE('',(#126),#39,.F.);
#1221=ADVANCED_FACE('',(#127),#40,.F.);
#1222=ADVANCED_FACE('',(#128),#41,.F.);
#1223=ADVANCED_FACE('',(#129),#42,.F.);
#1224=ADVANCED_FACE('',(#130),#43,.F.);
#1225=ADVANCED_FACE('',(#131),#71,.T.);
#1226=ADVANCED_FACE('',(#132),#72,.T.);
#1227=ADVANCED_FACE('',(#133),#73,.T.);
#1228=ADVANCED_FACE('',(#134),#44,.F.);
#1229=ADVANCED_FACE('',(#135),#74,.T.);
#1230=ADVANCED_FACE('',(#136),#45,.F.);
#1231=ADVANCED_FACE('',(#137),#75,.T.);
#1232=ADVANCED_FACE('',(#138),#76,.T.);
#1233=ADVANCED_FACE('',(#139),#77,.T.);
#1234=ADVANCED_FACE('',(#140),#78,.T.);
#1235=ADVANCED_FACE('',(#141),#79,.T.);
#1236=ADVANCED_FACE('',(#142),#80,.T.);
#1237=ADVANCED_FACE('',(#143),#81,.T.);
#1238=ADVANCED_FACE('',(#144,#15,#16,#17,#18,#19),#82,.T.);
#1239=ADVANCED_FACE('',(#145,#20,#21,#22,#23,#24),#83,.F.);
#1240=CLOSED_SHELL('',(#1178,#1179,#1180,#1181,#1182,#1183,#1184,#1185,
#1186,#1187,#1188,#1189,#1190,#1191,#1192,#1193,#1194,#1195,#1196,#1197,
#1198,#1199,#1200,#1201,#1202,#1203,#1204,#1205,#1206,#1207,#1208,#1209,
#1210,#1211,#1212,#1213,#1214,#1215,#1216,#1217,#1218,#1219,#1220,#1221,
#1222,#1223,#1224,#1225,#1226,#1227,#1228,#1229,#1230,#1231,#1232,#1233,
#1234,#1235,#1236,#1237,#1238,#1239));
#1241=DERIVED_UNIT_ELEMENT(#1243,1.);
#1242=DERIVED_UNIT_ELEMENT(#2071,-3.);
#1243=(
MASS_UNIT()
NAMED_UNIT(*)
SI_UNIT(.KILO.,.GRAM.)
);
#1244=DERIVED_UNIT((#1241,#1242));
#1245=MEASURE_REPRESENTATION_ITEM('density measure',
POSITIVE_RATIO_MEASURE(7850.),#1244);
#1246=PROPERTY_DEFINITION_REPRESENTATION(#1251,#1248);
#1247=PROPERTY_DEFINITION_REPRESENTATION(#1252,#1249);
#1248=REPRESENTATION('material name',(#1250),#2068);
#1249=REPRESENTATION('density',(#1245),#2068);
#1250=DESCRIPTIVE_REPRESENTATION_ITEM('\X2\94A2\X0\','\X2\94A2\X0\');
#1251=PROPERTY_DEFINITION('material property','material name',#2078);
#1252=PROPERTY_DEFINITION('material property','density of part',#2078);
#1253=AXIS2_PLACEMENT_3D('',#1709,#1361,#1362);
#1254=AXIS2_PLACEMENT_3D('',#1710,#1363,#1364);
#1255=AXIS2_PLACEMENT_3D('',#1712,#1365,#1366);
#1256=AXIS2_PLACEMENT_3D('',#1715,#1368,#1369);
#1257=AXIS2_PLACEMENT_3D('',#1716,#1370,#1371);
#1258=AXIS2_PLACEMENT_3D('',#1718,#1372,#1373);
#1259=AXIS2_PLACEMENT_3D('',#1721,#1375,#1376);
#1260=AXIS2_PLACEMENT_3D('',#1722,#1377,#1378);
#1261=AXIS2_PLACEMENT_3D('',#1724,#1379,#1380);
#1262=AXIS2_PLACEMENT_3D('',#1727,#1382,#1383);
#1263=AXIS2_PLACEMENT_3D('',#1728,#1384,#1385);
#1264=AXIS2_PLACEMENT_3D('',#1731,#1386,#1387);
#1265=AXIS2_PLACEMENT_3D('',#1735,#1389,#1390);
#1266=AXIS2_PLACEMENT_3D('',#1739,#1392,#1393);
#1267=AXIS2_PLACEMENT_3D('',#1751,#1399,#1400);
#1268=AXIS2_PLACEMENT_3D('',#1753,#1402,#1403);
#1269=AXIS2_PLACEMENT_3D('',#1759,#1407,#1408);
#1270=AXIS2_PLACEMENT_3D('',#1763,#1411,#1412);
#1271=AXIS2_PLACEMENT_3D('',#1766,#1414,#1415);
#1272=AXIS2_PLACEMENT_3D('',#1767,#1416,#1417);
#1273=AXIS2_PLACEMENT_3D('',#1771,#1420,#1421);
#1274=AXIS2_PLACEMENT_3D('',#1774,#1423,#1424);
#1275=AXIS2_PLACEMENT_3D('',#1775,#1425,#1426);
#1276=AXIS2_PLACEMENT_3D('',#1779,#1429,#1430);
#1277=AXIS2_PLACEMENT_3D('',#1784,#1432,#1433);
#1278=AXIS2_PLACEMENT_3D('',#1788,#1435,#1436);
#1279=AXIS2_PLACEMENT_3D('',#1792,#1438,#1439);
#1280=AXIS2_PLACEMENT_3D('',#1796,#1441,#1442);
#1281=AXIS2_PLACEMENT_3D('',#1804,#1447,#1448);
#1282=AXIS2_PLACEMENT_3D('',#1810,#1452,#1453);
#1283=AXIS2_PLACEMENT_3D('',#1814,#1456,#1457);
#1284=AXIS2_PLACEMENT_3D('',#1817,#1459,#1460);
#1285=AXIS2_PLACEMENT_3D('',#1818,#1461,#1462);
#1286=AXIS2_PLACEMENT_3D('',#1822,#1465,#1466);
#1287=AXIS2_PLACEMENT_3D('',#1825,#1468,#1469);
#1288=AXIS2_PLACEMENT_3D('',#1826,#1470,#1471);
#1289=AXIS2_PLACEMENT_3D('',#1830,#1474,#1475);
#1290=AXIS2_PLACEMENT_3D('',#1833,#1477,#1478);
#1291=AXIS2_PLACEMENT_3D('',#1834,#1479,#1480);
#1292=AXIS2_PLACEMENT_3D('',#1838,#1483,#1484);
#1293=AXIS2_PLACEMENT_3D('',#1841,#1486,#1487);
#1294=AXIS2_PLACEMENT_3D('',#1842,#1488,#1489);
#1295=AXIS2_PLACEMENT_3D('',#1847,#1491,#1492);
#1296=AXIS2_PLACEMENT_3D('',#1851,#1494,#1495);
#1297=AXIS2_PLACEMENT_3D('',#1855,#1497,#1498);
#1298=AXIS2_PLACEMENT_3D('',#1859,#1500,#1501);
#1299=AXIS2_PLACEMENT_3D('',#1867,#1506,#1507);
#1300=AXIS2_PLACEMENT_3D('',#1873,#1511,#1512);
#1301=AXIS2_PLACEMENT_3D('',#1877,#1515,#1516);
#1302=AXIS2_PLACEMENT_3D('',#1880,#1518,#1519);
#1303=AXIS2_PLACEMENT_3D('',#1881,#1520,#1521);
#1304=AXIS2_PLACEMENT_3D('',#1885,#1524,#1525);
#1305=AXIS2_PLACEMENT_3D('',#1888,#1527,#1528);
#1306=AXIS2_PLACEMENT_3D('',#1889,#1529,#1530);
#1307=AXIS2_PLACEMENT_3D('',#1893,#1533,#1534);
#1308=AXIS2_PLACEMENT_3D('',#1896,#1536,#1537);
#1309=AXIS2_PLACEMENT_3D('',#1897,#1538,#1539);
#1310=AXIS2_PLACEMENT_3D('',#1901,#1542,#1543);
#1311=AXIS2_PLACEMENT_3D('',#1904,#1545,#1546);
#1312=AXIS2_PLACEMENT_3D('',#1905,#1547,#1548);
#1313=AXIS2_PLACEMENT_3D('',#1914,#1552,#1553);
#1314=AXIS2_PLACEMENT_3D('',#1918,#1555,#1556);
#1315=AXIS2_PLACEMENT_3D('',#1922,#1558,#1559);
#1316=AXIS2_PLACEMENT_3D('',#1926,#1561,#1562);
#1317=AXIS2_PLACEMENT_3D('',#1930,#1565,#1566);
#1318=AXIS2_PLACEMENT_3D('',#1936,#1570,#1571);
#1319=AXIS2_PLACEMENT_3D('',#1940,#1574,#1575);
#1320=AXIS2_PLACEMENT_3D('',#1943,#1577,#1578);
#1321=AXIS2_PLACEMENT_3D('',#1944,#1579,#1580);
#1322=AXIS2_PLACEMENT_3D('',#1948,#1583,#1584);
#1323=AXIS2_PLACEMENT_3D('',#1951,#1586,#1587);
#1324=AXIS2_PLACEMENT_3D('',#1952,#1588,#1589);
#1325=AXIS2_PLACEMENT_3D('',#1956,#1592,#1593);
#1326=AXIS2_PLACEMENT_3D('',#1959,#1595,#1596);
#1327=AXIS2_PLACEMENT_3D('',#1960,#1597,#1598);
#1328=AXIS2_PLACEMENT_3D('',#1964,#1601,#1602);
#1329=AXIS2_PLACEMENT_3D('',#1967,#1604,#1605);
#1330=AXIS2_PLACEMENT_3D('',#1968,#1606,#1607);
#1331=AXIS2_PLACEMENT_3D('',#1972,#1610,#1611);
#1332=AXIS2_PLACEMENT_3D('',#1976,#1614,#1615);
#1333=AXIS2_PLACEMENT_3D('',#1978,#1616,#1617);
#1334=AXIS2_PLACEMENT_3D('',#1981,#1619,#1620);
#1335=AXIS2_PLACEMENT_3D('',#1982,#1621,#1622);
#1336=AXIS2_PLACEMENT_3D('',#1984,#1623,#1624);
#1337=AXIS2_PLACEMENT_3D('',#1987,#1626,#1627);
#1338=AXIS2_PLACEMENT_3D('',#1988,#1628,#1629);
#1339=AXIS2_PLACEMENT_3D('',#1990,#1630,#1631);
#1340=AXIS2_PLACEMENT_3D('',#1992,#1633,#1634);
#1341=AXIS2_PLACEMENT_3D('',#1994,#1635,#1636);
#1342=AXIS2_PLACEMENT_3D('',#1996,#1638,#1639);
#1343=AXIS2_PLACEMENT_3D('',#1998,#1640,#1641);
#1344=AXIS2_PLACEMENT_3D('',#2000,#1643,#1644);
#1345=AXIS2_PLACEMENT_3D('',#2004,#1647,#1648);
#1346=AXIS2_PLACEMENT_3D('',#2010,#1652,#1653);
#1347=AXIS2_PLACEMENT_3D('',#2014,#1656,#1657);
#1348=AXIS2_PLACEMENT_3D('',#2016,#1658,#1659);
#1349=AXIS2_PLACEMENT_3D('',#2018,#1661,#1662);
#1350=AXIS2_PLACEMENT_3D('',#2022,#1665,#1666);
#1351=AXIS2_PLACEMENT_3D('',#2023,#1667,#1668);
#1352=AXIS2_PLACEMENT_3D('',#2024,#1669,#1670);
#1353=AXIS2_PLACEMENT_3D('',#2037,#1678,#1679);
#1354=AXIS2_PLACEMENT_3D('',#2043,#1683,#1684);
#1355=AXIS2_PLACEMENT_3D('',#2049,#1688,#1689);
#1356=AXIS2_PLACEMENT_3D('',#2051,#1691,#1692);
#1357=AXIS2_PLACEMENT_3D('',#2059,#1698,#1699);
#1358=AXIS2_PLACEMENT_3D('',#2062,#1702,#1703);
#1359=AXIS2_PLACEMENT_3D('',#2064,#1705,#1706);
#1360=AXIS2_PLACEMENT_3D('',#2065,#1707,#1708);
#1361=DIRECTION('axis',(0.,0.,1.));
#1362=DIRECTION('refdir',(1.,0.,0.));
#1363=DIRECTION('center_axis',(0.,-1.,0.));
#1364=DIRECTION('ref_axis',(1.,0.,0.));
#1365=DIRECTION('center_axis',(0.,1.,0.));
#1366=DIRECTION('ref_axis',(1.,0.,0.));
#1367=DIRECTION('',(0.707106781186548,0.707106781186548,-8.65956056235493E-17));
#1368=DIRECTION('center_axis',(0.,-1.,0.));
#1369=DIRECTION('ref_axis',(1.,0.,0.));
#1370=DIRECTION('center_axis',(0.,-1.,0.));
#1371=DIRECTION('ref_axis',(1.,0.,0.));
#1372=DIRECTION('center_axis',(0.,1.,0.));
#1373=DIRECTION('ref_axis',(1.,0.,0.));
#1374=DIRECTION('',(0.707106781186548,0.707106781186548,-8.65956056235493E-17));
#1375=DIRECTION('center_axis',(0.,-1.,0.));
#1376=DIRECTION('ref_axis',(1.,0.,0.));
#1377=DIRECTION('center_axis',(0.,-1.,0.));
#1378=DIRECTION('ref_axis',(1.,0.,0.));
#1379=DIRECTION('center_axis',(0.,1.,0.));
#1380=DIRECTION('ref_axis',(1.,0.,0.));
#1381=DIRECTION('',(0.707106781186548,0.707106781186548,-8.65956056235493E-17));
#1382=DIRECTION('center_axis',(0.,-1.,0.));
#1383=DIRECTION('ref_axis',(1.,0.,0.));
#1384=DIRECTION('center_axis',(0.,1.,0.));
#1385=DIRECTION('ref_axis',(1.,0.,0.));
#1386=DIRECTION('center_axis',(0.,-1.,0.));
#1387=DIRECTION('ref_axis',(1.77635683940025E-14,0.,-1.));
#1388=DIRECTION('',(0.,0.,-1.));
#1389=DIRECTION('center_axis',(0.,-1.,0.));
#1390=DIRECTION('ref_axis',(-1.,0.,0.));
#1391=DIRECTION('',(-1.,0.,0.));
#1392=DIRECTION('center_axis',(0.,-1.,0.));
#1393=DIRECTION('ref_axis',(0.,0.,1.));
#1394=DIRECTION('',(3.55271367880146E-14,0.,1.));
#1395=DIRECTION('',(-1.,0.,8.88178419700124E-15));
#1396=DIRECTION('',(5.9211894646675E-16,0.,-1.));
#1397=DIRECTION('',(1.,0.,0.));
#1398=DIRECTION('',(0.,0.,1.));
#1399=DIRECTION('center_axis',(0.,-1.,0.));
#1400=DIRECTION('ref_axis',(1.,0.,0.));
#1401=DIRECTION('',(1.,0.,5.55111512312578E-15));
#1402=DIRECTION('center_axis',(-8.88178419700124E-15,0.,-1.));
#1403=DIRECTION('ref_axis',(-1.,0.,8.88178419700124E-15));
#1404=DIRECTION('',(0.,1.,0.));
#1405=DIRECTION('',(-1.,0.,8.88178419700124E-15));
#1406=DIRECTION('',(0.,1.,0.));
#1407=DIRECTION('center_axis',(-1.,0.,3.55271367880146E-14));
#1408=DIRECTION('ref_axis',(3.55271367880146E-14,0.,1.));
#1409=DIRECTION('',(0.,1.,0.));
#1410=DIRECTION('',(3.55271367880146E-14,0.,1.));
#1411=DIRECTION('center_axis',(0.,1.,0.));
#1412=DIRECTION('ref_axis',(0.,0.,1.));
#1413=DIRECTION('',(0.,1.,0.));
#1414=DIRECTION('center_axis',(0.,-1.,0.));
#1415=DIRECTION('ref_axis',(0.,0.,1.));
#1416=DIRECTION('center_axis',(0.,0.,-1.));
#1417=DIRECTION('ref_axis',(-1.,0.,0.));
#1418=DIRECTION('',(0.,1.,0.));
#1419=DIRECTION('',(-1.,0.,0.));
#1420=DIRECTION('center_axis',(0.,1.,0.));
#1421=DIRECTION('ref_axis',(-1.,0.,0.));
#1422=DIRECTION('',(0.,1.,0.));
#1423=DIRECTION('center_axis',(0.,-1.,0.));
#1424=DIRECTION('ref_axis',(-1.,0.,0.));
#1425=DIRECTION('center_axis',(1.,0.,0.));
#1426=DIRECTION('ref_axis',(0.,0.,-1.));
#1427=DIRECTION('',(0.,1.,0.));
#1428=DIRECTION('',(0.,0.,-1.));
#1429=DIRECTION('center_axis',(0.,1.,0.));
#1430=DIRECTION('ref_axis',(1.,0.,0.));
#1431=DIRECTION('',(2.664535259101E-14,0.,-1.));
#1432=DIRECTION('center_axis',(0.,-1.,0.));
#1433=DIRECTION('ref_axis',(-1.,0.,8.88178419700138E-15));
#1434=DIRECTION('',(-1.,0.,0.));
#1435=DIRECTION('center_axis',(0.,-1.,0.));
#1436=DIRECTION('ref_axis',(-2.22044604925032E-15,0.,1.));
#1437=DIRECTION('',(-1.85037170770859E-15,0.,1.));
#1438=DIRECTION('center_axis',(0.,-1.,0.));
#1439=DIRECTION('ref_axis',(1.,0.,0.));
#1440=DIRECTION('',(1.,0.,-3.70074341541719E-15));
#1441=DIRECTION('center_axis',(0.,-1.,0.));
#1442=DIRECTION('ref_axis',(-4.44089209850064E-15,0.,-1.));
#1443=DIRECTION('',(4.44089209850048E-14,0.,-1.));
#1444=DIRECTION('',(1.,0.,2.7872258604496E-15));
#1445=DIRECTION('',(0.,0.,1.));
#1446=DIRECTION('',(-1.,0.,-8.88178419700125E-15));
#1447=DIRECTION('center_axis',(-2.7872258604496E-15,0.,1.));
#1448=DIRECTION('ref_axis',(1.,0.,2.7872258604496E-15));
#1449=DIRECTION('',(0.,1.,0.));
#1450=DIRECTION('',(1.,0.,2.7872258604496E-15));
#1451=DIRECTION('',(0.,1.,0.));
#1452=DIRECTION('center_axis',(1.,0.,4.44089209850048E-14));
#1453=DIRECTION('ref_axis',(4.44089209850048E-14,0.,-1.));
#1454=DIRECTION('',(0.,1.,0.));
#1455=DIRECTION('',(4.44089209850048E-14,0.,-1.));
#1456=DIRECTION('center_axis',(0.,1.,0.));
#1457=DIRECTION('ref_axis',(-4.44089209850064E-15,0.,-1.));
#1458=DIRECTION('',(0.,1.,0.));
#1459=DIRECTION('center_axis',(0.,-1.,0.));
#1460=DIRECTION('ref_axis',(-4.44089209850064E-15,0.,-1.));
#1461=DIRECTION('center_axis',(3.70074341541719E-15,0.,1.));
#1462=DIRECTION('ref_axis',(1.,0.,-3.70074341541719E-15));
#1463=DIRECTION('',(0.,1.,0.));
#1464=DIRECTION('',(1.,0.,-3.70074341541719E-15));
#1465=DIRECTION('center_axis',(0.,1.,0.));
#1466=DIRECTION('ref_axis',(1.,0.,0.));
#1467=DIRECTION('',(0.,1.,0.));
#1468=DIRECTION('center_axis',(0.,-1.,0.));
#1469=DIRECTION('ref_axis',(1.,0.,0.));
#1470=DIRECTION('center_axis',(-1.,0.,-1.85037170770859E-15));
#1471=DIRECTION('ref_axis',(-1.85037170770859E-15,0.,1.));
#1472=DIRECTION('',(0.,1.,0.));
#1473=DIRECTION('',(-1.85037170770859E-15,0.,1.));
#1474=DIRECTION('center_axis',(0.,1.,0.));
#1475=DIRECTION('ref_axis',(-2.22044604925032E-15,0.,1.));
#1476=DIRECTION('',(0.,1.,0.));
#1477=DIRECTION('center_axis',(0.,-1.,0.));
#1478=DIRECTION('ref_axis',(-2.22044604925032E-15,0.,1.));
#1479=DIRECTION('center_axis',(0.,0.,-1.));
#1480=DIRECTION('ref_axis',(-1.,0.,0.));
#1481=DIRECTION('',(0.,1.,0.));
#1482=DIRECTION('',(-1.,0.,0.));
#1483=DIRECTION('center_axis',(0.,1.,0.));
#1484=DIRECTION('ref_axis',(-1.,0.,8.88178419700138E-15));
#1485=DIRECTION('',(0.,1.,0.));
#1486=DIRECTION('center_axis',(0.,-1.,0.));
#1487=DIRECTION('ref_axis',(-1.,0.,8.88178419700138E-15));
#1488=DIRECTION('center_axis',(0.,1.,0.));
#1489=DIRECTION('ref_axis',(1.,0.,0.));
#1490=DIRECTION('',(3.5527136788014E-14,0.,1.));
#1491=DIRECTION('center_axis',(0.,-1.,0.));
#1492=DIRECTION('ref_axis',(1.,0.,-8.88178419700105E-15));
#1493=DIRECTION('',(1.,0.,9.25185853854303E-16));
#1494=DIRECTION('center_axis',(0.,-1.,0.));
#1495=DIRECTION('ref_axis',(8.88178419700126E-15,0.,-1.));
#1496=DIRECTION('',(0.,0.,-1.));
#1497=DIRECTION('center_axis',(0.,-1.,0.));
#1498=DIRECTION('ref_axis',(-1.,0.,-2.22044604925032E-15));
#1499=DIRECTION('',(-1.,0.,-3.70074341541719E-15));
#1500=DIRECTION('center_axis',(0.,-1.,0.));
#1501=DIRECTION('ref_axis',(0.,0.,1.));
#1502=DIRECTION('',(-7.10542735760077E-14,0.,1.));
#1503=DIRECTION('',(-1.,0.,6.96806465112404E-16));
#1504=DIRECTION('',(5.9211894646675E-16,0.,-1.));
#1505=DIRECTION('',(1.,0.,8.88178419700128E-15));
#1506=DIRECTION('center_axis',(-6.96806465112404E-16,0.,-1.));
#1507=DIRECTION('ref_axis',(-1.,0.,6.96806465112404E-16));
#1508=DIRECTION('',(0.,1.,0.));
#1509=DIRECTION('',(-1.,0.,6.96806465112404E-16));
#1510=DIRECTION('',(0.,1.,0.));
#1511=DIRECTION('center_axis',(-1.,0.,-7.10542735760077E-14));
#1512=DIRECTION('ref_axis',(-7.10542735760077E-14,0.,1.));
#1513=DIRECTION('',(0.,1.,0.));
#1514=DIRECTION('',(-7.10542735760077E-14,0.,1.));
#1515=DIRECTION('center_axis',(0.,1.,0.));
#1516=DIRECTION('ref_axis',(0.,0.,1.));
#1517=DIRECTION('',(0.,1.,0.));
#1518=DIRECTION('center_axis',(0.,-1.,0.));
#1519=DIRECTION('ref_axis',(0.,0.,1.));
#1520=DIRECTION('center_axis',(3.70074341541719E-15,0.,-1.));
#1521=DIRECTION('ref_axis',(-1.,0.,-3.70074341541719E-15));
#1522=DIRECTION('',(0.,1.,0.));
#1523=DIRECTION('',(-1.,0.,-3.70074341541719E-15));
#1524=DIRECTION('center_axis',(0.,1.,0.));
#1525=DIRECTION('ref_axis',(-1.,0.,-2.22044604925032E-15));
#1526=DIRECTION('',(0.,1.,0.));
#1527=DIRECTION('center_axis',(0.,-1.,0.));
#1528=DIRECTION('ref_axis',(-1.,0.,-2.22044604925032E-15));
#1529=DIRECTION('center_axis',(1.,0.,0.));
#1530=DIRECTION('ref_axis',(0.,0.,-1.));
#1531=DIRECTION('',(0.,1.,0.));
#1532=DIRECTION('',(0.,0.,-1.));
#1533=DIRECTION('center_axis',(0.,1.,0.));
#1534=DIRECTION('ref_axis',(8.88178419700126E-15,0.,-1.));
#1535=DIRECTION('',(0.,1.,0.));
#1536=DIRECTION('center_axis',(0.,-1.,0.));
#1537=DIRECTION('ref_axis',(8.88178419700126E-15,0.,-1.));
#1538=DIRECTION('center_axis',(-9.25185853854303E-16,0.,1.));
#1539=DIRECTION('ref_axis',(1.,0.,9.25185853854303E-16));
#1540=DIRECTION('',(0.,1.,0.));
#1541=DIRECTION('',(1.,0.,9.25185853854303E-16));
#1542=DIRECTION('center_axis',(0.,1.,0.));
#1543=DIRECTION('ref_axis',(1.,0.,-8.88178419700105E-15));
#1544=DIRECTION('',(0.,1.,0.));
#1545=DIRECTION('center_axis',(0.,-1.,0.));
#1546=DIRECTION('ref_axis',(1.,0.,-8.88178419700105E-15));
#1547=DIRECTION('center_axis',(0.,1.,0.));
#1548=DIRECTION('ref_axis',(1.,0.,0.));
#1549=DIRECTION('',(0.,0.,1.));
#1550=DIRECTION('',(-1.,0.,-6.96806465112402E-16));
#1551=DIRECTION('',(-6.21724893790068E-14,0.,-1.));
#1552=DIRECTION('center_axis',(0.,-1.,0.));
#1553=DIRECTION('ref_axis',(-1.,0.,-1.55431223447522E-14));
#1554=DIRECTION('',(-1.,0.,1.85037170770859E-15));
#1555=DIRECTION('center_axis',(0.,-1.,0.));
#1556=DIRECTION('ref_axis',(4.44089209850065E-15,0.,1.));
#1557=DIRECTION('',(-1.23358113847239E-15,0.,1.));
#1558=DIRECTION('center_axis',(0.,-1.,0.));
#1559=DIRECTION('ref_axis',(1.,0.,-4.44089209850062E-15));
#1560=DIRECTION('',(1.,0.,0.));
#1561=DIRECTION('center_axis',(0.,-1.,0.));
#1562=DIRECTION('ref_axis',(1.77635683940026E-14,0.,-1.));
#1563=DIRECTION('',(5.3290705182021E-14,0.,-1.));
#1564=DIRECTION('',(1.,0.,-8.88178419700127E-15));
#1565=DIRECTION('center_axis',(8.88178419700127E-15,0.,1.));
#1566=DIRECTION('ref_axis',(1.,0.,-8.88178419700127E-15));
#1567=DIRECTION('',(0.,1.,0.));
#1568=DIRECTION('',(1.,0.,-8.88178419700127E-15));
#1569=DIRECTION('',(0.,1.,0.));
#1570=DIRECTION('center_axis',(1.,0.,5.3290705182021E-14));
#1571=DIRECTION('ref_axis',(5.3290705182021E-14,0.,-1.));
#1572=DIRECTION('',(0.,1.,0.));
#1573=DIRECTION('',(5.3290705182021E-14,0.,-1.));
#1574=DIRECTION('center_axis',(0.,1.,0.));
#1575=DIRECTION('ref_axis',(1.77635683940026E-14,0.,-1.));
#1576=DIRECTION('',(0.,1.,0.));
#1577=DIRECTION('center_axis',(0.,-1.,0.));
#1578=DIRECTION('ref_axis',(1.77635683940026E-14,0.,-1.));
#1579=DIRECTION('center_axis',(0.,0.,1.));
#1580=DIRECTION('ref_axis',(1.,0.,0.));
#1581=DIRECTION('',(0.,1.,0.));
#1582=DIRECTION('',(1.,0.,0.));
#1583=DIRECTION('center_axis',(0.,1.,0.));
#1584=DIRECTION('ref_axis',(1.,0.,-4.44089209850062E-15));
#1585=DIRECTION('',(0.,1.,0.));
#1586=DIRECTION('center_axis',(0.,-1.,0.));
#1587=DIRECTION('ref_axis',(1.,0.,-4.44089209850062E-15));
#1588=DIRECTION('center_axis',(-1.,0.,-1.23358113847239E-15));
#1589=DIRECTION('ref_axis',(-1.23358113847239E-15,0.,1.));
#1590=DIRECTION('',(0.,1.,0.));
#1591=DIRECTION('',(-1.23358113847239E-15,0.,1.));
#1592=DIRECTION('center_axis',(0.,1.,0.));
#1593=DIRECTION('ref_axis',(4.44089209850065E-15,0.,1.));
#1594=DIRECTION('',(0.,1.,0.));
#1595=DIRECTION('center_axis',(0.,-1.,0.));
#1596=DIRECTION('ref_axis',(4.44089209850065E-15,0.,1.));
#1597=DIRECTION('center_axis',(-1.85037170770859E-15,0.,-1.));
#1598=DIRECTION('ref_axis',(-1.,0.,1.85037170770859E-15));
#1599=DIRECTION('',(0.,1.,0.));
#1600=DIRECTION('',(-1.,0.,1.85037170770859E-15));
#1601=DIRECTION('center_axis',(0.,1.,0.));
#1602=DIRECTION('ref_axis',(-1.,0.,-1.55431223447522E-14));
#1603=DIRECTION('',(0.,1.,0.));
#1604=DIRECTION('center_axis',(0.,-1.,0.));
#1605=DIRECTION('ref_axis',(-1.,0.,-1.55431223447522E-14));
#1606=DIRECTION('center_axis',(1.,0.,-6.21724893790068E-14));
#1607=DIRECTION('ref_axis',(-6.21724893790068E-14,0.,-1.));
#1608=DIRECTION('',(0.,1.,0.));
#1609=DIRECTION('',(-6.21724893790068E-14,0.,-1.));
#1610=DIRECTION('center_axis',(6.96806465112402E-16,0.,-1.));
#1611=DIRECTION('ref_axis',(-1.,0.,-6.96806465112402E-16));
#1612=DIRECTION('',(0.,1.,0.));
#1613=DIRECTION('',(-1.,0.,-6.96806465112402E-16));
#1614=DIRECTION('center_axis',(0.,1.,0.));
#1615=DIRECTION('ref_axis',(1.,0.,0.));
#1616=DIRECTION('center_axis',(0.,-1.,0.));
#1617=DIRECTION('ref_axis',(1.,0.,0.));
#1618=DIRECTION('',(0.,-1.,0.));
#1619=DIRECTION('center_axis',(0.,-1.,0.));
#1620=DIRECTION('ref_axis',(1.,0.,0.));
#1621=DIRECTION('center_axis',(0.,1.,0.));
#1622=DIRECTION('ref_axis',(1.,0.,0.));
#1623=DIRECTION('center_axis',(0.,-1.,0.));
#1624=DIRECTION('ref_axis',(1.,0.,0.));
#1625=DIRECTION('',(0.,-1.,0.));
#1626=DIRECTION('center_axis',(0.,-1.,0.));
#1627=DIRECTION('ref_axis',(1.,0.,0.));
#1628=DIRECTION('center_axis',(0.,1.,0.));
#1629=DIRECTION('ref_axis',(1.,0.,0.));
#1630=DIRECTION('center_axis',(0.,-1.,0.));
#1631=DIRECTION('ref_axis',(1.,0.,0.));
#1632=DIRECTION('',(0.,-1.,0.));
#1633=DIRECTION('center_axis',(0.,1.,0.));
#1634=DIRECTION('ref_axis',(1.,0.,0.));
#1635=DIRECTION('center_axis',(0.,-1.,0.));
#1636=DIRECTION('ref_axis',(1.,0.,0.));
#1637=DIRECTION('',(0.,-1.,0.));
#1638=DIRECTION('center_axis',(0.,1.,0.));
#1639=DIRECTION('ref_axis',(1.,0.,0.));
#1640=DIRECTION('center_axis',(0.,-1.,0.));
#1641=DIRECTION('ref_axis',(1.,0.,0.));
#1642=DIRECTION('',(0.,-1.,0.));
#1643=DIRECTION('center_axis',(-1.,0.,3.5527136788014E-14));
#1644=DIRECTION('ref_axis',(3.5527136788014E-14,0.,1.));
#1645=DIRECTION('',(0.,1.,0.));
#1646=DIRECTION('',(3.5527136788014E-14,0.,1.));
#1647=DIRECTION('center_axis',(0.,0.,1.));
#1648=DIRECTION('ref_axis',(1.,0.,0.));
#1649=DIRECTION('',(0.,1.,0.));
#1650=DIRECTION('',(1.,0.,0.));
#1651=DIRECTION('',(0.,1.,0.));
#1652=DIRECTION('center_axis',(-1.,0.,0.));
#1653=DIRECTION('ref_axis',(0.,0.,1.));
#1654=DIRECTION('',(0.,0.,1.));
#1655=DIRECTION('',(0.,1.,0.));
#1656=DIRECTION('center_axis',(0.,1.,0.));
#1657=DIRECTION('ref_axis',(1.,0.,0.));
#1658=DIRECTION('center_axis',(0.,-1.,0.));
#1659=DIRECTION('ref_axis',(1.,0.,0.));
#1660=DIRECTION('',(0.,1.,0.));
#1661=DIRECTION('center_axis',(-5.55111512312578E-15,0.,1.));
#1662=DIRECTION('ref_axis',(1.,0.,5.55111512312578E-15));
#1663=DIRECTION('',(1.,0.,5.55111512312578E-15));
#1664=DIRECTION('',(0.,1.,0.));
#1665=DIRECTION('center_axis',(0.,1.,0.));
#1666=DIRECTION('ref_axis',(1.77635683940025E-14,0.,-1.));
#1667=DIRECTION('center_axis',(0.,-1.,0.));
#1668=DIRECTION('ref_axis',(1.77635683940025E-14,0.,-1.));
#1669=DIRECTION('center_axis',(1.,0.,5.9211894646675E-16));
#1670=DIRECTION('ref_axis',(5.9211894646675E-16,0.,-1.));
#1671=DIRECTION('',(5.9211894646675E-16,0.,-1.));
#1672=DIRECTION('',(0.,1.,0.));
#1673=DIRECTION('',(5.9211894646675E-16,0.,-1.));
#1674=DIRECTION('',(0.,1.,0.));
#1675=DIRECTION('',(5.9211894646675E-16,0.,-1.));
#1676=DIRECTION('',(5.9211894646675E-16,0.,-1.));
#1677=DIRECTION('',(0.,1.,0.));
#1678=DIRECTION('center_axis',(-3.22973970800046E-16,0.,1.));
#1679=DIRECTION('ref_axis',(1.,0.,3.22973970800046E-16));
#1680=DIRECTION('',(1.,0.,3.22973970800046E-16));
#1681=DIRECTION('',(1.,0.,3.22973970800046E-16));
#1682=DIRECTION('',(0.,1.,0.));
#1683=DIRECTION('center_axis',(8.88178419700125E-15,0.,-1.));
#1684=DIRECTION('ref_axis',(-1.,0.,-8.88178419700125E-15));
#1685=DIRECTION('',(0.,1.,0.));
#1686=DIRECTION('',(-1.,0.,-8.88178419700125E-15));
#1687=DIRECTION('',(0.,1.,0.));
#1688=DIRECTION('center_axis',(1.,0.,2.664535259101E-14));
#1689=DIRECTION('ref_axis',(2.664535259101E-14,0.,-1.));
#1690=DIRECTION('',(2.664535259101E-14,0.,-1.));
#1691=DIRECTION('center_axis',(-1.,0.,0.));
#1692=DIRECTION('ref_axis',(0.,0.,1.));
#1693=DIRECTION('',(0.,0.,1.));
#1694=DIRECTION('',(0.,0.,1.));
#1695=DIRECTION('',(0.,0.,1.));
#1696=DIRECTION('',(0.,0.,1.));
#1697=DIRECTION('',(0.,1.,0.));
#1698=DIRECTION('center_axis',(4.03717463500057E-17,0.,-1.));
#1699=DIRECTION('ref_axis',(-1.,0.,-4.03717463500057E-17));
#1700=DIRECTION('',(-1.,0.,-4.03717463500057E-17));
#1701=DIRECTION('',(-1.,0.,-4.03717463500057E-17));
#1702=DIRECTION('center_axis',(-8.88178419700128E-15,0.,1.));
#1703=DIRECTION('ref_axis',(1.,0.,8.88178419700128E-15));
#1704=DIRECTION('',(1.,0.,8.88178419700128E-15));
#1705=DIRECTION('center_axis',(0.,1.,0.));
#1706=DIRECTION('ref_axis',(1.,0.,0.));
#1707=DIRECTION('center_axis',(0.,1.,0.));
#1708=DIRECTION('ref_axis',(1.,0.,0.));
#1709=CARTESIAN_POINT('',(0.,0.,0.));
#1710=CARTESIAN_POINT('Origin',(53.0000003278259,0.,26.5000006556511));
#1711=CARTESIAN_POINT('',(51.0000003278259,0.,26.5000006556511));
#1712=CARTESIAN_POINT('Origin',(53.0000003278259,0.,26.5000006556511));
#1713=CARTESIAN_POINT('',(52.0000003278259,0.999999999999996,26.5000006556511));
#1714=CARTESIAN_POINT('',(51.0000003278259,0.,26.5000006556511));
#1715=CARTESIAN_POINT('Origin',(53.0000003278259,0.999999999999996,26.5000006556511));
#1716=CARTESIAN_POINT('Origin',(22.0000003278256,0.,9.00000065565109));
#1717=CARTESIAN_POINT('',(20.0000003278256,0.,9.00000065565109));
#1718=CARTESIAN_POINT('Origin',(22.0000003278256,0.,9.00000065565109));
#1719=CARTESIAN_POINT('',(21.0000003278256,1.,9.00000065565109));
#1720=CARTESIAN_POINT('',(20.0000003278256,0.,9.00000065565109));
#1721=CARTESIAN_POINT('Origin',(22.0000003278256,1.,9.00000065565109));
#1722=CARTESIAN_POINT('Origin',(22.0000003278255,0.,44.0000006556511));
#1723=CARTESIAN_POINT('',(20.0000003278255,0.,44.0000006556511));
#1724=CARTESIAN_POINT('Origin',(22.0000003278255,0.,44.0000006556511));
#1725=CARTESIAN_POINT('',(21.0000003278255,1.,44.0000006556511));
#1726=CARTESIAN_POINT('',(20.0000003278255,0.,44.0000006556511));
#1727=CARTESIAN_POINT('Origin',(22.0000003278255,1.,44.0000006556511));
#1728=CARTESIAN_POINT('Origin',(59.8000003278259,1.65,39.5000006556511));
#1729=CARTESIAN_POINT('',(56.6000003278259,1.65,37.7000006556511));
#1730=CARTESIAN_POINT('',(57.6000003278259,1.65,36.7000006556511));
#1731=CARTESIAN_POINT('Origin',(57.6000003278259,1.65,37.7000006556511));
#1732=CARTESIAN_POINT('',(56.6000003278259,1.65,41.3000006556511));
#1733=CARTESIAN_POINT('',(56.6000003278259,1.65,40.4000006556511));
#1734=CARTESIAN_POINT('',(57.6000003278259,1.65,42.3000006556511));
#1735=CARTESIAN_POINT('Origin',(57.6000003278259,1.65,41.3000006556511));
#1736=CARTESIAN_POINT('',(60.0000003278259,1.65,42.3000006556511));
#1737=CARTESIAN_POINT('',(59.9000003278259,1.65,42.3000006556511));
#1738=CARTESIAN_POINT('',(61.0000003278259,1.65,41.3000006556511));
#1739=CARTESIAN_POINT('Origin',(60.0000003278259,1.65,41.3000006556511));
#1740=CARTESIAN_POINT('',(61.0000003278259,1.65,41.0500006556512));
#1741=CARTESIAN_POINT('',(61.0000003278259,1.65,40.2750006556511));
#1742=CARTESIAN_POINT('',(63.0000003278259,1.65,41.0500006556511));
#1743=CARTESIAN_POINT('',(61.4000003278259,1.65,41.0500006556512));
#1744=CARTESIAN_POINT('',(63.0000003278259,1.65,37.9500006556511));
#1745=CARTESIAN_POINT('',(63.0000003278259,1.65,49.0000006556511));
#1746=CARTESIAN_POINT('',(61.0000003278259,1.65,37.9500006556511));
#1747=CARTESIAN_POINT('',(60.4000003278259,1.65,37.9500006556511));
#1748=CARTESIAN_POINT('',(61.0000003278259,1.65,37.7000006556511));
#1749=CARTESIAN_POINT('',(61.0000003278259,1.65,38.6000006556511));
#1750=CARTESIAN_POINT('',(60.0000003278259,1.65,36.7000006556511));
#1751=CARTESIAN_POINT('Origin',(60.0000003278259,1.65,37.7000006556511));
#1752=CARTESIAN_POINT('',(58.7000003278259,1.65,36.7000006556511));
#1753=CARTESIAN_POINT('Origin',(63.0000003278259,0.,41.0500006556511));
#1754=CARTESIAN_POINT('',(61.0000003278259,8.,41.0500006556512));
#1755=CARTESIAN_POINT('',(61.0000003278259,0.,41.0500006556512));
#1756=CARTESIAN_POINT('',(63.0000003278259,8.,41.0500006556511));
#1757=CARTESIAN_POINT('',(61.0000003278259,8.,41.0500006556512));
#1758=CARTESIAN_POINT('',(63.0000003278259,0.,41.0500006556511));
#1759=CARTESIAN_POINT('Origin',(61.0000003278259,0.,41.0500006556512));
#1760=CARTESIAN_POINT('',(61.0000003278259,8.,41.3000006556511));
#1761=CARTESIAN_POINT('',(61.0000003278259,0.,41.3000006556511));
#1762=CARTESIAN_POINT('',(61.0000003278259,8.,41.0500006556512));
#1763=CARTESIAN_POINT('Origin',(60.0000003278259,0.,41.3000006556511));
#1764=CARTESIAN_POINT('',(60.0000003278259,8.,42.3000006556511));
#1765=CARTESIAN_POINT('',(60.0000003278259,0.,42.3000006556511));
#1766=CARTESIAN_POINT('Origin',(60.0000003278259,8.,41.3000006556511));
#1767=CARTESIAN_POINT('Origin',(60.0000003278259,0.,42.3000006556511));
#1768=CARTESIAN_POINT('',(57.6000003278259,8.,42.3000006556511));
#1769=CARTESIAN_POINT('',(57.6000003278259,0.,42.3000006556511));
#1770=CARTESIAN_POINT('',(60.0000003278259,8.,42.3000006556511));
#1771=CARTESIAN_POINT('Origin',(57.6000003278259,0.,41.3000006556511));
#1772=CARTESIAN_POINT('',(56.6000003278259,8.,41.3000006556511));
#1773=CARTESIAN_POINT('',(56.6000003278259,0.,41.3000006556511));
#1774=CARTESIAN_POINT('Origin',(57.6000003278259,8.,41.3000006556511));
#1775=CARTESIAN_POINT('Origin',(56.6000003278259,0.,41.3000006556511));
#1776=CARTESIAN_POINT('',(56.6000003278259,8.,37.7000006556511));
#1777=CARTESIAN_POINT('',(56.6000003278259,0.,37.7000006556511));
#1778=CARTESIAN_POINT('',(56.6000003278259,8.,41.3000006556511));
#1779=CARTESIAN_POINT('Origin',(11.2000003278259,1.65,39.5000006556511));
#1780=CARTESIAN_POINT('',(10.0000003278259,1.65,41.3000006556511));
#1781=CARTESIAN_POINT('',(10.0000003278259,1.65,41.0500006556511));
#1782=CARTESIAN_POINT('',(10.0000003278259,1.65,40.4000006556511));
#1783=CARTESIAN_POINT('',(11.0000003278259,1.65,42.3000006556511));
#1784=CARTESIAN_POINT('Origin',(11.0000003278259,1.65,41.3000006556511));
#1785=CARTESIAN_POINT('',(13.4000003278259,1.65,42.3000006556511));
#1786=CARTESIAN_POINT('',(12.3000003278259,1.65,42.3000006556511));
#1787=CARTESIAN_POINT('',(14.4000003278259,1.65,41.3000006556511));
#1788=CARTESIAN_POINT('Origin',(13.4000003278259,1.65,41.3000006556511));
#1789=CARTESIAN_POINT('',(14.4000003278259,1.65,37.7000006556511));
#1790=CARTESIAN_POINT('',(14.4000003278259,1.65,38.6000006556511));
#1791=CARTESIAN_POINT('',(13.4000003278259,1.65,36.7000006556511));
#1792=CARTESIAN_POINT('Origin',(13.4000003278259,1.65,37.7000006556511));
#1793=CARTESIAN_POINT('',(11.0000003278259,1.65,36.7000006556511));
#1794=CARTESIAN_POINT('',(11.1000003278259,1.65,36.7000006556511));
#1795=CARTESIAN_POINT('',(10.0000003278259,1.65,37.7000006556511));
#1796=CARTESIAN_POINT('Origin',(11.0000003278259,1.65,37.7000006556511));
#1797=CARTESIAN_POINT('',(10.0000003278259,1.65,37.9500006556511));
#1798=CARTESIAN_POINT('',(10.0000003278258,1.65,38.7250006556511));
#1799=CARTESIAN_POINT('',(8.00000032782588,1.65,37.9500006556511));
#1800=CARTESIAN_POINT('',(9.60000032782588,1.65,37.9500006556511));
#1801=CARTESIAN_POINT('',(8.00000032782588,1.65,41.0500006556511));
#1802=CARTESIAN_POINT('',(8.00000032782588,1.65,4.00000065565109));
#1803=CARTESIAN_POINT('',(10.6000003278259,1.65,41.0500006556512));
#1804=CARTESIAN_POINT('Origin',(8.00000032782588,0.,37.9500006556511));
#1805=CARTESIAN_POINT('',(10.0000003278259,8.,37.9500006556511));
#1806=CARTESIAN_POINT('',(10.0000003278259,0.,37.9500006556511));
#1807=CARTESIAN_POINT('',(8.00000032782588,8.,37.9500006556511));
#1808=CARTESIAN_POINT('',(6.81339664312536,8.,37.9500006556511));
#1809=CARTESIAN_POINT('',(8.00000032782588,0.,37.9500006556511));
#1810=CARTESIAN_POINT('Origin',(10.0000003278259,0.,37.9500006556511));
#1811=CARTESIAN_POINT('',(10.0000003278259,8.,37.7000006556511));
#1812=CARTESIAN_POINT('',(10.0000003278259,0.,37.7000006556511));
#1813=CARTESIAN_POINT('',(10.0000003278259,8.,37.7000006556511));
#1814=CARTESIAN_POINT('Origin',(11.0000003278259,0.,37.7000006556511));
#1815=CARTESIAN_POINT('',(11.0000003278259,8.,36.7000006556511));
#1816=CARTESIAN_POINT('',(11.0000003278259,0.,36.7000006556511));
#1817=CARTESIAN_POINT('Origin',(11.0000003278259,8.,37.7000006556511));
#1818=CARTESIAN_POINT('Origin',(11.0000003278259,0.,36.7000006556511));
#1819=CARTESIAN_POINT('',(13.4000003278259,8.,36.7000006556511));
#1820=CARTESIAN_POINT('',(13.4000003278259,0.,36.7000006556511));
#1821=CARTESIAN_POINT('',(13.4000003278259,8.,36.7000006556511));
#1822=CARTESIAN_POINT('Origin',(13.4000003278259,0.,37.7000006556511));
#1823=CARTESIAN_POINT('',(14.4000003278259,8.,37.7000006556511));
#1824=CARTESIAN_POINT('',(14.4000003278259,0.,37.7000006556511));
#1825=CARTESIAN_POINT('Origin',(13.4000003278259,8.,37.7000006556511));
#1826=CARTESIAN_POINT('Origin',(14.4000003278259,0.,37.7000006556511));
#1827=CARTESIAN_POINT('',(14.4000003278259,8.,41.3000006556511));
#1828=CARTESIAN_POINT('',(14.4000003278259,0.,41.3000006556511));
#1829=CARTESIAN_POINT('',(14.4000003278259,8.,41.3000006556511));
#1830=CARTESIAN_POINT('Origin',(13.4000003278259,0.,41.3000006556511));
#1831=CARTESIAN_POINT('',(13.4000003278259,8.,42.3000006556511));
#1832=CARTESIAN_POINT('',(13.4000003278259,0.,42.3000006556511));
#1833=CARTESIAN_POINT('Origin',(13.4000003278259,8.,41.3000006556511));
#1834=CARTESIAN_POINT('Origin',(13.4000003278259,0.,42.3000006556511));
#1835=CARTESIAN_POINT('',(11.0000003278259,8.,42.3000006556511));
#1836=CARTESIAN_POINT('',(11.0000003278259,0.,42.3000006556511));
#1837=CARTESIAN_POINT('',(11.0000003278259,8.,42.3000006556511));
#1838=CARTESIAN_POINT('Origin',(11.0000003278259,0.,41.3000006556511));
#1839=CARTESIAN_POINT('',(10.0000003278259,8.,41.3000006556511));
#1840=CARTESIAN_POINT('',(10.0000003278259,0.,41.3000006556511));
#1841=CARTESIAN_POINT('Origin',(11.0000003278259,8.,41.3000006556511));
#1842=CARTESIAN_POINT('Origin',(59.8000003278259,1.65,13.5000006556511));
#1843=CARTESIAN_POINT('',(61.0000003278259,1.65,11.7000006556511));
#1844=CARTESIAN_POINT('',(61.0000003278259,1.65,11.950000655651));
#1845=CARTESIAN_POINT('',(61.0000003278259,1.65,12.6000006556511));
#1846=CARTESIAN_POINT('',(60.0000003278259,1.65,10.7000006556511));
#1847=CARTESIAN_POINT('Origin',(60.0000003278259,1.65,11.7000006556511));
#1848=CARTESIAN_POINT('',(57.6000003278259,1.65,10.7000006556511));
#1849=CARTESIAN_POINT('',(58.7000003278259,1.65,10.7000006556511));
#1850=CARTESIAN_POINT('',(56.6000003278259,1.65,11.7000006556511));
#1851=CARTESIAN_POINT('Origin',(57.6000003278259,1.65,11.7000006556511));
#1852=CARTESIAN_POINT('',(56.6000003278259,1.65,15.3000006556511));
#1853=CARTESIAN_POINT('',(56.6000003278259,1.65,14.4000006556511));
#1854=CARTESIAN_POINT('',(57.6000003278259,1.65,16.3000006556511));
#1855=CARTESIAN_POINT('Origin',(57.6000003278259,1.65,15.3000006556511));
#1856=CARTESIAN_POINT('',(60.0000003278259,1.65,16.3000006556511));
#1857=CARTESIAN_POINT('',(59.9000003278259,1.65,16.3000006556511));
#1858=CARTESIAN_POINT('',(61.0000003278259,1.65,15.3000006556511));
#1859=CARTESIAN_POINT('Origin',(60.0000003278259,1.65,15.3000006556511));
#1860=CARTESIAN_POINT('',(61.0000003278259,1.65,15.0500006556511));
#1861=CARTESIAN_POINT('',(61.000000327826,1.65,14.2750006556511));
#1862=CARTESIAN_POINT('',(63.0000003278259,1.65,15.0500006556511));
#1863=CARTESIAN_POINT('',(61.4000003278259,1.65,15.0500006556511));
#1864=CARTESIAN_POINT('',(63.0000003278259,1.65,11.950000655651));
#1865=CARTESIAN_POINT('',(63.0000003278259,1.65,49.0000006556511));
#1866=CARTESIAN_POINT('',(60.4000003278259,1.65,11.950000655651));
#1867=CARTESIAN_POINT('Origin',(63.0000003278259,0.,15.0500006556511));
#1868=CARTESIAN_POINT('',(61.0000003278259,8.,15.0500006556511));
#1869=CARTESIAN_POINT('',(61.0000003278259,0.,15.0500006556511));
#1870=CARTESIAN_POINT('',(63.0000003278259,8.,15.0500006556511));
#1871=CARTESIAN_POINT('',(64.1866040125264,8.,15.0500006556511));
#1872=CARTESIAN_POINT('',(63.0000003278259,0.,15.0500006556511));
#1873=CARTESIAN_POINT('Origin',(61.0000003278259,0.,15.0500006556511));
#1874=CARTESIAN_POINT('',(61.0000003278259,8.,15.3000006556511));
#1875=CARTESIAN_POINT('',(61.0000003278259,0.,15.3000006556511));
#1876=CARTESIAN_POINT('',(61.0000003278259,8.,15.3000006556511));
#1877=CARTESIAN_POINT('Origin',(60.0000003278259,0.,15.3000006556511));
#1878=CARTESIAN_POINT('',(60.0000003278259,8.,16.3000006556511));
#1879=CARTESIAN_POINT('',(60.0000003278259,0.,16.3000006556511));
#1880=CARTESIAN_POINT('Origin',(60.0000003278259,8.,15.3000006556511));
#1881=CARTESIAN_POINT('Origin',(60.0000003278259,0.,16.3000006556511));
#1882=CARTESIAN_POINT('',(57.6000003278259,8.,16.3000006556511));
#1883=CARTESIAN_POINT('',(57.6000003278259,0.,16.3000006556511));
#1884=CARTESIAN_POINT('',(57.6000003278259,8.,16.3000006556511));
#1885=CARTESIAN_POINT('Origin',(57.6000003278259,0.,15.3000006556511));
#1886=CARTESIAN_POINT('',(56.6000003278259,8.,15.3000006556511));
#1887=CARTESIAN_POINT('',(56.6000003278259,0.,15.3000006556511));
#1888=CARTESIAN_POINT('Origin',(57.6000003278259,8.,15.3000006556511));
#1889=CARTESIAN_POINT('Origin',(56.6000003278259,0.,15.3000006556511));
#1890=CARTESIAN_POINT('',(56.6000003278259,8.,11.7000006556511));
#1891=CARTESIAN_POINT('',(56.6000003278259,0.,11.7000006556511));
#1892=CARTESIAN_POINT('',(56.6000003278259,8.,11.7000006556511));
#1893=CARTESIAN_POINT('Origin',(57.6000003278259,0.,11.7000006556511));
#1894=CARTESIAN_POINT('',(57.6000003278259,8.,10.7000006556511));
#1895=CARTESIAN_POINT('',(57.6000003278259,0.,10.7000006556511));
#1896=CARTESIAN_POINT('Origin',(57.6000003278259,8.,11.7000006556511));
#1897=CARTESIAN_POINT('Origin',(57.6000003278259,0.,10.7000006556511));
#1898=CARTESIAN_POINT('',(60.0000003278259,8.,10.7000006556511));
#1899=CARTESIAN_POINT('',(60.0000003278259,0.,10.7000006556511));
#1900=CARTESIAN_POINT('',(60.0000003278259,8.,10.7000006556511));
#1901=CARTESIAN_POINT('Origin',(60.0000003278259,0.,11.7000006556511));
#1902=CARTESIAN_POINT('',(61.0000003278259,8.,11.7000006556511));
#1903=CARTESIAN_POINT('',(61.0000003278259,0.,11.7000006556511));
#1904=CARTESIAN_POINT('Origin',(60.0000003278259,8.,11.7000006556511));
#1905=CARTESIAN_POINT('Origin',(11.2000003278259,1.65,13.5000006556511));
#1906=CARTESIAN_POINT('',(8.00000032782589,1.65,11.950000655651));
#1907=CARTESIAN_POINT('',(8.00000032782588,1.65,15.0500006556511));
#1908=CARTESIAN_POINT('',(8.00000032782588,1.65,4.00000065565109));
#1909=CARTESIAN_POINT('',(10.0000003278259,1.65,15.0500006556511));
#1910=CARTESIAN_POINT('',(10.6000003278259,1.65,15.0500006556511));
#1911=CARTESIAN_POINT('',(10.0000003278259,1.65,15.3000006556511));
#1912=CARTESIAN_POINT('',(10.0000003278259,1.65,14.4000006556511));
#1913=CARTESIAN_POINT('',(11.0000003278259,1.65,16.3000006556511));
#1914=CARTESIAN_POINT('Origin',(11.0000003278259,1.65,15.3000006556511));
#1915=CARTESIAN_POINT('',(13.4000003278259,1.65,16.3000006556511));
#1916=CARTESIAN_POINT('',(12.3000003278259,1.65,16.3000006556511));
#1917=CARTESIAN_POINT('',(14.4000003278259,1.65,15.3000006556511));
#1918=CARTESIAN_POINT('Origin',(13.4000003278259,1.65,15.3000006556511));
#1919=CARTESIAN_POINT('',(14.4000003278259,1.65,11.7000006556511));
#1920=CARTESIAN_POINT('',(14.4000003278259,1.65,12.6000006556511));
#1921=CARTESIAN_POINT('',(13.4000003278259,1.65,10.7000006556511));
#1922=CARTESIAN_POINT('Origin',(13.4000003278259,1.65,11.7000006556511));
#1923=CARTESIAN_POINT('',(11.0000003278259,1.65,10.7000006556511));
#1924=CARTESIAN_POINT('',(11.1000003278259,1.65,10.7000006556511));
#1925=CARTESIAN_POINT('',(10.0000003278259,1.65,11.7000006556511));
#1926=CARTESIAN_POINT('Origin',(11.0000003278259,1.65,11.7000006556511));
#1927=CARTESIAN_POINT('',(10.0000003278259,1.65,11.950000655651));
#1928=CARTESIAN_POINT('',(10.0000003278258,1.65,12.725000655651));
#1929=CARTESIAN_POINT('',(9.60000032782589,1.65,11.950000655651));
#1930=CARTESIAN_POINT('Origin',(8.00000032782589,0.,11.950000655651));
#1931=CARTESIAN_POINT('',(10.0000003278259,8.,11.950000655651));
#1932=CARTESIAN_POINT('',(10.0000003278259,0.,11.950000655651));
#1933=CARTESIAN_POINT('',(8.00000032782589,8.,11.950000655651));
#1934=CARTESIAN_POINT('',(10.0000003278259,8.,11.950000655651));
#1935=CARTESIAN_POINT('',(8.00000032782589,0.,11.950000655651));
#1936=CARTESIAN_POINT('Origin',(10.0000003278259,0.,11.950000655651));
#1937=CARTESIAN_POINT('',(10.0000003278259,8.,11.7000006556511));
#1938=CARTESIAN_POINT('',(10.0000003278259,0.,11.7000006556511));
#1939=CARTESIAN_POINT('',(10.0000003278259,8.,11.950000655651));
#1940=CARTESIAN_POINT('Origin',(11.0000003278259,0.,11.7000006556511));
#1941=CARTESIAN_POINT('',(11.0000003278259,8.,10.7000006556511));
#1942=CARTESIAN_POINT('',(11.0000003278259,0.,10.7000006556511));
#1943=CARTESIAN_POINT('Origin',(11.0000003278259,8.,11.7000006556511));
#1944=CARTESIAN_POINT('Origin',(11.0000003278259,0.,10.7000006556511));
#1945=CARTESIAN_POINT('',(13.4000003278259,8.,10.7000006556511));
#1946=CARTESIAN_POINT('',(13.4000003278259,0.,10.7000006556511));
#1947=CARTESIAN_POINT('',(11.0000003278259,8.,10.7000006556511));
#1948=CARTESIAN_POINT('Origin',(13.4000003278259,0.,11.7000006556511));
#1949=CARTESIAN_POINT('',(14.4000003278259,8.,11.7000006556511));
#1950=CARTESIAN_POINT('',(14.4000003278259,0.,11.7000006556511));
#1951=CARTESIAN_POINT('Origin',(13.4000003278259,8.,11.7000006556511));
#1952=CARTESIAN_POINT('Origin',(14.4000003278259,0.,11.7000006556511));
#1953=CARTESIAN_POINT('',(14.4000003278259,8.,15.3000006556511));
#1954=CARTESIAN_POINT('',(14.4000003278259,0.,15.3000006556511));
#1955=CARTESIAN_POINT('',(14.4000003278259,8.,11.7000006556511));
#1956=CARTESIAN_POINT('Origin',(13.4000003278259,0.,15.3000006556511));
#1957=CARTESIAN_POINT('',(13.4000003278259,8.,16.3000006556511));
#1958=CARTESIAN_POINT('',(13.4000003278259,0.,16.3000006556511));
#1959=CARTESIAN_POINT('Origin',(13.4000003278259,8.,15.3000006556511));
#1960=CARTESIAN_POINT('Origin',(13.4000003278259,0.,16.3000006556511));
#1961=CARTESIAN_POINT('',(11.0000003278259,8.,16.3000006556511));
#1962=CARTESIAN_POINT('',(11.0000003278259,0.,16.3000006556511));
#1963=CARTESIAN_POINT('',(13.4000003278259,8.,16.3000006556511));
#1964=CARTESIAN_POINT('Origin',(11.0000003278259,0.,15.3000006556511));
#1965=CARTESIAN_POINT('',(10.0000003278259,8.,15.3000006556511));
#1966=CARTESIAN_POINT('',(10.0000003278259,0.,15.3000006556511));
#1967=CARTESIAN_POINT('Origin',(11.0000003278259,8.,15.3000006556511));
#1968=CARTESIAN_POINT('Origin',(10.0000003278259,0.,15.3000006556511));
#1969=CARTESIAN_POINT('',(10.0000003278259,8.,15.0500006556511));
#1970=CARTESIAN_POINT('',(10.0000003278259,0.,15.0500006556511));
#1971=CARTESIAN_POINT('',(10.0000003278259,8.,15.3000006556511));
#1972=CARTESIAN_POINT('Origin',(10.0000003278259,0.,15.0500006556511));
#1973=CARTESIAN_POINT('',(8.00000032782588,8.,15.0500006556511));
#1974=CARTESIAN_POINT('',(8.00000032782588,0.,15.0500006556511));
#1975=CARTESIAN_POINT('',(6.81339664312539,8.,15.0500006556511));
#1976=CARTESIAN_POINT('Origin',(17.0000003278259,0.,20.5000006556511));
#1977=CARTESIAN_POINT('',(16.2000003278259,8.,20.5000006556511));
#1978=CARTESIAN_POINT('Origin',(17.0000003278259,8.,20.5000006556511));
#1979=CARTESIAN_POINT('',(16.2000003278259,0.,20.5000006556511));
#1980=CARTESIAN_POINT('',(16.2000003278259,0.,20.5000006556511));
#1981=CARTESIAN_POINT('Origin',(17.0000003278259,0.,20.5000006556511));
#1982=CARTESIAN_POINT('Origin',(29.0000003278259,0.,32.5000006556511));
#1983=CARTESIAN_POINT('',(28.2000003278259,8.,32.5000006556511));
#1984=CARTESIAN_POINT('Origin',(29.0000003278259,8.,32.5000006556511));
#1985=CARTESIAN_POINT('',(28.2000003278259,0.,32.5000006556511));
#1986=CARTESIAN_POINT('',(28.2000003278259,0.,32.5000006556511));
#1987=CARTESIAN_POINT('Origin',(29.0000003278259,0.,32.5000006556511));
#1988=CARTESIAN_POINT('Origin',(53.0000003278259,0.,26.5000006556511));
#1989=CARTESIAN_POINT('',(52.0000003278259,8.,26.5000006556511));
#1990=CARTESIAN_POINT('Origin',(53.0000003278259,8.,26.5000006556511));
#1991=CARTESIAN_POINT('',(52.0000003278259,0.,26.5000006556511));
#1992=CARTESIAN_POINT('Origin',(22.0000003278255,0.,44.0000006556511));
#1993=CARTESIAN_POINT('',(21.0000003278255,8.,44.0000006556511));
#1994=CARTESIAN_POINT('Origin',(22.0000003278255,8.,44.0000006556511));
#1995=CARTESIAN_POINT('',(21.0000003278255,0.,44.0000006556511));
#1996=CARTESIAN_POINT('Origin',(22.0000003278256,0.,9.00000065565109));
#1997=CARTESIAN_POINT('',(21.0000003278256,8.,9.00000065565109));
#1998=CARTESIAN_POINT('Origin',(22.0000003278256,8.,9.00000065565109));
#1999=CARTESIAN_POINT('',(21.0000003278256,0.,9.00000065565109));
#2000=CARTESIAN_POINT('Origin',(61.0000003278259,0.,11.7000006556511));
#2001=CARTESIAN_POINT('',(61.0000003278259,8.,11.950000655651));
#2002=CARTESIAN_POINT('',(61.0000003278259,0.,11.950000655651));
#2003=CARTESIAN_POINT('',(61.0000003278259,8.,11.950000655651));
#2004=CARTESIAN_POINT('Origin',(61.0000003278259,0.,37.9500006556511));
#2005=CARTESIAN_POINT('',(63.0000003278259,8.,37.9500006556511));
#2006=CARTESIAN_POINT('',(63.0000003278259,0.,37.9500006556511));
#2007=CARTESIAN_POINT('',(61.0000003278259,8.,37.9500006556511));
#2008=CARTESIAN_POINT('',(64.1866040125264,8.,37.9500006556511));
#2009=CARTESIAN_POINT('',(61.0000003278259,0.,37.9500006556511));
#2010=CARTESIAN_POINT('Origin',(61.0000003278259,0.,37.7000006556511));
#2011=CARTESIAN_POINT('',(61.0000003278259,8.,37.7000006556511));
#2012=CARTESIAN_POINT('',(61.0000003278259,8.,37.7000006556511));
#2013=CARTESIAN_POINT('',(61.0000003278259,0.,37.7000006556511));
#2014=CARTESIAN_POINT('Origin',(60.0000003278259,0.,37.7000006556511));
#2015=CARTESIAN_POINT('',(60.0000003278259,8.,36.7000006556511));
#2016=CARTESIAN_POINT('Origin',(60.0000003278259,8.,37.7000006556511));
#2017=CARTESIAN_POINT('',(60.0000003278259,0.,36.7000006556511));
#2018=CARTESIAN_POINT('Origin',(57.6000003278259,0.,36.7000006556511));
#2019=CARTESIAN_POINT('',(57.6000003278259,8.,36.7000006556511));
#2020=CARTESIAN_POINT('',(57.6000003278259,8.,36.7000006556511));
#2021=CARTESIAN_POINT('',(57.6000003278259,0.,36.7000006556511));
#2022=CARTESIAN_POINT('Origin',(57.6000003278259,0.,37.7000006556511));
#2023=CARTESIAN_POINT('Origin',(57.6000003278259,8.,37.7000006556511));
#2024=CARTESIAN_POINT('Origin',(63.0000003278259,0.,49.0000006556511));
#2025=CARTESIAN_POINT('',(63.0000003278259,0.,49.0000006556511));
#2026=CARTESIAN_POINT('',(63.0000003278259,0.,4.00000065565109));
#2027=CARTESIAN_POINT('',(63.0000003278259,0.,49.0000006556511));
#2028=CARTESIAN_POINT('',(63.0000003278259,8.,4.00000065565109));
#2029=CARTESIAN_POINT('',(63.0000003278259,0.,4.00000065565109));
#2030=CARTESIAN_POINT('',(63.0000003278259,8.,11.950000655651));
#2031=CARTESIAN_POINT('',(63.0000003278259,8.,49.0000006556511));
#2032=CARTESIAN_POINT('',(63.0000003278259,0.,11.950000655651));
#2033=CARTESIAN_POINT('',(63.0000003278259,8.,49.0000006556511));
#2034=CARTESIAN_POINT('',(63.0000003278259,8.,49.0000006556511));
#2035=CARTESIAN_POINT('',(63.0000003278259,8.,49.0000006556511));
#2036=CARTESIAN_POINT('',(63.0000003278259,0.,49.0000006556511));
#2037=CARTESIAN_POINT('Origin',(8.00000032782588,0.,49.0000006556511));
#2038=CARTESIAN_POINT('',(8.00000032782588,0.,49.0000006556511));
#2039=CARTESIAN_POINT('',(8.00000032782588,0.,49.0000006556511));
#2040=CARTESIAN_POINT('',(8.00000032782588,8.,49.0000006556511));
#2041=CARTESIAN_POINT('',(8.00000032782588,8.,49.0000006556511));
#2042=CARTESIAN_POINT('',(8.00000032782588,0.,49.0000006556511));
#2043=CARTESIAN_POINT('Origin',(10.0000003278259,0.,41.0500006556511));
#2044=CARTESIAN_POINT('',(8.00000032782588,8.,41.0500006556511));
#2045=CARTESIAN_POINT('',(8.00000032782588,0.,41.0500006556511));
#2046=CARTESIAN_POINT('',(10.0000003278259,8.,41.0500006556511));
#2047=CARTESIAN_POINT('',(10.0000003278259,8.,41.0500006556511));
#2048=CARTESIAN_POINT('',(10.0000003278259,0.,41.0500006556511));
#2049=CARTESIAN_POINT('Origin',(10.0000003278259,0.,41.3000006556511));
#2050=CARTESIAN_POINT('',(10.0000003278259,8.,41.0500006556511));
#2051=CARTESIAN_POINT('Origin',(8.00000032782588,0.,4.00000065565109));
#2052=CARTESIAN_POINT('',(8.00000032782588,0.,4.00000065565109));
#2053=CARTESIAN_POINT('',(8.00000032782588,0.,4.00000065565109));
#2054=CARTESIAN_POINT('',(8.00000032782588,8.,4.00000065565109));
#2055=CARTESIAN_POINT('',(8.00000032782588,8.,4.00000065565109));
#2056=CARTESIAN_POINT('',(8.00000032782588,8.,4.00000065565109));
#2057=CARTESIAN_POINT('',(8.00000032782588,8.,4.00000065565109));
#2058=CARTESIAN_POINT('',(8.00000032782588,0.,4.00000065565109));
#2059=CARTESIAN_POINT('Origin',(63.0000003278259,0.,4.00000065565109));
#2060=CARTESIAN_POINT('',(63.0000003278259,0.,4.00000065565109));
#2061=CARTESIAN_POINT('',(63.0000003278259,8.,4.00000065565109));
#2062=CARTESIAN_POINT('Origin',(61.0000003278259,0.,11.950000655651));
#2063=CARTESIAN_POINT('',(61.0000003278259,8.,11.950000655651));
#2064=CARTESIAN_POINT('Origin',(35.5000003278259,8.,26.5000006556511));
#2065=CARTESIAN_POINT('Origin',(35.5000003278259,0.,26.5000006556511));
#2066=UNCERTAINTY_MEASURE_WITH_UNIT(LENGTH_MEASURE(0.01),#2070,
'DISTANCE_ACCURACY_VALUE',
'Maximum model space distance between geometric entities at asserted c
onnectivities');
#2067=UNCERTAINTY_MEASURE_WITH_UNIT(LENGTH_MEASURE(0.01),#2070,
'DISTANCE_ACCURACY_VALUE',
'Maximum model space distance between geometric entities at asserted c
onnectivities');
#2068=(
GEOMETRIC_REPRESENTATION_CONTEXT(3)
GLOBAL_UNCERTAINTY_ASSIGNED_CONTEXT((#2066))
GLOBAL_UNIT_ASSIGNED_CONTEXT((#2070,#2072,#2073))
REPRESENTATION_CONTEXT('','3D')
);
#2069=(
GEOMETRIC_REPRESENTATION_CONTEXT(3)
GLOBAL_UNCERTAINTY_ASSIGNED_CONTEXT((#2067))
GLOBAL_UNIT_ASSIGNED_CONTEXT((#2070,#2072,#2073))
REPRESENTATION_CONTEXT('','3D')
);
#2070=(
LENGTH_UNIT()
NAMED_UNIT(*)
SI_UNIT(.MILLI.,.METRE.)
);
#2071=(
LENGTH_UNIT()
NAMED_UNIT(*)
SI_UNIT($,.METRE.)
);
#2072=(
NAMED_UNIT(*)
PLANE_ANGLE_UNIT()
SI_UNIT($,.RADIAN.)
);
#2073=(
NAMED_UNIT(*)
SI_UNIT($,.STERADIAN.)
SOLID_ANGLE_UNIT()
);
#2074=SHAPE_DEFINITION_REPRESENTATION(#2075,#2076);
#2075=PRODUCT_DEFINITION_SHAPE('',$,#2078);
#2076=SHAPE_REPRESENTATION('',(#1253),#2068);
#2077=PRODUCT_DEFINITION_CONTEXT('part definition',#2082,'design');
#2078=PRODUCT_DEFINITION('\X2\683754C15E7353F0\X0\','\X2\683754C15E7353F0\X0\ 
v0',#2079,#2077);
#2079=PRODUCT_DEFINITION_FORMATION('',$,#2084);
#2080=PRODUCT_RELATED_PRODUCT_CATEGORY('\X2\683754C15E7353F0\X0\ v0',
'\X2\683754C15E7353F0\X0\ v0',(#2084));
#2081=APPLICATION_PROTOCOL_DEFINITION('international standard',
'automotive_design',2009,#2082);
#2082=APPLICATION_CONTEXT(
'Core Data for Automotive Mechanical Design Process');
#2083=PRODUCT_CONTEXT('part definition',#2082,'mechanical');
#2084=PRODUCT('\X2\683754C15E7353F0\X0\','\X2\683754C15E7353F0\X0\ v0',
$,(#2083));
#2085=PRESENTATION_STYLE_ASSIGNMENT((#2086));
#2086=SURFACE_STYLE_USAGE(.BOTH.,#2087);
#2087=SURFACE_SIDE_STYLE('',(#2088));
#2088=SURFACE_STYLE_FILL_AREA(#2089);
#2089=FILL_AREA_STYLE('\X2\94A2\X0\ - \X2\7F0E5149\X0\',(#2090));
#2090=FILL_AREA_STYLE_COLOUR('\X2\94A2\X0\ - \X2\7F0E5149\X0\',#2091);
#2091=COLOUR_RGB('\X2\94A2\X0\ - \X2\7F0E5149\X0\',0.627450980392157,0.627450980392157,
0.627450980392157);
ENDSEC;
END-ISO-10303-21;
