ISO-10303-21;
HEADER;
/* Generated by software containing ST-Developer
 * from STEP Tools, Inc. (www.steptools.com) 
 */

FILE_DESCRIPTION(
/* description */ (''),
/* implementation_level */ '2;1');

FILE_NAME(
/* name */ '',
/* time_stamp */ '2025-10-06T16:28:12+08:00',
/* author */ (''),
/* organization */ (''),
/* preprocessor_version */ 'ST-DEVELOPER v20.1',
/* originating_system */ 'Autodesk Translation Framework v14.17.0.0',
/* authorisation */ '');

FILE_SCHEMA (('AUTOMOTIVE_DESIGN { 1 0 10303 214 3 1 1 }'));
ENDSEC;

DATA;
#10=MECHANICAL_DESIGN_GEOMETRIC_PRESENTATION_REPRESENTATION('',(#13),#595);
#11=SHAPE_REPRESENTATION_RELATIONSHIP('SRR','None',#602,#12);
#12=ADVANCED_BREP_SHAPE_REPRESENTATION('',(#14),#594);
#13=STYLED_ITEM('',(#612),#14);
#14=MANIFOLD_SOLID_BREP('\X2\5B9E4F53\X0\1',#351);
#15=FACE_BOUND('',#49,.T.);
#16=FACE_BOUND('',#51,.T.);
#17=FACE_BOUND('',#59,.T.);
#18=FACE_BOUND('',#60,.T.);
#19=FACE_BOUND('',#61,.T.);
#20=CYLINDRICAL_SURFACE('',#373,8.);
#21=CYLINDRICAL_SURFACE('',#385,1.2);
#22=CYLINDRICAL_SURFACE('',#387,1.2);
#23=CYLINDRICAL_SURFACE('',#395,9.);
#24=FACE_OUTER_BOUND('',#41,.T.);
#25=FACE_OUTER_BOUND('',#42,.T.);
#26=FACE_OUTER_BOUND('',#43,.T.);
#27=FACE_OUTER_BOUND('',#44,.T.);
#28=FACE_OUTER_BOUND('',#45,.T.);
#29=FACE_OUTER_BOUND('',#46,.T.);
#30=FACE_OUTER_BOUND('',#47,.T.);
#31=FACE_OUTER_BOUND('',#48,.T.);
#32=FACE_OUTER_BOUND('',#50,.T.);
#33=FACE_OUTER_BOUND('',#52,.T.);
#34=FACE_OUTER_BOUND('',#53,.T.);
#35=FACE_OUTER_BOUND('',#54,.T.);
#36=FACE_OUTER_BOUND('',#55,.T.);
#37=FACE_OUTER_BOUND('',#56,.T.);
#38=FACE_OUTER_BOUND('',#57,.T.);
#39=FACE_OUTER_BOUND('',#58,.T.);
#40=FACE_OUTER_BOUND('',#62,.T.);
#41=EDGE_LOOP('',(#225,#226,#227,#228));
#42=EDGE_LOOP('',(#229,#230,#231,#232));
#43=EDGE_LOOP('',(#233,#234,#235,#236,#237,#238,#239,#240));
#44=EDGE_LOOP('',(#241,#242,#243,#244));
#45=EDGE_LOOP('',(#245,#246,#247,#248));
#46=EDGE_LOOP('',(#249,#250,#251,#252));
#47=EDGE_LOOP('',(#253,#254,#255,#256,#257,#258,#259,#260,#261,#262));
#48=EDGE_LOOP('',(#263,#264,#265,#266));
#49=EDGE_LOOP('',(#267));
#50=EDGE_LOOP('',(#268,#269,#270,#271));
#51=EDGE_LOOP('',(#272));
#52=EDGE_LOOP('',(#273,#274,#275,#276));
#53=EDGE_LOOP('',(#277,#278,#279,#280));
#54=EDGE_LOOP('',(#281,#282,#283,#284));
#55=EDGE_LOOP('',(#285,#286,#287,#288));
#56=EDGE_LOOP('',(#289,#290,#291,#292));
#57=EDGE_LOOP('',(#293,#294,#295,#296));
#58=EDGE_LOOP('',(#297,#298,#299,#300,#301,#302,#303,#304,#305,#306));
#59=EDGE_LOOP('',(#307));
#60=EDGE_LOOP('',(#308));
#61=EDGE_LOOP('',(#309,#310));
#62=EDGE_LOOP('',(#311,#312,#313,#314,#315,#316,#317,#318,#319,#320));
#63=CIRCLE('',#366,8.);
#64=CIRCLE('',#367,9.);
#65=CIRCLE('',#374,8.);
#66=CIRCLE('',#375,8.);
#67=CIRCLE('',#376,8.);
#68=CIRCLE('',#377,8.);
#69=CIRCLE('',#379,9.);
#70=CIRCLE('',#380,1.2);
#71=CIRCLE('',#382,9.);
#72=CIRCLE('',#383,1.2);
#73=CIRCLE('',#386,1.2);
#74=CIRCLE('',#388,1.2);
#75=CIRCLE('',#393,9.);
#76=CIRCLE('',#394,9.);
#77=LINE('',#498,#111);
#78=LINE('',#502,#112);
#79=LINE('',#507,#113);
#80=LINE('',#509,#114);
#81=LINE('',#511,#115);
#82=LINE('',#512,#116);
#83=LINE('',#516,#117);
#84=LINE('',#518,#118);
#85=LINE('',#519,#119);
#86=LINE('',#521,#120);
#87=LINE('',#523,#121);
#88=LINE('',#525,#122);
#89=LINE('',#526,#123);
#90=LINE('',#530,#124);
#91=LINE('',#532,#125);
#92=LINE('',#534,#126);
#93=LINE('',#535,#127);
#94=LINE('',#539,#128);
#95=LINE('',#541,#129);
#96=LINE('',#543,#130);
#97=LINE('',#544,#131);
#98=LINE('',#547,#132);
#99=LINE('',#549,#133);
#100=LINE('',#550,#134);
#101=LINE('',#555,#135);
#102=LINE('',#559,#136);
#103=LINE('',#564,#137);
#104=LINE('',#569,#138);
#105=LINE('',#573,#139);
#106=LINE('',#577,#140);
#107=LINE('',#581,#141);
#108=LINE('',#583,#142);
#109=LINE('',#585,#143);
#110=LINE('',#587,#144);
#111=VECTOR('',#400,10.);
#112=VECTOR('',#403,10.);
#113=VECTOR('',#408,10.);
#114=VECTOR('',#409,10.);
#115=VECTOR('',#410,10.);
#116=VECTOR('',#411,10.);
#117=VECTOR('',#414,10.);
#118=VECTOR('',#415,10.);
#119=VECTOR('',#416,10.);
#120=VECTOR('',#417,10.);
#121=VECTOR('',#418,10.);
#122=VECTOR('',#419,10.);
#123=VECTOR('',#420,10.);
#124=VECTOR('',#423,10.);
#125=VECTOR('',#424,10.);
#126=VECTOR('',#425,10.);
#127=VECTOR('',#426,10.);
#128=VECTOR('',#429,10.);
#129=VECTOR('',#430,10.);
#130=VECTOR('',#431,10.);
#131=VECTOR('',#432,10.);
#132=VECTOR('',#435,10.);
#133=VECTOR('',#436,10.);
#134=VECTOR('',#437,10.);
#135=VECTOR('',#442,10.);
#136=VECTOR('',#445,10.);
#137=VECTOR('',#454,10.);
#138=VECTOR('',#461,10.);
#139=VECTOR('',#466,10.);
#140=VECTOR('',#471,1.2);
#141=VECTOR('',#476,1.2);
#142=VECTOR('',#479,10.);
#143=VECTOR('',#482,10.);
#144=VECTOR('',#485,10.);
#145=VERTEX_POINT('',#496);
#146=VERTEX_POINT('',#497);
#147=VERTEX_POINT('',#499);
#148=VERTEX_POINT('',#501);
#149=VERTEX_POINT('',#505);
#150=VERTEX_POINT('',#506);
#151=VERTEX_POINT('',#508);
#152=VERTEX_POINT('',#510);
#153=VERTEX_POINT('',#514);
#154=VERTEX_POINT('',#515);
#155=VERTEX_POINT('',#517);
#156=VERTEX_POINT('',#520);
#157=VERTEX_POINT('',#522);
#158=VERTEX_POINT('',#524);
#159=VERTEX_POINT('',#528);
#160=VERTEX_POINT('',#529);
#161=VERTEX_POINT('',#531);
#162=VERTEX_POINT('',#533);
#163=VERTEX_POINT('',#537);
#164=VERTEX_POINT('',#538);
#165=VERTEX_POINT('',#540);
#166=VERTEX_POINT('',#542);
#167=VERTEX_POINT('',#546);
#168=VERTEX_POINT('',#548);
#169=VERTEX_POINT('',#552);
#170=VERTEX_POINT('',#554);
#171=VERTEX_POINT('',#556);
#172=VERTEX_POINT('',#558);
#173=VERTEX_POINT('',#565);
#174=VERTEX_POINT('',#570);
#175=VERTEX_POINT('',#575);
#176=VERTEX_POINT('',#579);
#177=EDGE_CURVE('',#145,#146,#77,.T.);
#178=EDGE_CURVE('',#146,#147,#63,.T.);
#179=EDGE_CURVE('',#147,#148,#78,.T.);
#180=EDGE_CURVE('',#148,#145,#64,.T.);
#181=EDGE_CURVE('',#149,#150,#79,.T.);
#182=EDGE_CURVE('',#151,#150,#80,.T.);
#183=EDGE_CURVE('',#152,#151,#81,.T.);
#184=EDGE_CURVE('',#152,#149,#82,.T.);
#185=EDGE_CURVE('',#153,#154,#83,.T.);
#186=EDGE_CURVE('',#154,#155,#84,.T.);
#187=EDGE_CURVE('',#146,#155,#85,.T.);
#188=EDGE_CURVE('',#156,#145,#86,.T.);
#189=EDGE_CURVE('',#156,#157,#87,.T.);
#190=EDGE_CURVE('',#157,#158,#88,.T.);
#191=EDGE_CURVE('',#153,#158,#89,.T.);
#192=EDGE_CURVE('',#159,#160,#90,.T.);
#193=EDGE_CURVE('',#160,#161,#91,.T.);
#194=EDGE_CURVE('',#161,#162,#92,.T.);
#195=EDGE_CURVE('',#159,#162,#93,.T.);
#196=EDGE_CURVE('',#163,#164,#94,.T.);
#197=EDGE_CURVE('',#165,#164,#95,.T.);
#198=EDGE_CURVE('',#166,#165,#96,.T.);
#199=EDGE_CURVE('',#166,#163,#97,.T.);
#200=EDGE_CURVE('',#148,#167,#98,.T.);
#201=EDGE_CURVE('',#168,#147,#99,.T.);
#202=EDGE_CURVE('',#167,#168,#100,.T.);
#203=EDGE_CURVE('',#169,#155,#65,.T.);
#204=EDGE_CURVE('',#170,#169,#101,.T.);
#205=EDGE_CURVE('',#171,#170,#66,.T.);
#206=EDGE_CURVE('',#172,#171,#102,.T.);
#207=EDGE_CURVE('',#154,#172,#67,.T.);
#208=EDGE_CURVE('',#168,#153,#68,.T.);
#209=EDGE_CURVE('',#160,#149,#69,.T.);
#210=EDGE_CURVE('',#161,#152,#103,.T.);
#211=EDGE_CURVE('',#173,#173,#70,.T.);
#212=EDGE_CURVE('',#156,#163,#71,.T.);
#213=EDGE_CURVE('',#157,#166,#104,.T.);
#214=EDGE_CURVE('',#174,#174,#72,.T.);
#215=EDGE_CURVE('',#169,#172,#105,.T.);
#216=EDGE_CURVE('',#175,#175,#73,.T.);
#217=EDGE_CURVE('',#175,#174,#106,.T.);
#218=EDGE_CURVE('',#176,#176,#74,.T.);
#219=EDGE_CURVE('',#176,#173,#107,.T.);
#220=EDGE_CURVE('',#170,#171,#108,.T.);
#221=EDGE_CURVE('',#158,#165,#109,.T.);
#222=EDGE_CURVE('',#162,#151,#110,.T.);
#223=EDGE_CURVE('',#150,#167,#75,.T.);
#224=EDGE_CURVE('',#164,#159,#76,.T.);
#225=ORIENTED_EDGE('',*,*,#177,.T.);
#226=ORIENTED_EDGE('',*,*,#178,.T.);
#227=ORIENTED_EDGE('',*,*,#179,.T.);
#228=ORIENTED_EDGE('',*,*,#180,.T.);
#229=ORIENTED_EDGE('',*,*,#181,.T.);
#230=ORIENTED_EDGE('',*,*,#182,.F.);
#231=ORIENTED_EDGE('',*,*,#183,.F.);
#232=ORIENTED_EDGE('',*,*,#184,.T.);
#233=ORIENTED_EDGE('',*,*,#185,.T.);
#234=ORIENTED_EDGE('',*,*,#186,.T.);
#235=ORIENTED_EDGE('',*,*,#187,.F.);
#236=ORIENTED_EDGE('',*,*,#177,.F.);
#237=ORIENTED_EDGE('',*,*,#188,.F.);
#238=ORIENTED_EDGE('',*,*,#189,.T.);
#239=ORIENTED_EDGE('',*,*,#190,.T.);
#240=ORIENTED_EDGE('',*,*,#191,.F.);
#241=ORIENTED_EDGE('',*,*,#192,.T.);
#242=ORIENTED_EDGE('',*,*,#193,.T.);
#243=ORIENTED_EDGE('',*,*,#194,.T.);
#244=ORIENTED_EDGE('',*,*,#195,.F.);
#245=ORIENTED_EDGE('',*,*,#196,.T.);
#246=ORIENTED_EDGE('',*,*,#197,.F.);
#247=ORIENTED_EDGE('',*,*,#198,.F.);
#248=ORIENTED_EDGE('',*,*,#199,.T.);
#249=ORIENTED_EDGE('',*,*,#200,.F.);
#250=ORIENTED_EDGE('',*,*,#179,.F.);
#251=ORIENTED_EDGE('',*,*,#201,.F.);
#252=ORIENTED_EDGE('',*,*,#202,.F.);
#253=ORIENTED_EDGE('',*,*,#187,.T.);
#254=ORIENTED_EDGE('',*,*,#203,.F.);
#255=ORIENTED_EDGE('',*,*,#204,.F.);
#256=ORIENTED_EDGE('',*,*,#205,.F.);
#257=ORIENTED_EDGE('',*,*,#206,.F.);
#258=ORIENTED_EDGE('',*,*,#207,.F.);
#259=ORIENTED_EDGE('',*,*,#185,.F.);
#260=ORIENTED_EDGE('',*,*,#208,.F.);
#261=ORIENTED_EDGE('',*,*,#201,.T.);
#262=ORIENTED_EDGE('',*,*,#178,.F.);
#263=ORIENTED_EDGE('',*,*,#209,.T.);
#264=ORIENTED_EDGE('',*,*,#184,.F.);
#265=ORIENTED_EDGE('',*,*,#210,.F.);
#266=ORIENTED_EDGE('',*,*,#193,.F.);
#267=ORIENTED_EDGE('',*,*,#211,.F.);
#268=ORIENTED_EDGE('',*,*,#212,.T.);
#269=ORIENTED_EDGE('',*,*,#199,.F.);
#270=ORIENTED_EDGE('',*,*,#213,.F.);
#271=ORIENTED_EDGE('',*,*,#189,.F.);
#272=ORIENTED_EDGE('',*,*,#214,.F.);
#273=ORIENTED_EDGE('',*,*,#203,.T.);
#274=ORIENTED_EDGE('',*,*,#186,.F.);
#275=ORIENTED_EDGE('',*,*,#207,.T.);
#276=ORIENTED_EDGE('',*,*,#215,.F.);
#277=ORIENTED_EDGE('',*,*,#216,.F.);
#278=ORIENTED_EDGE('',*,*,#217,.T.);
#279=ORIENTED_EDGE('',*,*,#214,.T.);
#280=ORIENTED_EDGE('',*,*,#217,.F.);
#281=ORIENTED_EDGE('',*,*,#218,.F.);
#282=ORIENTED_EDGE('',*,*,#219,.T.);
#283=ORIENTED_EDGE('',*,*,#211,.T.);
#284=ORIENTED_EDGE('',*,*,#219,.F.);
#285=ORIENTED_EDGE('',*,*,#206,.T.);
#286=ORIENTED_EDGE('',*,*,#220,.F.);
#287=ORIENTED_EDGE('',*,*,#204,.T.);
#288=ORIENTED_EDGE('',*,*,#215,.T.);
#289=ORIENTED_EDGE('',*,*,#213,.T.);
#290=ORIENTED_EDGE('',*,*,#198,.T.);
#291=ORIENTED_EDGE('',*,*,#221,.F.);
#292=ORIENTED_EDGE('',*,*,#190,.F.);
#293=ORIENTED_EDGE('',*,*,#210,.T.);
#294=ORIENTED_EDGE('',*,*,#183,.T.);
#295=ORIENTED_EDGE('',*,*,#222,.F.);
#296=ORIENTED_EDGE('',*,*,#194,.F.);
#297=ORIENTED_EDGE('',*,*,#195,.T.);
#298=ORIENTED_EDGE('',*,*,#222,.T.);
#299=ORIENTED_EDGE('',*,*,#182,.T.);
#300=ORIENTED_EDGE('',*,*,#223,.T.);
#301=ORIENTED_EDGE('',*,*,#202,.T.);
#302=ORIENTED_EDGE('',*,*,#208,.T.);
#303=ORIENTED_EDGE('',*,*,#191,.T.);
#304=ORIENTED_EDGE('',*,*,#221,.T.);
#305=ORIENTED_EDGE('',*,*,#197,.T.);
#306=ORIENTED_EDGE('',*,*,#224,.T.);
#307=ORIENTED_EDGE('',*,*,#218,.T.);
#308=ORIENTED_EDGE('',*,*,#216,.T.);
#309=ORIENTED_EDGE('',*,*,#205,.T.);
#310=ORIENTED_EDGE('',*,*,#220,.T.);
#311=ORIENTED_EDGE('',*,*,#188,.T.);
#312=ORIENTED_EDGE('',*,*,#180,.F.);
#313=ORIENTED_EDGE('',*,*,#200,.T.);
#314=ORIENTED_EDGE('',*,*,#223,.F.);
#315=ORIENTED_EDGE('',*,*,#181,.F.);
#316=ORIENTED_EDGE('',*,*,#209,.F.);
#317=ORIENTED_EDGE('',*,*,#192,.F.);
#318=ORIENTED_EDGE('',*,*,#224,.F.);
#319=ORIENTED_EDGE('',*,*,#196,.F.);
#320=ORIENTED_EDGE('',*,*,#212,.F.);
#321=PLANE('',#365);
#322=PLANE('',#368);
#323=PLANE('',#369);
#324=PLANE('',#370);
#325=PLANE('',#371);
#326=PLANE('',#372);
#327=PLANE('',#378);
#328=PLANE('',#381);
#329=PLANE('',#384);
#330=PLANE('',#389);
#331=PLANE('',#390);
#332=PLANE('',#391);
#333=PLANE('',#392);
#334=ADVANCED_FACE('',(#24),#321,.F.);
#335=ADVANCED_FACE('',(#25),#322,.T.);
#336=ADVANCED_FACE('',(#26),#323,.T.);
#337=ADVANCED_FACE('',(#27),#324,.T.);
#338=ADVANCED_FACE('',(#28),#325,.T.);
#339=ADVANCED_FACE('',(#29),#326,.F.);
#340=ADVANCED_FACE('',(#30),#20,.F.);
#341=ADVANCED_FACE('',(#31,#15),#327,.F.);
#342=ADVANCED_FACE('',(#32,#16),#328,.F.);
#343=ADVANCED_FACE('',(#33),#329,.F.);
#344=ADVANCED_FACE('',(#34),#21,.F.);
#345=ADVANCED_FACE('',(#35),#22,.F.);
#346=ADVANCED_FACE('',(#36),#330,.T.);
#347=ADVANCED_FACE('',(#37),#331,.T.);
#348=ADVANCED_FACE('',(#38),#332,.T.);
#349=ADVANCED_FACE('',(#39,#17,#18,#19),#333,.T.);
#350=ADVANCED_FACE('',(#40),#23,.T.);
#351=CLOSED_SHELL('',(#334,#335,#336,#337,#338,#339,#340,#341,#342,#343,
#344,#345,#346,#347,#348,#349,#350));
#352=DERIVED_UNIT_ELEMENT(#354,1.);
#353=DERIVED_UNIT_ELEMENT(#597,-3.);
#354=(
MASS_UNIT()
NAMED_UNIT(*)
SI_UNIT(.KILO.,.GRAM.)
);
#355=DERIVED_UNIT((#352,#353));
#356=MEASURE_REPRESENTATION_ITEM('density measure',
POSITIVE_RATIO_MEASURE(8490.),#355);
#357=PROPERTY_DEFINITION_REPRESENTATION(#362,#359);
#358=PROPERTY_DEFINITION_REPRESENTATION(#363,#360);
#359=REPRESENTATION('material name',(#361),#594);
#360=REPRESENTATION('density',(#356),#594);
#361=DESCRIPTIVE_REPRESENTATION_ITEM('\X2\9EC494DC\X0\','\X2\9EC494DC\X0\');
#362=PROPERTY_DEFINITION('material property','material name',#604);
#363=PROPERTY_DEFINITION('material property','density of part',#604);
#364=AXIS2_PLACEMENT_3D('',#494,#396,#397);
#365=AXIS2_PLACEMENT_3D('',#495,#398,#399);
#366=AXIS2_PLACEMENT_3D('',#500,#401,#402);
#367=AXIS2_PLACEMENT_3D('',#503,#404,#405);
#368=AXIS2_PLACEMENT_3D('',#504,#406,#407);
#369=AXIS2_PLACEMENT_3D('',#513,#412,#413);
#370=AXIS2_PLACEMENT_3D('',#527,#421,#422);
#371=AXIS2_PLACEMENT_3D('',#536,#427,#428);
#372=AXIS2_PLACEMENT_3D('',#545,#433,#434);
#373=AXIS2_PLACEMENT_3D('',#551,#438,#439);
#374=AXIS2_PLACEMENT_3D('',#553,#440,#441);
#375=AXIS2_PLACEMENT_3D('',#557,#443,#444);
#376=AXIS2_PLACEMENT_3D('',#560,#446,#447);
#377=AXIS2_PLACEMENT_3D('',#561,#448,#449);
#378=AXIS2_PLACEMENT_3D('',#562,#450,#451);
#379=AXIS2_PLACEMENT_3D('',#563,#452,#453);
#380=AXIS2_PLACEMENT_3D('',#566,#455,#456);
#381=AXIS2_PLACEMENT_3D('',#567,#457,#458);
#382=AXIS2_PLACEMENT_3D('',#568,#459,#460);
#383=AXIS2_PLACEMENT_3D('',#571,#462,#463);
#384=AXIS2_PLACEMENT_3D('',#572,#464,#465);
#385=AXIS2_PLACEMENT_3D('',#574,#467,#468);
#386=AXIS2_PLACEMENT_3D('',#576,#469,#470);
#387=AXIS2_PLACEMENT_3D('',#578,#472,#473);
#388=AXIS2_PLACEMENT_3D('',#580,#474,#475);
#389=AXIS2_PLACEMENT_3D('',#582,#477,#478);
#390=AXIS2_PLACEMENT_3D('',#584,#480,#481);
#391=AXIS2_PLACEMENT_3D('',#586,#483,#484);
#392=AXIS2_PLACEMENT_3D('',#588,#486,#487);
#393=AXIS2_PLACEMENT_3D('',#589,#488,#489);
#394=AXIS2_PLACEMENT_3D('',#590,#490,#491);
#395=AXIS2_PLACEMENT_3D('',#591,#492,#493);
#396=DIRECTION('axis',(0.,0.,1.));
#397=DIRECTION('refdir',(1.,0.,0.));
#398=DIRECTION('center_axis',(0.,1.,0.));
#399=DIRECTION('ref_axis',(-1.,0.,0.));
#400=DIRECTION('',(0.707106781186548,0.,-0.707106781186547));
#401=DIRECTION('center_axis',(0.,1.,0.));
#402=DIRECTION('ref_axis',(-1.,0.,0.));
#403=DIRECTION('',(-0.707106781186548,0.,-0.707106781186548));
#404=DIRECTION('center_axis',(0.,-1.,0.));
#405=DIRECTION('ref_axis',(-1.,0.,0.));
#406=DIRECTION('center_axis',(-0.707106781186547,0.,-0.707106781186548));
#407=DIRECTION('ref_axis',(-0.707106781186548,0.,0.707106781186547));
#408=DIRECTION('',(0.,1.,0.));
#409=DIRECTION('',(-0.707106781186548,0.,0.707106781186547));
#410=DIRECTION('',(0.,1.,0.));
#411=DIRECTION('',(-0.707106781186548,0.,0.707106781186547));
#412=DIRECTION('center_axis',(-0.707106781186547,0.,-0.707106781186548));
#413=DIRECTION('ref_axis',(-0.707106781186548,0.,0.707106781186547));
#414=DIRECTION('',(0.,-1.,0.));
#415=DIRECTION('',(-0.707106781186548,0.,0.707106781186547));
#416=DIRECTION('',(0.,1.,0.));
#417=DIRECTION('',(0.,-1.,0.));
#418=DIRECTION('',(-0.707106781186548,0.,0.707106781186547));
#419=DIRECTION('',(0.,1.,0.));
#420=DIRECTION('',(-0.707106781186548,0.,0.707106781186547));
#421=DIRECTION('center_axis',(0.707106781186548,0.,0.707106781186547));
#422=DIRECTION('ref_axis',(0.707106781186547,0.,-0.707106781186548));
#423=DIRECTION('',(0.,-1.,0.));
#424=DIRECTION('',(0.707106781186547,0.,-0.707106781186548));
#425=DIRECTION('',(0.,1.,0.));
#426=DIRECTION('',(0.707106781186547,0.,-0.707106781186548));
#427=DIRECTION('center_axis',(0.707106781186548,0.,0.707106781186547));
#428=DIRECTION('ref_axis',(0.707106781186547,0.,-0.707106781186548));
#429=DIRECTION('',(0.,1.,0.));
#430=DIRECTION('',(0.707106781186547,0.,-0.707106781186548));
#431=DIRECTION('',(0.,1.,0.));
#432=DIRECTION('',(0.707106781186547,0.,-0.707106781186548));
#433=DIRECTION('center_axis',(0.707106781186548,0.,-0.707106781186548));
#434=DIRECTION('ref_axis',(0.707106781186548,0.,0.707106781186548));
#435=DIRECTION('',(0.,1.,0.));
#436=DIRECTION('',(0.,-1.,0.));
#437=DIRECTION('',(0.707106781186548,0.,0.707106781186548));
#438=DIRECTION('center_axis',(0.,-1.,0.));
#439=DIRECTION('ref_axis',(0.992230042360062,0.,0.124416811718315));
#440=DIRECTION('center_axis',(0.,-1.,0.));
#441=DIRECTION('ref_axis',(-1.,0.,0.));
#442=DIRECTION('',(0.,-1.,0.));
#443=DIRECTION('center_axis',(0.,-1.,0.));
#444=DIRECTION('ref_axis',(-1.,0.,0.));
#445=DIRECTION('',(0.,1.,0.));
#446=DIRECTION('center_axis',(0.,-1.,0.));
#447=DIRECTION('ref_axis',(-1.,0.,0.));
#448=DIRECTION('center_axis',(0.,-1.,0.));
#449=DIRECTION('ref_axis',(-1.,0.,0.));
#450=DIRECTION('center_axis',(0.,1.,0.));
#451=DIRECTION('ref_axis',(-1.,0.,0.));
#452=DIRECTION('center_axis',(0.,1.,0.));
#453=DIRECTION('ref_axis',(-1.,0.,0.));
#454=DIRECTION('',(-0.707106781186548,0.,-0.707106781186548));
#455=DIRECTION('center_axis',(0.,-1.,0.));
#456=DIRECTION('ref_axis',(-1.,0.,0.));
#457=DIRECTION('center_axis',(0.,1.,0.));
#458=DIRECTION('ref_axis',(-1.,0.,0.));
#459=DIRECTION('center_axis',(0.,1.,0.));
#460=DIRECTION('ref_axis',(-1.,0.,0.));
#461=DIRECTION('',(0.707106781186548,0.,0.707106781186548));
#462=DIRECTION('center_axis',(0.,-1.,0.));
#463=DIRECTION('ref_axis',(-1.,0.,0.));
#464=DIRECTION('center_axis',(0.,1.,0.));
#465=DIRECTION('ref_axis',(-1.,0.,0.));
#466=DIRECTION('',(0.707106781186547,0.,-0.707106781186548));
#467=DIRECTION('center_axis',(0.,1.,0.));
#468=DIRECTION('ref_axis',(-1.,0.,0.));
#469=DIRECTION('center_axis',(0.,-1.,0.));
#470=DIRECTION('ref_axis',(-1.,0.,0.));
#471=DIRECTION('',(0.,-1.,0.));
#472=DIRECTION('center_axis',(0.,1.,0.));
#473=DIRECTION('ref_axis',(-1.,0.,0.));
#474=DIRECTION('center_axis',(0.,-1.,0.));
#475=DIRECTION('ref_axis',(-1.,0.,0.));
#476=DIRECTION('',(0.,-1.,0.));
#477=DIRECTION('center_axis',(0.707106781186548,0.,0.707106781186547));
#478=DIRECTION('ref_axis',(0.707106781186547,0.,-0.707106781186548));
#479=DIRECTION('',(0.707106781186547,0.,-0.707106781186548));
#480=DIRECTION('center_axis',(-0.707106781186548,0.,0.707106781186548));
#481=DIRECTION('ref_axis',(0.707106781186548,0.,0.707106781186548));
#482=DIRECTION('',(0.707106781186548,0.,0.707106781186548));
#483=DIRECTION('center_axis',(0.707106781186548,0.,-0.707106781186548));
#484=DIRECTION('ref_axis',(-0.707106781186548,0.,-0.707106781186548));
#485=DIRECTION('',(-0.707106781186548,0.,-0.707106781186548));
#486=DIRECTION('center_axis',(0.,1.,0.));
#487=DIRECTION('ref_axis',(-1.,0.,0.));
#488=DIRECTION('center_axis',(0.,1.,0.));
#489=DIRECTION('ref_axis',(-1.,0.,0.));
#490=DIRECTION('center_axis',(0.,1.,0.));
#491=DIRECTION('ref_axis',(-1.,0.,0.));
#492=DIRECTION('center_axis',(0.,-1.,0.));
#493=DIRECTION('ref_axis',(0.993886301230636,0.,0.110408424615538));
#494=CARTESIAN_POINT('',(0.,0.,0.));
#495=CARTESIAN_POINT('Origin',(49.4930638098027,7.,-36.6722134835344));
#496=CARTESIAN_POINT('',(41.887577979454,7.,-31.8600845072532));
#497=CARTESIAN_POINT('',(42.6146621709077,7.,-32.5871686987069));
#498=CARTESIAN_POINT('',(45.3555237768383,7.,-35.3280303046376));
#499=CARTESIAN_POINT('',(43.8362095603103,7.,-42.3290677330268));
#500=CARTESIAN_POINT('Origin',(49.4930638098027,7.,-36.6722134835344));
#501=CARTESIAN_POINT('',(43.1291027791238,7.,-43.0361745142133));
#502=CARTESIAN_POINT('',(46.3110832944632,7.,-39.8541939988739));
#503=CARTESIAN_POINT('Origin',(49.4930638098027,7.,-36.6722134835344));
#504=CARTESIAN_POINT('Origin',(58.5884362277974,8.5,-48.5609427555967));
#505=CARTESIAN_POINT('',(54.3051927860839,8.5,-44.2776993138831));
#506=CARTESIAN_POINT('',(54.3051927860839,10.,-44.2776993138831));
#507=CARTESIAN_POINT('',(54.3051927860839,8.5,-44.2776993138831));
#508=CARTESIAN_POINT('',(58.5884362277974,10.,-48.5609427555967));
#509=CARTESIAN_POINT('',(58.5884362277974,10.,-48.5609427555967));
#510=CARTESIAN_POINT('',(58.5884362277974,8.5,-48.5609427555967));
#511=CARTESIAN_POINT('',(58.5884362277974,8.5,-48.5609427555967));
#512=CARTESIAN_POINT('',(58.5884362277974,8.5,-48.5609427555967));
#513=CARTESIAN_POINT('Origin',(58.5884362277974,8.5,-48.5609427555967));
#514=CARTESIAN_POINT('',(53.5781085946302,10.,-43.5506151224294));
#515=CARTESIAN_POINT('',(53.5781085946302,8.5,-43.5506151224294));
#516=CARTESIAN_POINT('',(53.5781085946302,8.5,-43.5506151224294));
#517=CARTESIAN_POINT('',(42.6146621709077,8.5,-32.5871686987069));
#518=CARTESIAN_POINT('',(58.5884362277974,8.5,-48.5609427555967));
#519=CARTESIAN_POINT('',(42.6146621709077,8.5,-32.5871686987069));
#520=CARTESIAN_POINT('',(41.887577979454,8.5,-31.8600845072532));
#521=CARTESIAN_POINT('',(41.887577979454,8.5,-31.8600845072532));
#522=CARTESIAN_POINT('',(37.6043345377405,8.5,-27.5768410655397));
#523=CARTESIAN_POINT('',(58.5884362277974,8.5,-48.5609427555967));
#524=CARTESIAN_POINT('',(37.6043345377405,10.,-27.5768410655397));
#525=CARTESIAN_POINT('',(37.6043345377405,8.5,-27.5768410655397));
#526=CARTESIAN_POINT('',(58.5884362277974,10.,-48.5609427555967));
#527=CARTESIAN_POINT('Origin',(40.397691391808,8.5,-24.7834842114721));
#528=CARTESIAN_POINT('',(57.0985496401514,10.,-41.4843424598156));
#529=CARTESIAN_POINT('',(57.0985496401514,8.5,-41.4843424598156));
#530=CARTESIAN_POINT('',(57.0985496401514,8.5,-41.4843424598156));
#531=CARTESIAN_POINT('',(61.381793081865,8.5,-45.7675859015291));
#532=CARTESIAN_POINT('',(40.397691391808,8.5,-24.7834842114721));
#533=CARTESIAN_POINT('',(61.381793081865,10.,-45.7675859015291));
#534=CARTESIAN_POINT('',(61.381793081865,8.5,-45.7675859015291));
#535=CARTESIAN_POINT('',(40.397691391808,10.,-24.7834842114721));
#536=CARTESIAN_POINT('Origin',(40.397691391808,8.5,-24.7834842114721));
#537=CARTESIAN_POINT('',(44.6809348335216,8.5,-29.0667276531857));
#538=CARTESIAN_POINT('',(44.6809348335216,10.,-29.0667276531857));
#539=CARTESIAN_POINT('',(44.6809348335216,8.5,-29.0667276531857));
#540=CARTESIAN_POINT('',(40.397691391808,10.,-24.7834842114721));
#541=CARTESIAN_POINT('',(40.397691391808,10.,-24.7834842114721));
#542=CARTESIAN_POINT('',(40.397691391808,8.5,-24.7834842114721));
#543=CARTESIAN_POINT('',(40.397691391808,8.5,-24.7834842114721));
#544=CARTESIAN_POINT('',(40.397691391808,8.5,-24.7834842114721));
#545=CARTESIAN_POINT('Origin',(43.1291027791238,8.5,-43.0361745142133));
#546=CARTESIAN_POINT('',(43.1291027791238,10.,-43.0361745142133));
#547=CARTESIAN_POINT('',(43.1291027791238,8.5,-43.0361745142133));
#548=CARTESIAN_POINT('',(43.8362095603103,10.,-42.3290677330268));
#549=CARTESIAN_POINT('',(43.8362095603103,8.5,-42.3290677330268));
#550=CARTESIAN_POINT('',(43.8362095603103,10.,-42.3290677330268));
#551=CARTESIAN_POINT('Origin',(49.4930638098027,8.5,-36.6722134835344));
#552=CARTESIAN_POINT('',(45.4080190249753,8.5,-29.7938118446394));
#553=CARTESIAN_POINT('Origin',(49.4930638098027,8.5,-36.6722134835344));
#554=CARTESIAN_POINT('',(45.4080190249753,10.,-29.7938118446394));
#555=CARTESIAN_POINT('',(45.4080190249753,8.5,-29.7938118446394));
#556=CARTESIAN_POINT('',(56.3714654486978,10.,-40.7572582683619));
#557=CARTESIAN_POINT('Origin',(49.4930638098027,10.,-36.6722134835344));
#558=CARTESIAN_POINT('',(56.3714654486978,8.5,-40.7572582683619));
#559=CARTESIAN_POINT('',(56.3714654486978,8.5,-40.7572582683619));
#560=CARTESIAN_POINT('Origin',(49.4930638098027,8.5,-36.6722134835344));
#561=CARTESIAN_POINT('Origin',(49.4930638098027,10.,-36.6722134835344));
#562=CARTESIAN_POINT('Origin',(49.4930638098027,8.5,-36.6722134835344));
#563=CARTESIAN_POINT('Origin',(49.4930638098027,8.5,-36.6722134835344));
#564=CARTESIAN_POINT('',(61.381793081865,8.5,-45.7675859015291));
#565=CARTESIAN_POINT('',(59.6930638098027,8.5,-45.6722134835344));
#566=CARTESIAN_POINT('Origin',(58.4930638098027,8.5,-45.6722134835344));
#567=CARTESIAN_POINT('Origin',(49.4930638098027,8.5,-36.6722134835344));
#568=CARTESIAN_POINT('Origin',(49.4930638098027,8.5,-36.6722134835344));
#569=CARTESIAN_POINT('',(37.6043345377405,8.5,-27.5768410655397));
#570=CARTESIAN_POINT('',(41.6930638098027,8.5,-27.6722134835344));
#571=CARTESIAN_POINT('Origin',(40.4930638098027,8.5,-27.6722134835344));
#572=CARTESIAN_POINT('Origin',(49.4930638098027,8.5,-36.6722134835344));
#573=CARTESIAN_POINT('',(40.397691391808,8.5,-24.7834842114721));
#574=CARTESIAN_POINT('Origin',(40.4930638098027,8.5,-27.6722134835344));
#575=CARTESIAN_POINT('',(41.6930638098027,10.,-27.6722134835344));
#576=CARTESIAN_POINT('Origin',(40.4930638098027,10.,-27.6722134835344));
#577=CARTESIAN_POINT('',(41.6930638098027,8.5,-27.6722134835344));
#578=CARTESIAN_POINT('Origin',(58.4930638098027,8.5,-45.6722134835344));
#579=CARTESIAN_POINT('',(59.6930638098027,10.,-45.6722134835344));
#580=CARTESIAN_POINT('Origin',(58.4930638098027,10.,-45.6722134835344));
#581=CARTESIAN_POINT('',(59.6930638098027,8.5,-45.6722134835344));
#582=CARTESIAN_POINT('Origin',(40.397691391808,8.5,-24.7834842114721));
#583=CARTESIAN_POINT('',(40.397691391808,10.,-24.7834842114721));
#584=CARTESIAN_POINT('Origin',(37.6043345377405,8.5,-27.5768410655397));
#585=CARTESIAN_POINT('',(37.6043345377405,10.,-27.5768410655397));
#586=CARTESIAN_POINT('Origin',(61.381793081865,8.5,-45.7675859015291));
#587=CARTESIAN_POINT('',(61.381793081865,10.,-45.7675859015291));
#588=CARTESIAN_POINT('Origin',(49.4930638098027,10.,-36.6722134835344));
#589=CARTESIAN_POINT('Origin',(49.4930638098027,10.,-36.6722134835344));
#590=CARTESIAN_POINT('Origin',(49.4930638098027,10.,-36.6722134835344));
#591=CARTESIAN_POINT('Origin',(49.4930638098027,8.5,-36.6722134835344));
#592=UNCERTAINTY_MEASURE_WITH_UNIT(LENGTH_MEASURE(0.01),#596,
'DISTANCE_ACCURACY_VALUE',
'Maximum model space distance between geometric entities at asserted c
onnectivities');
#593=UNCERTAINTY_MEASURE_WITH_UNIT(LENGTH_MEASURE(0.01),#596,
'DISTANCE_ACCURACY_VALUE',
'Maximum model space distance between geometric entities at asserted c
onnectivities');
#594=(
GEOMETRIC_REPRESENTATION_CONTEXT(3)
GLOBAL_UNCERTAINTY_ASSIGNED_CONTEXT((#592))
GLOBAL_UNIT_ASSIGNED_CONTEXT((#596,#598,#599))
REPRESENTATION_CONTEXT('','3D')
);
#595=(
GEOMETRIC_REPRESENTATION_CONTEXT(3)
GLOBAL_UNCERTAINTY_ASSIGNED_CONTEXT((#593))
GLOBAL_UNIT_ASSIGNED_CONTEXT((#596,#598,#599))
REPRESENTATION_CONTEXT('','3D')
);
#596=(
LENGTH_UNIT()
NAMED_UNIT(*)
SI_UNIT(.MILLI.,.METRE.)
);
#597=(
LENGTH_UNIT()
NAMED_UNIT(*)
SI_UNIT($,.METRE.)
);
#598=(
NAMED_UNIT(*)
PLANE_ANGLE_UNIT()
SI_UNIT($,.RADIAN.)
);
#599=(
NAMED_UNIT(*)
SI_UNIT($,.STERADIAN.)
SOLID_ANGLE_UNIT()
);
#600=SHAPE_DEFINITION_REPRESENTATION(#601,#602);
#601=PRODUCT_DEFINITION_SHAPE('',$,#604);
#602=SHAPE_REPRESENTATION('',(#364),#594);
#603=PRODUCT_DEFINITION_CONTEXT('part definition',#608,'design');
#604=PRODUCT_DEFINITION('\X2\87029E23724795017D27\X0\',
'\X2\87029E23724795017D27\X0\',#605,#603);
#605=PRODUCT_DEFINITION_FORMATION('',$,#610);
#606=PRODUCT_RELATED_PRODUCT_CATEGORY('\X2\87029E23724795017D27\X0\',
'\X2\87029E23724795017D27\X0\',(#610));
#607=APPLICATION_PROTOCOL_DEFINITION('international standard',
'automotive_design',2009,#608);
#608=APPLICATION_CONTEXT(
'Core Data for Automotive Mechanical Design Process');
#609=PRODUCT_CONTEXT('part definition',#608,'mechanical');
#610=PRODUCT('\X2\87029E23724795017D27\X0\','\X2\87029E23724795017D27\X0\',
$,(#609));
#611=PRESENTATION_STYLE_ASSIGNMENT((#613));
#612=PRESENTATION_STYLE_ASSIGNMENT((#614));
#613=SURFACE_STYLE_USAGE(.BOTH.,#615);
#614=SURFACE_STYLE_USAGE(.BOTH.,#616);
#615=SURFACE_SIDE_STYLE('',(#617));
#616=SURFACE_SIDE_STYLE('',(#618));
#617=SURFACE_STYLE_FILL_AREA(#619);
#618=SURFACE_STYLE_FILL_AREA(#620);
#619=FILL_AREA_STYLE('\X2\9EC494DC\X0\ - \X2\629B5149\X0\',(#621));
#620=FILL_AREA_STYLE('ABS(\X2\767D8272\X0\)',(#622));
#621=FILL_AREA_STYLE_COLOUR('\X2\9EC494DC\X0\ - \X2\629B5149\X0\',#623);
#622=FILL_AREA_STYLE_COLOUR('ABS(\X2\767D8272\X0\)',#624);
#623=COLOUR_RGB('\X2\9EC494DC\X0\ - \X2\629B5149\X0\',0.952941176470588,
0.796078431372549,0.486274509803922);
#624=COLOUR_RGB('ABS(\X2\767D8272\X0\)',0.964705882352941,0.964705882352941,
0.952941176470588);
ENDSEC;
END-ISO-10303-21;
